%TF.GenerationSoftware,KiCad,Pcbnew,9.0.0*%
%TF.CreationDate,2026-02-26T12:38:32+00:00*%
%TF.ProjectId,GuitarMixer,47756974-6172-44d6-9978-65722e6b6963,V1.3*%
%TF.SameCoordinates,Original*%
%TF.FileFunction,Copper,L1,Top*%
%TF.FilePolarity,Positive*%
%FSLAX46Y46*%
G04 Gerber Fmt 4.6, Leading zero omitted, Abs format (unit mm)*
G04 Created by KiCad (PCBNEW 9.0.0) date 2026-02-26 12:38:32*
%MOMM*%
%LPD*%
G01*
G04 APERTURE LIST*
G04 Aperture macros list*
%AMRoundRect*
0 Rectangle with rounded corners*
0 $1 Rounding radius*
0 $2 $3 $4 $5 $6 $7 $8 $9 X,Y pos of 4 corners*
0 Add a 4 corners polygon primitive as box body*
4,1,4,$2,$3,$4,$5,$6,$7,$8,$9,$2,$3,0*
0 Add four circle primitives for the rounded corners*
1,1,$1+$1,$2,$3*
1,1,$1+$1,$4,$5*
1,1,$1+$1,$6,$7*
1,1,$1+$1,$8,$9*
0 Add four rect primitives between the rounded corners*
20,1,$1+$1,$2,$3,$4,$5,0*
20,1,$1+$1,$4,$5,$6,$7,0*
20,1,$1+$1,$6,$7,$8,$9,0*
20,1,$1+$1,$8,$9,$2,$3,0*%
G04 Aperture macros list end*
%TA.AperFunction,ComponentPad*%
%ADD10C,1.600000*%
%TD*%
%TA.AperFunction,ComponentPad*%
%ADD11O,1.600000X1.600000*%
%TD*%
%TA.AperFunction,ComponentPad*%
%ADD12R,1.600000X1.600000*%
%TD*%
%TA.AperFunction,ComponentPad*%
%ADD13RoundRect,0.250000X-0.550000X-0.550000X0.550000X-0.550000X0.550000X0.550000X-0.550000X0.550000X0*%
%TD*%
%TA.AperFunction,ComponentPad*%
%ADD14RoundRect,0.250000X-0.620000X-0.845000X0.620000X-0.845000X0.620000X0.845000X-0.620000X0.845000X0*%
%TD*%
%TA.AperFunction,ComponentPad*%
%ADD15O,1.740000X2.190000*%
%TD*%
%TA.AperFunction,ComponentPad*%
%ADD16RoundRect,0.250000X0.845000X-0.620000X0.845000X0.620000X-0.845000X0.620000X-0.845000X-0.620000X0*%
%TD*%
%TA.AperFunction,ComponentPad*%
%ADD17O,2.190000X1.740000*%
%TD*%
%TA.AperFunction,SMDPad,CuDef*%
%ADD18R,1.000000X1.500000*%
%TD*%
%TA.AperFunction,ComponentPad*%
%ADD19RoundRect,0.250000X-0.845000X0.620000X-0.845000X-0.620000X0.845000X-0.620000X0.845000X0.620000X0*%
%TD*%
%TA.AperFunction,ComponentPad*%
%ADD20R,1.800000X1.100000*%
%TD*%
%TA.AperFunction,ComponentPad*%
%ADD21RoundRect,0.275000X0.625000X-0.275000X0.625000X0.275000X-0.625000X0.275000X-0.625000X-0.275000X0*%
%TD*%
%TA.AperFunction,ComponentPad*%
%ADD22RoundRect,0.250000X0.550000X-0.550000X0.550000X0.550000X-0.550000X0.550000X-0.550000X-0.550000X0*%
%TD*%
%TA.AperFunction,ComponentPad*%
%ADD23O,2.000000X2.500000*%
%TD*%
%TA.AperFunction,ComponentPad*%
%ADD24RoundRect,0.250000X0.620000X0.845000X-0.620000X0.845000X-0.620000X-0.845000X0.620000X-0.845000X0*%
%TD*%
%TA.AperFunction,ComponentPad*%
%ADD25R,1.100000X1.800000*%
%TD*%
%TA.AperFunction,ComponentPad*%
%ADD26RoundRect,0.275000X0.275000X0.625000X-0.275000X0.625000X-0.275000X-0.625000X0.275000X-0.625000X0*%
%TD*%
%TA.AperFunction,Conductor*%
%ADD27C,1.000000*%
%TD*%
G04 APERTURE END LIST*
D10*
%TO.P,C2,1*%
%TO.N,Net-(J6-Pin_1)*%
X180945000Y-86500000D03*
%TO.P,C2,2*%
%TO.N,Net-(C2-Pad2)*%
X185945000Y-86500000D03*
%TD*%
%TO.P,R108,1*%
%TO.N,Net-(J2-Pin_2)*%
X151230000Y-83400000D03*
D11*
%TO.P,R108,2*%
%TO.N,Net-(U2A--)*%
X153770000Y-83400000D03*
%TD*%
D12*
%TO.P,C5,1*%
%TO.N,+9VA*%
X154825000Y-104150000D03*
D10*
%TO.P,C5,2*%
%TO.N,Earth*%
X154825000Y-102150000D03*
%TD*%
D12*
%TO.P,C3,1*%
%TO.N,Net-(C2-Pad2)*%
X183195000Y-81155113D03*
D10*
%TO.P,C3,2*%
%TO.N,Net-(J5-Pin_2)*%
X183195000Y-79155113D03*
%TD*%
%TO.P,C8,1*%
%TO.N,+4.5V*%
X144925000Y-98450000D03*
%TO.P,C8,2*%
%TO.N,-4.5V*%
X139925000Y-98450000D03*
%TD*%
%TO.P,C105,1*%
%TO.N,Net-(U1A--)*%
X150275000Y-79250000D03*
%TO.P,C105,2*%
%TO.N,Net-(J2-Pin_3)*%
X150275000Y-74250000D03*
%TD*%
%TO.P,C4,1*%
%TO.N,+9VA*%
X155915000Y-109150000D03*
%TO.P,C4,2*%
%TO.N,Earth*%
X150915000Y-109150000D03*
%TD*%
%TO.P,C101,1*%
%TO.N,Net-(J1-Pin_3)*%
X109075000Y-95450000D03*
%TO.P,C101,2*%
%TO.N,Earth*%
X114075000Y-95450000D03*
%TD*%
%TO.P,C205,1*%
%TO.N,Net-(U1B--)*%
X165775000Y-79450000D03*
%TO.P,C205,2*%
%TO.N,Net-(J3-Pin_3)*%
X165775000Y-74450000D03*
%TD*%
D12*
%TO.P,D1,1,K*%
%TO.N,+9VA*%
X161625000Y-113160000D03*
D11*
%TO.P,D1,2,A*%
%TO.N,Net-(D1-A)*%
X161625000Y-105540000D03*
%TD*%
D10*
%TO.P,C9,1*%
%TO.N,+4.5V*%
X169585000Y-84070000D03*
%TO.P,C9,2*%
%TO.N,-4.5V*%
X164585000Y-84070000D03*
%TD*%
%TO.P,R1011,1*%
%TO.N,Net-(Q1-G)*%
X126775000Y-73780000D03*
D11*
%TO.P,R1011,2*%
%TO.N,Net-(SW1-B)*%
X126775000Y-83940000D03*
%TD*%
D10*
%TO.P,R2,1*%
%TO.N,Net-(J6-Pin_3)*%
X159705000Y-97700000D03*
D11*
%TO.P,R2,2*%
%TO.N,Net-(C1-Pad2)*%
X149545000Y-97700000D03*
%TD*%
D10*
%TO.P,R4,1*%
%TO.N,Earth*%
X174125000Y-94010000D03*
D11*
%TO.P,R4,2*%
%TO.N,Net-(J5-Pin_2)*%
X174125000Y-83850000D03*
%TD*%
D10*
%TO.P,C203,1*%
%TO.N,Net-(J1-Pin_2)*%
X135825000Y-100350000D03*
%TO.P,C203,2*%
%TO.N,Net-(U1B-+)*%
X135825000Y-95350000D03*
%TD*%
D13*
%TO.P,U2,1*%
%TO.N,Net-(C1-Pad2)*%
X163405000Y-88230000D03*
D10*
%TO.P,U2,2,-*%
%TO.N,Net-(U2A--)*%
X163405000Y-90770000D03*
%TO.P,U2,3,+*%
%TO.N,Earth*%
X163405000Y-93310000D03*
%TO.P,U2,4,V-*%
%TO.N,-4.5V*%
X163405000Y-95850000D03*
%TO.P,U2,5,+*%
%TO.N,Earth*%
X171025000Y-95850000D03*
%TO.P,U2,6,-*%
%TO.N,Net-(J6-Pin_1)*%
X171025000Y-93310000D03*
%TO.P,U2,7*%
%TO.N,Net-(C2-Pad2)*%
X171025000Y-90770000D03*
%TO.P,U2,8,V+*%
%TO.N,+4.5V*%
X171025000Y-88230000D03*
%TD*%
D14*
%TO.P,J5,1,Pin_1*%
%TO.N,Earth*%
X172455000Y-76300000D03*
D15*
%TO.P,J5,2,Pin_2*%
%TO.N,Net-(J5-Pin_2)*%
X174995000Y-76300000D03*
%TD*%
D10*
%TO.P,C1,1*%
%TO.N,Net-(U2A--)*%
X154835000Y-88920000D03*
%TO.P,C1,2*%
%TO.N,Net-(C1-Pad2)*%
X149835000Y-88920000D03*
%TD*%
%TO.P,R3,1*%
%TO.N,Net-(J6-Pin_1)*%
X177415000Y-92400000D03*
D11*
%TO.P,R3,2*%
%TO.N,Net-(C2-Pad2)*%
X187575000Y-92400000D03*
%TD*%
D16*
%TO.P,J1,1,Pin_1*%
%TO.N,Earth*%
X111645000Y-91000000D03*
D17*
%TO.P,J1,2,Pin_2*%
%TO.N,Net-(J1-Pin_2)*%
X111645000Y-88460000D03*
%TO.P,J1,3,Pin_3*%
%TO.N,Net-(J1-Pin_3)*%
X111645000Y-85920000D03*
%TD*%
D10*
%TO.P,R201,1*%
%TO.N,Net-(J1-Pin_2)*%
X120875000Y-100350000D03*
D11*
%TO.P,R201,2*%
%TO.N,Earth*%
X110715000Y-100350000D03*
%TD*%
D18*
%TO.P,JP1,1,A*%
%TO.N,+9VA*%
X120175000Y-76000000D03*
%TO.P,JP1,2,C*%
%TO.N,Net-(JP1-C)*%
X121475000Y-76000000D03*
%TO.P,JP1,3,B*%
%TO.N,+4.5V*%
X122775000Y-76000000D03*
%TD*%
D19*
%TO.P,J6,1,Pin_1*%
%TO.N,Net-(J6-Pin_1)*%
X182845000Y-97570000D03*
D17*
%TO.P,J6,2,Pin_2*%
X182845000Y-100110000D03*
%TO.P,J6,3,Pin_3*%
%TO.N,Net-(J6-Pin_3)*%
X182845000Y-102650000D03*
%TD*%
D10*
%TO.P,C102,1*%
%TO.N,Net-(J1-Pin_3)*%
X109775000Y-80750000D03*
%TO.P,C102,2*%
%TO.N,Net-(Q1-G)*%
X114775000Y-80750000D03*
%TD*%
%TO.P,R1,1*%
%TO.N,Net-(U2A--)*%
X159705000Y-92970000D03*
D11*
%TO.P,R1,2*%
%TO.N,Net-(C1-Pad2)*%
X149545000Y-92970000D03*
%TD*%
D10*
%TO.P,R208,1*%
%TO.N,Net-(J3-Pin_2)*%
X159300000Y-83400000D03*
D11*
%TO.P,R208,2*%
%TO.N,Net-(U2A--)*%
X156760000Y-83400000D03*
%TD*%
D10*
%TO.P,R6,1*%
%TO.N,+4.5V*%
X144685000Y-112900000D03*
D11*
%TO.P,R6,2*%
%TO.N,Net-(U3-ADJ)*%
X147225000Y-112900000D03*
%TD*%
D10*
%TO.P,R102,1*%
%TO.N,Net-(Q1-S)*%
X131625000Y-87600000D03*
D11*
%TO.P,R102,2*%
%TO.N,Earth*%
X131625000Y-97760000D03*
%TD*%
D10*
%TO.P,R1012,1*%
%TO.N,Net-(SW1-B)*%
X126775000Y-87600000D03*
D11*
%TO.P,R1012,2*%
%TO.N,Earth*%
X126775000Y-97760000D03*
%TD*%
D10*
%TO.P,R5,1*%
%TO.N,Net-(U3-ADJ)*%
X150275000Y-112900000D03*
D11*
%TO.P,R5,2*%
%TO.N,Earth*%
X152815000Y-112900000D03*
%TD*%
D20*
%TO.P,Q1,1,S*%
%TO.N,Net-(Q1-S)*%
X133395000Y-76400000D03*
D21*
%TO.P,Q1,2,D*%
%TO.N,Net-(JP1-C)*%
X131325000Y-75130000D03*
%TO.P,Q1,3,G*%
%TO.N,Net-(Q1-G)*%
X133395000Y-73860000D03*
%TD*%
D12*
%TO.P,C7,1*%
%TO.N,Net-(U4-CAP+)*%
X139575000Y-111100000D03*
D10*
%TO.P,C7,2*%
%TO.N,Net-(U4-CAP-)*%
X139575000Y-109100000D03*
%TD*%
D13*
%TO.P,U1,1*%
%TO.N,Net-(U1A--)*%
X139005000Y-85910000D03*
D10*
%TO.P,U1,2,-*%
X139005000Y-88450000D03*
%TO.P,U1,3,+*%
%TO.N,Net-(U1A-+)*%
X139005000Y-90990000D03*
%TO.P,U1,4,V-*%
%TO.N,-4.5V*%
X139005000Y-93530000D03*
%TO.P,U1,5,+*%
%TO.N,Net-(U1B-+)*%
X146625000Y-93530000D03*
%TO.P,U1,6,-*%
%TO.N,Net-(U1B--)*%
X146625000Y-90990000D03*
%TO.P,U1,7*%
X146625000Y-88450000D03*
%TO.P,U1,8,V+*%
%TO.N,+4.5V*%
X146625000Y-85910000D03*
%TD*%
D22*
%TO.P,U4,1,NC*%
%TO.N,unconnected-(U4-NC-Pad1)*%
X124995000Y-109550000D03*
D10*
%TO.P,U4,2,CAP+*%
%TO.N,Net-(U4-CAP+)*%
X127535000Y-109550000D03*
%TO.P,U4,3,GND*%
%TO.N,Earth*%
X130075000Y-109550000D03*
%TO.P,U4,4,CAP-*%
%TO.N,Net-(U4-CAP-)*%
X132615000Y-109550000D03*
%TO.P,U4,5,VOUT*%
%TO.N,-4.5V*%
X132615000Y-101930000D03*
%TO.P,U4,6,LV*%
%TO.N,unconnected-(U4-LV-Pad6)*%
X130075000Y-101930000D03*
%TO.P,U4,7,OSC*%
%TO.N,unconnected-(U4-OSC-Pad7)*%
X127535000Y-101930000D03*
%TO.P,U4,8,V+*%
%TO.N,+4.5V*%
X124995000Y-101930000D03*
%TD*%
D14*
%TO.P,J2,1,Pin_1*%
%TO.N,Earth*%
X140175000Y-76300000D03*
D15*
%TO.P,J2,2,Pin_2*%
%TO.N,Net-(J2-Pin_2)*%
X142715000Y-76300000D03*
%TO.P,J2,3,Pin_3*%
%TO.N,Net-(J2-Pin_3)*%
X145255000Y-76300000D03*
%TD*%
D23*
%TO.P,SW1,1,A*%
%TO.N,Earth*%
X121375000Y-91050000D03*
%TO.P,SW1,2,B*%
%TO.N,Net-(SW1-B)*%
X121375000Y-88050000D03*
%TO.P,SW1,3*%
%TO.N,N/C*%
X121375000Y-85050000D03*
%TD*%
D14*
%TO.P,J3,1,Pin_1*%
%TO.N,Earth*%
X155715000Y-76300000D03*
D15*
%TO.P,J3,2,Pin_2*%
%TO.N,Net-(J3-Pin_2)*%
X158255000Y-76300000D03*
%TO.P,J3,3,Pin_3*%
%TO.N,Net-(J3-Pin_3)*%
X160795000Y-76300000D03*
%TD*%
D12*
%TO.P,C6,1*%
%TO.N,Earth*%
X139375000Y-105300000D03*
D10*
%TO.P,C6,2*%
%TO.N,-4.5V*%
X139375000Y-103300000D03*
%TD*%
D24*
%TO.P,J4,1,Pin_1*%
%TO.N,Earth*%
X169015000Y-109150000D03*
D15*
%TO.P,J4,2,Pin_2*%
%TO.N,Net-(D1-A)*%
X166475000Y-109150000D03*
%TD*%
D25*
%TO.P,U3,1,ADJ*%
%TO.N,Net-(U3-ADJ)*%
X147195000Y-105700000D03*
D26*
%TO.P,U3,2,VO*%
%TO.N,+4.5V*%
X145925000Y-107770000D03*
%TO.P,U3,3,VI*%
%TO.N,+9VA*%
X144655000Y-105700000D03*
%TD*%
D10*
%TO.P,R103,1*%
%TO.N,Net-(C103-Pad2)*%
X135425000Y-79670000D03*
D11*
%TO.P,R103,2*%
%TO.N,Net-(U1A-+)*%
X135425000Y-89830000D03*
%TD*%
D10*
%TO.P,C103,1*%
%TO.N,Net-(Q1-S)*%
X131575000Y-84730000D03*
%TO.P,C103,2*%
%TO.N,Net-(C103-Pad2)*%
X131575000Y-79730000D03*
%TD*%
D27*
%TO.N,Net-(U2A--)*%
X154835000Y-85010000D02*
X153775000Y-83950000D01*
X156765000Y-83950000D02*
X155705000Y-85010000D01*
X159705000Y-92970000D02*
X161905000Y-90770000D01*
X155705000Y-85010000D02*
X154835000Y-85010000D01*
X154835000Y-88920000D02*
X154835000Y-85010000D01*
X161905000Y-90770000D02*
X163405000Y-90770000D01*
%TO.N,Net-(J6-Pin_1)*%
X171025000Y-93310000D02*
X172126000Y-92209000D01*
X177224000Y-92209000D02*
X177415000Y-92400000D01*
X172126000Y-92209000D02*
X177224000Y-92209000D01*
%TO.N,Net-(C2-Pad2)*%
X183195000Y-81155113D02*
X174380112Y-89970001D01*
X174380112Y-89970001D02*
X171824999Y-89970001D01*
X171824999Y-89970001D02*
X171025000Y-90770000D01*
%TO.N,Net-(J5-Pin_2)*%
X183195000Y-79155113D02*
X177850113Y-79155113D01*
X177850113Y-79155113D02*
X174995000Y-76300000D01*
%TO.N,+9VA*%
X155915000Y-113710000D02*
X154576000Y-115049000D01*
X155915000Y-109150000D02*
X155915000Y-113710000D01*
X111726000Y-76000000D02*
X119974000Y-76000000D01*
X159736000Y-115049000D02*
X161625000Y-113160000D01*
X144655000Y-106100000D02*
X144655000Y-104788000D01*
X154825000Y-108060000D02*
X155915000Y-109150000D01*
X107274000Y-103048000D02*
X107274000Y-80452000D01*
X119275000Y-115049000D02*
X107274000Y-103048000D01*
X107274000Y-80452000D02*
X111726000Y-76000000D01*
X144655000Y-104788000D02*
X145644000Y-103799000D01*
X154825000Y-104150000D02*
X154825000Y-108060000D01*
X154576000Y-115049000D02*
X159736000Y-115049000D01*
X154576000Y-115049000D02*
X119275000Y-115049000D01*
X145644000Y-103799000D02*
X150564000Y-103799000D01*
X150564000Y-103799000D02*
X154825000Y-108060000D01*
%TO.N,-4.5V*%
X164585000Y-84070000D02*
X165206000Y-84691000D01*
X139925000Y-98450000D02*
X139925000Y-94450000D01*
X165206000Y-95180370D02*
X164536370Y-95850000D01*
X165206000Y-84691000D02*
X165206000Y-95180370D01*
X139925000Y-94450000D02*
X139005000Y-93530000D01*
X164536370Y-95850000D02*
X163405000Y-95850000D01*
%TO.N,Net-(U4-CAP+)*%
X127535000Y-109550000D02*
X127535000Y-110681370D01*
X139324000Y-111351000D02*
X139575000Y-111100000D01*
X128204630Y-111351000D02*
X139324000Y-111351000D01*
X127535000Y-110681370D02*
X128204630Y-111351000D01*
%TO.N,+4.5V*%
X143962842Y-107720000D02*
X145575000Y-107720000D01*
X146625000Y-85300000D02*
X150625000Y-81300000D01*
X169585000Y-74510000D02*
X167054000Y-71979000D01*
X144685000Y-112900000D02*
X141377000Y-112900000D01*
X144125001Y-88403000D02*
X144125001Y-97650001D01*
X145925000Y-107370000D02*
X145925000Y-108352000D01*
X145575000Y-107720000D02*
X145925000Y-107370000D01*
X124995000Y-101930000D02*
X121825000Y-105100000D01*
X122976000Y-75032001D02*
X122976000Y-76000000D01*
X144125001Y-97650001D02*
X144925000Y-98450000D01*
X121825000Y-105100000D02*
X121825000Y-110550000D01*
X124176000Y-112901000D02*
X141376000Y-112901000D01*
X143104000Y-100271000D02*
X143104000Y-106861158D01*
X144925000Y-98450000D02*
X143104000Y-100271000D01*
X146618001Y-85910000D02*
X144125001Y-88403000D01*
X121825000Y-110550000D02*
X124176000Y-112901000D01*
X169585000Y-84070000D02*
X169585000Y-74510000D01*
X145925000Y-108352000D02*
X141377000Y-112900000D01*
X150625000Y-81300000D02*
X166815000Y-81300000D01*
X169585000Y-86790000D02*
X171025000Y-88230000D01*
X169585000Y-84070000D02*
X169585000Y-86790000D01*
X167054000Y-71979000D02*
X126029001Y-71979000D01*
X166815000Y-81300000D02*
X169585000Y-84070000D01*
X146625000Y-85910000D02*
X146625000Y-85300000D01*
X143104000Y-106861158D02*
X143962842Y-107720000D01*
X126029001Y-71979000D02*
X122976000Y-75032001D01*
%TO.N,Net-(J1-Pin_3)*%
X111645000Y-82620000D02*
X109775000Y-80750000D01*
X109075000Y-86395000D02*
X109075000Y-95450000D01*
X109550000Y-85920000D02*
X109075000Y-86395000D01*
X111645000Y-85920000D02*
X111645000Y-82620000D01*
X111645000Y-85920000D02*
X109550000Y-85920000D01*
%TO.N,Net-(U1A--)*%
X150275000Y-79250000D02*
X145665000Y-79250000D01*
X139005000Y-85910000D02*
X145665000Y-79250000D01*
%TO.N,Net-(J1-Pin_2)*%
X135604000Y-100129000D02*
X135825000Y-100350000D01*
X120875000Y-95595000D02*
X113740000Y-88460000D01*
X120875000Y-100350000D02*
X121096000Y-100129000D01*
X121096000Y-100129000D02*
X135604000Y-100129000D01*
X113740000Y-88460000D02*
X111645000Y-88460000D01*
X120875000Y-100350000D02*
X120875000Y-95595000D01*
%TO.N,Net-(D1-A)*%
X162865000Y-105540000D02*
X166475000Y-109150000D01*
X161625000Y-105540000D02*
X162865000Y-105540000D01*
%TO.N,Net-(J6-Pin_3)*%
X182845000Y-102650000D02*
X164655000Y-102650000D01*
X164655000Y-102650000D02*
X159705000Y-97700000D01*
%TO.N,Net-(JP1-C)*%
X122976000Y-78500000D02*
X121475000Y-76999000D01*
X121475000Y-76999000D02*
X121475000Y-76000000D01*
X128355000Y-78500000D02*
X122976000Y-78500000D01*
X131725000Y-75130000D02*
X128355000Y-78500000D01*
%TD*%
M02*
