%TF.GenerationSoftware,KiCad,Pcbnew,9.0.0*%
%TF.CreationDate,2026-02-26T12:38:32+00:00*%
%TF.ProjectId,GuitarMixer,47756974-6172-44d6-9978-65722e6b6963,V1.3*%
%TF.SameCoordinates,Original*%
%TF.FileFunction,Copper,L2,Bot*%
%TF.FilePolarity,Positive*%
%FSLAX46Y46*%
G04 Gerber Fmt 4.6, Leading zero omitted, Abs format (unit mm)*
G04 Created by KiCad (PCBNEW 9.0.0) date 2026-02-26 12:38:32*
%MOMM*%
%LPD*%
G01*
G04 APERTURE LIST*
G04 Aperture macros list*
%AMRoundRect*
0 Rectangle with rounded corners*
0 $1 Rounding radius*
0 $2 $3 $4 $5 $6 $7 $8 $9 X,Y pos of 4 corners*
0 Add a 4 corners polygon primitive as box body*
4,1,4,$2,$3,$4,$5,$6,$7,$8,$9,$2,$3,0*
0 Add four circle primitives for the rounded corners*
1,1,$1+$1,$2,$3*
1,1,$1+$1,$4,$5*
1,1,$1+$1,$6,$7*
1,1,$1+$1,$8,$9*
0 Add four rect primitives between the rounded corners*
20,1,$1+$1,$2,$3,$4,$5,0*
20,1,$1+$1,$4,$5,$6,$7,0*
20,1,$1+$1,$6,$7,$8,$9,0*
20,1,$1+$1,$8,$9,$2,$3,0*%
G04 Aperture macros list end*
%TA.AperFunction,ComponentPad*%
%ADD10C,1.600000*%
%TD*%
%TA.AperFunction,ComponentPad*%
%ADD11O,1.600000X1.600000*%
%TD*%
%TA.AperFunction,ComponentPad*%
%ADD12R,1.600000X1.600000*%
%TD*%
%TA.AperFunction,ComponentPad*%
%ADD13RoundRect,0.250000X-0.550000X-0.550000X0.550000X-0.550000X0.550000X0.550000X-0.550000X0.550000X0*%
%TD*%
%TA.AperFunction,ComponentPad*%
%ADD14RoundRect,0.250000X-0.620000X-0.845000X0.620000X-0.845000X0.620000X0.845000X-0.620000X0.845000X0*%
%TD*%
%TA.AperFunction,ComponentPad*%
%ADD15O,1.740000X2.190000*%
%TD*%
%TA.AperFunction,ComponentPad*%
%ADD16RoundRect,0.250000X0.845000X-0.620000X0.845000X0.620000X-0.845000X0.620000X-0.845000X-0.620000X0*%
%TD*%
%TA.AperFunction,ComponentPad*%
%ADD17O,2.190000X1.740000*%
%TD*%
%TA.AperFunction,ComponentPad*%
%ADD18RoundRect,0.250000X-0.845000X0.620000X-0.845000X-0.620000X0.845000X-0.620000X0.845000X0.620000X0*%
%TD*%
%TA.AperFunction,ComponentPad*%
%ADD19R,1.800000X1.100000*%
%TD*%
%TA.AperFunction,ComponentPad*%
%ADD20RoundRect,0.275000X0.625000X-0.275000X0.625000X0.275000X-0.625000X0.275000X-0.625000X-0.275000X0*%
%TD*%
%TA.AperFunction,ComponentPad*%
%ADD21RoundRect,0.250000X0.550000X-0.550000X0.550000X0.550000X-0.550000X0.550000X-0.550000X-0.550000X0*%
%TD*%
%TA.AperFunction,ComponentPad*%
%ADD22O,2.000000X2.500000*%
%TD*%
%TA.AperFunction,ComponentPad*%
%ADD23RoundRect,0.250000X0.620000X0.845000X-0.620000X0.845000X-0.620000X-0.845000X0.620000X-0.845000X0*%
%TD*%
%TA.AperFunction,ComponentPad*%
%ADD24R,1.100000X1.800000*%
%TD*%
%TA.AperFunction,ComponentPad*%
%ADD25RoundRect,0.275000X0.275000X0.625000X-0.275000X0.625000X-0.275000X-0.625000X0.275000X-0.625000X0*%
%TD*%
%TA.AperFunction,Conductor*%
%ADD26C,1.000000*%
%TD*%
G04 APERTURE END LIST*
D10*
%TO.P,C2,1*%
%TO.N,Net-(J6-Pin_1)*%
X180945000Y-86500000D03*
%TO.P,C2,2*%
%TO.N,Net-(C2-Pad2)*%
X185945000Y-86500000D03*
%TD*%
%TO.P,R108,1*%
%TO.N,Net-(J2-Pin_2)*%
X151230000Y-83400000D03*
D11*
%TO.P,R108,2*%
%TO.N,Net-(U2A--)*%
X153770000Y-83400000D03*
%TD*%
D12*
%TO.P,C5,1*%
%TO.N,+9VA*%
X154825000Y-104150000D03*
D10*
%TO.P,C5,2*%
%TO.N,Earth*%
X154825000Y-102150000D03*
%TD*%
D12*
%TO.P,C3,1*%
%TO.N,Net-(C2-Pad2)*%
X183195000Y-81155113D03*
D10*
%TO.P,C3,2*%
%TO.N,Net-(J5-Pin_2)*%
X183195000Y-79155113D03*
%TD*%
%TO.P,C8,1*%
%TO.N,+4.5V*%
X144925000Y-98450000D03*
%TO.P,C8,2*%
%TO.N,-4.5V*%
X139925000Y-98450000D03*
%TD*%
%TO.P,C105,1*%
%TO.N,Net-(U1A--)*%
X150275000Y-79250000D03*
%TO.P,C105,2*%
%TO.N,Net-(J2-Pin_3)*%
X150275000Y-74250000D03*
%TD*%
%TO.P,C4,1*%
%TO.N,+9VA*%
X155915000Y-109150000D03*
%TO.P,C4,2*%
%TO.N,Earth*%
X150915000Y-109150000D03*
%TD*%
%TO.P,C101,1*%
%TO.N,Net-(J1-Pin_3)*%
X109075000Y-95450000D03*
%TO.P,C101,2*%
%TO.N,Earth*%
X114075000Y-95450000D03*
%TD*%
%TO.P,C205,1*%
%TO.N,Net-(U1B--)*%
X165775000Y-79450000D03*
%TO.P,C205,2*%
%TO.N,Net-(J3-Pin_3)*%
X165775000Y-74450000D03*
%TD*%
D12*
%TO.P,D1,1,K*%
%TO.N,+9VA*%
X161625000Y-113160000D03*
D11*
%TO.P,D1,2,A*%
%TO.N,Net-(D1-A)*%
X161625000Y-105540000D03*
%TD*%
D10*
%TO.P,C9,1*%
%TO.N,+4.5V*%
X169585000Y-84070000D03*
%TO.P,C9,2*%
%TO.N,-4.5V*%
X164585000Y-84070000D03*
%TD*%
%TO.P,R1011,1*%
%TO.N,Net-(Q1-G)*%
X126775000Y-73780000D03*
D11*
%TO.P,R1011,2*%
%TO.N,Net-(SW1-B)*%
X126775000Y-83940000D03*
%TD*%
D10*
%TO.P,R2,1*%
%TO.N,Net-(J6-Pin_3)*%
X159705000Y-97700000D03*
D11*
%TO.P,R2,2*%
%TO.N,Net-(C1-Pad2)*%
X149545000Y-97700000D03*
%TD*%
D10*
%TO.P,R4,1*%
%TO.N,Earth*%
X174125000Y-94010000D03*
D11*
%TO.P,R4,2*%
%TO.N,Net-(J5-Pin_2)*%
X174125000Y-83850000D03*
%TD*%
D10*
%TO.P,C203,1*%
%TO.N,Net-(J1-Pin_2)*%
X135825000Y-100350000D03*
%TO.P,C203,2*%
%TO.N,Net-(U1B-+)*%
X135825000Y-95350000D03*
%TD*%
D13*
%TO.P,U2,1*%
%TO.N,Net-(C1-Pad2)*%
X163405000Y-88230000D03*
D10*
%TO.P,U2,2,-*%
%TO.N,Net-(U2A--)*%
X163405000Y-90770000D03*
%TO.P,U2,3,+*%
%TO.N,Earth*%
X163405000Y-93310000D03*
%TO.P,U2,4,V-*%
%TO.N,-4.5V*%
X163405000Y-95850000D03*
%TO.P,U2,5,+*%
%TO.N,Earth*%
X171025000Y-95850000D03*
%TO.P,U2,6,-*%
%TO.N,Net-(J6-Pin_1)*%
X171025000Y-93310000D03*
%TO.P,U2,7*%
%TO.N,Net-(C2-Pad2)*%
X171025000Y-90770000D03*
%TO.P,U2,8,V+*%
%TO.N,+4.5V*%
X171025000Y-88230000D03*
%TD*%
D14*
%TO.P,J5,1,Pin_1*%
%TO.N,Earth*%
X172455000Y-76300000D03*
D15*
%TO.P,J5,2,Pin_2*%
%TO.N,Net-(J5-Pin_2)*%
X174995000Y-76300000D03*
%TD*%
D10*
%TO.P,C1,1*%
%TO.N,Net-(U2A--)*%
X154835000Y-88920000D03*
%TO.P,C1,2*%
%TO.N,Net-(C1-Pad2)*%
X149835000Y-88920000D03*
%TD*%
%TO.P,R3,1*%
%TO.N,Net-(J6-Pin_1)*%
X177415000Y-92400000D03*
D11*
%TO.P,R3,2*%
%TO.N,Net-(C2-Pad2)*%
X187575000Y-92400000D03*
%TD*%
D16*
%TO.P,J1,1,Pin_1*%
%TO.N,Earth*%
X111645000Y-91000000D03*
D17*
%TO.P,J1,2,Pin_2*%
%TO.N,Net-(J1-Pin_2)*%
X111645000Y-88460000D03*
%TO.P,J1,3,Pin_3*%
%TO.N,Net-(J1-Pin_3)*%
X111645000Y-85920000D03*
%TD*%
D10*
%TO.P,R201,1*%
%TO.N,Net-(J1-Pin_2)*%
X120875000Y-100350000D03*
D11*
%TO.P,R201,2*%
%TO.N,Earth*%
X110715000Y-100350000D03*
%TD*%
D18*
%TO.P,J6,1,Pin_1*%
%TO.N,Net-(J6-Pin_1)*%
X182845000Y-97570000D03*
D17*
%TO.P,J6,2,Pin_2*%
X182845000Y-100110000D03*
%TO.P,J6,3,Pin_3*%
%TO.N,Net-(J6-Pin_3)*%
X182845000Y-102650000D03*
%TD*%
D10*
%TO.P,C102,1*%
%TO.N,Net-(J1-Pin_3)*%
X109775000Y-80750000D03*
%TO.P,C102,2*%
%TO.N,Net-(Q1-G)*%
X114775000Y-80750000D03*
%TD*%
%TO.P,R1,1*%
%TO.N,Net-(U2A--)*%
X159705000Y-92970000D03*
D11*
%TO.P,R1,2*%
%TO.N,Net-(C1-Pad2)*%
X149545000Y-92970000D03*
%TD*%
D10*
%TO.P,R208,1*%
%TO.N,Net-(J3-Pin_2)*%
X159300000Y-83400000D03*
D11*
%TO.P,R208,2*%
%TO.N,Net-(U2A--)*%
X156760000Y-83400000D03*
%TD*%
D10*
%TO.P,R6,1*%
%TO.N,+4.5V*%
X144685000Y-112900000D03*
D11*
%TO.P,R6,2*%
%TO.N,Net-(U3-ADJ)*%
X147225000Y-112900000D03*
%TD*%
D10*
%TO.P,R102,1*%
%TO.N,Net-(Q1-S)*%
X131625000Y-87600000D03*
D11*
%TO.P,R102,2*%
%TO.N,Earth*%
X131625000Y-97760000D03*
%TD*%
D10*
%TO.P,R1012,1*%
%TO.N,Net-(SW1-B)*%
X126775000Y-87600000D03*
D11*
%TO.P,R1012,2*%
%TO.N,Earth*%
X126775000Y-97760000D03*
%TD*%
D10*
%TO.P,R5,1*%
%TO.N,Net-(U3-ADJ)*%
X150275000Y-112900000D03*
D11*
%TO.P,R5,2*%
%TO.N,Earth*%
X152815000Y-112900000D03*
%TD*%
D19*
%TO.P,Q1,1,S*%
%TO.N,Net-(Q1-S)*%
X133395000Y-76400000D03*
D20*
%TO.P,Q1,2,D*%
%TO.N,Net-(JP1-C)*%
X131325000Y-75130000D03*
%TO.P,Q1,3,G*%
%TO.N,Net-(Q1-G)*%
X133395000Y-73860000D03*
%TD*%
D12*
%TO.P,C7,1*%
%TO.N,Net-(U4-CAP+)*%
X139575000Y-111100000D03*
D10*
%TO.P,C7,2*%
%TO.N,Net-(U4-CAP-)*%
X139575000Y-109100000D03*
%TD*%
D13*
%TO.P,U1,1*%
%TO.N,Net-(U1A--)*%
X139005000Y-85910000D03*
D10*
%TO.P,U1,2,-*%
X139005000Y-88450000D03*
%TO.P,U1,3,+*%
%TO.N,Net-(U1A-+)*%
X139005000Y-90990000D03*
%TO.P,U1,4,V-*%
%TO.N,-4.5V*%
X139005000Y-93530000D03*
%TO.P,U1,5,+*%
%TO.N,Net-(U1B-+)*%
X146625000Y-93530000D03*
%TO.P,U1,6,-*%
%TO.N,Net-(U1B--)*%
X146625000Y-90990000D03*
%TO.P,U1,7*%
X146625000Y-88450000D03*
%TO.P,U1,8,V+*%
%TO.N,+4.5V*%
X146625000Y-85910000D03*
%TD*%
D21*
%TO.P,U4,1,NC*%
%TO.N,unconnected-(U4-NC-Pad1)*%
X124995000Y-109550000D03*
D10*
%TO.P,U4,2,CAP+*%
%TO.N,Net-(U4-CAP+)*%
X127535000Y-109550000D03*
%TO.P,U4,3,GND*%
%TO.N,Earth*%
X130075000Y-109550000D03*
%TO.P,U4,4,CAP-*%
%TO.N,Net-(U4-CAP-)*%
X132615000Y-109550000D03*
%TO.P,U4,5,VOUT*%
%TO.N,-4.5V*%
X132615000Y-101930000D03*
%TO.P,U4,6,LV*%
%TO.N,unconnected-(U4-LV-Pad6)*%
X130075000Y-101930000D03*
%TO.P,U4,7,OSC*%
%TO.N,unconnected-(U4-OSC-Pad7)*%
X127535000Y-101930000D03*
%TO.P,U4,8,V+*%
%TO.N,+4.5V*%
X124995000Y-101930000D03*
%TD*%
D14*
%TO.P,J2,1,Pin_1*%
%TO.N,Earth*%
X140175000Y-76300000D03*
D15*
%TO.P,J2,2,Pin_2*%
%TO.N,Net-(J2-Pin_2)*%
X142715000Y-76300000D03*
%TO.P,J2,3,Pin_3*%
%TO.N,Net-(J2-Pin_3)*%
X145255000Y-76300000D03*
%TD*%
D22*
%TO.P,SW1,1,A*%
%TO.N,Earth*%
X121375000Y-91050000D03*
%TO.P,SW1,2,B*%
%TO.N,Net-(SW1-B)*%
X121375000Y-88050000D03*
%TO.P,SW1,3*%
%TO.N,N/C*%
X121375000Y-85050000D03*
%TD*%
D14*
%TO.P,J3,1,Pin_1*%
%TO.N,Earth*%
X155715000Y-76300000D03*
D15*
%TO.P,J3,2,Pin_2*%
%TO.N,Net-(J3-Pin_2)*%
X158255000Y-76300000D03*
%TO.P,J3,3,Pin_3*%
%TO.N,Net-(J3-Pin_3)*%
X160795000Y-76300000D03*
%TD*%
D12*
%TO.P,C6,1*%
%TO.N,Earth*%
X139375000Y-105300000D03*
D10*
%TO.P,C6,2*%
%TO.N,-4.5V*%
X139375000Y-103300000D03*
%TD*%
D23*
%TO.P,J4,1,Pin_1*%
%TO.N,Earth*%
X169015000Y-109150000D03*
D15*
%TO.P,J4,2,Pin_2*%
%TO.N,Net-(D1-A)*%
X166475000Y-109150000D03*
%TD*%
D24*
%TO.P,U3,1,ADJ*%
%TO.N,Net-(U3-ADJ)*%
X147195000Y-105700000D03*
D25*
%TO.P,U3,2,VO*%
%TO.N,+4.5V*%
X145925000Y-107770000D03*
%TO.P,U3,3,VI*%
%TO.N,+9VA*%
X144655000Y-105700000D03*
%TD*%
D10*
%TO.P,R103,1*%
%TO.N,Net-(C103-Pad2)*%
X135425000Y-79670000D03*
D11*
%TO.P,R103,2*%
%TO.N,Net-(U1A-+)*%
X135425000Y-89830000D03*
%TD*%
D10*
%TO.P,C103,1*%
%TO.N,Net-(Q1-S)*%
X131575000Y-84730000D03*
%TO.P,C103,2*%
%TO.N,Net-(C103-Pad2)*%
X131575000Y-79730000D03*
%TD*%
D26*
%TO.N,Net-(U2A--)*%
X158885000Y-92970000D02*
X154835000Y-88920000D01*
X159705000Y-92970000D02*
X158885000Y-92970000D01*
X156515000Y-83950000D02*
X156765000Y-83700000D01*
%TO.N,Net-(C1-Pad2)*%
X149835000Y-88920000D02*
X151636000Y-87119000D01*
X149545000Y-92970000D02*
X149545000Y-89210000D01*
X149545000Y-89210000D02*
X149835000Y-88920000D01*
X151636000Y-87119000D02*
X162294000Y-87119000D01*
X149545000Y-92970000D02*
X149545000Y-97700000D01*
X162294000Y-87119000D02*
X163405000Y-88230000D01*
%TO.N,Net-(J6-Pin_1)*%
X177415000Y-92400000D02*
X177415000Y-90030000D01*
X182585000Y-97570000D02*
X177415000Y-92400000D01*
X182845000Y-97570000D02*
X182585000Y-97570000D01*
X177415000Y-90030000D02*
X180945000Y-86500000D01*
X182845000Y-100110000D02*
X182845000Y-97570000D01*
%TO.N,Net-(C2-Pad2)*%
X187575000Y-92400000D02*
X187575000Y-88130000D01*
X185945000Y-86500000D02*
X185945000Y-83905113D01*
X185945000Y-83905113D02*
X183195000Y-81155113D01*
X187575000Y-88130000D02*
X185945000Y-86500000D01*
%TO.N,Net-(J5-Pin_2)*%
X174995000Y-76300000D02*
X174995000Y-82980000D01*
X174995000Y-82980000D02*
X174125000Y-83850000D01*
%TO.N,Earth*%
X169375000Y-95850000D02*
X166835000Y-93310000D01*
X168169000Y-101849000D02*
X172975000Y-106655000D01*
X178575000Y-83934106D02*
X178575000Y-75050000D01*
X172625000Y-109150000D02*
X172975000Y-109500000D01*
X150925000Y-101849000D02*
X152524000Y-101849000D01*
X150915000Y-109150000D02*
X152815000Y-111050000D01*
X107375000Y-81802106D02*
X107375000Y-83056106D01*
X109049000Y-90024000D02*
X110025000Y-91000000D01*
X166835000Y-93310000D02*
X163405000Y-93310000D01*
X174125000Y-96650000D02*
X172975000Y-97800000D01*
X172975000Y-107750000D02*
X172975000Y-109500000D01*
X167426000Y-115049000D02*
X152775000Y-115049000D01*
X108821894Y-78449000D02*
X107474000Y-79796894D01*
X109049000Y-84730106D02*
X109049000Y-90024000D01*
X107474000Y-79796894D02*
X107474000Y-81703106D01*
X150915000Y-101859000D02*
X150925000Y-101849000D01*
X140175000Y-76300000D02*
X140175000Y-75205000D01*
X171025000Y-95850000D02*
X169375000Y-95850000D01*
X155715000Y-75205000D02*
X158771000Y-72149000D01*
X121375000Y-92360000D02*
X126775000Y-97760000D01*
X178575000Y-75050000D02*
X177229000Y-73704000D01*
X171025000Y-95850000D02*
X172975000Y-97800000D01*
X114075000Y-93430000D02*
X111645000Y-91000000D01*
X143431000Y-71949000D02*
X152459000Y-71949000D01*
X174125000Y-88384106D02*
X178575000Y-83934106D01*
X110715000Y-100350000D02*
X110715000Y-98810000D01*
X131555000Y-97760000D02*
X131625000Y-97690000D01*
X172455000Y-74170000D02*
X172455000Y-76300000D01*
X141175000Y-105300000D02*
X144626000Y-101849000D01*
X172975000Y-97800000D02*
X172975000Y-107750000D01*
X152775000Y-115049000D02*
X121647630Y-115049000D01*
X155715000Y-76300000D02*
X155715000Y-75205000D01*
X114075000Y-95450000D02*
X114075000Y-93430000D01*
X150915000Y-109150000D02*
X150915000Y-101859000D01*
X107474000Y-81703106D02*
X107375000Y-81802106D01*
X152815000Y-112900000D02*
X152815000Y-115009000D01*
X133193630Y-105300000D02*
X130075000Y-108418630D01*
X130075000Y-108418630D02*
X130075000Y-109550000D01*
X114375000Y-76950000D02*
X110320894Y-76950000D01*
X110025000Y-91000000D02*
X111645000Y-91000000D01*
X174125000Y-94010000D02*
X174125000Y-96650000D01*
X152815000Y-111050000D02*
X152815000Y-112900000D01*
X144626000Y-101849000D02*
X150925000Y-101849000D01*
X114075000Y-95450000D02*
X116975000Y-95450000D01*
X172975000Y-109500000D02*
X167426000Y-115049000D01*
X116975000Y-95450000D02*
X121375000Y-91050000D01*
X143431000Y-71949000D02*
X119376000Y-71949000D01*
X177229000Y-73704000D02*
X172921000Y-73704000D01*
X126775000Y-97760000D02*
X131555000Y-97760000D01*
X139375000Y-105300000D02*
X133193630Y-105300000D01*
X174125000Y-94010000D02*
X174125000Y-88384106D01*
X152524000Y-101849000D02*
X168169000Y-101849000D01*
X119376000Y-71949000D02*
X114375000Y-76950000D01*
X168304000Y-72149000D02*
X172455000Y-76300000D01*
X121375000Y-91050000D02*
X121375000Y-92360000D01*
X107375000Y-83056106D02*
X109049000Y-84730106D01*
X110715000Y-100350000D02*
X110715000Y-104116370D01*
X110715000Y-104116370D02*
X121647630Y-115049000D01*
X110320894Y-76950000D02*
X108821894Y-78449000D01*
X152459000Y-71949000D02*
X155715000Y-75205000D01*
X110715000Y-98810000D02*
X114075000Y-95450000D01*
X158771000Y-72149000D02*
X168304000Y-72149000D01*
X172921000Y-73704000D02*
X172455000Y-74170000D01*
X139375000Y-105300000D02*
X141175000Y-105300000D01*
X172975000Y-106655000D02*
X172975000Y-107750000D01*
X140175000Y-75205000D02*
X143431000Y-71949000D01*
X169015000Y-109150000D02*
X172625000Y-109150000D01*
X152815000Y-115009000D02*
X152775000Y-115049000D01*
%TO.N,-4.5V*%
X139375000Y-103300000D02*
X142327000Y-100348000D01*
X142327000Y-100348000D02*
X158907000Y-100348000D01*
X139925000Y-98450000D02*
X139925000Y-102449000D01*
X158907000Y-100348000D02*
X163405000Y-95850000D01*
X132615000Y-101930000D02*
X133985000Y-103300000D01*
X133985000Y-103300000D02*
X139375000Y-103300000D01*
X139925000Y-102449000D02*
X139375000Y-102999000D01*
%TO.N,Net-(U4-CAP-)*%
X133065000Y-109100000D02*
X139575000Y-109100000D01*
X132615000Y-109550000D02*
X133065000Y-109100000D01*
%TO.N,+4.5V*%
X146625000Y-85910000D02*
X146618001Y-85910000D01*
%TO.N,Net-(Q1-G)*%
X119805000Y-80750000D02*
X126775000Y-73780000D01*
X126775000Y-73780000D02*
X126976000Y-73579000D01*
X132714000Y-73579000D02*
X132995000Y-73860000D01*
X114775000Y-80750000D02*
X119805000Y-80750000D01*
X126976000Y-73579000D02*
X132714000Y-73579000D01*
%TO.N,Net-(C103-Pad2)*%
X131575000Y-79730000D02*
X135365000Y-79730000D01*
X135365000Y-79730000D02*
X135425000Y-79670000D01*
%TO.N,Net-(Q1-S)*%
X132275000Y-77120000D02*
X132995000Y-76400000D01*
X131638001Y-77120000D02*
X132275000Y-77120000D01*
X129774000Y-78984001D02*
X131638001Y-77120000D01*
X131625000Y-87530000D02*
X131625000Y-84780000D01*
X131625000Y-84780000D02*
X131575000Y-84730000D01*
X129774000Y-82929000D02*
X129774000Y-78984001D01*
X131575000Y-84730000D02*
X129774000Y-82929000D01*
%TO.N,Net-(J2-Pin_3)*%
X148225000Y-76300000D02*
X150275000Y-74250000D01*
X145255000Y-76300000D02*
X148225000Y-76300000D01*
%TO.N,Net-(U1A--)*%
X139005000Y-88450000D02*
X139005000Y-85910000D01*
%TO.N,Net-(U1B-+)*%
X135825000Y-95350000D02*
X144805000Y-95350000D01*
X144805000Y-95350000D02*
X146625000Y-93530000D01*
%TO.N,Net-(J3-Pin_3)*%
X160795000Y-76300000D02*
X163925000Y-76300000D01*
X163925000Y-76300000D02*
X165775000Y-74450000D01*
%TO.N,Net-(U1B--)*%
X146625000Y-88450000D02*
X147758001Y-88450000D01*
X150590001Y-85618000D02*
X159628999Y-85618000D01*
X146625000Y-90990000D02*
X146625000Y-88450000D01*
X147758001Y-88450000D02*
X150590001Y-85618000D01*
X165775000Y-79471999D02*
X165775000Y-79450000D01*
X159628999Y-85618000D02*
X165775000Y-79471999D01*
%TO.N,Net-(J2-Pin_2)*%
X147720000Y-83400000D02*
X151230000Y-83400000D01*
X142715000Y-78395000D02*
X147720000Y-83400000D01*
X142715000Y-76300000D02*
X142715000Y-78395000D01*
%TO.N,Net-(J3-Pin_2)*%
X159300000Y-83400000D02*
X158255000Y-82355000D01*
X158255000Y-82355000D02*
X158255000Y-76300000D01*
%TO.N,Net-(U3-ADJ)*%
X147225000Y-112900000D02*
X148024999Y-112100001D01*
X148024999Y-106929999D02*
X147195000Y-106100000D01*
X148024999Y-112100001D02*
X148024999Y-106929999D01*
X147225000Y-112900000D02*
X150275000Y-112900000D01*
%TO.N,Net-(U1A-+)*%
X136585000Y-90990000D02*
X135425000Y-89830000D01*
X139005000Y-90990000D02*
X136585000Y-90990000D01*
%TO.N,Net-(SW1-B)*%
X121375000Y-88050000D02*
X126325000Y-88050000D01*
X126325000Y-88050000D02*
X126775000Y-87600000D01*
X126775000Y-87600000D02*
X126775000Y-83940000D01*
%TD*%
%TA.AperFunction,Conductor*%
%TO.N,Earth*%
G36*
X189067539Y-70920185D02*
G01*
X189113294Y-70972989D01*
X189124500Y-71024500D01*
X189124500Y-115425500D01*
X189104815Y-115492539D01*
X189052011Y-115538294D01*
X189000500Y-115549500D01*
X106599500Y-115549500D01*
X106532461Y-115529815D01*
X106486706Y-115477011D01*
X106475500Y-115425500D01*
X106475500Y-112378711D01*
X108224500Y-112378711D01*
X108224500Y-112621288D01*
X108256161Y-112861785D01*
X108318947Y-113096104D01*
X108370300Y-113220080D01*
X108411776Y-113320212D01*
X108533064Y-113530289D01*
X108533066Y-113530292D01*
X108533067Y-113530293D01*
X108680733Y-113722736D01*
X108680739Y-113722743D01*
X108852256Y-113894260D01*
X108852263Y-113894266D01*
X108965321Y-113981018D01*
X109044711Y-114041936D01*
X109254788Y-114163224D01*
X109478900Y-114256054D01*
X109713211Y-114318838D01*
X109893586Y-114342584D01*
X109953711Y-114350500D01*
X109953712Y-114350500D01*
X110196289Y-114350500D01*
X110244388Y-114344167D01*
X110436789Y-114318838D01*
X110671100Y-114256054D01*
X110895212Y-114163224D01*
X111105289Y-114041936D01*
X111297738Y-113894265D01*
X111469265Y-113722738D01*
X111616936Y-113530289D01*
X111738224Y-113320212D01*
X111831054Y-113096100D01*
X111893838Y-112861789D01*
X111902282Y-112797648D01*
X143384500Y-112797648D01*
X143384500Y-113002351D01*
X143416522Y-113204534D01*
X143479781Y-113399223D01*
X143572715Y-113581613D01*
X143693028Y-113747213D01*
X143837786Y-113891971D01*
X143992749Y-114004556D01*
X144003390Y-114012287D01*
X144111716Y-114067482D01*
X144185776Y-114105218D01*
X144185778Y-114105218D01*
X144185781Y-114105220D01*
X144290137Y-114139127D01*
X144380465Y-114168477D01*
X144481557Y-114184488D01*
X144582648Y-114200500D01*
X144582649Y-114200500D01*
X144787351Y-114200500D01*
X144787352Y-114200500D01*
X144989534Y-114168477D01*
X145184219Y-114105220D01*
X145366610Y-114012287D01*
X145493379Y-113920185D01*
X145532213Y-113891971D01*
X145532215Y-113891968D01*
X145532219Y-113891966D01*
X145676966Y-113747219D01*
X145676968Y-113747215D01*
X145676971Y-113747213D01*
X145797284Y-113581614D01*
X145797285Y-113581613D01*
X145797287Y-113581610D01*
X145844516Y-113488917D01*
X145892489Y-113438123D01*
X145960310Y-113421328D01*
X146026445Y-113443865D01*
X146065485Y-113488919D01*
X146112715Y-113581614D01*
X146233028Y-113747213D01*
X146377786Y-113891971D01*
X146532749Y-114004556D01*
X146543390Y-114012287D01*
X146651716Y-114067482D01*
X146725776Y-114105218D01*
X146725778Y-114105218D01*
X146725781Y-114105220D01*
X146830137Y-114139127D01*
X146920465Y-114168477D01*
X147021557Y-114184488D01*
X147122648Y-114200500D01*
X147122649Y-114200500D01*
X147327351Y-114200500D01*
X147327352Y-114200500D01*
X147529534Y-114168477D01*
X147724219Y-114105220D01*
X147906610Y-114012287D01*
X148027877Y-113924181D01*
X148093683Y-113900702D01*
X148100762Y-113900500D01*
X149399238Y-113900500D01*
X149466277Y-113920185D01*
X149472119Y-113924179D01*
X149593390Y-114012287D01*
X149701716Y-114067482D01*
X149775776Y-114105218D01*
X149775778Y-114105218D01*
X149775781Y-114105220D01*
X149880137Y-114139127D01*
X149970465Y-114168477D01*
X150071557Y-114184488D01*
X150172648Y-114200500D01*
X150172649Y-114200500D01*
X150377351Y-114200500D01*
X150377352Y-114200500D01*
X150579534Y-114168477D01*
X150774219Y-114105220D01*
X150956610Y-114012287D01*
X151083379Y-113920185D01*
X151122213Y-113891971D01*
X151122215Y-113891968D01*
X151122219Y-113891966D01*
X151266966Y-113747219D01*
X151266968Y-113747215D01*
X151266971Y-113747213D01*
X151387284Y-113581614D01*
X151387285Y-113581613D01*
X151387287Y-113581610D01*
X151434795Y-113488369D01*
X151482770Y-113437574D01*
X151550591Y-113420779D01*
X151616725Y-113443316D01*
X151655765Y-113488370D01*
X151703140Y-113581349D01*
X151823417Y-113746894D01*
X151823417Y-113746895D01*
X151968104Y-113891582D01*
X152133650Y-114011859D01*
X152315968Y-114104754D01*
X152510578Y-114167988D01*
X152565000Y-114176607D01*
X152565000Y-113215686D01*
X152569394Y-113220080D01*
X152660606Y-113272741D01*
X152762339Y-113300000D01*
X152867661Y-113300000D01*
X152969394Y-113272741D01*
X153060606Y-113220080D01*
X153065000Y-113215686D01*
X153065000Y-114176606D01*
X153119421Y-114167988D01*
X153314031Y-114104754D01*
X153496349Y-114011859D01*
X153661894Y-113891582D01*
X153661895Y-113891582D01*
X153806582Y-113746895D01*
X153806582Y-113746894D01*
X153926859Y-113581349D01*
X154019755Y-113399029D01*
X154082990Y-113204413D01*
X154091609Y-113150000D01*
X153130686Y-113150000D01*
X153135080Y-113145606D01*
X153187741Y-113054394D01*
X153215000Y-112952661D01*
X153215000Y-112847339D01*
X153187741Y-112745606D01*
X153135080Y-112654394D01*
X153130686Y-112650000D01*
X154091609Y-112650000D01*
X154082990Y-112595586D01*
X154019754Y-112400967D01*
X154001481Y-112365102D01*
X154001480Y-112365101D01*
X153974492Y-112312135D01*
X160324500Y-112312135D01*
X160324500Y-114007870D01*
X160324501Y-114007876D01*
X160330908Y-114067483D01*
X160381202Y-114202328D01*
X160381206Y-114202335D01*
X160467452Y-114317544D01*
X160467455Y-114317547D01*
X160582664Y-114403793D01*
X160582671Y-114403797D01*
X160717517Y-114454091D01*
X160717516Y-114454091D01*
X160724444Y-114454835D01*
X160777127Y-114460500D01*
X162472872Y-114460499D01*
X162532483Y-114454091D01*
X162667331Y-114403796D01*
X162782546Y-114317546D01*
X162868796Y-114202331D01*
X162919091Y-114067483D01*
X162925500Y-114007873D01*
X162925499Y-112378711D01*
X183874500Y-112378711D01*
X183874500Y-112621288D01*
X183906161Y-112861785D01*
X183968947Y-113096104D01*
X184020300Y-113220080D01*
X184061776Y-113320212D01*
X184183064Y-113530289D01*
X184183066Y-113530292D01*
X184183067Y-113530293D01*
X184330733Y-113722736D01*
X184330739Y-113722743D01*
X184502256Y-113894260D01*
X184502263Y-113894266D01*
X184615321Y-113981018D01*
X184694711Y-114041936D01*
X184904788Y-114163224D01*
X185128900Y-114256054D01*
X185363211Y-114318838D01*
X185543586Y-114342584D01*
X185603711Y-114350500D01*
X185603712Y-114350500D01*
X185846289Y-114350500D01*
X185894388Y-114344167D01*
X186086789Y-114318838D01*
X186321100Y-114256054D01*
X186545212Y-114163224D01*
X186755289Y-114041936D01*
X186947738Y-113894265D01*
X187119265Y-113722738D01*
X187266936Y-113530289D01*
X187388224Y-113320212D01*
X187481054Y-113096100D01*
X187543838Y-112861789D01*
X187575500Y-112621288D01*
X187575500Y-112378712D01*
X187543838Y-112138211D01*
X187481054Y-111903900D01*
X187479231Y-111899500D01*
X187462663Y-111859500D01*
X187388224Y-111679788D01*
X187266936Y-111469711D01*
X187119265Y-111277262D01*
X187119260Y-111277256D01*
X186947743Y-111105739D01*
X186947736Y-111105733D01*
X186755293Y-110958067D01*
X186755292Y-110958066D01*
X186755289Y-110958064D01*
X186568117Y-110850000D01*
X186545214Y-110836777D01*
X186545205Y-110836773D01*
X186321104Y-110743947D01*
X186086785Y-110681161D01*
X185846289Y-110649500D01*
X185846288Y-110649500D01*
X185603712Y-110649500D01*
X185603711Y-110649500D01*
X185363214Y-110681161D01*
X185128895Y-110743947D01*
X184904794Y-110836773D01*
X184904785Y-110836777D01*
X184694706Y-110958067D01*
X184502263Y-111105733D01*
X184502256Y-111105739D01*
X184330739Y-111277256D01*
X184330733Y-111277263D01*
X184183067Y-111469706D01*
X184061777Y-111679785D01*
X184061773Y-111679794D01*
X183968947Y-111903895D01*
X183906161Y-112138214D01*
X183874500Y-112378711D01*
X162925499Y-112378711D01*
X162925499Y-112312128D01*
X162919091Y-112252517D01*
X162906459Y-112218650D01*
X162868797Y-112117671D01*
X162868793Y-112117664D01*
X162782547Y-112002455D01*
X162782544Y-112002452D01*
X162667335Y-111916206D01*
X162667328Y-111916202D01*
X162532482Y-111865908D01*
X162532483Y-111865908D01*
X162472883Y-111859501D01*
X162472881Y-111859500D01*
X162472873Y-111859500D01*
X162472864Y-111859500D01*
X160777129Y-111859500D01*
X160777123Y-111859501D01*
X160717516Y-111865908D01*
X160582671Y-111916202D01*
X160582664Y-111916206D01*
X160467455Y-112002452D01*
X160467452Y-112002455D01*
X160381206Y-112117664D01*
X160381202Y-112117671D01*
X160330908Y-112252517D01*
X160324501Y-112312116D01*
X160324501Y-112312123D01*
X160324500Y-112312135D01*
X153974492Y-112312135D01*
X153926859Y-112218650D01*
X153806582Y-112053105D01*
X153806582Y-112053104D01*
X153661895Y-111908417D01*
X153496349Y-111788140D01*
X153314029Y-111695244D01*
X153119413Y-111632009D01*
X153065000Y-111623390D01*
X153065000Y-112584314D01*
X153060606Y-112579920D01*
X152969394Y-112527259D01*
X152867661Y-112500000D01*
X152762339Y-112500000D01*
X152660606Y-112527259D01*
X152569394Y-112579920D01*
X152565000Y-112584314D01*
X152565000Y-111623390D01*
X152510586Y-111632009D01*
X152315970Y-111695244D01*
X152133650Y-111788140D01*
X151968105Y-111908417D01*
X151968104Y-111908417D01*
X151823417Y-112053104D01*
X151823417Y-112053105D01*
X151703140Y-112218650D01*
X151655765Y-112311629D01*
X151607790Y-112362425D01*
X151539969Y-112379220D01*
X151473834Y-112356682D01*
X151434795Y-112311629D01*
X151423990Y-112290424D01*
X151387287Y-112218390D01*
X151379556Y-112207749D01*
X151266971Y-112052786D01*
X151122213Y-111908028D01*
X150956613Y-111787715D01*
X150956612Y-111787714D01*
X150956610Y-111787713D01*
X150899653Y-111758691D01*
X150774223Y-111694781D01*
X150579534Y-111631522D01*
X150404995Y-111603878D01*
X150377352Y-111599500D01*
X150172648Y-111599500D01*
X150148329Y-111603351D01*
X149970465Y-111631522D01*
X149775776Y-111694781D01*
X149593386Y-111787715D01*
X149539300Y-111827011D01*
X149485762Y-111865909D01*
X149472123Y-111875818D01*
X149452078Y-111882970D01*
X149434173Y-111894477D01*
X149410146Y-111897931D01*
X149406317Y-111899298D01*
X149399238Y-111899500D01*
X149149499Y-111899500D01*
X149082460Y-111879815D01*
X149036705Y-111827011D01*
X149025499Y-111775500D01*
X149025499Y-109047682D01*
X149615000Y-109047682D01*
X149615000Y-109252317D01*
X149647009Y-109454417D01*
X149710244Y-109649031D01*
X149803141Y-109831350D01*
X149803147Y-109831359D01*
X149835523Y-109875921D01*
X149835524Y-109875922D01*
X150515000Y-109196446D01*
X150515000Y-109202661D01*
X150542259Y-109304394D01*
X150594920Y-109395606D01*
X150669394Y-109470080D01*
X150760606Y-109522741D01*
X150862339Y-109550000D01*
X150868553Y-109550000D01*
X150189076Y-110229474D01*
X150233650Y-110261859D01*
X150415968Y-110354755D01*
X150610582Y-110417990D01*
X150812683Y-110450000D01*
X151017317Y-110450000D01*
X151219417Y-110417990D01*
X151414031Y-110354755D01*
X151596349Y-110261859D01*
X151640922Y-110229474D01*
X150961447Y-109550000D01*
X150967661Y-109550000D01*
X151069394Y-109522741D01*
X151160606Y-109470080D01*
X151235080Y-109395606D01*
X151287741Y-109304394D01*
X151315000Y-109202661D01*
X151315000Y-109196448D01*
X151994474Y-109875922D01*
X151994474Y-109875921D01*
X152026859Y-109831349D01*
X152119755Y-109649031D01*
X152182990Y-109454417D01*
X152215000Y-109252317D01*
X152215000Y-109047682D01*
X152214995Y-109047648D01*
X154614500Y-109047648D01*
X154614500Y-109252351D01*
X154646522Y-109454534D01*
X154709781Y-109649223D01*
X154758583Y-109745000D01*
X154802585Y-109831359D01*
X154802715Y-109831613D01*
X154923028Y-109997213D01*
X155067786Y-110141971D01*
X155199624Y-110237755D01*
X155233390Y-110262287D01*
X155335114Y-110314118D01*
X155415776Y-110355218D01*
X155415778Y-110355218D01*
X155415781Y-110355220D01*
X155520137Y-110389127D01*
X155610465Y-110418477D01*
X155711557Y-110434488D01*
X155812648Y-110450500D01*
X155812649Y-110450500D01*
X156017351Y-110450500D01*
X156017352Y-110450500D01*
X156219534Y-110418477D01*
X156414219Y-110355220D01*
X156596610Y-110262287D01*
X156692642Y-110192516D01*
X156762213Y-110141971D01*
X156762215Y-110141968D01*
X156762219Y-110141966D01*
X156906966Y-109997219D01*
X156906968Y-109997215D01*
X156906971Y-109997213D01*
X156975018Y-109903553D01*
X157027287Y-109831610D01*
X157120220Y-109649219D01*
X157183477Y-109454534D01*
X157215500Y-109252352D01*
X157215500Y-109047648D01*
X157195336Y-108920339D01*
X157183477Y-108845465D01*
X157174271Y-108817133D01*
X165104500Y-108817133D01*
X165104500Y-109482866D01*
X165138245Y-109695922D01*
X165138246Y-109695926D01*
X165204908Y-109901089D01*
X165302843Y-110093299D01*
X165429641Y-110267821D01*
X165582179Y-110420359D01*
X165756701Y-110547157D01*
X165948911Y-110645092D01*
X166154074Y-110711754D01*
X166233973Y-110724408D01*
X166367134Y-110745500D01*
X166367139Y-110745500D01*
X166582866Y-110745500D01*
X166701230Y-110726752D01*
X166795926Y-110711754D01*
X167001089Y-110645092D01*
X167193299Y-110547157D01*
X167367821Y-110420359D01*
X167510186Y-110277993D01*
X167571505Y-110244511D01*
X167641197Y-110249495D01*
X167697131Y-110291366D01*
X167710248Y-110313277D01*
X167710640Y-110314118D01*
X167802684Y-110463345D01*
X167926654Y-110587315D01*
X168075875Y-110679356D01*
X168075880Y-110679358D01*
X168242302Y-110734505D01*
X168242309Y-110734506D01*
X168345019Y-110744999D01*
X168764999Y-110744999D01*
X168765000Y-110744998D01*
X168765000Y-109692709D01*
X168785339Y-109704452D01*
X168936667Y-109745000D01*
X169093333Y-109745000D01*
X169244661Y-109704452D01*
X169265000Y-109692709D01*
X169265000Y-110744999D01*
X169684972Y-110744999D01*
X169684986Y-110744998D01*
X169787697Y-110734505D01*
X169954119Y-110679358D01*
X169954124Y-110679356D01*
X170103345Y-110587315D01*
X170227315Y-110463345D01*
X170319356Y-110314124D01*
X170319358Y-110314119D01*
X170374505Y-110147697D01*
X170374506Y-110147690D01*
X170384999Y-110044986D01*
X170385000Y-110044973D01*
X170385000Y-109400000D01*
X169557709Y-109400000D01*
X169569452Y-109379661D01*
X169610000Y-109228333D01*
X169610000Y-109071667D01*
X169569452Y-108920339D01*
X169557709Y-108900000D01*
X170384999Y-108900000D01*
X170384999Y-108255028D01*
X170384998Y-108255013D01*
X170374505Y-108152302D01*
X170319358Y-107985880D01*
X170319356Y-107985875D01*
X170227315Y-107836654D01*
X170103345Y-107712684D01*
X169954124Y-107620643D01*
X169954119Y-107620641D01*
X169787697Y-107565494D01*
X169787690Y-107565493D01*
X169684986Y-107555000D01*
X169265000Y-107555000D01*
X169265000Y-108607290D01*
X169244661Y-108595548D01*
X169093333Y-108555000D01*
X168936667Y-108555000D01*
X168785339Y-108595548D01*
X168765000Y-108607290D01*
X168765000Y-107555000D01*
X168345028Y-107555000D01*
X168345012Y-107555001D01*
X168242302Y-107565494D01*
X168075880Y-107620641D01*
X168075875Y-107620643D01*
X167926654Y-107712684D01*
X167802684Y-107836654D01*
X167710637Y-107985885D01*
X167710245Y-107986728D01*
X167709821Y-107987208D01*
X167706851Y-107992025D01*
X167706027Y-107991517D01*
X167664072Y-108039167D01*
X167596879Y-108058318D01*
X167529998Y-108038101D01*
X167510183Y-108022003D01*
X167367823Y-107879643D01*
X167367821Y-107879641D01*
X167193299Y-107752843D01*
X167001089Y-107654908D01*
X166795926Y-107588246D01*
X166795924Y-107588245D01*
X166795922Y-107588245D01*
X166582866Y-107554500D01*
X166582861Y-107554500D01*
X166367139Y-107554500D01*
X166367134Y-107554500D01*
X166154077Y-107588245D01*
X165948908Y-107654909D01*
X165756700Y-107752843D01*
X165692483Y-107799500D01*
X165582179Y-107879641D01*
X165582177Y-107879643D01*
X165582176Y-107879643D01*
X165429643Y-108032176D01*
X165429643Y-108032177D01*
X165429641Y-108032179D01*
X165380876Y-108099298D01*
X165302843Y-108206700D01*
X165204909Y-108398908D01*
X165138245Y-108604077D01*
X165104500Y-108817133D01*
X157174271Y-108817133D01*
X157127726Y-108673882D01*
X157120220Y-108650781D01*
X157120218Y-108650778D01*
X157120218Y-108650776D01*
X157071417Y-108555000D01*
X157027287Y-108468390D01*
X157005609Y-108438552D01*
X156906971Y-108302786D01*
X156762213Y-108158028D01*
X156596613Y-108037715D01*
X156596612Y-108037714D01*
X156596610Y-108037713D01*
X156539653Y-108008691D01*
X156414223Y-107944781D01*
X156219534Y-107881522D01*
X156044995Y-107853878D01*
X156017352Y-107849500D01*
X155812648Y-107849500D01*
X155788329Y-107853351D01*
X155610465Y-107881522D01*
X155415776Y-107944781D01*
X155233386Y-108037715D01*
X155067786Y-108158028D01*
X154923028Y-108302786D01*
X154802715Y-108468386D01*
X154709781Y-108650776D01*
X154646522Y-108845465D01*
X154614500Y-109047648D01*
X152214995Y-109047648D01*
X152182990Y-108845582D01*
X152119755Y-108650968D01*
X152026859Y-108468650D01*
X151994474Y-108424077D01*
X151994474Y-108424076D01*
X151315000Y-109103551D01*
X151315000Y-109097339D01*
X151287741Y-108995606D01*
X151235080Y-108904394D01*
X151160606Y-108829920D01*
X151069394Y-108777259D01*
X150967661Y-108750000D01*
X150961446Y-108750000D01*
X151640922Y-108070524D01*
X151640921Y-108070523D01*
X151596359Y-108038147D01*
X151596350Y-108038141D01*
X151414031Y-107945244D01*
X151219417Y-107882009D01*
X151017317Y-107850000D01*
X150812683Y-107850000D01*
X150610582Y-107882009D01*
X150415968Y-107945244D01*
X150233644Y-108038143D01*
X150189077Y-108070523D01*
X150189077Y-108070524D01*
X150868554Y-108750000D01*
X150862339Y-108750000D01*
X150760606Y-108777259D01*
X150669394Y-108829920D01*
X150594920Y-108904394D01*
X150542259Y-108995606D01*
X150515000Y-109097339D01*
X150515000Y-109103553D01*
X149835524Y-108424077D01*
X149835523Y-108424077D01*
X149803143Y-108468644D01*
X149710244Y-108650968D01*
X149647009Y-108845582D01*
X149615000Y-109047682D01*
X149025499Y-109047682D01*
X149025499Y-106831455D01*
X149008345Y-106745220D01*
X148991080Y-106658424D01*
X148987050Y-106638163D01*
X148960437Y-106573914D01*
X148943062Y-106531966D01*
X148911634Y-106456091D01*
X148911627Y-106456078D01*
X148802138Y-106292217D01*
X148802135Y-106292213D01*
X148659685Y-106149763D01*
X148659654Y-106149734D01*
X148281818Y-105771898D01*
X148248333Y-105710575D01*
X148245499Y-105684217D01*
X148245499Y-104752129D01*
X148245498Y-104752123D01*
X148245497Y-104752116D01*
X148239091Y-104692517D01*
X148200266Y-104588423D01*
X148188797Y-104557671D01*
X148188793Y-104557664D01*
X148102547Y-104442455D01*
X148102544Y-104442452D01*
X147987335Y-104356206D01*
X147987328Y-104356202D01*
X147852482Y-104305908D01*
X147852483Y-104305908D01*
X147792883Y-104299501D01*
X147792881Y-104299500D01*
X147792873Y-104299500D01*
X147792864Y-104299500D01*
X146597129Y-104299500D01*
X146597123Y-104299501D01*
X146537516Y-104305908D01*
X146402671Y-104356202D01*
X146402664Y-104356206D01*
X146287455Y-104442452D01*
X146287452Y-104442455D01*
X146201206Y-104557664D01*
X146201202Y-104557671D01*
X146150908Y-104692517D01*
X146146191Y-104736395D01*
X146144500Y-104752127D01*
X146144500Y-105550000D01*
X146144501Y-106245500D01*
X146141950Y-106254185D01*
X146143239Y-106263147D01*
X146132260Y-106287187D01*
X146124816Y-106312539D01*
X146117975Y-106318466D01*
X146114214Y-106326703D01*
X146091981Y-106340990D01*
X146072013Y-106358294D01*
X146061497Y-106360581D01*
X146055436Y-106364477D01*
X146020501Y-106369500D01*
X145829500Y-106369500D01*
X145762461Y-106349815D01*
X145716706Y-106297011D01*
X145705500Y-106245500D01*
X145705500Y-105031445D01*
X145705499Y-105031441D01*
X145690842Y-104901351D01*
X145690841Y-104901349D01*
X145690841Y-104901343D01*
X145633122Y-104736394D01*
X145540147Y-104588424D01*
X145416576Y-104464853D01*
X145268606Y-104371878D01*
X145268605Y-104371877D01*
X145268604Y-104371877D01*
X145103658Y-104314159D01*
X145103648Y-104314157D01*
X144973558Y-104299500D01*
X144973552Y-104299500D01*
X144336448Y-104299500D01*
X144336441Y-104299500D01*
X144206351Y-104314157D01*
X144206341Y-104314159D01*
X144041395Y-104371877D01*
X143893423Y-104464853D01*
X143769853Y-104588423D01*
X143676877Y-104736395D01*
X143619159Y-104901341D01*
X143619157Y-104901351D01*
X143604500Y-105031441D01*
X143604500Y-106368558D01*
X143619157Y-106498648D01*
X143619159Y-106498658D01*
X143676877Y-106663604D01*
X143676878Y-106663606D01*
X143769853Y-106811576D01*
X143893424Y-106935147D01*
X144041394Y-107028122D01*
X144206343Y-107085841D01*
X144206349Y-107085841D01*
X144206351Y-107085842D01*
X144247750Y-107090506D01*
X144336442Y-107100499D01*
X144336445Y-107100500D01*
X144336448Y-107100500D01*
X144750500Y-107100500D01*
X144817539Y-107120185D01*
X144863294Y-107172989D01*
X144874500Y-107224500D01*
X144874500Y-108438558D01*
X144889157Y-108568648D01*
X144889159Y-108568658D01*
X144946877Y-108733604D01*
X144946878Y-108733606D01*
X145039853Y-108881576D01*
X145163424Y-109005147D01*
X145311394Y-109098122D01*
X145476343Y-109155841D01*
X145476349Y-109155841D01*
X145476351Y-109155842D01*
X145517750Y-109160506D01*
X145606442Y-109170499D01*
X145606445Y-109170500D01*
X145606448Y-109170500D01*
X146243555Y-109170500D01*
X146243556Y-109170499D01*
X146373657Y-109155841D01*
X146538606Y-109098122D01*
X146686576Y-109005147D01*
X146810147Y-108881576D01*
X146810147Y-108881575D01*
X146812818Y-108878905D01*
X146874141Y-108845420D01*
X146943833Y-108850404D01*
X146999766Y-108892276D01*
X147024183Y-108957740D01*
X147024499Y-108966586D01*
X147024499Y-111509139D01*
X147004814Y-111576178D01*
X146952010Y-111621933D01*
X146925125Y-111630039D01*
X146925208Y-111630384D01*
X146920473Y-111631520D01*
X146725778Y-111694781D01*
X146543386Y-111787715D01*
X146377786Y-111908028D01*
X146233028Y-112052786D01*
X146112715Y-112218386D01*
X146065485Y-112311080D01*
X146017510Y-112361876D01*
X145949689Y-112378671D01*
X145883554Y-112356134D01*
X145844515Y-112311080D01*
X145843883Y-112309840D01*
X145797287Y-112218390D01*
X145789556Y-112207749D01*
X145676971Y-112052786D01*
X145532213Y-111908028D01*
X145366613Y-111787715D01*
X145366612Y-111787714D01*
X145366610Y-111787713D01*
X145309653Y-111758691D01*
X145184223Y-111694781D01*
X144989534Y-111631522D01*
X144814995Y-111603878D01*
X144787352Y-111599500D01*
X144582648Y-111599500D01*
X144558329Y-111603351D01*
X144380465Y-111631522D01*
X144185776Y-111694781D01*
X144003386Y-111787715D01*
X143837786Y-111908028D01*
X143693028Y-112052786D01*
X143572715Y-112218386D01*
X143479781Y-112400776D01*
X143416522Y-112595465D01*
X143384500Y-112797648D01*
X111902282Y-112797648D01*
X111925500Y-112621288D01*
X111925500Y-112378712D01*
X111893838Y-112138211D01*
X111831054Y-111903900D01*
X111829231Y-111899500D01*
X111812663Y-111859500D01*
X111738224Y-111679788D01*
X111616936Y-111469711D01*
X111469265Y-111277262D01*
X111469260Y-111277256D01*
X111297743Y-111105739D01*
X111297736Y-111105733D01*
X111105293Y-110958067D01*
X111105292Y-110958066D01*
X111105289Y-110958064D01*
X110918117Y-110850000D01*
X110895214Y-110836777D01*
X110895205Y-110836773D01*
X110671104Y-110743947D01*
X110436785Y-110681161D01*
X110196289Y-110649500D01*
X110196288Y-110649500D01*
X109953712Y-110649500D01*
X109953711Y-110649500D01*
X109713214Y-110681161D01*
X109478895Y-110743947D01*
X109254794Y-110836773D01*
X109254785Y-110836777D01*
X109044706Y-110958067D01*
X108852263Y-111105733D01*
X108852256Y-111105739D01*
X108680739Y-111277256D01*
X108680733Y-111277263D01*
X108533067Y-111469706D01*
X108411777Y-111679785D01*
X108411773Y-111679794D01*
X108318947Y-111903895D01*
X108256161Y-112138214D01*
X108224500Y-112378711D01*
X106475500Y-112378711D01*
X106475500Y-108949983D01*
X123694500Y-108949983D01*
X123694500Y-110150001D01*
X123694501Y-110150018D01*
X123705000Y-110252796D01*
X123705001Y-110252799D01*
X123752856Y-110397213D01*
X123760186Y-110419334D01*
X123852288Y-110568656D01*
X123976344Y-110692712D01*
X124125666Y-110784814D01*
X124292203Y-110839999D01*
X124394991Y-110850500D01*
X125595008Y-110850499D01*
X125697797Y-110839999D01*
X125864334Y-110784814D01*
X126013656Y-110692712D01*
X126137712Y-110568656D01*
X126229814Y-110419334D01*
X126256955Y-110337427D01*
X126296726Y-110279984D01*
X126361242Y-110253161D01*
X126430018Y-110265476D01*
X126474977Y-110303547D01*
X126512519Y-110355218D01*
X126543034Y-110397219D01*
X126687786Y-110541971D01*
X126808226Y-110629474D01*
X126853390Y-110662287D01*
X126969607Y-110721503D01*
X127035776Y-110755218D01*
X127035778Y-110755218D01*
X127035781Y-110755220D01*
X127126856Y-110784812D01*
X127230465Y-110818477D01*
X127331557Y-110834488D01*
X127432648Y-110850500D01*
X127432649Y-110850500D01*
X127637351Y-110850500D01*
X127637352Y-110850500D01*
X127839534Y-110818477D01*
X128034219Y-110755220D01*
X128216610Y-110662287D01*
X128345482Y-110568657D01*
X128382213Y-110541971D01*
X128382215Y-110541968D01*
X128382219Y-110541966D01*
X128526966Y-110397219D01*
X128526968Y-110397215D01*
X128526971Y-110397213D01*
X128631894Y-110252797D01*
X128647287Y-110231610D01*
X128694795Y-110138369D01*
X128742769Y-110087573D01*
X128810590Y-110070778D01*
X128876725Y-110093315D01*
X128915765Y-110138369D01*
X128963141Y-110231350D01*
X128963147Y-110231359D01*
X128995523Y-110275921D01*
X128995524Y-110275922D01*
X129675000Y-109596446D01*
X129675000Y-109602661D01*
X129702259Y-109704394D01*
X129754920Y-109795606D01*
X129829394Y-109870080D01*
X129920606Y-109922741D01*
X130022339Y-109950000D01*
X130028553Y-109950000D01*
X129349076Y-110629474D01*
X129393650Y-110661859D01*
X129575968Y-110754755D01*
X129770582Y-110817990D01*
X129972683Y-110850000D01*
X130177317Y-110850000D01*
X130379417Y-110817990D01*
X130574031Y-110754755D01*
X130756349Y-110661859D01*
X130800921Y-110629474D01*
X130121447Y-109950000D01*
X130127661Y-109950000D01*
X130229394Y-109922741D01*
X130320606Y-109870080D01*
X130395080Y-109795606D01*
X130447741Y-109704394D01*
X130475000Y-109602661D01*
X130475000Y-109596447D01*
X131154474Y-110275921D01*
X131186861Y-110231347D01*
X131186861Y-110231346D01*
X131234234Y-110138371D01*
X131282208Y-110087575D01*
X131350028Y-110070779D01*
X131416164Y-110093316D01*
X131455203Y-110138369D01*
X131502713Y-110231611D01*
X131623028Y-110397213D01*
X131767786Y-110541971D01*
X131888226Y-110629474D01*
X131933390Y-110662287D01*
X132049607Y-110721503D01*
X132115776Y-110755218D01*
X132115778Y-110755218D01*
X132115781Y-110755220D01*
X132206856Y-110784812D01*
X132310465Y-110818477D01*
X132411557Y-110834488D01*
X132512648Y-110850500D01*
X132512649Y-110850500D01*
X132717351Y-110850500D01*
X132717352Y-110850500D01*
X132919534Y-110818477D01*
X133114219Y-110755220D01*
X133296610Y-110662287D01*
X133425482Y-110568657D01*
X133462213Y-110541971D01*
X133462215Y-110541968D01*
X133462219Y-110541966D01*
X133606966Y-110397219D01*
X133606968Y-110397215D01*
X133606971Y-110397213D01*
X133711894Y-110252797D01*
X133727287Y-110231610D01*
X133759593Y-110168205D01*
X133807567Y-110117409D01*
X133870078Y-110100500D01*
X138152756Y-110100500D01*
X138219795Y-110120185D01*
X138265550Y-110172989D01*
X138276045Y-110237752D01*
X138274500Y-110252127D01*
X138274500Y-110252133D01*
X138274500Y-110252134D01*
X138274500Y-111947870D01*
X138274501Y-111947876D01*
X138280908Y-112007483D01*
X138331202Y-112142328D01*
X138331206Y-112142335D01*
X138417452Y-112257544D01*
X138417455Y-112257547D01*
X138532664Y-112343793D01*
X138532671Y-112343797D01*
X138667517Y-112394091D01*
X138667516Y-112394091D01*
X138674444Y-112394835D01*
X138727127Y-112400500D01*
X140422872Y-112400499D01*
X140482483Y-112394091D01*
X140617331Y-112343796D01*
X140732546Y-112257546D01*
X140818796Y-112142331D01*
X140869091Y-112007483D01*
X140875500Y-111947873D01*
X140875499Y-110252128D01*
X140869091Y-110192517D01*
X140853236Y-110150008D01*
X140818797Y-110057671D01*
X140818793Y-110057664D01*
X140732547Y-109942455D01*
X140724019Y-109936071D01*
X140682149Y-109880137D01*
X140677165Y-109810446D01*
X140687844Y-109780515D01*
X140780220Y-109599219D01*
X140843477Y-109404534D01*
X140875500Y-109202352D01*
X140875500Y-108997648D01*
X140867952Y-108949991D01*
X140843477Y-108795465D01*
X140780218Y-108600776D01*
X140744839Y-108531342D01*
X140687287Y-108418390D01*
X140634144Y-108345244D01*
X140566971Y-108252786D01*
X140422213Y-108108028D01*
X140256613Y-107987715D01*
X140256612Y-107987714D01*
X140256610Y-107987713D01*
X140173260Y-107945244D01*
X140074223Y-107894781D01*
X139879534Y-107831522D01*
X139704995Y-107803878D01*
X139677352Y-107799500D01*
X139472648Y-107799500D01*
X139448329Y-107803351D01*
X139270465Y-107831522D01*
X139075776Y-107894781D01*
X138893386Y-107987715D01*
X138824036Y-108038101D01*
X138779410Y-108070524D01*
X138772123Y-108075818D01*
X138706317Y-108099298D01*
X138699238Y-108099500D01*
X132966455Y-108099500D01*
X132874216Y-108117847D01*
X132874202Y-108117850D01*
X132869812Y-108118724D01*
X132773164Y-108137949D01*
X132724675Y-108158034D01*
X132717569Y-108160976D01*
X132717559Y-108160980D01*
X132591092Y-108213364D01*
X132591074Y-108213374D01*
X132567165Y-108229350D01*
X132517141Y-108246727D01*
X132517460Y-108248738D01*
X132512649Y-108249500D01*
X132512648Y-108249500D01*
X132492582Y-108252678D01*
X132310465Y-108281522D01*
X132115776Y-108344781D01*
X131933386Y-108437715D01*
X131767786Y-108558028D01*
X131623028Y-108702786D01*
X131502713Y-108868388D01*
X131455203Y-108961630D01*
X131407228Y-109012426D01*
X131339407Y-109029220D01*
X131273272Y-109006682D01*
X131234234Y-108961628D01*
X131186861Y-108868652D01*
X131154474Y-108824077D01*
X131154474Y-108824076D01*
X130475000Y-109503551D01*
X130475000Y-109497339D01*
X130447741Y-109395606D01*
X130395080Y-109304394D01*
X130320606Y-109229920D01*
X130229394Y-109177259D01*
X130127661Y-109150000D01*
X130121446Y-109150000D01*
X130800922Y-108470524D01*
X130800921Y-108470523D01*
X130756359Y-108438147D01*
X130756350Y-108438141D01*
X130574031Y-108345244D01*
X130379417Y-108282009D01*
X130177317Y-108250000D01*
X129972683Y-108250000D01*
X129770582Y-108282009D01*
X129575968Y-108345244D01*
X129393644Y-108438143D01*
X129349077Y-108470523D01*
X129349077Y-108470524D01*
X130028554Y-109150000D01*
X130022339Y-109150000D01*
X129920606Y-109177259D01*
X129829394Y-109229920D01*
X129754920Y-109304394D01*
X129702259Y-109395606D01*
X129675000Y-109497339D01*
X129675000Y-109503553D01*
X128995524Y-108824077D01*
X128995523Y-108824077D01*
X128963143Y-108868644D01*
X128915765Y-108961630D01*
X128867790Y-109012426D01*
X128799969Y-109029221D01*
X128733834Y-109006683D01*
X128694795Y-108961630D01*
X128663393Y-108900000D01*
X128647287Y-108868390D01*
X128647285Y-108868387D01*
X128647284Y-108868385D01*
X128526971Y-108702786D01*
X128382213Y-108558028D01*
X128216613Y-108437715D01*
X128216612Y-108437714D01*
X128216610Y-108437713D01*
X128140451Y-108398908D01*
X128034223Y-108344781D01*
X127839534Y-108281522D01*
X127664995Y-108253878D01*
X127637352Y-108249500D01*
X127432648Y-108249500D01*
X127411933Y-108252781D01*
X127230465Y-108281522D01*
X127035776Y-108344781D01*
X126853386Y-108437715D01*
X126687786Y-108558028D01*
X126543032Y-108702782D01*
X126543028Y-108702787D01*
X126474978Y-108796451D01*
X126419648Y-108839117D01*
X126350035Y-108845096D01*
X126288240Y-108812490D01*
X126256954Y-108762570D01*
X126252789Y-108750000D01*
X126229814Y-108680666D01*
X126137712Y-108531344D01*
X126013656Y-108407288D01*
X125864334Y-108315186D01*
X125697797Y-108260001D01*
X125697795Y-108260000D01*
X125595010Y-108249500D01*
X124394998Y-108249500D01*
X124394981Y-108249501D01*
X124292203Y-108260000D01*
X124292200Y-108260001D01*
X124125668Y-108315185D01*
X124125663Y-108315187D01*
X123976342Y-108407289D01*
X123852289Y-108531342D01*
X123760187Y-108680663D01*
X123760186Y-108680666D01*
X123705001Y-108847203D01*
X123705001Y-108847204D01*
X123705000Y-108847204D01*
X123694500Y-108949983D01*
X106475500Y-108949983D01*
X106475500Y-101827648D01*
X123694500Y-101827648D01*
X123694500Y-102032352D01*
X123696925Y-102047660D01*
X123726522Y-102234534D01*
X123789781Y-102429223D01*
X123882715Y-102611613D01*
X124003028Y-102777213D01*
X124147786Y-102921971D01*
X124244804Y-102992457D01*
X124313390Y-103042287D01*
X124429607Y-103101503D01*
X124495776Y-103135218D01*
X124495778Y-103135218D01*
X124495781Y-103135220D01*
X124600137Y-103169127D01*
X124690465Y-103198477D01*
X124791557Y-103214488D01*
X124892648Y-103230500D01*
X124892649Y-103230500D01*
X125097351Y-103230500D01*
X125097352Y-103230500D01*
X125299534Y-103198477D01*
X125494219Y-103135220D01*
X125676610Y-103042287D01*
X125784892Y-102963616D01*
X125842213Y-102921971D01*
X125842215Y-102921968D01*
X125842219Y-102921966D01*
X125986966Y-102777219D01*
X125986968Y-102777215D01*
X125986971Y-102777213D01*
X126107284Y-102611614D01*
X126107285Y-102611613D01*
X126107287Y-102611610D01*
X126154516Y-102518917D01*
X126202489Y-102468123D01*
X126270310Y-102451328D01*
X126336445Y-102473865D01*
X126375485Y-102518919D01*
X126422715Y-102611614D01*
X126543028Y-102777213D01*
X126687786Y-102921971D01*
X126784804Y-102992457D01*
X126853390Y-103042287D01*
X126969607Y-103101503D01*
X127035776Y-103135218D01*
X127035778Y-103135218D01*
X127035781Y-103135220D01*
X127140137Y-103169127D01*
X127230465Y-103198477D01*
X127331557Y-103214488D01*
X127432648Y-103230500D01*
X127432649Y-103230500D01*
X127637351Y-103230500D01*
X127637352Y-103230500D01*
X127839534Y-103198477D01*
X128034219Y-103135220D01*
X128216610Y-103042287D01*
X128324892Y-102963616D01*
X128382213Y-102921971D01*
X128382215Y-102921968D01*
X128382219Y-102921966D01*
X128526966Y-102777219D01*
X128526968Y-102777215D01*
X128526971Y-102777213D01*
X128647284Y-102611614D01*
X128647285Y-102611613D01*
X128647287Y-102611610D01*
X128694516Y-102518917D01*
X128742489Y-102468123D01*
X128810310Y-102451328D01*
X128876445Y-102473865D01*
X128915485Y-102518919D01*
X128962715Y-102611614D01*
X129083028Y-102777213D01*
X129227786Y-102921971D01*
X129324804Y-102992457D01*
X129393390Y-103042287D01*
X129509607Y-103101503D01*
X129575776Y-103135218D01*
X129575778Y-103135218D01*
X129575781Y-103135220D01*
X129680137Y-103169127D01*
X129770465Y-103198477D01*
X129871557Y-103214488D01*
X129972648Y-103230500D01*
X129972649Y-103230500D01*
X130177351Y-103230500D01*
X130177352Y-103230500D01*
X130379534Y-103198477D01*
X130574219Y-103135220D01*
X130756610Y-103042287D01*
X130864892Y-102963616D01*
X130922213Y-102921971D01*
X130922215Y-102921968D01*
X130922219Y-102921966D01*
X131066966Y-102777219D01*
X131066968Y-102777215D01*
X131066971Y-102777213D01*
X131187284Y-102611614D01*
X131187285Y-102611613D01*
X131187287Y-102611610D01*
X131234516Y-102518917D01*
X131282489Y-102468123D01*
X131350310Y-102451328D01*
X131416445Y-102473865D01*
X131455485Y-102518919D01*
X131502715Y-102611614D01*
X131623028Y-102777213D01*
X131767786Y-102921971D01*
X131864804Y-102992457D01*
X131933390Y-103042287D01*
X132049607Y-103101503D01*
X132115776Y-103135218D01*
X132115778Y-103135218D01*
X132115781Y-103135220D01*
X132220137Y-103169127D01*
X132310465Y-103198477D01*
X132387966Y-103210751D01*
X132458513Y-103221925D01*
X132521648Y-103251854D01*
X132526797Y-103256717D01*
X133347215Y-104077137D01*
X133347219Y-104077140D01*
X133511079Y-104186628D01*
X133511085Y-104186631D01*
X133511086Y-104186632D01*
X133693165Y-104262052D01*
X133843552Y-104291966D01*
X133886455Y-104300500D01*
X133886458Y-104300501D01*
X133886460Y-104300501D01*
X134089655Y-104300501D01*
X134089675Y-104300500D01*
X137953260Y-104300500D01*
X138020299Y-104320185D01*
X138066054Y-104372989D01*
X138076550Y-104437755D01*
X138075000Y-104452171D01*
X138075000Y-105050000D01*
X139059314Y-105050000D01*
X139054920Y-105054394D01*
X139002259Y-105145606D01*
X138975000Y-105247339D01*
X138975000Y-105352661D01*
X139002259Y-105454394D01*
X139054920Y-105545606D01*
X139059314Y-105550000D01*
X138075000Y-105550000D01*
X138075000Y-106147844D01*
X138081401Y-106207372D01*
X138081403Y-106207379D01*
X138131645Y-106342086D01*
X138131649Y-106342093D01*
X138217809Y-106457187D01*
X138217812Y-106457190D01*
X138332906Y-106543350D01*
X138332913Y-106543354D01*
X138467620Y-106593596D01*
X138467627Y-106593598D01*
X138527155Y-106599999D01*
X138527172Y-106600000D01*
X139125000Y-106600000D01*
X139125000Y-105615686D01*
X139129394Y-105620080D01*
X139220606Y-105672741D01*
X139322339Y-105700000D01*
X139427661Y-105700000D01*
X139529394Y-105672741D01*
X139620606Y-105620080D01*
X139625000Y-105615686D01*
X139625000Y-106600000D01*
X140222828Y-106600000D01*
X140222844Y-106599999D01*
X140282372Y-106593598D01*
X140282379Y-106593596D01*
X140417086Y-106543354D01*
X140417093Y-106543350D01*
X140532187Y-106457190D01*
X140532190Y-106457187D01*
X140618350Y-106342093D01*
X140618354Y-106342086D01*
X140668596Y-106207379D01*
X140668598Y-106207372D01*
X140674999Y-106147844D01*
X140675000Y-106147827D01*
X140675000Y-105550000D01*
X139690686Y-105550000D01*
X139695080Y-105545606D01*
X139747741Y-105454394D01*
X139775000Y-105352661D01*
X139775000Y-105247339D01*
X139747741Y-105145606D01*
X139695080Y-105054394D01*
X139690686Y-105050000D01*
X140675000Y-105050000D01*
X140675000Y-104452172D01*
X140674999Y-104452155D01*
X140668598Y-104392627D01*
X140668596Y-104392620D01*
X140618354Y-104257913D01*
X140618350Y-104257906D01*
X140532190Y-104142812D01*
X140523789Y-104136523D01*
X140481919Y-104080589D01*
X140476935Y-104010897D01*
X140487615Y-103980965D01*
X140580220Y-103799219D01*
X140643477Y-103604534D01*
X140666925Y-103456483D01*
X140696854Y-103393350D01*
X140701699Y-103388219D01*
X142705102Y-101384819D01*
X142766425Y-101351334D01*
X142792783Y-101348500D01*
X153572010Y-101348500D01*
X153639049Y-101368185D01*
X153684804Y-101420989D01*
X153694748Y-101490147D01*
X153682495Y-101528794D01*
X153620245Y-101650965D01*
X153557009Y-101845582D01*
X153525000Y-102047682D01*
X153525000Y-102252317D01*
X153557009Y-102454417D01*
X153620244Y-102649031D01*
X153712558Y-102830206D01*
X153725454Y-102898875D01*
X153699178Y-102963616D01*
X153676388Y-102985765D01*
X153667457Y-102992450D01*
X153667451Y-102992457D01*
X153581206Y-103107664D01*
X153581202Y-103107671D01*
X153530908Y-103242517D01*
X153524501Y-103302116D01*
X153524501Y-103302123D01*
X153524500Y-103302135D01*
X153524500Y-104997870D01*
X153524501Y-104997876D01*
X153530908Y-105057483D01*
X153581202Y-105192328D01*
X153581206Y-105192335D01*
X153667452Y-105307544D01*
X153667455Y-105307547D01*
X153782664Y-105393793D01*
X153782671Y-105393797D01*
X153917517Y-105444091D01*
X153917516Y-105444091D01*
X153924444Y-105444835D01*
X153977127Y-105450500D01*
X155672872Y-105450499D01*
X155732483Y-105444091D01*
X155749758Y-105437648D01*
X160324500Y-105437648D01*
X160324500Y-105642351D01*
X160356522Y-105844534D01*
X160419781Y-106039223D01*
X160477683Y-106152860D01*
X160505458Y-106207372D01*
X160512715Y-106221613D01*
X160633028Y-106387213D01*
X160777786Y-106531971D01*
X160923950Y-106638163D01*
X160943390Y-106652287D01*
X161059607Y-106711503D01*
X161125776Y-106745218D01*
X161125778Y-106745218D01*
X161125781Y-106745220D01*
X161230137Y-106779127D01*
X161320465Y-106808477D01*
X161421557Y-106824488D01*
X161522648Y-106840500D01*
X161522649Y-106840500D01*
X161727351Y-106840500D01*
X161727352Y-106840500D01*
X161929534Y-106808477D01*
X162124219Y-106745220D01*
X162306610Y-106652287D01*
X162456545Y-106543354D01*
X162472213Y-106531971D01*
X162472215Y-106531968D01*
X162472219Y-106531966D01*
X162616966Y-106387219D01*
X162616968Y-106387215D01*
X162616971Y-106387213D01*
X162689643Y-106287187D01*
X162737287Y-106221610D01*
X162830220Y-106039219D01*
X162893477Y-105844534D01*
X162925500Y-105642352D01*
X162925500Y-105437648D01*
X162893477Y-105235466D01*
X162830220Y-105040781D01*
X162830218Y-105040778D01*
X162830218Y-105040776D01*
X162796503Y-104974607D01*
X162737287Y-104858390D01*
X162729556Y-104847749D01*
X162616971Y-104692786D01*
X162472213Y-104548028D01*
X162306613Y-104427715D01*
X162306612Y-104427714D01*
X162306610Y-104427713D01*
X162237736Y-104392620D01*
X162124223Y-104334781D01*
X161929534Y-104271522D01*
X161754995Y-104243878D01*
X161727352Y-104239500D01*
X161522648Y-104239500D01*
X161498329Y-104243351D01*
X161320465Y-104271522D01*
X161125776Y-104334781D01*
X160943386Y-104427715D01*
X160777786Y-104548028D01*
X160633028Y-104692786D01*
X160512715Y-104858386D01*
X160419781Y-105040776D01*
X160356522Y-105235465D01*
X160324500Y-105437648D01*
X155749758Y-105437648D01*
X155867331Y-105393796D01*
X155982546Y-105307546D01*
X156068796Y-105192331D01*
X156119091Y-105057483D01*
X156125500Y-104997873D01*
X156125499Y-103302128D01*
X156119091Y-103242517D01*
X156068796Y-103107669D01*
X156068795Y-103107668D01*
X156068793Y-103107664D01*
X155982548Y-102992457D01*
X155982546Y-102992454D01*
X155982544Y-102992452D01*
X155982542Y-102992450D01*
X155973614Y-102985767D01*
X155931744Y-102929833D01*
X155926760Y-102860141D01*
X155937441Y-102830206D01*
X156029755Y-102649031D01*
X156092990Y-102454417D01*
X156125000Y-102252317D01*
X156125000Y-102047682D01*
X156092990Y-101845582D01*
X156029754Y-101650965D01*
X155967505Y-101528794D01*
X155954609Y-101460125D01*
X155980886Y-101395385D01*
X156037992Y-101355128D01*
X156077990Y-101348500D01*
X159005542Y-101348500D01*
X159042842Y-101341080D01*
X159102188Y-101329275D01*
X159198836Y-101310051D01*
X159252165Y-101287961D01*
X159380914Y-101234632D01*
X159544782Y-101125139D01*
X159684139Y-100985782D01*
X159684139Y-100985780D01*
X159694347Y-100975573D01*
X159694348Y-100975570D01*
X163493204Y-97176715D01*
X163554525Y-97143232D01*
X163561475Y-97141926D01*
X163709534Y-97118477D01*
X163904219Y-97055220D01*
X164086610Y-96962287D01*
X164184349Y-96891276D01*
X164252213Y-96841971D01*
X164252215Y-96841968D01*
X164252219Y-96841966D01*
X164396966Y-96697219D01*
X164396968Y-96697215D01*
X164396971Y-96697213D01*
X164454175Y-96618477D01*
X164517287Y-96531610D01*
X164610220Y-96349219D01*
X164673477Y-96154534D01*
X164705500Y-95952352D01*
X164705500Y-95747648D01*
X164690752Y-95654534D01*
X164673477Y-95545465D01*
X164642458Y-95449999D01*
X164610220Y-95350781D01*
X164610218Y-95350778D01*
X164610218Y-95350776D01*
X164540911Y-95214755D01*
X164517287Y-95168390D01*
X164485092Y-95124077D01*
X164396971Y-95002786D01*
X164252213Y-94858028D01*
X164086611Y-94737713D01*
X163993369Y-94690203D01*
X163942574Y-94642229D01*
X163925779Y-94574407D01*
X163948317Y-94508273D01*
X163993371Y-94469234D01*
X164086346Y-94421861D01*
X164086347Y-94421861D01*
X164130921Y-94389474D01*
X163451447Y-93710000D01*
X163457661Y-93710000D01*
X163559394Y-93682741D01*
X163650606Y-93630080D01*
X163725080Y-93555606D01*
X163777741Y-93464394D01*
X163805000Y-93362661D01*
X163805000Y-93356448D01*
X164484474Y-94035922D01*
X164484474Y-94035921D01*
X164516859Y-93991349D01*
X164609755Y-93809031D01*
X164672990Y-93614417D01*
X164705000Y-93412317D01*
X164705000Y-93207682D01*
X164672990Y-93005582D01*
X164609755Y-92810968D01*
X164516859Y-92628650D01*
X164484474Y-92584077D01*
X164484474Y-92584076D01*
X163805000Y-93263551D01*
X163805000Y-93257339D01*
X163777741Y-93155606D01*
X163725080Y-93064394D01*
X163650606Y-92989920D01*
X163559394Y-92937259D01*
X163457661Y-92910000D01*
X163451446Y-92910000D01*
X164130922Y-92230524D01*
X164130921Y-92230523D01*
X164086359Y-92198147D01*
X164086350Y-92198141D01*
X163993369Y-92150765D01*
X163942573Y-92102790D01*
X163925778Y-92034969D01*
X163948315Y-91968835D01*
X163993370Y-91929795D01*
X163993920Y-91929515D01*
X164086610Y-91882287D01*
X164148650Y-91837213D01*
X164252213Y-91761971D01*
X164252215Y-91761968D01*
X164252219Y-91761966D01*
X164396966Y-91617219D01*
X164396968Y-91617215D01*
X164396971Y-91617213D01*
X164464521Y-91524237D01*
X164517287Y-91451610D01*
X164610220Y-91269219D01*
X164673477Y-91074534D01*
X164705500Y-90872352D01*
X164705500Y-90667648D01*
X164673477Y-90465466D01*
X164668046Y-90448752D01*
X164630785Y-90334075D01*
X164610220Y-90270781D01*
X164610218Y-90270778D01*
X164610218Y-90270776D01*
X164568284Y-90188477D01*
X164517287Y-90088390D01*
X164497296Y-90060875D01*
X164396971Y-89922786D01*
X164252219Y-89778034D01*
X164232287Y-89763553D01*
X164158547Y-89709978D01*
X164115882Y-89654649D01*
X164109903Y-89585036D01*
X164142508Y-89523240D01*
X164192426Y-89491955D01*
X164274334Y-89464814D01*
X164423656Y-89372712D01*
X164547712Y-89248656D01*
X164639814Y-89099334D01*
X164694999Y-88932797D01*
X164705500Y-88830009D01*
X164705499Y-88127648D01*
X169724500Y-88127648D01*
X169724500Y-88332351D01*
X169756522Y-88534534D01*
X169819781Y-88729223D01*
X169871135Y-88830009D01*
X169907440Y-88901262D01*
X169912715Y-88911613D01*
X170033028Y-89077213D01*
X170177786Y-89221971D01*
X170293775Y-89306240D01*
X170343390Y-89342287D01*
X170434840Y-89388883D01*
X170436080Y-89389515D01*
X170486876Y-89437490D01*
X170503671Y-89505311D01*
X170481134Y-89571446D01*
X170436080Y-89610485D01*
X170343386Y-89657715D01*
X170177786Y-89778028D01*
X170033028Y-89922786D01*
X169912715Y-90088386D01*
X169819781Y-90270776D01*
X169756522Y-90465465D01*
X169724500Y-90667648D01*
X169724500Y-90872351D01*
X169756522Y-91074534D01*
X169819781Y-91269223D01*
X169868755Y-91365338D01*
X169895614Y-91418052D01*
X169912715Y-91451613D01*
X170033028Y-91617213D01*
X170177786Y-91761971D01*
X170309569Y-91857715D01*
X170343390Y-91882287D01*
X170434840Y-91928883D01*
X170436080Y-91929515D01*
X170486876Y-91977490D01*
X170503671Y-92045311D01*
X170481134Y-92111446D01*
X170436080Y-92150485D01*
X170343386Y-92197715D01*
X170177786Y-92318028D01*
X170033028Y-92462786D01*
X169912715Y-92628386D01*
X169819781Y-92810776D01*
X169756522Y-93005465D01*
X169728338Y-93183418D01*
X169724500Y-93207648D01*
X169724500Y-93412352D01*
X169726923Y-93427648D01*
X169756522Y-93614534D01*
X169819781Y-93809223D01*
X169882365Y-93932048D01*
X169912585Y-93991359D01*
X169912715Y-93991613D01*
X170033028Y-94157213D01*
X170177786Y-94301971D01*
X170343385Y-94422284D01*
X170343387Y-94422285D01*
X170343390Y-94422287D01*
X170435529Y-94469234D01*
X170436630Y-94469795D01*
X170487426Y-94517770D01*
X170504221Y-94585591D01*
X170481684Y-94651725D01*
X170436630Y-94690765D01*
X170343644Y-94738143D01*
X170299077Y-94770523D01*
X170299077Y-94770524D01*
X170978554Y-95450000D01*
X170972339Y-95450000D01*
X170870606Y-95477259D01*
X170779394Y-95529920D01*
X170704920Y-95604394D01*
X170652259Y-95695606D01*
X170625000Y-95797339D01*
X170625000Y-95803553D01*
X169945524Y-95124077D01*
X169945523Y-95124077D01*
X169913143Y-95168644D01*
X169820244Y-95350968D01*
X169757009Y-95545582D01*
X169725000Y-95747682D01*
X169725000Y-95952317D01*
X169757009Y-96154417D01*
X169820244Y-96349031D01*
X169913141Y-96531350D01*
X169913147Y-96531359D01*
X169945523Y-96575921D01*
X169945524Y-96575922D01*
X170625000Y-95896446D01*
X170625000Y-95902661D01*
X170652259Y-96004394D01*
X170704920Y-96095606D01*
X170779394Y-96170080D01*
X170870606Y-96222741D01*
X170972339Y-96250000D01*
X170978553Y-96250000D01*
X170299076Y-96929474D01*
X170343650Y-96961859D01*
X170525968Y-97054755D01*
X170720582Y-97117990D01*
X170922683Y-97150000D01*
X171127317Y-97150000D01*
X171329417Y-97117990D01*
X171524031Y-97054755D01*
X171706349Y-96961859D01*
X171750921Y-96929474D01*
X171071447Y-96250000D01*
X171077661Y-96250000D01*
X171179394Y-96222741D01*
X171270606Y-96170080D01*
X171345080Y-96095606D01*
X171397741Y-96004394D01*
X171425000Y-95902661D01*
X171425000Y-95896447D01*
X172104474Y-96575921D01*
X172136859Y-96531349D01*
X172229755Y-96349031D01*
X172292990Y-96154417D01*
X172325000Y-95952317D01*
X172325000Y-95747682D01*
X172292990Y-95545582D01*
X172229755Y-95350968D01*
X172136859Y-95168650D01*
X172104474Y-95124077D01*
X172104474Y-95124076D01*
X171425000Y-95803551D01*
X171425000Y-95797339D01*
X171397741Y-95695606D01*
X171345080Y-95604394D01*
X171270606Y-95529920D01*
X171179394Y-95477259D01*
X171077661Y-95450000D01*
X171071446Y-95450000D01*
X171750922Y-94770524D01*
X171750921Y-94770523D01*
X171706359Y-94738147D01*
X171706350Y-94738141D01*
X171613369Y-94690765D01*
X171562573Y-94642790D01*
X171545778Y-94574969D01*
X171568315Y-94508835D01*
X171613370Y-94469795D01*
X171614471Y-94469234D01*
X171706610Y-94422287D01*
X171787451Y-94363553D01*
X171872213Y-94301971D01*
X171872215Y-94301968D01*
X171872219Y-94301966D01*
X172016966Y-94157219D01*
X172016968Y-94157215D01*
X172016971Y-94157213D01*
X172085666Y-94062661D01*
X172137287Y-93991610D01*
X172180050Y-93907682D01*
X172825000Y-93907682D01*
X172825000Y-94112317D01*
X172857009Y-94314417D01*
X172920244Y-94509031D01*
X173013141Y-94691350D01*
X173013147Y-94691359D01*
X173045523Y-94735921D01*
X173045524Y-94735922D01*
X173725000Y-94056446D01*
X173725000Y-94062661D01*
X173752259Y-94164394D01*
X173804920Y-94255606D01*
X173879394Y-94330080D01*
X173970606Y-94382741D01*
X174072339Y-94410000D01*
X174078553Y-94410000D01*
X173399076Y-95089474D01*
X173443650Y-95121859D01*
X173625968Y-95214755D01*
X173820582Y-95277990D01*
X174022683Y-95310000D01*
X174227317Y-95310000D01*
X174429417Y-95277990D01*
X174624031Y-95214755D01*
X174806349Y-95121859D01*
X174850921Y-95089474D01*
X174171447Y-94410000D01*
X174177661Y-94410000D01*
X174279394Y-94382741D01*
X174370606Y-94330080D01*
X174445080Y-94255606D01*
X174497741Y-94164394D01*
X174525000Y-94062661D01*
X174525000Y-94056448D01*
X175204474Y-94735922D01*
X175204474Y-94735921D01*
X175236859Y-94691349D01*
X175329755Y-94509031D01*
X175392990Y-94314417D01*
X175425000Y-94112317D01*
X175425000Y-93907682D01*
X175392990Y-93705582D01*
X175329755Y-93510968D01*
X175236859Y-93328650D01*
X175204474Y-93284077D01*
X175204474Y-93284076D01*
X174525000Y-93963551D01*
X174525000Y-93957339D01*
X174497741Y-93855606D01*
X174445080Y-93764394D01*
X174370606Y-93689920D01*
X174279394Y-93637259D01*
X174177661Y-93610000D01*
X174171446Y-93610000D01*
X174850922Y-92930524D01*
X174850921Y-92930523D01*
X174806359Y-92898147D01*
X174806350Y-92898141D01*
X174624031Y-92805244D01*
X174429417Y-92742009D01*
X174227317Y-92710000D01*
X174022683Y-92710000D01*
X173820582Y-92742009D01*
X173625968Y-92805244D01*
X173443644Y-92898143D01*
X173399077Y-92930523D01*
X173399077Y-92930524D01*
X174078554Y-93610000D01*
X174072339Y-93610000D01*
X173970606Y-93637259D01*
X173879394Y-93689920D01*
X173804920Y-93764394D01*
X173752259Y-93855606D01*
X173725000Y-93957339D01*
X173725000Y-93963553D01*
X173045524Y-93284077D01*
X173045523Y-93284077D01*
X173013143Y-93328644D01*
X172920244Y-93510968D01*
X172857009Y-93705582D01*
X172825000Y-93907682D01*
X172180050Y-93907682D01*
X172197082Y-93874254D01*
X172211214Y-93846521D01*
X172211215Y-93846519D01*
X172230217Y-93809226D01*
X172230217Y-93809222D01*
X172230220Y-93809219D01*
X172293477Y-93614534D01*
X172325500Y-93412352D01*
X172325500Y-93207648D01*
X172293477Y-93005466D01*
X172230220Y-92810781D01*
X172230218Y-92810778D01*
X172230218Y-92810776D01*
X172176084Y-92704534D01*
X172137287Y-92628390D01*
X172105092Y-92584077D01*
X172016971Y-92462786D01*
X171872213Y-92318028D01*
X171844162Y-92297648D01*
X176114500Y-92297648D01*
X176114500Y-92502351D01*
X176146522Y-92704534D01*
X176209781Y-92899223D01*
X176263916Y-93005467D01*
X176297995Y-93072351D01*
X176302715Y-93081613D01*
X176423028Y-93247213D01*
X176567786Y-93391971D01*
X176722749Y-93504556D01*
X176733390Y-93512287D01*
X176849607Y-93571503D01*
X176915776Y-93605218D01*
X176915778Y-93605218D01*
X176915781Y-93605220D01*
X176999282Y-93632351D01*
X177110465Y-93668477D01*
X177187966Y-93680751D01*
X177258513Y-93691925D01*
X177321648Y-93721854D01*
X177326797Y-93726717D01*
X181213181Y-97613101D01*
X181246666Y-97674424D01*
X181249500Y-97700782D01*
X181249500Y-98240001D01*
X181249501Y-98240019D01*
X181260000Y-98342796D01*
X181260001Y-98342797D01*
X181315185Y-98509331D01*
X181315187Y-98509336D01*
X181341719Y-98552351D01*
X181407288Y-98658656D01*
X181531344Y-98782712D01*
X181680666Y-98874814D01*
X181680668Y-98874814D01*
X181680669Y-98874815D01*
X181681348Y-98875132D01*
X181681735Y-98875473D01*
X181686813Y-98878605D01*
X181686277Y-98879472D01*
X181733787Y-98921304D01*
X181752939Y-98988498D01*
X181732723Y-99055379D01*
X181716625Y-99075195D01*
X181574640Y-99217180D01*
X181447843Y-99391700D01*
X181349909Y-99583908D01*
X181283245Y-99789077D01*
X181249500Y-100002133D01*
X181249500Y-100217866D01*
X181267986Y-100334579D01*
X181283246Y-100430926D01*
X181349908Y-100636089D01*
X181447843Y-100828299D01*
X181574641Y-101002821D01*
X181727179Y-101155359D01*
X181836283Y-101234628D01*
X181898294Y-101279682D01*
X181940959Y-101335012D01*
X181946938Y-101404626D01*
X181914332Y-101466421D01*
X181898294Y-101480318D01*
X181727179Y-101604641D01*
X181727177Y-101604643D01*
X181727176Y-101604643D01*
X181574643Y-101757176D01*
X181574643Y-101757177D01*
X181574641Y-101757179D01*
X181533861Y-101813308D01*
X181447843Y-101931700D01*
X181349909Y-102123908D01*
X181283245Y-102329077D01*
X181249500Y-102542133D01*
X181249500Y-102757866D01*
X181282088Y-102963616D01*
X181283246Y-102970926D01*
X181349908Y-103176089D01*
X181447843Y-103368299D01*
X181574641Y-103542821D01*
X181727179Y-103695359D01*
X181901701Y-103822157D01*
X182093911Y-103920092D01*
X182299074Y-103986754D01*
X182378973Y-103999408D01*
X182512134Y-104020500D01*
X182512139Y-104020500D01*
X183177866Y-104020500D01*
X183296230Y-104001752D01*
X183390926Y-103986754D01*
X183596089Y-103920092D01*
X183788299Y-103822157D01*
X183962821Y-103695359D01*
X184115359Y-103542821D01*
X184242157Y-103368299D01*
X184340092Y-103176089D01*
X184406754Y-102970926D01*
X184429042Y-102830206D01*
X184440500Y-102757866D01*
X184440500Y-102542133D01*
X184406754Y-102329077D01*
X184406754Y-102329074D01*
X184340092Y-102123911D01*
X184242157Y-101931701D01*
X184115359Y-101757179D01*
X183962821Y-101604641D01*
X183791704Y-101480317D01*
X183749040Y-101424988D01*
X183743061Y-101355374D01*
X183775667Y-101293580D01*
X183791702Y-101279684D01*
X183962821Y-101155359D01*
X184115359Y-101002821D01*
X184242157Y-100828299D01*
X184340092Y-100636089D01*
X184406754Y-100430926D01*
X184427912Y-100297339D01*
X184440500Y-100217866D01*
X184440500Y-100002133D01*
X184406754Y-99789077D01*
X184406754Y-99789074D01*
X184340092Y-99583911D01*
X184242157Y-99391701D01*
X184115359Y-99217179D01*
X183973375Y-99075195D01*
X183939890Y-99013872D01*
X183944874Y-98944180D01*
X183986746Y-98888247D01*
X184008657Y-98875129D01*
X184009322Y-98874817D01*
X184009334Y-98874814D01*
X184158656Y-98782712D01*
X184282712Y-98658656D01*
X184374814Y-98509334D01*
X184429999Y-98342797D01*
X184440500Y-98240009D01*
X184440499Y-96899992D01*
X184435676Y-96852782D01*
X184429999Y-96797203D01*
X184429998Y-96797200D01*
X184414357Y-96750000D01*
X184374814Y-96630666D01*
X184282712Y-96481344D01*
X184158656Y-96357288D01*
X184009334Y-96265186D01*
X183842797Y-96210001D01*
X183842795Y-96210000D01*
X183740016Y-96199500D01*
X183740009Y-96199500D01*
X182680782Y-96199500D01*
X182613743Y-96179815D01*
X182593101Y-96163181D01*
X178741717Y-92311797D01*
X178708232Y-92250474D01*
X178706925Y-92243513D01*
X178699671Y-92197715D01*
X178683477Y-92095466D01*
X178681163Y-92088345D01*
X178636879Y-91952052D01*
X178620220Y-91900781D01*
X178620218Y-91900778D01*
X178620218Y-91900776D01*
X178568869Y-91800000D01*
X178527287Y-91718390D01*
X178461457Y-91627782D01*
X178439182Y-91597122D01*
X178415702Y-91531316D01*
X178415500Y-91524237D01*
X178415500Y-90495781D01*
X178435185Y-90428742D01*
X178451814Y-90408105D01*
X181033203Y-87826715D01*
X181094524Y-87793232D01*
X181101473Y-87791927D01*
X181249534Y-87768477D01*
X181444219Y-87705220D01*
X181626610Y-87612287D01*
X181743723Y-87527200D01*
X181792213Y-87491971D01*
X181792215Y-87491968D01*
X181792219Y-87491966D01*
X181936966Y-87347219D01*
X181936968Y-87347215D01*
X181936971Y-87347213D01*
X181989732Y-87274590D01*
X182057287Y-87181610D01*
X182150220Y-86999219D01*
X182213477Y-86804534D01*
X182245500Y-86602352D01*
X182245500Y-86397648D01*
X182213477Y-86195466D01*
X182207324Y-86176530D01*
X182159019Y-86027861D01*
X182150220Y-86000781D01*
X182150218Y-86000778D01*
X182150218Y-86000776D01*
X182116503Y-85934607D01*
X182057287Y-85818390D01*
X182049483Y-85807648D01*
X181936971Y-85652786D01*
X181792213Y-85508028D01*
X181626613Y-85387715D01*
X181626612Y-85387714D01*
X181626610Y-85387713D01*
X181569653Y-85358691D01*
X181444223Y-85294781D01*
X181249534Y-85231522D01*
X181061242Y-85201700D01*
X181047352Y-85199500D01*
X180842648Y-85199500D01*
X180828758Y-85201700D01*
X180640465Y-85231522D01*
X180445776Y-85294781D01*
X180263386Y-85387715D01*
X180097786Y-85508028D01*
X179953028Y-85652786D01*
X179832715Y-85818386D01*
X179739781Y-86000778D01*
X179676522Y-86195468D01*
X179653073Y-86343515D01*
X179623143Y-86406649D01*
X179618281Y-86411797D01*
X178191914Y-87838165D01*
X176777221Y-89252858D01*
X176777218Y-89252861D01*
X176732866Y-89297213D01*
X176637859Y-89392219D01*
X176528371Y-89556080D01*
X176528364Y-89556093D01*
X176498367Y-89628513D01*
X176498360Y-89628531D01*
X176496859Y-89632157D01*
X176452949Y-89738164D01*
X176443455Y-89785894D01*
X176441846Y-89793980D01*
X176441846Y-89793982D01*
X176414500Y-89931456D01*
X176414500Y-91524237D01*
X176394815Y-91591276D01*
X176390818Y-91597122D01*
X176302715Y-91718386D01*
X176209781Y-91900776D01*
X176146522Y-92095465D01*
X176114500Y-92297648D01*
X171844162Y-92297648D01*
X171706614Y-92197715D01*
X171688636Y-92188555D01*
X171613917Y-92150483D01*
X171563123Y-92102511D01*
X171546328Y-92034690D01*
X171568865Y-91968555D01*
X171613917Y-91929516D01*
X171706610Y-91882287D01*
X171740431Y-91857715D01*
X171872213Y-91761971D01*
X171872215Y-91761968D01*
X171872219Y-91761966D01*
X172016966Y-91617219D01*
X172016968Y-91617215D01*
X172016971Y-91617213D01*
X172084521Y-91524237D01*
X172137287Y-91451610D01*
X172230220Y-91269219D01*
X172293477Y-91074534D01*
X172325500Y-90872352D01*
X172325500Y-90667648D01*
X172293477Y-90465466D01*
X172288046Y-90448752D01*
X172250785Y-90334075D01*
X172230220Y-90270781D01*
X172230218Y-90270778D01*
X172230218Y-90270776D01*
X172188284Y-90188477D01*
X172137287Y-90088390D01*
X172117296Y-90060875D01*
X172016971Y-89922786D01*
X171872213Y-89778028D01*
X171706614Y-89657715D01*
X171669923Y-89639020D01*
X171613917Y-89610483D01*
X171563123Y-89562511D01*
X171546328Y-89494690D01*
X171568865Y-89428555D01*
X171613917Y-89389516D01*
X171706610Y-89342287D01*
X171756225Y-89306240D01*
X171872213Y-89221971D01*
X171872215Y-89221968D01*
X171872219Y-89221966D01*
X172016966Y-89077219D01*
X172016968Y-89077215D01*
X172016971Y-89077213D01*
X172085575Y-88982786D01*
X172137287Y-88911610D01*
X172230220Y-88729219D01*
X172293477Y-88534534D01*
X172325500Y-88332352D01*
X172325500Y-88127648D01*
X172310265Y-88031459D01*
X172293477Y-87925465D01*
X172264127Y-87835137D01*
X172230220Y-87730781D01*
X172230218Y-87730778D01*
X172230218Y-87730776D01*
X172192157Y-87656079D01*
X172137287Y-87548390D01*
X172096293Y-87491966D01*
X172016971Y-87382786D01*
X171872213Y-87238028D01*
X171706613Y-87117715D01*
X171706612Y-87117714D01*
X171706610Y-87117713D01*
X171646898Y-87087288D01*
X171524223Y-87024781D01*
X171329534Y-86961522D01*
X171154995Y-86933878D01*
X171127352Y-86929500D01*
X170922648Y-86929500D01*
X170898329Y-86933351D01*
X170720465Y-86961522D01*
X170525776Y-87024781D01*
X170343386Y-87117715D01*
X170177786Y-87238028D01*
X170033028Y-87382786D01*
X169912715Y-87548386D01*
X169819781Y-87730776D01*
X169756522Y-87925465D01*
X169724500Y-88127648D01*
X164705499Y-88127648D01*
X164705499Y-87629992D01*
X164703690Y-87612287D01*
X164694999Y-87527203D01*
X164694998Y-87527200D01*
X164683324Y-87491971D01*
X164639814Y-87360666D01*
X164547712Y-87211344D01*
X164423656Y-87087288D01*
X164274334Y-86995186D01*
X164107797Y-86940001D01*
X164107795Y-86940000D01*
X164005016Y-86929500D01*
X164005009Y-86929500D01*
X163570782Y-86929500D01*
X163503743Y-86909815D01*
X163483101Y-86893181D01*
X163078209Y-86488289D01*
X163078206Y-86488285D01*
X163078206Y-86488286D01*
X163071139Y-86481219D01*
X163071139Y-86481218D01*
X162931782Y-86341861D01*
X162931781Y-86341860D01*
X162931780Y-86341859D01*
X162767920Y-86232371D01*
X162767907Y-86232364D01*
X162640276Y-86179499D01*
X162640275Y-86179498D01*
X162633108Y-86176530D01*
X162585836Y-86156949D01*
X162489188Y-86137724D01*
X162484845Y-86136860D01*
X162484841Y-86136859D01*
X162392544Y-86118500D01*
X162392541Y-86118500D01*
X160842781Y-86118500D01*
X160775742Y-86098815D01*
X160729987Y-86046011D01*
X160720043Y-85976853D01*
X160749068Y-85913297D01*
X160755100Y-85906819D01*
X161930555Y-84731364D01*
X163153488Y-83508430D01*
X163214810Y-83474946D01*
X163284502Y-83479930D01*
X163340435Y-83521802D01*
X163364852Y-83587266D01*
X163359099Y-83634430D01*
X163316523Y-83765461D01*
X163316523Y-83765464D01*
X163284500Y-83967648D01*
X163284500Y-84172351D01*
X163316522Y-84374534D01*
X163379781Y-84569223D01*
X163431738Y-84671193D01*
X163471241Y-84748722D01*
X163472715Y-84751613D01*
X163593028Y-84917213D01*
X163737786Y-85061971D01*
X163892749Y-85174556D01*
X163903390Y-85182287D01*
X163995499Y-85229219D01*
X164085776Y-85275218D01*
X164085778Y-85275218D01*
X164085781Y-85275220D01*
X164145984Y-85294781D01*
X164280465Y-85338477D01*
X164381557Y-85354488D01*
X164482648Y-85370500D01*
X164482649Y-85370500D01*
X164687351Y-85370500D01*
X164687352Y-85370500D01*
X164889534Y-85338477D01*
X165084219Y-85275220D01*
X165266610Y-85182287D01*
X165359590Y-85114732D01*
X165432213Y-85061971D01*
X165432215Y-85061968D01*
X165432219Y-85061966D01*
X165576966Y-84917219D01*
X165576968Y-84917215D01*
X165576971Y-84917213D01*
X165663791Y-84797713D01*
X165697287Y-84751610D01*
X165790220Y-84569219D01*
X165853477Y-84374534D01*
X165885500Y-84172352D01*
X165885500Y-83967648D01*
X168284500Y-83967648D01*
X168284500Y-84172351D01*
X168316522Y-84374534D01*
X168379781Y-84569223D01*
X168431738Y-84671193D01*
X168471241Y-84748722D01*
X168472715Y-84751613D01*
X168593028Y-84917213D01*
X168737786Y-85061971D01*
X168892749Y-85174556D01*
X168903390Y-85182287D01*
X168995499Y-85229219D01*
X169085776Y-85275218D01*
X169085778Y-85275218D01*
X169085781Y-85275220D01*
X169145984Y-85294781D01*
X169280465Y-85338477D01*
X169381557Y-85354488D01*
X169482648Y-85370500D01*
X169482649Y-85370500D01*
X169687351Y-85370500D01*
X169687352Y-85370500D01*
X169889534Y-85338477D01*
X170084219Y-85275220D01*
X170266610Y-85182287D01*
X170359590Y-85114732D01*
X170432213Y-85061971D01*
X170432215Y-85061968D01*
X170432219Y-85061966D01*
X170576966Y-84917219D01*
X170576968Y-84917215D01*
X170576971Y-84917213D01*
X170663791Y-84797713D01*
X170697287Y-84751610D01*
X170790220Y-84569219D01*
X170853477Y-84374534D01*
X170885500Y-84172352D01*
X170885500Y-83967648D01*
X170853477Y-83765466D01*
X170853476Y-83765464D01*
X170810901Y-83634430D01*
X170790220Y-83570781D01*
X170790218Y-83570778D01*
X170790218Y-83570776D01*
X170743929Y-83479930D01*
X170697287Y-83388390D01*
X170659548Y-83336446D01*
X170576971Y-83222786D01*
X170432213Y-83078028D01*
X170266613Y-82957715D01*
X170266612Y-82957714D01*
X170266610Y-82957713D01*
X170209653Y-82928691D01*
X170084223Y-82864781D01*
X169889534Y-82801522D01*
X169714995Y-82773878D01*
X169687352Y-82769500D01*
X169482648Y-82769500D01*
X169458329Y-82773351D01*
X169280465Y-82801522D01*
X169085776Y-82864781D01*
X168903386Y-82957715D01*
X168737786Y-83078028D01*
X168593028Y-83222786D01*
X168472715Y-83388386D01*
X168379781Y-83570776D01*
X168316522Y-83765465D01*
X168284500Y-83967648D01*
X165885500Y-83967648D01*
X165853477Y-83765466D01*
X165853476Y-83765464D01*
X165810901Y-83634430D01*
X165790220Y-83570781D01*
X165790218Y-83570778D01*
X165790218Y-83570776D01*
X165743929Y-83479930D01*
X165697287Y-83388390D01*
X165659548Y-83336446D01*
X165576971Y-83222786D01*
X165432213Y-83078028D01*
X165266613Y-82957715D01*
X165266612Y-82957714D01*
X165266610Y-82957713D01*
X165209653Y-82928691D01*
X165084223Y-82864781D01*
X164889534Y-82801522D01*
X164714995Y-82773878D01*
X164687352Y-82769500D01*
X164482648Y-82769500D01*
X164415254Y-82780174D01*
X164280464Y-82801523D01*
X164280461Y-82801523D01*
X164149430Y-82844099D01*
X164079589Y-82846094D01*
X164019756Y-82810014D01*
X163988928Y-82747313D01*
X163996893Y-82677899D01*
X164023431Y-82638487D01*
X164949867Y-81712051D01*
X165889342Y-80772575D01*
X165950663Y-80739092D01*
X165957612Y-80737787D01*
X166079534Y-80718477D01*
X166274219Y-80655220D01*
X166456610Y-80562287D01*
X166549590Y-80494732D01*
X166622213Y-80441971D01*
X166622215Y-80441968D01*
X166622219Y-80441966D01*
X166766966Y-80297219D01*
X166766968Y-80297215D01*
X166766971Y-80297213D01*
X166819732Y-80224590D01*
X166887287Y-80131610D01*
X166980220Y-79949219D01*
X167043477Y-79754534D01*
X167075500Y-79552352D01*
X167075500Y-79347648D01*
X167043477Y-79145466D01*
X167043476Y-79145464D01*
X166992440Y-78988390D01*
X166980220Y-78950781D01*
X166980218Y-78950778D01*
X166980218Y-78950776D01*
X166938510Y-78868920D01*
X166887287Y-78768390D01*
X166859032Y-78729500D01*
X166766971Y-78602786D01*
X166622213Y-78458028D01*
X166456613Y-78337715D01*
X166456612Y-78337714D01*
X166456610Y-78337713D01*
X166375647Y-78296460D01*
X166274223Y-78244781D01*
X166079534Y-78181522D01*
X165904995Y-78153878D01*
X165877352Y-78149500D01*
X165672648Y-78149500D01*
X165648329Y-78153351D01*
X165470465Y-78181522D01*
X165275776Y-78244781D01*
X165093386Y-78337715D01*
X164927786Y-78458028D01*
X164783028Y-78602786D01*
X164662715Y-78768386D01*
X164569781Y-78950776D01*
X164506523Y-79145464D01*
X164478933Y-79319654D01*
X164449003Y-79382788D01*
X164444141Y-79387936D01*
X160752792Y-83079285D01*
X160691469Y-83112770D01*
X160621777Y-83107786D01*
X160565844Y-83065914D01*
X160547180Y-83029922D01*
X160546407Y-83027543D01*
X160505220Y-82900781D01*
X160412287Y-82718390D01*
X160382869Y-82677899D01*
X160291971Y-82552786D01*
X160147213Y-82408028D01*
X159981613Y-82287715D01*
X159981612Y-82287714D01*
X159981610Y-82287713D01*
X159924653Y-82258691D01*
X159799223Y-82194781D01*
X159604535Y-82131523D01*
X159456483Y-82108073D01*
X159437252Y-82098956D01*
X159416455Y-82094432D01*
X159397021Y-82079883D01*
X159393349Y-82078143D01*
X159388201Y-82073281D01*
X159291819Y-81976899D01*
X159258334Y-81915576D01*
X159255500Y-81889218D01*
X159255500Y-77514042D01*
X159275185Y-77447003D01*
X159291819Y-77426361D01*
X159300359Y-77417821D01*
X159424682Y-77246704D01*
X159480012Y-77204040D01*
X159549626Y-77198061D01*
X159611420Y-77230667D01*
X159625315Y-77246702D01*
X159749641Y-77417821D01*
X159902179Y-77570359D01*
X160076701Y-77697157D01*
X160268911Y-77795092D01*
X160474074Y-77861754D01*
X160553973Y-77874408D01*
X160687134Y-77895500D01*
X160687139Y-77895500D01*
X160902866Y-77895500D01*
X161021230Y-77876752D01*
X161115926Y-77861754D01*
X161321089Y-77795092D01*
X161513299Y-77697157D01*
X161687821Y-77570359D01*
X161840359Y-77417821D01*
X161888461Y-77351613D01*
X161943791Y-77308949D01*
X161988779Y-77300500D01*
X164023543Y-77300500D01*
X164061745Y-77292900D01*
X164149223Y-77275500D01*
X164216836Y-77262051D01*
X164277420Y-77236956D01*
X164398914Y-77186632D01*
X164562782Y-77077139D01*
X164702139Y-76937782D01*
X164702140Y-76937780D01*
X164709206Y-76930714D01*
X164709209Y-76930710D01*
X165863203Y-75776715D01*
X165924524Y-75743232D01*
X165931473Y-75741927D01*
X166079534Y-75718477D01*
X166274219Y-75655220D01*
X166456610Y-75562287D01*
X166552730Y-75492452D01*
X166622213Y-75441971D01*
X166622215Y-75441968D01*
X166622219Y-75441966D01*
X166659172Y-75405013D01*
X171085000Y-75405013D01*
X171085000Y-76050000D01*
X171912291Y-76050000D01*
X171900548Y-76070339D01*
X171860000Y-76221667D01*
X171860000Y-76378333D01*
X171900548Y-76529661D01*
X171912291Y-76550000D01*
X171085001Y-76550000D01*
X171085001Y-77194986D01*
X171095494Y-77297697D01*
X171150641Y-77464119D01*
X171150643Y-77464124D01*
X171242684Y-77613345D01*
X171366654Y-77737315D01*
X171515875Y-77829356D01*
X171515880Y-77829358D01*
X171682302Y-77884505D01*
X171682309Y-77884506D01*
X171785019Y-77894999D01*
X172204999Y-77894999D01*
X172205000Y-77894998D01*
X172205000Y-76842709D01*
X172225339Y-76854452D01*
X172376667Y-76895000D01*
X172533333Y-76895000D01*
X172684661Y-76854452D01*
X172705000Y-76842709D01*
X172705000Y-77894999D01*
X173124972Y-77894999D01*
X173124986Y-77894998D01*
X173227697Y-77884505D01*
X173394119Y-77829358D01*
X173394124Y-77829356D01*
X173543345Y-77737315D01*
X173667315Y-77613345D01*
X173763149Y-77457975D01*
X173764915Y-77459064D01*
X173804278Y-77414349D01*
X173871470Y-77395189D01*
X173938353Y-77415397D01*
X173983694Y-77468557D01*
X173994500Y-77519185D01*
X173994500Y-82448052D01*
X173974815Y-82515091D01*
X173922011Y-82560846D01*
X173889899Y-82570525D01*
X173820468Y-82581522D01*
X173625778Y-82644781D01*
X173443386Y-82737715D01*
X173277786Y-82858028D01*
X173133028Y-83002786D01*
X173012715Y-83168386D01*
X172919781Y-83350776D01*
X172856522Y-83545465D01*
X172824500Y-83747648D01*
X172824500Y-83952351D01*
X172856522Y-84154534D01*
X172919781Y-84349223D01*
X172976149Y-84459849D01*
X173002867Y-84512287D01*
X173012715Y-84531613D01*
X173133028Y-84697213D01*
X173277786Y-84841971D01*
X173382472Y-84918028D01*
X173443390Y-84962287D01*
X173559607Y-85021503D01*
X173625776Y-85055218D01*
X173625778Y-85055218D01*
X173625781Y-85055220D01*
X173730137Y-85089127D01*
X173820465Y-85118477D01*
X173921557Y-85134488D01*
X174022648Y-85150500D01*
X174022649Y-85150500D01*
X174227351Y-85150500D01*
X174227352Y-85150500D01*
X174429534Y-85118477D01*
X174624219Y-85055220D01*
X174806610Y-84962287D01*
X174899590Y-84894732D01*
X174972213Y-84841971D01*
X174972215Y-84841968D01*
X174972219Y-84841966D01*
X175116966Y-84697219D01*
X175116968Y-84697215D01*
X175116971Y-84697213D01*
X175183456Y-84605703D01*
X175237287Y-84531610D01*
X175330220Y-84349219D01*
X175393477Y-84154534D01*
X175416925Y-84006483D01*
X175426041Y-83987253D01*
X175430566Y-83966455D01*
X175445112Y-83947023D01*
X175446854Y-83943350D01*
X175451699Y-83938219D01*
X175632778Y-83757141D01*
X175632782Y-83757139D01*
X175772139Y-83617782D01*
X175881632Y-83453914D01*
X175940324Y-83312219D01*
X175957051Y-83271836D01*
X175957948Y-83267331D01*
X175977628Y-83168390D01*
X175977628Y-83168389D01*
X175992134Y-83095465D01*
X175995500Y-83078541D01*
X175995500Y-79052761D01*
X181894500Y-79052761D01*
X181894500Y-79257464D01*
X181926522Y-79459647D01*
X181989781Y-79654336D01*
X182082152Y-79835623D01*
X182095048Y-79904293D01*
X182068772Y-79969033D01*
X182045982Y-79991182D01*
X182037457Y-79997563D01*
X182037451Y-79997570D01*
X181951206Y-80112777D01*
X181951202Y-80112784D01*
X181900908Y-80247630D01*
X181895578Y-80297213D01*
X181894501Y-80307236D01*
X181894500Y-80307248D01*
X181894500Y-82002983D01*
X181894501Y-82002989D01*
X181900908Y-82062596D01*
X181951202Y-82197441D01*
X181951206Y-82197448D01*
X182037452Y-82312657D01*
X182037455Y-82312660D01*
X182152664Y-82398906D01*
X182152671Y-82398910D01*
X182177118Y-82408028D01*
X182287517Y-82449204D01*
X182347127Y-82455613D01*
X183029217Y-82455612D01*
X183096256Y-82475296D01*
X183116898Y-82491931D01*
X184908181Y-84283214D01*
X184941666Y-84344537D01*
X184944500Y-84370895D01*
X184944500Y-85624237D01*
X184924815Y-85691276D01*
X184920818Y-85697122D01*
X184832715Y-85818386D01*
X184739781Y-86000776D01*
X184676522Y-86195465D01*
X184644500Y-86397648D01*
X184644500Y-86602351D01*
X184676522Y-86804534D01*
X184739781Y-86999223D01*
X184800042Y-87117490D01*
X184824440Y-87165374D01*
X184832715Y-87181613D01*
X184953028Y-87347213D01*
X185097786Y-87491971D01*
X185250306Y-87602781D01*
X185263390Y-87612287D01*
X185379607Y-87671503D01*
X185445776Y-87705218D01*
X185445778Y-87705218D01*
X185445781Y-87705220D01*
X185524450Y-87730781D01*
X185640465Y-87768477D01*
X185717966Y-87780751D01*
X185788513Y-87791925D01*
X185851648Y-87821854D01*
X185856797Y-87826717D01*
X186538181Y-88508101D01*
X186571666Y-88569424D01*
X186574500Y-88595782D01*
X186574500Y-91524237D01*
X186554815Y-91591276D01*
X186550818Y-91597122D01*
X186462715Y-91718386D01*
X186369781Y-91900776D01*
X186306522Y-92095465D01*
X186274500Y-92297648D01*
X186274500Y-92502351D01*
X186306522Y-92704534D01*
X186369781Y-92899223D01*
X186423916Y-93005467D01*
X186457995Y-93072351D01*
X186462715Y-93081613D01*
X186583028Y-93247213D01*
X186727786Y-93391971D01*
X186882749Y-93504556D01*
X186893390Y-93512287D01*
X187009607Y-93571503D01*
X187075776Y-93605218D01*
X187075778Y-93605218D01*
X187075781Y-93605220D01*
X187159282Y-93632351D01*
X187270465Y-93668477D01*
X187360524Y-93682741D01*
X187472648Y-93700500D01*
X187472649Y-93700500D01*
X187677351Y-93700500D01*
X187677352Y-93700500D01*
X187879534Y-93668477D01*
X188074219Y-93605220D01*
X188256610Y-93512287D01*
X188373107Y-93427648D01*
X188422213Y-93391971D01*
X188422215Y-93391968D01*
X188422219Y-93391966D01*
X188566966Y-93247219D01*
X188566968Y-93247215D01*
X188566971Y-93247213D01*
X188633526Y-93155606D01*
X188687287Y-93081610D01*
X188780220Y-92899219D01*
X188843477Y-92704534D01*
X188875500Y-92502352D01*
X188875500Y-92297648D01*
X188854826Y-92167122D01*
X188843477Y-92095465D01*
X188796879Y-91952052D01*
X188780220Y-91900781D01*
X188780218Y-91900778D01*
X188780218Y-91900776D01*
X188728869Y-91800000D01*
X188687287Y-91718390D01*
X188621457Y-91627782D01*
X188599182Y-91597122D01*
X188575702Y-91531316D01*
X188575500Y-91524237D01*
X188575500Y-88031456D01*
X188537052Y-87838169D01*
X188537051Y-87838168D01*
X188537051Y-87838165D01*
X188526303Y-87812218D01*
X188514961Y-87784834D01*
X188497095Y-87741700D01*
X188461633Y-87656088D01*
X188461628Y-87656079D01*
X188352139Y-87492218D01*
X188352136Y-87492214D01*
X188209686Y-87349764D01*
X188209655Y-87349735D01*
X187271717Y-86411797D01*
X187238232Y-86350474D01*
X187236925Y-86343513D01*
X187226471Y-86277511D01*
X187213477Y-86195466D01*
X187207324Y-86176530D01*
X187159019Y-86027861D01*
X187150220Y-86000781D01*
X187150218Y-86000778D01*
X187150218Y-86000776D01*
X187116503Y-85934607D01*
X187057287Y-85818390D01*
X187044654Y-85801003D01*
X186969182Y-85697122D01*
X186945702Y-85631316D01*
X186945500Y-85624237D01*
X186945500Y-83806569D01*
X186918147Y-83669062D01*
X186916875Y-83662666D01*
X186907051Y-83613277D01*
X186884222Y-83558164D01*
X186831632Y-83431199D01*
X186817088Y-83409432D01*
X186722140Y-83267332D01*
X186675636Y-83220828D01*
X186582782Y-83127974D01*
X186582781Y-83127973D01*
X185544421Y-82089613D01*
X184531818Y-81077010D01*
X184498333Y-81015687D01*
X184495499Y-80989329D01*
X184495499Y-80307242D01*
X184495498Y-80307236D01*
X184495497Y-80307229D01*
X184489091Y-80247630D01*
X184486980Y-80241971D01*
X184438797Y-80112784D01*
X184438793Y-80112777D01*
X184352547Y-79997568D01*
X184352546Y-79997567D01*
X184344018Y-79991183D01*
X184302149Y-79935250D01*
X184297165Y-79865559D01*
X184307847Y-79835623D01*
X184400220Y-79654332D01*
X184463477Y-79459647D01*
X184495500Y-79257465D01*
X184495500Y-79052761D01*
X184492335Y-79032781D01*
X184463477Y-78850578D01*
X184424136Y-78729500D01*
X184400220Y-78655894D01*
X184400218Y-78655891D01*
X184400218Y-78655889D01*
X184333414Y-78524781D01*
X184307287Y-78473503D01*
X184254991Y-78401523D01*
X184186971Y-78307899D01*
X184042213Y-78163141D01*
X183876613Y-78042828D01*
X183876612Y-78042827D01*
X183876610Y-78042826D01*
X183819653Y-78013804D01*
X183694223Y-77949894D01*
X183499534Y-77886635D01*
X183324995Y-77858991D01*
X183297352Y-77854613D01*
X183092648Y-77854613D01*
X183068329Y-77858464D01*
X182890465Y-77886635D01*
X182695776Y-77949894D01*
X182513386Y-78042828D01*
X182347786Y-78163141D01*
X182203028Y-78307899D01*
X182082715Y-78473499D01*
X181989781Y-78655889D01*
X181926522Y-78850578D01*
X181894500Y-79052761D01*
X175995500Y-79052761D01*
X175995500Y-77514042D01*
X176015185Y-77447003D01*
X176031819Y-77426361D01*
X176040359Y-77417821D01*
X176167157Y-77243299D01*
X176265092Y-77051089D01*
X176331754Y-76845926D01*
X176346752Y-76751230D01*
X176365500Y-76632866D01*
X176365500Y-75967133D01*
X176331754Y-75754077D01*
X176331754Y-75754074D01*
X176265092Y-75548911D01*
X176167157Y-75356701D01*
X176040359Y-75182179D01*
X175887821Y-75029641D01*
X175713299Y-74902843D01*
X175521089Y-74804908D01*
X175315926Y-74738246D01*
X175315924Y-74738245D01*
X175315922Y-74738245D01*
X175102866Y-74704500D01*
X175102861Y-74704500D01*
X174887139Y-74704500D01*
X174887134Y-74704500D01*
X174674077Y-74738245D01*
X174468908Y-74804909D01*
X174276700Y-74902843D01*
X174102180Y-75029640D01*
X173959816Y-75172004D01*
X173898493Y-75205488D01*
X173828801Y-75200504D01*
X173772868Y-75158632D01*
X173759748Y-75136716D01*
X173759356Y-75135876D01*
X173667315Y-74986654D01*
X173543345Y-74862684D01*
X173394124Y-74770643D01*
X173394119Y-74770641D01*
X173227697Y-74715494D01*
X173227690Y-74715493D01*
X173124986Y-74705000D01*
X172705000Y-74705000D01*
X172705000Y-75757290D01*
X172684661Y-75745548D01*
X172533333Y-75705000D01*
X172376667Y-75705000D01*
X172225339Y-75745548D01*
X172205000Y-75757290D01*
X172205000Y-74705000D01*
X171785028Y-74705000D01*
X171785012Y-74705001D01*
X171682302Y-74715494D01*
X171515880Y-74770641D01*
X171515875Y-74770643D01*
X171366654Y-74862684D01*
X171242684Y-74986654D01*
X171150643Y-75135875D01*
X171150641Y-75135880D01*
X171095494Y-75302302D01*
X171095493Y-75302309D01*
X171085000Y-75405013D01*
X166659172Y-75405013D01*
X166766966Y-75297219D01*
X166766968Y-75297215D01*
X166766971Y-75297213D01*
X166837233Y-75200504D01*
X166887287Y-75131610D01*
X166980220Y-74949219D01*
X167043477Y-74754534D01*
X167075500Y-74552352D01*
X167075500Y-74347648D01*
X167043477Y-74145466D01*
X167043476Y-74145462D01*
X167043476Y-74145461D01*
X166984181Y-73962971D01*
X166983206Y-73959972D01*
X166980220Y-73950781D01*
X166968975Y-73928711D01*
X183874500Y-73928711D01*
X183874500Y-74171288D01*
X183906161Y-74411785D01*
X183968947Y-74646104D01*
X184061773Y-74870205D01*
X184061777Y-74870214D01*
X184083974Y-74908661D01*
X184183064Y-75080289D01*
X184183066Y-75080292D01*
X184183067Y-75080293D01*
X184330733Y-75272736D01*
X184330739Y-75272743D01*
X184502256Y-75444260D01*
X184502263Y-75444266D01*
X184598977Y-75518477D01*
X184694711Y-75591936D01*
X184904788Y-75713224D01*
X185128900Y-75806054D01*
X185363211Y-75868838D01*
X185535926Y-75891576D01*
X185603711Y-75900500D01*
X185603712Y-75900500D01*
X185846289Y-75900500D01*
X185894388Y-75894167D01*
X186086789Y-75868838D01*
X186321100Y-75806054D01*
X186545212Y-75713224D01*
X186755289Y-75591936D01*
X186947738Y-75444265D01*
X187119265Y-75272738D01*
X187266936Y-75080289D01*
X187388224Y-74870212D01*
X187481054Y-74646100D01*
X187543838Y-74411789D01*
X187575500Y-74171288D01*
X187575500Y-73928712D01*
X187543838Y-73688211D01*
X187481054Y-73453900D01*
X187388224Y-73229788D01*
X187266936Y-73019711D01*
X187161173Y-72881878D01*
X187119266Y-72827263D01*
X187119260Y-72827256D01*
X186947743Y-72655739D01*
X186947736Y-72655733D01*
X186755293Y-72508067D01*
X186755292Y-72508066D01*
X186755289Y-72508064D01*
X186545212Y-72386776D01*
X186545205Y-72386773D01*
X186321104Y-72293947D01*
X186086785Y-72231161D01*
X185846289Y-72199500D01*
X185846288Y-72199500D01*
X185603712Y-72199500D01*
X185603711Y-72199500D01*
X185363214Y-72231161D01*
X185128895Y-72293947D01*
X184904794Y-72386773D01*
X184904785Y-72386777D01*
X184694706Y-72508067D01*
X184502263Y-72655733D01*
X184502256Y-72655739D01*
X184330739Y-72827256D01*
X184330733Y-72827263D01*
X184183067Y-73019706D01*
X184061777Y-73229785D01*
X184061773Y-73229794D01*
X183968947Y-73453895D01*
X183906161Y-73688214D01*
X183874500Y-73928711D01*
X166968975Y-73928711D01*
X166887287Y-73768390D01*
X166831639Y-73691796D01*
X166766971Y-73602786D01*
X166622213Y-73458028D01*
X166456613Y-73337715D01*
X166456612Y-73337714D01*
X166456610Y-73337713D01*
X166399653Y-73308691D01*
X166274223Y-73244781D01*
X166079534Y-73181522D01*
X165904995Y-73153878D01*
X165877352Y-73149500D01*
X165672648Y-73149500D01*
X165648329Y-73153351D01*
X165470465Y-73181522D01*
X165275776Y-73244781D01*
X165093386Y-73337715D01*
X164927786Y-73458028D01*
X164783028Y-73602786D01*
X164662715Y-73768386D01*
X164569781Y-73950778D01*
X164506522Y-74145468D01*
X164483073Y-74293515D01*
X164453143Y-74356649D01*
X164448281Y-74361797D01*
X163546899Y-75263181D01*
X163485576Y-75296666D01*
X163459218Y-75299500D01*
X161988779Y-75299500D01*
X161921740Y-75279815D01*
X161888461Y-75248386D01*
X161840359Y-75182179D01*
X161687821Y-75029641D01*
X161513299Y-74902843D01*
X161321089Y-74804908D01*
X161115926Y-74738246D01*
X161115924Y-74738245D01*
X161115922Y-74738245D01*
X160902866Y-74704500D01*
X160902861Y-74704500D01*
X160687139Y-74704500D01*
X160687134Y-74704500D01*
X160474077Y-74738245D01*
X160268908Y-74804909D01*
X160076700Y-74902843D01*
X159987762Y-74967461D01*
X159902179Y-75029641D01*
X159902177Y-75029643D01*
X159902176Y-75029643D01*
X159749643Y-75182176D01*
X159749643Y-75182177D01*
X159749641Y-75182179D01*
X159688381Y-75266496D01*
X159625318Y-75353294D01*
X159569988Y-75395959D01*
X159500374Y-75401938D01*
X159438579Y-75369332D01*
X159424682Y-75353294D01*
X159387639Y-75302309D01*
X159300359Y-75182179D01*
X159147821Y-75029641D01*
X158973299Y-74902843D01*
X158781089Y-74804908D01*
X158575926Y-74738246D01*
X158575924Y-74738245D01*
X158575922Y-74738245D01*
X158362866Y-74704500D01*
X158362861Y-74704500D01*
X158147139Y-74704500D01*
X158147134Y-74704500D01*
X157934077Y-74738245D01*
X157728908Y-74804909D01*
X157536700Y-74902843D01*
X157362180Y-75029640D01*
X157219816Y-75172004D01*
X157158493Y-75205488D01*
X157088801Y-75200504D01*
X157032868Y-75158632D01*
X157019748Y-75136716D01*
X157019356Y-75135876D01*
X156927315Y-74986654D01*
X156803345Y-74862684D01*
X156654124Y-74770643D01*
X156654119Y-74770641D01*
X156487697Y-74715494D01*
X156487690Y-74715493D01*
X156384986Y-74705000D01*
X155965000Y-74705000D01*
X155965000Y-75757290D01*
X155944661Y-75745548D01*
X155793333Y-75705000D01*
X155636667Y-75705000D01*
X155485339Y-75745548D01*
X155465000Y-75757290D01*
X155465000Y-74705000D01*
X155045028Y-74705000D01*
X155045012Y-74705001D01*
X154942302Y-74715494D01*
X154775880Y-74770641D01*
X154775875Y-74770643D01*
X154626654Y-74862684D01*
X154502684Y-74986654D01*
X154410643Y-75135875D01*
X154410641Y-75135880D01*
X154355494Y-75302302D01*
X154355493Y-75302309D01*
X154345000Y-75405013D01*
X154345000Y-76050000D01*
X155172291Y-76050000D01*
X155160548Y-76070339D01*
X155120000Y-76221667D01*
X155120000Y-76378333D01*
X155160548Y-76529661D01*
X155172291Y-76550000D01*
X154345001Y-76550000D01*
X154345001Y-77194986D01*
X154355494Y-77297697D01*
X154410641Y-77464119D01*
X154410643Y-77464124D01*
X154502684Y-77613345D01*
X154626654Y-77737315D01*
X154775875Y-77829356D01*
X154775880Y-77829358D01*
X154942302Y-77884505D01*
X154942309Y-77884506D01*
X155045019Y-77894999D01*
X155464999Y-77894999D01*
X155465000Y-77894998D01*
X155465000Y-76842709D01*
X155485339Y-76854452D01*
X155636667Y-76895000D01*
X155793333Y-76895000D01*
X155944661Y-76854452D01*
X155965000Y-76842709D01*
X155965000Y-77894999D01*
X156384972Y-77894999D01*
X156384986Y-77894998D01*
X156487697Y-77884505D01*
X156654119Y-77829358D01*
X156654124Y-77829356D01*
X156803345Y-77737315D01*
X156927315Y-77613345D01*
X157023149Y-77457975D01*
X157024915Y-77459064D01*
X157064278Y-77414349D01*
X157131470Y-77395189D01*
X157198353Y-77415397D01*
X157243694Y-77468557D01*
X157254500Y-77519185D01*
X157254500Y-82022574D01*
X157234815Y-82089613D01*
X157182011Y-82135368D01*
X157112853Y-82145312D01*
X157092185Y-82140506D01*
X157064535Y-82131523D01*
X156963443Y-82115511D01*
X156862352Y-82099500D01*
X156657648Y-82099500D01*
X156643310Y-82101771D01*
X156455465Y-82131522D01*
X156260776Y-82194781D01*
X156078386Y-82287715D01*
X155912786Y-82408028D01*
X155768028Y-82552786D01*
X155647715Y-82718386D01*
X155554781Y-82900776D01*
X155491522Y-83095465D01*
X155463589Y-83271832D01*
X155459500Y-83297648D01*
X155459500Y-83502352D01*
X155466329Y-83545465D01*
X155491523Y-83704537D01*
X155513903Y-83773416D01*
X155517590Y-83835919D01*
X155514500Y-83851454D01*
X155514500Y-84048544D01*
X155552947Y-84241828D01*
X155552949Y-84241836D01*
X155628367Y-84423910D01*
X155628371Y-84423918D01*
X155628831Y-84424606D01*
X155628961Y-84425021D01*
X155631242Y-84429289D01*
X155630432Y-84429721D01*
X155649711Y-84491282D01*
X155631229Y-84558663D01*
X155579251Y-84605355D01*
X155525731Y-84617500D01*
X154688432Y-84617500D01*
X154621393Y-84597815D01*
X154575638Y-84545011D01*
X154565694Y-84475853D01*
X154594719Y-84412297D01*
X154615544Y-84393184D01*
X154617213Y-84391971D01*
X154617215Y-84391968D01*
X154617219Y-84391966D01*
X154761966Y-84247219D01*
X154761968Y-84247215D01*
X154761971Y-84247213D01*
X154829305Y-84154534D01*
X154882287Y-84081610D01*
X154975220Y-83899219D01*
X155038477Y-83704534D01*
X155070500Y-83502352D01*
X155070500Y-83297648D01*
X155038477Y-83095466D01*
X155037606Y-83092786D01*
X154975218Y-82900776D01*
X154924645Y-82801522D01*
X154882287Y-82718390D01*
X154852869Y-82677899D01*
X154761971Y-82552786D01*
X154617213Y-82408028D01*
X154451613Y-82287715D01*
X154451612Y-82287714D01*
X154451610Y-82287713D01*
X154394653Y-82258691D01*
X154269223Y-82194781D01*
X154074534Y-82131522D01*
X153886690Y-82101771D01*
X153872352Y-82099500D01*
X153667648Y-82099500D01*
X153653310Y-82101771D01*
X153465465Y-82131522D01*
X153270776Y-82194781D01*
X153088386Y-82287715D01*
X152922786Y-82408028D01*
X152778028Y-82552786D01*
X152657715Y-82718386D01*
X152610485Y-82811080D01*
X152562510Y-82861876D01*
X152494689Y-82878671D01*
X152428554Y-82856134D01*
X152389515Y-82811080D01*
X152384645Y-82801522D01*
X152342287Y-82718390D01*
X152312869Y-82677899D01*
X152221971Y-82552786D01*
X152077213Y-82408028D01*
X151911613Y-82287715D01*
X151911612Y-82287714D01*
X151911610Y-82287713D01*
X151854653Y-82258691D01*
X151729223Y-82194781D01*
X151534534Y-82131522D01*
X151346690Y-82101771D01*
X151332352Y-82099500D01*
X151127648Y-82099500D01*
X151113310Y-82101771D01*
X150925465Y-82131522D01*
X150730776Y-82194781D01*
X150548386Y-82287715D01*
X150427123Y-82375818D01*
X150361317Y-82399298D01*
X150354238Y-82399500D01*
X148185782Y-82399500D01*
X148118743Y-82379815D01*
X148098101Y-82363181D01*
X144882568Y-79147648D01*
X148974500Y-79147648D01*
X148974500Y-79352351D01*
X149006522Y-79554534D01*
X149069781Y-79749223D01*
X149129058Y-79865559D01*
X149148794Y-79904293D01*
X149162715Y-79931613D01*
X149283028Y-80097213D01*
X149427786Y-80241971D01*
X149578694Y-80351610D01*
X149593390Y-80362287D01*
X149709607Y-80421503D01*
X149775776Y-80455218D01*
X149775778Y-80455218D01*
X149775781Y-80455220D01*
X149880137Y-80489127D01*
X149970465Y-80518477D01*
X150071557Y-80534488D01*
X150172648Y-80550500D01*
X150172649Y-80550500D01*
X150377351Y-80550500D01*
X150377352Y-80550500D01*
X150579534Y-80518477D01*
X150774219Y-80455220D01*
X150956610Y-80362287D01*
X151049590Y-80294732D01*
X151122213Y-80241971D01*
X151122215Y-80241968D01*
X151122219Y-80241966D01*
X151266966Y-80097219D01*
X151266968Y-80097215D01*
X151266971Y-80097213D01*
X151319732Y-80024590D01*
X151387287Y-79931610D01*
X151480220Y-79749219D01*
X151543477Y-79554534D01*
X151575500Y-79352352D01*
X151575500Y-79147648D01*
X151543477Y-78945466D01*
X151480220Y-78750781D01*
X151480218Y-78750778D01*
X151480218Y-78750776D01*
X151443150Y-78678028D01*
X151387287Y-78568390D01*
X151379530Y-78557713D01*
X151266971Y-78402786D01*
X151122213Y-78258028D01*
X150956613Y-78137715D01*
X150956612Y-78137714D01*
X150956610Y-78137713D01*
X150877431Y-78097369D01*
X150774223Y-78044781D01*
X150579534Y-77981522D01*
X150404995Y-77953878D01*
X150377352Y-77949500D01*
X150172648Y-77949500D01*
X150148329Y-77953351D01*
X149970465Y-77981522D01*
X149775776Y-78044781D01*
X149593386Y-78137715D01*
X149427786Y-78258028D01*
X149283028Y-78402786D01*
X149162715Y-78568386D01*
X149069781Y-78750776D01*
X149006522Y-78945465D01*
X148974500Y-79147648D01*
X144882568Y-79147648D01*
X143751819Y-78016899D01*
X143718334Y-77955576D01*
X143715500Y-77929218D01*
X143715500Y-77514042D01*
X143735185Y-77447003D01*
X143740217Y-77439753D01*
X143745537Y-77432642D01*
X143760359Y-77417821D01*
X143885190Y-77246005D01*
X143885717Y-77245302D01*
X143913003Y-77224866D01*
X143940012Y-77204040D01*
X143940915Y-77203962D01*
X143941642Y-77203418D01*
X143975691Y-77200975D01*
X144009626Y-77198061D01*
X144010427Y-77198483D01*
X144011332Y-77198419D01*
X144041281Y-77214763D01*
X144071420Y-77230667D01*
X144072317Y-77231702D01*
X144072663Y-77231891D01*
X144072974Y-77232460D01*
X144085315Y-77246702D01*
X144209641Y-77417821D01*
X144362179Y-77570359D01*
X144536701Y-77697157D01*
X144728911Y-77795092D01*
X144934074Y-77861754D01*
X145013973Y-77874408D01*
X145147134Y-77895500D01*
X145147139Y-77895500D01*
X145362866Y-77895500D01*
X145481230Y-77876752D01*
X145575926Y-77861754D01*
X145781089Y-77795092D01*
X145973299Y-77697157D01*
X146147821Y-77570359D01*
X146300359Y-77417821D01*
X146348461Y-77351613D01*
X146403791Y-77308949D01*
X146448779Y-77300500D01*
X148323543Y-77300500D01*
X148361745Y-77292900D01*
X148449223Y-77275500D01*
X148516836Y-77262051D01*
X148577420Y-77236956D01*
X148698914Y-77186632D01*
X148862782Y-77077139D01*
X149002139Y-76937782D01*
X149002140Y-76937780D01*
X149009206Y-76930714D01*
X149009209Y-76930710D01*
X150363203Y-75576715D01*
X150424524Y-75543232D01*
X150431473Y-75541927D01*
X150579534Y-75518477D01*
X150774219Y-75455220D01*
X150956610Y-75362287D01*
X151040215Y-75301545D01*
X151040217Y-75301544D01*
X151122212Y-75241971D01*
X151122210Y-75241971D01*
X151122219Y-75241966D01*
X151266966Y-75097219D01*
X151266968Y-75097215D01*
X151266971Y-75097213D01*
X151319732Y-75024590D01*
X151387287Y-74931610D01*
X151480220Y-74749219D01*
X151543477Y-74554534D01*
X151575500Y-74352352D01*
X151575500Y-74147648D01*
X151544319Y-73950781D01*
X151543477Y-73945465D01*
X151514127Y-73855137D01*
X151480220Y-73750781D01*
X151480218Y-73750778D01*
X151480218Y-73750776D01*
X151415374Y-73623514D01*
X151387287Y-73568390D01*
X151367713Y-73541448D01*
X151266971Y-73402786D01*
X151122213Y-73258028D01*
X150956613Y-73137715D01*
X150956612Y-73137714D01*
X150956610Y-73137713D01*
X150879499Y-73098423D01*
X150774223Y-73044781D01*
X150579534Y-72981522D01*
X150404995Y-72953878D01*
X150377352Y-72949500D01*
X150172648Y-72949500D01*
X150148329Y-72953351D01*
X149970465Y-72981522D01*
X149775776Y-73044781D01*
X149593386Y-73137715D01*
X149427786Y-73258028D01*
X149283028Y-73402786D01*
X149162715Y-73568386D01*
X149069781Y-73750778D01*
X149006522Y-73945468D01*
X148983073Y-74093515D01*
X148953143Y-74156649D01*
X148948281Y-74161797D01*
X147846899Y-75263181D01*
X147785576Y-75296666D01*
X147759218Y-75299500D01*
X146448779Y-75299500D01*
X146381740Y-75279815D01*
X146348461Y-75248386D01*
X146300359Y-75182179D01*
X146147821Y-75029641D01*
X145973299Y-74902843D01*
X145781089Y-74804908D01*
X145575926Y-74738246D01*
X145575924Y-74738245D01*
X145575922Y-74738245D01*
X145362866Y-74704500D01*
X145362861Y-74704500D01*
X145147139Y-74704500D01*
X145147134Y-74704500D01*
X144934077Y-74738245D01*
X144728908Y-74804909D01*
X144536700Y-74902843D01*
X144447762Y-74967461D01*
X144362179Y-75029641D01*
X144362177Y-75029643D01*
X144362176Y-75029643D01*
X144209643Y-75182176D01*
X144209643Y-75182177D01*
X144209641Y-75182179D01*
X144148381Y-75266496D01*
X144085318Y-75353294D01*
X144029988Y-75395959D01*
X143960374Y-75401938D01*
X143898579Y-75369332D01*
X143884682Y-75353294D01*
X143847639Y-75302309D01*
X143760359Y-75182179D01*
X143607821Y-75029641D01*
X143433299Y-74902843D01*
X143241089Y-74804908D01*
X143035926Y-74738246D01*
X143035924Y-74738245D01*
X143035922Y-74738245D01*
X142822866Y-74704500D01*
X142822861Y-74704500D01*
X142607139Y-74704500D01*
X142607134Y-74704500D01*
X142394077Y-74738245D01*
X142188908Y-74804909D01*
X141996700Y-74902843D01*
X141822180Y-75029640D01*
X141679816Y-75172004D01*
X141618493Y-75205488D01*
X141548801Y-75200504D01*
X141492868Y-75158632D01*
X141479748Y-75136716D01*
X141479356Y-75135876D01*
X141387315Y-74986654D01*
X141263345Y-74862684D01*
X141114124Y-74770643D01*
X141114119Y-74770641D01*
X140947697Y-74715494D01*
X140947690Y-74715493D01*
X140844986Y-74705000D01*
X140425000Y-74705000D01*
X140425000Y-75757290D01*
X140404661Y-75745548D01*
X140253333Y-75705000D01*
X140096667Y-75705000D01*
X139945339Y-75745548D01*
X139925000Y-75757290D01*
X139925000Y-74705000D01*
X139505028Y-74705000D01*
X139505012Y-74705001D01*
X139402302Y-74715494D01*
X139235880Y-74770641D01*
X139235875Y-74770643D01*
X139086654Y-74862684D01*
X138962684Y-74986654D01*
X138870643Y-75135875D01*
X138870641Y-75135880D01*
X138815494Y-75302302D01*
X138815493Y-75302309D01*
X138805000Y-75405013D01*
X138805000Y-76050000D01*
X139632291Y-76050000D01*
X139620548Y-76070339D01*
X139580000Y-76221667D01*
X139580000Y-76378333D01*
X139620548Y-76529661D01*
X139632291Y-76550000D01*
X138805001Y-76550000D01*
X138805001Y-77194986D01*
X138815494Y-77297697D01*
X138870641Y-77464119D01*
X138870643Y-77464124D01*
X138962684Y-77613345D01*
X139086654Y-77737315D01*
X139235875Y-77829356D01*
X139235880Y-77829358D01*
X139402302Y-77884505D01*
X139402309Y-77884506D01*
X139505019Y-77894999D01*
X139924999Y-77894999D01*
X139925000Y-77894998D01*
X139925000Y-76842709D01*
X139945339Y-76854452D01*
X140096667Y-76895000D01*
X140253333Y-76895000D01*
X140404661Y-76854452D01*
X140425000Y-76842709D01*
X140425000Y-77894999D01*
X140844972Y-77894999D01*
X140844986Y-77894998D01*
X140947697Y-77884505D01*
X141114119Y-77829358D01*
X141114124Y-77829356D01*
X141263345Y-77737315D01*
X141387315Y-77613345D01*
X141483149Y-77457975D01*
X141484915Y-77459064D01*
X141524278Y-77414349D01*
X141591470Y-77395189D01*
X141658353Y-77415397D01*
X141703694Y-77468557D01*
X141714500Y-77519185D01*
X141714500Y-78493544D01*
X141752946Y-78686828D01*
X141752948Y-78686832D01*
X141752949Y-78686836D01*
X141760812Y-78705818D01*
X141770234Y-78728566D01*
X141828366Y-78868911D01*
X141828371Y-78868920D01*
X141937860Y-79032781D01*
X141937863Y-79032785D01*
X142081537Y-79176459D01*
X142081559Y-79176479D01*
X146939735Y-84034655D01*
X146939764Y-84034686D01*
X147082217Y-84177139D01*
X147187091Y-84247213D01*
X147246086Y-84286632D01*
X147246088Y-84286633D01*
X147246092Y-84286635D01*
X147316669Y-84315868D01*
X147357223Y-84332666D01*
X147428164Y-84362051D01*
X147513508Y-84379027D01*
X147519154Y-84380150D01*
X147621456Y-84400500D01*
X147621459Y-84400500D01*
X147621460Y-84400500D01*
X147818540Y-84400500D01*
X150323401Y-84400500D01*
X150340928Y-84405646D01*
X150359197Y-84405779D01*
X150373758Y-84415286D01*
X150390440Y-84420185D01*
X150402400Y-84433988D01*
X150417700Y-84443978D01*
X150424809Y-84459849D01*
X150436195Y-84472989D01*
X150438794Y-84491070D01*
X150446263Y-84507742D01*
X150443663Y-84524933D01*
X150446139Y-84542147D01*
X150438549Y-84558765D01*
X150435819Y-84576827D01*
X150424338Y-84589884D01*
X150417114Y-84605703D01*
X150401744Y-84615580D01*
X150389683Y-84629298D01*
X150365137Y-84639106D01*
X150358336Y-84643477D01*
X150357473Y-84643727D01*
X150352581Y-84645124D01*
X150298165Y-84655949D01*
X150267920Y-84668477D01*
X150261369Y-84671190D01*
X150261360Y-84671193D01*
X150116093Y-84731364D01*
X150116080Y-84731371D01*
X149952220Y-84840859D01*
X149913556Y-84879524D01*
X149812862Y-84980218D01*
X149812859Y-84980221D01*
X147467655Y-87325424D01*
X147406332Y-87358909D01*
X147336640Y-87353925D01*
X147310869Y-87340089D01*
X147310766Y-87340259D01*
X147307801Y-87338442D01*
X147307083Y-87338056D01*
X147306610Y-87337713D01*
X147213917Y-87290483D01*
X147163123Y-87242511D01*
X147146328Y-87174690D01*
X147168865Y-87108555D01*
X147213917Y-87069516D01*
X147306610Y-87022287D01*
X147346934Y-86992990D01*
X147472213Y-86901971D01*
X147472215Y-86901968D01*
X147472219Y-86901966D01*
X147616966Y-86757219D01*
X147616968Y-86757215D01*
X147616971Y-86757213D01*
X147690881Y-86655483D01*
X147737287Y-86591610D01*
X147830220Y-86409219D01*
X147893477Y-86214534D01*
X147925500Y-86012352D01*
X147925500Y-85807648D01*
X147903706Y-85670047D01*
X147893477Y-85605465D01*
X147861817Y-85508028D01*
X147830220Y-85410781D01*
X147830218Y-85410778D01*
X147830218Y-85410776D01*
X147778865Y-85309991D01*
X147737287Y-85228390D01*
X147721892Y-85207200D01*
X147616971Y-85062786D01*
X147472213Y-84918028D01*
X147306613Y-84797715D01*
X147306612Y-84797714D01*
X147306610Y-84797713D01*
X147216128Y-84751610D01*
X147124223Y-84704781D01*
X146929534Y-84641522D01*
X146754995Y-84613878D01*
X146727352Y-84609500D01*
X146522648Y-84609500D01*
X146498329Y-84613351D01*
X146320465Y-84641522D01*
X146125776Y-84704781D01*
X145943386Y-84797715D01*
X145777786Y-84918028D01*
X145633028Y-85062786D01*
X145512715Y-85228386D01*
X145419781Y-85410776D01*
X145356522Y-85605465D01*
X145324500Y-85807648D01*
X145324500Y-86012351D01*
X145356522Y-86214534D01*
X145419781Y-86409223D01*
X145483691Y-86534653D01*
X145504061Y-86574630D01*
X145512715Y-86591613D01*
X145633028Y-86757213D01*
X145777786Y-86901971D01*
X145910493Y-86998386D01*
X145943390Y-87022287D01*
X146007968Y-87055191D01*
X146036080Y-87069515D01*
X146086876Y-87117490D01*
X146103671Y-87185311D01*
X146081134Y-87251446D01*
X146036080Y-87290485D01*
X145943386Y-87337715D01*
X145777786Y-87458028D01*
X145633028Y-87602786D01*
X145512715Y-87768386D01*
X145419781Y-87950776D01*
X145356522Y-88145465D01*
X145334959Y-88281613D01*
X145324500Y-88347648D01*
X145324500Y-88552352D01*
X145325953Y-88561523D01*
X145356522Y-88754534D01*
X145419781Y-88949223D01*
X145512713Y-89131610D01*
X145600819Y-89252877D01*
X145624298Y-89318681D01*
X145624500Y-89325761D01*
X145624500Y-90114237D01*
X145604815Y-90181276D01*
X145600818Y-90187122D01*
X145512715Y-90308386D01*
X145419781Y-90490776D01*
X145356522Y-90685465D01*
X145324500Y-90887648D01*
X145324500Y-91092351D01*
X145356522Y-91294534D01*
X145419781Y-91489223D01*
X145458151Y-91564527D01*
X145490381Y-91627782D01*
X145512715Y-91671613D01*
X145633028Y-91837213D01*
X145777786Y-91981971D01*
X145921208Y-92086171D01*
X145943390Y-92102287D01*
X146034840Y-92148883D01*
X146036080Y-92149515D01*
X146086876Y-92197490D01*
X146103671Y-92265311D01*
X146081134Y-92331446D01*
X146036080Y-92370485D01*
X145943386Y-92417715D01*
X145777786Y-92538028D01*
X145633028Y-92682786D01*
X145512715Y-92848386D01*
X145419781Y-93030778D01*
X145356522Y-93225468D01*
X145333073Y-93373515D01*
X145303143Y-93436649D01*
X145298281Y-93441797D01*
X144426899Y-94313181D01*
X144365576Y-94346666D01*
X144339218Y-94349500D01*
X140249378Y-94349500D01*
X140182339Y-94329815D01*
X140136584Y-94277011D01*
X140126640Y-94207853D01*
X140138893Y-94169205D01*
X140141345Y-94164394D01*
X140210220Y-94029219D01*
X140273477Y-93834534D01*
X140305500Y-93632352D01*
X140305500Y-93427648D01*
X140278525Y-93257339D01*
X140273477Y-93225465D01*
X140223727Y-93072351D01*
X140210220Y-93030781D01*
X140210218Y-93030778D01*
X140210218Y-93030776D01*
X140159136Y-92930523D01*
X140117287Y-92848390D01*
X140085940Y-92805244D01*
X139996971Y-92682786D01*
X139852213Y-92538028D01*
X139686614Y-92417715D01*
X139680006Y-92414348D01*
X139593917Y-92370483D01*
X139543123Y-92322511D01*
X139526328Y-92254690D01*
X139548865Y-92188555D01*
X139593917Y-92149516D01*
X139686610Y-92102287D01*
X139708792Y-92086171D01*
X139852213Y-91981971D01*
X139852215Y-91981968D01*
X139852219Y-91981966D01*
X139996966Y-91837219D01*
X139996968Y-91837215D01*
X139996971Y-91837213D01*
X140068524Y-91738727D01*
X140117287Y-91671610D01*
X140210220Y-91489219D01*
X140273477Y-91294534D01*
X140305500Y-91092352D01*
X140305500Y-90887648D01*
X140273477Y-90685466D01*
X140270797Y-90677219D01*
X140220975Y-90523882D01*
X140210220Y-90490781D01*
X140210218Y-90490778D01*
X140210218Y-90490776D01*
X140163914Y-90399901D01*
X140117287Y-90308390D01*
X140089959Y-90270776D01*
X139996971Y-90142786D01*
X139852213Y-89998028D01*
X139686614Y-89877715D01*
X139680006Y-89874348D01*
X139593917Y-89830483D01*
X139543123Y-89782511D01*
X139526328Y-89714690D01*
X139548865Y-89648555D01*
X139593917Y-89609516D01*
X139686610Y-89562287D01*
X139728673Y-89531727D01*
X139852213Y-89441971D01*
X139852215Y-89441968D01*
X139852219Y-89441966D01*
X139996966Y-89297219D01*
X139996968Y-89297215D01*
X139996971Y-89297213D01*
X140051640Y-89221966D01*
X140117287Y-89131610D01*
X140210220Y-88949219D01*
X140273477Y-88754534D01*
X140305500Y-88552352D01*
X140305500Y-88347648D01*
X140288195Y-88238390D01*
X140273477Y-88145465D01*
X140210218Y-87950776D01*
X140144528Y-87821854D01*
X140117287Y-87768390D01*
X140104654Y-87751003D01*
X140029182Y-87647122D01*
X140005702Y-87581316D01*
X140005500Y-87574237D01*
X140005500Y-87122230D01*
X140025185Y-87055191D01*
X140041819Y-87034549D01*
X140083378Y-86992990D01*
X140147712Y-86928656D01*
X140239814Y-86779334D01*
X140294999Y-86612797D01*
X140305500Y-86510009D01*
X140305499Y-85309992D01*
X140294999Y-85207203D01*
X140239814Y-85040666D01*
X140147712Y-84891344D01*
X140023656Y-84767288D01*
X139922314Y-84704780D01*
X139874336Y-84675187D01*
X139874331Y-84675185D01*
X139862284Y-84671193D01*
X139707797Y-84620001D01*
X139707795Y-84620000D01*
X139605010Y-84609500D01*
X138404998Y-84609500D01*
X138404981Y-84609501D01*
X138302203Y-84620000D01*
X138302200Y-84620001D01*
X138135668Y-84675185D01*
X138135663Y-84675187D01*
X137986342Y-84767289D01*
X137862289Y-84891342D01*
X137770187Y-85040663D01*
X137770186Y-85040666D01*
X137715001Y-85207203D01*
X137715001Y-85207204D01*
X137715000Y-85207204D01*
X137704500Y-85309983D01*
X137704500Y-86510001D01*
X137704501Y-86510018D01*
X137715000Y-86612796D01*
X137715001Y-86612799D01*
X137754274Y-86731316D01*
X137770186Y-86779334D01*
X137855953Y-86918386D01*
X137862289Y-86928657D01*
X137968181Y-87034549D01*
X138001666Y-87095872D01*
X138004500Y-87122230D01*
X138004500Y-87574237D01*
X137984815Y-87641276D01*
X137980818Y-87647122D01*
X137892715Y-87768386D01*
X137799781Y-87950776D01*
X137736522Y-88145465D01*
X137714959Y-88281613D01*
X137704500Y-88347648D01*
X137704500Y-88552352D01*
X137705953Y-88561523D01*
X137736522Y-88754534D01*
X137799781Y-88949223D01*
X137837043Y-89022352D01*
X137876579Y-89099946D01*
X137892715Y-89131613D01*
X138013028Y-89297213D01*
X138157786Y-89441971D01*
X138281327Y-89531727D01*
X138323390Y-89562287D01*
X138400566Y-89601610D01*
X138416080Y-89609515D01*
X138466876Y-89657490D01*
X138483671Y-89725311D01*
X138461134Y-89791446D01*
X138416080Y-89830485D01*
X138323386Y-89877715D01*
X138202123Y-89965818D01*
X138136317Y-89989298D01*
X138129238Y-89989500D01*
X137050783Y-89989500D01*
X136983744Y-89969815D01*
X136963102Y-89953181D01*
X136751717Y-89741797D01*
X136718232Y-89680474D01*
X136716925Y-89673513D01*
X136713299Y-89650622D01*
X136693477Y-89525466D01*
X136690077Y-89515003D01*
X136661989Y-89428555D01*
X136630220Y-89330781D01*
X136630218Y-89330778D01*
X136630218Y-89330776D01*
X136592451Y-89256655D01*
X136537287Y-89148390D01*
X136525096Y-89131610D01*
X136416971Y-88982786D01*
X136272213Y-88838028D01*
X136106613Y-88717715D01*
X136106612Y-88717714D01*
X136106610Y-88717713D01*
X136049653Y-88688691D01*
X135924223Y-88624781D01*
X135729534Y-88561522D01*
X135554995Y-88533878D01*
X135527352Y-88529500D01*
X135322648Y-88529500D01*
X135298329Y-88533351D01*
X135120465Y-88561522D01*
X134925776Y-88624781D01*
X134743386Y-88717715D01*
X134577786Y-88838028D01*
X134433028Y-88982786D01*
X134312715Y-89148386D01*
X134219781Y-89330776D01*
X134156522Y-89525465D01*
X134124500Y-89727648D01*
X134124500Y-89932351D01*
X134156522Y-90134534D01*
X134219781Y-90329223D01*
X134278478Y-90444420D01*
X134289201Y-90465466D01*
X134312715Y-90511613D01*
X134433028Y-90677213D01*
X134577786Y-90821971D01*
X134715009Y-90921667D01*
X134743390Y-90942287D01*
X134859607Y-91001503D01*
X134925776Y-91035218D01*
X134925778Y-91035218D01*
X134925781Y-91035220D01*
X135030137Y-91069127D01*
X135120465Y-91098477D01*
X135197966Y-91110751D01*
X135268513Y-91121925D01*
X135331648Y-91151854D01*
X135336795Y-91156716D01*
X135807860Y-91627781D01*
X135807861Y-91627782D01*
X135880178Y-91700099D01*
X135947219Y-91767140D01*
X136111079Y-91876628D01*
X136111092Y-91876635D01*
X136239833Y-91929961D01*
X136261943Y-91939119D01*
X136293164Y-91952051D01*
X136380886Y-91969500D01*
X136407279Y-91974750D01*
X136486456Y-91990500D01*
X136486459Y-91990500D01*
X136486460Y-91990500D01*
X136683540Y-91990500D01*
X138129238Y-91990500D01*
X138196277Y-92010185D01*
X138202119Y-92014179D01*
X138323390Y-92102287D01*
X138414840Y-92148883D01*
X138416080Y-92149515D01*
X138466876Y-92197490D01*
X138483671Y-92265311D01*
X138461134Y-92331446D01*
X138416080Y-92370485D01*
X138323386Y-92417715D01*
X138157786Y-92538028D01*
X138013028Y-92682786D01*
X137892715Y-92848386D01*
X137799781Y-93030776D01*
X137736522Y-93225465D01*
X137704500Y-93427648D01*
X137704500Y-93632351D01*
X137736522Y-93834534D01*
X137799781Y-94029223D01*
X137849202Y-94126216D01*
X137868655Y-94164394D01*
X137871107Y-94169205D01*
X137884003Y-94237874D01*
X137857727Y-94302614D01*
X137800621Y-94342872D01*
X137760622Y-94349500D01*
X136700762Y-94349500D01*
X136633723Y-94329815D01*
X136627877Y-94325818D01*
X136506613Y-94237715D01*
X136506612Y-94237714D01*
X136506610Y-94237713D01*
X136448007Y-94207853D01*
X136324223Y-94144781D01*
X136129534Y-94081522D01*
X135954995Y-94053878D01*
X135927352Y-94049500D01*
X135722648Y-94049500D01*
X135698329Y-94053351D01*
X135520465Y-94081522D01*
X135325776Y-94144781D01*
X135143386Y-94237715D01*
X134977786Y-94358028D01*
X134833028Y-94502786D01*
X134712715Y-94668386D01*
X134619781Y-94850776D01*
X134556522Y-95045465D01*
X134524500Y-95247648D01*
X134524500Y-95452351D01*
X134556522Y-95654534D01*
X134619781Y-95849223D01*
X134672311Y-95952317D01*
X134690381Y-95987782D01*
X134712715Y-96031613D01*
X134833028Y-96197213D01*
X134977786Y-96341971D01*
X135115427Y-96441971D01*
X135143390Y-96462287D01*
X135259607Y-96521503D01*
X135325776Y-96555218D01*
X135325778Y-96555218D01*
X135325781Y-96555220D01*
X135425784Y-96587713D01*
X135520465Y-96618477D01*
X135621557Y-96634488D01*
X135722648Y-96650500D01*
X135722649Y-96650500D01*
X135927351Y-96650500D01*
X135927352Y-96650500D01*
X136129534Y-96618477D01*
X136324219Y-96555220D01*
X136506610Y-96462287D01*
X136627877Y-96374181D01*
X136693683Y-96350702D01*
X136700762Y-96350500D01*
X144903542Y-96350500D01*
X144934566Y-96344328D01*
X145000188Y-96331275D01*
X145096836Y-96312051D01*
X145150165Y-96289961D01*
X145278914Y-96236632D01*
X145442782Y-96127139D01*
X145582139Y-95987782D01*
X145582139Y-95987780D01*
X145592347Y-95977573D01*
X145592349Y-95977570D01*
X146713203Y-94856715D01*
X146774524Y-94823232D01*
X146781473Y-94821927D01*
X146929534Y-94798477D01*
X147124219Y-94735220D01*
X147306610Y-94642287D01*
X147400040Y-94574407D01*
X147472213Y-94521971D01*
X147472215Y-94521968D01*
X147472219Y-94521966D01*
X147616966Y-94377219D01*
X147616968Y-94377215D01*
X147616971Y-94377213D01*
X147705322Y-94255606D01*
X147737287Y-94211610D01*
X147830220Y-94029219D01*
X147893477Y-93834534D01*
X147925500Y-93632352D01*
X147925500Y-93427648D01*
X147898525Y-93257339D01*
X147893477Y-93225465D01*
X147843727Y-93072351D01*
X147830220Y-93030781D01*
X147830218Y-93030778D01*
X147830218Y-93030776D01*
X147779136Y-92930523D01*
X147737287Y-92848390D01*
X147705940Y-92805244D01*
X147616971Y-92682786D01*
X147472213Y-92538028D01*
X147306614Y-92417715D01*
X147300006Y-92414348D01*
X147213917Y-92370483D01*
X147163123Y-92322511D01*
X147146328Y-92254690D01*
X147168865Y-92188555D01*
X147213917Y-92149516D01*
X147306610Y-92102287D01*
X147328792Y-92086171D01*
X147472213Y-91981971D01*
X147472215Y-91981968D01*
X147472219Y-91981966D01*
X147616966Y-91837219D01*
X147616968Y-91837215D01*
X147616971Y-91837213D01*
X147688524Y-91738727D01*
X147737287Y-91671610D01*
X147830220Y-91489219D01*
X147893477Y-91294534D01*
X147925500Y-91092352D01*
X147925500Y-90887648D01*
X147893477Y-90685466D01*
X147890797Y-90677219D01*
X147840975Y-90523882D01*
X147830220Y-90490781D01*
X147830218Y-90490778D01*
X147830218Y-90490776D01*
X147783914Y-90399901D01*
X147737287Y-90308390D01*
X147709959Y-90270776D01*
X147649182Y-90187122D01*
X147625702Y-90121316D01*
X147625500Y-90114237D01*
X147625500Y-89574500D01*
X147626372Y-89571529D01*
X147625644Y-89568519D01*
X147636153Y-89538220D01*
X147645185Y-89507461D01*
X147647524Y-89505433D01*
X147648540Y-89502507D01*
X147673765Y-89482695D01*
X147697989Y-89461706D01*
X147701785Y-89460690D01*
X147703489Y-89459352D01*
X147715217Y-89457095D01*
X147737794Y-89451054D01*
X147743636Y-89450500D01*
X147856541Y-89450500D01*
X147856542Y-89450500D01*
X147953189Y-89431275D01*
X148049837Y-89412051D01*
X148144809Y-89372712D01*
X148231915Y-89336632D01*
X148351609Y-89256654D01*
X148418287Y-89235777D01*
X148485667Y-89254262D01*
X148532357Y-89306240D01*
X148544500Y-89359757D01*
X148544500Y-92094237D01*
X148524815Y-92161276D01*
X148520818Y-92167122D01*
X148432715Y-92288386D01*
X148339781Y-92470776D01*
X148276522Y-92665465D01*
X148244500Y-92867648D01*
X148244500Y-93072351D01*
X148276522Y-93274534D01*
X148339781Y-93469223D01*
X148425401Y-93637259D01*
X148432713Y-93651610D01*
X148520819Y-93772877D01*
X148544298Y-93838681D01*
X148544500Y-93845761D01*
X148544500Y-96824237D01*
X148524815Y-96891276D01*
X148520818Y-96897122D01*
X148432715Y-97018386D01*
X148339781Y-97200776D01*
X148276522Y-97395465D01*
X148244500Y-97597648D01*
X148244500Y-97802351D01*
X148276522Y-98004534D01*
X148339781Y-98199223D01*
X148403691Y-98324653D01*
X148415408Y-98347648D01*
X148432715Y-98381613D01*
X148553028Y-98547213D01*
X148697786Y-98691971D01*
X148822680Y-98782710D01*
X148863390Y-98812287D01*
X148944754Y-98853744D01*
X149045776Y-98905218D01*
X149045778Y-98905218D01*
X149045781Y-98905220D01*
X149150137Y-98939127D01*
X149240465Y-98968477D01*
X149341557Y-98984488D01*
X149442648Y-99000500D01*
X149442649Y-99000500D01*
X149647351Y-99000500D01*
X149647352Y-99000500D01*
X149849534Y-98968477D01*
X150044219Y-98905220D01*
X150226610Y-98812287D01*
X150341520Y-98728801D01*
X150392213Y-98691971D01*
X150392215Y-98691968D01*
X150392219Y-98691966D01*
X150536966Y-98547219D01*
X150536968Y-98547215D01*
X150536971Y-98547213D01*
X150613884Y-98441349D01*
X150657287Y-98381610D01*
X150750220Y-98199219D01*
X150813477Y-98004534D01*
X150845500Y-97802352D01*
X150845500Y-97597648D01*
X150813477Y-97395466D01*
X150810810Y-97387259D01*
X150784127Y-97305137D01*
X150750220Y-97200781D01*
X150750218Y-97200778D01*
X150750218Y-97200776D01*
X150687991Y-97078650D01*
X150657287Y-97018390D01*
X150605258Y-96946777D01*
X150569182Y-96897122D01*
X150545702Y-96831316D01*
X150545500Y-96824237D01*
X150545500Y-93845761D01*
X150565185Y-93778722D01*
X150569165Y-93772899D01*
X150657287Y-93651610D01*
X150750220Y-93469219D01*
X150813477Y-93274534D01*
X150845500Y-93072352D01*
X150845500Y-92867648D01*
X150828935Y-92763063D01*
X150813477Y-92665465D01*
X150760478Y-92502352D01*
X150750220Y-92470781D01*
X150750218Y-92470778D01*
X150750218Y-92470776D01*
X150716503Y-92404607D01*
X150657287Y-92288390D01*
X150602016Y-92212315D01*
X150569182Y-92167122D01*
X150545702Y-92101316D01*
X150545500Y-92094237D01*
X150545500Y-90074478D01*
X150565185Y-90007439D01*
X150596614Y-89974160D01*
X150682219Y-89911966D01*
X150826966Y-89767219D01*
X150826968Y-89767215D01*
X150826971Y-89767213D01*
X150882656Y-89690568D01*
X150947287Y-89601610D01*
X151040220Y-89419219D01*
X151103477Y-89224534D01*
X151126925Y-89076483D01*
X151156854Y-89013350D01*
X151161698Y-89008220D01*
X152014102Y-88155819D01*
X152075425Y-88122334D01*
X152101783Y-88119500D01*
X153580941Y-88119500D01*
X153647980Y-88139185D01*
X153693735Y-88191989D01*
X153703679Y-88261147D01*
X153691426Y-88299792D01*
X153677334Y-88327450D01*
X153629781Y-88420776D01*
X153566522Y-88615465D01*
X153534500Y-88817648D01*
X153534500Y-89022351D01*
X153566522Y-89224534D01*
X153629781Y-89419223D01*
X153687106Y-89531727D01*
X153719978Y-89596243D01*
X153722715Y-89601613D01*
X153843028Y-89767213D01*
X153987786Y-89911971D01*
X154127983Y-90013828D01*
X154153390Y-90032287D01*
X154263490Y-90088386D01*
X154335776Y-90125218D01*
X154335778Y-90125218D01*
X154335781Y-90125220D01*
X154389844Y-90142786D01*
X154530465Y-90188477D01*
X154607966Y-90200751D01*
X154678513Y-90211925D01*
X154741648Y-90241854D01*
X154746797Y-90246717D01*
X158104735Y-93604655D01*
X158104764Y-93604686D01*
X158247214Y-93747136D01*
X158247218Y-93747139D01*
X158411079Y-93856628D01*
X158411092Y-93856635D01*
X158539833Y-93909961D01*
X158582744Y-93927735D01*
X158593164Y-93932051D01*
X158689812Y-93951275D01*
X158786459Y-93970500D01*
X158786460Y-93970500D01*
X158837395Y-93970500D01*
X158845474Y-93971567D01*
X158870269Y-93982548D01*
X158896277Y-93990185D01*
X158902119Y-93994179D01*
X159023390Y-94082287D01*
X159139607Y-94141503D01*
X159205776Y-94175218D01*
X159205778Y-94175218D01*
X159205781Y-94175220D01*
X159306215Y-94207853D01*
X159400465Y-94238477D01*
X159440267Y-94244781D01*
X159602648Y-94270500D01*
X159602649Y-94270500D01*
X159807351Y-94270500D01*
X159807352Y-94270500D01*
X160009534Y-94238477D01*
X160204219Y-94175220D01*
X160386610Y-94082287D01*
X160511413Y-93991613D01*
X160552213Y-93961971D01*
X160552215Y-93961968D01*
X160552219Y-93961966D01*
X160696966Y-93817219D01*
X160696968Y-93817215D01*
X160696971Y-93817213D01*
X160766252Y-93721854D01*
X160817287Y-93651610D01*
X160910220Y-93469219D01*
X160973477Y-93274534D01*
X160987909Y-93183418D01*
X161005500Y-93072351D01*
X161005500Y-92867648D01*
X160973477Y-92665465D01*
X160920478Y-92502352D01*
X160910220Y-92470781D01*
X160910218Y-92470778D01*
X160910218Y-92470776D01*
X160876503Y-92404607D01*
X160817287Y-92288390D01*
X160789740Y-92250474D01*
X160696971Y-92122786D01*
X160552213Y-91978028D01*
X160386613Y-91857715D01*
X160386612Y-91857714D01*
X160386610Y-91857713D01*
X160329653Y-91828691D01*
X160204223Y-91764781D01*
X160009534Y-91701522D01*
X159834995Y-91673878D01*
X159807352Y-91669500D01*
X159602648Y-91669500D01*
X159535254Y-91680174D01*
X159400464Y-91701523D01*
X159400461Y-91701523D01*
X159205774Y-91764781D01*
X159203762Y-91765615D01*
X159202937Y-91765703D01*
X159201148Y-91766285D01*
X159201025Y-91765908D01*
X159134292Y-91773072D01*
X159071818Y-91741787D01*
X159068647Y-91738727D01*
X156161717Y-88831797D01*
X156128232Y-88770474D01*
X156126925Y-88763513D01*
X156121493Y-88729219D01*
X156103477Y-88615466D01*
X156097081Y-88595782D01*
X156040218Y-88420776D01*
X156002957Y-88347648D01*
X155978573Y-88299793D01*
X155965678Y-88231126D01*
X155991954Y-88166386D01*
X156049060Y-88126128D01*
X156089059Y-88119500D01*
X161828218Y-88119500D01*
X161857658Y-88128144D01*
X161887645Y-88134668D01*
X161892660Y-88138422D01*
X161895257Y-88139185D01*
X161915898Y-88155818D01*
X162068182Y-88308102D01*
X162101666Y-88369424D01*
X162104500Y-88395782D01*
X162104500Y-88830001D01*
X162104501Y-88830019D01*
X162115000Y-88932796D01*
X162115001Y-88932799D01*
X162162856Y-89077213D01*
X162170186Y-89099334D01*
X162262288Y-89248656D01*
X162386344Y-89372712D01*
X162535666Y-89464814D01*
X162617570Y-89491954D01*
X162675015Y-89531727D01*
X162701838Y-89596243D01*
X162689523Y-89665018D01*
X162651451Y-89709978D01*
X162557787Y-89778028D01*
X162557782Y-89778032D01*
X162413028Y-89922786D01*
X162292715Y-90088386D01*
X162199781Y-90270776D01*
X162136522Y-90465465D01*
X162104500Y-90667648D01*
X162104500Y-90872351D01*
X162136522Y-91074534D01*
X162199781Y-91269223D01*
X162248755Y-91365338D01*
X162275614Y-91418052D01*
X162292715Y-91451613D01*
X162413028Y-91617213D01*
X162557786Y-91761971D01*
X162723385Y-91882284D01*
X162723387Y-91882285D01*
X162723390Y-91882287D01*
X162816080Y-91929515D01*
X162816630Y-91929795D01*
X162867426Y-91977770D01*
X162884221Y-92045591D01*
X162861684Y-92111725D01*
X162816630Y-92150765D01*
X162723644Y-92198143D01*
X162679077Y-92230523D01*
X162679077Y-92230524D01*
X163358554Y-92910000D01*
X163352339Y-92910000D01*
X163250606Y-92937259D01*
X163159394Y-92989920D01*
X163084920Y-93064394D01*
X163032259Y-93155606D01*
X163005000Y-93257339D01*
X163005000Y-93263553D01*
X162325524Y-92584077D01*
X162325523Y-92584077D01*
X162293143Y-92628644D01*
X162200244Y-92810968D01*
X162137009Y-93005582D01*
X162105000Y-93207682D01*
X162105000Y-93412317D01*
X162137009Y-93614417D01*
X162200244Y-93809031D01*
X162293141Y-93991350D01*
X162293147Y-93991359D01*
X162325523Y-94035921D01*
X162325524Y-94035922D01*
X163005000Y-93356446D01*
X163005000Y-93362661D01*
X163032259Y-93464394D01*
X163084920Y-93555606D01*
X163159394Y-93630080D01*
X163250606Y-93682741D01*
X163352339Y-93710000D01*
X163358553Y-93710000D01*
X162679076Y-94389474D01*
X162723652Y-94421861D01*
X162816628Y-94469234D01*
X162867425Y-94517208D01*
X162884220Y-94585029D01*
X162861683Y-94651164D01*
X162816630Y-94690203D01*
X162723388Y-94737713D01*
X162557786Y-94858028D01*
X162413028Y-95002786D01*
X162292715Y-95168386D01*
X162199781Y-95350778D01*
X162136522Y-95545468D01*
X162113073Y-95693514D01*
X162083143Y-95756649D01*
X162078281Y-95761796D01*
X160921801Y-96918276D01*
X160860478Y-96951761D01*
X160790786Y-96946777D01*
X160734853Y-96904905D01*
X160733802Y-96903480D01*
X160696971Y-96852787D01*
X160696967Y-96852782D01*
X160552213Y-96708028D01*
X160386613Y-96587715D01*
X160386612Y-96587714D01*
X160386610Y-96587713D01*
X160322835Y-96555218D01*
X160204223Y-96494781D01*
X160009534Y-96431522D01*
X159834995Y-96403878D01*
X159807352Y-96399500D01*
X159602648Y-96399500D01*
X159578329Y-96403351D01*
X159400465Y-96431522D01*
X159205776Y-96494781D01*
X159023386Y-96587715D01*
X158857786Y-96708028D01*
X158713028Y-96852786D01*
X158592715Y-97018386D01*
X158499781Y-97200776D01*
X158436522Y-97395465D01*
X158404500Y-97597648D01*
X158404500Y-97802351D01*
X158436522Y-98004534D01*
X158499781Y-98199223D01*
X158563691Y-98324653D01*
X158575408Y-98347648D01*
X158592715Y-98381613D01*
X158713028Y-98547213D01*
X158857784Y-98691969D01*
X158908480Y-98728801D01*
X158951147Y-98784131D01*
X158957126Y-98853744D01*
X158924521Y-98915539D01*
X158923277Y-98916801D01*
X158528899Y-99311181D01*
X158467576Y-99344666D01*
X158441218Y-99347500D01*
X146123798Y-99347500D01*
X146056759Y-99327815D01*
X146011004Y-99275011D01*
X146001060Y-99205853D01*
X146023479Y-99150615D01*
X146027381Y-99145244D01*
X146037287Y-99131610D01*
X146130220Y-98949219D01*
X146193477Y-98754534D01*
X146225500Y-98552352D01*
X146225500Y-98347648D01*
X146208453Y-98240019D01*
X146193477Y-98145465D01*
X146130218Y-97950776D01*
X146059844Y-97812661D01*
X146037287Y-97768390D01*
X146029556Y-97757749D01*
X145916971Y-97602786D01*
X145772213Y-97458028D01*
X145606613Y-97337715D01*
X145606612Y-97337714D01*
X145606610Y-97337713D01*
X145549653Y-97308691D01*
X145424223Y-97244781D01*
X145229534Y-97181522D01*
X145054995Y-97153878D01*
X145027352Y-97149500D01*
X144822648Y-97149500D01*
X144798329Y-97153351D01*
X144620465Y-97181522D01*
X144425776Y-97244781D01*
X144243386Y-97337715D01*
X144077786Y-97458028D01*
X143933028Y-97602786D01*
X143812715Y-97768386D01*
X143719781Y-97950776D01*
X143656522Y-98145465D01*
X143624500Y-98347648D01*
X143624500Y-98552351D01*
X143656522Y-98754534D01*
X143719781Y-98949223D01*
X143812712Y-99131609D01*
X143812713Y-99131610D01*
X143822281Y-99144780D01*
X143826521Y-99150615D01*
X143850000Y-99216422D01*
X143834174Y-99284476D01*
X143784068Y-99333170D01*
X143726202Y-99347500D01*
X142228456Y-99347500D01*
X142035170Y-99385947D01*
X142035159Y-99385950D01*
X142021280Y-99391700D01*
X142021277Y-99391701D01*
X141853092Y-99461364D01*
X141853080Y-99461371D01*
X141791107Y-99502781D01*
X141791106Y-99502781D01*
X141689222Y-99570857D01*
X141689214Y-99570863D01*
X141137181Y-100122897D01*
X141075858Y-100156382D01*
X141006166Y-100151398D01*
X140950233Y-100109526D01*
X140925816Y-100044062D01*
X140925500Y-100035216D01*
X140925500Y-99325761D01*
X140945185Y-99258722D01*
X140949165Y-99252899D01*
X141037287Y-99131610D01*
X141130220Y-98949219D01*
X141193477Y-98754534D01*
X141225500Y-98552352D01*
X141225500Y-98347648D01*
X141208453Y-98240019D01*
X141193477Y-98145465D01*
X141130218Y-97950776D01*
X141059844Y-97812661D01*
X141037287Y-97768390D01*
X141029556Y-97757749D01*
X140916971Y-97602786D01*
X140772213Y-97458028D01*
X140606613Y-97337715D01*
X140606612Y-97337714D01*
X140606610Y-97337713D01*
X140549653Y-97308691D01*
X140424223Y-97244781D01*
X140229534Y-97181522D01*
X140054995Y-97153878D01*
X140027352Y-97149500D01*
X139822648Y-97149500D01*
X139798329Y-97153351D01*
X139620465Y-97181522D01*
X139425776Y-97244781D01*
X139243386Y-97337715D01*
X139077786Y-97458028D01*
X138933028Y-97602786D01*
X138812715Y-97768386D01*
X138719781Y-97950776D01*
X138656522Y-98145465D01*
X138624500Y-98347648D01*
X138624500Y-98552351D01*
X138656522Y-98754534D01*
X138719781Y-98949223D01*
X138783048Y-99073390D01*
X138812713Y-99131610D01*
X138900819Y-99252877D01*
X138924298Y-99318681D01*
X138924500Y-99325761D01*
X138924500Y-101983217D01*
X138915855Y-102012658D01*
X138909331Y-102042646D01*
X138905577Y-102047660D01*
X138904815Y-102050256D01*
X138888179Y-102070900D01*
X138866258Y-102092820D01*
X138834875Y-102115621D01*
X138693388Y-102187713D01*
X138572123Y-102275818D01*
X138506317Y-102299298D01*
X138499238Y-102299500D01*
X134450783Y-102299500D01*
X134383744Y-102279815D01*
X134363102Y-102263181D01*
X133941717Y-101841797D01*
X133908232Y-101780474D01*
X133906925Y-101773513D01*
X133883477Y-101625466D01*
X133883477Y-101625465D01*
X133839509Y-101490147D01*
X133820220Y-101430781D01*
X133820218Y-101430778D01*
X133820218Y-101430776D01*
X133768500Y-101329275D01*
X133727287Y-101248390D01*
X133717288Y-101234628D01*
X133606971Y-101082786D01*
X133462213Y-100938028D01*
X133296613Y-100817715D01*
X133296612Y-100817714D01*
X133296610Y-100817713D01*
X133239653Y-100788691D01*
X133114223Y-100724781D01*
X132919534Y-100661522D01*
X132744995Y-100633878D01*
X132717352Y-100629500D01*
X132512648Y-100629500D01*
X132488329Y-100633351D01*
X132310465Y-100661522D01*
X132115776Y-100724781D01*
X131933386Y-100817715D01*
X131767786Y-100938028D01*
X131623028Y-101082786D01*
X131502715Y-101248386D01*
X131455485Y-101341080D01*
X131407510Y-101391876D01*
X131339689Y-101408671D01*
X131273554Y-101386134D01*
X131234515Y-101341080D01*
X131204492Y-101282157D01*
X131187287Y-101248390D01*
X131177288Y-101234628D01*
X131066971Y-101082786D01*
X130922213Y-100938028D01*
X130756613Y-100817715D01*
X130756612Y-100817714D01*
X130756610Y-100817713D01*
X130699653Y-100788691D01*
X130574223Y-100724781D01*
X130379534Y-100661522D01*
X130204995Y-100633878D01*
X130177352Y-100629500D01*
X129972648Y-100629500D01*
X129948329Y-100633351D01*
X129770465Y-100661522D01*
X129575776Y-100724781D01*
X129393386Y-100817715D01*
X129227786Y-100938028D01*
X129083028Y-101082786D01*
X128962715Y-101248386D01*
X128915485Y-101341080D01*
X128867510Y-101391876D01*
X128799689Y-101408671D01*
X128733554Y-101386134D01*
X128694515Y-101341080D01*
X128664492Y-101282157D01*
X128647287Y-101248390D01*
X128637288Y-101234628D01*
X128526971Y-101082786D01*
X128382213Y-100938028D01*
X128216613Y-100817715D01*
X128216612Y-100817714D01*
X128216610Y-100817713D01*
X128159653Y-100788691D01*
X128034223Y-100724781D01*
X127839534Y-100661522D01*
X127664995Y-100633878D01*
X127637352Y-100629500D01*
X127432648Y-100629500D01*
X127408329Y-100633351D01*
X127230465Y-100661522D01*
X127035776Y-100724781D01*
X126853386Y-100817715D01*
X126687786Y-100938028D01*
X126543028Y-101082786D01*
X126422715Y-101248386D01*
X126375485Y-101341080D01*
X126327510Y-101391876D01*
X126259689Y-101408671D01*
X126193554Y-101386134D01*
X126154515Y-101341080D01*
X126124492Y-101282157D01*
X126107287Y-101248390D01*
X126097288Y-101234628D01*
X125986971Y-101082786D01*
X125842213Y-100938028D01*
X125676613Y-100817715D01*
X125676612Y-100817714D01*
X125676610Y-100817713D01*
X125619653Y-100788691D01*
X125494223Y-100724781D01*
X125299534Y-100661522D01*
X125124995Y-100633878D01*
X125097352Y-100629500D01*
X124892648Y-100629500D01*
X124868329Y-100633351D01*
X124690465Y-100661522D01*
X124495776Y-100724781D01*
X124313386Y-100817715D01*
X124147786Y-100938028D01*
X124003028Y-101082786D01*
X123882715Y-101248386D01*
X123789781Y-101430776D01*
X123726522Y-101625465D01*
X123696771Y-101813308D01*
X123694500Y-101827648D01*
X106475500Y-101827648D01*
X106475500Y-100100000D01*
X109438391Y-100100000D01*
X110399314Y-100100000D01*
X110394920Y-100104394D01*
X110342259Y-100195606D01*
X110315000Y-100297339D01*
X110315000Y-100402661D01*
X110342259Y-100504394D01*
X110394920Y-100595606D01*
X110399314Y-100600000D01*
X109438391Y-100600000D01*
X109447009Y-100654413D01*
X109510244Y-100849029D01*
X109603140Y-101031349D01*
X109723417Y-101196894D01*
X109723417Y-101196895D01*
X109868104Y-101341582D01*
X110033650Y-101461859D01*
X110215968Y-101554754D01*
X110410578Y-101617988D01*
X110465000Y-101626607D01*
X110465000Y-100665686D01*
X110469394Y-100670080D01*
X110560606Y-100722741D01*
X110662339Y-100750000D01*
X110767661Y-100750000D01*
X110869394Y-100722741D01*
X110960606Y-100670080D01*
X110965000Y-100665686D01*
X110965000Y-101626606D01*
X111019421Y-101617988D01*
X111214031Y-101554754D01*
X111396349Y-101461859D01*
X111561894Y-101341582D01*
X111561895Y-101341582D01*
X111706582Y-101196895D01*
X111706582Y-101196894D01*
X111826859Y-101031349D01*
X111919755Y-100849029D01*
X111982990Y-100654413D01*
X111991609Y-100600000D01*
X111030686Y-100600000D01*
X111035080Y-100595606D01*
X111087741Y-100504394D01*
X111115000Y-100402661D01*
X111115000Y-100297339D01*
X111101685Y-100247648D01*
X119574500Y-100247648D01*
X119574500Y-100452351D01*
X119606522Y-100654534D01*
X119669781Y-100849223D01*
X119733691Y-100974653D01*
X119748045Y-101002823D01*
X119762715Y-101031613D01*
X119883028Y-101197213D01*
X120027786Y-101341971D01*
X120150018Y-101430776D01*
X120193390Y-101462287D01*
X120309607Y-101521503D01*
X120375776Y-101555218D01*
X120375778Y-101555218D01*
X120375781Y-101555220D01*
X120480137Y-101589127D01*
X120570465Y-101618477D01*
X120671557Y-101634488D01*
X120772648Y-101650500D01*
X120772649Y-101650500D01*
X120977351Y-101650500D01*
X120977352Y-101650500D01*
X121179534Y-101618477D01*
X121374219Y-101555220D01*
X121556610Y-101462287D01*
X121653523Y-101391876D01*
X121722213Y-101341971D01*
X121722215Y-101341968D01*
X121722219Y-101341966D01*
X121866966Y-101197219D01*
X121866968Y-101197215D01*
X121866971Y-101197213D01*
X121919732Y-101124590D01*
X121987287Y-101031610D01*
X122080220Y-100849219D01*
X122143477Y-100654534D01*
X122175500Y-100452352D01*
X122175500Y-100247648D01*
X134524500Y-100247648D01*
X134524500Y-100452351D01*
X134556522Y-100654534D01*
X134619781Y-100849223D01*
X134683691Y-100974653D01*
X134698045Y-101002823D01*
X134712715Y-101031613D01*
X134833028Y-101197213D01*
X134977786Y-101341971D01*
X135100018Y-101430776D01*
X135143390Y-101462287D01*
X135259607Y-101521503D01*
X135325776Y-101555218D01*
X135325778Y-101555218D01*
X135325781Y-101555220D01*
X135430137Y-101589127D01*
X135520465Y-101618477D01*
X135621557Y-101634488D01*
X135722648Y-101650500D01*
X135722649Y-101650500D01*
X135927351Y-101650500D01*
X135927352Y-101650500D01*
X136129534Y-101618477D01*
X136324219Y-101555220D01*
X136506610Y-101462287D01*
X136603523Y-101391876D01*
X136672213Y-101341971D01*
X136672215Y-101341968D01*
X136672219Y-101341966D01*
X136816966Y-101197219D01*
X136816968Y-101197215D01*
X136816971Y-101197213D01*
X136869732Y-101124590D01*
X136937287Y-101031610D01*
X137030220Y-100849219D01*
X137093477Y-100654534D01*
X137125500Y-100452352D01*
X137125500Y-100247648D01*
X137103623Y-100109526D01*
X137093477Y-100045465D01*
X137030218Y-99850776D01*
X136937419Y-99668650D01*
X136937287Y-99668390D01*
X136929556Y-99657749D01*
X136816971Y-99502786D01*
X136672213Y-99358028D01*
X136506613Y-99237715D01*
X136506612Y-99237714D01*
X136506610Y-99237713D01*
X136444081Y-99205853D01*
X136324223Y-99144781D01*
X136129534Y-99081522D01*
X135954995Y-99053878D01*
X135927352Y-99049500D01*
X135722648Y-99049500D01*
X135698329Y-99053351D01*
X135520465Y-99081522D01*
X135325776Y-99144781D01*
X135143386Y-99237715D01*
X134977786Y-99358028D01*
X134977782Y-99358032D01*
X134833034Y-99502781D01*
X134833028Y-99502786D01*
X134712715Y-99668386D01*
X134619781Y-99850776D01*
X134556522Y-100045465D01*
X134524500Y-100247648D01*
X122175500Y-100247648D01*
X122153623Y-100109526D01*
X122143477Y-100045465D01*
X122080218Y-99850776D01*
X121987419Y-99668650D01*
X121987287Y-99668390D01*
X121979556Y-99657749D01*
X121866971Y-99502786D01*
X121722213Y-99358028D01*
X121556613Y-99237715D01*
X121556612Y-99237714D01*
X121556610Y-99237713D01*
X121494081Y-99205853D01*
X121374223Y-99144781D01*
X121179534Y-99081522D01*
X121004995Y-99053878D01*
X120977352Y-99049500D01*
X120772648Y-99049500D01*
X120748329Y-99053351D01*
X120570465Y-99081522D01*
X120375776Y-99144781D01*
X120193386Y-99237715D01*
X120027786Y-99358028D01*
X120027782Y-99358032D01*
X119883034Y-99502781D01*
X119883028Y-99502786D01*
X119762715Y-99668386D01*
X119669781Y-99850776D01*
X119606522Y-100045465D01*
X119574500Y-100247648D01*
X111101685Y-100247648D01*
X111087741Y-100195606D01*
X111035080Y-100104394D01*
X111030686Y-100100000D01*
X111991609Y-100100000D01*
X111982990Y-100045586D01*
X111919755Y-99850970D01*
X111826859Y-99668650D01*
X111706582Y-99503105D01*
X111706582Y-99503104D01*
X111561895Y-99358417D01*
X111396349Y-99238140D01*
X111214029Y-99145244D01*
X111019413Y-99082009D01*
X110965000Y-99073390D01*
X110965000Y-100034314D01*
X110960606Y-100029920D01*
X110869394Y-99977259D01*
X110767661Y-99950000D01*
X110662339Y-99950000D01*
X110560606Y-99977259D01*
X110469394Y-100029920D01*
X110465000Y-100034314D01*
X110465000Y-99073390D01*
X110410586Y-99082009D01*
X110215970Y-99145244D01*
X110033650Y-99238140D01*
X109868105Y-99358417D01*
X109868104Y-99358417D01*
X109723417Y-99503104D01*
X109723417Y-99503105D01*
X109603140Y-99668650D01*
X109510244Y-99850970D01*
X109447009Y-100045586D01*
X109438391Y-100100000D01*
X106475500Y-100100000D01*
X106475500Y-97510000D01*
X125498391Y-97510000D01*
X126459314Y-97510000D01*
X126454920Y-97514394D01*
X126402259Y-97605606D01*
X126375000Y-97707339D01*
X126375000Y-97812661D01*
X126402259Y-97914394D01*
X126454920Y-98005606D01*
X126459314Y-98010000D01*
X125498391Y-98010000D01*
X125507009Y-98064413D01*
X125570244Y-98259029D01*
X125663140Y-98441349D01*
X125783417Y-98606894D01*
X125783417Y-98606895D01*
X125928104Y-98751582D01*
X126093650Y-98871859D01*
X126275968Y-98964754D01*
X126470578Y-99027988D01*
X126525000Y-99036607D01*
X126525000Y-98075686D01*
X126529394Y-98080080D01*
X126620606Y-98132741D01*
X126722339Y-98160000D01*
X126827661Y-98160000D01*
X126929394Y-98132741D01*
X127020606Y-98080080D01*
X127025000Y-98075686D01*
X127025000Y-99036606D01*
X127079421Y-99027988D01*
X127274031Y-98964754D01*
X127456349Y-98871859D01*
X127621894Y-98751582D01*
X127621895Y-98751582D01*
X127766582Y-98606895D01*
X127766582Y-98606894D01*
X127886859Y-98441349D01*
X127979755Y-98259029D01*
X128042990Y-98064413D01*
X128051609Y-98010000D01*
X127090686Y-98010000D01*
X127095080Y-98005606D01*
X127147741Y-97914394D01*
X127175000Y-97812661D01*
X127175000Y-97707339D01*
X127147741Y-97605606D01*
X127095080Y-97514394D01*
X127090686Y-97510000D01*
X128051609Y-97510000D01*
X130348391Y-97510000D01*
X131309314Y-97510000D01*
X131304920Y-97514394D01*
X131252259Y-97605606D01*
X131225000Y-97707339D01*
X131225000Y-97812661D01*
X131252259Y-97914394D01*
X131304920Y-98005606D01*
X131309314Y-98010000D01*
X130348391Y-98010000D01*
X130357009Y-98064413D01*
X130420244Y-98259029D01*
X130513140Y-98441349D01*
X130633417Y-98606894D01*
X130633417Y-98606895D01*
X130778104Y-98751582D01*
X130943650Y-98871859D01*
X131125968Y-98964754D01*
X131320578Y-99027988D01*
X131375000Y-99036607D01*
X131375000Y-98075686D01*
X131379394Y-98080080D01*
X131470606Y-98132741D01*
X131572339Y-98160000D01*
X131677661Y-98160000D01*
X131779394Y-98132741D01*
X131870606Y-98080080D01*
X131875000Y-98075686D01*
X131875000Y-99036606D01*
X131929421Y-99027988D01*
X132124031Y-98964754D01*
X132306349Y-98871859D01*
X132471894Y-98751582D01*
X132471895Y-98751582D01*
X132616582Y-98606895D01*
X132616582Y-98606894D01*
X132736859Y-98441349D01*
X132829755Y-98259029D01*
X132892990Y-98064413D01*
X132901609Y-98010000D01*
X131940686Y-98010000D01*
X131945080Y-98005606D01*
X131997741Y-97914394D01*
X132025000Y-97812661D01*
X132025000Y-97707339D01*
X131997741Y-97605606D01*
X131945080Y-97514394D01*
X131940686Y-97510000D01*
X132901609Y-97510000D01*
X132892990Y-97455586D01*
X132829755Y-97260970D01*
X132736859Y-97078650D01*
X132616582Y-96913105D01*
X132616582Y-96913104D01*
X132471895Y-96768417D01*
X132306349Y-96648140D01*
X132124029Y-96555244D01*
X131929413Y-96492009D01*
X131875000Y-96483390D01*
X131875000Y-97444314D01*
X131870606Y-97439920D01*
X131779394Y-97387259D01*
X131677661Y-97360000D01*
X131572339Y-97360000D01*
X131470606Y-97387259D01*
X131379394Y-97439920D01*
X131375000Y-97444314D01*
X131375000Y-96483390D01*
X131320586Y-96492009D01*
X131125970Y-96555244D01*
X130943650Y-96648140D01*
X130778105Y-96768417D01*
X130778104Y-96768417D01*
X130633417Y-96913104D01*
X130633417Y-96913105D01*
X130513140Y-97078650D01*
X130420244Y-97260970D01*
X130357009Y-97455586D01*
X130348391Y-97510000D01*
X128051609Y-97510000D01*
X128042990Y-97455586D01*
X127979755Y-97260970D01*
X127886859Y-97078650D01*
X127766582Y-96913105D01*
X127766582Y-96913104D01*
X127621895Y-96768417D01*
X127456349Y-96648140D01*
X127274029Y-96555244D01*
X127079413Y-96492009D01*
X127025000Y-96483390D01*
X127025000Y-97444314D01*
X127020606Y-97439920D01*
X126929394Y-97387259D01*
X126827661Y-97360000D01*
X126722339Y-97360000D01*
X126620606Y-97387259D01*
X126529394Y-97439920D01*
X126525000Y-97444314D01*
X126525000Y-96483390D01*
X126470586Y-96492009D01*
X126275970Y-96555244D01*
X126093650Y-96648140D01*
X125928105Y-96768417D01*
X125928104Y-96768417D01*
X125783417Y-96913104D01*
X125783417Y-96913105D01*
X125663140Y-97078650D01*
X125570244Y-97260970D01*
X125507009Y-97455586D01*
X125498391Y-97510000D01*
X106475500Y-97510000D01*
X106475500Y-95347648D01*
X107774500Y-95347648D01*
X107774500Y-95552351D01*
X107806522Y-95754534D01*
X107869781Y-95949223D01*
X107897893Y-96004394D01*
X107962585Y-96131359D01*
X107962715Y-96131613D01*
X108083028Y-96297213D01*
X108227786Y-96441971D01*
X108382749Y-96554556D01*
X108393390Y-96562287D01*
X108503669Y-96618477D01*
X108575776Y-96655218D01*
X108575778Y-96655218D01*
X108575781Y-96655220D01*
X108680137Y-96689127D01*
X108770465Y-96718477D01*
X108871557Y-96734488D01*
X108972648Y-96750500D01*
X108972649Y-96750500D01*
X109177351Y-96750500D01*
X109177352Y-96750500D01*
X109379534Y-96718477D01*
X109574219Y-96655220D01*
X109756610Y-96562287D01*
X109865203Y-96483390D01*
X109922213Y-96441971D01*
X109922215Y-96441968D01*
X109922219Y-96441966D01*
X110066966Y-96297219D01*
X110066968Y-96297215D01*
X110066971Y-96297213D01*
X110137962Y-96199500D01*
X110187287Y-96131610D01*
X110278624Y-95952351D01*
X110280218Y-95949223D01*
X110280218Y-95949222D01*
X110280220Y-95949219D01*
X110343477Y-95754534D01*
X110375500Y-95552352D01*
X110375500Y-95347682D01*
X112775000Y-95347682D01*
X112775000Y-95552317D01*
X112807009Y-95754417D01*
X112870244Y-95949031D01*
X112963141Y-96131350D01*
X112963147Y-96131359D01*
X112995523Y-96175921D01*
X112995524Y-96175922D01*
X113675000Y-95496446D01*
X113675000Y-95502661D01*
X113702259Y-95604394D01*
X113754920Y-95695606D01*
X113829394Y-95770080D01*
X113920606Y-95822741D01*
X114022339Y-95850000D01*
X114028553Y-95850000D01*
X113349076Y-96529474D01*
X113393650Y-96561859D01*
X113575968Y-96654755D01*
X113770582Y-96717990D01*
X113972683Y-96750000D01*
X114177317Y-96750000D01*
X114379417Y-96717990D01*
X114574031Y-96654755D01*
X114756349Y-96561859D01*
X114800921Y-96529474D01*
X114121447Y-95850000D01*
X114127661Y-95850000D01*
X114229394Y-95822741D01*
X114320606Y-95770080D01*
X114395080Y-95695606D01*
X114447741Y-95604394D01*
X114475000Y-95502661D01*
X114475000Y-95496448D01*
X115154474Y-96175922D01*
X115154474Y-96175921D01*
X115186859Y-96131349D01*
X115279755Y-95949031D01*
X115342990Y-95754417D01*
X115375000Y-95552317D01*
X115375000Y-95347682D01*
X115342990Y-95145582D01*
X115279755Y-94950968D01*
X115186859Y-94768650D01*
X115154474Y-94724077D01*
X115154474Y-94724076D01*
X114475000Y-95403551D01*
X114475000Y-95397339D01*
X114447741Y-95295606D01*
X114395080Y-95204394D01*
X114320606Y-95129920D01*
X114229394Y-95077259D01*
X114127661Y-95050000D01*
X114121446Y-95050000D01*
X114800922Y-94370524D01*
X114800921Y-94370523D01*
X114756359Y-94338147D01*
X114756350Y-94338141D01*
X114574031Y-94245244D01*
X114379417Y-94182009D01*
X114177317Y-94150000D01*
X113972683Y-94150000D01*
X113770582Y-94182009D01*
X113575968Y-94245244D01*
X113393644Y-94338143D01*
X113349077Y-94370523D01*
X113349077Y-94370524D01*
X114028554Y-95050000D01*
X114022339Y-95050000D01*
X113920606Y-95077259D01*
X113829394Y-95129920D01*
X113754920Y-95204394D01*
X113702259Y-95295606D01*
X113675000Y-95397339D01*
X113675000Y-95403553D01*
X112995524Y-94724077D01*
X112995523Y-94724077D01*
X112963143Y-94768644D01*
X112870244Y-94950968D01*
X112807009Y-95145582D01*
X112775000Y-95347682D01*
X110375500Y-95347682D01*
X110375500Y-95347648D01*
X110359661Y-95247648D01*
X110343477Y-95145465D01*
X110297116Y-95002781D01*
X110280220Y-94950781D01*
X110280218Y-94950778D01*
X110280218Y-94950776D01*
X110214564Y-94821925D01*
X110187287Y-94768390D01*
X110179556Y-94757749D01*
X110066971Y-94602786D01*
X109922213Y-94458028D01*
X109756613Y-94337715D01*
X109756612Y-94337714D01*
X109756610Y-94337713D01*
X109699653Y-94308691D01*
X109574223Y-94244781D01*
X109379534Y-94181522D01*
X109204995Y-94153878D01*
X109177352Y-94149500D01*
X108972648Y-94149500D01*
X108948329Y-94153351D01*
X108770465Y-94181522D01*
X108575776Y-94244781D01*
X108393386Y-94337715D01*
X108227786Y-94458028D01*
X108083028Y-94602786D01*
X107962715Y-94768386D01*
X107869781Y-94950776D01*
X107806522Y-95145465D01*
X107774500Y-95347648D01*
X106475500Y-95347648D01*
X106475500Y-85812133D01*
X110049500Y-85812133D01*
X110049500Y-86027866D01*
X110081891Y-86232371D01*
X110083246Y-86240926D01*
X110149908Y-86446089D01*
X110247843Y-86638299D01*
X110374641Y-86812821D01*
X110527179Y-86965359D01*
X110615895Y-87029815D01*
X110698294Y-87089682D01*
X110740959Y-87145012D01*
X110746938Y-87214626D01*
X110714332Y-87276421D01*
X110698294Y-87290318D01*
X110649975Y-87325424D01*
X110527179Y-87414641D01*
X110527177Y-87414643D01*
X110527176Y-87414643D01*
X110374643Y-87567176D01*
X110374643Y-87567177D01*
X110374641Y-87567179D01*
X110364370Y-87581316D01*
X110247843Y-87741700D01*
X110149909Y-87933908D01*
X110083245Y-88139077D01*
X110049500Y-88352133D01*
X110049500Y-88567866D01*
X110083245Y-88780922D01*
X110083246Y-88780926D01*
X110149908Y-88986089D01*
X110247843Y-89178299D01*
X110374641Y-89352821D01*
X110374643Y-89352823D01*
X110517003Y-89495183D01*
X110550488Y-89556506D01*
X110545504Y-89626198D01*
X110503632Y-89682131D01*
X110481728Y-89695245D01*
X110480885Y-89695637D01*
X110331654Y-89787684D01*
X110207684Y-89911654D01*
X110115643Y-90060875D01*
X110115641Y-90060880D01*
X110060494Y-90227302D01*
X110060493Y-90227309D01*
X110050000Y-90330013D01*
X110050000Y-90750000D01*
X111102291Y-90750000D01*
X111090548Y-90770339D01*
X111050000Y-90921667D01*
X111050000Y-91078333D01*
X111090548Y-91229661D01*
X111102291Y-91250000D01*
X110050001Y-91250000D01*
X110050001Y-91669986D01*
X110060494Y-91772697D01*
X110115641Y-91939119D01*
X110115643Y-91939124D01*
X110207684Y-92088345D01*
X110331654Y-92212315D01*
X110480875Y-92304356D01*
X110480880Y-92304358D01*
X110647302Y-92359505D01*
X110647309Y-92359506D01*
X110750019Y-92369999D01*
X111394999Y-92369999D01*
X111395000Y-92369998D01*
X111395000Y-91542709D01*
X111415339Y-91554452D01*
X111566667Y-91595000D01*
X111723333Y-91595000D01*
X111874661Y-91554452D01*
X111895000Y-91542709D01*
X111895000Y-92369999D01*
X112539972Y-92369999D01*
X112539986Y-92369998D01*
X112642697Y-92359505D01*
X112809119Y-92304358D01*
X112809124Y-92304356D01*
X112958345Y-92212315D01*
X113082315Y-92088345D01*
X113174356Y-91939124D01*
X113174358Y-91939119D01*
X113229505Y-91772697D01*
X113229506Y-91772690D01*
X113239999Y-91669986D01*
X113240000Y-91669973D01*
X113240000Y-91250000D01*
X112187709Y-91250000D01*
X112199452Y-91229661D01*
X112240000Y-91078333D01*
X112240000Y-90921667D01*
X112199452Y-90770339D01*
X112187709Y-90750000D01*
X113239999Y-90750000D01*
X113239999Y-90330028D01*
X113239998Y-90330013D01*
X113229505Y-90227302D01*
X113174358Y-90060880D01*
X113174356Y-90060875D01*
X113082315Y-89911654D01*
X112958345Y-89787684D01*
X112809118Y-89695640D01*
X112808277Y-89695248D01*
X112807796Y-89694824D01*
X112802975Y-89691851D01*
X112803483Y-89691027D01*
X112755836Y-89649078D01*
X112736681Y-89581885D01*
X112756894Y-89515003D01*
X112772987Y-89495192D01*
X112915359Y-89352821D01*
X113042157Y-89178299D01*
X113140092Y-88986089D01*
X113206754Y-88780926D01*
X113231485Y-88624780D01*
X113240500Y-88567866D01*
X113240500Y-88352133D01*
X113215135Y-88191989D01*
X113206754Y-88139074D01*
X113140092Y-87933911D01*
X113042157Y-87741701D01*
X112915359Y-87567179D01*
X112762821Y-87414641D01*
X112591704Y-87290317D01*
X112549040Y-87234988D01*
X112543061Y-87165374D01*
X112575667Y-87103580D01*
X112591702Y-87089684D01*
X112762821Y-86965359D01*
X112915359Y-86812821D01*
X113042157Y-86638299D01*
X113140092Y-86446089D01*
X113206754Y-86240926D01*
X113229262Y-86098815D01*
X113240500Y-86027866D01*
X113240500Y-85812133D01*
X113215260Y-85652781D01*
X113206754Y-85599074D01*
X113140092Y-85393911D01*
X113042157Y-85201701D01*
X112915359Y-85027179D01*
X112762821Y-84874641D01*
X112588299Y-84747843D01*
X112458881Y-84681902D01*
X119874500Y-84681902D01*
X119874500Y-85418097D01*
X119911446Y-85651368D01*
X119984433Y-85875996D01*
X120071061Y-86046011D01*
X120091657Y-86086433D01*
X120230483Y-86277510D01*
X120230485Y-86277512D01*
X120397490Y-86444517D01*
X120404603Y-86449685D01*
X120447266Y-86505017D01*
X120453242Y-86574630D01*
X120420634Y-86636424D01*
X120404603Y-86650315D01*
X120397490Y-86655482D01*
X120230485Y-86822487D01*
X120230485Y-86822488D01*
X120230483Y-86822490D01*
X120170862Y-86904550D01*
X120091657Y-87013566D01*
X119984433Y-87224003D01*
X119911446Y-87448631D01*
X119874500Y-87681902D01*
X119874500Y-88418097D01*
X119911446Y-88651368D01*
X119984433Y-88875996D01*
X120059006Y-89022352D01*
X120091657Y-89086433D01*
X120230483Y-89277510D01*
X120397490Y-89444517D01*
X120405021Y-89449989D01*
X120447688Y-89505315D01*
X120453670Y-89574928D01*
X120421067Y-89636724D01*
X120405031Y-89650622D01*
X120397813Y-89655866D01*
X120230866Y-89822813D01*
X120092085Y-90013828D01*
X119984897Y-90224197D01*
X119911934Y-90448752D01*
X119875000Y-90681947D01*
X119875000Y-90800000D01*
X120875000Y-90800000D01*
X120875000Y-91300000D01*
X119875000Y-91300000D01*
X119875000Y-91418052D01*
X119911934Y-91651247D01*
X119984897Y-91875802D01*
X120092085Y-92086171D01*
X120230866Y-92277186D01*
X120397813Y-92444133D01*
X120588828Y-92582914D01*
X120799195Y-92690102D01*
X121023744Y-92763063D01*
X121023750Y-92763065D01*
X121125000Y-92779101D01*
X121125000Y-91733012D01*
X121182007Y-91765925D01*
X121309174Y-91800000D01*
X121440826Y-91800000D01*
X121567993Y-91765925D01*
X121625000Y-91733012D01*
X121625000Y-92779100D01*
X121726249Y-92763065D01*
X121726255Y-92763063D01*
X121950804Y-92690102D01*
X122161171Y-92582914D01*
X122352186Y-92444133D01*
X122519133Y-92277186D01*
X122657914Y-92086171D01*
X122765102Y-91875802D01*
X122838065Y-91651247D01*
X122875000Y-91418052D01*
X122875000Y-91300000D01*
X121875000Y-91300000D01*
X121875000Y-90800000D01*
X122875000Y-90800000D01*
X122875000Y-90681947D01*
X122838065Y-90448752D01*
X122765102Y-90224197D01*
X122657914Y-90013828D01*
X122519133Y-89822813D01*
X122507306Y-89810986D01*
X122331222Y-89639020D01*
X122318355Y-89616105D01*
X122302308Y-89595294D01*
X122301520Y-89586123D01*
X122297014Y-89578098D01*
X122298578Y-89551865D01*
X122296330Y-89525680D01*
X122300626Y-89517538D01*
X122301174Y-89508352D01*
X122316671Y-89487131D01*
X122328937Y-89463886D01*
X122341759Y-89452776D01*
X122342380Y-89451927D01*
X122343030Y-89451675D01*
X122344970Y-89449994D01*
X122352510Y-89444517D01*
X122519517Y-89277510D01*
X122647313Y-89101613D01*
X122702643Y-89058949D01*
X122747631Y-89050500D01*
X126423543Y-89050500D01*
X126475672Y-89040130D01*
X126565049Y-89022352D01*
X126616836Y-89012051D01*
X126679513Y-88986089D01*
X126798914Y-88936632D01*
X126822832Y-88920650D01*
X126872879Y-88903404D01*
X126872540Y-88901262D01*
X126877351Y-88900500D01*
X126877352Y-88900500D01*
X127079534Y-88868477D01*
X127274219Y-88805220D01*
X127456610Y-88712287D01*
X127589874Y-88615466D01*
X127622213Y-88591971D01*
X127622215Y-88591968D01*
X127622219Y-88591966D01*
X127766966Y-88447219D01*
X127766968Y-88447215D01*
X127766971Y-88447213D01*
X127839308Y-88347648D01*
X127887287Y-88281610D01*
X127980220Y-88099219D01*
X128043477Y-87904534D01*
X128075500Y-87702352D01*
X128075500Y-87497648D01*
X128050284Y-87338442D01*
X128043477Y-87295465D01*
X128004234Y-87174690D01*
X127980220Y-87100781D01*
X127980218Y-87100778D01*
X127980218Y-87100776D01*
X127935782Y-87013567D01*
X127887287Y-86918390D01*
X127868972Y-86893181D01*
X127799182Y-86797122D01*
X127775702Y-86731316D01*
X127775500Y-86724237D01*
X127775500Y-84815761D01*
X127795185Y-84748722D01*
X127799165Y-84742899D01*
X127887287Y-84621610D01*
X127980220Y-84439219D01*
X128043477Y-84244534D01*
X128075500Y-84042352D01*
X128075500Y-83837648D01*
X128070578Y-83806572D01*
X128043477Y-83635465D01*
X128002201Y-83508431D01*
X127980220Y-83440781D01*
X127980218Y-83440778D01*
X127980218Y-83440776D01*
X127946503Y-83374607D01*
X127887287Y-83258390D01*
X127874371Y-83240612D01*
X127766971Y-83092786D01*
X127622213Y-82948028D01*
X127456613Y-82827715D01*
X127456612Y-82827714D01*
X127456610Y-82827713D01*
X127399653Y-82798691D01*
X127274223Y-82734781D01*
X127079534Y-82671522D01*
X126904995Y-82643878D01*
X126877352Y-82639500D01*
X126672648Y-82639500D01*
X126648329Y-82643351D01*
X126470465Y-82671522D01*
X126275776Y-82734781D01*
X126093386Y-82827715D01*
X125927786Y-82948028D01*
X125783028Y-83092786D01*
X125662715Y-83258386D01*
X125569781Y-83440776D01*
X125506522Y-83635465D01*
X125474500Y-83837648D01*
X125474500Y-84042351D01*
X125506522Y-84244534D01*
X125569781Y-84439223D01*
X125645476Y-84587781D01*
X125662713Y-84621610D01*
X125750819Y-84742877D01*
X125774298Y-84808681D01*
X125774500Y-84815761D01*
X125774500Y-86724237D01*
X125769403Y-86741594D01*
X125769325Y-86759686D01*
X125756434Y-86785761D01*
X125754815Y-86791276D01*
X125754524Y-86791727D01*
X125752736Y-86794482D01*
X125662713Y-86918390D01*
X125627469Y-86987559D01*
X125623946Y-86992990D01*
X125602158Y-87011704D01*
X125582433Y-87032591D01*
X125575732Y-87034403D01*
X125570945Y-87038516D01*
X125549459Y-87041510D01*
X125519922Y-87049500D01*
X122747631Y-87049500D01*
X122680592Y-87029815D01*
X122647313Y-86998386D01*
X122644988Y-86995186D01*
X122519517Y-86822490D01*
X122352510Y-86655483D01*
X122345401Y-86650318D01*
X122302735Y-86594988D01*
X122296756Y-86525375D01*
X122329362Y-86463580D01*
X122345401Y-86449682D01*
X122345500Y-86449609D01*
X122352510Y-86444517D01*
X122519517Y-86277510D01*
X122658343Y-86086433D01*
X122765568Y-85875992D01*
X122838553Y-85651368D01*
X122842850Y-85624237D01*
X122875500Y-85418097D01*
X122875500Y-84681902D01*
X122838553Y-84448631D01*
X122785916Y-84286632D01*
X122765568Y-84224008D01*
X122765566Y-84224005D01*
X122765566Y-84224003D01*
X122693014Y-84081613D01*
X122658343Y-84013567D01*
X122519517Y-83822490D01*
X122352510Y-83655483D01*
X122161433Y-83516657D01*
X122133356Y-83502351D01*
X121950996Y-83409433D01*
X121726368Y-83336446D01*
X121493097Y-83299500D01*
X121493092Y-83299500D01*
X121256908Y-83299500D01*
X121256903Y-83299500D01*
X121023631Y-83336446D01*
X120799003Y-83409433D01*
X120588566Y-83516657D01*
X120519576Y-83566782D01*
X120397490Y-83655483D01*
X120397488Y-83655485D01*
X120397487Y-83655485D01*
X120230485Y-83822487D01*
X120230485Y-83822488D01*
X120230483Y-83822490D01*
X120209435Y-83851460D01*
X120091657Y-84013566D01*
X119984433Y-84224003D01*
X119911446Y-84448631D01*
X119874500Y-84681902D01*
X112458881Y-84681902D01*
X112396089Y-84649908D01*
X112190926Y-84583246D01*
X112190924Y-84583245D01*
X112190922Y-84583245D01*
X111977866Y-84549500D01*
X111977861Y-84549500D01*
X111312139Y-84549500D01*
X111312134Y-84549500D01*
X111099077Y-84583245D01*
X110893908Y-84649909D01*
X110701700Y-84747843D01*
X110633061Y-84797713D01*
X110527179Y-84874641D01*
X110527177Y-84874643D01*
X110527176Y-84874643D01*
X110374643Y-85027176D01*
X110374643Y-85027177D01*
X110374641Y-85027179D01*
X110354268Y-85055220D01*
X110247843Y-85201700D01*
X110149909Y-85393908D01*
X110083245Y-85599077D01*
X110049500Y-85812133D01*
X106475500Y-85812133D01*
X106475500Y-80647648D01*
X108474500Y-80647648D01*
X108474500Y-80852351D01*
X108506522Y-81054534D01*
X108569781Y-81249223D01*
X108633691Y-81374653D01*
X108640381Y-81387782D01*
X108662715Y-81431613D01*
X108783028Y-81597213D01*
X108927786Y-81741971D01*
X109082749Y-81854556D01*
X109093390Y-81862287D01*
X109209607Y-81921503D01*
X109275776Y-81955218D01*
X109275778Y-81955218D01*
X109275781Y-81955220D01*
X109380137Y-81989127D01*
X109470465Y-82018477D01*
X109571557Y-82034488D01*
X109672648Y-82050500D01*
X109672649Y-82050500D01*
X109877351Y-82050500D01*
X109877352Y-82050500D01*
X110079534Y-82018477D01*
X110274219Y-81955220D01*
X110456610Y-81862287D01*
X110577877Y-81774182D01*
X110622213Y-81741971D01*
X110622215Y-81741968D01*
X110622219Y-81741966D01*
X110766966Y-81597219D01*
X110766968Y-81597215D01*
X110766971Y-81597213D01*
X110819732Y-81524590D01*
X110887287Y-81431610D01*
X110980220Y-81249219D01*
X111043477Y-81054534D01*
X111075500Y-80852352D01*
X111075500Y-80647648D01*
X113474500Y-80647648D01*
X113474500Y-80852351D01*
X113506522Y-81054534D01*
X113569781Y-81249223D01*
X113633691Y-81374653D01*
X113640381Y-81387782D01*
X113662715Y-81431613D01*
X113783028Y-81597213D01*
X113927786Y-81741971D01*
X114082749Y-81854556D01*
X114093390Y-81862287D01*
X114209607Y-81921503D01*
X114275776Y-81955218D01*
X114275778Y-81955218D01*
X114275781Y-81955220D01*
X114380137Y-81989127D01*
X114470465Y-82018477D01*
X114571557Y-82034488D01*
X114672648Y-82050500D01*
X114672649Y-82050500D01*
X114877351Y-82050500D01*
X114877352Y-82050500D01*
X115079534Y-82018477D01*
X115274219Y-81955220D01*
X115456610Y-81862287D01*
X115577877Y-81774181D01*
X115643683Y-81750702D01*
X115650762Y-81750500D01*
X119903543Y-81750500D01*
X119936075Y-81744028D01*
X120010884Y-81729148D01*
X120096836Y-81712051D01*
X120150165Y-81689961D01*
X120278914Y-81636632D01*
X120442782Y-81527139D01*
X120582139Y-81387782D01*
X120582139Y-81387780D01*
X120592347Y-81377573D01*
X120592348Y-81377570D01*
X126863204Y-75106715D01*
X126924525Y-75073232D01*
X126931475Y-75071926D01*
X127079534Y-75048477D01*
X127274219Y-74985220D01*
X127456610Y-74892287D01*
X127567886Y-74811441D01*
X127622213Y-74771971D01*
X127622215Y-74771968D01*
X127622219Y-74771966D01*
X127766966Y-74627219D01*
X127766973Y-74627208D01*
X127770130Y-74623514D01*
X127771820Y-74624957D01*
X127819871Y-74587932D01*
X127864817Y-74579500D01*
X129811878Y-74579500D01*
X129878917Y-74599185D01*
X129924672Y-74651989D01*
X129935098Y-74717383D01*
X129924500Y-74811441D01*
X129924500Y-75448558D01*
X129939157Y-75578648D01*
X129939159Y-75578658D01*
X129996497Y-75742517D01*
X129996878Y-75743606D01*
X130089853Y-75891576D01*
X130213424Y-76015147D01*
X130361394Y-76108122D01*
X130526343Y-76165841D01*
X130526349Y-76165841D01*
X130526351Y-76165842D01*
X130567750Y-76170506D01*
X130656442Y-76180499D01*
X130656445Y-76180500D01*
X130656448Y-76180500D01*
X130863217Y-76180500D01*
X130930256Y-76200185D01*
X130976011Y-76252989D01*
X130985955Y-76322147D01*
X130956930Y-76385703D01*
X130950898Y-76392181D01*
X130042580Y-77300500D01*
X129136220Y-78206860D01*
X129136218Y-78206862D01*
X129098300Y-78244780D01*
X128996859Y-78346220D01*
X128887371Y-78510081D01*
X128887364Y-78510094D01*
X128859248Y-78577974D01*
X128859244Y-78577985D01*
X128857963Y-78581078D01*
X128811949Y-78692165D01*
X128804523Y-78729500D01*
X128802797Y-78738175D01*
X128802795Y-78738182D01*
X128773500Y-78885457D01*
X128773500Y-83027543D01*
X128783644Y-83078538D01*
X128783644Y-83078539D01*
X128790453Y-83112770D01*
X128797965Y-83150536D01*
X128811946Y-83220828D01*
X128811949Y-83220837D01*
X128887364Y-83402907D01*
X128887371Y-83402920D01*
X128996859Y-83566780D01*
X128996860Y-83566781D01*
X128996861Y-83566782D01*
X129136218Y-83706139D01*
X129136219Y-83706139D01*
X129143286Y-83713206D01*
X129143285Y-83713206D01*
X129143289Y-83713209D01*
X130248281Y-84818201D01*
X130281766Y-84879524D01*
X130283073Y-84886483D01*
X130306523Y-85034535D01*
X130369781Y-85229223D01*
X130410930Y-85309981D01*
X130462288Y-85410776D01*
X130462715Y-85411613D01*
X130583028Y-85577213D01*
X130588181Y-85582366D01*
X130621666Y-85643689D01*
X130624500Y-85670047D01*
X130624500Y-86724237D01*
X130604815Y-86791276D01*
X130600818Y-86797122D01*
X130512715Y-86918386D01*
X130419781Y-87100776D01*
X130356522Y-87295465D01*
X130324500Y-87497648D01*
X130324500Y-87702351D01*
X130356522Y-87904534D01*
X130419781Y-88099223D01*
X130512715Y-88281613D01*
X130633028Y-88447213D01*
X130777786Y-88591971D01*
X130932749Y-88704556D01*
X130943390Y-88712287D01*
X131043927Y-88763513D01*
X131125776Y-88805218D01*
X131125778Y-88805218D01*
X131125781Y-88805220D01*
X131207577Y-88831797D01*
X131320465Y-88868477D01*
X131367913Y-88875992D01*
X131522648Y-88900500D01*
X131522649Y-88900500D01*
X131727351Y-88900500D01*
X131727352Y-88900500D01*
X131929534Y-88868477D01*
X132124219Y-88805220D01*
X132306610Y-88712287D01*
X132439874Y-88615466D01*
X132472213Y-88591971D01*
X132472215Y-88591968D01*
X132472219Y-88591966D01*
X132616966Y-88447219D01*
X132616968Y-88447215D01*
X132616971Y-88447213D01*
X132689308Y-88347648D01*
X132737287Y-88281610D01*
X132830220Y-88099219D01*
X132893477Y-87904534D01*
X132925500Y-87702352D01*
X132925500Y-87497648D01*
X132900284Y-87338442D01*
X132893477Y-87295465D01*
X132854234Y-87174690D01*
X132830220Y-87100781D01*
X132830218Y-87100778D01*
X132830218Y-87100776D01*
X132785782Y-87013567D01*
X132737287Y-86918390D01*
X132718972Y-86893181D01*
X132649182Y-86797122D01*
X132625702Y-86731316D01*
X132625500Y-86724237D01*
X132625500Y-85536942D01*
X132645185Y-85469903D01*
X132649183Y-85464056D01*
X132682574Y-85418097D01*
X132687287Y-85411610D01*
X132780220Y-85229219D01*
X132843477Y-85034534D01*
X132875500Y-84832352D01*
X132875500Y-84627648D01*
X132859231Y-84524933D01*
X132843477Y-84425465D01*
X132798366Y-84286628D01*
X132780220Y-84230781D01*
X132780218Y-84230778D01*
X132780218Y-84230776D01*
X132704215Y-84081614D01*
X132687287Y-84048390D01*
X132661986Y-84013566D01*
X132566971Y-83882786D01*
X132422213Y-83738028D01*
X132256613Y-83617715D01*
X132256612Y-83617714D01*
X132256610Y-83617713D01*
X132199653Y-83588691D01*
X132074223Y-83524781D01*
X131879535Y-83461523D01*
X131731483Y-83438073D01*
X131668349Y-83408143D01*
X131663201Y-83403281D01*
X130810819Y-82550898D01*
X130777334Y-82489575D01*
X130774500Y-82463217D01*
X130774500Y-80984059D01*
X130794185Y-80917020D01*
X130846989Y-80871265D01*
X130916147Y-80861321D01*
X130954792Y-80873573D01*
X130958021Y-80875218D01*
X131075776Y-80935218D01*
X131075778Y-80935218D01*
X131075781Y-80935220D01*
X131180137Y-80969127D01*
X131270465Y-80998477D01*
X131371557Y-81014488D01*
X131472648Y-81030500D01*
X131472649Y-81030500D01*
X131677351Y-81030500D01*
X131677352Y-81030500D01*
X131879534Y-80998477D01*
X132074219Y-80935220D01*
X132256610Y-80842287D01*
X132377877Y-80754181D01*
X132443683Y-80730702D01*
X132450762Y-80730500D01*
X134631821Y-80730500D01*
X134698860Y-80750185D01*
X134704700Y-80754177D01*
X134743390Y-80782287D01*
X134829561Y-80826193D01*
X134925776Y-80875218D01*
X134925778Y-80875218D01*
X134925781Y-80875220D01*
X135030137Y-80909127D01*
X135120465Y-80938477D01*
X135221557Y-80954488D01*
X135322648Y-80970500D01*
X135322649Y-80970500D01*
X135527351Y-80970500D01*
X135527352Y-80970500D01*
X135729534Y-80938477D01*
X135924219Y-80875220D01*
X136106610Y-80782287D01*
X136199590Y-80714732D01*
X136272213Y-80661971D01*
X136272215Y-80661968D01*
X136272219Y-80661966D01*
X136416966Y-80517219D01*
X136416968Y-80517215D01*
X136416971Y-80517213D01*
X136471640Y-80441966D01*
X136537287Y-80351610D01*
X136630220Y-80169219D01*
X136693477Y-79974534D01*
X136725500Y-79772352D01*
X136725500Y-79567648D01*
X136693477Y-79365466D01*
X136690914Y-79357579D01*
X136630218Y-79170776D01*
X136596503Y-79104607D01*
X136537287Y-78988390D01*
X136506101Y-78945466D01*
X136416971Y-78822786D01*
X136272213Y-78678028D01*
X136106613Y-78557715D01*
X136106612Y-78557714D01*
X136106610Y-78557713D01*
X136049653Y-78528691D01*
X135924223Y-78464781D01*
X135729534Y-78401522D01*
X135554078Y-78373733D01*
X135527352Y-78369500D01*
X135322648Y-78369500D01*
X135298329Y-78373351D01*
X135120465Y-78401522D01*
X134925776Y-78464781D01*
X134743386Y-78557715D01*
X134577786Y-78678028D01*
X134577782Y-78678032D01*
X134562634Y-78693181D01*
X134501311Y-78726666D01*
X134474953Y-78729500D01*
X132450762Y-78729500D01*
X132383723Y-78709815D01*
X132377877Y-78705818D01*
X132351750Y-78686836D01*
X132256610Y-78617713D01*
X132178618Y-78577974D01*
X132074223Y-78524781D01*
X131945076Y-78482819D01*
X131942803Y-78481265D01*
X131940060Y-78481069D01*
X131914133Y-78461660D01*
X131887401Y-78443381D01*
X131886330Y-78440847D01*
X131884127Y-78439198D01*
X131872808Y-78408851D01*
X131860203Y-78379022D01*
X131860672Y-78376310D01*
X131859711Y-78373733D01*
X131866595Y-78342086D01*
X131872118Y-78310176D01*
X131874156Y-78307327D01*
X131874563Y-78305460D01*
X131895710Y-78277210D01*
X132016104Y-78156818D01*
X132077428Y-78123334D01*
X132103785Y-78120500D01*
X132373543Y-78120500D01*
X132406377Y-78113968D01*
X132489827Y-78097369D01*
X132566836Y-78082051D01*
X132620165Y-78059961D01*
X132748914Y-78006632D01*
X132912782Y-77897139D01*
X133052139Y-77757782D01*
X133052140Y-77757779D01*
X133323103Y-77486815D01*
X133384425Y-77453333D01*
X133410783Y-77450499D01*
X134342871Y-77450499D01*
X134342872Y-77450499D01*
X134402483Y-77444091D01*
X134537331Y-77393796D01*
X134652546Y-77307546D01*
X134738796Y-77192331D01*
X134789091Y-77057483D01*
X134795500Y-76997873D01*
X134795499Y-76392181D01*
X134795499Y-75802129D01*
X134795498Y-75802123D01*
X134789091Y-75742516D01*
X134738797Y-75607671D01*
X134738793Y-75607664D01*
X134652547Y-75492455D01*
X134652544Y-75492452D01*
X134537335Y-75406206D01*
X134537328Y-75406202D01*
X134402482Y-75355908D01*
X134402483Y-75355908D01*
X134342883Y-75349501D01*
X134342881Y-75349500D01*
X134342873Y-75349500D01*
X134342865Y-75349500D01*
X132849500Y-75349500D01*
X132840814Y-75346949D01*
X132831853Y-75348238D01*
X132807812Y-75337259D01*
X132782461Y-75329815D01*
X132776533Y-75322974D01*
X132768297Y-75319213D01*
X132754007Y-75296978D01*
X132736706Y-75277011D01*
X132734418Y-75266496D01*
X132730523Y-75260435D01*
X132725500Y-75225500D01*
X132725500Y-75034500D01*
X132745185Y-74967461D01*
X132797989Y-74921706D01*
X132849500Y-74910500D01*
X134063555Y-74910500D01*
X134063556Y-74910499D01*
X134193657Y-74895841D01*
X134358606Y-74838122D01*
X134506576Y-74745147D01*
X134630147Y-74621576D01*
X134723122Y-74473606D01*
X134780841Y-74308657D01*
X134795500Y-74178552D01*
X134795500Y-73541448D01*
X134780841Y-73411343D01*
X134723122Y-73246394D01*
X134630147Y-73098424D01*
X134506576Y-72974853D01*
X134358606Y-72881878D01*
X134358605Y-72881877D01*
X134358604Y-72881877D01*
X134193658Y-72824159D01*
X134193648Y-72824157D01*
X134063558Y-72809500D01*
X134063552Y-72809500D01*
X133400830Y-72809500D01*
X133333791Y-72789815D01*
X133331939Y-72788602D01*
X133187920Y-72692371D01*
X133187911Y-72692366D01*
X133099484Y-72655739D01*
X133059165Y-72639038D01*
X133005836Y-72616949D01*
X133005832Y-72616948D01*
X133005828Y-72616946D01*
X132909188Y-72597724D01*
X132812544Y-72578500D01*
X132812541Y-72578500D01*
X127305309Y-72578500D01*
X127266991Y-72572431D01*
X127079536Y-72511523D01*
X126944746Y-72490174D01*
X126877352Y-72479500D01*
X126672648Y-72479500D01*
X126648329Y-72483351D01*
X126470465Y-72511522D01*
X126275776Y-72574781D01*
X126093386Y-72667715D01*
X125927786Y-72788028D01*
X125783028Y-72932786D01*
X125662715Y-73098386D01*
X125569781Y-73280778D01*
X125506522Y-73475468D01*
X125483073Y-73623514D01*
X125453143Y-73686649D01*
X125448281Y-73691796D01*
X119426899Y-79713181D01*
X119365576Y-79746666D01*
X119339218Y-79749500D01*
X115650762Y-79749500D01*
X115583723Y-79729815D01*
X115577877Y-79725818D01*
X115456613Y-79637715D01*
X115456612Y-79637714D01*
X115456610Y-79637713D01*
X115399653Y-79608691D01*
X115274223Y-79544781D01*
X115079534Y-79481522D01*
X114904995Y-79453878D01*
X114877352Y-79449500D01*
X114672648Y-79449500D01*
X114648329Y-79453351D01*
X114470465Y-79481522D01*
X114275776Y-79544781D01*
X114093386Y-79637715D01*
X113927786Y-79758028D01*
X113783028Y-79902786D01*
X113662715Y-80068386D01*
X113569781Y-80250776D01*
X113506522Y-80445465D01*
X113474500Y-80647648D01*
X111075500Y-80647648D01*
X111061980Y-80562287D01*
X111043477Y-80445465D01*
X110998565Y-80307241D01*
X110980220Y-80250781D01*
X110980218Y-80250778D01*
X110980218Y-80250776D01*
X110938662Y-80169219D01*
X110887287Y-80068390D01*
X110835834Y-79997570D01*
X110766971Y-79902786D01*
X110622213Y-79758028D01*
X110456613Y-79637715D01*
X110456612Y-79637714D01*
X110456610Y-79637713D01*
X110399653Y-79608691D01*
X110274223Y-79544781D01*
X110079534Y-79481522D01*
X109904995Y-79453878D01*
X109877352Y-79449500D01*
X109672648Y-79449500D01*
X109648329Y-79453351D01*
X109470465Y-79481522D01*
X109275776Y-79544781D01*
X109093386Y-79637715D01*
X108927786Y-79758028D01*
X108783028Y-79902786D01*
X108662715Y-80068386D01*
X108569781Y-80250776D01*
X108506522Y-80445465D01*
X108474500Y-80647648D01*
X106475500Y-80647648D01*
X106475500Y-73928711D01*
X108224500Y-73928711D01*
X108224500Y-74171288D01*
X108256161Y-74411785D01*
X108318947Y-74646104D01*
X108411773Y-74870205D01*
X108411777Y-74870214D01*
X108433974Y-74908661D01*
X108533064Y-75080289D01*
X108533066Y-75080292D01*
X108533067Y-75080293D01*
X108680733Y-75272736D01*
X108680739Y-75272743D01*
X108852256Y-75444260D01*
X108852263Y-75444266D01*
X108948977Y-75518477D01*
X109044711Y-75591936D01*
X109254788Y-75713224D01*
X109478900Y-75806054D01*
X109713211Y-75868838D01*
X109885926Y-75891576D01*
X109953711Y-75900500D01*
X109953712Y-75900500D01*
X110196289Y-75900500D01*
X110244388Y-75894167D01*
X110436789Y-75868838D01*
X110671100Y-75806054D01*
X110895212Y-75713224D01*
X111105289Y-75591936D01*
X111297738Y-75444265D01*
X111469265Y-75272738D01*
X111616936Y-75080289D01*
X111738224Y-74870212D01*
X111831054Y-74646100D01*
X111893838Y-74411789D01*
X111925500Y-74171288D01*
X111925500Y-73928712D01*
X111893838Y-73688211D01*
X111831054Y-73453900D01*
X111738224Y-73229788D01*
X111616936Y-73019711D01*
X111511173Y-72881878D01*
X111469266Y-72827263D01*
X111469260Y-72827256D01*
X111297743Y-72655739D01*
X111297736Y-72655733D01*
X111105293Y-72508067D01*
X111105292Y-72508066D01*
X111105289Y-72508064D01*
X110895212Y-72386776D01*
X110895205Y-72386773D01*
X110671104Y-72293947D01*
X110436785Y-72231161D01*
X110196289Y-72199500D01*
X110196288Y-72199500D01*
X109953712Y-72199500D01*
X109953711Y-72199500D01*
X109713214Y-72231161D01*
X109478895Y-72293947D01*
X109254794Y-72386773D01*
X109254785Y-72386777D01*
X109044706Y-72508067D01*
X108852263Y-72655733D01*
X108852256Y-72655739D01*
X108680739Y-72827256D01*
X108680733Y-72827263D01*
X108533067Y-73019706D01*
X108411777Y-73229785D01*
X108411773Y-73229794D01*
X108318947Y-73453895D01*
X108256161Y-73688214D01*
X108224500Y-73928711D01*
X106475500Y-73928711D01*
X106475500Y-71024500D01*
X106495185Y-70957461D01*
X106547989Y-70911706D01*
X106599500Y-70900500D01*
X189000500Y-70900500D01*
X189067539Y-70920185D01*
G37*
%TD.AperFunction*%
%TD*%
M02*
