M48
; DRILL file {KiCad 9.0.0} date 2026-02-26T12:38:42+0000
; FORMAT={-:-/ absolute / inch / decimal}
; #@! TF.CreationDate,2026-02-26T12:38:42+00:00
; #@! TF.GenerationSoftware,Kicad,Pcbnew,9.0.0
; #@! TF.FileFunction,Plated,1,2,PTH
FMAT,2
INCH
; #@! TA.AperFunction,Plated,PTH,ComponentDrill
T1C0.0295
; #@! TA.AperFunction,Plated,PTH,ComponentDrill
T2C0.0315
; #@! TA.AperFunction,Plated,PTH,ComponentDrill
T3C0.0394
; #@! TA.AperFunction,Plated,PTH,ComponentDrill
T4C0.0469
%
G90
G05
T1
X5.186Y-2.9579
X5.236Y-2.9079
X5.236Y-3.0079
X5.6951Y-4.1772
X5.7451Y-4.2272
X5.7951Y-4.1772
T2
X4.2943Y-3.7579
X4.3219Y-3.1791
X4.3589Y-3.9508
X4.4911Y-3.7579
X4.5187Y-3.1791
X4.7589Y-3.9508
X4.9211Y-4.013
X4.9211Y-4.313
X4.9911Y-2.9047
X4.9911Y-3.3047
X4.9911Y-3.4488
X4.9911Y-3.8488
X5.0211Y-4.013
X5.0211Y-4.313
X5.1211Y-4.013
X5.1211Y-4.313
X5.1801Y-3.139
X5.1801Y-3.3358
X5.1821Y-3.4488
X5.1821Y-3.8488
X5.2211Y-4.013
X5.2211Y-4.313
X5.3317Y-3.1366
X5.3317Y-3.5366
X5.3474Y-3.7539
X5.3474Y-3.9508
X5.4726Y-3.3823
X5.4726Y-3.4823
X5.4726Y-3.5823
X5.4726Y-3.6823
X5.4872Y-4.0669
X5.4872Y-4.1457
X5.4951Y-4.2953
X5.4951Y-4.374
X5.5089Y-3.876
X5.6963Y-4.4449
X5.7057Y-3.876
X5.7726Y-3.3823
X5.7726Y-3.4823
X5.7726Y-3.5823
X5.7726Y-3.6823
X5.7963Y-4.4449
X5.8876Y-3.6602
X5.8876Y-3.8465
X5.899Y-3.5008
X5.9163Y-2.9232
X5.9163Y-3.1201
X5.9163Y-4.4449
X5.9415Y-4.2972
X5.9539Y-3.2835
X6.0163Y-4.4449
X6.0539Y-3.2835
X6.0955Y-4.0217
X6.0955Y-4.1004
X6.0959Y-3.5008
X6.1384Y-4.2972
X6.1717Y-3.2835
X6.2717Y-3.2835
X6.2876Y-3.6602
X6.2876Y-3.8465
X6.3632Y-4.1551
X6.3632Y-4.4551
X6.4333Y-3.4736
X6.4333Y-3.5736
X6.4333Y-3.6736
X6.4333Y-3.7736
X6.4797Y-3.3098
X6.5266Y-2.9311
X6.5266Y-3.128
X6.6766Y-3.3098
X6.7333Y-3.4736
X6.7333Y-3.5736
X6.7333Y-3.6736
X6.7333Y-3.7736
X6.8553Y-3.3012
X6.8553Y-3.7012
X6.9848Y-3.6378
X7.1238Y-3.4055
X7.2124Y-3.1163
X7.2124Y-3.1951
X7.3207Y-3.4055
X7.3848Y-3.6378
T4
X4.3955Y-3.3827
X4.3955Y-3.4827
X4.3955Y-3.5827
X5.5187Y-3.0039
X5.6187Y-3.0039
X5.7187Y-3.0039
X6.1305Y-3.0039
X6.2305Y-3.0039
X6.3305Y-3.0039
X6.5541Y-4.2972
X6.6541Y-4.2972
X6.7896Y-3.0039
X6.8896Y-3.0039
X7.1986Y-3.8413
X7.1986Y-3.9413
X7.1986Y-4.0413
T3
G00X4.7785Y-3.3583
M15
G01X4.7785Y-3.3386
M16
G05
G00X4.7785Y-3.4764
M15
G01X4.7785Y-3.4567
M16
G05
G00X4.7785Y-3.5945
M15
G01X4.7785Y-3.5748
M16
G05
M30
