%TF.GenerationSoftware,KiCad,Pcbnew,9.0.0*%
%TF.CreationDate,2026-02-26T12:38:33+00:00*%
%TF.ProjectId,GuitarMixer,47756974-6172-44d6-9978-65722e6b6963,V1.3*%
%TF.SameCoordinates,Original*%
%TF.FileFunction,Soldermask,Top*%
%TF.FilePolarity,Negative*%
%FSLAX46Y46*%
G04 Gerber Fmt 4.6, Leading zero omitted, Abs format (unit mm)*
G04 Created by KiCad (PCBNEW 9.0.0) date 2026-02-26 12:38:33*
%MOMM*%
%LPD*%
G01*
G04 APERTURE LIST*
G04 Aperture macros list*
%AMRoundRect*
0 Rectangle with rounded corners*
0 $1 Rounding radius*
0 $2 $3 $4 $5 $6 $7 $8 $9 X,Y pos of 4 corners*
0 Add a 4 corners polygon primitive as box body*
4,1,4,$2,$3,$4,$5,$6,$7,$8,$9,$2,$3,0*
0 Add four circle primitives for the rounded corners*
1,1,$1+$1,$2,$3*
1,1,$1+$1,$4,$5*
1,1,$1+$1,$6,$7*
1,1,$1+$1,$8,$9*
0 Add four rect primitives between the rounded corners*
20,1,$1+$1,$2,$3,$4,$5,0*
20,1,$1+$1,$4,$5,$6,$7,0*
20,1,$1+$1,$6,$7,$8,$9,0*
20,1,$1+$1,$8,$9,$2,$3,0*%
G04 Aperture macros list end*
%ADD10C,1.600000*%
%ADD11O,1.600000X1.600000*%
%ADD12R,1.600000X1.600000*%
%ADD13C,3.200000*%
%ADD14RoundRect,0.250000X-0.550000X-0.550000X0.550000X-0.550000X0.550000X0.550000X-0.550000X0.550000X0*%
%ADD15RoundRect,0.250000X-0.620000X-0.845000X0.620000X-0.845000X0.620000X0.845000X-0.620000X0.845000X0*%
%ADD16O,1.740000X2.190000*%
%ADD17RoundRect,0.250000X0.845000X-0.620000X0.845000X0.620000X-0.845000X0.620000X-0.845000X-0.620000X0*%
%ADD18O,2.190000X1.740000*%
%ADD19R,1.000000X1.500000*%
%ADD20RoundRect,0.250000X-0.845000X0.620000X-0.845000X-0.620000X0.845000X-0.620000X0.845000X0.620000X0*%
%ADD21R,1.800000X1.100000*%
%ADD22RoundRect,0.275000X0.625000X-0.275000X0.625000X0.275000X-0.625000X0.275000X-0.625000X-0.275000X0*%
%ADD23RoundRect,0.250000X0.550000X-0.550000X0.550000X0.550000X-0.550000X0.550000X-0.550000X-0.550000X0*%
%ADD24O,2.000000X2.500000*%
%ADD25RoundRect,0.250000X0.620000X0.845000X-0.620000X0.845000X-0.620000X-0.845000X0.620000X-0.845000X0*%
%ADD26R,1.100000X1.800000*%
%ADD27RoundRect,0.275000X0.275000X0.625000X-0.275000X0.625000X-0.275000X-0.625000X0.275000X-0.625000X0*%
G04 APERTURE END LIST*
%TO.C,JP1*%
G36*
X120675000Y-75250000D02*
G01*
X122275000Y-75250000D01*
X122275000Y-76750000D01*
X120675000Y-76750000D01*
X120675000Y-75250000D01*
G37*
%TD*%
D10*
%TO.C,C2*%
X180945000Y-86500000D03*
X185945000Y-86500000D03*
%TD*%
%TO.C,R108*%
X151230000Y-83400000D03*
D11*
X153770000Y-83400000D03*
%TD*%
D12*
%TO.C,C5*%
X154825000Y-104150000D03*
D10*
X154825000Y-102150000D03*
%TD*%
D12*
%TO.C,C3*%
X183195000Y-81155113D03*
D10*
X183195000Y-79155113D03*
%TD*%
%TO.C,C8*%
X144925000Y-98450000D03*
X139925000Y-98450000D03*
%TD*%
%TO.C,C105*%
X150275000Y-79250000D03*
X150275000Y-74250000D03*
%TD*%
D13*
%TO.C,REF\u002A\u002A*%
X110075000Y-112500000D03*
%TD*%
D10*
%TO.C,C4*%
X155915000Y-109150000D03*
X150915000Y-109150000D03*
%TD*%
%TO.C,C101*%
X109075000Y-95450000D03*
X114075000Y-95450000D03*
%TD*%
%TO.C,C205*%
X165775000Y-79450000D03*
X165775000Y-74450000D03*
%TD*%
D12*
%TO.C,D1*%
X161625000Y-113160000D03*
D11*
X161625000Y-105540000D03*
%TD*%
D10*
%TO.C,C9*%
X169585000Y-84070000D03*
X164585000Y-84070000D03*
%TD*%
%TO.C,R1011*%
X126775000Y-73780000D03*
D11*
X126775000Y-83940000D03*
%TD*%
D10*
%TO.C,R2*%
X159705000Y-97700000D03*
D11*
X149545000Y-97700000D03*
%TD*%
D10*
%TO.C,R4*%
X174125000Y-94010000D03*
D11*
X174125000Y-83850000D03*
%TD*%
D10*
%TO.C,C203*%
X135825000Y-100350000D03*
X135825000Y-95350000D03*
%TD*%
D14*
%TO.C,U2*%
X163405000Y-88230000D03*
D10*
X163405000Y-90770000D03*
X163405000Y-93310000D03*
X163405000Y-95850000D03*
X171025000Y-95850000D03*
X171025000Y-93310000D03*
X171025000Y-90770000D03*
X171025000Y-88230000D03*
%TD*%
D15*
%TO.C,J5*%
X172455000Y-76300000D03*
D16*
X174995000Y-76300000D03*
%TD*%
D10*
%TO.C,C1*%
X154835000Y-88920000D03*
X149835000Y-88920000D03*
%TD*%
%TO.C,R3*%
X177415000Y-92400000D03*
D11*
X187575000Y-92400000D03*
%TD*%
D17*
%TO.C,J1*%
X111645000Y-91000000D03*
D18*
X111645000Y-88460000D03*
X111645000Y-85920000D03*
%TD*%
D10*
%TO.C,R201*%
X120875000Y-100350000D03*
D11*
X110715000Y-100350000D03*
%TD*%
D19*
%TO.C,JP1*%
X120175000Y-76000000D03*
X121475000Y-76000000D03*
X122775000Y-76000000D03*
%TD*%
D20*
%TO.C,J6*%
X182845000Y-97570000D03*
D18*
X182845000Y-100110000D03*
X182845000Y-102650000D03*
%TD*%
D10*
%TO.C,C102*%
X109775000Y-80750000D03*
X114775000Y-80750000D03*
%TD*%
%TO.C,R1*%
X159705000Y-92970000D03*
D11*
X149545000Y-92970000D03*
%TD*%
D10*
%TO.C,R208*%
X159300000Y-83400000D03*
D11*
X156760000Y-83400000D03*
%TD*%
D10*
%TO.C,R6*%
X144685000Y-112900000D03*
D11*
X147225000Y-112900000D03*
%TD*%
D10*
%TO.C,R102*%
X131625000Y-87600000D03*
D11*
X131625000Y-97760000D03*
%TD*%
D10*
%TO.C,R1012*%
X126775000Y-87600000D03*
D11*
X126775000Y-97760000D03*
%TD*%
D13*
%TO.C,REF\u002A\u002A*%
X185725000Y-74050000D03*
%TD*%
D10*
%TO.C,R5*%
X150275000Y-112900000D03*
D11*
X152815000Y-112900000D03*
%TD*%
D21*
%TO.C,Q1*%
X133395000Y-76400000D03*
D22*
X131325000Y-75130000D03*
X133395000Y-73860000D03*
%TD*%
D13*
%TO.C,REF\u002A\u002A*%
X110075000Y-74050000D03*
%TD*%
D12*
%TO.C,C7*%
X139575000Y-111100000D03*
D10*
X139575000Y-109100000D03*
%TD*%
D14*
%TO.C,U1*%
X139005000Y-85910000D03*
D10*
X139005000Y-88450000D03*
X139005000Y-90990000D03*
X139005000Y-93530000D03*
X146625000Y-93530000D03*
X146625000Y-90990000D03*
X146625000Y-88450000D03*
X146625000Y-85910000D03*
%TD*%
D23*
%TO.C,U4*%
X124995000Y-109550000D03*
D10*
X127535000Y-109550000D03*
X130075000Y-109550000D03*
X132615000Y-109550000D03*
X132615000Y-101930000D03*
X130075000Y-101930000D03*
X127535000Y-101930000D03*
X124995000Y-101930000D03*
%TD*%
D15*
%TO.C,J2*%
X140175000Y-76300000D03*
D16*
X142715000Y-76300000D03*
X145255000Y-76300000D03*
%TD*%
D24*
%TO.C,SW1*%
X121375000Y-91050000D03*
X121375000Y-88050000D03*
X121375000Y-85050000D03*
%TD*%
D15*
%TO.C,J3*%
X155715000Y-76300000D03*
D16*
X158255000Y-76300000D03*
X160795000Y-76300000D03*
%TD*%
D12*
%TO.C,C6*%
X139375000Y-105300000D03*
D10*
X139375000Y-103300000D03*
%TD*%
D25*
%TO.C,J4*%
X169015000Y-109150000D03*
D16*
X166475000Y-109150000D03*
%TD*%
D26*
%TO.C,U3*%
X147195000Y-105700000D03*
D27*
X145925000Y-107770000D03*
X144655000Y-105700000D03*
%TD*%
D13*
%TO.C,REF\u002A\u002A*%
X185725000Y-112500000D03*
%TD*%
D10*
%TO.C,R103*%
X135425000Y-79670000D03*
D11*
X135425000Y-89830000D03*
%TD*%
D10*
%TO.C,C103*%
X131575000Y-84730000D03*
X131575000Y-79730000D03*
%TD*%
M02*
