%TF.GenerationSoftware,KiCad,Pcbnew,9.0.0*%
%TF.CreationDate,2025-09-08T12:12:35+01:00*%
%TF.ProjectId,GuitarMixer,47756974-6172-44d6-9978-65722e6b6963,V0.2*%
%TF.SameCoordinates,Original*%
%TF.FileFunction,Copper,L2,Bot*%
%TF.FilePolarity,Positive*%
%FSLAX46Y46*%
G04 Gerber Fmt 4.6, Leading zero omitted, Abs format (unit mm)*
G04 Created by KiCad (PCBNEW 9.0.0) date 2025-09-08 12:12:35*
%MOMM*%
%LPD*%
G01*
G04 APERTURE LIST*
G04 Aperture macros list*
%AMRoundRect*
0 Rectangle with rounded corners*
0 $1 Rounding radius*
0 $2 $3 $4 $5 $6 $7 $8 $9 X,Y pos of 4 corners*
0 Add a 4 corners polygon primitive as box body*
4,1,4,$2,$3,$4,$5,$6,$7,$8,$9,$2,$3,0*
0 Add four circle primitives for the rounded corners*
1,1,$1+$1,$2,$3*
1,1,$1+$1,$4,$5*
1,1,$1+$1,$6,$7*
1,1,$1+$1,$8,$9*
0 Add four rect primitives between the rounded corners*
20,1,$1+$1,$2,$3,$4,$5,0*
20,1,$1+$1,$4,$5,$6,$7,0*
20,1,$1+$1,$6,$7,$8,$9,0*
20,1,$1+$1,$8,$9,$2,$3,0*%
G04 Aperture macros list end*
%TA.AperFunction,ComponentPad*%
%ADD10R,1.600000X1.600000*%
%TD*%
%TA.AperFunction,ComponentPad*%
%ADD11C,1.600000*%
%TD*%
%TA.AperFunction,ComponentPad*%
%ADD12O,1.600000X1.600000*%
%TD*%
%TA.AperFunction,ComponentPad*%
%ADD13RoundRect,0.250000X0.845000X-0.620000X0.845000X0.620000X-0.845000X0.620000X-0.845000X-0.620000X0*%
%TD*%
%TA.AperFunction,ComponentPad*%
%ADD14O,2.190000X1.740000*%
%TD*%
%TA.AperFunction,ComponentPad*%
%ADD15RoundRect,0.250000X-0.620000X-0.845000X0.620000X-0.845000X0.620000X0.845000X-0.620000X0.845000X0*%
%TD*%
%TA.AperFunction,ComponentPad*%
%ADD16O,1.740000X2.190000*%
%TD*%
%TA.AperFunction,ComponentPad*%
%ADD17RoundRect,0.250000X-0.550000X-0.550000X0.550000X-0.550000X0.550000X0.550000X-0.550000X0.550000X0*%
%TD*%
%TA.AperFunction,ComponentPad*%
%ADD18C,2.340000*%
%TD*%
%TA.AperFunction,ComponentPad*%
%ADD19R,1.100000X1.800000*%
%TD*%
%TA.AperFunction,ComponentPad*%
%ADD20RoundRect,0.275000X-0.275000X-0.625000X0.275000X-0.625000X0.275000X0.625000X-0.275000X0.625000X0*%
%TD*%
%TA.AperFunction,ComponentPad*%
%ADD21RoundRect,0.250000X-0.845000X0.620000X-0.845000X-0.620000X0.845000X-0.620000X0.845000X0.620000X0*%
%TD*%
%TA.AperFunction,ComponentPad*%
%ADD22O,2.200000X1.800000*%
%TD*%
%TA.AperFunction,Conductor*%
%ADD23C,1.500000*%
%TD*%
%TA.AperFunction,Conductor*%
%ADD24C,1.200000*%
%TD*%
%TA.AperFunction,Conductor*%
%ADD25C,1.000000*%
%TD*%
%TA.AperFunction,Conductor*%
%ADD26C,0.800000*%
%TD*%
G04 APERTURE END LIST*
D10*
%TO.P,C7,1*%
%TO.N,+9VA*%
X62900000Y-45344888D03*
D11*
%TO.P,C7,2*%
%TO.N,Earth*%
X62900000Y-47344888D03*
%TD*%
%TO.P,R5,1*%
%TO.N,Net-(J2-Pin_2)*%
X31500000Y-57500000D03*
D12*
%TO.P,R5,2*%
%TO.N,Net-(U2A--)*%
X31500000Y-67660000D03*
%TD*%
D11*
%TO.P,R12,1*%
%TO.N,Net-(R12-Pad1)*%
X35920000Y-75000000D03*
D12*
%TO.P,R12,2*%
%TO.N,Net-(R10-Pad2)*%
X46080000Y-75000000D03*
%TD*%
D11*
%TO.P,R4,1*%
%TO.N,Net-(C3-Pad2)*%
X22920000Y-54500000D03*
D12*
%TO.P,R4,2*%
%TO.N,Net-(U1A-+)*%
X33080000Y-54500000D03*
%TD*%
D13*
%TO.P,J2,1,Pin_1*%
%TO.N,Earth*%
X26000000Y-67580000D03*
D14*
%TO.P,J2,2,Pin_2*%
%TO.N,Net-(J2-Pin_2)*%
X26000000Y-65040000D03*
%TO.P,J2,3,Pin_3*%
%TO.N,Net-(J2-Pin_3)*%
X26000000Y-62500000D03*
%TD*%
D15*
%TO.P,J4,1,Pin_1*%
%TO.N,Earth*%
X49960000Y-40500000D03*
D16*
%TO.P,J4,2,Pin_2*%
%TO.N,+9V*%
X52500000Y-40500000D03*
%TD*%
D11*
%TO.P,C3,1*%
%TO.N,Net-(Q1-S)*%
X27700000Y-50500000D03*
%TO.P,C3,2*%
%TO.N,Net-(C3-Pad2)*%
X22700000Y-50500000D03*
%TD*%
%TO.P,R11,1*%
%TO.N,Net-(U2B--)*%
X61000000Y-71080000D03*
D12*
%TO.P,R11,2*%
%TO.N,Net-(C9-Pad1)*%
X61000000Y-60920000D03*
%TD*%
D17*
%TO.P,U1,1*%
%TO.N,Net-(U1A--)*%
X36195000Y-60190000D03*
D11*
%TO.P,U1,2,-*%
X36195000Y-62730000D03*
%TO.P,U1,3,+*%
%TO.N,Net-(U1A-+)*%
X36195000Y-65270000D03*
%TO.P,U1,4,V-*%
%TO.N,Earth*%
X36195000Y-67810000D03*
%TO.P,U1,5,+*%
%TO.N,Net-(U1B-+)*%
X43815000Y-67810000D03*
%TO.P,U1,6,-*%
%TO.N,Net-(U1B--)*%
X43815000Y-65270000D03*
%TO.P,U1,7*%
X43815000Y-62730000D03*
%TO.P,U1,8,V+*%
%TO.N,+9VA*%
X43815000Y-60190000D03*
%TD*%
%TO.P,C2,1*%
%TO.N,Net-(J1-Pin_3)*%
X22580000Y-46500000D03*
%TO.P,C2,2*%
%TO.N,Net-(Q1-G)*%
X27580000Y-46500000D03*
%TD*%
D17*
%TO.P,U2,1*%
%TO.N,Net-(R10-Pad2)*%
X49880000Y-71500000D03*
D11*
%TO.P,U2,2,-*%
%TO.N,Net-(U2A--)*%
X49880000Y-74040000D03*
%TO.P,U2,3,+*%
%TO.N,Net-(U2A-+)*%
X49880000Y-76580000D03*
%TO.P,U2,4,V-*%
%TO.N,Earth*%
X49880000Y-79120000D03*
%TO.P,U2,5,+*%
%TO.N,Net-(U2A-+)*%
X57500000Y-79120000D03*
%TO.P,U2,6,-*%
%TO.N,Net-(U2B--)*%
X57500000Y-76580000D03*
%TO.P,U2,7*%
%TO.N,Net-(C9-Pad1)*%
X57500000Y-74040000D03*
%TO.P,U2,8,V+*%
%TO.N,+9VA*%
X57500000Y-71500000D03*
%TD*%
%TO.P,C1,1*%
%TO.N,Net-(J1-Pin_3)*%
X31000000Y-43000000D03*
%TO.P,C1,2*%
%TO.N,Earth*%
X31000000Y-38000000D03*
%TD*%
D10*
%TO.P,D1,1,K*%
%TO.N,+9VA*%
X56500000Y-45310000D03*
D12*
%TO.P,D1,2,A*%
%TO.N,+9V*%
X56500000Y-37690000D03*
%TD*%
D15*
%TO.P,J1,1,Pin_1*%
%TO.N,Earth*%
X34420000Y-40500000D03*
D16*
%TO.P,J1,2,Pin_2*%
%TO.N,Net-(J1-Pin_2)*%
X36960000Y-40500000D03*
%TO.P,J1,3,Pin_3*%
%TO.N,Net-(J1-Pin_3)*%
X39500000Y-40500000D03*
%TD*%
D18*
%TO.P,TR1,1,1*%
%TO.N,Net-(R12-Pad1)*%
X33000000Y-80000000D03*
%TO.P,TR1,2,2*%
%TO.N,Net-(U2B--)*%
X35500000Y-85000000D03*
%TO.P,TR1,3,3*%
X38000000Y-80000000D03*
%TD*%
D11*
%TO.P,R6,1*%
%TO.N,Net-(U1B-+)*%
X32580000Y-71500000D03*
D12*
%TO.P,R6,2*%
%TO.N,Earth*%
X22420000Y-71500000D03*
%TD*%
D10*
%TO.P,C9,1*%
%TO.N,Net-(C9-Pad1)*%
X62500000Y-56000000D03*
D11*
%TO.P,C9,2*%
%TO.N,Net-(J5-Pin_2)*%
X62500000Y-58000000D03*
%TD*%
%TO.P,C6,1*%
%TO.N,Net-(U1B--)*%
X52000000Y-56000000D03*
%TO.P,C6,2*%
%TO.N,Net-(J3-Pin_3)*%
X57000000Y-56000000D03*
%TD*%
D15*
%TO.P,J5,1,Pin_1*%
%TO.N,Earth*%
X43460000Y-40500000D03*
D16*
%TO.P,J5,2,Pin_2*%
%TO.N,Net-(J5-Pin_2)*%
X46000000Y-40500000D03*
%TD*%
D11*
%TO.P,R10,1*%
%TO.N,Net-(U2A--)*%
X22420000Y-75000000D03*
D12*
%TO.P,R10,2*%
%TO.N,Net-(R10-Pad2)*%
X32580000Y-75000000D03*
%TD*%
D11*
%TO.P,R2,1*%
%TO.N,Net-(SW1-B)*%
X43420000Y-46500000D03*
D12*
%TO.P,R2,2*%
%TO.N,Earth*%
X53580000Y-46500000D03*
%TD*%
D19*
%TO.P,Q1,1,S*%
%TO.N,Net-(Q1-S)*%
X36730000Y-56170000D03*
D20*
%TO.P,Q1,2,D*%
%TO.N,+9VA*%
X38000000Y-54100000D03*
%TO.P,Q1,3,G*%
%TO.N,Net-(Q1-G)*%
X39270000Y-56170000D03*
%TD*%
D11*
%TO.P,R3,1*%
%TO.N,Net-(Q1-S)*%
X30300000Y-50200000D03*
D12*
%TO.P,R3,2*%
%TO.N,Earth*%
X40460000Y-50200000D03*
%TD*%
D11*
%TO.P,R7,1*%
%TO.N,Net-(J3-Pin_2)*%
X46080000Y-71500000D03*
D12*
%TO.P,R7,2*%
%TO.N,Net-(U2A--)*%
X35920000Y-71500000D03*
%TD*%
D11*
%TO.P,R1,1*%
%TO.N,Net-(Q1-G)*%
X30500000Y-46500000D03*
D12*
%TO.P,R1,2*%
%TO.N,Net-(SW1-B)*%
X40660000Y-46500000D03*
%TD*%
D11*
%TO.P,R13,1*%
%TO.N,Earth*%
X61000000Y-84080000D03*
D12*
%TO.P,R13,2*%
%TO.N,Net-(J5-Pin_2)*%
X61000000Y-73920000D03*
%TD*%
D11*
%TO.P,R8,1*%
%TO.N,Net-(U2A-+)*%
X47500000Y-68660000D03*
D12*
%TO.P,R8,2*%
%TO.N,+9VA*%
X47500000Y-58500000D03*
%TD*%
D10*
%TO.P,C8,1*%
%TO.N,Net-(U2A-+)*%
X44000000Y-79000000D03*
D11*
%TO.P,C8,2*%
%TO.N,Earth*%
X44000000Y-81000000D03*
%TD*%
%TO.P,C5,1*%
%TO.N,Net-(U1A--)*%
X28000000Y-58500000D03*
%TO.P,C5,2*%
%TO.N,Net-(J2-Pin_3)*%
X23000000Y-58500000D03*
%TD*%
%TO.P,R9,1*%
%TO.N,Earth*%
X47920000Y-83500000D03*
D12*
%TO.P,R9,2*%
%TO.N,Net-(U2A-+)*%
X58080000Y-83500000D03*
%TD*%
D21*
%TO.P,J3,1,Pin_1*%
%TO.N,Earth*%
X54000000Y-62000000D03*
D14*
%TO.P,J3,2,Pin_2*%
%TO.N,Net-(J3-Pin_2)*%
X54000000Y-64540000D03*
%TO.P,J3,3,Pin_3*%
%TO.N,Net-(J3-Pin_3)*%
X54000000Y-67080000D03*
%TD*%
D11*
%TO.P,C4,1*%
%TO.N,Net-(J1-Pin_2)*%
X44000000Y-55500000D03*
%TO.P,C4,2*%
%TO.N,Net-(U1B-+)*%
X49000000Y-55500000D03*
%TD*%
D22*
%TO.P,SW1,1,A*%
%TO.N,Earth*%
X54500000Y-51000000D03*
%TO.P,SW1,2,B*%
%TO.N,Net-(SW1-B)*%
X51500000Y-51000000D03*
%TO.P,SW1,3*%
%TO.N,N/C*%
X48500000Y-51000000D03*
%TD*%
D23*
%TO.N,Earth*%
X63051000Y-82029000D02*
X61000000Y-84080000D01*
D24*
X47264000Y-37804000D02*
X49960000Y-40500000D01*
X32494527Y-65259000D02*
X30505473Y-65259000D01*
X58080000Y-87000000D02*
X61000000Y-84080000D01*
X35045527Y-67810000D02*
X32494527Y-65259000D01*
X62900000Y-49501000D02*
X62900000Y-47344888D01*
X64401000Y-53975000D02*
X64401000Y-67701000D01*
X36195000Y-67810000D02*
X35045527Y-67810000D01*
X47599000Y-81401000D02*
X47920000Y-81080000D01*
X41599000Y-81401000D02*
X47599000Y-81401000D01*
X45821000Y-47494527D02*
X43115527Y-50200000D01*
X43460000Y-39320478D02*
X44976478Y-37804000D01*
D23*
X63051000Y-69051000D02*
X63051000Y-82029000D01*
D24*
X33500000Y-40500000D02*
X31000000Y-38000000D01*
X40764000Y-37804000D02*
X43460000Y-40500000D01*
X61413500Y-50987500D02*
X64401000Y-53975000D01*
X43460000Y-40500000D02*
X43460000Y-41679522D01*
X47920000Y-81080000D02*
X49880000Y-79120000D01*
X30505473Y-65259000D02*
X28184473Y-67580000D01*
X43460000Y-41679522D02*
X45821000Y-44040522D01*
X47920000Y-83500000D02*
X47920000Y-81080000D01*
D23*
X54000000Y-62000000D02*
X56000000Y-62000000D01*
D24*
X49960000Y-40500000D02*
X49960000Y-42880000D01*
X61401000Y-51000000D02*
X62900000Y-49501000D01*
X35936478Y-37804000D02*
X40764000Y-37804000D01*
X47920000Y-83500000D02*
X51420000Y-87000000D01*
X41599000Y-73214000D02*
X41599000Y-81401000D01*
X53580000Y-50080000D02*
X54500000Y-51000000D01*
X43115527Y-50200000D02*
X40460000Y-50200000D01*
X26000000Y-67580000D02*
X26000000Y-67920000D01*
X34420000Y-40500000D02*
X34420000Y-39320478D01*
X34420000Y-40500000D02*
X33500000Y-40500000D01*
X44976478Y-37804000D02*
X47264000Y-37804000D01*
X54500000Y-51000000D02*
X61401000Y-51000000D01*
X49960000Y-42880000D02*
X53580000Y-46500000D01*
X61401000Y-51000000D02*
X61413500Y-50987500D01*
X43460000Y-40500000D02*
X43460000Y-39320478D01*
X34420000Y-39320478D02*
X35936478Y-37804000D01*
D23*
X56000000Y-62000000D02*
X63051000Y-69051000D01*
D24*
X45821000Y-44040522D02*
X45821000Y-47494527D01*
X28184473Y-67580000D02*
X26000000Y-67580000D01*
X51420000Y-87000000D02*
X58080000Y-87000000D01*
X36195000Y-67810000D02*
X41599000Y-73214000D01*
X26000000Y-67920000D02*
X22420000Y-71500000D01*
X53580000Y-46500000D02*
X53580000Y-50080000D01*
X64401000Y-67701000D02*
X63051000Y-69051000D01*
D23*
%TO.N,Net-(Q1-G)*%
X27580000Y-46500000D02*
X30500000Y-46500000D01*
D25*
%TO.N,Net-(C3-Pad2)*%
X22700000Y-50500000D02*
X22700000Y-54280000D01*
X22700000Y-54280000D02*
X22920000Y-54500000D01*
D26*
%TO.N,Net-(U1B--)*%
X46239681Y-62730000D02*
X52000000Y-56969681D01*
X43815000Y-65270000D02*
X43815000Y-62730000D01*
X43815000Y-62730000D02*
X46239681Y-62730000D01*
X52000000Y-56969681D02*
X52000000Y-56000000D01*
%TO.N,+9VA*%
X45662422Y-68368156D02*
X44519578Y-69511000D01*
D24*
X41500000Y-57875000D02*
X41500000Y-54839316D01*
D26*
X45662422Y-66959000D02*
X45662422Y-68368156D01*
D24*
X41500000Y-54839316D02*
X40329684Y-53669000D01*
D26*
X54454580Y-71500000D02*
X49913580Y-66959000D01*
X42114000Y-61891000D02*
X43815000Y-60190000D01*
X42114000Y-68514578D02*
X42114000Y-61891000D01*
D24*
X40329684Y-53669000D02*
X38000000Y-53669000D01*
D26*
X43110422Y-69511000D02*
X42114000Y-68514578D01*
X44519578Y-69511000D02*
X43110422Y-69511000D01*
D24*
X45505000Y-58500000D02*
X43815000Y-60190000D01*
D26*
X49913580Y-66959000D02*
X45662422Y-66959000D01*
D24*
X43815000Y-60190000D02*
X41500000Y-57875000D01*
X47500000Y-58500000D02*
X45505000Y-58500000D01*
D26*
X57500000Y-71500000D02*
X54454580Y-71500000D01*
%TO.N,Net-(U2A-+)*%
X49774688Y-68660000D02*
X51581000Y-70466312D01*
X49880000Y-76580000D02*
X47460000Y-79000000D01*
X54960000Y-76580000D02*
X57500000Y-79120000D01*
X51581000Y-70466312D02*
X51581000Y-74879000D01*
X57500000Y-79120000D02*
X57500000Y-82920000D01*
X49880000Y-76580000D02*
X54960000Y-76580000D01*
X57500000Y-82920000D02*
X58080000Y-83500000D01*
X51581000Y-74879000D02*
X49880000Y-76580000D01*
X47460000Y-79000000D02*
X44000000Y-79000000D01*
X47500000Y-68660000D02*
X49774688Y-68660000D01*
D23*
%TO.N,+9V*%
X52500000Y-40500000D02*
X53690000Y-40500000D01*
X53690000Y-40500000D02*
X56500000Y-37690000D01*
D25*
%TO.N,Net-(J2-Pin_2)*%
X26000000Y-65040000D02*
X27460000Y-65040000D01*
X31500000Y-61000000D02*
X31500000Y-57500000D01*
X27460000Y-65040000D02*
X31500000Y-61000000D01*
D24*
%TO.N,Net-(SW1-B)*%
X40660000Y-46500000D02*
X43420000Y-46500000D01*
D25*
%TO.N,Net-(U1A-+)*%
X36195000Y-65270000D02*
X35063630Y-65270000D01*
X33879999Y-64086369D02*
X33879999Y-55299999D01*
X35063630Y-65270000D02*
X33879999Y-64086369D01*
X33879999Y-55299999D02*
X33080000Y-54500000D01*
D26*
%TO.N,Net-(U2A--)*%
X32080000Y-67660000D02*
X35920000Y-71500000D01*
X24160000Y-75000000D02*
X31500000Y-67660000D01*
X31500000Y-67660000D02*
X32080000Y-67660000D01*
X22420000Y-75000000D02*
X24160000Y-75000000D01*
%TO.N,Net-(R10-Pad2)*%
X46380000Y-75000000D02*
X49880000Y-71500000D01*
X46080000Y-75000000D02*
X46380000Y-75000000D01*
%TO.N,Net-(U2B--)*%
X35500000Y-85000000D02*
X35500000Y-82500000D01*
X57500000Y-76580000D02*
X59201000Y-74879000D01*
X59201000Y-72879000D02*
X61000000Y-71080000D01*
X35500000Y-82500000D02*
X38000000Y-80000000D01*
X59201000Y-74879000D02*
X59201000Y-72879000D01*
%TO.N,Net-(R12-Pad1)*%
X35920000Y-77080000D02*
X33000000Y-80000000D01*
X35920000Y-75000000D02*
X35920000Y-77080000D01*
D25*
%TO.N,Net-(Q1-S)*%
X27700000Y-50500000D02*
X30000000Y-50500000D01*
X36730000Y-55530000D02*
X36730000Y-55770000D01*
X31400000Y-50200000D02*
X36730000Y-55530000D01*
X30300000Y-50200000D02*
X31400000Y-50200000D01*
X30000000Y-50500000D02*
X30300000Y-50200000D01*
D23*
%TO.N,Net-(J1-Pin_3)*%
X31000000Y-43000000D02*
X37684547Y-43000000D01*
X31000000Y-43000000D02*
X30200001Y-43799999D01*
X39500000Y-41184547D02*
X39500000Y-40500000D01*
X25280001Y-43799999D02*
X22580000Y-46500000D01*
X37684547Y-43000000D02*
X39500000Y-41184547D01*
X30200001Y-43799999D02*
X25280001Y-43799999D01*
%TO.N,Net-(J2-Pin_3)*%
X26000000Y-62500000D02*
X26000000Y-61500000D01*
X26000000Y-61500000D02*
X23000000Y-58500000D01*
D25*
%TO.N,Net-(J5-Pin_2)*%
X47322000Y-49431002D02*
X46499000Y-50254001D01*
X46499000Y-51745999D02*
X48552001Y-53799000D01*
X58801000Y-55254001D02*
X58801000Y-57699000D01*
X48552001Y-53799000D02*
X57345999Y-53799000D01*
X58801000Y-57699000D02*
X59102000Y-58000000D01*
X46000000Y-41955366D02*
X47322000Y-43277366D01*
X46499000Y-50254001D02*
X46499000Y-51745999D01*
X57345999Y-53799000D02*
X58801000Y-55254001D01*
X59102000Y-58000000D02*
X62500000Y-58000000D01*
X46000000Y-40500000D02*
X46000000Y-41955366D01*
X47322000Y-43277366D02*
X47322000Y-49431002D01*
%TD*%
%TA.AperFunction,Conductor*%
%TO.N,Earth*%
G36*
X65442539Y-36020185D02*
G01*
X65488294Y-36072989D01*
X65499500Y-36124500D01*
X65499500Y-92375500D01*
X65479815Y-92442539D01*
X65427011Y-92488294D01*
X65375500Y-92499500D01*
X21624500Y-92499500D01*
X21557461Y-92479815D01*
X21511706Y-92427011D01*
X21500500Y-92375500D01*
X21500500Y-88878711D01*
X23149500Y-88878711D01*
X23149500Y-89121288D01*
X23181161Y-89361785D01*
X23243947Y-89596104D01*
X23336773Y-89820205D01*
X23336776Y-89820212D01*
X23458064Y-90030289D01*
X23458066Y-90030292D01*
X23458067Y-90030293D01*
X23605733Y-90222736D01*
X23605739Y-90222743D01*
X23777256Y-90394260D01*
X23777262Y-90394265D01*
X23969711Y-90541936D01*
X24179788Y-90663224D01*
X24403900Y-90756054D01*
X24638211Y-90818838D01*
X24818586Y-90842584D01*
X24878711Y-90850500D01*
X24878712Y-90850500D01*
X25121289Y-90850500D01*
X25169388Y-90844167D01*
X25361789Y-90818838D01*
X25596100Y-90756054D01*
X25820212Y-90663224D01*
X26030289Y-90541936D01*
X26222738Y-90394265D01*
X26394265Y-90222738D01*
X26541936Y-90030289D01*
X26663224Y-89820212D01*
X26756054Y-89596100D01*
X26818838Y-89361789D01*
X26850500Y-89121288D01*
X26850500Y-88878712D01*
X26850500Y-88878711D01*
X60149500Y-88878711D01*
X60149500Y-89121288D01*
X60181161Y-89361785D01*
X60243947Y-89596104D01*
X60336773Y-89820205D01*
X60336776Y-89820212D01*
X60458064Y-90030289D01*
X60458066Y-90030292D01*
X60458067Y-90030293D01*
X60605733Y-90222736D01*
X60605739Y-90222743D01*
X60777256Y-90394260D01*
X60777262Y-90394265D01*
X60969711Y-90541936D01*
X61179788Y-90663224D01*
X61403900Y-90756054D01*
X61638211Y-90818838D01*
X61818586Y-90842584D01*
X61878711Y-90850500D01*
X61878712Y-90850500D01*
X62121289Y-90850500D01*
X62169388Y-90844167D01*
X62361789Y-90818838D01*
X62596100Y-90756054D01*
X62820212Y-90663224D01*
X63030289Y-90541936D01*
X63222738Y-90394265D01*
X63394265Y-90222738D01*
X63541936Y-90030289D01*
X63663224Y-89820212D01*
X63756054Y-89596100D01*
X63818838Y-89361789D01*
X63850500Y-89121288D01*
X63850500Y-88878712D01*
X63818838Y-88638211D01*
X63756054Y-88403900D01*
X63663224Y-88179788D01*
X63541936Y-87969711D01*
X63394265Y-87777262D01*
X63394260Y-87777256D01*
X63222743Y-87605739D01*
X63222736Y-87605733D01*
X63030293Y-87458067D01*
X63030292Y-87458066D01*
X63030289Y-87458064D01*
X62820212Y-87336776D01*
X62820205Y-87336773D01*
X62596104Y-87243947D01*
X62361785Y-87181161D01*
X62121289Y-87149500D01*
X62121288Y-87149500D01*
X61878712Y-87149500D01*
X61878711Y-87149500D01*
X61638214Y-87181161D01*
X61403895Y-87243947D01*
X61179794Y-87336773D01*
X61179785Y-87336777D01*
X60969706Y-87458067D01*
X60777263Y-87605733D01*
X60777256Y-87605739D01*
X60605739Y-87777256D01*
X60605733Y-87777263D01*
X60458067Y-87969706D01*
X60336777Y-88179785D01*
X60336773Y-88179794D01*
X60243947Y-88403895D01*
X60181161Y-88638214D01*
X60149500Y-88878711D01*
X26850500Y-88878711D01*
X26818838Y-88638211D01*
X26756054Y-88403900D01*
X26663224Y-88179788D01*
X26541936Y-87969711D01*
X26394265Y-87777262D01*
X26394260Y-87777256D01*
X26222743Y-87605739D01*
X26222736Y-87605733D01*
X26030293Y-87458067D01*
X26030292Y-87458066D01*
X26030289Y-87458064D01*
X25820212Y-87336776D01*
X25820205Y-87336773D01*
X25596104Y-87243947D01*
X25361785Y-87181161D01*
X25121289Y-87149500D01*
X25121288Y-87149500D01*
X24878712Y-87149500D01*
X24878711Y-87149500D01*
X24638214Y-87181161D01*
X24403895Y-87243947D01*
X24179794Y-87336773D01*
X24179785Y-87336777D01*
X23969706Y-87458067D01*
X23777263Y-87605733D01*
X23777256Y-87605739D01*
X23605739Y-87777256D01*
X23605733Y-87777263D01*
X23458067Y-87969706D01*
X23336777Y-88179785D01*
X23336773Y-88179794D01*
X23243947Y-88403895D01*
X23181161Y-88638214D01*
X23149500Y-88878711D01*
X21500500Y-88878711D01*
X21500500Y-84890502D01*
X33829500Y-84890502D01*
X33829500Y-85109497D01*
X33840344Y-85191859D01*
X33858083Y-85326598D01*
X33914759Y-85538117D01*
X33998560Y-85740428D01*
X33998562Y-85740433D01*
X33998565Y-85740438D01*
X34108049Y-85930070D01*
X34241355Y-86103798D01*
X34241361Y-86103805D01*
X34396194Y-86258638D01*
X34396201Y-86258644D01*
X34569929Y-86391950D01*
X34759561Y-86501434D01*
X34759563Y-86501434D01*
X34759572Y-86501440D01*
X34961883Y-86585241D01*
X35173402Y-86641917D01*
X35390510Y-86670500D01*
X35390517Y-86670500D01*
X35609483Y-86670500D01*
X35609490Y-86670500D01*
X35826598Y-86641917D01*
X36038117Y-86585241D01*
X36240428Y-86501440D01*
X36430071Y-86391950D01*
X36603800Y-86258643D01*
X36758643Y-86103800D01*
X36891950Y-85930071D01*
X37001440Y-85740428D01*
X37085241Y-85538117D01*
X37141917Y-85326598D01*
X37170500Y-85109490D01*
X37170500Y-84890510D01*
X37141917Y-84673402D01*
X37085241Y-84461883D01*
X37001440Y-84259572D01*
X36982012Y-84225922D01*
X36891950Y-84069929D01*
X36758644Y-83896201D01*
X36758638Y-83896194D01*
X36603805Y-83741361D01*
X36603798Y-83741355D01*
X36449014Y-83622585D01*
X36446765Y-83619506D01*
X36443297Y-83617922D01*
X36426321Y-83591507D01*
X36407811Y-83566157D01*
X36406985Y-83561419D01*
X36405523Y-83559144D01*
X36400500Y-83524209D01*
X36400500Y-83397682D01*
X46620000Y-83397682D01*
X46620000Y-83602317D01*
X46652009Y-83804417D01*
X46715244Y-83999031D01*
X46808141Y-84181350D01*
X46808147Y-84181359D01*
X46840523Y-84225921D01*
X46840524Y-84225922D01*
X47520000Y-83546446D01*
X47520000Y-83552661D01*
X47547259Y-83654394D01*
X47599920Y-83745606D01*
X47674394Y-83820080D01*
X47765606Y-83872741D01*
X47867339Y-83900000D01*
X47873553Y-83900000D01*
X47194076Y-84579474D01*
X47238650Y-84611859D01*
X47420968Y-84704755D01*
X47615582Y-84767990D01*
X47817683Y-84800000D01*
X48022317Y-84800000D01*
X48224417Y-84767990D01*
X48419031Y-84704755D01*
X48601349Y-84611859D01*
X48645921Y-84579474D01*
X47966447Y-83900000D01*
X47972661Y-83900000D01*
X48074394Y-83872741D01*
X48165606Y-83820080D01*
X48240080Y-83745606D01*
X48292741Y-83654394D01*
X48320000Y-83552661D01*
X48320000Y-83546447D01*
X48999474Y-84225921D01*
X49031859Y-84181349D01*
X49124755Y-83999031D01*
X49187990Y-83804417D01*
X49220000Y-83602317D01*
X49220000Y-83397682D01*
X49187990Y-83195582D01*
X49124755Y-83000968D01*
X49031859Y-82818650D01*
X48999474Y-82774077D01*
X48999474Y-82774076D01*
X48320000Y-83453551D01*
X48320000Y-83447339D01*
X48292741Y-83345606D01*
X48240080Y-83254394D01*
X48165606Y-83179920D01*
X48074394Y-83127259D01*
X47972661Y-83100000D01*
X47966446Y-83100000D01*
X48645922Y-82420524D01*
X48645921Y-82420523D01*
X48601359Y-82388147D01*
X48601350Y-82388141D01*
X48419031Y-82295244D01*
X48224417Y-82232009D01*
X48022317Y-82200000D01*
X47817683Y-82200000D01*
X47615582Y-82232009D01*
X47420968Y-82295244D01*
X47238644Y-82388143D01*
X47194077Y-82420523D01*
X47194077Y-82420524D01*
X47873554Y-83100000D01*
X47867339Y-83100000D01*
X47765606Y-83127259D01*
X47674394Y-83179920D01*
X47599920Y-83254394D01*
X47547259Y-83345606D01*
X47520000Y-83447339D01*
X47520000Y-83453553D01*
X46840524Y-82774077D01*
X46840523Y-82774077D01*
X46808143Y-82818644D01*
X46715244Y-83000968D01*
X46652009Y-83195582D01*
X46620000Y-83397682D01*
X36400500Y-83397682D01*
X36400500Y-82924361D01*
X36420185Y-82857322D01*
X36436814Y-82836684D01*
X37593209Y-81680289D01*
X37654530Y-81646806D01*
X37697071Y-81645033D01*
X37890510Y-81670500D01*
X37890517Y-81670500D01*
X38109483Y-81670500D01*
X38109490Y-81670500D01*
X38326598Y-81641917D01*
X38538117Y-81585241D01*
X38740428Y-81501440D01*
X38930071Y-81391950D01*
X39103800Y-81258643D01*
X39258643Y-81103800D01*
X39391950Y-80930071D01*
X39501440Y-80740428D01*
X39585241Y-80538117D01*
X39641917Y-80326598D01*
X39670500Y-80109490D01*
X39670500Y-79890510D01*
X39641917Y-79673402D01*
X39585241Y-79461883D01*
X39501440Y-79259572D01*
X39419705Y-79118003D01*
X39391950Y-79069929D01*
X39258644Y-78896201D01*
X39258638Y-78896194D01*
X39103805Y-78741361D01*
X39103798Y-78741355D01*
X38930070Y-78608049D01*
X38740438Y-78498565D01*
X38740433Y-78498562D01*
X38740428Y-78498560D01*
X38538117Y-78414759D01*
X38538118Y-78414759D01*
X38538115Y-78414758D01*
X38432357Y-78386421D01*
X38326598Y-78358083D01*
X38289455Y-78353193D01*
X38109497Y-78329500D01*
X38109490Y-78329500D01*
X37890510Y-78329500D01*
X37890502Y-78329500D01*
X37683853Y-78356707D01*
X37673402Y-78358083D01*
X37640422Y-78366920D01*
X37461884Y-78414758D01*
X37343374Y-78463847D01*
X37259572Y-78498560D01*
X37259569Y-78498561D01*
X37259561Y-78498565D01*
X37069929Y-78608049D01*
X36896201Y-78741355D01*
X36896194Y-78741361D01*
X36741361Y-78896194D01*
X36741355Y-78896201D01*
X36608049Y-79069929D01*
X36498565Y-79259561D01*
X36498561Y-79259569D01*
X36498560Y-79259572D01*
X36481190Y-79301507D01*
X36414758Y-79461884D01*
X36358084Y-79673399D01*
X36358082Y-79673410D01*
X36329500Y-79890502D01*
X36329500Y-80109483D01*
X36329501Y-80109500D01*
X36354966Y-80302924D01*
X36344200Y-80371959D01*
X36319708Y-80406790D01*
X34800537Y-81925961D01*
X34761064Y-81985039D01*
X34761063Y-81985040D01*
X34701985Y-82073455D01*
X34668046Y-82155393D01*
X34634106Y-82237329D01*
X34634103Y-82237341D01*
X34599500Y-82411303D01*
X34599500Y-83524209D01*
X34579815Y-83591248D01*
X34550986Y-83622585D01*
X34396201Y-83741355D01*
X34396194Y-83741361D01*
X34241361Y-83896194D01*
X34241355Y-83896201D01*
X34108049Y-84069929D01*
X33998565Y-84259561D01*
X33998561Y-84259569D01*
X33998560Y-84259572D01*
X33963847Y-84343374D01*
X33914758Y-84461884D01*
X33858084Y-84673399D01*
X33858082Y-84673410D01*
X33829500Y-84890502D01*
X21500500Y-84890502D01*
X21500500Y-79890502D01*
X31329500Y-79890502D01*
X31329500Y-80109497D01*
X31344070Y-80220163D01*
X31358083Y-80326598D01*
X31414759Y-80538117D01*
X31498560Y-80740428D01*
X31498562Y-80740433D01*
X31498565Y-80740438D01*
X31608049Y-80930070D01*
X31741355Y-81103798D01*
X31741361Y-81103805D01*
X31896194Y-81258638D01*
X31896201Y-81258644D01*
X32069929Y-81391950D01*
X32259561Y-81501434D01*
X32259563Y-81501434D01*
X32259572Y-81501440D01*
X32461883Y-81585241D01*
X32673402Y-81641917D01*
X32890510Y-81670500D01*
X32890517Y-81670500D01*
X33109483Y-81670500D01*
X33109490Y-81670500D01*
X33326598Y-81641917D01*
X33538117Y-81585241D01*
X33740428Y-81501440D01*
X33930071Y-81391950D01*
X34103800Y-81258643D01*
X34258643Y-81103800D01*
X34391950Y-80930071D01*
X34501440Y-80740428D01*
X34585241Y-80538117D01*
X34641917Y-80326598D01*
X34670500Y-80109490D01*
X34670500Y-79890510D01*
X34645033Y-79697072D01*
X34655798Y-79628038D01*
X34680288Y-79593210D01*
X36619464Y-77654035D01*
X36674301Y-77571966D01*
X36718013Y-77506547D01*
X36743136Y-77445894D01*
X36785895Y-77342666D01*
X36820500Y-77168691D01*
X36820500Y-76991308D01*
X36820500Y-75990047D01*
X36840185Y-75923008D01*
X36856819Y-75902366D01*
X36878654Y-75880531D01*
X36911966Y-75847219D01*
X36911968Y-75847215D01*
X36911971Y-75847213D01*
X36986309Y-75744894D01*
X37032287Y-75681610D01*
X37125220Y-75499219D01*
X37188477Y-75304534D01*
X37220500Y-75102352D01*
X37220500Y-74897648D01*
X37188477Y-74695466D01*
X37125220Y-74500781D01*
X37125218Y-74500778D01*
X37125218Y-74500776D01*
X37083662Y-74419219D01*
X37032287Y-74318390D01*
X37024556Y-74307749D01*
X36911971Y-74152786D01*
X36767213Y-74008028D01*
X36601613Y-73887715D01*
X36601612Y-73887714D01*
X36601610Y-73887713D01*
X36544653Y-73858691D01*
X36419223Y-73794781D01*
X36224534Y-73731522D01*
X36049995Y-73703878D01*
X36022352Y-73699500D01*
X35817648Y-73699500D01*
X35793329Y-73703351D01*
X35615465Y-73731522D01*
X35420776Y-73794781D01*
X35238386Y-73887715D01*
X35072786Y-74008028D01*
X34928028Y-74152786D01*
X34807715Y-74318386D01*
X34714781Y-74500776D01*
X34651522Y-74695465D01*
X34619500Y-74897648D01*
X34619500Y-75102351D01*
X34651522Y-75304534D01*
X34714781Y-75499223D01*
X34769703Y-75607011D01*
X34802654Y-75671682D01*
X34807715Y-75681613D01*
X34928028Y-75847213D01*
X34983181Y-75902366D01*
X35016666Y-75963689D01*
X35019500Y-75990047D01*
X35019500Y-76655637D01*
X34999815Y-76722676D01*
X34983181Y-76743318D01*
X33406790Y-78319708D01*
X33345467Y-78353193D01*
X33302924Y-78354966D01*
X33109500Y-78329501D01*
X33109495Y-78329500D01*
X33109490Y-78329500D01*
X32890510Y-78329500D01*
X32890502Y-78329500D01*
X32683853Y-78356707D01*
X32673402Y-78358083D01*
X32640422Y-78366920D01*
X32461884Y-78414758D01*
X32343374Y-78463847D01*
X32259572Y-78498560D01*
X32259569Y-78498561D01*
X32259561Y-78498565D01*
X32069929Y-78608049D01*
X31896201Y-78741355D01*
X31896194Y-78741361D01*
X31741361Y-78896194D01*
X31741355Y-78896201D01*
X31608049Y-79069929D01*
X31498565Y-79259561D01*
X31498561Y-79259569D01*
X31498560Y-79259572D01*
X31481190Y-79301507D01*
X31414758Y-79461884D01*
X31358084Y-79673399D01*
X31358082Y-79673410D01*
X31329500Y-79890502D01*
X21500500Y-79890502D01*
X21500500Y-76182814D01*
X21520185Y-76115775D01*
X21572989Y-76070020D01*
X21642147Y-76060076D01*
X21697385Y-76082496D01*
X21733094Y-76108439D01*
X21738390Y-76112287D01*
X21854607Y-76171503D01*
X21920776Y-76205218D01*
X21920778Y-76205218D01*
X21920781Y-76205220D01*
X22025137Y-76239127D01*
X22115465Y-76268477D01*
X22159592Y-76275466D01*
X22317648Y-76300500D01*
X22317649Y-76300500D01*
X22522351Y-76300500D01*
X22522352Y-76300500D01*
X22724534Y-76268477D01*
X22919219Y-76205220D01*
X23101610Y-76112287D01*
X23194590Y-76044732D01*
X23267213Y-75991971D01*
X23267215Y-75991968D01*
X23267219Y-75991966D01*
X23322366Y-75936819D01*
X23383689Y-75903334D01*
X23410047Y-75900500D01*
X24248693Y-75900500D01*
X24248694Y-75900499D01*
X24422666Y-75865895D01*
X24504606Y-75831953D01*
X24586547Y-75798013D01*
X24712122Y-75714106D01*
X24734036Y-75699464D01*
X25535852Y-74897648D01*
X31279500Y-74897648D01*
X31279500Y-75102351D01*
X31311522Y-75304534D01*
X31374781Y-75499223D01*
X31429703Y-75607011D01*
X31462654Y-75671682D01*
X31467715Y-75681613D01*
X31588028Y-75847213D01*
X31732786Y-75991971D01*
X31855018Y-76080776D01*
X31898390Y-76112287D01*
X32014607Y-76171503D01*
X32080776Y-76205218D01*
X32080778Y-76205218D01*
X32080781Y-76205220D01*
X32185137Y-76239127D01*
X32275465Y-76268477D01*
X32319592Y-76275466D01*
X32477648Y-76300500D01*
X32477649Y-76300500D01*
X32682351Y-76300500D01*
X32682352Y-76300500D01*
X32884534Y-76268477D01*
X33079219Y-76205220D01*
X33261610Y-76112287D01*
X33354590Y-76044732D01*
X33427213Y-75991971D01*
X33427215Y-75991968D01*
X33427219Y-75991966D01*
X33571966Y-75847219D01*
X33571968Y-75847215D01*
X33571971Y-75847213D01*
X33646309Y-75744894D01*
X33692287Y-75681610D01*
X33785220Y-75499219D01*
X33848477Y-75304534D01*
X33880500Y-75102352D01*
X33880500Y-74897648D01*
X33848477Y-74695466D01*
X33785220Y-74500781D01*
X33785218Y-74500778D01*
X33785218Y-74500776D01*
X33743662Y-74419219D01*
X33692287Y-74318390D01*
X33684556Y-74307749D01*
X33571971Y-74152786D01*
X33427213Y-74008028D01*
X33261613Y-73887715D01*
X33261612Y-73887714D01*
X33261610Y-73887713D01*
X33204653Y-73858691D01*
X33079223Y-73794781D01*
X32884534Y-73731522D01*
X32709995Y-73703878D01*
X32682352Y-73699500D01*
X32477648Y-73699500D01*
X32453329Y-73703351D01*
X32275465Y-73731522D01*
X32080776Y-73794781D01*
X31898386Y-73887715D01*
X31732786Y-74008028D01*
X31588028Y-74152786D01*
X31467715Y-74318386D01*
X31374781Y-74500776D01*
X31311522Y-74695465D01*
X31279500Y-74897648D01*
X25535852Y-74897648D01*
X28128535Y-72304965D01*
X31436680Y-68996819D01*
X31498003Y-68963334D01*
X31524361Y-68960500D01*
X31602351Y-68960500D01*
X31602352Y-68960500D01*
X31804534Y-68928477D01*
X31936388Y-68885634D01*
X32006226Y-68883640D01*
X32062385Y-68915885D01*
X33263806Y-70117306D01*
X33297291Y-70178629D01*
X33292307Y-70248321D01*
X33250435Y-70304254D01*
X33184971Y-70328671D01*
X33119831Y-70315472D01*
X33079226Y-70294782D01*
X32884534Y-70231522D01*
X32709995Y-70203878D01*
X32682352Y-70199500D01*
X32477648Y-70199500D01*
X32453329Y-70203351D01*
X32275465Y-70231522D01*
X32080776Y-70294781D01*
X31898386Y-70387715D01*
X31732786Y-70508028D01*
X31588028Y-70652786D01*
X31467715Y-70818386D01*
X31374781Y-71000776D01*
X31311522Y-71195465D01*
X31279500Y-71397648D01*
X31279500Y-71602351D01*
X31311522Y-71804534D01*
X31374781Y-71999223D01*
X31467715Y-72181613D01*
X31588028Y-72347213D01*
X31732786Y-72491971D01*
X31871216Y-72592544D01*
X31898390Y-72612287D01*
X31991080Y-72659515D01*
X32080776Y-72705218D01*
X32080778Y-72705218D01*
X32080781Y-72705220D01*
X32185137Y-72739127D01*
X32275465Y-72768477D01*
X32376557Y-72784488D01*
X32477648Y-72800500D01*
X32477649Y-72800500D01*
X32682351Y-72800500D01*
X32682352Y-72800500D01*
X32884534Y-72768477D01*
X33079219Y-72705220D01*
X33261610Y-72612287D01*
X33370421Y-72533232D01*
X33427213Y-72491971D01*
X33427215Y-72491968D01*
X33427219Y-72491966D01*
X33571966Y-72347219D01*
X33571968Y-72347215D01*
X33571971Y-72347213D01*
X33624732Y-72274590D01*
X33692287Y-72181610D01*
X33785220Y-71999219D01*
X33848477Y-71804534D01*
X33880500Y-71602352D01*
X33880500Y-71397648D01*
X33872257Y-71345606D01*
X33848477Y-71195465D01*
X33803044Y-71055637D01*
X33785220Y-71000781D01*
X33785218Y-71000778D01*
X33785218Y-71000776D01*
X33764527Y-70960169D01*
X33751631Y-70891500D01*
X33777907Y-70826760D01*
X33835013Y-70786502D01*
X33904819Y-70783510D01*
X33962693Y-70816193D01*
X34583181Y-71436681D01*
X34616666Y-71498004D01*
X34619500Y-71524362D01*
X34619500Y-71602351D01*
X34651522Y-71804534D01*
X34714781Y-71999223D01*
X34807715Y-72181613D01*
X34928028Y-72347213D01*
X35072786Y-72491971D01*
X35211216Y-72592544D01*
X35238390Y-72612287D01*
X35331080Y-72659515D01*
X35420776Y-72705218D01*
X35420778Y-72705218D01*
X35420781Y-72705220D01*
X35525137Y-72739127D01*
X35615465Y-72768477D01*
X35716557Y-72784488D01*
X35817648Y-72800500D01*
X35817649Y-72800500D01*
X36022351Y-72800500D01*
X36022352Y-72800500D01*
X36224534Y-72768477D01*
X36419219Y-72705220D01*
X36601610Y-72612287D01*
X36710421Y-72533232D01*
X36767213Y-72491971D01*
X36767215Y-72491968D01*
X36767219Y-72491966D01*
X36911966Y-72347219D01*
X36911968Y-72347215D01*
X36911971Y-72347213D01*
X36964732Y-72274590D01*
X37032287Y-72181610D01*
X37125220Y-71999219D01*
X37188477Y-71804534D01*
X37220500Y-71602352D01*
X37220500Y-71397648D01*
X44779500Y-71397648D01*
X44779500Y-71602351D01*
X44811522Y-71804534D01*
X44874781Y-71999223D01*
X44967715Y-72181613D01*
X45088028Y-72347213D01*
X45232786Y-72491971D01*
X45371216Y-72592544D01*
X45398390Y-72612287D01*
X45491080Y-72659515D01*
X45580776Y-72705218D01*
X45580778Y-72705218D01*
X45580781Y-72705220D01*
X45685137Y-72739127D01*
X45775465Y-72768477D01*
X45876557Y-72784488D01*
X45977648Y-72800500D01*
X45977649Y-72800500D01*
X46182351Y-72800500D01*
X46182352Y-72800500D01*
X46384534Y-72768477D01*
X46579219Y-72705220D01*
X46761610Y-72612287D01*
X46870421Y-72533232D01*
X46927213Y-72491971D01*
X46927215Y-72491968D01*
X46927219Y-72491966D01*
X47071966Y-72347219D01*
X47071968Y-72347215D01*
X47071971Y-72347213D01*
X47124732Y-72274590D01*
X47192287Y-72181610D01*
X47285220Y-71999219D01*
X47348477Y-71804534D01*
X47380500Y-71602352D01*
X47380500Y-71397648D01*
X47372257Y-71345606D01*
X47348477Y-71195465D01*
X47303044Y-71055637D01*
X47285220Y-71000781D01*
X47285218Y-71000778D01*
X47285218Y-71000776D01*
X47233865Y-70899991D01*
X47192287Y-70818390D01*
X47169119Y-70786502D01*
X47071971Y-70652786D01*
X46927213Y-70508028D01*
X46761613Y-70387715D01*
X46761612Y-70387714D01*
X46761610Y-70387713D01*
X46673764Y-70342953D01*
X46579223Y-70294781D01*
X46384534Y-70231522D01*
X46209995Y-70203878D01*
X46182352Y-70199500D01*
X45977648Y-70199500D01*
X45953329Y-70203351D01*
X45775465Y-70231522D01*
X45580776Y-70294781D01*
X45398386Y-70387715D01*
X45232786Y-70508028D01*
X45088028Y-70652786D01*
X44967715Y-70818386D01*
X44874781Y-71000776D01*
X44811522Y-71195465D01*
X44779500Y-71397648D01*
X37220500Y-71397648D01*
X37212257Y-71345606D01*
X37188477Y-71195465D01*
X37143044Y-71055637D01*
X37125220Y-71000781D01*
X37125218Y-71000778D01*
X37125218Y-71000776D01*
X37073865Y-70899991D01*
X37032287Y-70818390D01*
X37009119Y-70786502D01*
X36911971Y-70652786D01*
X36767213Y-70508028D01*
X36601613Y-70387715D01*
X36601612Y-70387714D01*
X36601610Y-70387713D01*
X36513764Y-70342953D01*
X36419223Y-70294781D01*
X36224534Y-70231522D01*
X36049995Y-70203878D01*
X36022352Y-70199500D01*
X36022351Y-70199500D01*
X35944362Y-70199500D01*
X35877323Y-70179815D01*
X35856681Y-70163181D01*
X32654035Y-66960535D01*
X32654030Y-66960531D01*
X32594961Y-66921064D01*
X32594959Y-66921063D01*
X32578422Y-66910013D01*
X32566098Y-66901778D01*
X32534673Y-66871562D01*
X32491969Y-66812784D01*
X32347213Y-66668028D01*
X32181613Y-66547715D01*
X32181612Y-66547714D01*
X32181610Y-66547713D01*
X32124653Y-66518691D01*
X31999223Y-66454781D01*
X31804534Y-66391522D01*
X31616242Y-66361700D01*
X31602352Y-66359500D01*
X31397648Y-66359500D01*
X31383758Y-66361700D01*
X31195465Y-66391522D01*
X31000776Y-66454781D01*
X30818386Y-66547715D01*
X30652786Y-66668028D01*
X30508028Y-66812786D01*
X30387715Y-66978386D01*
X30294781Y-67160776D01*
X30231522Y-67355465D01*
X30199500Y-67557648D01*
X30199500Y-67635638D01*
X30179815Y-67702677D01*
X30163181Y-67723319D01*
X23823319Y-74063181D01*
X23761996Y-74096666D01*
X23735638Y-74099500D01*
X23410047Y-74099500D01*
X23343008Y-74079815D01*
X23322366Y-74063181D01*
X23267213Y-74008028D01*
X23101613Y-73887715D01*
X23101612Y-73887714D01*
X23101610Y-73887713D01*
X23044653Y-73858691D01*
X22919223Y-73794781D01*
X22724534Y-73731522D01*
X22549995Y-73703878D01*
X22522352Y-73699500D01*
X22317648Y-73699500D01*
X22293329Y-73703351D01*
X22115465Y-73731522D01*
X21920776Y-73794781D01*
X21738386Y-73887714D01*
X21697384Y-73917504D01*
X21631577Y-73940983D01*
X21563523Y-73925156D01*
X21514829Y-73875050D01*
X21500500Y-73817185D01*
X21500500Y-72682196D01*
X21520185Y-72615157D01*
X21572989Y-72569402D01*
X21642147Y-72559458D01*
X21697387Y-72581879D01*
X21738649Y-72611859D01*
X21920968Y-72704754D01*
X22115578Y-72767988D01*
X22170000Y-72776607D01*
X22170000Y-71815686D01*
X22174394Y-71820080D01*
X22265606Y-71872741D01*
X22367339Y-71900000D01*
X22472661Y-71900000D01*
X22574394Y-71872741D01*
X22665606Y-71820080D01*
X22670000Y-71815686D01*
X22670000Y-72776606D01*
X22724421Y-72767988D01*
X22919031Y-72704754D01*
X23101349Y-72611859D01*
X23266894Y-72491582D01*
X23266895Y-72491582D01*
X23411582Y-72346895D01*
X23411582Y-72346894D01*
X23531859Y-72181349D01*
X23624755Y-71999029D01*
X23687990Y-71804413D01*
X23696609Y-71750000D01*
X22735686Y-71750000D01*
X22740080Y-71745606D01*
X22792741Y-71654394D01*
X22820000Y-71552661D01*
X22820000Y-71447339D01*
X22792741Y-71345606D01*
X22740080Y-71254394D01*
X22735686Y-71250000D01*
X23696609Y-71250000D01*
X23687990Y-71195586D01*
X23624755Y-71000970D01*
X23531859Y-70818650D01*
X23411582Y-70653105D01*
X23411582Y-70653104D01*
X23266895Y-70508417D01*
X23101349Y-70388140D01*
X22919029Y-70295244D01*
X22724413Y-70232009D01*
X22670000Y-70223390D01*
X22670000Y-71184314D01*
X22665606Y-71179920D01*
X22574394Y-71127259D01*
X22472661Y-71100000D01*
X22367339Y-71100000D01*
X22265606Y-71127259D01*
X22174394Y-71179920D01*
X22170000Y-71184314D01*
X22170000Y-70223390D01*
X22115586Y-70232009D01*
X21920970Y-70295244D01*
X21738650Y-70388140D01*
X21697386Y-70418121D01*
X21631579Y-70441601D01*
X21563525Y-70425776D01*
X21514830Y-70375670D01*
X21500500Y-70317803D01*
X21500500Y-58876424D01*
X21520185Y-58809385D01*
X21572989Y-58763630D01*
X21642147Y-58753686D01*
X21705703Y-58782711D01*
X21742431Y-58838106D01*
X21794780Y-58999219D01*
X21882482Y-59171344D01*
X21887715Y-59181613D01*
X22008028Y-59347213D01*
X22008034Y-59347219D01*
X22152781Y-59491966D01*
X22318390Y-59612287D01*
X22352724Y-59629781D01*
X22384110Y-59652584D01*
X24508890Y-61777364D01*
X24542375Y-61838687D01*
X24537391Y-61908379D01*
X24531694Y-61921339D01*
X24504911Y-61973903D01*
X24504907Y-61973913D01*
X24438245Y-62179077D01*
X24404500Y-62392133D01*
X24404500Y-62607866D01*
X24430606Y-62772690D01*
X24438246Y-62820926D01*
X24504908Y-63026089D01*
X24602843Y-63218299D01*
X24729641Y-63392821D01*
X24882179Y-63545359D01*
X24985721Y-63620587D01*
X25053294Y-63669682D01*
X25095959Y-63725012D01*
X25101938Y-63794626D01*
X25069332Y-63856421D01*
X25053294Y-63870318D01*
X25009687Y-63902001D01*
X24882179Y-63994641D01*
X24882177Y-63994643D01*
X24882176Y-63994643D01*
X24729643Y-64147176D01*
X24729643Y-64147177D01*
X24729641Y-64147179D01*
X24675186Y-64222129D01*
X24602843Y-64321700D01*
X24504909Y-64513908D01*
X24438245Y-64719077D01*
X24404500Y-64932133D01*
X24404500Y-65147866D01*
X24438245Y-65360922D01*
X24438246Y-65360926D01*
X24504908Y-65566089D01*
X24602843Y-65758299D01*
X24729641Y-65932821D01*
X24729643Y-65932823D01*
X24872003Y-66075183D01*
X24905488Y-66136506D01*
X24900504Y-66206198D01*
X24858632Y-66262131D01*
X24836728Y-66275245D01*
X24835885Y-66275637D01*
X24686654Y-66367684D01*
X24562684Y-66491654D01*
X24470643Y-66640875D01*
X24470641Y-66640880D01*
X24415494Y-66807302D01*
X24415493Y-66807309D01*
X24405000Y-66910013D01*
X24405000Y-67330000D01*
X25457291Y-67330000D01*
X25445548Y-67350339D01*
X25405000Y-67501667D01*
X25405000Y-67658333D01*
X25445548Y-67809661D01*
X25457291Y-67830000D01*
X24405001Y-67830000D01*
X24405001Y-68249986D01*
X24415494Y-68352697D01*
X24470641Y-68519119D01*
X24470643Y-68519124D01*
X24562684Y-68668345D01*
X24686654Y-68792315D01*
X24835875Y-68884356D01*
X24835880Y-68884358D01*
X25002302Y-68939505D01*
X25002309Y-68939506D01*
X25105019Y-68949999D01*
X25749999Y-68949999D01*
X25750000Y-68949998D01*
X25750000Y-68122709D01*
X25770339Y-68134452D01*
X25921667Y-68175000D01*
X26078333Y-68175000D01*
X26229661Y-68134452D01*
X26250000Y-68122709D01*
X26250000Y-68949999D01*
X26894972Y-68949999D01*
X26894986Y-68949998D01*
X26997697Y-68939505D01*
X27164119Y-68884358D01*
X27164124Y-68884356D01*
X27313345Y-68792315D01*
X27437315Y-68668345D01*
X27529356Y-68519124D01*
X27529358Y-68519119D01*
X27584505Y-68352697D01*
X27584506Y-68352690D01*
X27594999Y-68249986D01*
X27595000Y-68249973D01*
X27595000Y-67830000D01*
X26542709Y-67830000D01*
X26554452Y-67809661D01*
X26595000Y-67658333D01*
X26595000Y-67501667D01*
X26554452Y-67350339D01*
X26542709Y-67330000D01*
X27594999Y-67330000D01*
X27594999Y-66910028D01*
X27594998Y-66910013D01*
X27584505Y-66807302D01*
X27529358Y-66640880D01*
X27529356Y-66640875D01*
X27437315Y-66491654D01*
X27313345Y-66367684D01*
X27157975Y-66271851D01*
X27159063Y-66270086D01*
X27114343Y-66230711D01*
X27095190Y-66163518D01*
X27115405Y-66096637D01*
X27168569Y-66051301D01*
X27219186Y-66040500D01*
X27558543Y-66040500D01*
X27595701Y-66033108D01*
X27704463Y-66011474D01*
X27751836Y-66002051D01*
X27812420Y-65976956D01*
X27933914Y-65926632D01*
X28097782Y-65817139D01*
X28237139Y-65677782D01*
X28237140Y-65677780D01*
X28244206Y-65670714D01*
X28244209Y-65670710D01*
X32137778Y-61777141D01*
X32137782Y-61777139D01*
X32277139Y-61637782D01*
X32386632Y-61473914D01*
X32386633Y-61473911D01*
X32386635Y-61473908D01*
X32427172Y-61376040D01*
X32451642Y-61316965D01*
X32462051Y-61291836D01*
X32500500Y-61098540D01*
X32500500Y-60901460D01*
X32500500Y-58375761D01*
X32505589Y-58358426D01*
X32505661Y-58340359D01*
X32518562Y-58314248D01*
X32520185Y-58308722D01*
X32520449Y-58308312D01*
X32522238Y-58305551D01*
X32612287Y-58181610D01*
X32647941Y-58111634D01*
X32651448Y-58106225D01*
X32673246Y-58087486D01*
X32692988Y-58066583D01*
X32699412Y-58064992D01*
X32704431Y-58060678D01*
X32732905Y-58056698D01*
X32760809Y-58049788D01*
X32767072Y-58051922D01*
X32773628Y-58051006D01*
X32799734Y-58063052D01*
X32826944Y-58072325D01*
X32831059Y-58077507D01*
X32837070Y-58080281D01*
X32852519Y-58104529D01*
X32870396Y-58127040D01*
X32871957Y-58135038D01*
X32874613Y-58139207D01*
X32874576Y-58148456D01*
X32879499Y-58173674D01*
X32879499Y-64184913D01*
X32916213Y-64369489D01*
X32917946Y-64378199D01*
X32917948Y-64378206D01*
X32993363Y-64560276D01*
X32993370Y-64560289D01*
X33102859Y-64724150D01*
X33102862Y-64724154D01*
X33246536Y-64867828D01*
X33246558Y-64867848D01*
X34283365Y-65904655D01*
X34283394Y-65904686D01*
X34425844Y-66047136D01*
X34425848Y-66047139D01*
X34589709Y-66156628D01*
X34589722Y-66156635D01*
X34718463Y-66209961D01*
X34768559Y-66230711D01*
X34771794Y-66232051D01*
X34833872Y-66244399D01*
X34866676Y-66250924D01*
X34965086Y-66270500D01*
X34965089Y-66270500D01*
X34965090Y-66270500D01*
X35162170Y-66270500D01*
X35319238Y-66270500D01*
X35386277Y-66290185D01*
X35392119Y-66294179D01*
X35513390Y-66382287D01*
X35606080Y-66429515D01*
X35606630Y-66429795D01*
X35657426Y-66477770D01*
X35674221Y-66545591D01*
X35651684Y-66611725D01*
X35606630Y-66650765D01*
X35513644Y-66698143D01*
X35469077Y-66730523D01*
X35469077Y-66730524D01*
X36148554Y-67410000D01*
X36142339Y-67410000D01*
X36040606Y-67437259D01*
X35949394Y-67489920D01*
X35874920Y-67564394D01*
X35822259Y-67655606D01*
X35795000Y-67757339D01*
X35795000Y-67763553D01*
X35115524Y-67084077D01*
X35115523Y-67084077D01*
X35083143Y-67128644D01*
X34990244Y-67310968D01*
X34927009Y-67505582D01*
X34895000Y-67707682D01*
X34895000Y-67912317D01*
X34927009Y-68114417D01*
X34990244Y-68309031D01*
X35083141Y-68491350D01*
X35083147Y-68491359D01*
X35115523Y-68535921D01*
X35115524Y-68535922D01*
X35795000Y-67856446D01*
X35795000Y-67862661D01*
X35822259Y-67964394D01*
X35874920Y-68055606D01*
X35949394Y-68130080D01*
X36040606Y-68182741D01*
X36142339Y-68210000D01*
X36148553Y-68210000D01*
X35469076Y-68889474D01*
X35513650Y-68921859D01*
X35695968Y-69014755D01*
X35890582Y-69077990D01*
X36092683Y-69110000D01*
X36297317Y-69110000D01*
X36499417Y-69077990D01*
X36694031Y-69014755D01*
X36876349Y-68921859D01*
X36920921Y-68889474D01*
X36241447Y-68210000D01*
X36247661Y-68210000D01*
X36349394Y-68182741D01*
X36440606Y-68130080D01*
X36515080Y-68055606D01*
X36567741Y-67964394D01*
X36595000Y-67862661D01*
X36595000Y-67856447D01*
X37274474Y-68535921D01*
X37306859Y-68491349D01*
X37399755Y-68309031D01*
X37462990Y-68114417D01*
X37495000Y-67912317D01*
X37495000Y-67707682D01*
X37462990Y-67505582D01*
X37399755Y-67310968D01*
X37306859Y-67128650D01*
X37274474Y-67084077D01*
X37274474Y-67084076D01*
X36595000Y-67763551D01*
X36595000Y-67757339D01*
X36567741Y-67655606D01*
X36515080Y-67564394D01*
X36440606Y-67489920D01*
X36349394Y-67437259D01*
X36247661Y-67410000D01*
X36241446Y-67410000D01*
X36920922Y-66730524D01*
X36920921Y-66730523D01*
X36876359Y-66698147D01*
X36876350Y-66698141D01*
X36783369Y-66650765D01*
X36732573Y-66602790D01*
X36715778Y-66534969D01*
X36738315Y-66468835D01*
X36783370Y-66429795D01*
X36783920Y-66429515D01*
X36876610Y-66382287D01*
X36975979Y-66310092D01*
X37042213Y-66261971D01*
X37042215Y-66261968D01*
X37042219Y-66261966D01*
X37186966Y-66117219D01*
X37186968Y-66117215D01*
X37186971Y-66117213D01*
X37246962Y-66034641D01*
X37307287Y-65951610D01*
X37400220Y-65769219D01*
X37463477Y-65574534D01*
X37495500Y-65372352D01*
X37495500Y-65167648D01*
X37463477Y-64965466D01*
X37452648Y-64932139D01*
X37400218Y-64770776D01*
X37366503Y-64704607D01*
X37307287Y-64588390D01*
X37286861Y-64560276D01*
X37186971Y-64422786D01*
X37042213Y-64278028D01*
X36876614Y-64157715D01*
X36851143Y-64144737D01*
X36783917Y-64110483D01*
X36733123Y-64062511D01*
X36716328Y-63994690D01*
X36738865Y-63928555D01*
X36783917Y-63889516D01*
X36876610Y-63842287D01*
X36914186Y-63814987D01*
X37042213Y-63721971D01*
X37042215Y-63721968D01*
X37042219Y-63721966D01*
X37186966Y-63577219D01*
X37186968Y-63577215D01*
X37186971Y-63577213D01*
X37276614Y-63453828D01*
X37307287Y-63411610D01*
X37400220Y-63229219D01*
X37463477Y-63034534D01*
X37495500Y-62832352D01*
X37495500Y-62627648D01*
X37463477Y-62425466D01*
X37452648Y-62392139D01*
X37434127Y-62335137D01*
X37400220Y-62230781D01*
X37400218Y-62230778D01*
X37400218Y-62230776D01*
X37346433Y-62125218D01*
X37307287Y-62048390D01*
X37253177Y-61973913D01*
X37186971Y-61882786D01*
X37042219Y-61738034D01*
X37042211Y-61738028D01*
X36948547Y-61669978D01*
X36905882Y-61614649D01*
X36899903Y-61545036D01*
X36932508Y-61483240D01*
X36982426Y-61451955D01*
X37064334Y-61424814D01*
X37213656Y-61332712D01*
X37337712Y-61208656D01*
X37429814Y-61059334D01*
X37484999Y-60892797D01*
X37495500Y-60790009D01*
X37495499Y-59589992D01*
X37484999Y-59487203D01*
X37429814Y-59320666D01*
X37337712Y-59171344D01*
X37213656Y-59047288D01*
X37115892Y-58986987D01*
X37064336Y-58955187D01*
X37064331Y-58955185D01*
X37018388Y-58939961D01*
X36897797Y-58900001D01*
X36897795Y-58900000D01*
X36795010Y-58889500D01*
X35594998Y-58889500D01*
X35594981Y-58889501D01*
X35492203Y-58900000D01*
X35492200Y-58900001D01*
X35325668Y-58955185D01*
X35325663Y-58955187D01*
X35176342Y-59047289D01*
X35092180Y-59131452D01*
X35030857Y-59164937D01*
X34961165Y-59159953D01*
X34905232Y-59118081D01*
X34880815Y-59052617D01*
X34880499Y-59043771D01*
X34880499Y-55394781D01*
X34900184Y-55327742D01*
X34952988Y-55281987D01*
X35022146Y-55272043D01*
X35085702Y-55301068D01*
X35092175Y-55307096D01*
X35643182Y-55858103D01*
X35676666Y-55919424D01*
X35679500Y-55945782D01*
X35679500Y-57117870D01*
X35679501Y-57117876D01*
X35685908Y-57177483D01*
X35736202Y-57312328D01*
X35736206Y-57312335D01*
X35822452Y-57427544D01*
X35822455Y-57427547D01*
X35937664Y-57513793D01*
X35937671Y-57513797D01*
X36072517Y-57564091D01*
X36072516Y-57564091D01*
X36079444Y-57564835D01*
X36132127Y-57570500D01*
X37327872Y-57570499D01*
X37387483Y-57564091D01*
X37522331Y-57513796D01*
X37637546Y-57427546D01*
X37723796Y-57312331D01*
X37774091Y-57177483D01*
X37780500Y-57117873D01*
X37780499Y-55624499D01*
X37783049Y-55615814D01*
X37781761Y-55606853D01*
X37792739Y-55582812D01*
X37800184Y-55557461D01*
X37807024Y-55551533D01*
X37810786Y-55543297D01*
X37833018Y-55529009D01*
X37852987Y-55511706D01*
X37863502Y-55509418D01*
X37869564Y-55505523D01*
X37904499Y-55500500D01*
X38095500Y-55500500D01*
X38162539Y-55520185D01*
X38208294Y-55572989D01*
X38219500Y-55624500D01*
X38219500Y-56838558D01*
X38234157Y-56968648D01*
X38234159Y-56968658D01*
X38286376Y-57117883D01*
X38291878Y-57133606D01*
X38384853Y-57281576D01*
X38508424Y-57405147D01*
X38656394Y-57498122D01*
X38821343Y-57555841D01*
X38821349Y-57555841D01*
X38821351Y-57555842D01*
X38847321Y-57558768D01*
X38951442Y-57570499D01*
X38951445Y-57570500D01*
X38951448Y-57570500D01*
X39588555Y-57570500D01*
X39588556Y-57570499D01*
X39718657Y-57555841D01*
X39883606Y-57498122D01*
X40031576Y-57405147D01*
X40155147Y-57281576D01*
X40170507Y-57257129D01*
X40222839Y-57210841D01*
X40291893Y-57200191D01*
X40355742Y-57228566D01*
X40394114Y-57286955D01*
X40399500Y-57323103D01*
X40399500Y-57961610D01*
X40425152Y-58123575D01*
X40426598Y-58132701D01*
X40480127Y-58297445D01*
X40558768Y-58451788D01*
X40660586Y-58591928D01*
X40660588Y-58591930D01*
X42312397Y-60243739D01*
X42345882Y-60305062D01*
X42340898Y-60374754D01*
X42312397Y-60419101D01*
X41414537Y-61316961D01*
X41392786Y-61349515D01*
X41375063Y-61376040D01*
X41315987Y-61464453D01*
X41290999Y-61524780D01*
X41288179Y-61531585D01*
X41288177Y-61531591D01*
X41248105Y-61628333D01*
X41248103Y-61628341D01*
X41215385Y-61792824D01*
X41215386Y-61792825D01*
X41213500Y-61802307D01*
X41213500Y-68603274D01*
X41248103Y-68777236D01*
X41248105Y-68777244D01*
X41282046Y-68859184D01*
X41315987Y-68941125D01*
X41365496Y-69015220D01*
X41386105Y-69046063D01*
X41414537Y-69088616D01*
X41414538Y-69088617D01*
X42410958Y-70085035D01*
X42489104Y-70163181D01*
X42536388Y-70210465D01*
X42569794Y-70232786D01*
X42683875Y-70309013D01*
X42731874Y-70328895D01*
X42847756Y-70376895D01*
X43021726Y-70411499D01*
X43021730Y-70411500D01*
X43021731Y-70411500D01*
X44608271Y-70411500D01*
X44608272Y-70411499D01*
X44782244Y-70376895D01*
X44864184Y-70342953D01*
X44946125Y-70309013D01*
X45034537Y-70249936D01*
X45093614Y-70210464D01*
X46123492Y-69180583D01*
X46184815Y-69147099D01*
X46254506Y-69152083D01*
X46310440Y-69193954D01*
X46321658Y-69211970D01*
X46387715Y-69341613D01*
X46508028Y-69507213D01*
X46652786Y-69651971D01*
X46807749Y-69764556D01*
X46818390Y-69772287D01*
X46934607Y-69831503D01*
X47000776Y-69865218D01*
X47000778Y-69865218D01*
X47000781Y-69865220D01*
X47105137Y-69899127D01*
X47195465Y-69928477D01*
X47296557Y-69944488D01*
X47397648Y-69960500D01*
X47397649Y-69960500D01*
X47602351Y-69960500D01*
X47602352Y-69960500D01*
X47804534Y-69928477D01*
X47999219Y-69865220D01*
X48181610Y-69772287D01*
X48274590Y-69704732D01*
X48347213Y-69651971D01*
X48347215Y-69651968D01*
X48347219Y-69651966D01*
X48402366Y-69596819D01*
X48463689Y-69563334D01*
X48490047Y-69560500D01*
X49350326Y-69560500D01*
X49417365Y-69580185D01*
X49438007Y-69596819D01*
X49829007Y-69987819D01*
X49862492Y-70049142D01*
X49857508Y-70118834D01*
X49815636Y-70174767D01*
X49750172Y-70199184D01*
X49741326Y-70199500D01*
X49279998Y-70199500D01*
X49279980Y-70199501D01*
X49177203Y-70210000D01*
X49177200Y-70210001D01*
X49010668Y-70265185D01*
X49010663Y-70265187D01*
X48861342Y-70357289D01*
X48737289Y-70481342D01*
X48645187Y-70630663D01*
X48645186Y-70630666D01*
X48590001Y-70797203D01*
X48590001Y-70797204D01*
X48590000Y-70797204D01*
X48579500Y-70899983D01*
X48579500Y-71475637D01*
X48559815Y-71542676D01*
X48543181Y-71563318D01*
X46420958Y-73685540D01*
X46359635Y-73719025D01*
X46313879Y-73720332D01*
X46182352Y-73699500D01*
X45977648Y-73699500D01*
X45953329Y-73703351D01*
X45775465Y-73731522D01*
X45580776Y-73794781D01*
X45398386Y-73887715D01*
X45232786Y-74008028D01*
X45088028Y-74152786D01*
X44967715Y-74318386D01*
X44874781Y-74500776D01*
X44811522Y-74695465D01*
X44779500Y-74897648D01*
X44779500Y-75102351D01*
X44811522Y-75304534D01*
X44874781Y-75499223D01*
X44929703Y-75607011D01*
X44962654Y-75671682D01*
X44967715Y-75681613D01*
X45088028Y-75847213D01*
X45232786Y-75991971D01*
X45355018Y-76080776D01*
X45398390Y-76112287D01*
X45514607Y-76171503D01*
X45580776Y-76205218D01*
X45580778Y-76205218D01*
X45580781Y-76205220D01*
X45685137Y-76239127D01*
X45775465Y-76268477D01*
X45819592Y-76275466D01*
X45977648Y-76300500D01*
X45977649Y-76300500D01*
X46182351Y-76300500D01*
X46182352Y-76300500D01*
X46384534Y-76268477D01*
X46579219Y-76205220D01*
X46761610Y-76112287D01*
X46854590Y-76044732D01*
X46927213Y-75991971D01*
X46927215Y-75991968D01*
X46927219Y-75991966D01*
X47071966Y-75847219D01*
X47071968Y-75847215D01*
X47071971Y-75847213D01*
X47146309Y-75744894D01*
X47192287Y-75681610D01*
X47285220Y-75499219D01*
X47339042Y-75333570D01*
X47369290Y-75284208D01*
X48398072Y-74255426D01*
X48459393Y-74221943D01*
X48529085Y-74226927D01*
X48585018Y-74268799D01*
X48608224Y-74323707D01*
X48611523Y-74344537D01*
X48674781Y-74539223D01*
X48706571Y-74601613D01*
X48754391Y-74695465D01*
X48767715Y-74721613D01*
X48888028Y-74887213D01*
X49032786Y-75031971D01*
X49161132Y-75125218D01*
X49198390Y-75152287D01*
X49269417Y-75188477D01*
X49291080Y-75199515D01*
X49341876Y-75247490D01*
X49358671Y-75315311D01*
X49336134Y-75381446D01*
X49291080Y-75420485D01*
X49198386Y-75467715D01*
X49032786Y-75588028D01*
X48888028Y-75732786D01*
X48767715Y-75898386D01*
X48674781Y-76080776D01*
X48611522Y-76275465D01*
X48579500Y-76477648D01*
X48579500Y-76555638D01*
X48559815Y-76622677D01*
X48543181Y-76643319D01*
X47123319Y-78063181D01*
X47061996Y-78096666D01*
X47035638Y-78099500D01*
X45382791Y-78099500D01*
X45315752Y-78079815D01*
X45269997Y-78027011D01*
X45266609Y-78018833D01*
X45243797Y-77957671D01*
X45243793Y-77957664D01*
X45157547Y-77842455D01*
X45157544Y-77842452D01*
X45042335Y-77756206D01*
X45042328Y-77756202D01*
X44907482Y-77705908D01*
X44907483Y-77705908D01*
X44847883Y-77699501D01*
X44847881Y-77699500D01*
X44847873Y-77699500D01*
X44847864Y-77699500D01*
X43152129Y-77699500D01*
X43152123Y-77699501D01*
X43092516Y-77705908D01*
X42957671Y-77756202D01*
X42957664Y-77756206D01*
X42842455Y-77842452D01*
X42842452Y-77842455D01*
X42756206Y-77957664D01*
X42756202Y-77957671D01*
X42705908Y-78092517D01*
X42699501Y-78152116D01*
X42699500Y-78152135D01*
X42699500Y-79847870D01*
X42699501Y-79847876D01*
X42705908Y-79907483D01*
X42756202Y-80042328D01*
X42756206Y-80042335D01*
X42806896Y-80110047D01*
X42842454Y-80157546D01*
X42851385Y-80164231D01*
X42893254Y-80220163D01*
X42898239Y-80289854D01*
X42887558Y-80319791D01*
X42795245Y-80500965D01*
X42732009Y-80695582D01*
X42700000Y-80897682D01*
X42700000Y-81102317D01*
X42732009Y-81304417D01*
X42795244Y-81499031D01*
X42888141Y-81681350D01*
X42888147Y-81681359D01*
X42920523Y-81725921D01*
X42920524Y-81725922D01*
X43600000Y-81046446D01*
X43600000Y-81052661D01*
X43627259Y-81154394D01*
X43679920Y-81245606D01*
X43754394Y-81320080D01*
X43845606Y-81372741D01*
X43947339Y-81400000D01*
X43953553Y-81400000D01*
X43274076Y-82079474D01*
X43318650Y-82111859D01*
X43500968Y-82204755D01*
X43695582Y-82267990D01*
X43897683Y-82300000D01*
X44102317Y-82300000D01*
X44304417Y-82267990D01*
X44499031Y-82204755D01*
X44681349Y-82111859D01*
X44725921Y-82079474D01*
X44046447Y-81400000D01*
X44052661Y-81400000D01*
X44154394Y-81372741D01*
X44245606Y-81320080D01*
X44320080Y-81245606D01*
X44372741Y-81154394D01*
X44400000Y-81052661D01*
X44400000Y-81046447D01*
X45079474Y-81725921D01*
X45111859Y-81681349D01*
X45204755Y-81499031D01*
X45267990Y-81304417D01*
X45300000Y-81102317D01*
X45300000Y-80897682D01*
X45267990Y-80695582D01*
X45204755Y-80500968D01*
X45112441Y-80319792D01*
X45099545Y-80251123D01*
X45125821Y-80186382D01*
X45127991Y-80183726D01*
X45137175Y-80172795D01*
X45157546Y-80157546D01*
X45243796Y-80042331D01*
X45269258Y-79974061D01*
X45272757Y-79967329D01*
X45291904Y-79947375D01*
X45308480Y-79925233D01*
X45315757Y-79922518D01*
X45321134Y-79916916D01*
X45348028Y-79910482D01*
X45373944Y-79900816D01*
X45382791Y-79900500D01*
X47548693Y-79900500D01*
X47548694Y-79900499D01*
X47722666Y-79865895D01*
X47804606Y-79831953D01*
X47886547Y-79798013D01*
X47977359Y-79737334D01*
X48034036Y-79699464D01*
X48398509Y-79334990D01*
X48459830Y-79301507D01*
X48529521Y-79306491D01*
X48585455Y-79348362D01*
X48608661Y-79403274D01*
X48612010Y-79424418D01*
X48675244Y-79619031D01*
X48768141Y-79801350D01*
X48768147Y-79801359D01*
X48800523Y-79845921D01*
X48800524Y-79845922D01*
X49480000Y-79166446D01*
X49480000Y-79172661D01*
X49507259Y-79274394D01*
X49559920Y-79365606D01*
X49634394Y-79440080D01*
X49725606Y-79492741D01*
X49827339Y-79520000D01*
X49833553Y-79520000D01*
X49154076Y-80199474D01*
X49198650Y-80231859D01*
X49380968Y-80324755D01*
X49575582Y-80387990D01*
X49777683Y-80420000D01*
X49982317Y-80420000D01*
X50184417Y-80387990D01*
X50379031Y-80324755D01*
X50561349Y-80231859D01*
X50605921Y-80199474D01*
X49926447Y-79520000D01*
X49932661Y-79520000D01*
X50034394Y-79492741D01*
X50125606Y-79440080D01*
X50200080Y-79365606D01*
X50252741Y-79274394D01*
X50280000Y-79172661D01*
X50280000Y-79166447D01*
X50959474Y-79845921D01*
X50991859Y-79801349D01*
X51084755Y-79619031D01*
X51147990Y-79424417D01*
X51180000Y-79222317D01*
X51180000Y-79017682D01*
X51147990Y-78815582D01*
X51084755Y-78620968D01*
X50991859Y-78438650D01*
X50959474Y-78394077D01*
X50959474Y-78394076D01*
X50280000Y-79073551D01*
X50280000Y-79067339D01*
X50252741Y-78965606D01*
X50200080Y-78874394D01*
X50125606Y-78799920D01*
X50034394Y-78747259D01*
X49932661Y-78720000D01*
X49926446Y-78720000D01*
X50605922Y-78040524D01*
X50605921Y-78040523D01*
X50561359Y-78008147D01*
X50561350Y-78008141D01*
X50468369Y-77960765D01*
X50417573Y-77912790D01*
X50400778Y-77844969D01*
X50423315Y-77778835D01*
X50468370Y-77739795D01*
X50534877Y-77705908D01*
X50561610Y-77692287D01*
X50614260Y-77654035D01*
X50727213Y-77571971D01*
X50727219Y-77571966D01*
X50782366Y-77516819D01*
X50843689Y-77483334D01*
X50870047Y-77480500D01*
X54535638Y-77480500D01*
X54602677Y-77500185D01*
X54623319Y-77516819D01*
X56163181Y-79056680D01*
X56196666Y-79118003D01*
X56199500Y-79144361D01*
X56199500Y-79222351D01*
X56231522Y-79424534D01*
X56294781Y-79619223D01*
X56334449Y-79697074D01*
X56387585Y-79801359D01*
X56387715Y-79801613D01*
X56508028Y-79967213D01*
X56563181Y-80022366D01*
X56596666Y-80083689D01*
X56599500Y-80110047D01*
X56599500Y-83008696D01*
X56634103Y-83182659D01*
X56634105Y-83182666D01*
X56656750Y-83237334D01*
X56701987Y-83346547D01*
X56745259Y-83411308D01*
X56749263Y-83417301D01*
X56749264Y-83417302D01*
X56758602Y-83431277D01*
X56779480Y-83497954D01*
X56779500Y-83500168D01*
X56779500Y-83602352D01*
X56781966Y-83617922D01*
X56811522Y-83804534D01*
X56874781Y-83999223D01*
X56938691Y-84124653D01*
X56967585Y-84181359D01*
X56967715Y-84181613D01*
X57088028Y-84347213D01*
X57232786Y-84491971D01*
X57353226Y-84579474D01*
X57398390Y-84612287D01*
X57514607Y-84671503D01*
X57580776Y-84705218D01*
X57580778Y-84705218D01*
X57580781Y-84705220D01*
X57685137Y-84739127D01*
X57775465Y-84768477D01*
X57876557Y-84784488D01*
X57977648Y-84800500D01*
X57977649Y-84800500D01*
X58182351Y-84800500D01*
X58182352Y-84800500D01*
X58384534Y-84768477D01*
X58579219Y-84705220D01*
X58761610Y-84612287D01*
X58854590Y-84544732D01*
X58927213Y-84491971D01*
X58927215Y-84491968D01*
X58927219Y-84491966D01*
X59071966Y-84347219D01*
X59071968Y-84347215D01*
X59071971Y-84347213D01*
X59153937Y-84234394D01*
X59192287Y-84181610D01*
X59285220Y-83999219D01*
X59292218Y-83977682D01*
X59700000Y-83977682D01*
X59700000Y-84182317D01*
X59732009Y-84384417D01*
X59795244Y-84579031D01*
X59888141Y-84761350D01*
X59888147Y-84761359D01*
X59920523Y-84805921D01*
X59920524Y-84805922D01*
X60600000Y-84126446D01*
X60600000Y-84132661D01*
X60627259Y-84234394D01*
X60679920Y-84325606D01*
X60754394Y-84400080D01*
X60845606Y-84452741D01*
X60947339Y-84480000D01*
X60953553Y-84480000D01*
X60274076Y-85159474D01*
X60318650Y-85191859D01*
X60500968Y-85284755D01*
X60695582Y-85347990D01*
X60897683Y-85380000D01*
X61102317Y-85380000D01*
X61304417Y-85347990D01*
X61499031Y-85284755D01*
X61681349Y-85191859D01*
X61725921Y-85159474D01*
X61046447Y-84480000D01*
X61052661Y-84480000D01*
X61154394Y-84452741D01*
X61245606Y-84400080D01*
X61320080Y-84325606D01*
X61372741Y-84234394D01*
X61400000Y-84132661D01*
X61400000Y-84126447D01*
X62079474Y-84805921D01*
X62111859Y-84761349D01*
X62204755Y-84579031D01*
X62267990Y-84384417D01*
X62300000Y-84182317D01*
X62300000Y-83977682D01*
X62267990Y-83775582D01*
X62204755Y-83580968D01*
X62111859Y-83398650D01*
X62079474Y-83354077D01*
X62079474Y-83354076D01*
X61400000Y-84033551D01*
X61400000Y-84027339D01*
X61372741Y-83925606D01*
X61320080Y-83834394D01*
X61245606Y-83759920D01*
X61154394Y-83707259D01*
X61052661Y-83680000D01*
X61046446Y-83680000D01*
X61725922Y-83000524D01*
X61725921Y-83000523D01*
X61681359Y-82968147D01*
X61681350Y-82968141D01*
X61499031Y-82875244D01*
X61304417Y-82812009D01*
X61102317Y-82780000D01*
X60897683Y-82780000D01*
X60695582Y-82812009D01*
X60500968Y-82875244D01*
X60318644Y-82968143D01*
X60274077Y-83000523D01*
X60274077Y-83000524D01*
X60953554Y-83680000D01*
X60947339Y-83680000D01*
X60845606Y-83707259D01*
X60754394Y-83759920D01*
X60679920Y-83834394D01*
X60627259Y-83925606D01*
X60600000Y-84027339D01*
X60600000Y-84033553D01*
X59920524Y-83354077D01*
X59920523Y-83354077D01*
X59888143Y-83398644D01*
X59795244Y-83580968D01*
X59732009Y-83775582D01*
X59700000Y-83977682D01*
X59292218Y-83977682D01*
X59348477Y-83804534D01*
X59380500Y-83602352D01*
X59380500Y-83397648D01*
X59372257Y-83345606D01*
X59348477Y-83195465D01*
X59312942Y-83086102D01*
X59285220Y-83000781D01*
X59192287Y-82818390D01*
X59184556Y-82807749D01*
X59071971Y-82652786D01*
X58927213Y-82508028D01*
X58761613Y-82387715D01*
X58761612Y-82387714D01*
X58761610Y-82387713D01*
X58704653Y-82358691D01*
X58579223Y-82294781D01*
X58526683Y-82277709D01*
X58486180Y-82264549D01*
X58428506Y-82225112D01*
X58401308Y-82160753D01*
X58400500Y-82146619D01*
X58400500Y-80110047D01*
X58420185Y-80043008D01*
X58436819Y-80022366D01*
X58491966Y-79967219D01*
X58491968Y-79967215D01*
X58491971Y-79967213D01*
X58565581Y-79865896D01*
X58612287Y-79801610D01*
X58705220Y-79619219D01*
X58768477Y-79424534D01*
X58800500Y-79222352D01*
X58800500Y-79017648D01*
X58781263Y-78896194D01*
X58768477Y-78815465D01*
X58737458Y-78720000D01*
X58705220Y-78620781D01*
X58705218Y-78620778D01*
X58705218Y-78620776D01*
X58671503Y-78554607D01*
X58612287Y-78438390D01*
X58595118Y-78414759D01*
X58491971Y-78272786D01*
X58347213Y-78128028D01*
X58181614Y-78007715D01*
X58175006Y-78004348D01*
X58088917Y-77960483D01*
X58038123Y-77912511D01*
X58021328Y-77844690D01*
X58043865Y-77778555D01*
X58088917Y-77739516D01*
X58181610Y-77692287D01*
X58234260Y-77654035D01*
X58347213Y-77571971D01*
X58347219Y-77571966D01*
X58419000Y-77500185D01*
X58491966Y-77427219D01*
X58491968Y-77427215D01*
X58491971Y-77427213D01*
X58553403Y-77342658D01*
X58612287Y-77261610D01*
X58705220Y-77079219D01*
X58768477Y-76884534D01*
X58800500Y-76682352D01*
X58800500Y-76604361D01*
X58820185Y-76537322D01*
X58836819Y-76516680D01*
X59900463Y-75453036D01*
X59900465Y-75453033D01*
X59948299Y-75381446D01*
X59999013Y-75305547D01*
X60066894Y-75141666D01*
X60077431Y-75088692D01*
X60079869Y-75076434D01*
X60112249Y-75014526D01*
X60172963Y-74979949D01*
X60242733Y-74983685D01*
X60274371Y-75000306D01*
X60293944Y-75014526D01*
X60318390Y-75032287D01*
X60429091Y-75088692D01*
X60500776Y-75125218D01*
X60500778Y-75125218D01*
X60500781Y-75125220D01*
X60584085Y-75152287D01*
X60695465Y-75188477D01*
X60765156Y-75199515D01*
X60897648Y-75220500D01*
X60897649Y-75220500D01*
X61102351Y-75220500D01*
X61102352Y-75220500D01*
X61304534Y-75188477D01*
X61499219Y-75125220D01*
X61681610Y-75032287D01*
X61774590Y-74964732D01*
X61847213Y-74911971D01*
X61847215Y-74911968D01*
X61847219Y-74911966D01*
X61991966Y-74767219D01*
X61991968Y-74767215D01*
X61991971Y-74767213D01*
X62044732Y-74694590D01*
X62112287Y-74601610D01*
X62205220Y-74419219D01*
X62268477Y-74224534D01*
X62300500Y-74022352D01*
X62300500Y-73817648D01*
X62296878Y-73794780D01*
X62268477Y-73615465D01*
X62205218Y-73420776D01*
X62171503Y-73354607D01*
X62112287Y-73238390D01*
X62079154Y-73192786D01*
X61991971Y-73072786D01*
X61847213Y-72928028D01*
X61681613Y-72807715D01*
X61681612Y-72807714D01*
X61681610Y-72807713D01*
X61604605Y-72768477D01*
X61499223Y-72714781D01*
X61304534Y-72651522D01*
X61155953Y-72627989D01*
X61121120Y-72622472D01*
X61057986Y-72592544D01*
X61021055Y-72533232D01*
X61022053Y-72463370D01*
X61060663Y-72405137D01*
X61121120Y-72377527D01*
X61304534Y-72348477D01*
X61499219Y-72285220D01*
X61681610Y-72192287D01*
X61774590Y-72124732D01*
X61847213Y-72071971D01*
X61847215Y-72071968D01*
X61847219Y-72071966D01*
X61991966Y-71927219D01*
X61991968Y-71927215D01*
X61991971Y-71927213D01*
X62081189Y-71804413D01*
X62112287Y-71761610D01*
X62205220Y-71579219D01*
X62268477Y-71384534D01*
X62300500Y-71182352D01*
X62300500Y-70977648D01*
X62268477Y-70775466D01*
X62205220Y-70580781D01*
X62205218Y-70580778D01*
X62205218Y-70580776D01*
X62134304Y-70441601D01*
X62112287Y-70398390D01*
X62082425Y-70357288D01*
X61991971Y-70232786D01*
X61847213Y-70088028D01*
X61681613Y-69967715D01*
X61681612Y-69967714D01*
X61681610Y-69967713D01*
X61604605Y-69928477D01*
X61499223Y-69874781D01*
X61304534Y-69811522D01*
X61129995Y-69783878D01*
X61102352Y-69779500D01*
X60897648Y-69779500D01*
X60873329Y-69783351D01*
X60695465Y-69811522D01*
X60500776Y-69874781D01*
X60318386Y-69967715D01*
X60152786Y-70088028D01*
X60008028Y-70232786D01*
X59887715Y-70398386D01*
X59794781Y-70580776D01*
X59731522Y-70775465D01*
X59699500Y-70977648D01*
X59699500Y-71055637D01*
X59679815Y-71122676D01*
X59663181Y-71143318D01*
X58994391Y-71812108D01*
X58933068Y-71845593D01*
X58863376Y-71840609D01*
X58807443Y-71798737D01*
X58783026Y-71733273D01*
X58784237Y-71705029D01*
X58800500Y-71602350D01*
X58800500Y-71397648D01*
X58768477Y-71195465D01*
X58723044Y-71055637D01*
X58705220Y-71000781D01*
X58705218Y-71000778D01*
X58705218Y-71000776D01*
X58653865Y-70899991D01*
X58612287Y-70818390D01*
X58589119Y-70786502D01*
X58491971Y-70652786D01*
X58347213Y-70508028D01*
X58181613Y-70387715D01*
X58181612Y-70387714D01*
X58181610Y-70387713D01*
X58093764Y-70342953D01*
X57999223Y-70294781D01*
X57804534Y-70231522D01*
X57629995Y-70203878D01*
X57602352Y-70199500D01*
X57397648Y-70199500D01*
X57373329Y-70203351D01*
X57195465Y-70231522D01*
X57000776Y-70294781D01*
X56818386Y-70387715D01*
X56652786Y-70508028D01*
X56652782Y-70508032D01*
X56597634Y-70563181D01*
X56536311Y-70596666D01*
X56509953Y-70599500D01*
X54878941Y-70599500D01*
X54811902Y-70579815D01*
X54791260Y-70563181D01*
X50487619Y-66259538D01*
X50487618Y-66259537D01*
X50464751Y-66244258D01*
X50416708Y-66212157D01*
X50340127Y-66160987D01*
X50234461Y-66117219D01*
X50229382Y-66115115D01*
X50229378Y-66115113D01*
X50176246Y-66093105D01*
X50176238Y-66093103D01*
X50002276Y-66058500D01*
X50002272Y-66058500D01*
X50002271Y-66058500D01*
X45751113Y-66058500D01*
X45573731Y-66058500D01*
X45573728Y-66058500D01*
X45399763Y-66093103D01*
X45399754Y-66093106D01*
X45235881Y-66160983D01*
X45235868Y-66160990D01*
X45088387Y-66259535D01*
X45088383Y-66259538D01*
X44962960Y-66384961D01*
X44962957Y-66384965D01*
X44864412Y-66532446D01*
X44864405Y-66532459D01*
X44796528Y-66696332D01*
X44796525Y-66696342D01*
X44796205Y-66697954D01*
X44795804Y-66698719D01*
X44794758Y-66702169D01*
X44794103Y-66701970D01*
X44763813Y-66759862D01*
X44703094Y-66794430D01*
X44633325Y-66790682D01*
X44601705Y-66774068D01*
X44496614Y-66697715D01*
X44490006Y-66694348D01*
X44403917Y-66650483D01*
X44353123Y-66602511D01*
X44336328Y-66534690D01*
X44358865Y-66468555D01*
X44403917Y-66429516D01*
X44496610Y-66382287D01*
X44595979Y-66310092D01*
X44662213Y-66261971D01*
X44662215Y-66261968D01*
X44662219Y-66261966D01*
X44806966Y-66117219D01*
X44806968Y-66117215D01*
X44806971Y-66117213D01*
X44866962Y-66034641D01*
X44927287Y-65951610D01*
X45020220Y-65769219D01*
X45083477Y-65574534D01*
X45115500Y-65372352D01*
X45115500Y-65167648D01*
X45083477Y-64965466D01*
X45072648Y-64932139D01*
X45020218Y-64770776D01*
X44927287Y-64588390D01*
X44865779Y-64503731D01*
X44813761Y-64432133D01*
X52404500Y-64432133D01*
X52404500Y-64647866D01*
X52438245Y-64860922D01*
X52438246Y-64860926D01*
X52504908Y-65066089D01*
X52602843Y-65258299D01*
X52729641Y-65432821D01*
X52882179Y-65585359D01*
X52999649Y-65670706D01*
X53053294Y-65709682D01*
X53095959Y-65765012D01*
X53101938Y-65834626D01*
X53069332Y-65896421D01*
X53053294Y-65910318D01*
X52882179Y-66034641D01*
X52882177Y-66034643D01*
X52882176Y-66034643D01*
X52729643Y-66187176D01*
X52729643Y-66187177D01*
X52729641Y-66187179D01*
X52688069Y-66244398D01*
X52602843Y-66361700D01*
X52504909Y-66553908D01*
X52438245Y-66759077D01*
X52404500Y-66972133D01*
X52404500Y-67187866D01*
X52438245Y-67400922D01*
X52438246Y-67400926D01*
X52504908Y-67606089D01*
X52602843Y-67798299D01*
X52729641Y-67972821D01*
X52882179Y-68125359D01*
X53056701Y-68252157D01*
X53248911Y-68350092D01*
X53454074Y-68416754D01*
X53533973Y-68429408D01*
X53667134Y-68450500D01*
X53667139Y-68450500D01*
X54332866Y-68450500D01*
X54451230Y-68431752D01*
X54545926Y-68416754D01*
X54751089Y-68350092D01*
X54943299Y-68252157D01*
X55117821Y-68125359D01*
X55270359Y-67972821D01*
X55397157Y-67798299D01*
X55495092Y-67606089D01*
X55561754Y-67400926D01*
X55576752Y-67306230D01*
X55595500Y-67187866D01*
X55595500Y-66972133D01*
X55570260Y-66812781D01*
X55561754Y-66759074D01*
X55495092Y-66553911D01*
X55397157Y-66361701D01*
X55270359Y-66187179D01*
X55117821Y-66034641D01*
X54946704Y-65910317D01*
X54904040Y-65854988D01*
X54898061Y-65785374D01*
X54930667Y-65723580D01*
X54946702Y-65709684D01*
X55117821Y-65585359D01*
X55270359Y-65432821D01*
X55397157Y-65258299D01*
X55495092Y-65066089D01*
X55561754Y-64860926D01*
X55576752Y-64766230D01*
X55595500Y-64647866D01*
X55595500Y-64432133D01*
X55561754Y-64219077D01*
X55561754Y-64219074D01*
X55495092Y-64013911D01*
X55397157Y-63821701D01*
X55270359Y-63647179D01*
X55127996Y-63504816D01*
X55094511Y-63443493D01*
X55099495Y-63373801D01*
X55141367Y-63317868D01*
X55163289Y-63304745D01*
X55164127Y-63304354D01*
X55313345Y-63212315D01*
X55437315Y-63088345D01*
X55529356Y-62939124D01*
X55529358Y-62939119D01*
X55584505Y-62772697D01*
X55584506Y-62772690D01*
X55594999Y-62669986D01*
X55595000Y-62669973D01*
X55595000Y-62250000D01*
X54542709Y-62250000D01*
X54554452Y-62229661D01*
X54595000Y-62078333D01*
X54595000Y-61921667D01*
X54554452Y-61770339D01*
X54542709Y-61750000D01*
X55594999Y-61750000D01*
X55594999Y-61330028D01*
X55594998Y-61330013D01*
X55584505Y-61227302D01*
X55529358Y-61060880D01*
X55529356Y-61060875D01*
X55437315Y-60911654D01*
X55343309Y-60817648D01*
X59699500Y-60817648D01*
X59699500Y-61022351D01*
X59731522Y-61224534D01*
X59794781Y-61419223D01*
X59887715Y-61601613D01*
X60008028Y-61767213D01*
X60152786Y-61911971D01*
X60238044Y-61973913D01*
X60318390Y-62032287D01*
X60434607Y-62091503D01*
X60500776Y-62125218D01*
X60500778Y-62125218D01*
X60500781Y-62125220D01*
X60605137Y-62159127D01*
X60695465Y-62188477D01*
X60796557Y-62204488D01*
X60897648Y-62220500D01*
X60897649Y-62220500D01*
X61102351Y-62220500D01*
X61102352Y-62220500D01*
X61304534Y-62188477D01*
X61499219Y-62125220D01*
X61681610Y-62032287D01*
X61833867Y-61921667D01*
X61847213Y-61911971D01*
X61847215Y-61911968D01*
X61847219Y-61911966D01*
X61991966Y-61767219D01*
X61991968Y-61767215D01*
X61991971Y-61767213D01*
X62062615Y-61669978D01*
X62112287Y-61601610D01*
X62205220Y-61419219D01*
X62268477Y-61224534D01*
X62300500Y-61022352D01*
X62300500Y-60817648D01*
X62268477Y-60615466D01*
X62258766Y-60585580D01*
X62205218Y-60420776D01*
X62115012Y-60243739D01*
X62112287Y-60238390D01*
X62104556Y-60227749D01*
X61991971Y-60072786D01*
X61847213Y-59928028D01*
X61681613Y-59807715D01*
X61681612Y-59807714D01*
X61681610Y-59807713D01*
X61604605Y-59768477D01*
X61499223Y-59714781D01*
X61304534Y-59651522D01*
X61129995Y-59623878D01*
X61102352Y-59619500D01*
X60897648Y-59619500D01*
X60873329Y-59623351D01*
X60695465Y-59651522D01*
X60500776Y-59714781D01*
X60318386Y-59807715D01*
X60152786Y-59928028D01*
X60008028Y-60072786D01*
X59887715Y-60238386D01*
X59794781Y-60420776D01*
X59731522Y-60615465D01*
X59699500Y-60817648D01*
X55343309Y-60817648D01*
X55313345Y-60787684D01*
X55164124Y-60695643D01*
X55164119Y-60695641D01*
X54997697Y-60640494D01*
X54997690Y-60640493D01*
X54894986Y-60630000D01*
X54250000Y-60630000D01*
X54250000Y-61457290D01*
X54229661Y-61445548D01*
X54078333Y-61405000D01*
X53921667Y-61405000D01*
X53770339Y-61445548D01*
X53750000Y-61457290D01*
X53750000Y-60630000D01*
X53105028Y-60630000D01*
X53105012Y-60630001D01*
X53002302Y-60640494D01*
X52835880Y-60695641D01*
X52835875Y-60695643D01*
X52686654Y-60787684D01*
X52562684Y-60911654D01*
X52470643Y-61060875D01*
X52470641Y-61060880D01*
X52415494Y-61227302D01*
X52415493Y-61227309D01*
X52405000Y-61330013D01*
X52405000Y-61750000D01*
X53457291Y-61750000D01*
X53445548Y-61770339D01*
X53405000Y-61921667D01*
X53405000Y-62078333D01*
X53445548Y-62229661D01*
X53457291Y-62250000D01*
X52405001Y-62250000D01*
X52405001Y-62669986D01*
X52415494Y-62772697D01*
X52470641Y-62939119D01*
X52470643Y-62939124D01*
X52562684Y-63088345D01*
X52686654Y-63212315D01*
X52835876Y-63304356D01*
X52836716Y-63304748D01*
X52837195Y-63305170D01*
X52842025Y-63308149D01*
X52841516Y-63308973D01*
X52889160Y-63350915D01*
X52908318Y-63418107D01*
X52888109Y-63484990D01*
X52872004Y-63504816D01*
X52729640Y-63647180D01*
X52602843Y-63821700D01*
X52504909Y-64013908D01*
X52438245Y-64219077D01*
X52404500Y-64432133D01*
X44813761Y-64432133D01*
X44806966Y-64422781D01*
X44748052Y-64363867D01*
X44744633Y-64359805D01*
X44732628Y-64332488D01*
X44718334Y-64306311D01*
X44717430Y-64297907D01*
X44716522Y-64295840D01*
X44716930Y-64293259D01*
X44715500Y-64279953D01*
X44715500Y-63754500D01*
X44735185Y-63687461D01*
X44787989Y-63641706D01*
X44839500Y-63630500D01*
X46328374Y-63630500D01*
X46328375Y-63630499D01*
X46502347Y-63595895D01*
X46584287Y-63561953D01*
X46666228Y-63528013D01*
X46777253Y-63453828D01*
X46813717Y-63429464D01*
X47877843Y-62365338D01*
X49003999Y-61239183D01*
X52699460Y-57543720D01*
X52699459Y-57543720D01*
X52699463Y-57543717D01*
X52729929Y-57498122D01*
X52798013Y-57396228D01*
X52832764Y-57312331D01*
X52865895Y-57232347D01*
X52900500Y-57058373D01*
X52900500Y-56990047D01*
X52920185Y-56923008D01*
X52936819Y-56902366D01*
X52963685Y-56875500D01*
X52991966Y-56847219D01*
X52991968Y-56847215D01*
X52991971Y-56847213D01*
X53095133Y-56705220D01*
X53112287Y-56681610D01*
X53205220Y-56499219D01*
X53268477Y-56304534D01*
X53300500Y-56102352D01*
X53300500Y-55897648D01*
X53268477Y-55695466D01*
X53242596Y-55615814D01*
X53214392Y-55529009D01*
X53205220Y-55500781D01*
X53205218Y-55500778D01*
X53205218Y-55500776D01*
X53151210Y-55394781D01*
X53112287Y-55318390D01*
X53085839Y-55281987D01*
X52991971Y-55152786D01*
X52850366Y-55011181D01*
X52816881Y-54949858D01*
X52821865Y-54880166D01*
X52863737Y-54824233D01*
X52929201Y-54799816D01*
X52938047Y-54799500D01*
X56061953Y-54799500D01*
X56128992Y-54819185D01*
X56174747Y-54871989D01*
X56184691Y-54941147D01*
X56155666Y-55004703D01*
X56149634Y-55011181D01*
X56008032Y-55152782D01*
X56008028Y-55152786D01*
X55887715Y-55318386D01*
X55794781Y-55500776D01*
X55731522Y-55695465D01*
X55699500Y-55897648D01*
X55699500Y-56102351D01*
X55731522Y-56304534D01*
X55794781Y-56499223D01*
X55852391Y-56612287D01*
X55873026Y-56652786D01*
X55887715Y-56681613D01*
X56008028Y-56847213D01*
X56152786Y-56991971D01*
X56307749Y-57104556D01*
X56318390Y-57112287D01*
X56406054Y-57156954D01*
X56500776Y-57205218D01*
X56500778Y-57205218D01*
X56500781Y-57205220D01*
X56595983Y-57236153D01*
X56695465Y-57268477D01*
X56778168Y-57281576D01*
X56897648Y-57300500D01*
X56897649Y-57300500D01*
X57102351Y-57300500D01*
X57102352Y-57300500D01*
X57304534Y-57268477D01*
X57499219Y-57205220D01*
X57620206Y-57143573D01*
X57688874Y-57130678D01*
X57753614Y-57156954D01*
X57793872Y-57214060D01*
X57800500Y-57254059D01*
X57800500Y-57797544D01*
X57838947Y-57990833D01*
X57838949Y-57990836D01*
X57861038Y-58044165D01*
X57874849Y-58077507D01*
X57914366Y-58172911D01*
X57914371Y-58172920D01*
X58023859Y-58336780D01*
X58023860Y-58336781D01*
X58023861Y-58336782D01*
X58163218Y-58476139D01*
X58163219Y-58476139D01*
X58163219Y-58476140D01*
X58261557Y-58574478D01*
X58324860Y-58637781D01*
X58324861Y-58637782D01*
X58399579Y-58712500D01*
X58464219Y-58777140D01*
X58628079Y-58886628D01*
X58628092Y-58886635D01*
X58756833Y-58939961D01*
X58810159Y-58962049D01*
X58810164Y-58962051D01*
X58877777Y-58975500D01*
X58909197Y-58981750D01*
X59003456Y-59000500D01*
X59003459Y-59000500D01*
X59003460Y-59000500D01*
X59200540Y-59000500D01*
X61624238Y-59000500D01*
X61691277Y-59020185D01*
X61697119Y-59024179D01*
X61818390Y-59112287D01*
X61911940Y-59159953D01*
X62000776Y-59205218D01*
X62000778Y-59205218D01*
X62000781Y-59205220D01*
X62105137Y-59239127D01*
X62195465Y-59268477D01*
X62296557Y-59284488D01*
X62397648Y-59300500D01*
X62397649Y-59300500D01*
X62602351Y-59300500D01*
X62602352Y-59300500D01*
X62804534Y-59268477D01*
X62999219Y-59205220D01*
X63181610Y-59112287D01*
X63308379Y-59020185D01*
X63347213Y-58991971D01*
X63347215Y-58991968D01*
X63347219Y-58991966D01*
X63491966Y-58847219D01*
X63491968Y-58847215D01*
X63491971Y-58847213D01*
X63610551Y-58683999D01*
X63612287Y-58681610D01*
X63705220Y-58499219D01*
X63768477Y-58304534D01*
X63800500Y-58102352D01*
X63800500Y-57897648D01*
X63768477Y-57695466D01*
X63757144Y-57660588D01*
X63709448Y-57513793D01*
X63705220Y-57500781D01*
X63705218Y-57500778D01*
X63705218Y-57500776D01*
X63612847Y-57319489D01*
X63599951Y-57250820D01*
X63626227Y-57186079D01*
X63649026Y-57163924D01*
X63657545Y-57157547D01*
X63675467Y-57133606D01*
X63743796Y-57042331D01*
X63794091Y-56907483D01*
X63800500Y-56847873D01*
X63800499Y-55152128D01*
X63794091Y-55092517D01*
X63762629Y-55008164D01*
X63743797Y-54957671D01*
X63743793Y-54957664D01*
X63657547Y-54842455D01*
X63657544Y-54842452D01*
X63542335Y-54756206D01*
X63542328Y-54756202D01*
X63407482Y-54705908D01*
X63407483Y-54705908D01*
X63347883Y-54699501D01*
X63347881Y-54699500D01*
X63347873Y-54699500D01*
X63347864Y-54699500D01*
X61652129Y-54699500D01*
X61652123Y-54699501D01*
X61592516Y-54705908D01*
X61457671Y-54756202D01*
X61457664Y-54756206D01*
X61342455Y-54842452D01*
X61342452Y-54842455D01*
X61256206Y-54957664D01*
X61256202Y-54957671D01*
X61205908Y-55092517D01*
X61199501Y-55152116D01*
X61199501Y-55152123D01*
X61199500Y-55152135D01*
X61199500Y-56847870D01*
X61199501Y-56847879D01*
X61201046Y-56862248D01*
X61188639Y-56931007D01*
X61141027Y-56982143D01*
X61077756Y-56999500D01*
X59925500Y-56999500D01*
X59858461Y-56979815D01*
X59812706Y-56927011D01*
X59801500Y-56875500D01*
X59801500Y-55155457D01*
X59801499Y-55155452D01*
X59788980Y-55092516D01*
X59772201Y-55008164D01*
X59763051Y-54962165D01*
X59713226Y-54841878D01*
X59687632Y-54780087D01*
X59638068Y-54705909D01*
X59578139Y-54616218D01*
X59435686Y-54473765D01*
X59435655Y-54473736D01*
X58127478Y-53165559D01*
X58127458Y-53165537D01*
X57983784Y-53021863D01*
X57983780Y-53021860D01*
X57819919Y-52912371D01*
X57819910Y-52912366D01*
X57747314Y-52882296D01*
X57691164Y-52859038D01*
X57637835Y-52836949D01*
X57637831Y-52836948D01*
X57637827Y-52836946D01*
X57541187Y-52817724D01*
X57444543Y-52798500D01*
X57444540Y-52798500D01*
X49017783Y-52798500D01*
X48988342Y-52789855D01*
X48958356Y-52783332D01*
X48953340Y-52779577D01*
X48950744Y-52778815D01*
X48930102Y-52762181D01*
X48773565Y-52605644D01*
X48740080Y-52544321D01*
X48745064Y-52474629D01*
X48786936Y-52418696D01*
X48841846Y-52395491D01*
X49027951Y-52366015D01*
X49237606Y-52297895D01*
X49434022Y-52197815D01*
X49612365Y-52068242D01*
X49768242Y-51912365D01*
X49768244Y-51912361D01*
X49768247Y-51912359D01*
X49899682Y-51731453D01*
X49955011Y-51688787D01*
X50024625Y-51682808D01*
X50086420Y-51715413D01*
X50100318Y-51731453D01*
X50231752Y-51912359D01*
X50387636Y-52068243D01*
X50387641Y-52068247D01*
X50543192Y-52181260D01*
X50565978Y-52197815D01*
X50694375Y-52263237D01*
X50762393Y-52297895D01*
X50762396Y-52297896D01*
X50867221Y-52331955D01*
X50972049Y-52366015D01*
X51189778Y-52400500D01*
X51189779Y-52400500D01*
X51810221Y-52400500D01*
X51810222Y-52400500D01*
X52027951Y-52366015D01*
X52237606Y-52297895D01*
X52434022Y-52197815D01*
X52612365Y-52068242D01*
X52768242Y-51912365D01*
X52897815Y-51734022D01*
X52897817Y-51734017D01*
X52899990Y-51731027D01*
X52955320Y-51688361D01*
X53024933Y-51682382D01*
X53086729Y-51714987D01*
X53100627Y-51731027D01*
X53232137Y-51912035D01*
X53232142Y-51912041D01*
X53387958Y-52067857D01*
X53566239Y-52197386D01*
X53762589Y-52297432D01*
X53972164Y-52365526D01*
X54189819Y-52400000D01*
X54250000Y-52400000D01*
X54250000Y-51283788D01*
X54310504Y-51300000D01*
X54689496Y-51300000D01*
X54750000Y-51283788D01*
X54750000Y-52400000D01*
X54810181Y-52400000D01*
X55027835Y-52365526D01*
X55237410Y-52297432D01*
X55433760Y-52197386D01*
X55612041Y-52067857D01*
X55767857Y-51912041D01*
X55897386Y-51733760D01*
X55997432Y-51537410D01*
X56065526Y-51327838D01*
X56065526Y-51327835D01*
X56077855Y-51250000D01*
X54816988Y-51250000D01*
X54834205Y-51240060D01*
X54890060Y-51184205D01*
X54929556Y-51115796D01*
X54950000Y-51039496D01*
X54950000Y-50960504D01*
X54929556Y-50884204D01*
X54890060Y-50815795D01*
X54834205Y-50759940D01*
X54816988Y-50750000D01*
X56077855Y-50750000D01*
X56065526Y-50672164D01*
X56065526Y-50672161D01*
X55997432Y-50462589D01*
X55897386Y-50266239D01*
X55767857Y-50087958D01*
X55612041Y-49932142D01*
X55433760Y-49802613D01*
X55237410Y-49702567D01*
X55027835Y-49634473D01*
X54810181Y-49600000D01*
X54750000Y-49600000D01*
X54750000Y-50716211D01*
X54689496Y-50700000D01*
X54310504Y-50700000D01*
X54250000Y-50716211D01*
X54250000Y-49600000D01*
X54189819Y-49600000D01*
X53972164Y-49634473D01*
X53762589Y-49702567D01*
X53566239Y-49802613D01*
X53387958Y-49932142D01*
X53232142Y-50087958D01*
X53232142Y-50087959D01*
X53100627Y-50268973D01*
X53045297Y-50311638D01*
X52975683Y-50317617D01*
X52913888Y-50285011D01*
X52899991Y-50268972D01*
X52768247Y-50087641D01*
X52768243Y-50087636D01*
X52612363Y-49931756D01*
X52612358Y-49931752D01*
X52434025Y-49802187D01*
X52434024Y-49802186D01*
X52434022Y-49802185D01*
X52371096Y-49770122D01*
X52237606Y-49702104D01*
X52237603Y-49702103D01*
X52027952Y-49633985D01*
X51915756Y-49616215D01*
X51810222Y-49599500D01*
X51189778Y-49599500D01*
X51117201Y-49610995D01*
X50972047Y-49633985D01*
X50762396Y-49702103D01*
X50762393Y-49702104D01*
X50565974Y-49802187D01*
X50387641Y-49931752D01*
X50387636Y-49931756D01*
X50231756Y-50087636D01*
X50231752Y-50087641D01*
X50100318Y-50268546D01*
X50044988Y-50311212D01*
X49975375Y-50317191D01*
X49913580Y-50284586D01*
X49899682Y-50268546D01*
X49768247Y-50087641D01*
X49768243Y-50087636D01*
X49612363Y-49931756D01*
X49612358Y-49931752D01*
X49434025Y-49802187D01*
X49434024Y-49802186D01*
X49434022Y-49802185D01*
X49371096Y-49770122D01*
X49237606Y-49702104D01*
X49237603Y-49702103D01*
X49027952Y-49633985D01*
X48915756Y-49616215D01*
X48810222Y-49599500D01*
X48810221Y-49599500D01*
X48446500Y-49599500D01*
X48379461Y-49579815D01*
X48333706Y-49527011D01*
X48322500Y-49475500D01*
X48322500Y-46250000D01*
X52303391Y-46250000D01*
X53264314Y-46250000D01*
X53259920Y-46254394D01*
X53207259Y-46345606D01*
X53180000Y-46447339D01*
X53180000Y-46552661D01*
X53207259Y-46654394D01*
X53259920Y-46745606D01*
X53264314Y-46750000D01*
X52303391Y-46750000D01*
X52312009Y-46804413D01*
X52375244Y-46999029D01*
X52468140Y-47181349D01*
X52588417Y-47346894D01*
X52588417Y-47346895D01*
X52733104Y-47491582D01*
X52898650Y-47611859D01*
X53080968Y-47704754D01*
X53275578Y-47767988D01*
X53330000Y-47776607D01*
X53330000Y-46815686D01*
X53334394Y-46820080D01*
X53425606Y-46872741D01*
X53527339Y-46900000D01*
X53632661Y-46900000D01*
X53734394Y-46872741D01*
X53825606Y-46820080D01*
X53830000Y-46815686D01*
X53830000Y-47776606D01*
X53884421Y-47767988D01*
X54079031Y-47704754D01*
X54261349Y-47611859D01*
X54426894Y-47491582D01*
X54426895Y-47491582D01*
X54571582Y-47346895D01*
X54571582Y-47346894D01*
X54691859Y-47181349D01*
X54784755Y-46999029D01*
X54847990Y-46804413D01*
X54856609Y-46750000D01*
X53895686Y-46750000D01*
X53900080Y-46745606D01*
X53952741Y-46654394D01*
X53980000Y-46552661D01*
X53980000Y-46447339D01*
X53952741Y-46345606D01*
X53900080Y-46254394D01*
X53895686Y-46250000D01*
X54856609Y-46250000D01*
X54847990Y-46195586D01*
X54784755Y-46000970D01*
X54691859Y-45818650D01*
X54571582Y-45653105D01*
X54571582Y-45653104D01*
X54426895Y-45508417D01*
X54261349Y-45388140D01*
X54079029Y-45295244D01*
X53884413Y-45232009D01*
X53830000Y-45223390D01*
X53830000Y-46184314D01*
X53825606Y-46179920D01*
X53734394Y-46127259D01*
X53632661Y-46100000D01*
X53527339Y-46100000D01*
X53425606Y-46127259D01*
X53334394Y-46179920D01*
X53330000Y-46184314D01*
X53330000Y-45223390D01*
X53275586Y-45232009D01*
X53080970Y-45295244D01*
X52898650Y-45388140D01*
X52733105Y-45508417D01*
X52733104Y-45508417D01*
X52588417Y-45653104D01*
X52588417Y-45653105D01*
X52468140Y-45818650D01*
X52375244Y-46000970D01*
X52312009Y-46195586D01*
X52303391Y-46250000D01*
X48322500Y-46250000D01*
X48322500Y-44462135D01*
X55199500Y-44462135D01*
X55199500Y-46157870D01*
X55199501Y-46157876D01*
X55205908Y-46217483D01*
X55256202Y-46352328D01*
X55256206Y-46352335D01*
X55342452Y-46467544D01*
X55342455Y-46467547D01*
X55457664Y-46553793D01*
X55457671Y-46553797D01*
X55592517Y-46604091D01*
X55592516Y-46604091D01*
X55599444Y-46604835D01*
X55652127Y-46610500D01*
X57347872Y-46610499D01*
X57407483Y-46604091D01*
X57542331Y-46553796D01*
X57657546Y-46467546D01*
X57743796Y-46352331D01*
X57794091Y-46217483D01*
X57800500Y-46157873D01*
X57800499Y-44497023D01*
X61599500Y-44497023D01*
X61599500Y-46192758D01*
X61599501Y-46192764D01*
X61605908Y-46252371D01*
X61656202Y-46387216D01*
X61656206Y-46387223D01*
X61742451Y-46502430D01*
X61742454Y-46502434D01*
X61751385Y-46509119D01*
X61793254Y-46565051D01*
X61798239Y-46634742D01*
X61787558Y-46664679D01*
X61695245Y-46845853D01*
X61632009Y-47040470D01*
X61600000Y-47242570D01*
X61600000Y-47447205D01*
X61632009Y-47649305D01*
X61695244Y-47843919D01*
X61788141Y-48026238D01*
X61788147Y-48026247D01*
X61820523Y-48070809D01*
X61820524Y-48070810D01*
X62500000Y-47391334D01*
X62500000Y-47397549D01*
X62527259Y-47499282D01*
X62579920Y-47590494D01*
X62654394Y-47664968D01*
X62745606Y-47717629D01*
X62847339Y-47744888D01*
X62853553Y-47744888D01*
X62174076Y-48424362D01*
X62218650Y-48456747D01*
X62400968Y-48549643D01*
X62595582Y-48612878D01*
X62797683Y-48644888D01*
X63002317Y-48644888D01*
X63204417Y-48612878D01*
X63399031Y-48549643D01*
X63581349Y-48456747D01*
X63625921Y-48424362D01*
X62946447Y-47744888D01*
X62952661Y-47744888D01*
X63054394Y-47717629D01*
X63145606Y-47664968D01*
X63220080Y-47590494D01*
X63272741Y-47499282D01*
X63300000Y-47397549D01*
X63300000Y-47391335D01*
X63979474Y-48070809D01*
X64011859Y-48026237D01*
X64104755Y-47843919D01*
X64167990Y-47649305D01*
X64200000Y-47447205D01*
X64200000Y-47242570D01*
X64167990Y-47040470D01*
X64104755Y-46845856D01*
X64012441Y-46664680D01*
X63999545Y-46596011D01*
X64025821Y-46531270D01*
X64048611Y-46509122D01*
X64057546Y-46502434D01*
X64143796Y-46387219D01*
X64194091Y-46252371D01*
X64200500Y-46192761D01*
X64200499Y-44497016D01*
X64194091Y-44437405D01*
X64181078Y-44402516D01*
X64143797Y-44302559D01*
X64143793Y-44302552D01*
X64057547Y-44187343D01*
X64057544Y-44187340D01*
X63942335Y-44101094D01*
X63942328Y-44101090D01*
X63807482Y-44050796D01*
X63807483Y-44050796D01*
X63747883Y-44044389D01*
X63747881Y-44044388D01*
X63747873Y-44044388D01*
X63747864Y-44044388D01*
X62052129Y-44044388D01*
X62052123Y-44044389D01*
X61992516Y-44050796D01*
X61857671Y-44101090D01*
X61857664Y-44101094D01*
X61742455Y-44187340D01*
X61742452Y-44187343D01*
X61656206Y-44302552D01*
X61656202Y-44302559D01*
X61605908Y-44437405D01*
X61599501Y-44497004D01*
X61599501Y-44497011D01*
X61599500Y-44497023D01*
X57800499Y-44497023D01*
X57800499Y-44462128D01*
X57794091Y-44402517D01*
X57756808Y-44302557D01*
X57743797Y-44267671D01*
X57743793Y-44267664D01*
X57657547Y-44152455D01*
X57657544Y-44152452D01*
X57542335Y-44066206D01*
X57542328Y-44066202D01*
X57407482Y-44015908D01*
X57407483Y-44015908D01*
X57347883Y-44009501D01*
X57347881Y-44009500D01*
X57347873Y-44009500D01*
X57347864Y-44009500D01*
X55652129Y-44009500D01*
X55652123Y-44009501D01*
X55592516Y-44015908D01*
X55457671Y-44066202D01*
X55457664Y-44066206D01*
X55342455Y-44152452D01*
X55342452Y-44152455D01*
X55256206Y-44267664D01*
X55256202Y-44267671D01*
X55205908Y-44402517D01*
X55199501Y-44462116D01*
X55199501Y-44462123D01*
X55199500Y-44462135D01*
X48322500Y-44462135D01*
X48322500Y-43178822D01*
X48284052Y-42985537D01*
X48284051Y-42985531D01*
X48283977Y-42985353D01*
X48283971Y-42985338D01*
X48283972Y-42985337D01*
X48283915Y-42985204D01*
X48247649Y-42897648D01*
X48208635Y-42803458D01*
X48208628Y-42803445D01*
X48099140Y-42639585D01*
X48039844Y-42580289D01*
X47959782Y-42500227D01*
X47959781Y-42500226D01*
X47133717Y-41674163D01*
X47100233Y-41612841D01*
X47105217Y-41543150D01*
X47121080Y-41513599D01*
X47172157Y-41443299D01*
X47270092Y-41251089D01*
X47336754Y-41045926D01*
X47351752Y-40951230D01*
X47370500Y-40832866D01*
X47370500Y-40167133D01*
X47336754Y-39954077D01*
X47336754Y-39954074D01*
X47270092Y-39748911D01*
X47196773Y-39605013D01*
X48590000Y-39605013D01*
X48590000Y-40250000D01*
X49417291Y-40250000D01*
X49405548Y-40270339D01*
X49365000Y-40421667D01*
X49365000Y-40578333D01*
X49405548Y-40729661D01*
X49417291Y-40750000D01*
X48590001Y-40750000D01*
X48590001Y-41394986D01*
X48600494Y-41497697D01*
X48655641Y-41664119D01*
X48655643Y-41664124D01*
X48747684Y-41813345D01*
X48871654Y-41937315D01*
X49020875Y-42029356D01*
X49020880Y-42029358D01*
X49187302Y-42084505D01*
X49187309Y-42084506D01*
X49290019Y-42094999D01*
X49709999Y-42094999D01*
X49710000Y-42094998D01*
X49710000Y-41042709D01*
X49730339Y-41054452D01*
X49881667Y-41095000D01*
X50038333Y-41095000D01*
X50189661Y-41054452D01*
X50210000Y-41042709D01*
X50210000Y-42094999D01*
X50629972Y-42094999D01*
X50629986Y-42094998D01*
X50732697Y-42084505D01*
X50899119Y-42029358D01*
X50899124Y-42029356D01*
X51048345Y-41937315D01*
X51172315Y-41813345D01*
X51264354Y-41664127D01*
X51264745Y-41663289D01*
X51265167Y-41662809D01*
X51268149Y-41657975D01*
X51268974Y-41658484D01*
X51310910Y-41610843D01*
X51378100Y-41591681D01*
X51444984Y-41611887D01*
X51464816Y-41627996D01*
X51607179Y-41770359D01*
X51781701Y-41897157D01*
X51973911Y-41995092D01*
X52179074Y-42061754D01*
X52258973Y-42074408D01*
X52392134Y-42095500D01*
X52392139Y-42095500D01*
X52607866Y-42095500D01*
X52726230Y-42076752D01*
X52820926Y-42061754D01*
X53026089Y-41995092D01*
X53218299Y-41897157D01*
X53387560Y-41774181D01*
X53453364Y-41750702D01*
X53460444Y-41750500D01*
X53788422Y-41750500D01*
X53982826Y-41719709D01*
X53993115Y-41716366D01*
X54170026Y-41658884D01*
X54345405Y-41569524D01*
X54504646Y-41453828D01*
X56479761Y-39478711D01*
X60149500Y-39478711D01*
X60149500Y-39721288D01*
X60181161Y-39961785D01*
X60243947Y-40196104D01*
X60318463Y-40376000D01*
X60336776Y-40420212D01*
X60458064Y-40630289D01*
X60458066Y-40630292D01*
X60458067Y-40630293D01*
X60605733Y-40822736D01*
X60605739Y-40822743D01*
X60777256Y-40994260D01*
X60777262Y-40994265D01*
X60969711Y-41141936D01*
X61179788Y-41263224D01*
X61403900Y-41356054D01*
X61638211Y-41418838D01*
X61818586Y-41442584D01*
X61878711Y-41450500D01*
X61878712Y-41450500D01*
X62121289Y-41450500D01*
X62175986Y-41443299D01*
X62361789Y-41418838D01*
X62596100Y-41356054D01*
X62820212Y-41263224D01*
X63030289Y-41141936D01*
X63222738Y-40994265D01*
X63394265Y-40822738D01*
X63541936Y-40630289D01*
X63663224Y-40420212D01*
X63756054Y-40196100D01*
X63818838Y-39961789D01*
X63850500Y-39721288D01*
X63850500Y-39478712D01*
X63818838Y-39238211D01*
X63756054Y-39003900D01*
X63663224Y-38779788D01*
X63541936Y-38569711D01*
X63481018Y-38490321D01*
X63394266Y-38377263D01*
X63394260Y-38377256D01*
X63222743Y-38205739D01*
X63222736Y-38205733D01*
X63030293Y-38058067D01*
X63030292Y-38058066D01*
X63030289Y-38058064D01*
X62820212Y-37936776D01*
X62725831Y-37897682D01*
X62596104Y-37843947D01*
X62403550Y-37792352D01*
X62361789Y-37781162D01*
X62361788Y-37781161D01*
X62361785Y-37781161D01*
X62121289Y-37749500D01*
X62121288Y-37749500D01*
X61878712Y-37749500D01*
X61878711Y-37749500D01*
X61638214Y-37781161D01*
X61403895Y-37843947D01*
X61179794Y-37936773D01*
X61179785Y-37936777D01*
X60969706Y-38058067D01*
X60777263Y-38205733D01*
X60777256Y-38205739D01*
X60605739Y-38377256D01*
X60605733Y-38377263D01*
X60458067Y-38569706D01*
X60336777Y-38779785D01*
X60336773Y-38779794D01*
X60243947Y-39003895D01*
X60181161Y-39238214D01*
X60149500Y-39478711D01*
X56479761Y-39478711D01*
X57115890Y-38842582D01*
X57147275Y-38819780D01*
X57181610Y-38802287D01*
X57347219Y-38681966D01*
X57491966Y-38537219D01*
X57491968Y-38537215D01*
X57491971Y-38537213D01*
X57544732Y-38464590D01*
X57612287Y-38371610D01*
X57705220Y-38189219D01*
X57768477Y-37994534D01*
X57800500Y-37792352D01*
X57800500Y-37587648D01*
X57768477Y-37385466D01*
X57705220Y-37190781D01*
X57705218Y-37190778D01*
X57705218Y-37190776D01*
X57638697Y-37060223D01*
X57612287Y-37008390D01*
X57604556Y-36997749D01*
X57491971Y-36842786D01*
X57347213Y-36698028D01*
X57181613Y-36577715D01*
X57181612Y-36577714D01*
X57181610Y-36577713D01*
X57124653Y-36548691D01*
X56999223Y-36484781D01*
X56804534Y-36421522D01*
X56629995Y-36393878D01*
X56602352Y-36389500D01*
X56397648Y-36389500D01*
X56373329Y-36393351D01*
X56195465Y-36421522D01*
X56000776Y-36484781D01*
X55818386Y-36577715D01*
X55652786Y-36698028D01*
X55508028Y-36842786D01*
X55387714Y-37008386D01*
X55370216Y-37042727D01*
X55347414Y-37074110D01*
X53348502Y-39073022D01*
X53287179Y-39106507D01*
X53217487Y-39101523D01*
X53204535Y-39095829D01*
X53026089Y-39004908D01*
X52820926Y-38938246D01*
X52820924Y-38938245D01*
X52820922Y-38938245D01*
X52607866Y-38904500D01*
X52607861Y-38904500D01*
X52392139Y-38904500D01*
X52392134Y-38904500D01*
X52179077Y-38938245D01*
X51973908Y-39004909D01*
X51781700Y-39102843D01*
X51607180Y-39229640D01*
X51464816Y-39372004D01*
X51403493Y-39405488D01*
X51333801Y-39400504D01*
X51277868Y-39358632D01*
X51264748Y-39336716D01*
X51264356Y-39335876D01*
X51172315Y-39186654D01*
X51048345Y-39062684D01*
X50899124Y-38970643D01*
X50899119Y-38970641D01*
X50732697Y-38915494D01*
X50732690Y-38915493D01*
X50629986Y-38905000D01*
X50210000Y-38905000D01*
X50210000Y-39957290D01*
X50189661Y-39945548D01*
X50038333Y-39905000D01*
X49881667Y-39905000D01*
X49730339Y-39945548D01*
X49710000Y-39957290D01*
X49710000Y-38905000D01*
X49290028Y-38905000D01*
X49290012Y-38905001D01*
X49187302Y-38915494D01*
X49020880Y-38970641D01*
X49020875Y-38970643D01*
X48871654Y-39062684D01*
X48747684Y-39186654D01*
X48655643Y-39335875D01*
X48655641Y-39335880D01*
X48600494Y-39502302D01*
X48600493Y-39502309D01*
X48590000Y-39605013D01*
X47196773Y-39605013D01*
X47172157Y-39556701D01*
X47045359Y-39382179D01*
X46892821Y-39229641D01*
X46718299Y-39102843D01*
X46526089Y-39004908D01*
X46320926Y-38938246D01*
X46320924Y-38938245D01*
X46320922Y-38938245D01*
X46107866Y-38904500D01*
X46107861Y-38904500D01*
X45892139Y-38904500D01*
X45892134Y-38904500D01*
X45679077Y-38938245D01*
X45473908Y-39004909D01*
X45281700Y-39102843D01*
X45107180Y-39229640D01*
X44964816Y-39372004D01*
X44903493Y-39405488D01*
X44833801Y-39400504D01*
X44777868Y-39358632D01*
X44764748Y-39336716D01*
X44764356Y-39335876D01*
X44672315Y-39186654D01*
X44548345Y-39062684D01*
X44399124Y-38970643D01*
X44399119Y-38970641D01*
X44232697Y-38915494D01*
X44232690Y-38915493D01*
X44129986Y-38905000D01*
X43710000Y-38905000D01*
X43710000Y-39957290D01*
X43689661Y-39945548D01*
X43538333Y-39905000D01*
X43381667Y-39905000D01*
X43230339Y-39945548D01*
X43210000Y-39957290D01*
X43210000Y-38905000D01*
X42790028Y-38905000D01*
X42790012Y-38905001D01*
X42687302Y-38915494D01*
X42520880Y-38970641D01*
X42520875Y-38970643D01*
X42371654Y-39062684D01*
X42247684Y-39186654D01*
X42155643Y-39335875D01*
X42155641Y-39335880D01*
X42100494Y-39502302D01*
X42100493Y-39502309D01*
X42090000Y-39605013D01*
X42090000Y-40250000D01*
X42917291Y-40250000D01*
X42905548Y-40270339D01*
X42865000Y-40421667D01*
X42865000Y-40578333D01*
X42905548Y-40729661D01*
X42917291Y-40750000D01*
X42090001Y-40750000D01*
X42090001Y-41394986D01*
X42100494Y-41497697D01*
X42155641Y-41664119D01*
X42155643Y-41664124D01*
X42247684Y-41813345D01*
X42371654Y-41937315D01*
X42520875Y-42029356D01*
X42520880Y-42029358D01*
X42687302Y-42084505D01*
X42687309Y-42084506D01*
X42790019Y-42094999D01*
X43209999Y-42094999D01*
X43210000Y-42094998D01*
X43210000Y-41042709D01*
X43230339Y-41054452D01*
X43381667Y-41095000D01*
X43538333Y-41095000D01*
X43689661Y-41054452D01*
X43710000Y-41042709D01*
X43710000Y-42094999D01*
X44129972Y-42094999D01*
X44129986Y-42094998D01*
X44232697Y-42084505D01*
X44399119Y-42029358D01*
X44399124Y-42029356D01*
X44548345Y-41937315D01*
X44672315Y-41813345D01*
X44768149Y-41657975D01*
X44769915Y-41659064D01*
X44809278Y-41614349D01*
X44876470Y-41595189D01*
X44943353Y-41615397D01*
X44988694Y-41668557D01*
X44999500Y-41719185D01*
X44999500Y-42053907D01*
X45008569Y-42099500D01*
X45037949Y-42247202D01*
X45060038Y-42300531D01*
X45081658Y-42352727D01*
X45113366Y-42429277D01*
X45113371Y-42429286D01*
X45222859Y-42593146D01*
X45222860Y-42593147D01*
X45222861Y-42593148D01*
X45362218Y-42732505D01*
X45362219Y-42732505D01*
X45369286Y-42739572D01*
X45369285Y-42739572D01*
X45369289Y-42739575D01*
X46285181Y-43655467D01*
X46318666Y-43716790D01*
X46321500Y-43743148D01*
X46321500Y-48965217D01*
X46301815Y-49032256D01*
X46285181Y-49052898D01*
X45721863Y-49616215D01*
X45721860Y-49616219D01*
X45612371Y-49780080D01*
X45612364Y-49780092D01*
X45578348Y-49862219D01*
X45578348Y-49862220D01*
X45547235Y-49937333D01*
X45536950Y-49962162D01*
X45536947Y-49962170D01*
X45498500Y-50155457D01*
X45498500Y-50155460D01*
X45498500Y-51844540D01*
X45498500Y-51844542D01*
X45498499Y-51844542D01*
X45536947Y-52037828D01*
X45536950Y-52037838D01*
X45612364Y-52219906D01*
X45612371Y-52219919D01*
X45721860Y-52383780D01*
X45721863Y-52383784D01*
X45865537Y-52527458D01*
X45865559Y-52527478D01*
X47774859Y-54436778D01*
X47774862Y-54436782D01*
X47914219Y-54576139D01*
X47918317Y-54578877D01*
X47926115Y-54586603D01*
X47940310Y-54612315D01*
X47956841Y-54636584D01*
X47957000Y-54642547D01*
X47959884Y-54647770D01*
X47957925Y-54677068D01*
X47958712Y-54706428D01*
X47955512Y-54713160D01*
X47955224Y-54717484D01*
X47950307Y-54724115D01*
X47939161Y-54747575D01*
X47887714Y-54818386D01*
X47794781Y-55000776D01*
X47731522Y-55195465D01*
X47699500Y-55397648D01*
X47699500Y-55602351D01*
X47731522Y-55804534D01*
X47794781Y-55999223D01*
X47847328Y-56102351D01*
X47863668Y-56134420D01*
X47887715Y-56181613D01*
X48008028Y-56347213D01*
X48152786Y-56491971D01*
X48307749Y-56604556D01*
X48318390Y-56612287D01*
X48397864Y-56652781D01*
X48500776Y-56705218D01*
X48500778Y-56705218D01*
X48500781Y-56705220D01*
X48605137Y-56739127D01*
X48695465Y-56768477D01*
X48796557Y-56784488D01*
X48897648Y-56800500D01*
X48897649Y-56800500D01*
X49102351Y-56800500D01*
X49102352Y-56800500D01*
X49304534Y-56768477D01*
X49499219Y-56705220D01*
X49681610Y-56612287D01*
X49774590Y-56544732D01*
X49847213Y-56491971D01*
X49847215Y-56491968D01*
X49847219Y-56491966D01*
X49991966Y-56347219D01*
X49991968Y-56347215D01*
X49991971Y-56347213D01*
X50099289Y-56199500D01*
X50112287Y-56181610D01*
X50205220Y-55999219D01*
X50268477Y-55804534D01*
X50300500Y-55602352D01*
X50300500Y-55397648D01*
X50268477Y-55195466D01*
X50254609Y-55152786D01*
X50235027Y-55092517D01*
X50205220Y-55000781D01*
X50205217Y-55000777D01*
X50205217Y-55000774D01*
X50194528Y-54979796D01*
X50181631Y-54911127D01*
X50207907Y-54846386D01*
X50265013Y-54806128D01*
X50305012Y-54799500D01*
X51061953Y-54799500D01*
X51128992Y-54819185D01*
X51174747Y-54871989D01*
X51184691Y-54941147D01*
X51155666Y-55004703D01*
X51149634Y-55011181D01*
X51008032Y-55152782D01*
X51008028Y-55152786D01*
X50887715Y-55318386D01*
X50794781Y-55500776D01*
X50731522Y-55695465D01*
X50699500Y-55897648D01*
X50699500Y-56102351D01*
X50731522Y-56304534D01*
X50794781Y-56499223D01*
X50889632Y-56685376D01*
X50902528Y-56754045D01*
X50876252Y-56818786D01*
X50866828Y-56829352D01*
X49012181Y-58683999D01*
X48950858Y-58717484D01*
X48881166Y-58712500D01*
X48825233Y-58670628D01*
X48800816Y-58605164D01*
X48800500Y-58596318D01*
X48800500Y-58397648D01*
X48768477Y-58195465D01*
X48724682Y-58060678D01*
X48705220Y-58000781D01*
X48705218Y-58000778D01*
X48705218Y-58000776D01*
X48638697Y-57870223D01*
X48612287Y-57818390D01*
X48590490Y-57788389D01*
X48491971Y-57652786D01*
X48347213Y-57508028D01*
X48181613Y-57387715D01*
X48181612Y-57387714D01*
X48181610Y-57387713D01*
X48124653Y-57358691D01*
X47999223Y-57294781D01*
X47804534Y-57231522D01*
X47629995Y-57203878D01*
X47602352Y-57199500D01*
X47397648Y-57199500D01*
X47373329Y-57203351D01*
X47195465Y-57231522D01*
X47000776Y-57294781D01*
X46883899Y-57354334D01*
X46821779Y-57385985D01*
X46765488Y-57399500D01*
X45591611Y-57399500D01*
X45418389Y-57399500D01*
X45382742Y-57405146D01*
X45247302Y-57426597D01*
X45082552Y-57480128D01*
X44928211Y-57558768D01*
X44912064Y-57570500D01*
X44788072Y-57660586D01*
X44788070Y-57660588D01*
X44788069Y-57660588D01*
X43902681Y-58545977D01*
X43841358Y-58579462D01*
X43771666Y-58574478D01*
X43727319Y-58545977D01*
X42636819Y-57455477D01*
X42603334Y-57394154D01*
X42600500Y-57367796D01*
X42600500Y-56134420D01*
X42620185Y-56067381D01*
X42672989Y-56021626D01*
X42742147Y-56011682D01*
X42805703Y-56040707D01*
X42834984Y-56078123D01*
X42882146Y-56170684D01*
X42887715Y-56181614D01*
X43008028Y-56347213D01*
X43152786Y-56491971D01*
X43307749Y-56604556D01*
X43318390Y-56612287D01*
X43397864Y-56652781D01*
X43500776Y-56705218D01*
X43500778Y-56705218D01*
X43500781Y-56705220D01*
X43605137Y-56739127D01*
X43695465Y-56768477D01*
X43796557Y-56784488D01*
X43897648Y-56800500D01*
X43897649Y-56800500D01*
X44102351Y-56800500D01*
X44102352Y-56800500D01*
X44304534Y-56768477D01*
X44499219Y-56705220D01*
X44681610Y-56612287D01*
X44774590Y-56544732D01*
X44847213Y-56491971D01*
X44847215Y-56491968D01*
X44847219Y-56491966D01*
X44991966Y-56347219D01*
X44991968Y-56347215D01*
X44991971Y-56347213D01*
X45099289Y-56199500D01*
X45112287Y-56181610D01*
X45205220Y-55999219D01*
X45268477Y-55804534D01*
X45300500Y-55602352D01*
X45300500Y-55397648D01*
X45268477Y-55195466D01*
X45254609Y-55152786D01*
X45235027Y-55092517D01*
X45205220Y-55000781D01*
X45205218Y-55000778D01*
X45205218Y-55000776D01*
X45159539Y-54911127D01*
X45112287Y-54818390D01*
X45087417Y-54784159D01*
X44991971Y-54652786D01*
X44847213Y-54508028D01*
X44681613Y-54387715D01*
X44681612Y-54387714D01*
X44681610Y-54387713D01*
X44624653Y-54358691D01*
X44499223Y-54294781D01*
X44304534Y-54231522D01*
X44129995Y-54203878D01*
X44102352Y-54199500D01*
X43897648Y-54199500D01*
X43873329Y-54203351D01*
X43695465Y-54231522D01*
X43500776Y-54294781D01*
X43318386Y-54387715D01*
X43152786Y-54508028D01*
X43008028Y-54652786D01*
X42887715Y-54818386D01*
X42834985Y-54921874D01*
X42787010Y-54972670D01*
X42719189Y-54989465D01*
X42653054Y-54966927D01*
X42609603Y-54912212D01*
X42600500Y-54865579D01*
X42600500Y-54752705D01*
X42595972Y-54724115D01*
X42573402Y-54581615D01*
X42519873Y-54416871D01*
X42441232Y-54262528D01*
X42339414Y-54122388D01*
X42216928Y-53999902D01*
X41046612Y-52829586D01*
X40906472Y-52727768D01*
X40752129Y-52649127D01*
X40587385Y-52595598D01*
X40587383Y-52595597D01*
X40587382Y-52595597D01*
X40455955Y-52574781D01*
X40416295Y-52568500D01*
X37913389Y-52568500D01*
X37873728Y-52574781D01*
X37742302Y-52595597D01*
X37577552Y-52649128D01*
X37423211Y-52727768D01*
X37283071Y-52829586D01*
X37283065Y-52829591D01*
X37273538Y-52839118D01*
X37251843Y-52856420D01*
X37238424Y-52864852D01*
X37114852Y-52988425D01*
X37021878Y-53136392D01*
X36993112Y-53218597D01*
X36986561Y-53233924D01*
X36980131Y-53246545D01*
X36980124Y-53246562D01*
X36926597Y-53411301D01*
X36899500Y-53582389D01*
X36899500Y-53755610D01*
X36926597Y-53926698D01*
X36943431Y-53978507D01*
X36943799Y-53980836D01*
X36944477Y-53981890D01*
X36949500Y-54016825D01*
X36949500Y-54035217D01*
X36929815Y-54102256D01*
X36877011Y-54148011D01*
X36807853Y-54157955D01*
X36744297Y-54128930D01*
X36737819Y-54122898D01*
X34980447Y-52365526D01*
X32564920Y-49950000D01*
X39183391Y-49950000D01*
X40144314Y-49950000D01*
X40139920Y-49954394D01*
X40087259Y-50045606D01*
X40060000Y-50147339D01*
X40060000Y-50252661D01*
X40087259Y-50354394D01*
X40139920Y-50445606D01*
X40144314Y-50450000D01*
X39183391Y-50450000D01*
X39192009Y-50504413D01*
X39255244Y-50699029D01*
X39348140Y-50881349D01*
X39468417Y-51046894D01*
X39468417Y-51046895D01*
X39613104Y-51191582D01*
X39778650Y-51311859D01*
X39960968Y-51404754D01*
X40155578Y-51467988D01*
X40210000Y-51476607D01*
X40210000Y-50515686D01*
X40214394Y-50520080D01*
X40305606Y-50572741D01*
X40407339Y-50600000D01*
X40512661Y-50600000D01*
X40614394Y-50572741D01*
X40705606Y-50520080D01*
X40710000Y-50515686D01*
X40710000Y-51476606D01*
X40764421Y-51467988D01*
X40959031Y-51404754D01*
X41141349Y-51311859D01*
X41306894Y-51191582D01*
X41306895Y-51191582D01*
X41451582Y-51046895D01*
X41451582Y-51046894D01*
X41571859Y-50881349D01*
X41664755Y-50699029D01*
X41727990Y-50504413D01*
X41736609Y-50450000D01*
X40775686Y-50450000D01*
X40780080Y-50445606D01*
X40832741Y-50354394D01*
X40860000Y-50252661D01*
X40860000Y-50147339D01*
X40832741Y-50045606D01*
X40780080Y-49954394D01*
X40775686Y-49950000D01*
X41736609Y-49950000D01*
X41727990Y-49895586D01*
X41664755Y-49700970D01*
X41571859Y-49518650D01*
X41451582Y-49353105D01*
X41451582Y-49353104D01*
X41306895Y-49208417D01*
X41141349Y-49088140D01*
X40959029Y-48995244D01*
X40764413Y-48932009D01*
X40710000Y-48923390D01*
X40710000Y-49884314D01*
X40705606Y-49879920D01*
X40614394Y-49827259D01*
X40512661Y-49800000D01*
X40407339Y-49800000D01*
X40305606Y-49827259D01*
X40214394Y-49879920D01*
X40210000Y-49884314D01*
X40210000Y-48923390D01*
X40155586Y-48932009D01*
X39960970Y-48995244D01*
X39778650Y-49088140D01*
X39613105Y-49208417D01*
X39613104Y-49208417D01*
X39468417Y-49353104D01*
X39468417Y-49353105D01*
X39348140Y-49518650D01*
X39255244Y-49700970D01*
X39192009Y-49895586D01*
X39183391Y-49950000D01*
X32564920Y-49950000D01*
X32184208Y-49569288D01*
X32184206Y-49569285D01*
X32184206Y-49569286D01*
X32177139Y-49562219D01*
X32177139Y-49562218D01*
X32037782Y-49422861D01*
X32037781Y-49422860D01*
X32037780Y-49422859D01*
X31873917Y-49313369D01*
X31737008Y-49256660D01*
X31737006Y-49256659D01*
X31729381Y-49253501D01*
X31691836Y-49237949D01*
X31595188Y-49218724D01*
X31591344Y-49217959D01*
X31591335Y-49217957D01*
X31498544Y-49199500D01*
X31498541Y-49199500D01*
X31175762Y-49199500D01*
X31108723Y-49179815D01*
X31102877Y-49175818D01*
X30981613Y-49087715D01*
X30981612Y-49087714D01*
X30981610Y-49087713D01*
X30913282Y-49052898D01*
X30799223Y-48994781D01*
X30604534Y-48931522D01*
X30429995Y-48903878D01*
X30402352Y-48899500D01*
X30197648Y-48899500D01*
X30173329Y-48903351D01*
X29995465Y-48931522D01*
X29800776Y-48994781D01*
X29618386Y-49087715D01*
X29452786Y-49208028D01*
X29308030Y-49352784D01*
X29238575Y-49448384D01*
X29183245Y-49491051D01*
X29138256Y-49499500D01*
X28575762Y-49499500D01*
X28508723Y-49479815D01*
X28502877Y-49475818D01*
X28502439Y-49475500D01*
X28381610Y-49387713D01*
X28313052Y-49352781D01*
X28199223Y-49294781D01*
X28004534Y-49231522D01*
X27829995Y-49203878D01*
X27802352Y-49199500D01*
X27597648Y-49199500D01*
X27573329Y-49203351D01*
X27395465Y-49231522D01*
X27200776Y-49294781D01*
X27018386Y-49387715D01*
X26852786Y-49508028D01*
X26708028Y-49652786D01*
X26587715Y-49818386D01*
X26494781Y-50000776D01*
X26431522Y-50195465D01*
X26399500Y-50397648D01*
X26399500Y-50602351D01*
X26431522Y-50804534D01*
X26494781Y-50999223D01*
X26587715Y-51181613D01*
X26708028Y-51347213D01*
X26852786Y-51491971D01*
X27007749Y-51604556D01*
X27018390Y-51612287D01*
X27134607Y-51671503D01*
X27200776Y-51705218D01*
X27200778Y-51705218D01*
X27200781Y-51705220D01*
X27305137Y-51739127D01*
X27395465Y-51768477D01*
X27496557Y-51784488D01*
X27597648Y-51800500D01*
X27597649Y-51800500D01*
X27802351Y-51800500D01*
X27802352Y-51800500D01*
X28004534Y-51768477D01*
X28199219Y-51705220D01*
X28381610Y-51612287D01*
X28502877Y-51524181D01*
X28568683Y-51500702D01*
X28575762Y-51500500D01*
X30098540Y-51500500D01*
X30098541Y-51500500D01*
X30120756Y-51496080D01*
X30164343Y-51495225D01*
X30197648Y-51500500D01*
X30197649Y-51500500D01*
X30402351Y-51500500D01*
X30402352Y-51500500D01*
X30604534Y-51468477D01*
X30799219Y-51405220D01*
X30978023Y-51314114D01*
X31046691Y-51301218D01*
X31111431Y-51327494D01*
X31121998Y-51336918D01*
X32814384Y-53029304D01*
X32847869Y-53090627D01*
X32842885Y-53160319D01*
X32801013Y-53216252D01*
X32765022Y-53234916D01*
X32580776Y-53294781D01*
X32398386Y-53387715D01*
X32232786Y-53508028D01*
X32088028Y-53652786D01*
X31967715Y-53818386D01*
X31874781Y-54000776D01*
X31811522Y-54195465D01*
X31779500Y-54397648D01*
X31779500Y-54602351D01*
X31811522Y-54804534D01*
X31874781Y-54999223D01*
X31938691Y-55124653D01*
X31954387Y-55155457D01*
X31967715Y-55181613D01*
X32088028Y-55347213D01*
X32232786Y-55491971D01*
X32387749Y-55604556D01*
X32398390Y-55612287D01*
X32514607Y-55671503D01*
X32580776Y-55705218D01*
X32580778Y-55705218D01*
X32580781Y-55705220D01*
X32685137Y-55739127D01*
X32775465Y-55768477D01*
X32780194Y-55769612D01*
X32779916Y-55770767D01*
X32838031Y-55798316D01*
X32874963Y-55857627D01*
X32879499Y-55890860D01*
X32879499Y-56826325D01*
X32859814Y-56893364D01*
X32807010Y-56939119D01*
X32737852Y-56949063D01*
X32674296Y-56920038D01*
X32645014Y-56882620D01*
X32627309Y-56847873D01*
X32612287Y-56818390D01*
X32599289Y-56800500D01*
X32491971Y-56652786D01*
X32347213Y-56508028D01*
X32181613Y-56387715D01*
X32181612Y-56387714D01*
X32181610Y-56387713D01*
X32124653Y-56358691D01*
X31999223Y-56294781D01*
X31804534Y-56231522D01*
X31629995Y-56203878D01*
X31602352Y-56199500D01*
X31397648Y-56199500D01*
X31373329Y-56203351D01*
X31195465Y-56231522D01*
X31000776Y-56294781D01*
X30818386Y-56387715D01*
X30652786Y-56508028D01*
X30508028Y-56652786D01*
X30387715Y-56818386D01*
X30294781Y-57000776D01*
X30231522Y-57195465D01*
X30199500Y-57397648D01*
X30199500Y-57602351D01*
X30231522Y-57804534D01*
X30294781Y-57999223D01*
X30370820Y-58148456D01*
X30387713Y-58181610D01*
X30475819Y-58302877D01*
X30499298Y-58368681D01*
X30499500Y-58375761D01*
X30499500Y-60534217D01*
X30479815Y-60601256D01*
X30463181Y-60621898D01*
X27176847Y-63908231D01*
X27115524Y-63941716D01*
X27045832Y-63936732D01*
X27016285Y-63920870D01*
X26946704Y-63870317D01*
X26904040Y-63814987D01*
X26898061Y-63745374D01*
X26930667Y-63683579D01*
X26946702Y-63669684D01*
X27117821Y-63545359D01*
X27270359Y-63392821D01*
X27397157Y-63218299D01*
X27495092Y-63026089D01*
X27561754Y-62820926D01*
X27576752Y-62726230D01*
X27595500Y-62607866D01*
X27595500Y-62392133D01*
X27572988Y-62250000D01*
X27561754Y-62179074D01*
X27495092Y-61973911D01*
X27397157Y-61781701D01*
X27274181Y-61612440D01*
X27250702Y-61546634D01*
X27250500Y-61539555D01*
X27250500Y-61401577D01*
X27219709Y-61207173D01*
X27184412Y-61098542D01*
X27184412Y-61098541D01*
X27158884Y-61019974D01*
X27158882Y-61019971D01*
X27158882Y-61019969D01*
X27083290Y-60871613D01*
X27069524Y-60844595D01*
X26953829Y-60685355D01*
X24666122Y-58397648D01*
X26699500Y-58397648D01*
X26699500Y-58602352D01*
X26703878Y-58629995D01*
X26731522Y-58804534D01*
X26794781Y-58999223D01*
X26852391Y-59112287D01*
X26882482Y-59171344D01*
X26887715Y-59181613D01*
X27008028Y-59347213D01*
X27152786Y-59491971D01*
X27302166Y-59600500D01*
X27318390Y-59612287D01*
X27434607Y-59671503D01*
X27500776Y-59705218D01*
X27500778Y-59705218D01*
X27500781Y-59705220D01*
X27605137Y-59739127D01*
X27695465Y-59768477D01*
X27796557Y-59784488D01*
X27897648Y-59800500D01*
X27897649Y-59800500D01*
X28102351Y-59800500D01*
X28102352Y-59800500D01*
X28304534Y-59768477D01*
X28499219Y-59705220D01*
X28681610Y-59612287D01*
X28774590Y-59544732D01*
X28847213Y-59491971D01*
X28847215Y-59491968D01*
X28847219Y-59491966D01*
X28991966Y-59347219D01*
X28991968Y-59347215D01*
X28991971Y-59347213D01*
X29095133Y-59205220D01*
X29112287Y-59181610D01*
X29205220Y-58999219D01*
X29268477Y-58804534D01*
X29300500Y-58602352D01*
X29300500Y-58397648D01*
X29285489Y-58302875D01*
X29268477Y-58195465D01*
X29224682Y-58060678D01*
X29205220Y-58000781D01*
X29205218Y-58000778D01*
X29205218Y-58000776D01*
X29138697Y-57870223D01*
X29112287Y-57818390D01*
X29090490Y-57788389D01*
X28991971Y-57652786D01*
X28847213Y-57508028D01*
X28681613Y-57387715D01*
X28681612Y-57387714D01*
X28681610Y-57387713D01*
X28624653Y-57358691D01*
X28499223Y-57294781D01*
X28304534Y-57231522D01*
X28129995Y-57203878D01*
X28102352Y-57199500D01*
X27897648Y-57199500D01*
X27873329Y-57203351D01*
X27695465Y-57231522D01*
X27500776Y-57294781D01*
X27318386Y-57387715D01*
X27152786Y-57508028D01*
X27008028Y-57652786D01*
X26887715Y-57818386D01*
X26794781Y-58000776D01*
X26731522Y-58195465D01*
X26699500Y-58397648D01*
X24666122Y-58397648D01*
X24152584Y-57884110D01*
X24129780Y-57852723D01*
X24112287Y-57818390D01*
X23991966Y-57652781D01*
X23847219Y-57508034D01*
X23847213Y-57508028D01*
X23681613Y-57387715D01*
X23681612Y-57387714D01*
X23681610Y-57387713D01*
X23624653Y-57358691D01*
X23499223Y-57294781D01*
X23304534Y-57231522D01*
X23129995Y-57203878D01*
X23102352Y-57199500D01*
X22897648Y-57199500D01*
X22873329Y-57203351D01*
X22695465Y-57231522D01*
X22500776Y-57294781D01*
X22318386Y-57387715D01*
X22152786Y-57508028D01*
X22008028Y-57652786D01*
X21887715Y-57818386D01*
X21794781Y-58000776D01*
X21742431Y-58161894D01*
X21702993Y-58219569D01*
X21638634Y-58246767D01*
X21569788Y-58234852D01*
X21518312Y-58187608D01*
X21500500Y-58123575D01*
X21500500Y-55095168D01*
X21520185Y-55028129D01*
X21572989Y-54982374D01*
X21642147Y-54972430D01*
X21705703Y-55001455D01*
X21734985Y-55038873D01*
X21807715Y-55181614D01*
X21928028Y-55347213D01*
X22072786Y-55491971D01*
X22227749Y-55604556D01*
X22238390Y-55612287D01*
X22354607Y-55671503D01*
X22420776Y-55705218D01*
X22420778Y-55705218D01*
X22420781Y-55705220D01*
X22525137Y-55739127D01*
X22615465Y-55768477D01*
X22716557Y-55784488D01*
X22817648Y-55800500D01*
X22817649Y-55800500D01*
X23022351Y-55800500D01*
X23022352Y-55800500D01*
X23224534Y-55768477D01*
X23419219Y-55705220D01*
X23601610Y-55612287D01*
X23696567Y-55543297D01*
X23767213Y-55491971D01*
X23767215Y-55491968D01*
X23767219Y-55491966D01*
X23911966Y-55347219D01*
X23911968Y-55347215D01*
X23911971Y-55347213D01*
X23966584Y-55272043D01*
X24032287Y-55181610D01*
X24125220Y-54999219D01*
X24188477Y-54804534D01*
X24220500Y-54602352D01*
X24220500Y-54397648D01*
X24188477Y-54195466D01*
X24125220Y-54000781D01*
X24125218Y-54000778D01*
X24125218Y-54000776D01*
X24087473Y-53926698D01*
X24032287Y-53818390D01*
X23986675Y-53755610D01*
X23911971Y-53652786D01*
X23767217Y-53508032D01*
X23767212Y-53508028D01*
X23751615Y-53496696D01*
X23708949Y-53441366D01*
X23700500Y-53396378D01*
X23700500Y-51375761D01*
X23720185Y-51308722D01*
X23724165Y-51302899D01*
X23812287Y-51181610D01*
X23905220Y-50999219D01*
X23968477Y-50804534D01*
X24000500Y-50602352D01*
X24000500Y-50397648D01*
X23982660Y-50285011D01*
X23968477Y-50195465D01*
X23933546Y-50087959D01*
X23905220Y-50000781D01*
X23905218Y-50000778D01*
X23905218Y-50000776D01*
X23843638Y-49879920D01*
X23812287Y-49818390D01*
X23800515Y-49802187D01*
X23691971Y-49652786D01*
X23547213Y-49508028D01*
X23381613Y-49387715D01*
X23381612Y-49387714D01*
X23381610Y-49387713D01*
X23313052Y-49352781D01*
X23199223Y-49294781D01*
X23004534Y-49231522D01*
X22829995Y-49203878D01*
X22802352Y-49199500D01*
X22597648Y-49199500D01*
X22573329Y-49203351D01*
X22395465Y-49231522D01*
X22200776Y-49294781D01*
X22018386Y-49387715D01*
X21852786Y-49508028D01*
X21852782Y-49508032D01*
X21712181Y-49648634D01*
X21650858Y-49682119D01*
X21581166Y-49677135D01*
X21525233Y-49635263D01*
X21500816Y-49569799D01*
X21500500Y-49560953D01*
X21500500Y-47559047D01*
X21520185Y-47492008D01*
X21572989Y-47446253D01*
X21642147Y-47436309D01*
X21705703Y-47465334D01*
X21712181Y-47471366D01*
X21732786Y-47491971D01*
X21868394Y-47590494D01*
X21898390Y-47612287D01*
X22001782Y-47664968D01*
X22080776Y-47705218D01*
X22080778Y-47705218D01*
X22080781Y-47705220D01*
X22185137Y-47739127D01*
X22275465Y-47768477D01*
X22376557Y-47784488D01*
X22477648Y-47800500D01*
X22477649Y-47800500D01*
X22682351Y-47800500D01*
X22682352Y-47800500D01*
X22884534Y-47768477D01*
X23079219Y-47705220D01*
X23261610Y-47612287D01*
X23354590Y-47544732D01*
X23427213Y-47491971D01*
X23427215Y-47491968D01*
X23427219Y-47491966D01*
X23571966Y-47347219D01*
X23692287Y-47181610D01*
X23709780Y-47147275D01*
X23732582Y-47115890D01*
X25761656Y-45086818D01*
X25822979Y-45053333D01*
X25849337Y-45050499D01*
X27049696Y-45050499D01*
X27116735Y-45070184D01*
X27162490Y-45122988D01*
X27172434Y-45192146D01*
X27143409Y-45255702D01*
X27088016Y-45292429D01*
X27080780Y-45294779D01*
X26898386Y-45387715D01*
X26732786Y-45508028D01*
X26588028Y-45652786D01*
X26467715Y-45818386D01*
X26374781Y-46000776D01*
X26311522Y-46195465D01*
X26286677Y-46352335D01*
X26279500Y-46397648D01*
X26279500Y-46602352D01*
X26280790Y-46610498D01*
X26311522Y-46804534D01*
X26374781Y-46999223D01*
X26395798Y-47040470D01*
X26467710Y-47181605D01*
X26467715Y-47181613D01*
X26588028Y-47347213D01*
X26732786Y-47491971D01*
X26868394Y-47590494D01*
X26898390Y-47612287D01*
X27001782Y-47664968D01*
X27080776Y-47705218D01*
X27080778Y-47705218D01*
X27080781Y-47705220D01*
X27185137Y-47739127D01*
X27275465Y-47768477D01*
X27376557Y-47784488D01*
X27477648Y-47800500D01*
X27477649Y-47800500D01*
X27682351Y-47800500D01*
X27682352Y-47800500D01*
X27884534Y-47768477D01*
X27912714Y-47759320D01*
X27921184Y-47756569D01*
X27959502Y-47750500D01*
X30120498Y-47750500D01*
X30158816Y-47756569D01*
X30172260Y-47760937D01*
X30195466Y-47768477D01*
X30397648Y-47800500D01*
X30397649Y-47800500D01*
X30602351Y-47800500D01*
X30602352Y-47800500D01*
X30804534Y-47768477D01*
X30999219Y-47705220D01*
X31181610Y-47612287D01*
X31274590Y-47544732D01*
X31347213Y-47491971D01*
X31347215Y-47491968D01*
X31347219Y-47491966D01*
X31491966Y-47347219D01*
X31491968Y-47347215D01*
X31491971Y-47347213D01*
X31579098Y-47227291D01*
X31612287Y-47181610D01*
X31705220Y-46999219D01*
X31768477Y-46804534D01*
X31800500Y-46602352D01*
X31800500Y-46397648D01*
X39359500Y-46397648D01*
X39359500Y-46602352D01*
X39360790Y-46610498D01*
X39391522Y-46804534D01*
X39454781Y-46999223D01*
X39475798Y-47040470D01*
X39547710Y-47181605D01*
X39547715Y-47181613D01*
X39668028Y-47347213D01*
X39812786Y-47491971D01*
X39948394Y-47590494D01*
X39978390Y-47612287D01*
X40081782Y-47664968D01*
X40160776Y-47705218D01*
X40160778Y-47705218D01*
X40160781Y-47705220D01*
X40265137Y-47739127D01*
X40355465Y-47768477D01*
X40456557Y-47784488D01*
X40557648Y-47800500D01*
X40557649Y-47800500D01*
X40762351Y-47800500D01*
X40762352Y-47800500D01*
X40964534Y-47768477D01*
X41159219Y-47705220D01*
X41338220Y-47614014D01*
X41394512Y-47600500D01*
X42685488Y-47600500D01*
X42741779Y-47614014D01*
X42811042Y-47649305D01*
X42920776Y-47705218D01*
X42920778Y-47705218D01*
X42920781Y-47705220D01*
X43025137Y-47739127D01*
X43115465Y-47768477D01*
X43216557Y-47784488D01*
X43317648Y-47800500D01*
X43317649Y-47800500D01*
X43522351Y-47800500D01*
X43522352Y-47800500D01*
X43724534Y-47768477D01*
X43919219Y-47705220D01*
X44101610Y-47612287D01*
X44194590Y-47544732D01*
X44267213Y-47491971D01*
X44267215Y-47491968D01*
X44267219Y-47491966D01*
X44411966Y-47347219D01*
X44411968Y-47347215D01*
X44411971Y-47347213D01*
X44499098Y-47227291D01*
X44532287Y-47181610D01*
X44625220Y-46999219D01*
X44688477Y-46804534D01*
X44720500Y-46602352D01*
X44720500Y-46397648D01*
X44712257Y-46345606D01*
X44688477Y-46195465D01*
X44625218Y-46000776D01*
X44532419Y-45818650D01*
X44532287Y-45818390D01*
X44499500Y-45773262D01*
X44411971Y-45652786D01*
X44267213Y-45508028D01*
X44101613Y-45387715D01*
X44101612Y-45387714D01*
X44101610Y-45387713D01*
X44022519Y-45347414D01*
X43919223Y-45294781D01*
X43724534Y-45231522D01*
X43549995Y-45203878D01*
X43522352Y-45199500D01*
X43317648Y-45199500D01*
X43293329Y-45203351D01*
X43115465Y-45231522D01*
X42920776Y-45294781D01*
X42817481Y-45347414D01*
X42741779Y-45385985D01*
X42685488Y-45399500D01*
X41394512Y-45399500D01*
X41338220Y-45385985D01*
X41259089Y-45345666D01*
X41159223Y-45294781D01*
X40964534Y-45231522D01*
X40789995Y-45203878D01*
X40762352Y-45199500D01*
X40557648Y-45199500D01*
X40533329Y-45203351D01*
X40355465Y-45231522D01*
X40160776Y-45294781D01*
X39978386Y-45387715D01*
X39812786Y-45508028D01*
X39668028Y-45652786D01*
X39547715Y-45818386D01*
X39454781Y-46000776D01*
X39391522Y-46195465D01*
X39366677Y-46352335D01*
X39359500Y-46397648D01*
X31800500Y-46397648D01*
X31792257Y-46345606D01*
X31768477Y-46195465D01*
X31705218Y-46000776D01*
X31612419Y-45818650D01*
X31612287Y-45818390D01*
X31579500Y-45773262D01*
X31491971Y-45652786D01*
X31347213Y-45508028D01*
X31181613Y-45387715D01*
X31181612Y-45387714D01*
X31181610Y-45387713D01*
X31102519Y-45347414D01*
X30999223Y-45294781D01*
X30804535Y-45231523D01*
X30666849Y-45209715D01*
X30603715Y-45179785D01*
X30566784Y-45120474D01*
X30567782Y-45050611D01*
X30606392Y-44992379D01*
X30647926Y-44969313D01*
X30680027Y-44958883D01*
X30855406Y-44869523D01*
X31014647Y-44753827D01*
X31481655Y-44286819D01*
X31542978Y-44253334D01*
X31569336Y-44250500D01*
X37782969Y-44250500D01*
X37977373Y-44219709D01*
X38164573Y-44158884D01*
X38339952Y-44069524D01*
X38499193Y-43953828D01*
X40453828Y-41999193D01*
X40569524Y-41839952D01*
X40592540Y-41794780D01*
X40658884Y-41664572D01*
X40719709Y-41477373D01*
X40745917Y-41311896D01*
X40757902Y-41275011D01*
X40770092Y-41251089D01*
X40836754Y-41045926D01*
X40851752Y-40951230D01*
X40870500Y-40832866D01*
X40870500Y-40167133D01*
X40836754Y-39954077D01*
X40836754Y-39954074D01*
X40770092Y-39748911D01*
X40672157Y-39556701D01*
X40545359Y-39382179D01*
X40392821Y-39229641D01*
X40218299Y-39102843D01*
X40026089Y-39004908D01*
X39820926Y-38938246D01*
X39820924Y-38938245D01*
X39820922Y-38938245D01*
X39607866Y-38904500D01*
X39607861Y-38904500D01*
X39392139Y-38904500D01*
X39392134Y-38904500D01*
X39179077Y-38938245D01*
X38973908Y-39004909D01*
X38781700Y-39102843D01*
X38723560Y-39145085D01*
X38607179Y-39229641D01*
X38607177Y-39229643D01*
X38607176Y-39229643D01*
X38454643Y-39382176D01*
X38454643Y-39382177D01*
X38454641Y-39382179D01*
X38377729Y-39488038D01*
X38330318Y-39553294D01*
X38274988Y-39595959D01*
X38205374Y-39601938D01*
X38143579Y-39569332D01*
X38129682Y-39553294D01*
X38092639Y-39502309D01*
X38005359Y-39382179D01*
X37852821Y-39229641D01*
X37678299Y-39102843D01*
X37486089Y-39004908D01*
X37280926Y-38938246D01*
X37280924Y-38938245D01*
X37280922Y-38938245D01*
X37067866Y-38904500D01*
X37067861Y-38904500D01*
X36852139Y-38904500D01*
X36852134Y-38904500D01*
X36639077Y-38938245D01*
X36433908Y-39004909D01*
X36241700Y-39102843D01*
X36067180Y-39229640D01*
X35924816Y-39372004D01*
X35863493Y-39405488D01*
X35793801Y-39400504D01*
X35737868Y-39358632D01*
X35724748Y-39336716D01*
X35724356Y-39335876D01*
X35632315Y-39186654D01*
X35508345Y-39062684D01*
X35359124Y-38970643D01*
X35359119Y-38970641D01*
X35192697Y-38915494D01*
X35192690Y-38915493D01*
X35089986Y-38905000D01*
X34670000Y-38905000D01*
X34670000Y-39957290D01*
X34649661Y-39945548D01*
X34498333Y-39905000D01*
X34341667Y-39905000D01*
X34190339Y-39945548D01*
X34170000Y-39957290D01*
X34170000Y-38905000D01*
X33750028Y-38905000D01*
X33750012Y-38905001D01*
X33647302Y-38915494D01*
X33480880Y-38970641D01*
X33480875Y-38970643D01*
X33331654Y-39062684D01*
X33207684Y-39186654D01*
X33115643Y-39335875D01*
X33115641Y-39335880D01*
X33060494Y-39502302D01*
X33060493Y-39502309D01*
X33050000Y-39605013D01*
X33050000Y-40250000D01*
X33877291Y-40250000D01*
X33865548Y-40270339D01*
X33825000Y-40421667D01*
X33825000Y-40578333D01*
X33865548Y-40729661D01*
X33877291Y-40750000D01*
X33050001Y-40750000D01*
X33050001Y-41394986D01*
X33060494Y-41497697D01*
X33089919Y-41586496D01*
X33092321Y-41656325D01*
X33056589Y-41716366D01*
X32994068Y-41747559D01*
X32972213Y-41749500D01*
X31379502Y-41749500D01*
X31341184Y-41743431D01*
X31304535Y-41731523D01*
X31203443Y-41715511D01*
X31102352Y-41699500D01*
X30897648Y-41699500D01*
X30873329Y-41703351D01*
X30695465Y-41731522D01*
X30500776Y-41794781D01*
X30318386Y-41887715D01*
X30152786Y-42008028D01*
X30008028Y-42152786D01*
X29887714Y-42318386D01*
X29870216Y-42352727D01*
X29868832Y-42354631D01*
X29868566Y-42355855D01*
X29847414Y-42384110D01*
X29718344Y-42513181D01*
X29657024Y-42546665D01*
X29630665Y-42549499D01*
X25181579Y-42549499D01*
X24987174Y-42580289D01*
X24799970Y-42641116D01*
X24624595Y-42730475D01*
X24533742Y-42796484D01*
X24465355Y-42846171D01*
X24465353Y-42846173D01*
X24465352Y-42846173D01*
X21964110Y-45347414D01*
X21932727Y-45370216D01*
X21898386Y-45387714D01*
X21732786Y-45508028D01*
X21732782Y-45508032D01*
X21712181Y-45528634D01*
X21650858Y-45562119D01*
X21581166Y-45557135D01*
X21525233Y-45515263D01*
X21500816Y-45449799D01*
X21500500Y-45440953D01*
X21500500Y-39478711D01*
X23149500Y-39478711D01*
X23149500Y-39721288D01*
X23181161Y-39961785D01*
X23243947Y-40196104D01*
X23318463Y-40376000D01*
X23336776Y-40420212D01*
X23458064Y-40630289D01*
X23458066Y-40630292D01*
X23458067Y-40630293D01*
X23605733Y-40822736D01*
X23605739Y-40822743D01*
X23777256Y-40994260D01*
X23777262Y-40994265D01*
X23969711Y-41141936D01*
X24179788Y-41263224D01*
X24403900Y-41356054D01*
X24638211Y-41418838D01*
X24818586Y-41442584D01*
X24878711Y-41450500D01*
X24878712Y-41450500D01*
X25121289Y-41450500D01*
X25175986Y-41443299D01*
X25361789Y-41418838D01*
X25596100Y-41356054D01*
X25820212Y-41263224D01*
X26030289Y-41141936D01*
X26222738Y-40994265D01*
X26394265Y-40822738D01*
X26541936Y-40630289D01*
X26663224Y-40420212D01*
X26756054Y-40196100D01*
X26818838Y-39961789D01*
X26850500Y-39721288D01*
X26850500Y-39478712D01*
X26818838Y-39238211D01*
X26756054Y-39003900D01*
X26663224Y-38779788D01*
X26541936Y-38569711D01*
X26481018Y-38490321D01*
X26394266Y-38377263D01*
X26394260Y-38377256D01*
X26222743Y-38205739D01*
X26222736Y-38205733D01*
X26030293Y-38058067D01*
X26030292Y-38058066D01*
X26030289Y-38058064D01*
X25820212Y-37936776D01*
X25725831Y-37897682D01*
X29700000Y-37897682D01*
X29700000Y-38102317D01*
X29732009Y-38304417D01*
X29795244Y-38499031D01*
X29888141Y-38681350D01*
X29888147Y-38681359D01*
X29920523Y-38725921D01*
X29920524Y-38725922D01*
X30600000Y-38046446D01*
X30600000Y-38052661D01*
X30627259Y-38154394D01*
X30679920Y-38245606D01*
X30754394Y-38320080D01*
X30845606Y-38372741D01*
X30947339Y-38400000D01*
X30953553Y-38400000D01*
X30274076Y-39079474D01*
X30318650Y-39111859D01*
X30500968Y-39204755D01*
X30695582Y-39267990D01*
X30897683Y-39300000D01*
X31102317Y-39300000D01*
X31304417Y-39267990D01*
X31499031Y-39204755D01*
X31681349Y-39111859D01*
X31725921Y-39079474D01*
X31046447Y-38400000D01*
X31052661Y-38400000D01*
X31154394Y-38372741D01*
X31245606Y-38320080D01*
X31320080Y-38245606D01*
X31372741Y-38154394D01*
X31400000Y-38052661D01*
X31400000Y-38046447D01*
X32079474Y-38725921D01*
X32111859Y-38681349D01*
X32204755Y-38499031D01*
X32267990Y-38304417D01*
X32300000Y-38102317D01*
X32300000Y-37897682D01*
X32267990Y-37695582D01*
X32204755Y-37500968D01*
X32111859Y-37318650D01*
X32079474Y-37274077D01*
X32079474Y-37274076D01*
X31400000Y-37953551D01*
X31400000Y-37947339D01*
X31372741Y-37845606D01*
X31320080Y-37754394D01*
X31245606Y-37679920D01*
X31154394Y-37627259D01*
X31052661Y-37600000D01*
X31046446Y-37600000D01*
X31725922Y-36920524D01*
X31725921Y-36920523D01*
X31681359Y-36888147D01*
X31681350Y-36888141D01*
X31499031Y-36795244D01*
X31304417Y-36732009D01*
X31102317Y-36700000D01*
X30897683Y-36700000D01*
X30695582Y-36732009D01*
X30500968Y-36795244D01*
X30318644Y-36888143D01*
X30274077Y-36920523D01*
X30274077Y-36920524D01*
X30953554Y-37600000D01*
X30947339Y-37600000D01*
X30845606Y-37627259D01*
X30754394Y-37679920D01*
X30679920Y-37754394D01*
X30627259Y-37845606D01*
X30600000Y-37947339D01*
X30600000Y-37953553D01*
X29920524Y-37274077D01*
X29920523Y-37274077D01*
X29888143Y-37318644D01*
X29795244Y-37500968D01*
X29732009Y-37695582D01*
X29700000Y-37897682D01*
X25725831Y-37897682D01*
X25596104Y-37843947D01*
X25403550Y-37792352D01*
X25361789Y-37781162D01*
X25361788Y-37781161D01*
X25361785Y-37781161D01*
X25121289Y-37749500D01*
X25121288Y-37749500D01*
X24878712Y-37749500D01*
X24878711Y-37749500D01*
X24638214Y-37781161D01*
X24403895Y-37843947D01*
X24179794Y-37936773D01*
X24179785Y-37936777D01*
X23969706Y-38058067D01*
X23777263Y-38205733D01*
X23777256Y-38205739D01*
X23605739Y-38377256D01*
X23605733Y-38377263D01*
X23458067Y-38569706D01*
X23336777Y-38779785D01*
X23336773Y-38779794D01*
X23243947Y-39003895D01*
X23181161Y-39238214D01*
X23149500Y-39478711D01*
X21500500Y-39478711D01*
X21500500Y-36124500D01*
X21520185Y-36057461D01*
X21572989Y-36011706D01*
X21624500Y-36000500D01*
X65375500Y-36000500D01*
X65442539Y-36020185D01*
G37*
%TD.AperFunction*%
%TD*%
M02*
