M48
; DRILL file {KiCad 9.0.0} date 2025-07-30T16:49:23+0100
; FORMAT={-:-/ absolute / inch / decimal}
; #@! TF.CreationDate,2025-07-30T16:49:23+01:00
; #@! TF.GenerationSoftware,Kicad,Pcbnew,9.0.0
; #@! TF.FileFunction,Plated,1,2,PTH
FMAT,2
INCH
; #@! TA.AperFunction,Plated,PTH,ComponentDrill
T1C0.0236
; #@! TA.AperFunction,Plated,PTH,ComponentDrill
T2C0.0295
; #@! TA.AperFunction,Plated,PTH,ComponentDrill
T3C0.0315
; #@! TA.AperFunction,Plated,PTH,ComponentDrill
T4C0.0469
; #@! TA.AperFunction,Plated,PTH,ComponentDrill
T5C0.0512
%
G90
G05
T2
X1.4461Y-2.1957
X1.4961Y-2.1457
X1.5461Y-2.1957
T3
X0.8827Y-2.815
X0.8827Y-2.9528
X0.889Y-1.8307
X0.8937Y-1.9882
X0.9024Y-2.1457
X0.9055Y-2.3031
X1.0858Y-1.8307
X1.0906Y-1.9882
X1.1024Y-2.3031
X1.1929Y-1.9764
X1.2008Y-1.8307
X1.2205Y-1.4961
X1.2205Y-1.6929
X1.2402Y-2.2638
X1.2402Y-2.6638
X1.2827Y-2.815
X1.2827Y-2.9528
X1.3024Y-2.1457
X1.4142Y-2.815
X1.4142Y-2.9528
X1.425Y-2.3697
X1.425Y-2.4697
X1.425Y-2.5697
X1.425Y-2.6697
X1.5929Y-1.9764
X1.6008Y-1.8307
X1.7094Y-1.8307
X1.725Y-2.3697
X1.725Y-2.4697
X1.725Y-2.5697
X1.725Y-2.6697
X1.7323Y-2.185
X1.7323Y-3.1102
X1.7323Y-3.189
X1.8142Y-2.815
X1.8142Y-2.9528
X1.8701Y-2.3031
X1.8701Y-2.7031
X1.8866Y-3.2874
X1.9291Y-2.185
X1.9638Y-2.815
X1.9638Y-2.915
X1.9638Y-3.015
X1.9638Y-3.115
X2.0472Y-2.2047
X2.1094Y-1.8307
X2.2244Y-1.4839
X2.2244Y-1.7839
X2.2441Y-2.2047
X2.2638Y-2.815
X2.2638Y-2.915
X2.2638Y-3.015
X2.2638Y-3.115
X2.2866Y-3.2874
X2.4016Y-2.3984
X2.4016Y-2.7984
X2.4016Y-2.9102
X2.4016Y-3.3102
X2.4606Y-2.2047
X2.4606Y-2.2835
X2.4764Y-1.7852
X2.4764Y-1.864
T4
X1.0236Y-2.4606
X1.0236Y-2.5606
X1.0236Y-2.6606
X1.3551Y-1.5945
X1.4551Y-1.5945
X1.5551Y-1.5945
X1.711Y-1.5945
X1.811Y-1.5945
X1.9669Y-1.5945
X2.0669Y-1.5945
X2.126Y-2.4409
X2.126Y-2.5409
X2.126Y-2.6409
T5
X1.2992Y-3.1496
X1.3976Y-3.3465
X1.4961Y-3.1496
T1
G00X1.9154Y-2.0079
M15
G01X1.9035Y-2.0079
M16
G05
G00X2.0335Y-2.0079
M15
G01X2.0217Y-2.0079
M16
G05
G00X2.1516Y-2.0079
M15
G01X2.1398Y-2.0079
M16
G05
M30
