M48
; DRILL file {KiCad 9.0.0} date 2025-10-17T16:58:30+0100
; FORMAT={-:-/ absolute / inch / decimal}
; #@! TF.CreationDate,2025-10-17T16:58:30+01:00
; #@! TF.GenerationSoftware,Kicad,Pcbnew,9.0.0
; #@! TF.FileFunction,Plated,1,2,PTH
FMAT,2
INCH
; #@! TA.AperFunction,Plated,PTH,ComponentDrill
T1C0.0295
; #@! TA.AperFunction,Plated,PTH,ComponentDrill
T2C0.0315
; #@! TA.AperFunction,Plated,PTH,ComponentDrill
T3C0.0394
; #@! TA.AperFunction,Plated,PTH,ComponentDrill
T4C0.0433
; #@! TA.AperFunction,Plated,PTH,ComponentDrill
T5C0.0469
%
G90
G05
T1
X5.2689Y-3.4339
X5.3189Y-3.3839
X5.3189Y-3.4839
T2
X4.6398Y-3.8366
X4.8366Y-3.8366
X4.9094Y-3.0433
X4.9094Y-3.2402
X4.976Y-4.1929
X4.976Y-4.3287
X5.0492Y-3.0472
X5.0492Y-3.2441
X5.2193Y-3.0472
X5.2193Y-3.1732
X5.2618Y-3.6307
X5.2618Y-4.0307
X5.376Y-4.1929
X5.376Y-4.3287
X5.3996Y-3.6307
X5.3996Y-4.0307
X5.561Y-4.3543
X5.5689Y-3.3622
X5.5689Y-3.5591
X5.5709Y-4.1102
X5.6169Y-3.8209
X5.6193Y-3.0472
X5.6193Y-3.1732
X5.6398Y-4.3543
X5.6496Y-4.1102
X5.7327Y-3.35
X5.7327Y-3.45
X5.7327Y-3.55
X5.7327Y-3.65
X5.7677Y-3.1299
X5.79Y-4.0429
X5.9646Y-3.1299
X5.9868Y-4.0429
X6.0169Y-3.8209
X6.0327Y-3.35
X6.0327Y-3.45
X6.0327Y-3.55
X6.0327Y-3.65
X6.1398Y-3.1445
X6.1398Y-3.5445
X6.1654Y-3.9646
X6.1654Y-4.3646
X6.248Y-3.6535
X6.2598Y-3.1453
X6.2598Y-3.5453
X6.3051Y-3.9646
X6.3051Y-4.3646
X6.3087Y-3.8209
X6.4449Y-3.6535
X6.5268Y-4.1437
X6.5268Y-4.2437
X6.5268Y-4.3437
X6.5268Y-4.4437
X6.5748Y-3.9823
X6.6024Y-3.498
X6.6811Y-3.498
X6.7087Y-3.8209
X6.7717Y-3.9823
X6.8268Y-4.1437
X6.8268Y-4.2437
X6.8268Y-4.3437
X6.8268Y-4.4437
X6.935Y-3.3898
X6.935Y-3.7898
X7.0817Y-3.3898
X7.0817Y-3.7898
X7.2283Y-3.3898
X7.2283Y-3.7898
T4
X4.976Y-4.4665
X5.376Y-4.4665
T5
X4.7461Y-3.4449
X4.7461Y-3.5449
X4.7461Y-3.6449
X4.7461Y-4.065
X4.7461Y-4.165
X5.7882Y-4.3583
X5.8882Y-4.3583
X5.9882Y-4.3583
X6.3945Y-3.1476
X6.4945Y-3.1476
X6.5945Y-3.1476
X6.8587Y-3.1476
X6.9587Y-3.1476
X7.1693Y-3.9567
X7.1693Y-4.0567
X7.1693Y-4.1567
T3
G00X5.0453Y-3.5846
M15
G01X5.0453Y-3.6043
M16
G05
G00X5.0453Y-3.7028
M15
G01X5.0453Y-3.7224
M16
G05
G00X5.0453Y-3.8209
M15
G01X5.0453Y-3.8406
M16
G05
M30
