%TF.GenerationSoftware,KiCad,Pcbnew,9.0.0*%
%TF.CreationDate,2025-09-08T17:14:00+01:00*%
%TF.ProjectId,GuitarMixer,47756974-6172-44d6-9978-65722e6b6963,V0.3*%
%TF.SameCoordinates,Original*%
%TF.FileFunction,Soldermask,Top*%
%TF.FilePolarity,Negative*%
%FSLAX46Y46*%
G04 Gerber Fmt 4.6, Leading zero omitted, Abs format (unit mm)*
G04 Created by KiCad (PCBNEW 9.0.0) date 2025-09-08 17:14:00*
%MOMM*%
%LPD*%
G01*
G04 APERTURE LIST*
G04 Aperture macros list*
%AMRoundRect*
0 Rectangle with rounded corners*
0 $1 Rounding radius*
0 $2 $3 $4 $5 $6 $7 $8 $9 X,Y pos of 4 corners*
0 Add a 4 corners polygon primitive as box body*
4,1,4,$2,$3,$4,$5,$6,$7,$8,$9,$2,$3,0*
0 Add four circle primitives for the rounded corners*
1,1,$1+$1,$2,$3*
1,1,$1+$1,$4,$5*
1,1,$1+$1,$6,$7*
1,1,$1+$1,$8,$9*
0 Add four rect primitives between the rounded corners*
20,1,$1+$1,$2,$3,$4,$5,0*
20,1,$1+$1,$4,$5,$6,$7,0*
20,1,$1+$1,$6,$7,$8,$9,0*
20,1,$1+$1,$8,$9,$2,$3,0*%
G04 Aperture macros list end*
%ADD10R,1.600000X1.600000*%
%ADD11C,1.600000*%
%ADD12O,1.600000X1.600000*%
%ADD13RoundRect,0.250000X0.620000X0.845000X-0.620000X0.845000X-0.620000X-0.845000X0.620000X-0.845000X0*%
%ADD14O,1.740000X2.190000*%
%ADD15C,3.200000*%
%ADD16R,2.200000X2.200000*%
%ADD17O,2.200000X2.200000*%
%ADD18RoundRect,0.250000X0.845000X-0.620000X0.845000X0.620000X-0.845000X0.620000X-0.845000X-0.620000X0*%
%ADD19O,2.190000X1.740000*%
%ADD20RoundRect,0.250000X-0.620000X-0.845000X0.620000X-0.845000X0.620000X0.845000X-0.620000X0.845000X0*%
%ADD21RoundRect,0.250000X-0.550000X-0.550000X0.550000X-0.550000X0.550000X0.550000X-0.550000X0.550000X0*%
%ADD22R,1.100000X1.800000*%
%ADD23RoundRect,0.275000X-0.275000X-0.625000X0.275000X-0.625000X0.275000X0.625000X-0.275000X0.625000X0*%
%ADD24RoundRect,0.250000X-0.845000X0.620000X-0.845000X-0.620000X0.845000X-0.620000X0.845000X0.620000X0*%
%ADD25O,2.500000X2.000000*%
G04 APERTURE END LIST*
D10*
%TO.C,C7*%
X62900000Y-45344888D03*
D11*
X62900000Y-47344888D03*
%TD*%
%TO.C,R5*%
X31500000Y-57500000D03*
D12*
X31500000Y-67660000D03*
%TD*%
D13*
%TO.C,J6*%
X38800000Y-81000000D03*
D14*
X36260000Y-81000000D03*
X33720000Y-81000000D03*
%TD*%
D11*
%TO.C,R12*%
X35920000Y-75000000D03*
D12*
X46080000Y-75000000D03*
%TD*%
D11*
%TO.C,R4*%
X22920000Y-54500000D03*
D12*
X33080000Y-54500000D03*
%TD*%
D15*
%TO.C,REF\u002A\u002A*%
X62000000Y-89000000D03*
%TD*%
D16*
%TO.C,D1*%
X56500000Y-47960000D03*
D17*
X56500000Y-37800000D03*
%TD*%
D18*
%TO.C,J2*%
X26000000Y-67580000D03*
D19*
X26000000Y-65040000D03*
X26000000Y-62500000D03*
%TD*%
D20*
%TO.C,J4*%
X49960000Y-40500000D03*
D14*
X52500000Y-40500000D03*
%TD*%
D11*
%TO.C,C3*%
X27700000Y-50500000D03*
X22700000Y-50500000D03*
%TD*%
%TO.C,R11*%
X61000000Y-71080000D03*
D12*
X61000000Y-60920000D03*
%TD*%
D21*
%TO.C,U1*%
X36195000Y-60190000D03*
D11*
X36195000Y-62730000D03*
X36195000Y-65270000D03*
X36195000Y-67810000D03*
X43815000Y-67810000D03*
X43815000Y-65270000D03*
X43815000Y-62730000D03*
X43815000Y-60190000D03*
%TD*%
%TO.C,C2*%
X22580000Y-46500000D03*
X27580000Y-46500000D03*
%TD*%
D21*
%TO.C,U2*%
X49880000Y-71500000D03*
D11*
X49880000Y-74040000D03*
X49880000Y-76580000D03*
X49880000Y-79120000D03*
X57500000Y-79120000D03*
X57500000Y-76580000D03*
X57500000Y-74040000D03*
X57500000Y-71500000D03*
%TD*%
%TO.C,C1*%
X31000000Y-43000000D03*
X31000000Y-38000000D03*
%TD*%
D15*
%TO.C,REF\u002A\u002A*%
X25000000Y-39600000D03*
%TD*%
D20*
%TO.C,J1*%
X34420000Y-40500000D03*
D14*
X36960000Y-40500000D03*
X39500000Y-40500000D03*
%TD*%
D11*
%TO.C,R6*%
X32580000Y-71500000D03*
D12*
X22420000Y-71500000D03*
%TD*%
D10*
%TO.C,C9*%
X62500000Y-56000000D03*
D11*
X62500000Y-58000000D03*
%TD*%
%TO.C,C6*%
X52000000Y-56000000D03*
X57000000Y-56000000D03*
%TD*%
D20*
%TO.C,J5*%
X43460000Y-40500000D03*
D14*
X46000000Y-40500000D03*
%TD*%
D15*
%TO.C,REF\u002A\u002A*%
X25000000Y-89000000D03*
%TD*%
D11*
%TO.C,R10*%
X22420000Y-75000000D03*
D12*
X32580000Y-75000000D03*
%TD*%
D11*
%TO.C,R2*%
X43420000Y-46500000D03*
D12*
X53580000Y-46500000D03*
%TD*%
D22*
%TO.C,Q1*%
X36730000Y-56170000D03*
D23*
X38000000Y-54100000D03*
X39270000Y-56170000D03*
%TD*%
D11*
%TO.C,R3*%
X30300000Y-50200000D03*
D12*
X40460000Y-50200000D03*
%TD*%
D11*
%TO.C,R7*%
X46080000Y-71500000D03*
D12*
X35920000Y-71500000D03*
%TD*%
D11*
%TO.C,R1*%
X30500000Y-46500000D03*
D12*
X40660000Y-46500000D03*
%TD*%
D11*
%TO.C,R13*%
X61000000Y-84080000D03*
D12*
X61000000Y-73920000D03*
%TD*%
D11*
%TO.C,R8*%
X47500000Y-68660000D03*
D12*
X47500000Y-58500000D03*
%TD*%
D10*
%TO.C,C8*%
X44000000Y-79000000D03*
D11*
X44000000Y-81000000D03*
%TD*%
%TO.C,C5*%
X28000000Y-58500000D03*
X23000000Y-58500000D03*
%TD*%
%TO.C,R9*%
X47920000Y-83500000D03*
D12*
X58080000Y-83500000D03*
%TD*%
D24*
%TO.C,J3*%
X54000000Y-62000000D03*
D19*
X54000000Y-64540000D03*
X54000000Y-67080000D03*
%TD*%
D11*
%TO.C,C4*%
X44000000Y-55500000D03*
X49000000Y-55500000D03*
%TD*%
D25*
%TO.C,SW1*%
X54400000Y-50900000D03*
X51400000Y-50900000D03*
X48400000Y-50900000D03*
%TD*%
D15*
%TO.C,REF\u002A\u002A*%
X62000000Y-39600000D03*
%TD*%
M02*
