%TF.GenerationSoftware,KiCad,Pcbnew,9.0.0*%
%TF.CreationDate,2025-10-10T09:49:04+01:00*%
%TF.ProjectId,GuitarMixer,47756974-6172-44d6-9978-65722e6b6963,V1.0*%
%TF.SameCoordinates,Original*%
%TF.FileFunction,Legend,Top*%
%TF.FilePolarity,Positive*%
%FSLAX46Y46*%
G04 Gerber Fmt 4.6, Leading zero omitted, Abs format (unit mm)*
G04 Created by KiCad (PCBNEW 9.0.0) date 2025-10-10 09:49:04*
%MOMM*%
%LPD*%
G01*
G04 APERTURE LIST*
%ADD10C,0.100000*%
%ADD11C,0.200000*%
%ADD12C,0.150000*%
%ADD13C,0.120000*%
G04 APERTURE END LIST*
D10*
X124403104Y-93456265D02*
X125203104Y-93456265D01*
X124403104Y-93837217D02*
X124936438Y-93837217D01*
X124860247Y-93837217D02*
X124898342Y-93875312D01*
X124898342Y-93875312D02*
X124936438Y-93951502D01*
X124936438Y-93951502D02*
X124936438Y-94065788D01*
X124936438Y-94065788D02*
X124898342Y-94141979D01*
X124898342Y-94141979D02*
X124822152Y-94180074D01*
X124822152Y-94180074D02*
X124403104Y-94180074D01*
X124822152Y-94180074D02*
X124898342Y-94218169D01*
X124898342Y-94218169D02*
X124936438Y-94294360D01*
X124936438Y-94294360D02*
X124936438Y-94408645D01*
X124936438Y-94408645D02*
X124898342Y-94484836D01*
X124898342Y-94484836D02*
X124822152Y-94522931D01*
X124822152Y-94522931D02*
X124403104Y-94522931D01*
X124936438Y-94903884D02*
X124136438Y-94903884D01*
X124898342Y-94903884D02*
X124936438Y-94980074D01*
X124936438Y-94980074D02*
X124936438Y-95132455D01*
X124936438Y-95132455D02*
X124898342Y-95208646D01*
X124898342Y-95208646D02*
X124860247Y-95246741D01*
X124860247Y-95246741D02*
X124784057Y-95284836D01*
X124784057Y-95284836D02*
X124555485Y-95284836D01*
X124555485Y-95284836D02*
X124479295Y-95246741D01*
X124479295Y-95246741D02*
X124441200Y-95208646D01*
X124441200Y-95208646D02*
X124403104Y-95132455D01*
X124403104Y-95132455D02*
X124403104Y-94980074D01*
X124403104Y-94980074D02*
X124441200Y-94903884D01*
X124441200Y-95932456D02*
X124403104Y-95856265D01*
X124403104Y-95856265D02*
X124403104Y-95703884D01*
X124403104Y-95703884D02*
X124441200Y-95627694D01*
X124441200Y-95627694D02*
X124517390Y-95589598D01*
X124517390Y-95589598D02*
X124822152Y-95589598D01*
X124822152Y-95589598D02*
X124898342Y-95627694D01*
X124898342Y-95627694D02*
X124936438Y-95703884D01*
X124936438Y-95703884D02*
X124936438Y-95856265D01*
X124936438Y-95856265D02*
X124898342Y-95932456D01*
X124898342Y-95932456D02*
X124822152Y-95970551D01*
X124822152Y-95970551D02*
X124745961Y-95970551D01*
X124745961Y-95970551D02*
X124669771Y-95589598D01*
X124403104Y-96656265D02*
X125203104Y-96656265D01*
X124441200Y-96656265D02*
X124403104Y-96580074D01*
X124403104Y-96580074D02*
X124403104Y-96427693D01*
X124403104Y-96427693D02*
X124441200Y-96351503D01*
X124441200Y-96351503D02*
X124479295Y-96313408D01*
X124479295Y-96313408D02*
X124555485Y-96275312D01*
X124555485Y-96275312D02*
X124784057Y-96275312D01*
X124784057Y-96275312D02*
X124860247Y-96313408D01*
X124860247Y-96313408D02*
X124898342Y-96351503D01*
X124898342Y-96351503D02*
X124936438Y-96427693D01*
X124936438Y-96427693D02*
X124936438Y-96580074D01*
X124936438Y-96580074D02*
X124898342Y-96656265D01*
X124403104Y-97380075D02*
X124822152Y-97380075D01*
X124822152Y-97380075D02*
X124898342Y-97341980D01*
X124898342Y-97341980D02*
X124936438Y-97265789D01*
X124936438Y-97265789D02*
X124936438Y-97113408D01*
X124936438Y-97113408D02*
X124898342Y-97037218D01*
X124441200Y-97380075D02*
X124403104Y-97303884D01*
X124403104Y-97303884D02*
X124403104Y-97113408D01*
X124403104Y-97113408D02*
X124441200Y-97037218D01*
X124441200Y-97037218D02*
X124517390Y-96999122D01*
X124517390Y-96999122D02*
X124593580Y-96999122D01*
X124593580Y-96999122D02*
X124669771Y-97037218D01*
X124669771Y-97037218D02*
X124707866Y-97113408D01*
X124707866Y-97113408D02*
X124707866Y-97303884D01*
X124707866Y-97303884D02*
X124745961Y-97380075D01*
X124936438Y-97761028D02*
X124403104Y-97761028D01*
X124860247Y-97761028D02*
X124898342Y-97799123D01*
X124898342Y-97799123D02*
X124936438Y-97875313D01*
X124936438Y-97875313D02*
X124936438Y-97989599D01*
X124936438Y-97989599D02*
X124898342Y-98065790D01*
X124898342Y-98065790D02*
X124822152Y-98103885D01*
X124822152Y-98103885D02*
X124403104Y-98103885D01*
X124441200Y-98827695D02*
X124403104Y-98751504D01*
X124403104Y-98751504D02*
X124403104Y-98599123D01*
X124403104Y-98599123D02*
X124441200Y-98522933D01*
X124441200Y-98522933D02*
X124479295Y-98484838D01*
X124479295Y-98484838D02*
X124555485Y-98446742D01*
X124555485Y-98446742D02*
X124784057Y-98446742D01*
X124784057Y-98446742D02*
X124860247Y-98484838D01*
X124860247Y-98484838D02*
X124898342Y-98522933D01*
X124898342Y-98522933D02*
X124936438Y-98599123D01*
X124936438Y-98599123D02*
X124936438Y-98751504D01*
X124936438Y-98751504D02*
X124898342Y-98827695D01*
X124441200Y-99475314D02*
X124403104Y-99399123D01*
X124403104Y-99399123D02*
X124403104Y-99246742D01*
X124403104Y-99246742D02*
X124441200Y-99170552D01*
X124441200Y-99170552D02*
X124517390Y-99132456D01*
X124517390Y-99132456D02*
X124822152Y-99132456D01*
X124822152Y-99132456D02*
X124898342Y-99170552D01*
X124898342Y-99170552D02*
X124936438Y-99246742D01*
X124936438Y-99246742D02*
X124936438Y-99399123D01*
X124936438Y-99399123D02*
X124898342Y-99475314D01*
X124898342Y-99475314D02*
X124822152Y-99513409D01*
X124822152Y-99513409D02*
X124745961Y-99513409D01*
X124745961Y-99513409D02*
X124669771Y-99132456D01*
D11*
X124433482Y-101167219D02*
X123862054Y-101167219D01*
X124147768Y-101167219D02*
X124147768Y-100167219D01*
X124147768Y-100167219D02*
X124052530Y-100310076D01*
X124052530Y-100310076D02*
X123957292Y-100405314D01*
X123957292Y-100405314D02*
X123862054Y-100452933D01*
X125052530Y-100167219D02*
X125147768Y-100167219D01*
X125147768Y-100167219D02*
X125243006Y-100214838D01*
X125243006Y-100214838D02*
X125290625Y-100262457D01*
X125290625Y-100262457D02*
X125338244Y-100357695D01*
X125338244Y-100357695D02*
X125385863Y-100548171D01*
X125385863Y-100548171D02*
X125385863Y-100786266D01*
X125385863Y-100786266D02*
X125338244Y-100976742D01*
X125338244Y-100976742D02*
X125290625Y-101071980D01*
X125290625Y-101071980D02*
X125243006Y-101119600D01*
X125243006Y-101119600D02*
X125147768Y-101167219D01*
X125147768Y-101167219D02*
X125052530Y-101167219D01*
X125052530Y-101167219D02*
X124957292Y-101119600D01*
X124957292Y-101119600D02*
X124909673Y-101071980D01*
X124909673Y-101071980D02*
X124862054Y-100976742D01*
X124862054Y-100976742D02*
X124814435Y-100786266D01*
X124814435Y-100786266D02*
X124814435Y-100548171D01*
X124814435Y-100548171D02*
X124862054Y-100357695D01*
X124862054Y-100357695D02*
X124909673Y-100262457D01*
X124909673Y-100262457D02*
X124957292Y-100214838D01*
X124957292Y-100214838D02*
X125052530Y-100167219D01*
X125595863Y-85817219D02*
X125119673Y-85817219D01*
X125119673Y-85817219D02*
X125072054Y-86293409D01*
X125072054Y-86293409D02*
X125119673Y-86245790D01*
X125119673Y-86245790D02*
X125214911Y-86198171D01*
X125214911Y-86198171D02*
X125453006Y-86198171D01*
X125453006Y-86198171D02*
X125548244Y-86245790D01*
X125548244Y-86245790D02*
X125595863Y-86293409D01*
X125595863Y-86293409D02*
X125643482Y-86388647D01*
X125643482Y-86388647D02*
X125643482Y-86626742D01*
X125643482Y-86626742D02*
X125595863Y-86721980D01*
X125595863Y-86721980D02*
X125548244Y-86769600D01*
X125548244Y-86769600D02*
X125453006Y-86817219D01*
X125453006Y-86817219D02*
X125214911Y-86817219D01*
X125214911Y-86817219D02*
X125119673Y-86769600D01*
X125119673Y-86769600D02*
X125072054Y-86721980D01*
D10*
X174706265Y-109506872D02*
X175182455Y-109506872D01*
X174611027Y-109792587D02*
X174944360Y-108792587D01*
X174944360Y-108792587D02*
X175277693Y-109792587D01*
X175611027Y-109125920D02*
X175611027Y-109792587D01*
X175611027Y-109221158D02*
X175658646Y-109173539D01*
X175658646Y-109173539D02*
X175753884Y-109125920D01*
X175753884Y-109125920D02*
X175896741Y-109125920D01*
X175896741Y-109125920D02*
X175991979Y-109173539D01*
X175991979Y-109173539D02*
X176039598Y-109268777D01*
X176039598Y-109268777D02*
X176039598Y-109792587D01*
X176944360Y-109792587D02*
X176944360Y-108792587D01*
X176944360Y-109744968D02*
X176849122Y-109792587D01*
X176849122Y-109792587D02*
X176658646Y-109792587D01*
X176658646Y-109792587D02*
X176563408Y-109744968D01*
X176563408Y-109744968D02*
X176515789Y-109697348D01*
X176515789Y-109697348D02*
X176468170Y-109602110D01*
X176468170Y-109602110D02*
X176468170Y-109316396D01*
X176468170Y-109316396D02*
X176515789Y-109221158D01*
X176515789Y-109221158D02*
X176563408Y-109173539D01*
X176563408Y-109173539D02*
X176658646Y-109125920D01*
X176658646Y-109125920D02*
X176849122Y-109125920D01*
X176849122Y-109125920D02*
X176944360Y-109173539D01*
X177420551Y-109792587D02*
X177420551Y-109125920D01*
X177420551Y-109316396D02*
X177468170Y-109221158D01*
X177468170Y-109221158D02*
X177515789Y-109173539D01*
X177515789Y-109173539D02*
X177611027Y-109125920D01*
X177611027Y-109125920D02*
X177706265Y-109125920D01*
X178420551Y-109744968D02*
X178325313Y-109792587D01*
X178325313Y-109792587D02*
X178134837Y-109792587D01*
X178134837Y-109792587D02*
X178039599Y-109744968D01*
X178039599Y-109744968D02*
X177991980Y-109649729D01*
X177991980Y-109649729D02*
X177991980Y-109268777D01*
X177991980Y-109268777D02*
X178039599Y-109173539D01*
X178039599Y-109173539D02*
X178134837Y-109125920D01*
X178134837Y-109125920D02*
X178325313Y-109125920D01*
X178325313Y-109125920D02*
X178420551Y-109173539D01*
X178420551Y-109173539D02*
X178468170Y-109268777D01*
X178468170Y-109268777D02*
X178468170Y-109364015D01*
X178468170Y-109364015D02*
X177991980Y-109459253D01*
X178801504Y-109125920D02*
X178991980Y-109792587D01*
X178991980Y-109792587D02*
X179182456Y-109316396D01*
X179182456Y-109316396D02*
X179372932Y-109792587D01*
X179372932Y-109792587D02*
X179563408Y-109125920D01*
X174753884Y-111402531D02*
X174753884Y-110402531D01*
X174753884Y-110402531D02*
X175087217Y-111116816D01*
X175087217Y-111116816D02*
X175420550Y-110402531D01*
X175420550Y-110402531D02*
X175420550Y-111402531D01*
X176325312Y-111402531D02*
X176325312Y-110878721D01*
X176325312Y-110878721D02*
X176277693Y-110783483D01*
X176277693Y-110783483D02*
X176182455Y-110735864D01*
X176182455Y-110735864D02*
X175991979Y-110735864D01*
X175991979Y-110735864D02*
X175896741Y-110783483D01*
X176325312Y-111354912D02*
X176230074Y-111402531D01*
X176230074Y-111402531D02*
X175991979Y-111402531D01*
X175991979Y-111402531D02*
X175896741Y-111354912D01*
X175896741Y-111354912D02*
X175849122Y-111259673D01*
X175849122Y-111259673D02*
X175849122Y-111164435D01*
X175849122Y-111164435D02*
X175896741Y-111069197D01*
X175896741Y-111069197D02*
X175991979Y-111021578D01*
X175991979Y-111021578D02*
X176230074Y-111021578D01*
X176230074Y-111021578D02*
X176325312Y-110973959D01*
X176801503Y-111402531D02*
X176801503Y-110735864D01*
X176801503Y-110926340D02*
X176849122Y-110831102D01*
X176849122Y-110831102D02*
X176896741Y-110783483D01*
X176896741Y-110783483D02*
X176991979Y-110735864D01*
X176991979Y-110735864D02*
X177087217Y-110735864D01*
X177277694Y-110735864D02*
X177658646Y-110735864D01*
X177420551Y-110402531D02*
X177420551Y-111259673D01*
X177420551Y-111259673D02*
X177468170Y-111354912D01*
X177468170Y-111354912D02*
X177563408Y-111402531D01*
X177563408Y-111402531D02*
X177658646Y-111402531D01*
X177991980Y-111402531D02*
X177991980Y-110735864D01*
X177991980Y-110402531D02*
X177944361Y-110450150D01*
X177944361Y-110450150D02*
X177991980Y-110497769D01*
X177991980Y-110497769D02*
X178039599Y-110450150D01*
X178039599Y-110450150D02*
X177991980Y-110402531D01*
X177991980Y-110402531D02*
X177991980Y-110497769D01*
X178468170Y-110735864D02*
X178468170Y-111402531D01*
X178468170Y-110831102D02*
X178515789Y-110783483D01*
X178515789Y-110783483D02*
X178611027Y-110735864D01*
X178611027Y-110735864D02*
X178753884Y-110735864D01*
X178753884Y-110735864D02*
X178849122Y-110783483D01*
X178849122Y-110783483D02*
X178896741Y-110878721D01*
X178896741Y-110878721D02*
X178896741Y-111402531D01*
X174611027Y-112012475D02*
X174944360Y-113012475D01*
X174944360Y-113012475D02*
X175277693Y-112012475D01*
X176134836Y-113012475D02*
X175563408Y-113012475D01*
X175849122Y-113012475D02*
X175849122Y-112012475D01*
X175849122Y-112012475D02*
X175753884Y-112155332D01*
X175753884Y-112155332D02*
X175658646Y-112250570D01*
X175658646Y-112250570D02*
X175563408Y-112298189D01*
X176563408Y-112917236D02*
X176611027Y-112964856D01*
X176611027Y-112964856D02*
X176563408Y-113012475D01*
X176563408Y-113012475D02*
X176515789Y-112964856D01*
X176515789Y-112964856D02*
X176563408Y-112917236D01*
X176563408Y-112917236D02*
X176563408Y-113012475D01*
X177230074Y-112012475D02*
X177325312Y-112012475D01*
X177325312Y-112012475D02*
X177420550Y-112060094D01*
X177420550Y-112060094D02*
X177468169Y-112107713D01*
X177468169Y-112107713D02*
X177515788Y-112202951D01*
X177515788Y-112202951D02*
X177563407Y-112393427D01*
X177563407Y-112393427D02*
X177563407Y-112631522D01*
X177563407Y-112631522D02*
X177515788Y-112821998D01*
X177515788Y-112821998D02*
X177468169Y-112917236D01*
X177468169Y-112917236D02*
X177420550Y-112964856D01*
X177420550Y-112964856D02*
X177325312Y-113012475D01*
X177325312Y-113012475D02*
X177230074Y-113012475D01*
X177230074Y-113012475D02*
X177134836Y-112964856D01*
X177134836Y-112964856D02*
X177087217Y-112917236D01*
X177087217Y-112917236D02*
X177039598Y-112821998D01*
X177039598Y-112821998D02*
X176991979Y-112631522D01*
X176991979Y-112631522D02*
X176991979Y-112393427D01*
X176991979Y-112393427D02*
X177039598Y-112202951D01*
X177039598Y-112202951D02*
X177087217Y-112107713D01*
X177087217Y-112107713D02*
X177134836Y-112060094D01*
X177134836Y-112060094D02*
X177230074Y-112012475D01*
X175039598Y-115003371D02*
X174991979Y-114955752D01*
X174991979Y-114955752D02*
X174896741Y-114812895D01*
X174896741Y-114812895D02*
X174849122Y-114717657D01*
X174849122Y-114717657D02*
X174801503Y-114574800D01*
X174801503Y-114574800D02*
X174753884Y-114336704D01*
X174753884Y-114336704D02*
X174753884Y-114146228D01*
X174753884Y-114146228D02*
X174801503Y-113908133D01*
X174801503Y-113908133D02*
X174849122Y-113765276D01*
X174849122Y-113765276D02*
X174896741Y-113670038D01*
X174896741Y-113670038D02*
X174991979Y-113527180D01*
X174991979Y-113527180D02*
X175039598Y-113479561D01*
X175849122Y-114574800D02*
X175753884Y-114622419D01*
X175753884Y-114622419D02*
X175563408Y-114622419D01*
X175563408Y-114622419D02*
X175468170Y-114574800D01*
X175468170Y-114574800D02*
X175420551Y-114527180D01*
X175420551Y-114527180D02*
X175372932Y-114431942D01*
X175372932Y-114431942D02*
X175372932Y-114146228D01*
X175372932Y-114146228D02*
X175420551Y-114050990D01*
X175420551Y-114050990D02*
X175468170Y-114003371D01*
X175468170Y-114003371D02*
X175563408Y-113955752D01*
X175563408Y-113955752D02*
X175753884Y-113955752D01*
X175753884Y-113955752D02*
X175849122Y-114003371D01*
X176182456Y-115003371D02*
X176230075Y-114955752D01*
X176230075Y-114955752D02*
X176325313Y-114812895D01*
X176325313Y-114812895D02*
X176372932Y-114717657D01*
X176372932Y-114717657D02*
X176420551Y-114574800D01*
X176420551Y-114574800D02*
X176468170Y-114336704D01*
X176468170Y-114336704D02*
X176468170Y-114146228D01*
X176468170Y-114146228D02*
X176420551Y-113908133D01*
X176420551Y-113908133D02*
X176372932Y-113765276D01*
X176372932Y-113765276D02*
X176325313Y-113670038D01*
X176325313Y-113670038D02*
X176230075Y-113527180D01*
X176230075Y-113527180D02*
X176182456Y-113479561D01*
X177468170Y-114622419D02*
X176896742Y-114622419D01*
X177182456Y-114622419D02*
X177182456Y-113622419D01*
X177182456Y-113622419D02*
X177087218Y-113765276D01*
X177087218Y-113765276D02*
X176991980Y-113860514D01*
X176991980Y-113860514D02*
X176896742Y-113908133D01*
X178087218Y-113622419D02*
X178182456Y-113622419D01*
X178182456Y-113622419D02*
X178277694Y-113670038D01*
X178277694Y-113670038D02*
X178325313Y-113717657D01*
X178325313Y-113717657D02*
X178372932Y-113812895D01*
X178372932Y-113812895D02*
X178420551Y-114003371D01*
X178420551Y-114003371D02*
X178420551Y-114241466D01*
X178420551Y-114241466D02*
X178372932Y-114431942D01*
X178372932Y-114431942D02*
X178325313Y-114527180D01*
X178325313Y-114527180D02*
X178277694Y-114574800D01*
X178277694Y-114574800D02*
X178182456Y-114622419D01*
X178182456Y-114622419D02*
X178087218Y-114622419D01*
X178087218Y-114622419D02*
X177991980Y-114574800D01*
X177991980Y-114574800D02*
X177944361Y-114527180D01*
X177944361Y-114527180D02*
X177896742Y-114431942D01*
X177896742Y-114431942D02*
X177849123Y-114241466D01*
X177849123Y-114241466D02*
X177849123Y-114003371D01*
X177849123Y-114003371D02*
X177896742Y-113812895D01*
X177896742Y-113812895D02*
X177944361Y-113717657D01*
X177944361Y-113717657D02*
X177991980Y-113670038D01*
X177991980Y-113670038D02*
X178087218Y-113622419D01*
X179563408Y-113574800D02*
X178706266Y-114860514D01*
X179849123Y-113717657D02*
X179896742Y-113670038D01*
X179896742Y-113670038D02*
X179991980Y-113622419D01*
X179991980Y-113622419D02*
X180230075Y-113622419D01*
X180230075Y-113622419D02*
X180325313Y-113670038D01*
X180325313Y-113670038D02*
X180372932Y-113717657D01*
X180372932Y-113717657D02*
X180420551Y-113812895D01*
X180420551Y-113812895D02*
X180420551Y-113908133D01*
X180420551Y-113908133D02*
X180372932Y-114050990D01*
X180372932Y-114050990D02*
X179801504Y-114622419D01*
X179801504Y-114622419D02*
X180420551Y-114622419D01*
X181325313Y-113622419D02*
X180849123Y-113622419D01*
X180849123Y-113622419D02*
X180801504Y-114098609D01*
X180801504Y-114098609D02*
X180849123Y-114050990D01*
X180849123Y-114050990D02*
X180944361Y-114003371D01*
X180944361Y-114003371D02*
X181182456Y-114003371D01*
X181182456Y-114003371D02*
X181277694Y-114050990D01*
X181277694Y-114050990D02*
X181325313Y-114098609D01*
X181325313Y-114098609D02*
X181372932Y-114193847D01*
X181372932Y-114193847D02*
X181372932Y-114431942D01*
X181372932Y-114431942D02*
X181325313Y-114527180D01*
X181325313Y-114527180D02*
X181277694Y-114574800D01*
X181277694Y-114574800D02*
X181182456Y-114622419D01*
X181182456Y-114622419D02*
X180944361Y-114622419D01*
X180944361Y-114622419D02*
X180849123Y-114574800D01*
X180849123Y-114574800D02*
X180801504Y-114527180D01*
D11*
X174922054Y-107881504D02*
X175398244Y-107881504D01*
X174826816Y-108167219D02*
X175160149Y-107167219D01*
X175160149Y-107167219D02*
X175493482Y-108167219D01*
X175826816Y-107643409D02*
X176160149Y-107643409D01*
X176303006Y-108167219D02*
X175826816Y-108167219D01*
X175826816Y-108167219D02*
X175826816Y-107167219D01*
X175826816Y-107167219D02*
X176303006Y-107167219D01*
X177255387Y-107214838D02*
X177160149Y-107167219D01*
X177160149Y-107167219D02*
X177017292Y-107167219D01*
X177017292Y-107167219D02*
X176874435Y-107214838D01*
X176874435Y-107214838D02*
X176779197Y-107310076D01*
X176779197Y-107310076D02*
X176731578Y-107405314D01*
X176731578Y-107405314D02*
X176683959Y-107595790D01*
X176683959Y-107595790D02*
X176683959Y-107738647D01*
X176683959Y-107738647D02*
X176731578Y-107929123D01*
X176731578Y-107929123D02*
X176779197Y-108024361D01*
X176779197Y-108024361D02*
X176874435Y-108119600D01*
X176874435Y-108119600D02*
X177017292Y-108167219D01*
X177017292Y-108167219D02*
X177112530Y-108167219D01*
X177112530Y-108167219D02*
X177255387Y-108119600D01*
X177255387Y-108119600D02*
X177303006Y-108071980D01*
X177303006Y-108071980D02*
X177303006Y-107738647D01*
X177303006Y-107738647D02*
X177112530Y-107738647D01*
X177731578Y-108167219D02*
X177731578Y-107167219D01*
X177731578Y-107167219D02*
X178064911Y-107881504D01*
X178064911Y-107881504D02*
X178398244Y-107167219D01*
X178398244Y-107167219D02*
X178398244Y-108167219D01*
X186967219Y-105930326D02*
X185967219Y-105930326D01*
X186443409Y-105930326D02*
X186443409Y-105358898D01*
X186967219Y-105358898D02*
X185967219Y-105358898D01*
X185967219Y-103454135D02*
X186967219Y-103216040D01*
X186967219Y-103216040D02*
X186252933Y-103025564D01*
X186252933Y-103025564D02*
X186967219Y-102835088D01*
X186967219Y-102835088D02*
X185967219Y-102596993D01*
X186967219Y-100216040D02*
X186967219Y-100692230D01*
X186967219Y-100692230D02*
X185967219Y-100692230D01*
X177064838Y-103506517D02*
X177017219Y-103601755D01*
X177017219Y-103601755D02*
X177017219Y-103744612D01*
X177017219Y-103744612D02*
X177064838Y-103887469D01*
X177064838Y-103887469D02*
X177160076Y-103982707D01*
X177160076Y-103982707D02*
X177255314Y-104030326D01*
X177255314Y-104030326D02*
X177445790Y-104077945D01*
X177445790Y-104077945D02*
X177588647Y-104077945D01*
X177588647Y-104077945D02*
X177779123Y-104030326D01*
X177779123Y-104030326D02*
X177874361Y-103982707D01*
X177874361Y-103982707D02*
X177969600Y-103887469D01*
X177969600Y-103887469D02*
X178017219Y-103744612D01*
X178017219Y-103744612D02*
X178017219Y-103649374D01*
X178017219Y-103649374D02*
X177969600Y-103506517D01*
X177969600Y-103506517D02*
X177921980Y-103458898D01*
X177921980Y-103458898D02*
X177588647Y-103458898D01*
X177588647Y-103458898D02*
X177588647Y-103649374D01*
X178017219Y-102601755D02*
X177493409Y-102601755D01*
X177493409Y-102601755D02*
X177398171Y-102649374D01*
X177398171Y-102649374D02*
X177350552Y-102744612D01*
X177350552Y-102744612D02*
X177350552Y-102935088D01*
X177350552Y-102935088D02*
X177398171Y-103030326D01*
X177969600Y-102601755D02*
X178017219Y-102696993D01*
X178017219Y-102696993D02*
X178017219Y-102935088D01*
X178017219Y-102935088D02*
X177969600Y-103030326D01*
X177969600Y-103030326D02*
X177874361Y-103077945D01*
X177874361Y-103077945D02*
X177779123Y-103077945D01*
X177779123Y-103077945D02*
X177683885Y-103030326D01*
X177683885Y-103030326D02*
X177636266Y-102935088D01*
X177636266Y-102935088D02*
X177636266Y-102696993D01*
X177636266Y-102696993D02*
X177588647Y-102601755D01*
X178017219Y-102125564D02*
X177350552Y-102125564D01*
X177017219Y-102125564D02*
X177064838Y-102173183D01*
X177064838Y-102173183D02*
X177112457Y-102125564D01*
X177112457Y-102125564D02*
X177064838Y-102077945D01*
X177064838Y-102077945D02*
X177017219Y-102125564D01*
X177017219Y-102125564D02*
X177112457Y-102125564D01*
X177350552Y-101649374D02*
X178017219Y-101649374D01*
X177445790Y-101649374D02*
X177398171Y-101601755D01*
X177398171Y-101601755D02*
X177350552Y-101506517D01*
X177350552Y-101506517D02*
X177350552Y-101363660D01*
X177350552Y-101363660D02*
X177398171Y-101268422D01*
X177398171Y-101268422D02*
X177493409Y-101220803D01*
X177493409Y-101220803D02*
X178017219Y-101220803D01*
X173643482Y-75614838D02*
X173548244Y-75567219D01*
X173548244Y-75567219D02*
X173405387Y-75567219D01*
X173405387Y-75567219D02*
X173262530Y-75614838D01*
X173262530Y-75614838D02*
X173167292Y-75710076D01*
X173167292Y-75710076D02*
X173119673Y-75805314D01*
X173119673Y-75805314D02*
X173072054Y-75995790D01*
X173072054Y-75995790D02*
X173072054Y-76138647D01*
X173072054Y-76138647D02*
X173119673Y-76329123D01*
X173119673Y-76329123D02*
X173167292Y-76424361D01*
X173167292Y-76424361D02*
X173262530Y-76519600D01*
X173262530Y-76519600D02*
X173405387Y-76567219D01*
X173405387Y-76567219D02*
X173500625Y-76567219D01*
X173500625Y-76567219D02*
X173643482Y-76519600D01*
X173643482Y-76519600D02*
X173691101Y-76471980D01*
X173691101Y-76471980D02*
X173691101Y-76138647D01*
X173691101Y-76138647D02*
X173500625Y-76138647D01*
X175833959Y-75567219D02*
X176024435Y-75567219D01*
X176024435Y-75567219D02*
X176119673Y-75614838D01*
X176119673Y-75614838D02*
X176214911Y-75710076D01*
X176214911Y-75710076D02*
X176262530Y-75900552D01*
X176262530Y-75900552D02*
X176262530Y-76233885D01*
X176262530Y-76233885D02*
X176214911Y-76424361D01*
X176214911Y-76424361D02*
X176119673Y-76519600D01*
X176119673Y-76519600D02*
X176024435Y-76567219D01*
X176024435Y-76567219D02*
X175833959Y-76567219D01*
X175833959Y-76567219D02*
X175738721Y-76519600D01*
X175738721Y-76519600D02*
X175643483Y-76424361D01*
X175643483Y-76424361D02*
X175595864Y-76233885D01*
X175595864Y-76233885D02*
X175595864Y-75900552D01*
X175595864Y-75900552D02*
X175643483Y-75710076D01*
X175643483Y-75710076D02*
X175738721Y-75614838D01*
X175738721Y-75614838D02*
X175833959Y-75567219D01*
X177119673Y-75900552D02*
X177119673Y-76567219D01*
X176691102Y-75900552D02*
X176691102Y-76424361D01*
X176691102Y-76424361D02*
X176738721Y-76519600D01*
X176738721Y-76519600D02*
X176833959Y-76567219D01*
X176833959Y-76567219D02*
X176976816Y-76567219D01*
X176976816Y-76567219D02*
X177072054Y-76519600D01*
X177072054Y-76519600D02*
X177119673Y-76471980D01*
X177453007Y-75900552D02*
X177833959Y-75900552D01*
X177595864Y-75567219D02*
X177595864Y-76424361D01*
X177595864Y-76424361D02*
X177643483Y-76519600D01*
X177643483Y-76519600D02*
X177738721Y-76567219D01*
X177738721Y-76567219D02*
X177833959Y-76567219D01*
X174460149Y-83667219D02*
X174650625Y-83667219D01*
X174650625Y-83667219D02*
X174745863Y-83714838D01*
X174745863Y-83714838D02*
X174841101Y-83810076D01*
X174841101Y-83810076D02*
X174888720Y-84000552D01*
X174888720Y-84000552D02*
X174888720Y-84333885D01*
X174888720Y-84333885D02*
X174841101Y-84524361D01*
X174841101Y-84524361D02*
X174745863Y-84619600D01*
X174745863Y-84619600D02*
X174650625Y-84667219D01*
X174650625Y-84667219D02*
X174460149Y-84667219D01*
X174460149Y-84667219D02*
X174364911Y-84619600D01*
X174364911Y-84619600D02*
X174269673Y-84524361D01*
X174269673Y-84524361D02*
X174222054Y-84333885D01*
X174222054Y-84333885D02*
X174222054Y-84000552D01*
X174222054Y-84000552D02*
X174269673Y-83810076D01*
X174269673Y-83810076D02*
X174364911Y-83714838D01*
X174364911Y-83714838D02*
X174460149Y-83667219D01*
X175317292Y-83667219D02*
X175317292Y-84476742D01*
X175317292Y-84476742D02*
X175364911Y-84571980D01*
X175364911Y-84571980D02*
X175412530Y-84619600D01*
X175412530Y-84619600D02*
X175507768Y-84667219D01*
X175507768Y-84667219D02*
X175698244Y-84667219D01*
X175698244Y-84667219D02*
X175793482Y-84619600D01*
X175793482Y-84619600D02*
X175841101Y-84571980D01*
X175841101Y-84571980D02*
X175888720Y-84476742D01*
X175888720Y-84476742D02*
X175888720Y-83667219D01*
X176222054Y-83667219D02*
X176793482Y-83667219D01*
X176507768Y-84667219D02*
X176507768Y-83667219D01*
X162645863Y-76567219D02*
X162169673Y-76567219D01*
X162169673Y-76567219D02*
X162169673Y-75567219D01*
X164407769Y-75567219D02*
X164645864Y-76567219D01*
X164645864Y-76567219D02*
X164836340Y-75852933D01*
X164836340Y-75852933D02*
X165026816Y-76567219D01*
X165026816Y-76567219D02*
X165264912Y-75567219D01*
X167169674Y-76567219D02*
X167169674Y-75567219D01*
X167169674Y-76043409D02*
X167741102Y-76043409D01*
X167741102Y-76567219D02*
X167741102Y-75567219D01*
X160522054Y-84281504D02*
X160998244Y-84281504D01*
X160426816Y-84567219D02*
X160760149Y-83567219D01*
X160760149Y-83567219D02*
X161093482Y-84567219D01*
X161855387Y-84519600D02*
X161760149Y-84567219D01*
X161760149Y-84567219D02*
X161569673Y-84567219D01*
X161569673Y-84567219D02*
X161474435Y-84519600D01*
X161474435Y-84519600D02*
X161426816Y-84471980D01*
X161426816Y-84471980D02*
X161379197Y-84376742D01*
X161379197Y-84376742D02*
X161379197Y-84091028D01*
X161379197Y-84091028D02*
X161426816Y-83995790D01*
X161426816Y-83995790D02*
X161474435Y-83948171D01*
X161474435Y-83948171D02*
X161569673Y-83900552D01*
X161569673Y-83900552D02*
X161760149Y-83900552D01*
X161760149Y-83900552D02*
X161855387Y-83948171D01*
X162426816Y-84567219D02*
X162331578Y-84519600D01*
X162331578Y-84519600D02*
X162283959Y-84471980D01*
X162283959Y-84471980D02*
X162236340Y-84376742D01*
X162236340Y-84376742D02*
X162236340Y-84091028D01*
X162236340Y-84091028D02*
X162283959Y-83995790D01*
X162283959Y-83995790D02*
X162331578Y-83948171D01*
X162331578Y-83948171D02*
X162426816Y-83900552D01*
X162426816Y-83900552D02*
X162569673Y-83900552D01*
X162569673Y-83900552D02*
X162664911Y-83948171D01*
X162664911Y-83948171D02*
X162712530Y-83995790D01*
X162712530Y-83995790D02*
X162760149Y-84091028D01*
X162760149Y-84091028D02*
X162760149Y-84376742D01*
X162760149Y-84376742D02*
X162712530Y-84471980D01*
X162712530Y-84471980D02*
X162664911Y-84519600D01*
X162664911Y-84519600D02*
X162569673Y-84567219D01*
X162569673Y-84567219D02*
X162426816Y-84567219D01*
X163617292Y-83900552D02*
X163617292Y-84567219D01*
X163188721Y-83900552D02*
X163188721Y-84424361D01*
X163188721Y-84424361D02*
X163236340Y-84519600D01*
X163236340Y-84519600D02*
X163331578Y-84567219D01*
X163331578Y-84567219D02*
X163474435Y-84567219D01*
X163474435Y-84567219D02*
X163569673Y-84519600D01*
X163569673Y-84519600D02*
X163617292Y-84471980D01*
X164045864Y-84519600D02*
X164141102Y-84567219D01*
X164141102Y-84567219D02*
X164331578Y-84567219D01*
X164331578Y-84567219D02*
X164426816Y-84519600D01*
X164426816Y-84519600D02*
X164474435Y-84424361D01*
X164474435Y-84424361D02*
X164474435Y-84376742D01*
X164474435Y-84376742D02*
X164426816Y-84281504D01*
X164426816Y-84281504D02*
X164331578Y-84233885D01*
X164331578Y-84233885D02*
X164188721Y-84233885D01*
X164188721Y-84233885D02*
X164093483Y-84186266D01*
X164093483Y-84186266D02*
X164045864Y-84091028D01*
X164045864Y-84091028D02*
X164045864Y-84043409D01*
X164045864Y-84043409D02*
X164093483Y-83948171D01*
X164093483Y-83948171D02*
X164188721Y-83900552D01*
X164188721Y-83900552D02*
X164331578Y-83900552D01*
X164331578Y-83900552D02*
X164426816Y-83948171D01*
X164760150Y-83900552D02*
X165141102Y-83900552D01*
X164903007Y-83567219D02*
X164903007Y-84424361D01*
X164903007Y-84424361D02*
X164950626Y-84519600D01*
X164950626Y-84519600D02*
X165045864Y-84567219D01*
X165045864Y-84567219D02*
X165141102Y-84567219D01*
X165474436Y-84567219D02*
X165474436Y-83900552D01*
X165474436Y-83567219D02*
X165426817Y-83614838D01*
X165426817Y-83614838D02*
X165474436Y-83662457D01*
X165474436Y-83662457D02*
X165522055Y-83614838D01*
X165522055Y-83614838D02*
X165474436Y-83567219D01*
X165474436Y-83567219D02*
X165474436Y-83662457D01*
X166379197Y-84519600D02*
X166283959Y-84567219D01*
X166283959Y-84567219D02*
X166093483Y-84567219D01*
X166093483Y-84567219D02*
X165998245Y-84519600D01*
X165998245Y-84519600D02*
X165950626Y-84471980D01*
X165950626Y-84471980D02*
X165903007Y-84376742D01*
X165903007Y-84376742D02*
X165903007Y-84091028D01*
X165903007Y-84091028D02*
X165950626Y-83995790D01*
X165950626Y-83995790D02*
X165998245Y-83948171D01*
X165998245Y-83948171D02*
X166093483Y-83900552D01*
X166093483Y-83900552D02*
X166283959Y-83900552D01*
X166283959Y-83900552D02*
X166379197Y-83948171D01*
X167426817Y-83567219D02*
X167760150Y-84567219D01*
X167760150Y-84567219D02*
X168093483Y-83567219D01*
X168569674Y-84567219D02*
X168474436Y-84519600D01*
X168474436Y-84519600D02*
X168426817Y-84471980D01*
X168426817Y-84471980D02*
X168379198Y-84376742D01*
X168379198Y-84376742D02*
X168379198Y-84091028D01*
X168379198Y-84091028D02*
X168426817Y-83995790D01*
X168426817Y-83995790D02*
X168474436Y-83948171D01*
X168474436Y-83948171D02*
X168569674Y-83900552D01*
X168569674Y-83900552D02*
X168712531Y-83900552D01*
X168712531Y-83900552D02*
X168807769Y-83948171D01*
X168807769Y-83948171D02*
X168855388Y-83995790D01*
X168855388Y-83995790D02*
X168903007Y-84091028D01*
X168903007Y-84091028D02*
X168903007Y-84376742D01*
X168903007Y-84376742D02*
X168855388Y-84471980D01*
X168855388Y-84471980D02*
X168807769Y-84519600D01*
X168807769Y-84519600D02*
X168712531Y-84567219D01*
X168712531Y-84567219D02*
X168569674Y-84567219D01*
X169474436Y-84567219D02*
X169379198Y-84519600D01*
X169379198Y-84519600D02*
X169331579Y-84424361D01*
X169331579Y-84424361D02*
X169331579Y-83567219D01*
X146669673Y-115167219D02*
X146669673Y-114167219D01*
X146669673Y-114643409D02*
X147241101Y-114643409D01*
X147241101Y-115167219D02*
X147241101Y-114167219D01*
X149145864Y-114167219D02*
X149383959Y-115167219D01*
X149383959Y-115167219D02*
X149574435Y-114452933D01*
X149574435Y-114452933D02*
X149764911Y-115167219D01*
X149764911Y-115167219D02*
X150003007Y-114167219D01*
X152383959Y-115167219D02*
X151907769Y-115167219D01*
X151907769Y-115167219D02*
X151907769Y-114167219D01*
X145469673Y-106393409D02*
X145803006Y-106393409D01*
X145945863Y-106917219D02*
X145469673Y-106917219D01*
X145469673Y-106917219D02*
X145469673Y-105917219D01*
X145469673Y-105917219D02*
X145945863Y-105917219D01*
X146517292Y-106917219D02*
X146422054Y-106869600D01*
X146422054Y-106869600D02*
X146374435Y-106774361D01*
X146374435Y-106774361D02*
X146374435Y-105917219D01*
X147279197Y-106869600D02*
X147183959Y-106917219D01*
X147183959Y-106917219D02*
X146993483Y-106917219D01*
X146993483Y-106917219D02*
X146898245Y-106869600D01*
X146898245Y-106869600D02*
X146850626Y-106774361D01*
X146850626Y-106774361D02*
X146850626Y-106393409D01*
X146850626Y-106393409D02*
X146898245Y-106298171D01*
X146898245Y-106298171D02*
X146993483Y-106250552D01*
X146993483Y-106250552D02*
X147183959Y-106250552D01*
X147183959Y-106250552D02*
X147279197Y-106298171D01*
X147279197Y-106298171D02*
X147326816Y-106393409D01*
X147326816Y-106393409D02*
X147326816Y-106488647D01*
X147326816Y-106488647D02*
X146850626Y-106583885D01*
X148183959Y-106869600D02*
X148088721Y-106917219D01*
X148088721Y-106917219D02*
X147898245Y-106917219D01*
X147898245Y-106917219D02*
X147803007Y-106869600D01*
X147803007Y-106869600D02*
X147755388Y-106821980D01*
X147755388Y-106821980D02*
X147707769Y-106726742D01*
X147707769Y-106726742D02*
X147707769Y-106441028D01*
X147707769Y-106441028D02*
X147755388Y-106345790D01*
X147755388Y-106345790D02*
X147803007Y-106298171D01*
X147803007Y-106298171D02*
X147898245Y-106250552D01*
X147898245Y-106250552D02*
X148088721Y-106250552D01*
X148088721Y-106250552D02*
X148183959Y-106298171D01*
X148469674Y-106250552D02*
X148850626Y-106250552D01*
X148612531Y-105917219D02*
X148612531Y-106774361D01*
X148612531Y-106774361D02*
X148660150Y-106869600D01*
X148660150Y-106869600D02*
X148755388Y-106917219D01*
X148755388Y-106917219D02*
X148850626Y-106917219D01*
X149183960Y-106917219D02*
X149183960Y-106250552D01*
X149183960Y-106441028D02*
X149231579Y-106345790D01*
X149231579Y-106345790D02*
X149279198Y-106298171D01*
X149279198Y-106298171D02*
X149374436Y-106250552D01*
X149374436Y-106250552D02*
X149469674Y-106250552D01*
X149803008Y-106917219D02*
X149803008Y-106250552D01*
X149803008Y-105917219D02*
X149755389Y-105964838D01*
X149755389Y-105964838D02*
X149803008Y-106012457D01*
X149803008Y-106012457D02*
X149850627Y-105964838D01*
X149850627Y-105964838D02*
X149803008Y-105917219D01*
X149803008Y-105917219D02*
X149803008Y-106012457D01*
X150707769Y-106869600D02*
X150612531Y-106917219D01*
X150612531Y-106917219D02*
X150422055Y-106917219D01*
X150422055Y-106917219D02*
X150326817Y-106869600D01*
X150326817Y-106869600D02*
X150279198Y-106821980D01*
X150279198Y-106821980D02*
X150231579Y-106726742D01*
X150231579Y-106726742D02*
X150231579Y-106441028D01*
X150231579Y-106441028D02*
X150279198Y-106345790D01*
X150279198Y-106345790D02*
X150326817Y-106298171D01*
X150326817Y-106298171D02*
X150422055Y-106250552D01*
X150422055Y-106250552D02*
X150612531Y-106250552D01*
X150612531Y-106250552D02*
X150707769Y-106298171D01*
X151755389Y-105917219D02*
X152088722Y-106917219D01*
X152088722Y-106917219D02*
X152422055Y-105917219D01*
X152898246Y-106917219D02*
X152803008Y-106869600D01*
X152803008Y-106869600D02*
X152755389Y-106821980D01*
X152755389Y-106821980D02*
X152707770Y-106726742D01*
X152707770Y-106726742D02*
X152707770Y-106441028D01*
X152707770Y-106441028D02*
X152755389Y-106345790D01*
X152755389Y-106345790D02*
X152803008Y-106298171D01*
X152803008Y-106298171D02*
X152898246Y-106250552D01*
X152898246Y-106250552D02*
X153041103Y-106250552D01*
X153041103Y-106250552D02*
X153136341Y-106298171D01*
X153136341Y-106298171D02*
X153183960Y-106345790D01*
X153183960Y-106345790D02*
X153231579Y-106441028D01*
X153231579Y-106441028D02*
X153231579Y-106726742D01*
X153231579Y-106726742D02*
X153183960Y-106821980D01*
X153183960Y-106821980D02*
X153136341Y-106869600D01*
X153136341Y-106869600D02*
X153041103Y-106917219D01*
X153041103Y-106917219D02*
X152898246Y-106917219D01*
X153803008Y-106917219D02*
X153707770Y-106869600D01*
X153707770Y-106869600D02*
X153660151Y-106774361D01*
X153660151Y-106774361D02*
X153660151Y-105917219D01*
X116263733Y-101619673D02*
X116263733Y-102381578D01*
X115882780Y-102000625D02*
X116644685Y-102000625D01*
X115882780Y-102905387D02*
X115882780Y-103095863D01*
X115882780Y-103095863D02*
X115930400Y-103191101D01*
X115930400Y-103191101D02*
X115978019Y-103238720D01*
X115978019Y-103238720D02*
X116120876Y-103333958D01*
X116120876Y-103333958D02*
X116311352Y-103381577D01*
X116311352Y-103381577D02*
X116692304Y-103381577D01*
X116692304Y-103381577D02*
X116787542Y-103333958D01*
X116787542Y-103333958D02*
X116835161Y-103286339D01*
X116835161Y-103286339D02*
X116882780Y-103191101D01*
X116882780Y-103191101D02*
X116882780Y-103000625D01*
X116882780Y-103000625D02*
X116835161Y-102905387D01*
X116835161Y-102905387D02*
X116787542Y-102857768D01*
X116787542Y-102857768D02*
X116692304Y-102810149D01*
X116692304Y-102810149D02*
X116454209Y-102810149D01*
X116454209Y-102810149D02*
X116358971Y-102857768D01*
X116358971Y-102857768D02*
X116311352Y-102905387D01*
X116311352Y-102905387D02*
X116263733Y-103000625D01*
X116263733Y-103000625D02*
X116263733Y-103191101D01*
X116263733Y-103191101D02*
X116311352Y-103286339D01*
X116311352Y-103286339D02*
X116358971Y-103333958D01*
X116358971Y-103333958D02*
X116454209Y-103381577D01*
X116882780Y-103667292D02*
X115882780Y-104000625D01*
X115882780Y-104000625D02*
X116882780Y-104333958D01*
X116835161Y-105953006D02*
X116882780Y-105857768D01*
X116882780Y-105857768D02*
X116882780Y-105714911D01*
X116882780Y-105714911D02*
X116835161Y-105572054D01*
X116835161Y-105572054D02*
X116739923Y-105476816D01*
X116739923Y-105476816D02*
X116644685Y-105429197D01*
X116644685Y-105429197D02*
X116454209Y-105381578D01*
X116454209Y-105381578D02*
X116311352Y-105381578D01*
X116311352Y-105381578D02*
X116120876Y-105429197D01*
X116120876Y-105429197D02*
X116025638Y-105476816D01*
X116025638Y-105476816D02*
X115930400Y-105572054D01*
X115930400Y-105572054D02*
X115882780Y-105714911D01*
X115882780Y-105714911D02*
X115882780Y-105810149D01*
X115882780Y-105810149D02*
X115930400Y-105953006D01*
X115930400Y-105953006D02*
X115978019Y-106000625D01*
X115978019Y-106000625D02*
X116311352Y-106000625D01*
X116311352Y-106000625D02*
X116311352Y-105810149D01*
X124182780Y-104269673D02*
X125182780Y-104269673D01*
X125182780Y-104269673D02*
X125182780Y-104650625D01*
X125182780Y-104650625D02*
X125135161Y-104745863D01*
X125135161Y-104745863D02*
X125087542Y-104793482D01*
X125087542Y-104793482D02*
X124992304Y-104841101D01*
X124992304Y-104841101D02*
X124849447Y-104841101D01*
X124849447Y-104841101D02*
X124754209Y-104793482D01*
X124754209Y-104793482D02*
X124706590Y-104745863D01*
X124706590Y-104745863D02*
X124658971Y-104650625D01*
X124658971Y-104650625D02*
X124658971Y-104269673D01*
X125182780Y-105174435D02*
X124182780Y-105412530D01*
X124182780Y-105412530D02*
X124897066Y-105603006D01*
X124897066Y-105603006D02*
X124182780Y-105793482D01*
X124182780Y-105793482D02*
X125182780Y-106031578D01*
X124182780Y-106983958D02*
X124658971Y-106650625D01*
X124182780Y-106412530D02*
X125182780Y-106412530D01*
X125182780Y-106412530D02*
X125182780Y-106793482D01*
X125182780Y-106793482D02*
X125135161Y-106888720D01*
X125135161Y-106888720D02*
X125087542Y-106936339D01*
X125087542Y-106936339D02*
X124992304Y-106983958D01*
X124992304Y-106983958D02*
X124849447Y-106983958D01*
X124849447Y-106983958D02*
X124754209Y-106936339D01*
X124754209Y-106936339D02*
X124706590Y-106888720D01*
X124706590Y-106888720D02*
X124658971Y-106793482D01*
X124658971Y-106793482D02*
X124658971Y-106412530D01*
X116218495Y-87372054D02*
X116218495Y-87848244D01*
X115932780Y-87276816D02*
X116932780Y-87610149D01*
X116932780Y-87610149D02*
X115932780Y-87943482D01*
X116456590Y-89800626D02*
X116456590Y-90133959D01*
X115932780Y-90276816D02*
X115932780Y-89800626D01*
X115932780Y-89800626D02*
X116932780Y-89800626D01*
X116932780Y-89800626D02*
X116932780Y-90276816D01*
X116885161Y-92753007D02*
X116932780Y-92657769D01*
X116932780Y-92657769D02*
X116932780Y-92514912D01*
X116932780Y-92514912D02*
X116885161Y-92372055D01*
X116885161Y-92372055D02*
X116789923Y-92276817D01*
X116789923Y-92276817D02*
X116694685Y-92229198D01*
X116694685Y-92229198D02*
X116504209Y-92181579D01*
X116504209Y-92181579D02*
X116361352Y-92181579D01*
X116361352Y-92181579D02*
X116170876Y-92229198D01*
X116170876Y-92229198D02*
X116075638Y-92276817D01*
X116075638Y-92276817D02*
X115980400Y-92372055D01*
X115980400Y-92372055D02*
X115932780Y-92514912D01*
X115932780Y-92514912D02*
X115932780Y-92610150D01*
X115932780Y-92610150D02*
X115980400Y-92753007D01*
X115980400Y-92753007D02*
X116028019Y-92800626D01*
X116028019Y-92800626D02*
X116361352Y-92800626D01*
X116361352Y-92800626D02*
X116361352Y-92610150D01*
X124082780Y-88219673D02*
X125082780Y-88219673D01*
X124082780Y-88695863D02*
X125082780Y-88695863D01*
X125082780Y-88695863D02*
X124082780Y-89267291D01*
X124082780Y-89267291D02*
X125082780Y-89267291D01*
X124082780Y-89743482D02*
X125082780Y-89743482D01*
X125082780Y-89743482D02*
X125082780Y-90124434D01*
X125082780Y-90124434D02*
X125035161Y-90219672D01*
X125035161Y-90219672D02*
X124987542Y-90267291D01*
X124987542Y-90267291D02*
X124892304Y-90314910D01*
X124892304Y-90314910D02*
X124749447Y-90314910D01*
X124749447Y-90314910D02*
X124654209Y-90267291D01*
X124654209Y-90267291D02*
X124606590Y-90219672D01*
X124606590Y-90219672D02*
X124558971Y-90124434D01*
X124558971Y-90124434D02*
X124558971Y-89743482D01*
X125082780Y-90743482D02*
X124273257Y-90743482D01*
X124273257Y-90743482D02*
X124178019Y-90791101D01*
X124178019Y-90791101D02*
X124130400Y-90838720D01*
X124130400Y-90838720D02*
X124082780Y-90933958D01*
X124082780Y-90933958D02*
X124082780Y-91124434D01*
X124082780Y-91124434D02*
X124130400Y-91219672D01*
X124130400Y-91219672D02*
X124178019Y-91267291D01*
X124178019Y-91267291D02*
X124273257Y-91314910D01*
X124273257Y-91314910D02*
X125082780Y-91314910D01*
X125082780Y-91648244D02*
X125082780Y-92219672D01*
X124082780Y-91933958D02*
X125082780Y-91933958D01*
D12*
X160614819Y-106422857D02*
X160138628Y-106756190D01*
X160614819Y-106994285D02*
X159614819Y-106994285D01*
X159614819Y-106994285D02*
X159614819Y-106613333D01*
X159614819Y-106613333D02*
X159662438Y-106518095D01*
X159662438Y-106518095D02*
X159710057Y-106470476D01*
X159710057Y-106470476D02*
X159805295Y-106422857D01*
X159805295Y-106422857D02*
X159948152Y-106422857D01*
X159948152Y-106422857D02*
X160043390Y-106470476D01*
X160043390Y-106470476D02*
X160091009Y-106518095D01*
X160091009Y-106518095D02*
X160138628Y-106613333D01*
X160138628Y-106613333D02*
X160138628Y-106994285D01*
X160614819Y-105470476D02*
X160614819Y-106041904D01*
X160614819Y-105756190D02*
X159614819Y-105756190D01*
X159614819Y-105756190D02*
X159757676Y-105851428D01*
X159757676Y-105851428D02*
X159852914Y-105946666D01*
X159852914Y-105946666D02*
X159900533Y-106041904D01*
X159614819Y-104851428D02*
X159614819Y-104756190D01*
X159614819Y-104756190D02*
X159662438Y-104660952D01*
X159662438Y-104660952D02*
X159710057Y-104613333D01*
X159710057Y-104613333D02*
X159805295Y-104565714D01*
X159805295Y-104565714D02*
X159995771Y-104518095D01*
X159995771Y-104518095D02*
X160233866Y-104518095D01*
X160233866Y-104518095D02*
X160424342Y-104565714D01*
X160424342Y-104565714D02*
X160519580Y-104613333D01*
X160519580Y-104613333D02*
X160567200Y-104660952D01*
X160567200Y-104660952D02*
X160614819Y-104756190D01*
X160614819Y-104756190D02*
X160614819Y-104851428D01*
X160614819Y-104851428D02*
X160567200Y-104946666D01*
X160567200Y-104946666D02*
X160519580Y-104994285D01*
X160519580Y-104994285D02*
X160424342Y-105041904D01*
X160424342Y-105041904D02*
X160233866Y-105089523D01*
X160233866Y-105089523D02*
X159995771Y-105089523D01*
X159995771Y-105089523D02*
X159805295Y-105041904D01*
X159805295Y-105041904D02*
X159710057Y-104994285D01*
X159710057Y-104994285D02*
X159662438Y-104946666D01*
X159662438Y-104946666D02*
X159614819Y-104851428D01*
X157044819Y-105946666D02*
X156568628Y-106279999D01*
X157044819Y-106518094D02*
X156044819Y-106518094D01*
X156044819Y-106518094D02*
X156044819Y-106137142D01*
X156044819Y-106137142D02*
X156092438Y-106041904D01*
X156092438Y-106041904D02*
X156140057Y-105994285D01*
X156140057Y-105994285D02*
X156235295Y-105946666D01*
X156235295Y-105946666D02*
X156378152Y-105946666D01*
X156378152Y-105946666D02*
X156473390Y-105994285D01*
X156473390Y-105994285D02*
X156521009Y-106041904D01*
X156521009Y-106041904D02*
X156568628Y-106137142D01*
X156568628Y-106137142D02*
X156568628Y-106518094D01*
X156044819Y-105613332D02*
X156044819Y-104946666D01*
X156044819Y-104946666D02*
X157044819Y-105375237D01*
X168828095Y-106044819D02*
X168828095Y-106854342D01*
X168828095Y-106854342D02*
X168875714Y-106949580D01*
X168875714Y-106949580D02*
X168923333Y-106997200D01*
X168923333Y-106997200D02*
X169018571Y-107044819D01*
X169018571Y-107044819D02*
X169209047Y-107044819D01*
X169209047Y-107044819D02*
X169304285Y-106997200D01*
X169304285Y-106997200D02*
X169351904Y-106949580D01*
X169351904Y-106949580D02*
X169399523Y-106854342D01*
X169399523Y-106854342D02*
X169399523Y-106044819D01*
X169828095Y-106140057D02*
X169875714Y-106092438D01*
X169875714Y-106092438D02*
X169970952Y-106044819D01*
X169970952Y-106044819D02*
X170209047Y-106044819D01*
X170209047Y-106044819D02*
X170304285Y-106092438D01*
X170304285Y-106092438D02*
X170351904Y-106140057D01*
X170351904Y-106140057D02*
X170399523Y-106235295D01*
X170399523Y-106235295D02*
X170399523Y-106330533D01*
X170399523Y-106330533D02*
X170351904Y-106473390D01*
X170351904Y-106473390D02*
X169780476Y-107044819D01*
X169780476Y-107044819D02*
X170399523Y-107044819D01*
X148658095Y-85934819D02*
X148658095Y-86744342D01*
X148658095Y-86744342D02*
X148705714Y-86839580D01*
X148705714Y-86839580D02*
X148753333Y-86887200D01*
X148753333Y-86887200D02*
X148848571Y-86934819D01*
X148848571Y-86934819D02*
X149039047Y-86934819D01*
X149039047Y-86934819D02*
X149134285Y-86887200D01*
X149134285Y-86887200D02*
X149181904Y-86839580D01*
X149181904Y-86839580D02*
X149229523Y-86744342D01*
X149229523Y-86744342D02*
X149229523Y-85934819D01*
X150229523Y-86934819D02*
X149658095Y-86934819D01*
X149943809Y-86934819D02*
X149943809Y-85934819D01*
X149943809Y-85934819D02*
X149848571Y-86077676D01*
X149848571Y-86077676D02*
X149753333Y-86172914D01*
X149753333Y-86172914D02*
X149658095Y-86220533D01*
X158264819Y-85042857D02*
X157788628Y-85376190D01*
X158264819Y-85614285D02*
X157264819Y-85614285D01*
X157264819Y-85614285D02*
X157264819Y-85233333D01*
X157264819Y-85233333D02*
X157312438Y-85138095D01*
X157312438Y-85138095D02*
X157360057Y-85090476D01*
X157360057Y-85090476D02*
X157455295Y-85042857D01*
X157455295Y-85042857D02*
X157598152Y-85042857D01*
X157598152Y-85042857D02*
X157693390Y-85090476D01*
X157693390Y-85090476D02*
X157741009Y-85138095D01*
X157741009Y-85138095D02*
X157788628Y-85233333D01*
X157788628Y-85233333D02*
X157788628Y-85614285D01*
X158264819Y-84090476D02*
X158264819Y-84661904D01*
X158264819Y-84376190D02*
X157264819Y-84376190D01*
X157264819Y-84376190D02*
X157407676Y-84471428D01*
X157407676Y-84471428D02*
X157502914Y-84566666D01*
X157502914Y-84566666D02*
X157550533Y-84661904D01*
X157598152Y-83233333D02*
X158264819Y-83233333D01*
X157217200Y-83471428D02*
X157931485Y-83709523D01*
X157931485Y-83709523D02*
X157931485Y-83090476D01*
X184064819Y-91822857D02*
X183588628Y-92156190D01*
X184064819Y-92394285D02*
X183064819Y-92394285D01*
X183064819Y-92394285D02*
X183064819Y-92013333D01*
X183064819Y-92013333D02*
X183112438Y-91918095D01*
X183112438Y-91918095D02*
X183160057Y-91870476D01*
X183160057Y-91870476D02*
X183255295Y-91822857D01*
X183255295Y-91822857D02*
X183398152Y-91822857D01*
X183398152Y-91822857D02*
X183493390Y-91870476D01*
X183493390Y-91870476D02*
X183541009Y-91918095D01*
X183541009Y-91918095D02*
X183588628Y-92013333D01*
X183588628Y-92013333D02*
X183588628Y-92394285D01*
X184064819Y-90870476D02*
X184064819Y-91441904D01*
X184064819Y-91156190D02*
X183064819Y-91156190D01*
X183064819Y-91156190D02*
X183207676Y-91251428D01*
X183207676Y-91251428D02*
X183302914Y-91346666D01*
X183302914Y-91346666D02*
X183350533Y-91441904D01*
X183064819Y-90537142D02*
X183064819Y-89918095D01*
X183064819Y-89918095D02*
X183445771Y-90251428D01*
X183445771Y-90251428D02*
X183445771Y-90108571D01*
X183445771Y-90108571D02*
X183493390Y-90013333D01*
X183493390Y-90013333D02*
X183541009Y-89965714D01*
X183541009Y-89965714D02*
X183636247Y-89918095D01*
X183636247Y-89918095D02*
X183874342Y-89918095D01*
X183874342Y-89918095D02*
X183969580Y-89965714D01*
X183969580Y-89965714D02*
X184017200Y-90013333D01*
X184017200Y-90013333D02*
X184064819Y-90108571D01*
X184064819Y-90108571D02*
X184064819Y-90394285D01*
X184064819Y-90394285D02*
X184017200Y-90489523D01*
X184017200Y-90489523D02*
X183969580Y-90537142D01*
X164677142Y-97494819D02*
X164343809Y-97018628D01*
X164105714Y-97494819D02*
X164105714Y-96494819D01*
X164105714Y-96494819D02*
X164486666Y-96494819D01*
X164486666Y-96494819D02*
X164581904Y-96542438D01*
X164581904Y-96542438D02*
X164629523Y-96590057D01*
X164629523Y-96590057D02*
X164677142Y-96685295D01*
X164677142Y-96685295D02*
X164677142Y-96828152D01*
X164677142Y-96828152D02*
X164629523Y-96923390D01*
X164629523Y-96923390D02*
X164581904Y-96971009D01*
X164581904Y-96971009D02*
X164486666Y-97018628D01*
X164486666Y-97018628D02*
X164105714Y-97018628D01*
X165629523Y-97494819D02*
X165058095Y-97494819D01*
X165343809Y-97494819D02*
X165343809Y-96494819D01*
X165343809Y-96494819D02*
X165248571Y-96637676D01*
X165248571Y-96637676D02*
X165153333Y-96732914D01*
X165153333Y-96732914D02*
X165058095Y-96780533D01*
X166010476Y-96590057D02*
X166058095Y-96542438D01*
X166058095Y-96542438D02*
X166153333Y-96494819D01*
X166153333Y-96494819D02*
X166391428Y-96494819D01*
X166391428Y-96494819D02*
X166486666Y-96542438D01*
X166486666Y-96542438D02*
X166534285Y-96590057D01*
X166534285Y-96590057D02*
X166581904Y-96685295D01*
X166581904Y-96685295D02*
X166581904Y-96780533D01*
X166581904Y-96780533D02*
X166534285Y-96923390D01*
X166534285Y-96923390D02*
X165962857Y-97494819D01*
X165962857Y-97494819D02*
X166581904Y-97494819D01*
X180339819Y-91822857D02*
X179863628Y-92156190D01*
X180339819Y-92394285D02*
X179339819Y-92394285D01*
X179339819Y-92394285D02*
X179339819Y-92013333D01*
X179339819Y-92013333D02*
X179387438Y-91918095D01*
X179387438Y-91918095D02*
X179435057Y-91870476D01*
X179435057Y-91870476D02*
X179530295Y-91822857D01*
X179530295Y-91822857D02*
X179673152Y-91822857D01*
X179673152Y-91822857D02*
X179768390Y-91870476D01*
X179768390Y-91870476D02*
X179816009Y-91918095D01*
X179816009Y-91918095D02*
X179863628Y-92013333D01*
X179863628Y-92013333D02*
X179863628Y-92394285D01*
X180339819Y-90870476D02*
X180339819Y-91441904D01*
X180339819Y-91156190D02*
X179339819Y-91156190D01*
X179339819Y-91156190D02*
X179482676Y-91251428D01*
X179482676Y-91251428D02*
X179577914Y-91346666D01*
X179577914Y-91346666D02*
X179625533Y-91441904D01*
X180339819Y-89918095D02*
X180339819Y-90489523D01*
X180339819Y-90203809D02*
X179339819Y-90203809D01*
X179339819Y-90203809D02*
X179482676Y-90299047D01*
X179482676Y-90299047D02*
X179577914Y-90394285D01*
X179577914Y-90394285D02*
X179625533Y-90489523D01*
X131303333Y-106944819D02*
X130970000Y-106468628D01*
X130731905Y-106944819D02*
X130731905Y-105944819D01*
X130731905Y-105944819D02*
X131112857Y-105944819D01*
X131112857Y-105944819D02*
X131208095Y-105992438D01*
X131208095Y-105992438D02*
X131255714Y-106040057D01*
X131255714Y-106040057D02*
X131303333Y-106135295D01*
X131303333Y-106135295D02*
X131303333Y-106278152D01*
X131303333Y-106278152D02*
X131255714Y-106373390D01*
X131255714Y-106373390D02*
X131208095Y-106421009D01*
X131208095Y-106421009D02*
X131112857Y-106468628D01*
X131112857Y-106468628D02*
X130731905Y-106468628D01*
X131779524Y-106944819D02*
X131970000Y-106944819D01*
X131970000Y-106944819D02*
X132065238Y-106897200D01*
X132065238Y-106897200D02*
X132112857Y-106849580D01*
X132112857Y-106849580D02*
X132208095Y-106706723D01*
X132208095Y-106706723D02*
X132255714Y-106516247D01*
X132255714Y-106516247D02*
X132255714Y-106135295D01*
X132255714Y-106135295D02*
X132208095Y-106040057D01*
X132208095Y-106040057D02*
X132160476Y-105992438D01*
X132160476Y-105992438D02*
X132065238Y-105944819D01*
X132065238Y-105944819D02*
X131874762Y-105944819D01*
X131874762Y-105944819D02*
X131779524Y-105992438D01*
X131779524Y-105992438D02*
X131731905Y-106040057D01*
X131731905Y-106040057D02*
X131684286Y-106135295D01*
X131684286Y-106135295D02*
X131684286Y-106373390D01*
X131684286Y-106373390D02*
X131731905Y-106468628D01*
X131731905Y-106468628D02*
X131779524Y-106516247D01*
X131779524Y-106516247D02*
X131874762Y-106563866D01*
X131874762Y-106563866D02*
X132065238Y-106563866D01*
X132065238Y-106563866D02*
X132160476Y-106516247D01*
X132160476Y-106516247D02*
X132208095Y-106468628D01*
X132208095Y-106468628D02*
X132255714Y-106373390D01*
X131303333Y-110394819D02*
X130970000Y-109918628D01*
X130731905Y-110394819D02*
X130731905Y-109394819D01*
X130731905Y-109394819D02*
X131112857Y-109394819D01*
X131112857Y-109394819D02*
X131208095Y-109442438D01*
X131208095Y-109442438D02*
X131255714Y-109490057D01*
X131255714Y-109490057D02*
X131303333Y-109585295D01*
X131303333Y-109585295D02*
X131303333Y-109728152D01*
X131303333Y-109728152D02*
X131255714Y-109823390D01*
X131255714Y-109823390D02*
X131208095Y-109871009D01*
X131208095Y-109871009D02*
X131112857Y-109918628D01*
X131112857Y-109918628D02*
X130731905Y-109918628D01*
X131874762Y-109823390D02*
X131779524Y-109775771D01*
X131779524Y-109775771D02*
X131731905Y-109728152D01*
X131731905Y-109728152D02*
X131684286Y-109632914D01*
X131684286Y-109632914D02*
X131684286Y-109585295D01*
X131684286Y-109585295D02*
X131731905Y-109490057D01*
X131731905Y-109490057D02*
X131779524Y-109442438D01*
X131779524Y-109442438D02*
X131874762Y-109394819D01*
X131874762Y-109394819D02*
X132065238Y-109394819D01*
X132065238Y-109394819D02*
X132160476Y-109442438D01*
X132160476Y-109442438D02*
X132208095Y-109490057D01*
X132208095Y-109490057D02*
X132255714Y-109585295D01*
X132255714Y-109585295D02*
X132255714Y-109632914D01*
X132255714Y-109632914D02*
X132208095Y-109728152D01*
X132208095Y-109728152D02*
X132160476Y-109775771D01*
X132160476Y-109775771D02*
X132065238Y-109823390D01*
X132065238Y-109823390D02*
X131874762Y-109823390D01*
X131874762Y-109823390D02*
X131779524Y-109871009D01*
X131779524Y-109871009D02*
X131731905Y-109918628D01*
X131731905Y-109918628D02*
X131684286Y-110013866D01*
X131684286Y-110013866D02*
X131684286Y-110204342D01*
X131684286Y-110204342D02*
X131731905Y-110299580D01*
X131731905Y-110299580D02*
X131779524Y-110347200D01*
X131779524Y-110347200D02*
X131874762Y-110394819D01*
X131874762Y-110394819D02*
X132065238Y-110394819D01*
X132065238Y-110394819D02*
X132160476Y-110347200D01*
X132160476Y-110347200D02*
X132208095Y-110299580D01*
X132208095Y-110299580D02*
X132255714Y-110204342D01*
X132255714Y-110204342D02*
X132255714Y-110013866D01*
X132255714Y-110013866D02*
X132208095Y-109918628D01*
X132208095Y-109918628D02*
X132160476Y-109871009D01*
X132160476Y-109871009D02*
X132065238Y-109823390D01*
X147583333Y-97494819D02*
X147250000Y-97018628D01*
X147011905Y-97494819D02*
X147011905Y-96494819D01*
X147011905Y-96494819D02*
X147392857Y-96494819D01*
X147392857Y-96494819D02*
X147488095Y-96542438D01*
X147488095Y-96542438D02*
X147535714Y-96590057D01*
X147535714Y-96590057D02*
X147583333Y-96685295D01*
X147583333Y-96685295D02*
X147583333Y-96828152D01*
X147583333Y-96828152D02*
X147535714Y-96923390D01*
X147535714Y-96923390D02*
X147488095Y-96971009D01*
X147488095Y-96971009D02*
X147392857Y-97018628D01*
X147392857Y-97018628D02*
X147011905Y-97018628D01*
X148440476Y-96494819D02*
X148250000Y-96494819D01*
X148250000Y-96494819D02*
X148154762Y-96542438D01*
X148154762Y-96542438D02*
X148107143Y-96590057D01*
X148107143Y-96590057D02*
X148011905Y-96732914D01*
X148011905Y-96732914D02*
X147964286Y-96923390D01*
X147964286Y-96923390D02*
X147964286Y-97304342D01*
X147964286Y-97304342D02*
X148011905Y-97399580D01*
X148011905Y-97399580D02*
X148059524Y-97447200D01*
X148059524Y-97447200D02*
X148154762Y-97494819D01*
X148154762Y-97494819D02*
X148345238Y-97494819D01*
X148345238Y-97494819D02*
X148440476Y-97447200D01*
X148440476Y-97447200D02*
X148488095Y-97399580D01*
X148488095Y-97399580D02*
X148535714Y-97304342D01*
X148535714Y-97304342D02*
X148535714Y-97066247D01*
X148535714Y-97066247D02*
X148488095Y-96971009D01*
X148488095Y-96971009D02*
X148440476Y-96923390D01*
X148440476Y-96923390D02*
X148345238Y-96875771D01*
X148345238Y-96875771D02*
X148154762Y-96875771D01*
X148154762Y-96875771D02*
X148059524Y-96923390D01*
X148059524Y-96923390D02*
X148011905Y-96971009D01*
X148011905Y-96971009D02*
X147964286Y-97066247D01*
X176594819Y-91346666D02*
X176118628Y-91679999D01*
X176594819Y-91918094D02*
X175594819Y-91918094D01*
X175594819Y-91918094D02*
X175594819Y-91537142D01*
X175594819Y-91537142D02*
X175642438Y-91441904D01*
X175642438Y-91441904D02*
X175690057Y-91394285D01*
X175690057Y-91394285D02*
X175785295Y-91346666D01*
X175785295Y-91346666D02*
X175928152Y-91346666D01*
X175928152Y-91346666D02*
X176023390Y-91394285D01*
X176023390Y-91394285D02*
X176071009Y-91441904D01*
X176071009Y-91441904D02*
X176118628Y-91537142D01*
X176118628Y-91537142D02*
X176118628Y-91918094D01*
X175594819Y-90441904D02*
X175594819Y-90918094D01*
X175594819Y-90918094D02*
X176071009Y-90965713D01*
X176071009Y-90965713D02*
X176023390Y-90918094D01*
X176023390Y-90918094D02*
X175975771Y-90822856D01*
X175975771Y-90822856D02*
X175975771Y-90584761D01*
X175975771Y-90584761D02*
X176023390Y-90489523D01*
X176023390Y-90489523D02*
X176071009Y-90441904D01*
X176071009Y-90441904D02*
X176166247Y-90394285D01*
X176166247Y-90394285D02*
X176404342Y-90394285D01*
X176404342Y-90394285D02*
X176499580Y-90441904D01*
X176499580Y-90441904D02*
X176547200Y-90489523D01*
X176547200Y-90489523D02*
X176594819Y-90584761D01*
X176594819Y-90584761D02*
X176594819Y-90822856D01*
X176594819Y-90822856D02*
X176547200Y-90918094D01*
X176547200Y-90918094D02*
X176499580Y-90965713D01*
X137594819Y-97466666D02*
X137118628Y-97799999D01*
X137594819Y-98038094D02*
X136594819Y-98038094D01*
X136594819Y-98038094D02*
X136594819Y-97657142D01*
X136594819Y-97657142D02*
X136642438Y-97561904D01*
X136642438Y-97561904D02*
X136690057Y-97514285D01*
X136690057Y-97514285D02*
X136785295Y-97466666D01*
X136785295Y-97466666D02*
X136928152Y-97466666D01*
X136928152Y-97466666D02*
X137023390Y-97514285D01*
X137023390Y-97514285D02*
X137071009Y-97561904D01*
X137071009Y-97561904D02*
X137118628Y-97657142D01*
X137118628Y-97657142D02*
X137118628Y-98038094D01*
X136928152Y-96609523D02*
X137594819Y-96609523D01*
X136547200Y-96847618D02*
X137261485Y-97085713D01*
X137261485Y-97085713D02*
X137261485Y-96466666D01*
X134094819Y-97466666D02*
X133618628Y-97799999D01*
X134094819Y-98038094D02*
X133094819Y-98038094D01*
X133094819Y-98038094D02*
X133094819Y-97657142D01*
X133094819Y-97657142D02*
X133142438Y-97561904D01*
X133142438Y-97561904D02*
X133190057Y-97514285D01*
X133190057Y-97514285D02*
X133285295Y-97466666D01*
X133285295Y-97466666D02*
X133428152Y-97466666D01*
X133428152Y-97466666D02*
X133523390Y-97514285D01*
X133523390Y-97514285D02*
X133571009Y-97561904D01*
X133571009Y-97561904D02*
X133618628Y-97657142D01*
X133618628Y-97657142D02*
X133618628Y-98038094D01*
X133094819Y-97133332D02*
X133094819Y-96514285D01*
X133094819Y-96514285D02*
X133475771Y-96847618D01*
X133475771Y-96847618D02*
X133475771Y-96704761D01*
X133475771Y-96704761D02*
X133523390Y-96609523D01*
X133523390Y-96609523D02*
X133571009Y-96561904D01*
X133571009Y-96561904D02*
X133666247Y-96514285D01*
X133666247Y-96514285D02*
X133904342Y-96514285D01*
X133904342Y-96514285D02*
X133999580Y-96561904D01*
X133999580Y-96561904D02*
X134047200Y-96609523D01*
X134047200Y-96609523D02*
X134094819Y-96704761D01*
X134094819Y-96704761D02*
X134094819Y-96990475D01*
X134094819Y-96990475D02*
X134047200Y-97085713D01*
X134047200Y-97085713D02*
X133999580Y-97133332D01*
X137483333Y-77844819D02*
X137150000Y-77368628D01*
X136911905Y-77844819D02*
X136911905Y-76844819D01*
X136911905Y-76844819D02*
X137292857Y-76844819D01*
X137292857Y-76844819D02*
X137388095Y-76892438D01*
X137388095Y-76892438D02*
X137435714Y-76940057D01*
X137435714Y-76940057D02*
X137483333Y-77035295D01*
X137483333Y-77035295D02*
X137483333Y-77178152D01*
X137483333Y-77178152D02*
X137435714Y-77273390D01*
X137435714Y-77273390D02*
X137388095Y-77321009D01*
X137388095Y-77321009D02*
X137292857Y-77368628D01*
X137292857Y-77368628D02*
X136911905Y-77368628D01*
X137864286Y-76940057D02*
X137911905Y-76892438D01*
X137911905Y-76892438D02*
X138007143Y-76844819D01*
X138007143Y-76844819D02*
X138245238Y-76844819D01*
X138245238Y-76844819D02*
X138340476Y-76892438D01*
X138340476Y-76892438D02*
X138388095Y-76940057D01*
X138388095Y-76940057D02*
X138435714Y-77035295D01*
X138435714Y-77035295D02*
X138435714Y-77130533D01*
X138435714Y-77130533D02*
X138388095Y-77273390D01*
X138388095Y-77273390D02*
X137816667Y-77844819D01*
X137816667Y-77844819D02*
X138435714Y-77844819D01*
X137483333Y-81064819D02*
X137150000Y-80588628D01*
X136911905Y-81064819D02*
X136911905Y-80064819D01*
X136911905Y-80064819D02*
X137292857Y-80064819D01*
X137292857Y-80064819D02*
X137388095Y-80112438D01*
X137388095Y-80112438D02*
X137435714Y-80160057D01*
X137435714Y-80160057D02*
X137483333Y-80255295D01*
X137483333Y-80255295D02*
X137483333Y-80398152D01*
X137483333Y-80398152D02*
X137435714Y-80493390D01*
X137435714Y-80493390D02*
X137388095Y-80541009D01*
X137388095Y-80541009D02*
X137292857Y-80588628D01*
X137292857Y-80588628D02*
X136911905Y-80588628D01*
X138435714Y-81064819D02*
X137864286Y-81064819D01*
X138150000Y-81064819D02*
X138150000Y-80064819D01*
X138150000Y-80064819D02*
X138054762Y-80207676D01*
X138054762Y-80207676D02*
X137959524Y-80302914D01*
X137959524Y-80302914D02*
X137864286Y-80350533D01*
X131780057Y-87515238D02*
X131732438Y-87610476D01*
X131732438Y-87610476D02*
X131637200Y-87705714D01*
X131637200Y-87705714D02*
X131494342Y-87848571D01*
X131494342Y-87848571D02*
X131446723Y-87943809D01*
X131446723Y-87943809D02*
X131446723Y-88039047D01*
X131684819Y-87991428D02*
X131637200Y-88086666D01*
X131637200Y-88086666D02*
X131541961Y-88181904D01*
X131541961Y-88181904D02*
X131351485Y-88229523D01*
X131351485Y-88229523D02*
X131018152Y-88229523D01*
X131018152Y-88229523D02*
X130827676Y-88181904D01*
X130827676Y-88181904D02*
X130732438Y-88086666D01*
X130732438Y-88086666D02*
X130684819Y-87991428D01*
X130684819Y-87991428D02*
X130684819Y-87800952D01*
X130684819Y-87800952D02*
X130732438Y-87705714D01*
X130732438Y-87705714D02*
X130827676Y-87610476D01*
X130827676Y-87610476D02*
X131018152Y-87562857D01*
X131018152Y-87562857D02*
X131351485Y-87562857D01*
X131351485Y-87562857D02*
X131541961Y-87610476D01*
X131541961Y-87610476D02*
X131637200Y-87705714D01*
X131637200Y-87705714D02*
X131684819Y-87800952D01*
X131684819Y-87800952D02*
X131684819Y-87991428D01*
X131684819Y-86610476D02*
X131684819Y-87181904D01*
X131684819Y-86896190D02*
X130684819Y-86896190D01*
X130684819Y-86896190D02*
X130827676Y-86991428D01*
X130827676Y-86991428D02*
X130922914Y-87086666D01*
X130922914Y-87086666D02*
X130970533Y-87181904D01*
X130731905Y-113904819D02*
X130731905Y-112904819D01*
X130731905Y-112904819D02*
X130970000Y-112904819D01*
X130970000Y-112904819D02*
X131112857Y-112952438D01*
X131112857Y-112952438D02*
X131208095Y-113047676D01*
X131208095Y-113047676D02*
X131255714Y-113142914D01*
X131255714Y-113142914D02*
X131303333Y-113333390D01*
X131303333Y-113333390D02*
X131303333Y-113476247D01*
X131303333Y-113476247D02*
X131255714Y-113666723D01*
X131255714Y-113666723D02*
X131208095Y-113761961D01*
X131208095Y-113761961D02*
X131112857Y-113857200D01*
X131112857Y-113857200D02*
X130970000Y-113904819D01*
X130970000Y-113904819D02*
X130731905Y-113904819D01*
X132255714Y-113904819D02*
X131684286Y-113904819D01*
X131970000Y-113904819D02*
X131970000Y-112904819D01*
X131970000Y-112904819D02*
X131874762Y-113047676D01*
X131874762Y-113047676D02*
X131779524Y-113142914D01*
X131779524Y-113142914D02*
X131684286Y-113190533D01*
X138188095Y-113154819D02*
X138188095Y-112154819D01*
X138759523Y-113154819D02*
X138330952Y-112583390D01*
X138759523Y-112154819D02*
X138188095Y-112726247D01*
X160557142Y-93149580D02*
X160509523Y-93197200D01*
X160509523Y-93197200D02*
X160366666Y-93244819D01*
X160366666Y-93244819D02*
X160271428Y-93244819D01*
X160271428Y-93244819D02*
X160128571Y-93197200D01*
X160128571Y-93197200D02*
X160033333Y-93101961D01*
X160033333Y-93101961D02*
X159985714Y-93006723D01*
X159985714Y-93006723D02*
X159938095Y-92816247D01*
X159938095Y-92816247D02*
X159938095Y-92673390D01*
X159938095Y-92673390D02*
X159985714Y-92482914D01*
X159985714Y-92482914D02*
X160033333Y-92387676D01*
X160033333Y-92387676D02*
X160128571Y-92292438D01*
X160128571Y-92292438D02*
X160271428Y-92244819D01*
X160271428Y-92244819D02*
X160366666Y-92244819D01*
X160366666Y-92244819D02*
X160509523Y-92292438D01*
X160509523Y-92292438D02*
X160557142Y-92340057D01*
X161509523Y-93244819D02*
X160938095Y-93244819D01*
X161223809Y-93244819D02*
X161223809Y-92244819D01*
X161223809Y-92244819D02*
X161128571Y-92387676D01*
X161128571Y-92387676D02*
X161033333Y-92482914D01*
X161033333Y-92482914D02*
X160938095Y-92530533D01*
X162461904Y-93244819D02*
X161890476Y-93244819D01*
X162176190Y-93244819D02*
X162176190Y-92244819D01*
X162176190Y-92244819D02*
X162080952Y-92387676D01*
X162080952Y-92387676D02*
X161985714Y-92482914D01*
X161985714Y-92482914D02*
X161890476Y-92530533D01*
X168857142Y-101549580D02*
X168809523Y-101597200D01*
X168809523Y-101597200D02*
X168666666Y-101644819D01*
X168666666Y-101644819D02*
X168571428Y-101644819D01*
X168571428Y-101644819D02*
X168428571Y-101597200D01*
X168428571Y-101597200D02*
X168333333Y-101501961D01*
X168333333Y-101501961D02*
X168285714Y-101406723D01*
X168285714Y-101406723D02*
X168238095Y-101216247D01*
X168238095Y-101216247D02*
X168238095Y-101073390D01*
X168238095Y-101073390D02*
X168285714Y-100882914D01*
X168285714Y-100882914D02*
X168333333Y-100787676D01*
X168333333Y-100787676D02*
X168428571Y-100692438D01*
X168428571Y-100692438D02*
X168571428Y-100644819D01*
X168571428Y-100644819D02*
X168666666Y-100644819D01*
X168666666Y-100644819D02*
X168809523Y-100692438D01*
X168809523Y-100692438D02*
X168857142Y-100740057D01*
X169809523Y-101644819D02*
X169238095Y-101644819D01*
X169523809Y-101644819D02*
X169523809Y-100644819D01*
X169523809Y-100644819D02*
X169428571Y-100787676D01*
X169428571Y-100787676D02*
X169333333Y-100882914D01*
X169333333Y-100882914D02*
X169238095Y-100930533D01*
X170428571Y-100644819D02*
X170523809Y-100644819D01*
X170523809Y-100644819D02*
X170619047Y-100692438D01*
X170619047Y-100692438D02*
X170666666Y-100740057D01*
X170666666Y-100740057D02*
X170714285Y-100835295D01*
X170714285Y-100835295D02*
X170761904Y-101025771D01*
X170761904Y-101025771D02*
X170761904Y-101263866D01*
X170761904Y-101263866D02*
X170714285Y-101454342D01*
X170714285Y-101454342D02*
X170666666Y-101549580D01*
X170666666Y-101549580D02*
X170619047Y-101597200D01*
X170619047Y-101597200D02*
X170523809Y-101644819D01*
X170523809Y-101644819D02*
X170428571Y-101644819D01*
X170428571Y-101644819D02*
X170333333Y-101597200D01*
X170333333Y-101597200D02*
X170285714Y-101549580D01*
X170285714Y-101549580D02*
X170238095Y-101454342D01*
X170238095Y-101454342D02*
X170190476Y-101263866D01*
X170190476Y-101263866D02*
X170190476Y-101025771D01*
X170190476Y-101025771D02*
X170238095Y-100835295D01*
X170238095Y-100835295D02*
X170285714Y-100740057D01*
X170285714Y-100740057D02*
X170333333Y-100692438D01*
X170333333Y-100692438D02*
X170428571Y-100644819D01*
X165333333Y-86309580D02*
X165285714Y-86357200D01*
X165285714Y-86357200D02*
X165142857Y-86404819D01*
X165142857Y-86404819D02*
X165047619Y-86404819D01*
X165047619Y-86404819D02*
X164904762Y-86357200D01*
X164904762Y-86357200D02*
X164809524Y-86261961D01*
X164809524Y-86261961D02*
X164761905Y-86166723D01*
X164761905Y-86166723D02*
X164714286Y-85976247D01*
X164714286Y-85976247D02*
X164714286Y-85833390D01*
X164714286Y-85833390D02*
X164761905Y-85642914D01*
X164761905Y-85642914D02*
X164809524Y-85547676D01*
X164809524Y-85547676D02*
X164904762Y-85452438D01*
X164904762Y-85452438D02*
X165047619Y-85404819D01*
X165047619Y-85404819D02*
X165142857Y-85404819D01*
X165142857Y-85404819D02*
X165285714Y-85452438D01*
X165285714Y-85452438D02*
X165333333Y-85500057D01*
X165809524Y-86404819D02*
X166000000Y-86404819D01*
X166000000Y-86404819D02*
X166095238Y-86357200D01*
X166095238Y-86357200D02*
X166142857Y-86309580D01*
X166142857Y-86309580D02*
X166238095Y-86166723D01*
X166238095Y-86166723D02*
X166285714Y-85976247D01*
X166285714Y-85976247D02*
X166285714Y-85595295D01*
X166285714Y-85595295D02*
X166238095Y-85500057D01*
X166238095Y-85500057D02*
X166190476Y-85452438D01*
X166190476Y-85452438D02*
X166095238Y-85404819D01*
X166095238Y-85404819D02*
X165904762Y-85404819D01*
X165904762Y-85404819D02*
X165809524Y-85452438D01*
X165809524Y-85452438D02*
X165761905Y-85500057D01*
X165761905Y-85500057D02*
X165714286Y-85595295D01*
X165714286Y-85595295D02*
X165714286Y-85833390D01*
X165714286Y-85833390D02*
X165761905Y-85928628D01*
X165761905Y-85928628D02*
X165809524Y-85976247D01*
X165809524Y-85976247D02*
X165904762Y-86023866D01*
X165904762Y-86023866D02*
X166095238Y-86023866D01*
X166095238Y-86023866D02*
X166190476Y-85976247D01*
X166190476Y-85976247D02*
X166238095Y-85928628D01*
X166238095Y-85928628D02*
X166285714Y-85833390D01*
X140033333Y-101409580D02*
X139985714Y-101457200D01*
X139985714Y-101457200D02*
X139842857Y-101504819D01*
X139842857Y-101504819D02*
X139747619Y-101504819D01*
X139747619Y-101504819D02*
X139604762Y-101457200D01*
X139604762Y-101457200D02*
X139509524Y-101361961D01*
X139509524Y-101361961D02*
X139461905Y-101266723D01*
X139461905Y-101266723D02*
X139414286Y-101076247D01*
X139414286Y-101076247D02*
X139414286Y-100933390D01*
X139414286Y-100933390D02*
X139461905Y-100742914D01*
X139461905Y-100742914D02*
X139509524Y-100647676D01*
X139509524Y-100647676D02*
X139604762Y-100552438D01*
X139604762Y-100552438D02*
X139747619Y-100504819D01*
X139747619Y-100504819D02*
X139842857Y-100504819D01*
X139842857Y-100504819D02*
X139985714Y-100552438D01*
X139985714Y-100552438D02*
X140033333Y-100600057D01*
X140604762Y-100933390D02*
X140509524Y-100885771D01*
X140509524Y-100885771D02*
X140461905Y-100838152D01*
X140461905Y-100838152D02*
X140414286Y-100742914D01*
X140414286Y-100742914D02*
X140414286Y-100695295D01*
X140414286Y-100695295D02*
X140461905Y-100600057D01*
X140461905Y-100600057D02*
X140509524Y-100552438D01*
X140509524Y-100552438D02*
X140604762Y-100504819D01*
X140604762Y-100504819D02*
X140795238Y-100504819D01*
X140795238Y-100504819D02*
X140890476Y-100552438D01*
X140890476Y-100552438D02*
X140938095Y-100600057D01*
X140938095Y-100600057D02*
X140985714Y-100695295D01*
X140985714Y-100695295D02*
X140985714Y-100742914D01*
X140985714Y-100742914D02*
X140938095Y-100838152D01*
X140938095Y-100838152D02*
X140890476Y-100885771D01*
X140890476Y-100885771D02*
X140795238Y-100933390D01*
X140795238Y-100933390D02*
X140604762Y-100933390D01*
X140604762Y-100933390D02*
X140509524Y-100981009D01*
X140509524Y-100981009D02*
X140461905Y-101028628D01*
X140461905Y-101028628D02*
X140414286Y-101123866D01*
X140414286Y-101123866D02*
X140414286Y-101314342D01*
X140414286Y-101314342D02*
X140461905Y-101409580D01*
X140461905Y-101409580D02*
X140509524Y-101457200D01*
X140509524Y-101457200D02*
X140604762Y-101504819D01*
X140604762Y-101504819D02*
X140795238Y-101504819D01*
X140795238Y-101504819D02*
X140890476Y-101457200D01*
X140890476Y-101457200D02*
X140938095Y-101409580D01*
X140938095Y-101409580D02*
X140985714Y-101314342D01*
X140985714Y-101314342D02*
X140985714Y-101123866D01*
X140985714Y-101123866D02*
X140938095Y-101028628D01*
X140938095Y-101028628D02*
X140890476Y-100981009D01*
X140890476Y-100981009D02*
X140795238Y-100933390D01*
X139528558Y-108059580D02*
X139480939Y-108107200D01*
X139480939Y-108107200D02*
X139338082Y-108154819D01*
X139338082Y-108154819D02*
X139242844Y-108154819D01*
X139242844Y-108154819D02*
X139099987Y-108107200D01*
X139099987Y-108107200D02*
X139004749Y-108011961D01*
X139004749Y-108011961D02*
X138957130Y-107916723D01*
X138957130Y-107916723D02*
X138909511Y-107726247D01*
X138909511Y-107726247D02*
X138909511Y-107583390D01*
X138909511Y-107583390D02*
X138957130Y-107392914D01*
X138957130Y-107392914D02*
X139004749Y-107297676D01*
X139004749Y-107297676D02*
X139099987Y-107202438D01*
X139099987Y-107202438D02*
X139242844Y-107154819D01*
X139242844Y-107154819D02*
X139338082Y-107154819D01*
X139338082Y-107154819D02*
X139480939Y-107202438D01*
X139480939Y-107202438D02*
X139528558Y-107250057D01*
X139861892Y-107154819D02*
X140528558Y-107154819D01*
X140528558Y-107154819D02*
X140099987Y-108154819D01*
X149448333Y-103099580D02*
X149400714Y-103147200D01*
X149400714Y-103147200D02*
X149257857Y-103194819D01*
X149257857Y-103194819D02*
X149162619Y-103194819D01*
X149162619Y-103194819D02*
X149019762Y-103147200D01*
X149019762Y-103147200D02*
X148924524Y-103051961D01*
X148924524Y-103051961D02*
X148876905Y-102956723D01*
X148876905Y-102956723D02*
X148829286Y-102766247D01*
X148829286Y-102766247D02*
X148829286Y-102623390D01*
X148829286Y-102623390D02*
X148876905Y-102432914D01*
X148876905Y-102432914D02*
X148924524Y-102337676D01*
X148924524Y-102337676D02*
X149019762Y-102242438D01*
X149019762Y-102242438D02*
X149162619Y-102194819D01*
X149162619Y-102194819D02*
X149257857Y-102194819D01*
X149257857Y-102194819D02*
X149400714Y-102242438D01*
X149400714Y-102242438D02*
X149448333Y-102290057D01*
X150305476Y-102194819D02*
X150115000Y-102194819D01*
X150115000Y-102194819D02*
X150019762Y-102242438D01*
X150019762Y-102242438D02*
X149972143Y-102290057D01*
X149972143Y-102290057D02*
X149876905Y-102432914D01*
X149876905Y-102432914D02*
X149829286Y-102623390D01*
X149829286Y-102623390D02*
X149829286Y-103004342D01*
X149829286Y-103004342D02*
X149876905Y-103099580D01*
X149876905Y-103099580D02*
X149924524Y-103147200D01*
X149924524Y-103147200D02*
X150019762Y-103194819D01*
X150019762Y-103194819D02*
X150210238Y-103194819D01*
X150210238Y-103194819D02*
X150305476Y-103147200D01*
X150305476Y-103147200D02*
X150353095Y-103099580D01*
X150353095Y-103099580D02*
X150400714Y-103004342D01*
X150400714Y-103004342D02*
X150400714Y-102766247D01*
X150400714Y-102766247D02*
X150353095Y-102671009D01*
X150353095Y-102671009D02*
X150305476Y-102623390D01*
X150305476Y-102623390D02*
X150210238Y-102575771D01*
X150210238Y-102575771D02*
X150019762Y-102575771D01*
X150019762Y-102575771D02*
X149924524Y-102623390D01*
X149924524Y-102623390D02*
X149876905Y-102671009D01*
X149876905Y-102671009D02*
X149829286Y-102766247D01*
X148783333Y-79809580D02*
X148735714Y-79857200D01*
X148735714Y-79857200D02*
X148592857Y-79904819D01*
X148592857Y-79904819D02*
X148497619Y-79904819D01*
X148497619Y-79904819D02*
X148354762Y-79857200D01*
X148354762Y-79857200D02*
X148259524Y-79761961D01*
X148259524Y-79761961D02*
X148211905Y-79666723D01*
X148211905Y-79666723D02*
X148164286Y-79476247D01*
X148164286Y-79476247D02*
X148164286Y-79333390D01*
X148164286Y-79333390D02*
X148211905Y-79142914D01*
X148211905Y-79142914D02*
X148259524Y-79047676D01*
X148259524Y-79047676D02*
X148354762Y-78952438D01*
X148354762Y-78952438D02*
X148497619Y-78904819D01*
X148497619Y-78904819D02*
X148592857Y-78904819D01*
X148592857Y-78904819D02*
X148735714Y-78952438D01*
X148735714Y-78952438D02*
X148783333Y-79000057D01*
X149688095Y-78904819D02*
X149211905Y-78904819D01*
X149211905Y-78904819D02*
X149164286Y-79381009D01*
X149164286Y-79381009D02*
X149211905Y-79333390D01*
X149211905Y-79333390D02*
X149307143Y-79285771D01*
X149307143Y-79285771D02*
X149545238Y-79285771D01*
X149545238Y-79285771D02*
X149640476Y-79333390D01*
X149640476Y-79333390D02*
X149688095Y-79381009D01*
X149688095Y-79381009D02*
X149735714Y-79476247D01*
X149735714Y-79476247D02*
X149735714Y-79714342D01*
X149735714Y-79714342D02*
X149688095Y-79809580D01*
X149688095Y-79809580D02*
X149640476Y-79857200D01*
X149640476Y-79857200D02*
X149545238Y-79904819D01*
X149545238Y-79904819D02*
X149307143Y-79904819D01*
X149307143Y-79904819D02*
X149211905Y-79857200D01*
X149211905Y-79857200D02*
X149164286Y-79809580D01*
X120183333Y-97819580D02*
X120135714Y-97867200D01*
X120135714Y-97867200D02*
X119992857Y-97914819D01*
X119992857Y-97914819D02*
X119897619Y-97914819D01*
X119897619Y-97914819D02*
X119754762Y-97867200D01*
X119754762Y-97867200D02*
X119659524Y-97771961D01*
X119659524Y-97771961D02*
X119611905Y-97676723D01*
X119611905Y-97676723D02*
X119564286Y-97486247D01*
X119564286Y-97486247D02*
X119564286Y-97343390D01*
X119564286Y-97343390D02*
X119611905Y-97152914D01*
X119611905Y-97152914D02*
X119659524Y-97057676D01*
X119659524Y-97057676D02*
X119754762Y-96962438D01*
X119754762Y-96962438D02*
X119897619Y-96914819D01*
X119897619Y-96914819D02*
X119992857Y-96914819D01*
X119992857Y-96914819D02*
X120135714Y-96962438D01*
X120135714Y-96962438D02*
X120183333Y-97010057D01*
X121040476Y-97248152D02*
X121040476Y-97914819D01*
X120802381Y-96867200D02*
X120564286Y-97581485D01*
X120564286Y-97581485D02*
X121183333Y-97581485D01*
X141799580Y-88066666D02*
X141847200Y-88114285D01*
X141847200Y-88114285D02*
X141894819Y-88257142D01*
X141894819Y-88257142D02*
X141894819Y-88352380D01*
X141894819Y-88352380D02*
X141847200Y-88495237D01*
X141847200Y-88495237D02*
X141751961Y-88590475D01*
X141751961Y-88590475D02*
X141656723Y-88638094D01*
X141656723Y-88638094D02*
X141466247Y-88685713D01*
X141466247Y-88685713D02*
X141323390Y-88685713D01*
X141323390Y-88685713D02*
X141132914Y-88638094D01*
X141132914Y-88638094D02*
X141037676Y-88590475D01*
X141037676Y-88590475D02*
X140942438Y-88495237D01*
X140942438Y-88495237D02*
X140894819Y-88352380D01*
X140894819Y-88352380D02*
X140894819Y-88257142D01*
X140894819Y-88257142D02*
X140942438Y-88114285D01*
X140942438Y-88114285D02*
X140990057Y-88066666D01*
X140894819Y-87733332D02*
X140894819Y-87114285D01*
X140894819Y-87114285D02*
X141275771Y-87447618D01*
X141275771Y-87447618D02*
X141275771Y-87304761D01*
X141275771Y-87304761D02*
X141323390Y-87209523D01*
X141323390Y-87209523D02*
X141371009Y-87161904D01*
X141371009Y-87161904D02*
X141466247Y-87114285D01*
X141466247Y-87114285D02*
X141704342Y-87114285D01*
X141704342Y-87114285D02*
X141799580Y-87161904D01*
X141799580Y-87161904D02*
X141847200Y-87209523D01*
X141847200Y-87209523D02*
X141894819Y-87304761D01*
X141894819Y-87304761D02*
X141894819Y-87590475D01*
X141894819Y-87590475D02*
X141847200Y-87685713D01*
X141847200Y-87685713D02*
X141799580Y-87733332D01*
X128599580Y-80066666D02*
X128647200Y-80114285D01*
X128647200Y-80114285D02*
X128694819Y-80257142D01*
X128694819Y-80257142D02*
X128694819Y-80352380D01*
X128694819Y-80352380D02*
X128647200Y-80495237D01*
X128647200Y-80495237D02*
X128551961Y-80590475D01*
X128551961Y-80590475D02*
X128456723Y-80638094D01*
X128456723Y-80638094D02*
X128266247Y-80685713D01*
X128266247Y-80685713D02*
X128123390Y-80685713D01*
X128123390Y-80685713D02*
X127932914Y-80638094D01*
X127932914Y-80638094D02*
X127837676Y-80590475D01*
X127837676Y-80590475D02*
X127742438Y-80495237D01*
X127742438Y-80495237D02*
X127694819Y-80352380D01*
X127694819Y-80352380D02*
X127694819Y-80257142D01*
X127694819Y-80257142D02*
X127742438Y-80114285D01*
X127742438Y-80114285D02*
X127790057Y-80066666D01*
X127790057Y-79685713D02*
X127742438Y-79638094D01*
X127742438Y-79638094D02*
X127694819Y-79542856D01*
X127694819Y-79542856D02*
X127694819Y-79304761D01*
X127694819Y-79304761D02*
X127742438Y-79209523D01*
X127742438Y-79209523D02*
X127790057Y-79161904D01*
X127790057Y-79161904D02*
X127885295Y-79114285D01*
X127885295Y-79114285D02*
X127980533Y-79114285D01*
X127980533Y-79114285D02*
X128123390Y-79161904D01*
X128123390Y-79161904D02*
X128694819Y-79733332D01*
X128694819Y-79733332D02*
X128694819Y-79114285D01*
X125099580Y-79966666D02*
X125147200Y-80014285D01*
X125147200Y-80014285D02*
X125194819Y-80157142D01*
X125194819Y-80157142D02*
X125194819Y-80252380D01*
X125194819Y-80252380D02*
X125147200Y-80395237D01*
X125147200Y-80395237D02*
X125051961Y-80490475D01*
X125051961Y-80490475D02*
X124956723Y-80538094D01*
X124956723Y-80538094D02*
X124766247Y-80585713D01*
X124766247Y-80585713D02*
X124623390Y-80585713D01*
X124623390Y-80585713D02*
X124432914Y-80538094D01*
X124432914Y-80538094D02*
X124337676Y-80490475D01*
X124337676Y-80490475D02*
X124242438Y-80395237D01*
X124242438Y-80395237D02*
X124194819Y-80252380D01*
X124194819Y-80252380D02*
X124194819Y-80157142D01*
X124194819Y-80157142D02*
X124242438Y-80014285D01*
X124242438Y-80014285D02*
X124290057Y-79966666D01*
X125194819Y-79014285D02*
X125194819Y-79585713D01*
X125194819Y-79299999D02*
X124194819Y-79299999D01*
X124194819Y-79299999D02*
X124337676Y-79395237D01*
X124337676Y-79395237D02*
X124432914Y-79490475D01*
X124432914Y-79490475D02*
X124480533Y-79585713D01*
D13*
%TO.C,R10*%
X160150000Y-101740000D02*
X160150000Y-102510000D01*
X161520000Y-102510000D02*
X158780000Y-102510000D01*
X158780000Y-102510000D02*
X158780000Y-109050000D01*
X161520000Y-109050000D02*
X161520000Y-102510000D01*
X158780000Y-109050000D02*
X161520000Y-109050000D01*
X160150000Y-109820000D02*
X160150000Y-109050000D01*
%TO.C,R7*%
X156600000Y-109820000D02*
X156600000Y-109050000D01*
X155230000Y-109050000D02*
X157970000Y-109050000D01*
X157970000Y-109050000D02*
X157970000Y-102510000D01*
X155230000Y-102510000D02*
X155230000Y-109050000D01*
X157970000Y-102510000D02*
X155230000Y-102510000D01*
X156600000Y-101740000D02*
X156600000Y-102510000D01*
%TO.C,U2*%
X166940000Y-103920000D02*
X166940000Y-114200000D01*
X166940000Y-114200000D02*
X172240000Y-114200000D01*
X168590000Y-103920000D02*
X166940000Y-103920000D01*
X172240000Y-103920000D02*
X170590000Y-103920000D01*
X172240000Y-114200000D02*
X172240000Y-103920000D01*
X170590000Y-103920000D02*
G75*
G02*
X168590000Y-103920000I-1000000J0D01*
G01*
%TO.C,U1*%
X146770000Y-83760000D02*
X146770000Y-94040000D01*
X146770000Y-94040000D02*
X152070000Y-94040000D01*
X148420000Y-83760000D02*
X146770000Y-83760000D01*
X152070000Y-83760000D02*
X150420000Y-83760000D01*
X152070000Y-94040000D02*
X152070000Y-83760000D01*
X150420000Y-83760000D02*
G75*
G02*
X148420000Y-83760000I-1000000J0D01*
G01*
D12*
%TO.C,SW1*%
X129400000Y-84500000D02*
X126900000Y-84500000D01*
X130400000Y-85500000D02*
X130400000Y-88550000D01*
X125900000Y-85500000D02*
X125900000Y-88550000D01*
X130900000Y-89050000D02*
X130900000Y-99550000D01*
X125400000Y-89050000D02*
X125400000Y-99550000D01*
X129750000Y-89300000D02*
X129750000Y-99300000D01*
X126550000Y-89300000D02*
X129750000Y-89300000D01*
X126550000Y-89300000D02*
X126550000Y-99300000D01*
X126550000Y-99300000D02*
X129750000Y-99300000D01*
X130400000Y-100050000D02*
X130400000Y-103100000D01*
X125900000Y-100050000D02*
X125900000Y-103100000D01*
X129400000Y-104100000D02*
X126900000Y-104100000D01*
X129400000Y-84500000D02*
G75*
G02*
X130400000Y-85500000I1J-999999D01*
G01*
X125900000Y-85500000D02*
G75*
G02*
X126900000Y-84500000I999999J1D01*
G01*
X130400000Y-88550000D02*
G75*
G02*
X130900000Y-89050000I-1J-500001D01*
G01*
X125400000Y-89050000D02*
G75*
G02*
X125900000Y-88550000I500001J-1D01*
G01*
X130900000Y-99550000D02*
G75*
G02*
X130400000Y-100050000I-500000J0D01*
G01*
X125900000Y-100050000D02*
G75*
G02*
X125400000Y-99550000I0J500000D01*
G01*
X130400000Y-103100000D02*
G75*
G02*
X129400000Y-104100000I-1000000J0D01*
G01*
X126900000Y-104100000D02*
G75*
G02*
X125900000Y-103100000I0J1000000D01*
G01*
X129250000Y-86800000D02*
G75*
G02*
X127050000Y-86800000I-1100000J0D01*
G01*
X127050000Y-86800000D02*
G75*
G02*
X129250000Y-86800000I1100000J0D01*
G01*
X129250000Y-101800000D02*
G75*
G02*
X127050000Y-101800000I-1100000J0D01*
G01*
X127050000Y-101800000D02*
G75*
G02*
X129250000Y-101800000I1100000J0D01*
G01*
D13*
%TO.C,R14*%
X157800000Y-88440000D02*
X157800000Y-87670000D01*
X156430000Y-87670000D02*
X159170000Y-87670000D01*
X159170000Y-87670000D02*
X159170000Y-81130000D01*
X156430000Y-81130000D02*
X156430000Y-87670000D01*
X159170000Y-81130000D02*
X156430000Y-81130000D01*
X157800000Y-80360000D02*
X157800000Y-81130000D01*
%TO.C,R13*%
X183600000Y-95220000D02*
X183600000Y-94450000D01*
X182230000Y-94450000D02*
X184970000Y-94450000D01*
X184970000Y-94450000D02*
X184970000Y-87910000D01*
X182230000Y-87910000D02*
X182230000Y-94450000D01*
X184970000Y-87910000D02*
X182230000Y-87910000D01*
X183600000Y-87140000D02*
X183600000Y-87910000D01*
%TO.C,R12*%
X169360000Y-97050000D02*
X168590000Y-97050000D01*
X168590000Y-98420000D02*
X168590000Y-95680000D01*
X168590000Y-95680000D02*
X162050000Y-95680000D01*
X162050000Y-98420000D02*
X168590000Y-98420000D01*
X162050000Y-95680000D02*
X162050000Y-98420000D01*
X161280000Y-97050000D02*
X162050000Y-97050000D01*
%TO.C,R11*%
X179875000Y-95220000D02*
X179875000Y-94450000D01*
X178505000Y-94450000D02*
X181245000Y-94450000D01*
X181245000Y-94450000D02*
X181245000Y-87910000D01*
X178505000Y-87910000D02*
X178505000Y-94450000D01*
X181245000Y-87910000D02*
X178505000Y-87910000D01*
X179875000Y-87140000D02*
X179875000Y-87910000D01*
%TO.C,R9*%
X135510000Y-106500000D02*
X134740000Y-106500000D01*
X134740000Y-107870000D02*
X134740000Y-105130000D01*
X134740000Y-105130000D02*
X128200000Y-105130000D01*
X128200000Y-107870000D02*
X134740000Y-107870000D01*
X128200000Y-105130000D02*
X128200000Y-107870000D01*
X127430000Y-106500000D02*
X128200000Y-106500000D01*
%TO.C,R8*%
X135510000Y-109950000D02*
X134740000Y-109950000D01*
X134740000Y-111320000D02*
X134740000Y-108580000D01*
X134740000Y-108580000D02*
X128200000Y-108580000D01*
X128200000Y-111320000D02*
X134740000Y-111320000D01*
X128200000Y-108580000D02*
X128200000Y-111320000D01*
X127430000Y-109950000D02*
X128200000Y-109950000D01*
%TO.C,R6*%
X151790000Y-97050000D02*
X151020000Y-97050000D01*
X151020000Y-98420000D02*
X151020000Y-95680000D01*
X151020000Y-95680000D02*
X144480000Y-95680000D01*
X144480000Y-98420000D02*
X151020000Y-98420000D01*
X144480000Y-95680000D02*
X144480000Y-98420000D01*
X143710000Y-97050000D02*
X144480000Y-97050000D01*
%TO.C,R5*%
X176150000Y-87140000D02*
X176150000Y-87910000D01*
X177520000Y-87910000D02*
X174780000Y-87910000D01*
X174780000Y-87910000D02*
X174780000Y-94450000D01*
X177520000Y-94450000D02*
X177520000Y-87910000D01*
X174780000Y-94450000D02*
X177520000Y-94450000D01*
X176150000Y-95220000D02*
X176150000Y-94450000D01*
%TO.C,R4*%
X137150000Y-93260000D02*
X137150000Y-94030000D01*
X138520000Y-94030000D02*
X135780000Y-94030000D01*
X135780000Y-94030000D02*
X135780000Y-100570000D01*
X138520000Y-100570000D02*
X138520000Y-94030000D01*
X135780000Y-100570000D02*
X138520000Y-100570000D01*
X137150000Y-101340000D02*
X137150000Y-100570000D01*
%TO.C,R3*%
X133650000Y-93260000D02*
X133650000Y-94030000D01*
X135020000Y-94030000D02*
X132280000Y-94030000D01*
X132280000Y-94030000D02*
X132280000Y-100570000D01*
X135020000Y-100570000D02*
X135020000Y-94030000D01*
X132280000Y-100570000D02*
X135020000Y-100570000D01*
X133650000Y-101340000D02*
X133650000Y-100570000D01*
%TO.C,R2*%
X141690000Y-77400000D02*
X140920000Y-77400000D01*
X140920000Y-78770000D02*
X140920000Y-76030000D01*
X140920000Y-76030000D02*
X134380000Y-76030000D01*
X134380000Y-78770000D02*
X140920000Y-78770000D01*
X134380000Y-76030000D02*
X134380000Y-78770000D01*
X133610000Y-77400000D02*
X134380000Y-77400000D01*
%TO.C,R1*%
X133610000Y-80600000D02*
X134380000Y-80600000D01*
X134380000Y-79230000D02*
X134380000Y-81970000D01*
X134380000Y-81970000D02*
X140920000Y-81970000D01*
X140920000Y-79230000D02*
X134380000Y-79230000D01*
X140920000Y-81970000D02*
X140920000Y-79230000D01*
X141690000Y-80600000D02*
X140920000Y-80600000D01*
%TO.C,Q1*%
X136950000Y-89020000D02*
X136950000Y-85420000D01*
X136941741Y-89031875D02*
G75*
G02*
X132650000Y-88040000I-1841741J1811875D01*
G01*
X132650000Y-86440000D02*
G75*
G02*
X136927684Y-85411555I2450000J-780000D01*
G01*
%TO.C,J6*%
X184100000Y-98830000D02*
X180100000Y-98830000D01*
X185130000Y-99120000D02*
X179110000Y-99120000D01*
X179110000Y-99120000D02*
X179110000Y-106960000D01*
X185130000Y-99700000D02*
X184530000Y-99700000D01*
X184530000Y-99700000D02*
X184530000Y-101300000D01*
X180110000Y-100500000D02*
X180640000Y-100750000D01*
X180110000Y-100500000D02*
X180110000Y-105580000D01*
X179110000Y-100500000D02*
X180110000Y-100500000D01*
X180640000Y-100750000D02*
X180640000Y-105330000D01*
X179110000Y-100750000D02*
X180110000Y-100750000D01*
X184530000Y-101300000D02*
X185130000Y-101300000D01*
X185130000Y-102240000D02*
X184530000Y-102240000D01*
X184530000Y-102240000D02*
X184530000Y-103840000D01*
X184530000Y-103840000D02*
X185130000Y-103840000D01*
X185130000Y-104780000D02*
X184530000Y-104780000D01*
X184530000Y-104780000D02*
X184530000Y-106380000D01*
X180640000Y-105330000D02*
X180110000Y-105580000D01*
X179110000Y-105330000D02*
X180110000Y-105330000D01*
X180110000Y-105580000D02*
X179110000Y-105580000D01*
X184530000Y-106380000D02*
X185130000Y-106380000D01*
X185130000Y-106960000D02*
X185130000Y-99120000D01*
X179110000Y-106960000D02*
X185130000Y-106960000D01*
%TO.C,J5*%
X172540000Y-77950000D02*
X172540000Y-81950000D01*
X172830000Y-76920000D02*
X172830000Y-82940000D01*
X172830000Y-82940000D02*
X178130000Y-82940000D01*
X173410000Y-76920000D02*
X173410000Y-77520000D01*
X173410000Y-77520000D02*
X175010000Y-77520000D01*
X174210000Y-81940000D02*
X174460000Y-81410000D01*
X174210000Y-81940000D02*
X176750000Y-81940000D01*
X174210000Y-82940000D02*
X174210000Y-81940000D01*
X174460000Y-81410000D02*
X176500000Y-81410000D01*
X174460000Y-82940000D02*
X174460000Y-81940000D01*
X175010000Y-77520000D02*
X175010000Y-76920000D01*
X175950000Y-76920000D02*
X175950000Y-77520000D01*
X175950000Y-77520000D02*
X177550000Y-77520000D01*
X176500000Y-81410000D02*
X176750000Y-81940000D01*
X176500000Y-82940000D02*
X176500000Y-81940000D01*
X176750000Y-81940000D02*
X176750000Y-82940000D01*
X177550000Y-77520000D02*
X177550000Y-76920000D01*
X178130000Y-76920000D02*
X172830000Y-76920000D01*
X178130000Y-82940000D02*
X178130000Y-76920000D01*
%TO.C,J4*%
X118550000Y-107460000D02*
X122550000Y-107460000D01*
X117520000Y-107170000D02*
X123540000Y-107170000D01*
X123540000Y-107170000D02*
X123540000Y-101870000D01*
X117520000Y-106590000D02*
X118120000Y-106590000D01*
X118120000Y-106590000D02*
X118120000Y-104990000D01*
X122540000Y-105790000D02*
X122010000Y-105540000D01*
X122540000Y-105790000D02*
X122540000Y-103250000D01*
X123540000Y-105790000D02*
X122540000Y-105790000D01*
X122010000Y-105540000D02*
X122010000Y-103500000D01*
X123540000Y-105540000D02*
X122540000Y-105540000D01*
X118120000Y-104990000D02*
X117520000Y-104990000D01*
X117520000Y-104050000D02*
X118120000Y-104050000D01*
X118120000Y-104050000D02*
X118120000Y-102450000D01*
X122010000Y-103500000D02*
X122540000Y-103250000D01*
X123540000Y-103500000D02*
X122540000Y-103500000D01*
X122540000Y-103250000D02*
X123540000Y-103250000D01*
X118120000Y-102450000D02*
X117520000Y-102450000D01*
X117520000Y-101870000D02*
X117520000Y-107170000D01*
X123540000Y-101870000D02*
X117520000Y-101870000D01*
%TO.C,J3*%
X153770000Y-112700000D02*
X153770000Y-108700000D01*
X153480000Y-113730000D02*
X153480000Y-107710000D01*
X153480000Y-107710000D02*
X145640000Y-107710000D01*
X152900000Y-113730000D02*
X152900000Y-113130000D01*
X152900000Y-113130000D02*
X151300000Y-113130000D01*
X152100000Y-108710000D02*
X151850000Y-109240000D01*
X152100000Y-108710000D02*
X147020000Y-108710000D01*
X152100000Y-107710000D02*
X152100000Y-108710000D01*
X151850000Y-109240000D02*
X147270000Y-109240000D01*
X151850000Y-107710000D02*
X151850000Y-108710000D01*
X151300000Y-113130000D02*
X151300000Y-113730000D01*
X150360000Y-113730000D02*
X150360000Y-113130000D01*
X150360000Y-113130000D02*
X148760000Y-113130000D01*
X148760000Y-113130000D02*
X148760000Y-113730000D01*
X147820000Y-113730000D02*
X147820000Y-113130000D01*
X147820000Y-113130000D02*
X146220000Y-113130000D01*
X147270000Y-109240000D02*
X147020000Y-108710000D01*
X147270000Y-107710000D02*
X147270000Y-108710000D01*
X147020000Y-108710000D02*
X147020000Y-107710000D01*
X146220000Y-113130000D02*
X146220000Y-113730000D01*
X145640000Y-113730000D02*
X153480000Y-113730000D01*
X145640000Y-107710000D02*
X145640000Y-113730000D01*
%TO.C,J2*%
X160750000Y-77950000D02*
X160750000Y-81950000D01*
X161040000Y-76920000D02*
X161040000Y-82940000D01*
X161040000Y-82940000D02*
X168880000Y-82940000D01*
X161620000Y-76920000D02*
X161620000Y-77520000D01*
X161620000Y-77520000D02*
X163220000Y-77520000D01*
X162420000Y-81940000D02*
X162670000Y-81410000D01*
X162420000Y-81940000D02*
X167500000Y-81940000D01*
X162420000Y-82940000D02*
X162420000Y-81940000D01*
X162670000Y-81410000D02*
X167250000Y-81410000D01*
X162670000Y-82940000D02*
X162670000Y-81940000D01*
X163220000Y-77520000D02*
X163220000Y-76920000D01*
X164160000Y-76920000D02*
X164160000Y-77520000D01*
X164160000Y-77520000D02*
X165760000Y-77520000D01*
X165760000Y-77520000D02*
X165760000Y-76920000D01*
X166700000Y-76920000D02*
X166700000Y-77520000D01*
X166700000Y-77520000D02*
X168300000Y-77520000D01*
X167250000Y-81410000D02*
X167500000Y-81940000D01*
X167250000Y-82940000D02*
X167250000Y-81940000D01*
X167500000Y-81940000D02*
X167500000Y-82940000D01*
X168300000Y-77520000D02*
X168300000Y-76920000D01*
X168880000Y-76920000D02*
X161040000Y-76920000D01*
X168880000Y-82940000D02*
X168880000Y-76920000D01*
%TO.C,J1*%
X118550000Y-94250000D02*
X122550000Y-94250000D01*
X117520000Y-93960000D02*
X123540000Y-93960000D01*
X123540000Y-93960000D02*
X123540000Y-86120000D01*
X117520000Y-93380000D02*
X118120000Y-93380000D01*
X118120000Y-93380000D02*
X118120000Y-91780000D01*
X122540000Y-92580000D02*
X122010000Y-92330000D01*
X122540000Y-92580000D02*
X122540000Y-87500000D01*
X123540000Y-92580000D02*
X122540000Y-92580000D01*
X122010000Y-92330000D02*
X122010000Y-87750000D01*
X123540000Y-92330000D02*
X122540000Y-92330000D01*
X118120000Y-91780000D02*
X117520000Y-91780000D01*
X117520000Y-90840000D02*
X118120000Y-90840000D01*
X118120000Y-90840000D02*
X118120000Y-89240000D01*
X118120000Y-89240000D02*
X117520000Y-89240000D01*
X117520000Y-88300000D02*
X118120000Y-88300000D01*
X118120000Y-88300000D02*
X118120000Y-86700000D01*
X122010000Y-87750000D02*
X122540000Y-87500000D01*
X123540000Y-87750000D02*
X122540000Y-87750000D01*
X122540000Y-87500000D02*
X123540000Y-87500000D01*
X118120000Y-86700000D02*
X117520000Y-86700000D01*
X117520000Y-86120000D02*
X117520000Y-93960000D01*
X123540000Y-86120000D02*
X117520000Y-86120000D01*
%TO.C,D1*%
X135210000Y-113450000D02*
X134190000Y-113450000D01*
X134190000Y-114920000D02*
X134190000Y-111980000D01*
X134190000Y-111980000D02*
X128750000Y-111980000D01*
X133410000Y-114920000D02*
X133410000Y-111980000D01*
X133290000Y-114920000D02*
X133290000Y-111980000D01*
X133170000Y-114920000D02*
X133170000Y-111980000D01*
X128750000Y-114920000D02*
X134190000Y-114920000D01*
X128750000Y-111980000D02*
X128750000Y-114920000D01*
X127730000Y-113450000D02*
X128750000Y-113450000D01*
%TO.C,C11*%
X164920000Y-94170000D02*
X164920000Y-91430000D01*
X164920000Y-94170000D02*
X157480000Y-94170000D01*
X164920000Y-91430000D02*
X157480000Y-91430000D01*
X157480000Y-94170000D02*
X157480000Y-91430000D01*
%TO.C,C10*%
X171770000Y-102220000D02*
X171770000Y-102205000D01*
X171770000Y-102220000D02*
X167230000Y-102220000D01*
X171770000Y-100095000D02*
X171770000Y-100080000D01*
X171770000Y-100080000D02*
X167230000Y-100080000D01*
X167230000Y-102220000D02*
X167230000Y-102205000D01*
X167230000Y-100095000D02*
X167230000Y-100080000D01*
%TO.C,C9*%
X165895225Y-87375000D02*
X166395225Y-87375000D01*
X166145225Y-87125000D02*
X166145225Y-87625000D01*
X168700000Y-86270000D02*
X168700000Y-87810000D01*
X168700000Y-89890000D02*
X168700000Y-91430000D01*
X168740000Y-86270000D02*
X168740000Y-87810000D01*
X168740000Y-89890000D02*
X168740000Y-91430000D01*
X168780000Y-86271000D02*
X168780000Y-87810000D01*
X168780000Y-89890000D02*
X168780000Y-91429000D01*
X168820000Y-86272000D02*
X168820000Y-87810000D01*
X168820000Y-89890000D02*
X168820000Y-91428000D01*
X168860000Y-86274000D02*
X168860000Y-87810000D01*
X168860000Y-89890000D02*
X168860000Y-91426000D01*
X168900000Y-86277000D02*
X168900000Y-87810000D01*
X168900000Y-89890000D02*
X168900000Y-91423000D01*
X168940000Y-86281000D02*
X168940000Y-87810000D01*
X168940000Y-89890000D02*
X168940000Y-91419000D01*
X168980000Y-86285000D02*
X168980000Y-87810000D01*
X168980000Y-89890000D02*
X168980000Y-91415000D01*
X169020000Y-86289000D02*
X169020000Y-87810000D01*
X169020000Y-89890000D02*
X169020000Y-91411000D01*
X169060000Y-86294000D02*
X169060000Y-87810000D01*
X169060000Y-89890000D02*
X169060000Y-91406000D01*
X169100000Y-86300000D02*
X169100000Y-87810000D01*
X169100000Y-89890000D02*
X169100000Y-91400000D01*
X169140000Y-86307000D02*
X169140000Y-87810000D01*
X169140000Y-89890000D02*
X169140000Y-91393000D01*
X169180000Y-86314000D02*
X169180000Y-87810000D01*
X169180000Y-89890000D02*
X169180000Y-91386000D01*
X169220000Y-86322000D02*
X169220000Y-87810000D01*
X169220000Y-89890000D02*
X169220000Y-91378000D01*
X169260000Y-86330000D02*
X169260000Y-87810000D01*
X169260000Y-89890000D02*
X169260000Y-91370000D01*
X169300000Y-86339000D02*
X169300000Y-87810000D01*
X169300000Y-89890000D02*
X169300000Y-91361000D01*
X169340000Y-86349000D02*
X169340000Y-87810000D01*
X169340000Y-89890000D02*
X169340000Y-91351000D01*
X169380000Y-86359000D02*
X169380000Y-87810000D01*
X169380000Y-89890000D02*
X169380000Y-91341000D01*
X169421000Y-86370000D02*
X169421000Y-87810000D01*
X169421000Y-89890000D02*
X169421000Y-91330000D01*
X169461000Y-86382000D02*
X169461000Y-87810000D01*
X169461000Y-89890000D02*
X169461000Y-91318000D01*
X169501000Y-86395000D02*
X169501000Y-87810000D01*
X169501000Y-89890000D02*
X169501000Y-91305000D01*
X169541000Y-86408000D02*
X169541000Y-87810000D01*
X169541000Y-89890000D02*
X169541000Y-91292000D01*
X169581000Y-86422000D02*
X169581000Y-87810000D01*
X169581000Y-89890000D02*
X169581000Y-91278000D01*
X169621000Y-86436000D02*
X169621000Y-87810000D01*
X169621000Y-89890000D02*
X169621000Y-91264000D01*
X169661000Y-86452000D02*
X169661000Y-87810000D01*
X169661000Y-89890000D02*
X169661000Y-91248000D01*
X169701000Y-86468000D02*
X169701000Y-87810000D01*
X169701000Y-89890000D02*
X169701000Y-91232000D01*
X169741000Y-86485000D02*
X169741000Y-87810000D01*
X169741000Y-89890000D02*
X169741000Y-91215000D01*
X169781000Y-86502000D02*
X169781000Y-87810000D01*
X169781000Y-89890000D02*
X169781000Y-91198000D01*
X169821000Y-86521000D02*
X169821000Y-87810000D01*
X169821000Y-89890000D02*
X169821000Y-91179000D01*
X169861000Y-86540000D02*
X169861000Y-87810000D01*
X169861000Y-89890000D02*
X169861000Y-91160000D01*
X169901000Y-86560000D02*
X169901000Y-87810000D01*
X169901000Y-89890000D02*
X169901000Y-91140000D01*
X169941000Y-86582000D02*
X169941000Y-87810000D01*
X169941000Y-89890000D02*
X169941000Y-91118000D01*
X169981000Y-86603000D02*
X169981000Y-87810000D01*
X169981000Y-89890000D02*
X169981000Y-91097000D01*
X170021000Y-86626000D02*
X170021000Y-87810000D01*
X170021000Y-89890000D02*
X170021000Y-91074000D01*
X170061000Y-86650000D02*
X170061000Y-87810000D01*
X170061000Y-89890000D02*
X170061000Y-91050000D01*
X170101000Y-86675000D02*
X170101000Y-87810000D01*
X170101000Y-89890000D02*
X170101000Y-91025000D01*
X170141000Y-86701000D02*
X170141000Y-87810000D01*
X170141000Y-89890000D02*
X170141000Y-90999000D01*
X170181000Y-86728000D02*
X170181000Y-87810000D01*
X170181000Y-89890000D02*
X170181000Y-90972000D01*
X170221000Y-86755000D02*
X170221000Y-87810000D01*
X170221000Y-89890000D02*
X170221000Y-90945000D01*
X170261000Y-86785000D02*
X170261000Y-87810000D01*
X170261000Y-89890000D02*
X170261000Y-90915000D01*
X170301000Y-86815000D02*
X170301000Y-87810000D01*
X170301000Y-89890000D02*
X170301000Y-90885000D01*
X170341000Y-86846000D02*
X170341000Y-87810000D01*
X170341000Y-89890000D02*
X170341000Y-90854000D01*
X170381000Y-86879000D02*
X170381000Y-87810000D01*
X170381000Y-89890000D02*
X170381000Y-90821000D01*
X170421000Y-86913000D02*
X170421000Y-87810000D01*
X170421000Y-89890000D02*
X170421000Y-90787000D01*
X170461000Y-86949000D02*
X170461000Y-87810000D01*
X170461000Y-89890000D02*
X170461000Y-90751000D01*
X170501000Y-86986000D02*
X170501000Y-87810000D01*
X170501000Y-89890000D02*
X170501000Y-90714000D01*
X170541000Y-87024000D02*
X170541000Y-87810000D01*
X170541000Y-89890000D02*
X170541000Y-90676000D01*
X170581000Y-87065000D02*
X170581000Y-87810000D01*
X170581000Y-89890000D02*
X170581000Y-90635000D01*
X170621000Y-87107000D02*
X170621000Y-87810000D01*
X170621000Y-89890000D02*
X170621000Y-90593000D01*
X170661000Y-87151000D02*
X170661000Y-87810000D01*
X170661000Y-89890000D02*
X170661000Y-90549000D01*
X170701000Y-87197000D02*
X170701000Y-87810000D01*
X170701000Y-89890000D02*
X170701000Y-90503000D01*
X170741000Y-87245000D02*
X170741000Y-90455000D01*
X170781000Y-87296000D02*
X170781000Y-90404000D01*
X170821000Y-87350000D02*
X170821000Y-90350000D01*
X170861000Y-87407000D02*
X170861000Y-90293000D01*
X170901000Y-87467000D02*
X170901000Y-90233000D01*
X170941000Y-87531000D02*
X170941000Y-90169000D01*
X170981000Y-87599000D02*
X170981000Y-90101000D01*
X171021000Y-87672000D02*
X171021000Y-90028000D01*
X171061000Y-87752000D02*
X171061000Y-89948000D01*
X171101000Y-87839000D02*
X171101000Y-89861000D01*
X171141000Y-87935000D02*
X171141000Y-89765000D01*
X171181000Y-88045000D02*
X171181000Y-89655000D01*
X171221000Y-88173000D02*
X171221000Y-89527000D01*
X171261000Y-88332000D02*
X171261000Y-89368000D01*
X171301000Y-88566000D02*
X171301000Y-89134000D01*
X171320000Y-88850000D02*
G75*
G02*
X166080000Y-88850000I-2620000J0D01*
G01*
X166080000Y-88850000D02*
G75*
G02*
X171320000Y-88850000I2620000J0D01*
G01*
%TO.C,C8*%
X139695225Y-102925000D02*
X140195225Y-102925000D01*
X139945225Y-102675000D02*
X139945225Y-103175000D01*
X142500000Y-101820000D02*
X142500000Y-103360000D01*
X142500000Y-105440000D02*
X142500000Y-106980000D01*
X142540000Y-101820000D02*
X142540000Y-103360000D01*
X142540000Y-105440000D02*
X142540000Y-106980000D01*
X142580000Y-101821000D02*
X142580000Y-103360000D01*
X142580000Y-105440000D02*
X142580000Y-106979000D01*
X142620000Y-101822000D02*
X142620000Y-103360000D01*
X142620000Y-105440000D02*
X142620000Y-106978000D01*
X142660000Y-101824000D02*
X142660000Y-103360000D01*
X142660000Y-105440000D02*
X142660000Y-106976000D01*
X142700000Y-101827000D02*
X142700000Y-103360000D01*
X142700000Y-105440000D02*
X142700000Y-106973000D01*
X142740000Y-101831000D02*
X142740000Y-103360000D01*
X142740000Y-105440000D02*
X142740000Y-106969000D01*
X142780000Y-101835000D02*
X142780000Y-103360000D01*
X142780000Y-105440000D02*
X142780000Y-106965000D01*
X142820000Y-101839000D02*
X142820000Y-103360000D01*
X142820000Y-105440000D02*
X142820000Y-106961000D01*
X142860000Y-101844000D02*
X142860000Y-103360000D01*
X142860000Y-105440000D02*
X142860000Y-106956000D01*
X142900000Y-101850000D02*
X142900000Y-103360000D01*
X142900000Y-105440000D02*
X142900000Y-106950000D01*
X142940000Y-101857000D02*
X142940000Y-103360000D01*
X142940000Y-105440000D02*
X142940000Y-106943000D01*
X142980000Y-101864000D02*
X142980000Y-103360000D01*
X142980000Y-105440000D02*
X142980000Y-106936000D01*
X143020000Y-101872000D02*
X143020000Y-103360000D01*
X143020000Y-105440000D02*
X143020000Y-106928000D01*
X143060000Y-101880000D02*
X143060000Y-103360000D01*
X143060000Y-105440000D02*
X143060000Y-106920000D01*
X143100000Y-101889000D02*
X143100000Y-103360000D01*
X143100000Y-105440000D02*
X143100000Y-106911000D01*
X143140000Y-101899000D02*
X143140000Y-103360000D01*
X143140000Y-105440000D02*
X143140000Y-106901000D01*
X143180000Y-101909000D02*
X143180000Y-103360000D01*
X143180000Y-105440000D02*
X143180000Y-106891000D01*
X143221000Y-101920000D02*
X143221000Y-103360000D01*
X143221000Y-105440000D02*
X143221000Y-106880000D01*
X143261000Y-101932000D02*
X143261000Y-103360000D01*
X143261000Y-105440000D02*
X143261000Y-106868000D01*
X143301000Y-101945000D02*
X143301000Y-103360000D01*
X143301000Y-105440000D02*
X143301000Y-106855000D01*
X143341000Y-101958000D02*
X143341000Y-103360000D01*
X143341000Y-105440000D02*
X143341000Y-106842000D01*
X143381000Y-101972000D02*
X143381000Y-103360000D01*
X143381000Y-105440000D02*
X143381000Y-106828000D01*
X143421000Y-101986000D02*
X143421000Y-103360000D01*
X143421000Y-105440000D02*
X143421000Y-106814000D01*
X143461000Y-102002000D02*
X143461000Y-103360000D01*
X143461000Y-105440000D02*
X143461000Y-106798000D01*
X143501000Y-102018000D02*
X143501000Y-103360000D01*
X143501000Y-105440000D02*
X143501000Y-106782000D01*
X143541000Y-102035000D02*
X143541000Y-103360000D01*
X143541000Y-105440000D02*
X143541000Y-106765000D01*
X143581000Y-102052000D02*
X143581000Y-103360000D01*
X143581000Y-105440000D02*
X143581000Y-106748000D01*
X143621000Y-102071000D02*
X143621000Y-103360000D01*
X143621000Y-105440000D02*
X143621000Y-106729000D01*
X143661000Y-102090000D02*
X143661000Y-103360000D01*
X143661000Y-105440000D02*
X143661000Y-106710000D01*
X143701000Y-102110000D02*
X143701000Y-103360000D01*
X143701000Y-105440000D02*
X143701000Y-106690000D01*
X143741000Y-102132000D02*
X143741000Y-103360000D01*
X143741000Y-105440000D02*
X143741000Y-106668000D01*
X143781000Y-102153000D02*
X143781000Y-103360000D01*
X143781000Y-105440000D02*
X143781000Y-106647000D01*
X143821000Y-102176000D02*
X143821000Y-103360000D01*
X143821000Y-105440000D02*
X143821000Y-106624000D01*
X143861000Y-102200000D02*
X143861000Y-103360000D01*
X143861000Y-105440000D02*
X143861000Y-106600000D01*
X143901000Y-102225000D02*
X143901000Y-103360000D01*
X143901000Y-105440000D02*
X143901000Y-106575000D01*
X143941000Y-102251000D02*
X143941000Y-103360000D01*
X143941000Y-105440000D02*
X143941000Y-106549000D01*
X143981000Y-102278000D02*
X143981000Y-103360000D01*
X143981000Y-105440000D02*
X143981000Y-106522000D01*
X144021000Y-102305000D02*
X144021000Y-103360000D01*
X144021000Y-105440000D02*
X144021000Y-106495000D01*
X144061000Y-102335000D02*
X144061000Y-103360000D01*
X144061000Y-105440000D02*
X144061000Y-106465000D01*
X144101000Y-102365000D02*
X144101000Y-103360000D01*
X144101000Y-105440000D02*
X144101000Y-106435000D01*
X144141000Y-102396000D02*
X144141000Y-103360000D01*
X144141000Y-105440000D02*
X144141000Y-106404000D01*
X144181000Y-102429000D02*
X144181000Y-103360000D01*
X144181000Y-105440000D02*
X144181000Y-106371000D01*
X144221000Y-102463000D02*
X144221000Y-103360000D01*
X144221000Y-105440000D02*
X144221000Y-106337000D01*
X144261000Y-102499000D02*
X144261000Y-103360000D01*
X144261000Y-105440000D02*
X144261000Y-106301000D01*
X144301000Y-102536000D02*
X144301000Y-103360000D01*
X144301000Y-105440000D02*
X144301000Y-106264000D01*
X144341000Y-102574000D02*
X144341000Y-103360000D01*
X144341000Y-105440000D02*
X144341000Y-106226000D01*
X144381000Y-102615000D02*
X144381000Y-103360000D01*
X144381000Y-105440000D02*
X144381000Y-106185000D01*
X144421000Y-102657000D02*
X144421000Y-103360000D01*
X144421000Y-105440000D02*
X144421000Y-106143000D01*
X144461000Y-102701000D02*
X144461000Y-103360000D01*
X144461000Y-105440000D02*
X144461000Y-106099000D01*
X144501000Y-102747000D02*
X144501000Y-103360000D01*
X144501000Y-105440000D02*
X144501000Y-106053000D01*
X144541000Y-102795000D02*
X144541000Y-106005000D01*
X144581000Y-102846000D02*
X144581000Y-105954000D01*
X144621000Y-102900000D02*
X144621000Y-105900000D01*
X144661000Y-102957000D02*
X144661000Y-105843000D01*
X144701000Y-103017000D02*
X144701000Y-105783000D01*
X144741000Y-103081000D02*
X144741000Y-105719000D01*
X144781000Y-103149000D02*
X144781000Y-105651000D01*
X144821000Y-103222000D02*
X144821000Y-105578000D01*
X144861000Y-103302000D02*
X144861000Y-105498000D01*
X144901000Y-103389000D02*
X144901000Y-105411000D01*
X144941000Y-103485000D02*
X144941000Y-105315000D01*
X144981000Y-103595000D02*
X144981000Y-105205000D01*
X145021000Y-103723000D02*
X145021000Y-105077000D01*
X145061000Y-103882000D02*
X145061000Y-104918000D01*
X145101000Y-104116000D02*
X145101000Y-104684000D01*
X145120000Y-104400000D02*
G75*
G02*
X139880000Y-104400000I-2620000J0D01*
G01*
X139880000Y-104400000D02*
G75*
G02*
X145120000Y-104400000I2620000J0D01*
G01*
%TO.C,C7*%
X139445225Y-109125000D02*
X139945225Y-109125000D01*
X139695225Y-108875000D02*
X139695225Y-109375000D01*
X142250000Y-108020000D02*
X142250000Y-109560000D01*
X142250000Y-111640000D02*
X142250000Y-113180000D01*
X142290000Y-108020000D02*
X142290000Y-109560000D01*
X142290000Y-111640000D02*
X142290000Y-113180000D01*
X142330000Y-108021000D02*
X142330000Y-109560000D01*
X142330000Y-111640000D02*
X142330000Y-113179000D01*
X142370000Y-108022000D02*
X142370000Y-109560000D01*
X142370000Y-111640000D02*
X142370000Y-113178000D01*
X142410000Y-108024000D02*
X142410000Y-109560000D01*
X142410000Y-111640000D02*
X142410000Y-113176000D01*
X142450000Y-108027000D02*
X142450000Y-109560000D01*
X142450000Y-111640000D02*
X142450000Y-113173000D01*
X142490000Y-108031000D02*
X142490000Y-109560000D01*
X142490000Y-111640000D02*
X142490000Y-113169000D01*
X142530000Y-108035000D02*
X142530000Y-109560000D01*
X142530000Y-111640000D02*
X142530000Y-113165000D01*
X142570000Y-108039000D02*
X142570000Y-109560000D01*
X142570000Y-111640000D02*
X142570000Y-113161000D01*
X142610000Y-108044000D02*
X142610000Y-109560000D01*
X142610000Y-111640000D02*
X142610000Y-113156000D01*
X142650000Y-108050000D02*
X142650000Y-109560000D01*
X142650000Y-111640000D02*
X142650000Y-113150000D01*
X142690000Y-108057000D02*
X142690000Y-109560000D01*
X142690000Y-111640000D02*
X142690000Y-113143000D01*
X142730000Y-108064000D02*
X142730000Y-109560000D01*
X142730000Y-111640000D02*
X142730000Y-113136000D01*
X142770000Y-108072000D02*
X142770000Y-109560000D01*
X142770000Y-111640000D02*
X142770000Y-113128000D01*
X142810000Y-108080000D02*
X142810000Y-109560000D01*
X142810000Y-111640000D02*
X142810000Y-113120000D01*
X142850000Y-108089000D02*
X142850000Y-109560000D01*
X142850000Y-111640000D02*
X142850000Y-113111000D01*
X142890000Y-108099000D02*
X142890000Y-109560000D01*
X142890000Y-111640000D02*
X142890000Y-113101000D01*
X142930000Y-108109000D02*
X142930000Y-109560000D01*
X142930000Y-111640000D02*
X142930000Y-113091000D01*
X142971000Y-108120000D02*
X142971000Y-109560000D01*
X142971000Y-111640000D02*
X142971000Y-113080000D01*
X143011000Y-108132000D02*
X143011000Y-109560000D01*
X143011000Y-111640000D02*
X143011000Y-113068000D01*
X143051000Y-108145000D02*
X143051000Y-109560000D01*
X143051000Y-111640000D02*
X143051000Y-113055000D01*
X143091000Y-108158000D02*
X143091000Y-109560000D01*
X143091000Y-111640000D02*
X143091000Y-113042000D01*
X143131000Y-108172000D02*
X143131000Y-109560000D01*
X143131000Y-111640000D02*
X143131000Y-113028000D01*
X143171000Y-108186000D02*
X143171000Y-109560000D01*
X143171000Y-111640000D02*
X143171000Y-113014000D01*
X143211000Y-108202000D02*
X143211000Y-109560000D01*
X143211000Y-111640000D02*
X143211000Y-112998000D01*
X143251000Y-108218000D02*
X143251000Y-109560000D01*
X143251000Y-111640000D02*
X143251000Y-112982000D01*
X143291000Y-108235000D02*
X143291000Y-109560000D01*
X143291000Y-111640000D02*
X143291000Y-112965000D01*
X143331000Y-108252000D02*
X143331000Y-109560000D01*
X143331000Y-111640000D02*
X143331000Y-112948000D01*
X143371000Y-108271000D02*
X143371000Y-109560000D01*
X143371000Y-111640000D02*
X143371000Y-112929000D01*
X143411000Y-108290000D02*
X143411000Y-109560000D01*
X143411000Y-111640000D02*
X143411000Y-112910000D01*
X143451000Y-108310000D02*
X143451000Y-109560000D01*
X143451000Y-111640000D02*
X143451000Y-112890000D01*
X143491000Y-108332000D02*
X143491000Y-109560000D01*
X143491000Y-111640000D02*
X143491000Y-112868000D01*
X143531000Y-108353000D02*
X143531000Y-109560000D01*
X143531000Y-111640000D02*
X143531000Y-112847000D01*
X143571000Y-108376000D02*
X143571000Y-109560000D01*
X143571000Y-111640000D02*
X143571000Y-112824000D01*
X143611000Y-108400000D02*
X143611000Y-109560000D01*
X143611000Y-111640000D02*
X143611000Y-112800000D01*
X143651000Y-108425000D02*
X143651000Y-109560000D01*
X143651000Y-111640000D02*
X143651000Y-112775000D01*
X143691000Y-108451000D02*
X143691000Y-109560000D01*
X143691000Y-111640000D02*
X143691000Y-112749000D01*
X143731000Y-108478000D02*
X143731000Y-109560000D01*
X143731000Y-111640000D02*
X143731000Y-112722000D01*
X143771000Y-108505000D02*
X143771000Y-109560000D01*
X143771000Y-111640000D02*
X143771000Y-112695000D01*
X143811000Y-108535000D02*
X143811000Y-109560000D01*
X143811000Y-111640000D02*
X143811000Y-112665000D01*
X143851000Y-108565000D02*
X143851000Y-109560000D01*
X143851000Y-111640000D02*
X143851000Y-112635000D01*
X143891000Y-108596000D02*
X143891000Y-109560000D01*
X143891000Y-111640000D02*
X143891000Y-112604000D01*
X143931000Y-108629000D02*
X143931000Y-109560000D01*
X143931000Y-111640000D02*
X143931000Y-112571000D01*
X143971000Y-108663000D02*
X143971000Y-109560000D01*
X143971000Y-111640000D02*
X143971000Y-112537000D01*
X144011000Y-108699000D02*
X144011000Y-109560000D01*
X144011000Y-111640000D02*
X144011000Y-112501000D01*
X144051000Y-108736000D02*
X144051000Y-109560000D01*
X144051000Y-111640000D02*
X144051000Y-112464000D01*
X144091000Y-108774000D02*
X144091000Y-109560000D01*
X144091000Y-111640000D02*
X144091000Y-112426000D01*
X144131000Y-108815000D02*
X144131000Y-109560000D01*
X144131000Y-111640000D02*
X144131000Y-112385000D01*
X144171000Y-108857000D02*
X144171000Y-109560000D01*
X144171000Y-111640000D02*
X144171000Y-112343000D01*
X144211000Y-108901000D02*
X144211000Y-109560000D01*
X144211000Y-111640000D02*
X144211000Y-112299000D01*
X144251000Y-108947000D02*
X144251000Y-109560000D01*
X144251000Y-111640000D02*
X144251000Y-112253000D01*
X144291000Y-108995000D02*
X144291000Y-112205000D01*
X144331000Y-109046000D02*
X144331000Y-112154000D01*
X144371000Y-109100000D02*
X144371000Y-112100000D01*
X144411000Y-109157000D02*
X144411000Y-112043000D01*
X144451000Y-109217000D02*
X144451000Y-111983000D01*
X144491000Y-109281000D02*
X144491000Y-111919000D01*
X144531000Y-109349000D02*
X144531000Y-111851000D01*
X144571000Y-109422000D02*
X144571000Y-111778000D01*
X144611000Y-109502000D02*
X144611000Y-111698000D01*
X144651000Y-109589000D02*
X144651000Y-111611000D01*
X144691000Y-109685000D02*
X144691000Y-111515000D01*
X144731000Y-109795000D02*
X144731000Y-111405000D01*
X144771000Y-109923000D02*
X144771000Y-111277000D01*
X144811000Y-110082000D02*
X144811000Y-111118000D01*
X144851000Y-110316000D02*
X144851000Y-110884000D01*
X144870000Y-110600000D02*
G75*
G02*
X139630000Y-110600000I-2620000J0D01*
G01*
X139630000Y-110600000D02*
G75*
G02*
X144870000Y-110600000I2620000J0D01*
G01*
%TO.C,C6*%
X153285000Y-105060000D02*
X153285000Y-100320000D01*
X153285000Y-105060000D02*
X145845000Y-105060000D01*
X153285000Y-100320000D02*
X145845000Y-100320000D01*
X145845000Y-105060000D02*
X145845000Y-100320000D01*
%TO.C,C5*%
X145280000Y-77130000D02*
X145280000Y-81870000D01*
X145280000Y-77130000D02*
X152720000Y-77130000D01*
X145280000Y-81870000D02*
X152720000Y-81870000D01*
X152720000Y-77130000D02*
X152720000Y-81870000D01*
%TO.C,C4*%
X116630000Y-96080000D02*
X116630000Y-98820000D01*
X116630000Y-96080000D02*
X124070000Y-96080000D01*
X116630000Y-98820000D02*
X124070000Y-98820000D01*
X124070000Y-96080000D02*
X124070000Y-98820000D01*
%TO.C,C3*%
X142820000Y-84180000D02*
X140080000Y-84180000D01*
X142820000Y-84180000D02*
X142820000Y-91620000D01*
X140080000Y-84180000D02*
X140080000Y-91620000D01*
X142820000Y-91620000D02*
X140080000Y-91620000D01*
%TO.C,C2*%
X129620000Y-76180000D02*
X126880000Y-76180000D01*
X129620000Y-76180000D02*
X129620000Y-83620000D01*
X126880000Y-76180000D02*
X126880000Y-83620000D01*
X129620000Y-83620000D02*
X126880000Y-83620000D01*
%TO.C,C1*%
X125770000Y-77530000D02*
X125755000Y-77530000D01*
X125770000Y-77530000D02*
X125770000Y-82070000D01*
X123645000Y-77530000D02*
X123630000Y-77530000D01*
X123630000Y-77530000D02*
X123630000Y-82070000D01*
X125770000Y-82070000D02*
X125755000Y-82070000D01*
X123645000Y-82070000D02*
X123630000Y-82070000D01*
%TD*%
M02*
