%TF.GenerationSoftware,KiCad,Pcbnew,9.0.0*%
%TF.CreationDate,2025-10-17T16:58:38+01:00*%
%TF.ProjectId,GuitarMixer,47756974-6172-44d6-9978-65722e6b6963,V1.1*%
%TF.SameCoordinates,Original*%
%TF.FileFunction,Copper,L1,Top*%
%TF.FilePolarity,Positive*%
%FSLAX46Y46*%
G04 Gerber Fmt 4.6, Leading zero omitted, Abs format (unit mm)*
G04 Created by KiCad (PCBNEW 9.0.0) date 2025-10-17 16:58:38*
%MOMM*%
%LPD*%
G01*
G04 APERTURE LIST*
G04 Aperture macros list*
%AMRoundRect*
0 Rectangle with rounded corners*
0 $1 Rounding radius*
0 $2 $3 $4 $5 $6 $7 $8 $9 X,Y pos of 4 corners*
0 Add a 4 corners polygon primitive as box body*
4,1,4,$2,$3,$4,$5,$6,$7,$8,$9,$2,$3,0*
0 Add four circle primitives for the rounded corners*
1,1,$1+$1,$2,$3*
1,1,$1+$1,$4,$5*
1,1,$1+$1,$6,$7*
1,1,$1+$1,$8,$9*
0 Add four rect primitives between the rounded corners*
20,1,$1+$1,$2,$3,$4,$5,0*
20,1,$1+$1,$4,$5,$6,$7,0*
20,1,$1+$1,$6,$7,$8,$9,0*
20,1,$1+$1,$8,$9,$2,$3,0*%
G04 Aperture macros list end*
%TA.AperFunction,ComponentPad*%
%ADD10RoundRect,0.250000X-0.620000X-0.845000X0.620000X-0.845000X0.620000X0.845000X-0.620000X0.845000X0*%
%TD*%
%TA.AperFunction,ComponentPad*%
%ADD11O,1.740000X2.190000*%
%TD*%
%TA.AperFunction,ComponentPad*%
%ADD12C,1.600000*%
%TD*%
%TA.AperFunction,ComponentPad*%
%ADD13O,1.600000X1.600000*%
%TD*%
%TA.AperFunction,ComponentPad*%
%ADD14R,2.200000X2.200000*%
%TD*%
%TA.AperFunction,ComponentPad*%
%ADD15O,2.200000X2.200000*%
%TD*%
%TA.AperFunction,ComponentPad*%
%ADD16O,2.000000X2.500000*%
%TD*%
%TA.AperFunction,ComponentPad*%
%ADD17RoundRect,0.250000X0.845000X-0.620000X0.845000X0.620000X-0.845000X0.620000X-0.845000X-0.620000X0*%
%TD*%
%TA.AperFunction,ComponentPad*%
%ADD18O,2.190000X1.740000*%
%TD*%
%TA.AperFunction,ComponentPad*%
%ADD19R,1.600000X1.600000*%
%TD*%
%TA.AperFunction,ComponentPad*%
%ADD20RoundRect,0.250000X-0.550000X-0.550000X0.550000X-0.550000X0.550000X0.550000X-0.550000X0.550000X0*%
%TD*%
%TA.AperFunction,ComponentPad*%
%ADD21RoundRect,0.250000X0.620000X0.845000X-0.620000X0.845000X-0.620000X-0.845000X0.620000X-0.845000X0*%
%TD*%
%TA.AperFunction,ComponentPad*%
%ADD22R,1.800000X1.100000*%
%TD*%
%TA.AperFunction,ComponentPad*%
%ADD23RoundRect,0.275000X0.625000X-0.275000X0.625000X0.275000X-0.625000X0.275000X-0.625000X-0.275000X0*%
%TD*%
%TA.AperFunction,ComponentPad*%
%ADD24RoundRect,0.250000X-0.845000X0.620000X-0.845000X-0.620000X0.845000X-0.620000X0.845000X0.620000X0*%
%TD*%
%TA.AperFunction,Conductor*%
%ADD25C,1.000000*%
%TD*%
G04 APERTURE END LIST*
D10*
%TO.P,J2,1,Pin_1*%
%TO.N,Earth*%
X162420000Y-79950000D03*
D11*
%TO.P,J2,2,Pin_2*%
%TO.N,Net-(J2-Pin_2)*%
X164960000Y-79950000D03*
%TO.P,J2,3,Pin_3*%
%TO.N,Net-(J2-Pin_3)*%
X167500000Y-79950000D03*
%TD*%
D12*
%TO.P,R10,1*%
%TO.N,Net-(U2A--)*%
X160150000Y-110860000D03*
D13*
%TO.P,R10,2*%
%TO.N,Net-(C10-Pad2)*%
X160150000Y-100700000D03*
%TD*%
D14*
%TO.P,D1,1,K*%
%TO.N,+9VA*%
X136550000Y-113450000D03*
D15*
%TO.P,D1,2,A*%
%TO.N,+9V*%
X126390000Y-113450000D03*
%TD*%
D16*
%TO.P,SW1,1,A*%
%TO.N,Earth*%
X128150000Y-91300000D03*
%TO.P,SW1,2,B*%
%TO.N,Net-(SW1-B)*%
X128150000Y-94300000D03*
%TO.P,SW1,3*%
%TO.N,N/C*%
X128150000Y-97300000D03*
%TD*%
D12*
%TO.P,R8,1*%
%TO.N,+4V*%
X136550000Y-109950000D03*
D13*
%TO.P,R8,2*%
%TO.N,+9VA*%
X126390000Y-109950000D03*
%TD*%
D12*
%TO.P,R11,1*%
%TO.N,Net-(J6-Pin_1)*%
X179875000Y-96260000D03*
D13*
%TO.P,R11,2*%
%TO.N,Net-(C9-Pad1)*%
X179875000Y-86100000D03*
%TD*%
D12*
%TO.P,C5,1*%
%TO.N,Net-(U1A--)*%
X146500000Y-79500000D03*
%TO.P,C5,2*%
%TO.N,Net-(J2-Pin_3)*%
X151500000Y-79500000D03*
%TD*%
%TO.P,C1,1*%
%TO.N,Net-(J1-Pin_3)*%
X124700000Y-77300000D03*
%TO.P,C1,2*%
%TO.N,Earth*%
X124700000Y-82300000D03*
%TD*%
%TO.P,C3,1*%
%TO.N,Net-(Q1-S)*%
X141450000Y-85400000D03*
%TO.P,C3,2*%
%TO.N,Net-(C3-Pad2)*%
X141450000Y-90400000D03*
%TD*%
%TO.P,R3,1*%
%TO.N,Net-(Q1-S)*%
X133650000Y-92220000D03*
D13*
%TO.P,R3,2*%
%TO.N,Earth*%
X133650000Y-102380000D03*
%TD*%
D12*
%TO.P,R2,1*%
%TO.N,Net-(SW1-B)*%
X142730000Y-77400000D03*
D13*
%TO.P,R2,2*%
%TO.N,Earth*%
X132570000Y-77400000D03*
%TD*%
D12*
%TO.P,C4,1*%
%TO.N,Net-(J1-Pin_2)*%
X117850000Y-97450000D03*
%TO.P,C4,2*%
%TO.N,Net-(U1B-+)*%
X122850000Y-97450000D03*
%TD*%
D17*
%TO.P,J1,1,Pin_1*%
%TO.N,Earth*%
X120550000Y-92580000D03*
D18*
%TO.P,J1,2,Pin_2*%
%TO.N,Net-(J1-Pin_2)*%
X120550000Y-90040000D03*
%TO.P,J1,3,Pin_3*%
%TO.N,Net-(J1-Pin_3)*%
X120550000Y-87500000D03*
%TD*%
D12*
%TO.P,R6,1*%
%TO.N,Net-(U1B-+)*%
X152830000Y-97050000D03*
D13*
%TO.P,R6,2*%
%TO.N,Earth*%
X142670000Y-97050000D03*
%TD*%
D12*
%TO.P,R5,1*%
%TO.N,Net-(J2-Pin_2)*%
X176150000Y-86100000D03*
D13*
%TO.P,R5,2*%
%TO.N,Net-(U2A--)*%
X176150000Y-96260000D03*
%TD*%
D12*
%TO.P,R12,1*%
%TO.N,Net-(J6-Pin_3)*%
X170400000Y-97050000D03*
D13*
%TO.P,R12,2*%
%TO.N,Net-(C10-Pad2)*%
X160240000Y-97050000D03*
%TD*%
D19*
%TO.P,C8,1*%
%TO.N,+4V*%
X141500000Y-104400000D03*
D12*
%TO.P,C8,2*%
%TO.N,Earth*%
X143500000Y-104400000D03*
%TD*%
D20*
%TO.P,U2,1*%
%TO.N,Net-(C10-Pad2)*%
X165780000Y-105250000D03*
D12*
%TO.P,U2,2,-*%
%TO.N,Net-(U2A--)*%
X165780000Y-107790000D03*
%TO.P,U2,3,+*%
%TO.N,+4V*%
X165780000Y-110330000D03*
%TO.P,U2,4,V-*%
%TO.N,Earth*%
X165780000Y-112870000D03*
%TO.P,U2,5,+*%
%TO.N,+4V*%
X173400000Y-112870000D03*
%TO.P,U2,6,-*%
%TO.N,Net-(J6-Pin_1)*%
X173400000Y-110330000D03*
%TO.P,U2,7*%
%TO.N,Net-(C9-Pad1)*%
X173400000Y-107790000D03*
%TO.P,U2,8,V+*%
%TO.N,+9VA*%
X173400000Y-105250000D03*
%TD*%
%TO.P,R4,1*%
%TO.N,Net-(C3-Pad2)*%
X137150000Y-92220000D03*
D13*
%TO.P,R4,2*%
%TO.N,Net-(U1A-+)*%
X137150000Y-102380000D03*
%TD*%
D12*
%TO.P,C6,1*%
%TO.N,Net-(C11-Pad2)*%
X152065000Y-102690000D03*
%TO.P,C6,2*%
%TO.N,Net-(J3-Pin_3)*%
X147065000Y-102690000D03*
%TD*%
%TO.P,R1,1*%
%TO.N,Net-(Q1-G)*%
X132570000Y-80600000D03*
D13*
%TO.P,R1,2*%
%TO.N,Net-(SW1-B)*%
X142730000Y-80600000D03*
%TD*%
D17*
%TO.P,J4,1,Pin_1*%
%TO.N,Earth*%
X120550000Y-105790000D03*
D18*
%TO.P,J4,2,Pin_2*%
%TO.N,+9V*%
X120550000Y-103250000D03*
%TD*%
D12*
%TO.P,C11,1*%
%TO.N,Net-(U1B--)*%
X163700000Y-92800000D03*
%TO.P,C11,2*%
%TO.N,Net-(C11-Pad2)*%
X158700000Y-92800000D03*
%TD*%
%TO.P,R14,1*%
%TO.N,Net-(U1B--)*%
X155950000Y-90030000D03*
D13*
%TO.P,R14,2*%
%TO.N,Net-(C11-Pad2)*%
X155950000Y-79870000D03*
%TD*%
D20*
%TO.P,U1,1*%
%TO.N,Net-(U1A--)*%
X145610000Y-85090000D03*
D12*
%TO.P,U1,2,-*%
X145610000Y-87630000D03*
%TO.P,U1,3,+*%
%TO.N,Net-(U1A-+)*%
X145610000Y-90170000D03*
%TO.P,U1,4,V-*%
%TO.N,Earth*%
X145610000Y-92710000D03*
%TO.P,U1,5,+*%
%TO.N,Net-(U1B-+)*%
X153230000Y-92710000D03*
%TO.P,U1,6,-*%
%TO.N,Net-(U1B--)*%
X153230000Y-90170000D03*
%TO.P,U1,7*%
%TO.N,Net-(C11-Pad2)*%
X153230000Y-87630000D03*
%TO.P,U1,8,V+*%
%TO.N,+9VA*%
X153230000Y-85090000D03*
%TD*%
D19*
%TO.P,C7,1*%
%TO.N,+9VA*%
X141250000Y-110600000D03*
D12*
%TO.P,C7,2*%
%TO.N,Earth*%
X143250000Y-110600000D03*
%TD*%
%TO.P,R9,1*%
%TO.N,Earth*%
X136550000Y-106500000D03*
D13*
%TO.P,R9,2*%
%TO.N,+4V*%
X126390000Y-106500000D03*
%TD*%
D12*
%TO.P,R7,1*%
%TO.N,Net-(J3-Pin_2)*%
X156600000Y-100700000D03*
D13*
%TO.P,R7,2*%
%TO.N,Net-(U2A--)*%
X156600000Y-110860000D03*
%TD*%
D21*
%TO.P,J3,1,Pin_1*%
%TO.N,Earth*%
X152100000Y-110700000D03*
D11*
%TO.P,J3,2,Pin_2*%
%TO.N,Net-(J3-Pin_2)*%
X149560000Y-110700000D03*
%TO.P,J3,3,Pin_3*%
%TO.N,Net-(J3-Pin_3)*%
X147020000Y-110700000D03*
%TD*%
D12*
%TO.P,R15,1*%
%TO.N,Net-(U1B--)*%
X159000000Y-90050000D03*
D13*
%TO.P,R15,2*%
%TO.N,Earth*%
X159000000Y-79890000D03*
%TD*%
D12*
%TO.P,C2,1*%
%TO.N,Net-(J1-Pin_3)*%
X128250000Y-77400000D03*
%TO.P,C2,2*%
%TO.N,Net-(Q1-G)*%
X128250000Y-82400000D03*
%TD*%
D19*
%TO.P,C9,1*%
%TO.N,Net-(C9-Pad1)*%
X167700000Y-88850000D03*
D12*
%TO.P,C9,2*%
%TO.N,Net-(J5-Pin_2)*%
X169700000Y-88850000D03*
%TD*%
D22*
%TO.P,Q1,1,S*%
%TO.N,Net-(Q1-S)*%
X135500000Y-88490000D03*
D23*
%TO.P,Q1,2,D*%
%TO.N,+9VA*%
X133430000Y-87220000D03*
%TO.P,Q1,3,G*%
%TO.N,Net-(Q1-G)*%
X135500000Y-85950000D03*
%TD*%
D24*
%TO.P,J6,1,Pin_1*%
%TO.N,Net-(J6-Pin_1)*%
X182100000Y-100500000D03*
D18*
%TO.P,J6,2,Pin_2*%
X182100000Y-103040000D03*
%TO.P,J6,3,Pin_3*%
%TO.N,Net-(J6-Pin_3)*%
X182100000Y-105580000D03*
%TD*%
D12*
%TO.P,R13,1*%
%TO.N,Earth*%
X183600000Y-96260000D03*
D13*
%TO.P,R13,2*%
%TO.N,Net-(J5-Pin_2)*%
X183600000Y-86100000D03*
%TD*%
D10*
%TO.P,J5,1,Pin_1*%
%TO.N,Earth*%
X174210000Y-79950000D03*
D11*
%TO.P,J5,2,Pin_2*%
%TO.N,Net-(J5-Pin_2)*%
X176750000Y-79950000D03*
%TD*%
D12*
%TO.P,C10,1*%
%TO.N,Net-(U2A--)*%
X172000000Y-101150000D03*
%TO.P,C10,2*%
%TO.N,Net-(C10-Pad2)*%
X167000000Y-101150000D03*
%TD*%
D25*
%TO.N,Net-(U1B-+)*%
X122850000Y-97450000D02*
X124951000Y-99551000D01*
X124951000Y-99551000D02*
X150329000Y-99551000D01*
X150329000Y-99551000D02*
X152830000Y-97050000D01*
%TO.N,Net-(C11-Pad2)*%
X154361370Y-87630000D02*
X155950000Y-86041370D01*
X153230000Y-87630000D02*
X154361370Y-87630000D01*
X155950000Y-86041370D02*
X155950000Y-79870000D01*
%TO.N,+9VA*%
X156346788Y-76950000D02*
X178475184Y-76950000D01*
X136550000Y-113450000D02*
X137771000Y-114671000D01*
X171599000Y-106501000D02*
X172850000Y-105250000D01*
X151429000Y-83289000D02*
X153230000Y-85090000D01*
X133830000Y-87220000D02*
X133599000Y-86989000D01*
X186400000Y-105350000D02*
X177079000Y-114671000D01*
X177079000Y-114671000D02*
X166525999Y-114671000D01*
X166525999Y-114671000D02*
X171599000Y-109597999D01*
X178475184Y-76950000D02*
X186400000Y-84874816D01*
X137771000Y-114671000D02*
X166525999Y-114671000D01*
X171599000Y-109597999D02*
X171599000Y-106501000D01*
X133599000Y-84901000D02*
X135211000Y-83289000D01*
X186400000Y-84874816D02*
X186400000Y-105350000D01*
X153230000Y-85090000D02*
X153230000Y-80066788D01*
X135211000Y-83289000D02*
X151429000Y-83289000D01*
X153230000Y-80066788D02*
X156346788Y-76950000D01*
X172850000Y-105250000D02*
X173400000Y-105250000D01*
X133599000Y-86989000D02*
X133599000Y-84901000D01*
%TO.N,+4V*%
X141500000Y-106200000D02*
X161643001Y-106200000D01*
X141500000Y-104400000D02*
X141500000Y-106200000D01*
X165773001Y-110330000D02*
X165780000Y-110330000D01*
X161643001Y-106200000D02*
X165773001Y-110330000D01*
%TO.N,Net-(U2A--)*%
X167850000Y-95650000D02*
X169400000Y-94100000D01*
X173990000Y-94100000D02*
X176150000Y-96260000D01*
X167850000Y-98450000D02*
X167850000Y-95650000D01*
X170550000Y-101150000D02*
X167850000Y-98450000D01*
X172000000Y-101150000D02*
X170550000Y-101150000D01*
X169400000Y-94100000D02*
X173990000Y-94100000D01*
%TO.N,Net-(J2-Pin_2)*%
X164960000Y-79950000D02*
X164960000Y-82045000D01*
X164960000Y-82045000D02*
X169015000Y-86100000D01*
X169015000Y-86100000D02*
X176150000Y-86100000D01*
%TO.N,Net-(J6-Pin_3)*%
X173239006Y-97050000D02*
X181769006Y-105580000D01*
X170400000Y-97050000D02*
X173239006Y-97050000D01*
X181769006Y-105580000D02*
X182100000Y-105580000D01*
%TO.N,Net-(SW1-B)*%
X130151000Y-86226266D02*
X130151000Y-93249000D01*
X129100000Y-94300000D02*
X128150000Y-94300000D01*
X142730000Y-77050000D02*
X142730000Y-80600000D01*
X135777266Y-80600000D02*
X130151000Y-86226266D01*
X130151000Y-93249000D02*
X129100000Y-94300000D01*
X142730000Y-80600000D02*
X135777266Y-80600000D01*
%TD*%
M02*
