%TF.GenerationSoftware,KiCad,Pcbnew,9.0.0*%
%TF.CreationDate,2025-10-17T16:58:38+01:00*%
%TF.ProjectId,GuitarMixer,47756974-6172-44d6-9978-65722e6b6963,V1.1*%
%TF.SameCoordinates,Original*%
%TF.FileFunction,Copper,L2,Bot*%
%TF.FilePolarity,Positive*%
%FSLAX46Y46*%
G04 Gerber Fmt 4.6, Leading zero omitted, Abs format (unit mm)*
G04 Created by KiCad (PCBNEW 9.0.0) date 2025-10-17 16:58:38*
%MOMM*%
%LPD*%
G01*
G04 APERTURE LIST*
G04 Aperture macros list*
%AMRoundRect*
0 Rectangle with rounded corners*
0 $1 Rounding radius*
0 $2 $3 $4 $5 $6 $7 $8 $9 X,Y pos of 4 corners*
0 Add a 4 corners polygon primitive as box body*
4,1,4,$2,$3,$4,$5,$6,$7,$8,$9,$2,$3,0*
0 Add four circle primitives for the rounded corners*
1,1,$1+$1,$2,$3*
1,1,$1+$1,$4,$5*
1,1,$1+$1,$6,$7*
1,1,$1+$1,$8,$9*
0 Add four rect primitives between the rounded corners*
20,1,$1+$1,$2,$3,$4,$5,0*
20,1,$1+$1,$4,$5,$6,$7,0*
20,1,$1+$1,$6,$7,$8,$9,0*
20,1,$1+$1,$8,$9,$2,$3,0*%
G04 Aperture macros list end*
%TA.AperFunction,ComponentPad*%
%ADD10RoundRect,0.250000X-0.620000X-0.845000X0.620000X-0.845000X0.620000X0.845000X-0.620000X0.845000X0*%
%TD*%
%TA.AperFunction,ComponentPad*%
%ADD11O,1.740000X2.190000*%
%TD*%
%TA.AperFunction,ComponentPad*%
%ADD12C,1.600000*%
%TD*%
%TA.AperFunction,ComponentPad*%
%ADD13O,1.600000X1.600000*%
%TD*%
%TA.AperFunction,ComponentPad*%
%ADD14R,2.200000X2.200000*%
%TD*%
%TA.AperFunction,ComponentPad*%
%ADD15O,2.200000X2.200000*%
%TD*%
%TA.AperFunction,ComponentPad*%
%ADD16O,2.000000X2.500000*%
%TD*%
%TA.AperFunction,ComponentPad*%
%ADD17RoundRect,0.250000X0.845000X-0.620000X0.845000X0.620000X-0.845000X0.620000X-0.845000X-0.620000X0*%
%TD*%
%TA.AperFunction,ComponentPad*%
%ADD18O,2.190000X1.740000*%
%TD*%
%TA.AperFunction,ComponentPad*%
%ADD19R,1.600000X1.600000*%
%TD*%
%TA.AperFunction,ComponentPad*%
%ADD20RoundRect,0.250000X-0.550000X-0.550000X0.550000X-0.550000X0.550000X0.550000X-0.550000X0.550000X0*%
%TD*%
%TA.AperFunction,ComponentPad*%
%ADD21RoundRect,0.250000X0.620000X0.845000X-0.620000X0.845000X-0.620000X-0.845000X0.620000X-0.845000X0*%
%TD*%
%TA.AperFunction,ComponentPad*%
%ADD22R,1.800000X1.100000*%
%TD*%
%TA.AperFunction,ComponentPad*%
%ADD23RoundRect,0.275000X0.625000X-0.275000X0.625000X0.275000X-0.625000X0.275000X-0.625000X-0.275000X0*%
%TD*%
%TA.AperFunction,ComponentPad*%
%ADD24RoundRect,0.250000X-0.845000X0.620000X-0.845000X-0.620000X0.845000X-0.620000X0.845000X0.620000X0*%
%TD*%
%TA.AperFunction,Conductor*%
%ADD25C,1.000000*%
%TD*%
G04 APERTURE END LIST*
D10*
%TO.P,J2,1,Pin_1*%
%TO.N,Earth*%
X162420000Y-79950000D03*
D11*
%TO.P,J2,2,Pin_2*%
%TO.N,Net-(J2-Pin_2)*%
X164960000Y-79950000D03*
%TO.P,J2,3,Pin_3*%
%TO.N,Net-(J2-Pin_3)*%
X167500000Y-79950000D03*
%TD*%
D12*
%TO.P,R10,1*%
%TO.N,Net-(U2A--)*%
X160150000Y-110860000D03*
D13*
%TO.P,R10,2*%
%TO.N,Net-(C10-Pad2)*%
X160150000Y-100700000D03*
%TD*%
D14*
%TO.P,D1,1,K*%
%TO.N,+9VA*%
X136550000Y-113450000D03*
D15*
%TO.P,D1,2,A*%
%TO.N,+9V*%
X126390000Y-113450000D03*
%TD*%
D16*
%TO.P,SW1,1,A*%
%TO.N,Earth*%
X128150000Y-91300000D03*
%TO.P,SW1,2,B*%
%TO.N,Net-(SW1-B)*%
X128150000Y-94300000D03*
%TO.P,SW1,3*%
%TO.N,N/C*%
X128150000Y-97300000D03*
%TD*%
D12*
%TO.P,R8,1*%
%TO.N,+4V*%
X136550000Y-109950000D03*
D13*
%TO.P,R8,2*%
%TO.N,+9VA*%
X126390000Y-109950000D03*
%TD*%
D12*
%TO.P,R11,1*%
%TO.N,Net-(J6-Pin_1)*%
X179875000Y-96260000D03*
D13*
%TO.P,R11,2*%
%TO.N,Net-(C9-Pad1)*%
X179875000Y-86100000D03*
%TD*%
D12*
%TO.P,C5,1*%
%TO.N,Net-(U1A--)*%
X146500000Y-79500000D03*
%TO.P,C5,2*%
%TO.N,Net-(J2-Pin_3)*%
X151500000Y-79500000D03*
%TD*%
%TO.P,C1,1*%
%TO.N,Net-(J1-Pin_3)*%
X124700000Y-77300000D03*
%TO.P,C1,2*%
%TO.N,Earth*%
X124700000Y-82300000D03*
%TD*%
%TO.P,C3,1*%
%TO.N,Net-(Q1-S)*%
X141450000Y-85400000D03*
%TO.P,C3,2*%
%TO.N,Net-(C3-Pad2)*%
X141450000Y-90400000D03*
%TD*%
%TO.P,R3,1*%
%TO.N,Net-(Q1-S)*%
X133650000Y-92220000D03*
D13*
%TO.P,R3,2*%
%TO.N,Earth*%
X133650000Y-102380000D03*
%TD*%
D12*
%TO.P,R2,1*%
%TO.N,Net-(SW1-B)*%
X142730000Y-77400000D03*
D13*
%TO.P,R2,2*%
%TO.N,Earth*%
X132570000Y-77400000D03*
%TD*%
D12*
%TO.P,C4,1*%
%TO.N,Net-(J1-Pin_2)*%
X117850000Y-97450000D03*
%TO.P,C4,2*%
%TO.N,Net-(U1B-+)*%
X122850000Y-97450000D03*
%TD*%
D17*
%TO.P,J1,1,Pin_1*%
%TO.N,Earth*%
X120550000Y-92580000D03*
D18*
%TO.P,J1,2,Pin_2*%
%TO.N,Net-(J1-Pin_2)*%
X120550000Y-90040000D03*
%TO.P,J1,3,Pin_3*%
%TO.N,Net-(J1-Pin_3)*%
X120550000Y-87500000D03*
%TD*%
D12*
%TO.P,R6,1*%
%TO.N,Net-(U1B-+)*%
X152830000Y-97050000D03*
D13*
%TO.P,R6,2*%
%TO.N,Earth*%
X142670000Y-97050000D03*
%TD*%
D12*
%TO.P,R5,1*%
%TO.N,Net-(J2-Pin_2)*%
X176150000Y-86100000D03*
D13*
%TO.P,R5,2*%
%TO.N,Net-(U2A--)*%
X176150000Y-96260000D03*
%TD*%
D12*
%TO.P,R12,1*%
%TO.N,Net-(J6-Pin_3)*%
X170400000Y-97050000D03*
D13*
%TO.P,R12,2*%
%TO.N,Net-(C10-Pad2)*%
X160240000Y-97050000D03*
%TD*%
D19*
%TO.P,C8,1*%
%TO.N,+4V*%
X141500000Y-104400000D03*
D12*
%TO.P,C8,2*%
%TO.N,Earth*%
X143500000Y-104400000D03*
%TD*%
D20*
%TO.P,U2,1*%
%TO.N,Net-(C10-Pad2)*%
X165780000Y-105250000D03*
D12*
%TO.P,U2,2,-*%
%TO.N,Net-(U2A--)*%
X165780000Y-107790000D03*
%TO.P,U2,3,+*%
%TO.N,+4V*%
X165780000Y-110330000D03*
%TO.P,U2,4,V-*%
%TO.N,Earth*%
X165780000Y-112870000D03*
%TO.P,U2,5,+*%
%TO.N,+4V*%
X173400000Y-112870000D03*
%TO.P,U2,6,-*%
%TO.N,Net-(J6-Pin_1)*%
X173400000Y-110330000D03*
%TO.P,U2,7*%
%TO.N,Net-(C9-Pad1)*%
X173400000Y-107790000D03*
%TO.P,U2,8,V+*%
%TO.N,+9VA*%
X173400000Y-105250000D03*
%TD*%
%TO.P,R4,1*%
%TO.N,Net-(C3-Pad2)*%
X137150000Y-92220000D03*
D13*
%TO.P,R4,2*%
%TO.N,Net-(U1A-+)*%
X137150000Y-102380000D03*
%TD*%
D12*
%TO.P,C6,1*%
%TO.N,Net-(C11-Pad2)*%
X152065000Y-102690000D03*
%TO.P,C6,2*%
%TO.N,Net-(J3-Pin_3)*%
X147065000Y-102690000D03*
%TD*%
%TO.P,R1,1*%
%TO.N,Net-(Q1-G)*%
X132570000Y-80600000D03*
D13*
%TO.P,R1,2*%
%TO.N,Net-(SW1-B)*%
X142730000Y-80600000D03*
%TD*%
D17*
%TO.P,J4,1,Pin_1*%
%TO.N,Earth*%
X120550000Y-105790000D03*
D18*
%TO.P,J4,2,Pin_2*%
%TO.N,+9V*%
X120550000Y-103250000D03*
%TD*%
D12*
%TO.P,C11,1*%
%TO.N,Net-(U1B--)*%
X163700000Y-92800000D03*
%TO.P,C11,2*%
%TO.N,Net-(C11-Pad2)*%
X158700000Y-92800000D03*
%TD*%
%TO.P,R14,1*%
%TO.N,Net-(U1B--)*%
X155950000Y-90030000D03*
D13*
%TO.P,R14,2*%
%TO.N,Net-(C11-Pad2)*%
X155950000Y-79870000D03*
%TD*%
D20*
%TO.P,U1,1*%
%TO.N,Net-(U1A--)*%
X145610000Y-85090000D03*
D12*
%TO.P,U1,2,-*%
X145610000Y-87630000D03*
%TO.P,U1,3,+*%
%TO.N,Net-(U1A-+)*%
X145610000Y-90170000D03*
%TO.P,U1,4,V-*%
%TO.N,Earth*%
X145610000Y-92710000D03*
%TO.P,U1,5,+*%
%TO.N,Net-(U1B-+)*%
X153230000Y-92710000D03*
%TO.P,U1,6,-*%
%TO.N,Net-(U1B--)*%
X153230000Y-90170000D03*
%TO.P,U1,7*%
%TO.N,Net-(C11-Pad2)*%
X153230000Y-87630000D03*
%TO.P,U1,8,V+*%
%TO.N,+9VA*%
X153230000Y-85090000D03*
%TD*%
D19*
%TO.P,C7,1*%
%TO.N,+9VA*%
X141250000Y-110600000D03*
D12*
%TO.P,C7,2*%
%TO.N,Earth*%
X143250000Y-110600000D03*
%TD*%
%TO.P,R9,1*%
%TO.N,Earth*%
X136550000Y-106500000D03*
D13*
%TO.P,R9,2*%
%TO.N,+4V*%
X126390000Y-106500000D03*
%TD*%
D12*
%TO.P,R7,1*%
%TO.N,Net-(J3-Pin_2)*%
X156600000Y-100700000D03*
D13*
%TO.P,R7,2*%
%TO.N,Net-(U2A--)*%
X156600000Y-110860000D03*
%TD*%
D21*
%TO.P,J3,1,Pin_1*%
%TO.N,Earth*%
X152100000Y-110700000D03*
D11*
%TO.P,J3,2,Pin_2*%
%TO.N,Net-(J3-Pin_2)*%
X149560000Y-110700000D03*
%TO.P,J3,3,Pin_3*%
%TO.N,Net-(J3-Pin_3)*%
X147020000Y-110700000D03*
%TD*%
D12*
%TO.P,R15,1*%
%TO.N,Net-(U1B--)*%
X159000000Y-90050000D03*
D13*
%TO.P,R15,2*%
%TO.N,Earth*%
X159000000Y-79890000D03*
%TD*%
D12*
%TO.P,C2,1*%
%TO.N,Net-(J1-Pin_3)*%
X128250000Y-77400000D03*
%TO.P,C2,2*%
%TO.N,Net-(Q1-G)*%
X128250000Y-82400000D03*
%TD*%
D19*
%TO.P,C9,1*%
%TO.N,Net-(C9-Pad1)*%
X167700000Y-88850000D03*
D12*
%TO.P,C9,2*%
%TO.N,Net-(J5-Pin_2)*%
X169700000Y-88850000D03*
%TD*%
D22*
%TO.P,Q1,1,S*%
%TO.N,Net-(Q1-S)*%
X135500000Y-88490000D03*
D23*
%TO.P,Q1,2,D*%
%TO.N,+9VA*%
X133430000Y-87220000D03*
%TO.P,Q1,3,G*%
%TO.N,Net-(Q1-G)*%
X135500000Y-85950000D03*
%TD*%
D24*
%TO.P,J6,1,Pin_1*%
%TO.N,Net-(J6-Pin_1)*%
X182100000Y-100500000D03*
D18*
%TO.P,J6,2,Pin_2*%
X182100000Y-103040000D03*
%TO.P,J6,3,Pin_3*%
%TO.N,Net-(J6-Pin_3)*%
X182100000Y-105580000D03*
%TD*%
D12*
%TO.P,R13,1*%
%TO.N,Earth*%
X183600000Y-96260000D03*
D13*
%TO.P,R13,2*%
%TO.N,Net-(J5-Pin_2)*%
X183600000Y-86100000D03*
%TD*%
D10*
%TO.P,J5,1,Pin_1*%
%TO.N,Earth*%
X174210000Y-79950000D03*
D11*
%TO.P,J5,2,Pin_2*%
%TO.N,Net-(J5-Pin_2)*%
X176750000Y-79950000D03*
%TD*%
D12*
%TO.P,C10,1*%
%TO.N,Net-(U2A--)*%
X172000000Y-101150000D03*
%TO.P,C10,2*%
%TO.N,Net-(C10-Pad2)*%
X167000000Y-101150000D03*
%TD*%
D25*
%TO.N,Net-(J1-Pin_3)*%
X124700000Y-77300000D02*
X124700000Y-79050000D01*
X124700000Y-79050000D02*
X120550000Y-83200000D01*
X124700000Y-77300000D02*
X128150000Y-77300000D01*
X120550000Y-83200000D02*
X120550000Y-87500000D01*
X128150000Y-77300000D02*
X128250000Y-77400000D01*
%TO.N,Earth*%
X118454000Y-99392999D02*
X120550000Y-97296999D01*
X145610000Y-92710000D02*
X145990000Y-92710000D01*
X149050000Y-78450000D02*
X149981000Y-77519000D01*
X163421000Y-77854000D02*
X172114000Y-77854000D01*
X130419000Y-79201000D02*
X127799000Y-79201000D01*
X136550000Y-105748000D02*
X139699000Y-102599000D01*
X177900999Y-77854000D02*
X185401000Y-85354001D01*
X145446000Y-112796000D02*
X151104000Y-112796000D01*
X185401000Y-85354001D02*
X185401000Y-94459000D01*
X143250000Y-110600000D02*
X145446000Y-112796000D01*
X142999000Y-102599000D02*
X143500000Y-103100000D01*
X124700000Y-82300000D02*
X127799000Y-79201000D01*
X120550000Y-97296999D02*
X120550000Y-92580000D01*
X162420000Y-79950000D02*
X162420000Y-78855000D01*
X145990000Y-92710000D02*
X149050000Y-89650000D01*
X142670000Y-95650000D02*
X145610000Y-92710000D01*
X128150000Y-91300000D02*
X126150000Y-91300000D01*
X124700000Y-82300000D02*
X124700000Y-87850000D01*
X143500000Y-97880000D02*
X142670000Y-97050000D01*
X154270000Y-112870000D02*
X165780000Y-112870000D01*
X130150000Y-91300000D02*
X128150000Y-91300000D01*
X152100000Y-111800000D02*
X152100000Y-110700000D01*
X124700000Y-87850000D02*
X128150000Y-91300000D01*
X143500000Y-110350000D02*
X143250000Y-110600000D01*
X136550000Y-105280000D02*
X133650000Y-102380000D01*
X159989000Y-77519000D02*
X162420000Y-79950000D01*
X185401000Y-94459000D02*
X183600000Y-96260000D01*
X149981000Y-77519000D02*
X159989000Y-77519000D01*
X133650000Y-94800000D02*
X130150000Y-91300000D01*
X174210000Y-79950000D02*
X174210000Y-78855000D01*
X143500000Y-104400000D02*
X143500000Y-110350000D01*
X119455000Y-105790000D02*
X118454000Y-104789000D01*
X152100000Y-110700000D02*
X154270000Y-112870000D01*
X159000000Y-79890000D02*
X162360000Y-79890000D01*
X120550000Y-105790000D02*
X119455000Y-105790000D01*
X162360000Y-79890000D02*
X162420000Y-79950000D01*
X142670000Y-97050000D02*
X142670000Y-95650000D01*
X175211000Y-77854000D02*
X177900999Y-77854000D01*
X124870000Y-92580000D02*
X120550000Y-92580000D01*
X174210000Y-78855000D02*
X175211000Y-77854000D01*
X139699000Y-102599000D02*
X142999000Y-102599000D01*
X143500000Y-103100000D02*
X143500000Y-104400000D01*
X151104000Y-112796000D02*
X152100000Y-111800000D01*
X149050000Y-89650000D02*
X149050000Y-78450000D01*
X133650000Y-102380000D02*
X133650000Y-94800000D01*
X132570000Y-77050000D02*
X130419000Y-79201000D01*
X136550000Y-106500000D02*
X136550000Y-105280000D01*
X143500000Y-104400000D02*
X143500000Y-97880000D01*
X136550000Y-106500000D02*
X136550000Y-105748000D01*
X118454000Y-104789000D02*
X118454000Y-99392999D01*
X126150000Y-91300000D02*
X124870000Y-92580000D01*
X172114000Y-77854000D02*
X174210000Y-79950000D01*
X162420000Y-78855000D02*
X163421000Y-77854000D01*
%TO.N,Net-(Q1-G)*%
X130770000Y-82400000D02*
X132570000Y-80600000D01*
X128250000Y-82400000D02*
X130770000Y-82400000D01*
X132570000Y-83420000D02*
X135100000Y-85950000D01*
X132570000Y-80600000D02*
X132570000Y-83420000D01*
%TO.N,Net-(Q1-S)*%
X133650000Y-92220000D02*
X133650000Y-89940000D01*
X135100000Y-88490000D02*
X138360000Y-88490000D01*
X133650000Y-89940000D02*
X135100000Y-88490000D01*
X138360000Y-88490000D02*
X141450000Y-85400000D01*
%TO.N,Net-(C3-Pad2)*%
X139630000Y-92220000D02*
X141450000Y-90400000D01*
X137150000Y-92220000D02*
X139630000Y-92220000D01*
%TO.N,Net-(U1B-+)*%
X152830000Y-97050000D02*
X152830000Y-93110000D01*
X152830000Y-93110000D02*
X153230000Y-92710000D01*
%TO.N,Net-(J1-Pin_2)*%
X119060000Y-90040000D02*
X120550000Y-90040000D01*
X117850000Y-97450000D02*
X117050001Y-96650001D01*
X117050001Y-96650001D02*
X117050001Y-92049999D01*
X117050001Y-92049999D02*
X119060000Y-90040000D01*
%TO.N,Net-(J2-Pin_3)*%
X151500000Y-79500000D02*
X154046000Y-82046000D01*
X167500000Y-82045000D02*
X167500000Y-79950000D01*
X154046000Y-82046000D02*
X167499000Y-82046000D01*
X167499000Y-82046000D02*
X167500000Y-82045000D01*
%TO.N,Net-(U1A--)*%
X146500000Y-79500000D02*
X146500000Y-84200000D01*
X146500000Y-84200000D02*
X145610000Y-85090000D01*
X145610000Y-85090000D02*
X145610000Y-87630000D01*
%TO.N,Net-(C11-Pad2)*%
X151029000Y-89824001D02*
X151029000Y-101654000D01*
X154631000Y-96869000D02*
X158700000Y-92800000D01*
X153230000Y-87630000D02*
X153223001Y-87630000D01*
X152065000Y-102690000D02*
X154631000Y-100124000D01*
X154631000Y-100124000D02*
X154631000Y-96869000D01*
X151029000Y-101654000D02*
X152065000Y-102690000D01*
X153223001Y-87630000D02*
X151029000Y-89824001D01*
%TO.N,Net-(J3-Pin_3)*%
X147020000Y-102735000D02*
X147065000Y-102690000D01*
X147020000Y-110700000D02*
X147020000Y-102735000D01*
%TO.N,+9VA*%
X138400000Y-113450000D02*
X141250000Y-110600000D01*
X133050000Y-109950000D02*
X126390000Y-109950000D01*
X136550000Y-113450000D02*
X138400000Y-113450000D01*
X136550000Y-113450000D02*
X133050000Y-109950000D01*
%TO.N,+4V*%
X169020000Y-112870000D02*
X173400000Y-112870000D01*
X136550000Y-109350000D02*
X141500000Y-104400000D01*
X165780000Y-110330000D02*
X166480000Y-110330000D01*
X136550000Y-109950000D02*
X136550000Y-109350000D01*
X136550000Y-109950000D02*
X133100000Y-106500000D01*
X166480000Y-110330000D02*
X169020000Y-112870000D01*
X133100000Y-106500000D02*
X126390000Y-106500000D01*
%TO.N,Net-(C9-Pad1)*%
X174171999Y-91803001D02*
X179875000Y-86100000D01*
X167700000Y-91803001D02*
X175201000Y-99304001D01*
X174531370Y-107790000D02*
X173400000Y-107790000D01*
X167700000Y-91803001D02*
X174171999Y-91803001D01*
X175201000Y-107120370D02*
X174531370Y-107790000D01*
X167700000Y-88850000D02*
X167700000Y-91803001D01*
X175201000Y-99304001D02*
X175201000Y-107120370D01*
%TO.N,Net-(J5-Pin_2)*%
X177450000Y-79950000D02*
X183600000Y-86100000D01*
X176750000Y-79950000D02*
X177450000Y-79950000D01*
X169700000Y-88850000D02*
X176750000Y-81800000D01*
X176750000Y-81800000D02*
X176750000Y-79950000D01*
%TO.N,Net-(U2A--)*%
X165780000Y-107790000D02*
X166911370Y-107790000D01*
X172000000Y-102701370D02*
X172000000Y-101150000D01*
X166911370Y-107790000D02*
X172000000Y-102701370D01*
X160150000Y-110860000D02*
X163220000Y-107790000D01*
X163220000Y-107790000D02*
X165780000Y-107790000D01*
X156600000Y-110860000D02*
X160150000Y-110860000D01*
%TO.N,Net-(C10-Pad2)*%
X160150000Y-100700000D02*
X166550000Y-100700000D01*
X166550000Y-100700000D02*
X167000000Y-101150000D01*
X160150000Y-100700000D02*
X160150000Y-97140000D01*
X167000000Y-104030000D02*
X165780000Y-105250000D01*
X160150000Y-97140000D02*
X160240000Y-97050000D01*
X167000000Y-101150000D02*
X167000000Y-104030000D01*
%TO.N,Net-(U1B--)*%
X155810000Y-90170000D02*
X155950000Y-90030000D01*
X159000000Y-90050000D02*
X160950000Y-90050000D01*
X158980000Y-90030000D02*
X159000000Y-90050000D01*
X160950000Y-90050000D02*
X163700000Y-92800000D01*
X155950000Y-90030000D02*
X158980000Y-90030000D01*
X153230000Y-90170000D02*
X155810000Y-90170000D01*
%TO.N,+9V*%
X122645000Y-103250000D02*
X122645000Y-109705000D01*
X120550000Y-103250000D02*
X122645000Y-103250000D01*
X122645000Y-109705000D02*
X126390000Y-113450000D01*
%TO.N,Net-(J3-Pin_2)*%
X149560000Y-110700000D02*
X149560000Y-107740000D01*
X149560000Y-107740000D02*
X156600000Y-100700000D01*
%TO.N,Net-(J6-Pin_1)*%
X181769006Y-103040000D02*
X182100000Y-103040000D01*
X173400000Y-110330000D02*
X174479006Y-110330000D01*
X182100000Y-98485000D02*
X179875000Y-96260000D01*
X182100000Y-103040000D02*
X182100000Y-100500000D01*
X182100000Y-100500000D02*
X182100000Y-98485000D01*
X174479006Y-110330000D02*
X181769006Y-103040000D01*
%TO.N,Net-(U1A-+)*%
X137150000Y-102380000D02*
X137150000Y-97498630D01*
X137150000Y-97498630D02*
X144478630Y-90170000D01*
X144478630Y-90170000D02*
X145610000Y-90170000D01*
%TD*%
%TA.AperFunction,Conductor*%
%TO.N,Earth*%
G36*
X187342539Y-75720185D02*
G01*
X187388294Y-75772989D01*
X187399500Y-75824500D01*
X187399500Y-115375500D01*
X187379815Y-115442539D01*
X187327011Y-115488294D01*
X187275500Y-115499500D01*
X115724500Y-115499500D01*
X115657461Y-115479815D01*
X115611706Y-115427011D01*
X115600500Y-115375500D01*
X115600500Y-112078711D01*
X117149500Y-112078711D01*
X117149500Y-112321288D01*
X117181161Y-112561785D01*
X117243947Y-112796104D01*
X117296369Y-112922661D01*
X117336776Y-113020212D01*
X117458064Y-113230289D01*
X117458066Y-113230292D01*
X117458067Y-113230293D01*
X117605733Y-113422736D01*
X117605739Y-113422743D01*
X117777256Y-113594260D01*
X117777262Y-113594265D01*
X117969711Y-113741936D01*
X118179788Y-113863224D01*
X118403900Y-113956054D01*
X118638211Y-114018838D01*
X118818586Y-114042584D01*
X118878711Y-114050500D01*
X118878712Y-114050500D01*
X119121289Y-114050500D01*
X119169388Y-114044167D01*
X119361789Y-114018838D01*
X119596100Y-113956054D01*
X119820212Y-113863224D01*
X120030289Y-113741936D01*
X120222738Y-113594265D01*
X120394265Y-113422738D01*
X120541936Y-113230289D01*
X120663224Y-113020212D01*
X120756054Y-112796100D01*
X120818838Y-112561789D01*
X120850500Y-112321288D01*
X120850500Y-112078712D01*
X120818838Y-111838211D01*
X120756054Y-111603900D01*
X120663224Y-111379788D01*
X120541936Y-111169711D01*
X120481018Y-111090321D01*
X120394266Y-110977263D01*
X120394260Y-110977256D01*
X120222743Y-110805739D01*
X120222736Y-110805733D01*
X120030293Y-110658067D01*
X120030292Y-110658066D01*
X120030289Y-110658064D01*
X119820212Y-110536776D01*
X119784291Y-110521897D01*
X119596104Y-110443947D01*
X119361785Y-110381161D01*
X119121289Y-110349500D01*
X119121288Y-110349500D01*
X118878712Y-110349500D01*
X118878711Y-110349500D01*
X118638214Y-110381161D01*
X118403895Y-110443947D01*
X118179794Y-110536773D01*
X118179785Y-110536777D01*
X117969706Y-110658067D01*
X117777263Y-110805733D01*
X117777256Y-110805739D01*
X117605739Y-110977256D01*
X117605733Y-110977263D01*
X117458067Y-111169706D01*
X117336777Y-111379785D01*
X117336773Y-111379794D01*
X117243947Y-111603895D01*
X117181161Y-111838214D01*
X117149500Y-112078711D01*
X115600500Y-112078711D01*
X115600500Y-103142133D01*
X118954500Y-103142133D01*
X118954500Y-103357866D01*
X118986200Y-103558008D01*
X118988246Y-103570926D01*
X119054908Y-103776089D01*
X119152843Y-103968299D01*
X119279641Y-104142821D01*
X119279643Y-104142823D01*
X119422003Y-104285183D01*
X119455488Y-104346506D01*
X119450504Y-104416198D01*
X119408632Y-104472131D01*
X119386728Y-104485245D01*
X119385885Y-104485637D01*
X119236654Y-104577684D01*
X119112684Y-104701654D01*
X119020643Y-104850875D01*
X119020641Y-104850880D01*
X118965494Y-105017302D01*
X118965493Y-105017309D01*
X118955000Y-105120013D01*
X118955000Y-105540000D01*
X120007291Y-105540000D01*
X119995548Y-105560339D01*
X119955000Y-105711667D01*
X119955000Y-105868333D01*
X119995548Y-106019661D01*
X120007291Y-106040000D01*
X118955001Y-106040000D01*
X118955001Y-106459986D01*
X118965494Y-106562697D01*
X119020641Y-106729119D01*
X119020643Y-106729124D01*
X119112684Y-106878345D01*
X119236654Y-107002315D01*
X119385875Y-107094356D01*
X119385880Y-107094358D01*
X119552302Y-107149505D01*
X119552309Y-107149506D01*
X119655019Y-107159999D01*
X120299999Y-107159999D01*
X120300000Y-107159998D01*
X120300000Y-106332709D01*
X120320339Y-106344452D01*
X120471667Y-106385000D01*
X120628333Y-106385000D01*
X120779661Y-106344452D01*
X120800000Y-106332709D01*
X120800000Y-107159999D01*
X121444972Y-107159999D01*
X121444984Y-107159998D01*
X121507897Y-107153571D01*
X121576590Y-107166340D01*
X121627475Y-107214221D01*
X121644500Y-107276929D01*
X121644500Y-109803542D01*
X121653273Y-109847644D01*
X121653273Y-109847647D01*
X121675522Y-109959501D01*
X121682946Y-109996827D01*
X121682949Y-109996837D01*
X121758364Y-110178907D01*
X121758371Y-110178920D01*
X121867860Y-110342781D01*
X121867863Y-110342785D01*
X122011537Y-110486459D01*
X122011559Y-110486479D01*
X124753427Y-113228347D01*
X124786912Y-113289670D01*
X124788921Y-113319166D01*
X124789500Y-113319166D01*
X124789500Y-113324038D01*
X124789500Y-113575962D01*
X124800774Y-113647140D01*
X124828910Y-113824785D01*
X124906760Y-114064383D01*
X125021132Y-114288848D01*
X125169201Y-114492649D01*
X125169205Y-114492654D01*
X125347345Y-114670794D01*
X125347350Y-114670798D01*
X125514623Y-114792328D01*
X125551155Y-114818870D01*
X125694184Y-114891747D01*
X125775616Y-114933239D01*
X125775618Y-114933239D01*
X125775621Y-114933241D01*
X126015215Y-115011090D01*
X126264038Y-115050500D01*
X126264039Y-115050500D01*
X126515961Y-115050500D01*
X126515962Y-115050500D01*
X126764785Y-115011090D01*
X127004379Y-114933241D01*
X127228845Y-114818870D01*
X127432656Y-114670793D01*
X127610793Y-114492656D01*
X127758870Y-114288845D01*
X127873241Y-114064379D01*
X127951090Y-113824785D01*
X127990500Y-113575962D01*
X127990500Y-113324038D01*
X127951090Y-113075215D01*
X127873241Y-112835621D01*
X127873239Y-112835618D01*
X127873239Y-112835616D01*
X127812090Y-112715606D01*
X127758870Y-112611155D01*
X127714380Y-112549920D01*
X127610798Y-112407350D01*
X127610794Y-112407345D01*
X127432654Y-112229205D01*
X127432649Y-112229201D01*
X127228848Y-112081132D01*
X127228847Y-112081131D01*
X127228845Y-112081130D01*
X127158747Y-112045413D01*
X127004383Y-111966760D01*
X126764785Y-111888910D01*
X126642236Y-111869500D01*
X126515962Y-111849500D01*
X126264038Y-111849500D01*
X126259166Y-111849500D01*
X126259166Y-111847988D01*
X126197346Y-111834982D01*
X126168347Y-111813427D01*
X125668311Y-111313391D01*
X125634826Y-111252068D01*
X125639810Y-111182376D01*
X125681682Y-111126443D01*
X125747146Y-111102026D01*
X125812286Y-111115224D01*
X125834303Y-111126443D01*
X125890776Y-111155218D01*
X125890778Y-111155218D01*
X125890781Y-111155220D01*
X125958487Y-111177219D01*
X126085465Y-111218477D01*
X126186557Y-111234488D01*
X126287648Y-111250500D01*
X126287649Y-111250500D01*
X126492351Y-111250500D01*
X126492352Y-111250500D01*
X126694534Y-111218477D01*
X126889219Y-111155220D01*
X127071610Y-111062287D01*
X127192877Y-110974181D01*
X127258683Y-110950702D01*
X127265762Y-110950500D01*
X132584218Y-110950500D01*
X132651257Y-110970185D01*
X132671899Y-110986819D01*
X134913181Y-113228102D01*
X134946666Y-113289425D01*
X134949500Y-113315783D01*
X134949500Y-114597870D01*
X134949501Y-114597876D01*
X134955908Y-114657483D01*
X135006202Y-114792328D01*
X135006206Y-114792335D01*
X135092452Y-114907544D01*
X135092455Y-114907547D01*
X135207664Y-114993793D01*
X135207671Y-114993797D01*
X135342517Y-115044091D01*
X135342516Y-115044091D01*
X135349444Y-115044835D01*
X135402127Y-115050500D01*
X137697872Y-115050499D01*
X137757483Y-115044091D01*
X137892331Y-114993796D01*
X138007546Y-114907546D01*
X138093796Y-114792331D01*
X138144091Y-114657483D01*
X138150500Y-114597873D01*
X138150500Y-114574500D01*
X138170185Y-114507461D01*
X138222989Y-114461706D01*
X138274500Y-114450500D01*
X138498542Y-114450500D01*
X138529566Y-114444328D01*
X138595188Y-114431275D01*
X138691836Y-114412051D01*
X138745165Y-114389961D01*
X138873914Y-114336632D01*
X139037782Y-114227139D01*
X139177139Y-114087782D01*
X139177139Y-114087780D01*
X139187347Y-114077573D01*
X139187348Y-114077570D01*
X141328102Y-111936818D01*
X141389425Y-111903333D01*
X141415783Y-111900499D01*
X142097871Y-111900499D01*
X142097872Y-111900499D01*
X142157483Y-111894091D01*
X142292331Y-111843796D01*
X142407546Y-111757546D01*
X142414230Y-111748616D01*
X142470159Y-111706746D01*
X142539851Y-111701759D01*
X142569792Y-111712441D01*
X142750968Y-111804755D01*
X142945582Y-111867990D01*
X143147683Y-111900000D01*
X143352317Y-111900000D01*
X143554417Y-111867990D01*
X143749031Y-111804755D01*
X143931349Y-111711859D01*
X143975921Y-111679474D01*
X143296447Y-111000000D01*
X143302661Y-111000000D01*
X143404394Y-110972741D01*
X143495606Y-110920080D01*
X143570080Y-110845606D01*
X143622741Y-110754394D01*
X143650000Y-110652661D01*
X143650000Y-110646447D01*
X144329474Y-111325921D01*
X144361859Y-111281349D01*
X144454755Y-111099031D01*
X144517990Y-110904417D01*
X144550000Y-110702317D01*
X144550000Y-110497682D01*
X144531624Y-110381665D01*
X144529322Y-110367133D01*
X145649500Y-110367133D01*
X145649500Y-111032866D01*
X145683245Y-111245922D01*
X145683246Y-111245926D01*
X145720057Y-111359219D01*
X145749909Y-111451091D01*
X145776814Y-111503895D01*
X145847843Y-111643299D01*
X145974641Y-111817821D01*
X146127179Y-111970359D01*
X146301701Y-112097157D01*
X146493911Y-112195092D01*
X146699074Y-112261754D01*
X146778973Y-112274408D01*
X146912134Y-112295500D01*
X146912139Y-112295500D01*
X147127866Y-112295500D01*
X147246230Y-112276752D01*
X147340926Y-112261754D01*
X147546089Y-112195092D01*
X147738299Y-112097157D01*
X147912821Y-111970359D01*
X148065359Y-111817821D01*
X148189682Y-111646704D01*
X148245012Y-111604040D01*
X148314626Y-111598061D01*
X148376420Y-111630667D01*
X148390315Y-111646702D01*
X148514641Y-111817821D01*
X148667179Y-111970359D01*
X148841701Y-112097157D01*
X149033911Y-112195092D01*
X149239074Y-112261754D01*
X149318973Y-112274408D01*
X149452134Y-112295500D01*
X149452139Y-112295500D01*
X149667866Y-112295500D01*
X149786230Y-112276752D01*
X149880926Y-112261754D01*
X150086089Y-112195092D01*
X150278299Y-112097157D01*
X150452821Y-111970359D01*
X150595186Y-111827993D01*
X150656505Y-111794511D01*
X150726197Y-111799495D01*
X150782131Y-111841366D01*
X150795248Y-111863277D01*
X150795640Y-111864118D01*
X150887684Y-112013345D01*
X151011654Y-112137315D01*
X151160875Y-112229356D01*
X151160880Y-112229358D01*
X151327302Y-112284505D01*
X151327309Y-112284506D01*
X151430019Y-112294999D01*
X151849999Y-112294999D01*
X151850000Y-112294998D01*
X151850000Y-111242709D01*
X151870339Y-111254452D01*
X152021667Y-111295000D01*
X152178333Y-111295000D01*
X152329661Y-111254452D01*
X152350000Y-111242709D01*
X152350000Y-112294999D01*
X152769972Y-112294999D01*
X152769986Y-112294998D01*
X152872697Y-112284505D01*
X153039119Y-112229358D01*
X153039124Y-112229356D01*
X153188345Y-112137315D01*
X153312315Y-112013345D01*
X153404356Y-111864124D01*
X153404358Y-111864119D01*
X153459505Y-111697697D01*
X153459506Y-111697690D01*
X153469999Y-111594986D01*
X153470000Y-111594973D01*
X153470000Y-110950000D01*
X152642709Y-110950000D01*
X152654452Y-110929661D01*
X152695000Y-110778333D01*
X152695000Y-110757648D01*
X155299500Y-110757648D01*
X155299500Y-110962352D01*
X155301374Y-110974182D01*
X155331522Y-111164534D01*
X155394781Y-111359223D01*
X155441590Y-111451089D01*
X155485756Y-111537770D01*
X155487715Y-111541613D01*
X155608028Y-111707213D01*
X155752786Y-111851971D01*
X155907749Y-111964556D01*
X155918390Y-111972287D01*
X155998971Y-112013345D01*
X156100776Y-112065218D01*
X156100778Y-112065218D01*
X156100781Y-112065220D01*
X156199070Y-112097156D01*
X156295465Y-112128477D01*
X156351266Y-112137315D01*
X156497648Y-112160500D01*
X156497649Y-112160500D01*
X156702351Y-112160500D01*
X156702352Y-112160500D01*
X156904534Y-112128477D01*
X157099219Y-112065220D01*
X157281610Y-111972287D01*
X157402877Y-111884181D01*
X157468683Y-111860702D01*
X157475762Y-111860500D01*
X159274238Y-111860500D01*
X159341277Y-111880185D01*
X159347119Y-111884179D01*
X159468390Y-111972287D01*
X159548971Y-112013345D01*
X159650776Y-112065218D01*
X159650778Y-112065218D01*
X159650781Y-112065220D01*
X159749070Y-112097156D01*
X159845465Y-112128477D01*
X159901266Y-112137315D01*
X160047648Y-112160500D01*
X160047649Y-112160500D01*
X160252351Y-112160500D01*
X160252352Y-112160500D01*
X160454534Y-112128477D01*
X160649219Y-112065220D01*
X160831610Y-111972287D01*
X160931105Y-111900000D01*
X160997213Y-111851971D01*
X160997215Y-111851968D01*
X160997219Y-111851966D01*
X161141966Y-111707219D01*
X161141968Y-111707215D01*
X161141971Y-111707213D01*
X161217031Y-111603900D01*
X161262287Y-111541610D01*
X161355220Y-111359219D01*
X161418477Y-111164534D01*
X161441925Y-111016483D01*
X161471854Y-110953350D01*
X161476699Y-110948219D01*
X163598102Y-108826819D01*
X163659425Y-108793334D01*
X163685783Y-108790500D01*
X164904238Y-108790500D01*
X164971277Y-108810185D01*
X164977119Y-108814179D01*
X165098390Y-108902287D01*
X165189840Y-108948883D01*
X165191080Y-108949515D01*
X165241876Y-108997490D01*
X165258671Y-109065311D01*
X165236134Y-109131446D01*
X165191080Y-109170485D01*
X165098386Y-109217715D01*
X164932786Y-109338028D01*
X164788028Y-109482786D01*
X164667715Y-109648386D01*
X164574781Y-109830776D01*
X164511522Y-110025465D01*
X164487302Y-110178386D01*
X164479500Y-110227648D01*
X164479500Y-110432352D01*
X164481599Y-110445606D01*
X164511522Y-110634534D01*
X164574781Y-110829223D01*
X164632230Y-110941971D01*
X164661797Y-111000000D01*
X164667715Y-111011613D01*
X164788028Y-111177213D01*
X164932786Y-111321971D01*
X165098385Y-111442284D01*
X165098387Y-111442285D01*
X165098390Y-111442287D01*
X165191080Y-111489515D01*
X165191630Y-111489795D01*
X165242426Y-111537770D01*
X165259221Y-111605591D01*
X165236684Y-111671725D01*
X165191630Y-111710765D01*
X165098644Y-111758143D01*
X165054077Y-111790523D01*
X165054077Y-111790524D01*
X165733554Y-112470000D01*
X165727339Y-112470000D01*
X165625606Y-112497259D01*
X165534394Y-112549920D01*
X165459920Y-112624394D01*
X165407259Y-112715606D01*
X165380000Y-112817339D01*
X165380000Y-112823553D01*
X164700524Y-112144077D01*
X164700523Y-112144077D01*
X164668143Y-112188644D01*
X164575244Y-112370968D01*
X164512009Y-112565582D01*
X164480000Y-112767682D01*
X164480000Y-112972317D01*
X164512009Y-113174417D01*
X164575244Y-113369031D01*
X164668141Y-113551350D01*
X164668147Y-113551359D01*
X164700523Y-113595921D01*
X164700524Y-113595922D01*
X165380000Y-112916446D01*
X165380000Y-112922661D01*
X165407259Y-113024394D01*
X165459920Y-113115606D01*
X165534394Y-113190080D01*
X165625606Y-113242741D01*
X165727339Y-113270000D01*
X165733553Y-113270000D01*
X165054076Y-113949474D01*
X165098650Y-113981859D01*
X165280968Y-114074755D01*
X165475582Y-114137990D01*
X165677683Y-114170000D01*
X165882317Y-114170000D01*
X166084417Y-114137990D01*
X166279031Y-114074755D01*
X166461349Y-113981859D01*
X166505921Y-113949474D01*
X165826447Y-113270000D01*
X165832661Y-113270000D01*
X165934394Y-113242741D01*
X166025606Y-113190080D01*
X166100080Y-113115606D01*
X166152741Y-113024394D01*
X166180000Y-112922661D01*
X166180000Y-112916446D01*
X166859474Y-113595921D01*
X166891859Y-113551349D01*
X166984755Y-113369031D01*
X167047990Y-113174417D01*
X167080000Y-112972317D01*
X167080000Y-112767682D01*
X167060140Y-112642294D01*
X167069094Y-112573001D01*
X167114090Y-112519549D01*
X167180842Y-112498909D01*
X167248156Y-112517634D01*
X167270294Y-112535215D01*
X168242860Y-113507781D01*
X168242861Y-113507782D01*
X168382218Y-113647139D01*
X168546086Y-113756632D01*
X168652745Y-113800811D01*
X168728164Y-113832051D01*
X168921454Y-113870499D01*
X168921457Y-113870500D01*
X168921459Y-113870500D01*
X169118540Y-113870500D01*
X172524238Y-113870500D01*
X172591277Y-113890185D01*
X172597119Y-113894179D01*
X172718390Y-113982287D01*
X172834607Y-114041503D01*
X172900776Y-114075218D01*
X172900778Y-114075218D01*
X172900781Y-114075220D01*
X173005137Y-114109127D01*
X173095465Y-114138477D01*
X173196557Y-114154488D01*
X173297648Y-114170500D01*
X173297649Y-114170500D01*
X173502351Y-114170500D01*
X173502352Y-114170500D01*
X173704534Y-114138477D01*
X173899219Y-114075220D01*
X174081610Y-113982287D01*
X174208379Y-113890185D01*
X174247213Y-113861971D01*
X174247215Y-113861968D01*
X174247219Y-113861966D01*
X174391966Y-113717219D01*
X174391968Y-113717215D01*
X174391971Y-113717213D01*
X174446665Y-113641932D01*
X174512287Y-113551610D01*
X174605220Y-113369219D01*
X174668477Y-113174534D01*
X174700500Y-112972352D01*
X174700500Y-112767648D01*
X174680646Y-112642294D01*
X174668477Y-112565465D01*
X174617100Y-112407344D01*
X174605220Y-112370781D01*
X174605218Y-112370778D01*
X174605218Y-112370776D01*
X174512287Y-112188390D01*
X174409953Y-112047538D01*
X174409952Y-112047535D01*
X174391971Y-112022787D01*
X174391967Y-112022782D01*
X174347896Y-111978711D01*
X181949500Y-111978711D01*
X181949500Y-112221288D01*
X181969180Y-112370781D01*
X181981162Y-112461789D01*
X182010961Y-112573001D01*
X182043947Y-112696104D01*
X182101735Y-112835616D01*
X182136776Y-112920212D01*
X182258064Y-113130289D01*
X182258066Y-113130292D01*
X182258067Y-113130293D01*
X182405733Y-113322736D01*
X182405739Y-113322743D01*
X182577256Y-113494260D01*
X182577263Y-113494266D01*
X182683731Y-113575961D01*
X182769711Y-113641936D01*
X182979788Y-113763224D01*
X183203900Y-113856054D01*
X183438211Y-113918838D01*
X183618586Y-113942584D01*
X183678711Y-113950500D01*
X183678712Y-113950500D01*
X183921289Y-113950500D01*
X183969388Y-113944167D01*
X184161789Y-113918838D01*
X184396100Y-113856054D01*
X184620212Y-113763224D01*
X184830289Y-113641936D01*
X185022738Y-113494265D01*
X185194265Y-113322738D01*
X185341936Y-113130289D01*
X185463224Y-112920212D01*
X185556054Y-112696100D01*
X185618838Y-112461789D01*
X185650500Y-112221288D01*
X185650500Y-111978712D01*
X185618838Y-111738211D01*
X185556054Y-111503900D01*
X185463224Y-111279788D01*
X185341936Y-111069711D01*
X185194265Y-110877262D01*
X185194260Y-110877256D01*
X185022743Y-110705739D01*
X185022736Y-110705733D01*
X184830293Y-110558067D01*
X184830292Y-110558066D01*
X184830289Y-110558064D01*
X184620212Y-110436776D01*
X184614032Y-110434216D01*
X184396104Y-110343947D01*
X184161785Y-110281161D01*
X183921289Y-110249500D01*
X183921288Y-110249500D01*
X183678712Y-110249500D01*
X183678711Y-110249500D01*
X183438214Y-110281161D01*
X183203895Y-110343947D01*
X182979794Y-110436773D01*
X182979785Y-110436777D01*
X182769706Y-110558067D01*
X182577263Y-110705733D01*
X182577256Y-110705739D01*
X182405739Y-110877256D01*
X182405733Y-110877263D01*
X182258067Y-111069706D01*
X182136777Y-111279785D01*
X182136773Y-111279794D01*
X182043947Y-111503895D01*
X181981161Y-111738214D01*
X181949500Y-111978711D01*
X174347896Y-111978711D01*
X174247213Y-111878028D01*
X174081614Y-111757715D01*
X174043335Y-111738211D01*
X173988917Y-111710483D01*
X173938123Y-111662511D01*
X173921328Y-111594690D01*
X173943865Y-111528555D01*
X173988917Y-111489516D01*
X174081610Y-111442287D01*
X174202877Y-111354181D01*
X174268683Y-111330702D01*
X174275762Y-111330500D01*
X174577549Y-111330500D01*
X174648494Y-111316387D01*
X174733574Y-111299464D01*
X174770842Y-111292051D01*
X174824171Y-111269961D01*
X174952920Y-111216632D01*
X175116788Y-111107139D01*
X175256145Y-110967782D01*
X175256146Y-110967779D01*
X175263212Y-110960714D01*
X175263215Y-110960710D01*
X180342379Y-105881545D01*
X180403700Y-105848062D01*
X180473392Y-105853046D01*
X180529325Y-105894918D01*
X180547987Y-105930907D01*
X180604908Y-106106089D01*
X180702843Y-106298299D01*
X180829641Y-106472821D01*
X180982179Y-106625359D01*
X181156701Y-106752157D01*
X181348911Y-106850092D01*
X181554074Y-106916754D01*
X181633973Y-106929408D01*
X181767134Y-106950500D01*
X181767139Y-106950500D01*
X182432866Y-106950500D01*
X182551230Y-106931752D01*
X182645926Y-106916754D01*
X182851089Y-106850092D01*
X183043299Y-106752157D01*
X183217821Y-106625359D01*
X183370359Y-106472821D01*
X183497157Y-106298299D01*
X183595092Y-106106089D01*
X183661754Y-105900926D01*
X183681845Y-105774076D01*
X183695500Y-105687866D01*
X183695500Y-105472133D01*
X183661754Y-105259077D01*
X183661754Y-105259074D01*
X183595092Y-105053911D01*
X183497157Y-104861701D01*
X183370359Y-104687179D01*
X183217821Y-104534641D01*
X183046704Y-104410317D01*
X183004040Y-104354988D01*
X182998061Y-104285374D01*
X183030667Y-104223580D01*
X183046702Y-104209684D01*
X183217821Y-104085359D01*
X183370359Y-103932821D01*
X183497157Y-103758299D01*
X183595092Y-103566089D01*
X183661754Y-103360926D01*
X183680518Y-103242452D01*
X183695500Y-103147866D01*
X183695500Y-102932133D01*
X183662520Y-102723911D01*
X183661754Y-102719074D01*
X183595092Y-102513911D01*
X183497157Y-102321701D01*
X183370359Y-102147179D01*
X183228375Y-102005195D01*
X183194890Y-101943872D01*
X183199874Y-101874180D01*
X183241746Y-101818247D01*
X183263657Y-101805129D01*
X183264322Y-101804817D01*
X183264334Y-101804814D01*
X183413656Y-101712712D01*
X183537712Y-101588656D01*
X183629814Y-101439334D01*
X183684999Y-101272797D01*
X183695500Y-101170009D01*
X183695499Y-99829992D01*
X183695433Y-99829350D01*
X183684999Y-99727203D01*
X183684998Y-99727200D01*
X183660445Y-99653104D01*
X183629814Y-99560666D01*
X183537712Y-99411344D01*
X183413656Y-99287288D01*
X183264334Y-99195186D01*
X183185494Y-99169060D01*
X183128051Y-99129288D01*
X183101228Y-99064772D01*
X183100500Y-99051355D01*
X183100500Y-98386456D01*
X183100499Y-98386454D01*
X183062053Y-98193174D01*
X183062052Y-98193172D01*
X183062051Y-98193165D01*
X183059821Y-98187782D01*
X183034227Y-98125992D01*
X182986632Y-98011086D01*
X182986628Y-98011080D01*
X182877139Y-97847217D01*
X182734686Y-97704764D01*
X182734655Y-97704735D01*
X181201717Y-96171797D01*
X181194010Y-96157682D01*
X182300000Y-96157682D01*
X182300000Y-96362317D01*
X182332009Y-96564417D01*
X182395244Y-96759031D01*
X182488141Y-96941350D01*
X182488147Y-96941359D01*
X182520523Y-96985921D01*
X182520524Y-96985922D01*
X183200000Y-96306446D01*
X183200000Y-96312661D01*
X183227259Y-96414394D01*
X183279920Y-96505606D01*
X183354394Y-96580080D01*
X183445606Y-96632741D01*
X183547339Y-96660000D01*
X183553553Y-96660000D01*
X182874076Y-97339474D01*
X182918650Y-97371859D01*
X183100968Y-97464755D01*
X183295582Y-97527990D01*
X183497683Y-97560000D01*
X183702317Y-97560000D01*
X183904417Y-97527990D01*
X184099031Y-97464755D01*
X184281349Y-97371859D01*
X184325921Y-97339474D01*
X183646447Y-96660000D01*
X183652661Y-96660000D01*
X183754394Y-96632741D01*
X183845606Y-96580080D01*
X183920080Y-96505606D01*
X183972741Y-96414394D01*
X184000000Y-96312661D01*
X184000000Y-96306447D01*
X184679474Y-96985921D01*
X184711859Y-96941349D01*
X184804755Y-96759031D01*
X184867990Y-96564417D01*
X184900000Y-96362317D01*
X184900000Y-96157682D01*
X184867990Y-95955582D01*
X184804755Y-95760968D01*
X184711859Y-95578650D01*
X184679474Y-95534077D01*
X184679474Y-95534076D01*
X184000000Y-96213551D01*
X184000000Y-96207339D01*
X183972741Y-96105606D01*
X183920080Y-96014394D01*
X183845606Y-95939920D01*
X183754394Y-95887259D01*
X183652661Y-95860000D01*
X183646446Y-95860000D01*
X184325922Y-95180524D01*
X184325921Y-95180523D01*
X184281359Y-95148147D01*
X184281350Y-95148141D01*
X184099031Y-95055244D01*
X183904417Y-94992009D01*
X183702317Y-94960000D01*
X183497683Y-94960000D01*
X183295582Y-94992009D01*
X183100968Y-95055244D01*
X182918644Y-95148143D01*
X182874077Y-95180523D01*
X182874077Y-95180524D01*
X183553554Y-95860000D01*
X183547339Y-95860000D01*
X183445606Y-95887259D01*
X183354394Y-95939920D01*
X183279920Y-96014394D01*
X183227259Y-96105606D01*
X183200000Y-96207339D01*
X183200000Y-96213553D01*
X182520524Y-95534077D01*
X182520523Y-95534077D01*
X182488143Y-95578644D01*
X182395244Y-95760968D01*
X182332009Y-95955582D01*
X182300000Y-96157682D01*
X181194010Y-96157682D01*
X181168232Y-96110474D01*
X181166925Y-96103513D01*
X181143477Y-95955466D01*
X181143477Y-95955465D01*
X181107664Y-95845244D01*
X181080220Y-95760781D01*
X181080218Y-95760778D01*
X181080218Y-95760776D01*
X181028120Y-95658530D01*
X180987287Y-95578390D01*
X180955092Y-95534077D01*
X180866971Y-95412786D01*
X180722213Y-95268028D01*
X180556613Y-95147715D01*
X180556612Y-95147714D01*
X180556610Y-95147713D01*
X180499653Y-95118691D01*
X180374223Y-95054781D01*
X180179534Y-94991522D01*
X180004995Y-94963878D01*
X179977352Y-94959500D01*
X179772648Y-94959500D01*
X179748329Y-94963351D01*
X179570465Y-94991522D01*
X179375776Y-95054781D01*
X179193386Y-95147715D01*
X179027786Y-95268028D01*
X178883028Y-95412786D01*
X178762715Y-95578386D01*
X178669781Y-95760776D01*
X178606522Y-95955465D01*
X178574500Y-96157648D01*
X178574500Y-96362351D01*
X178606522Y-96564534D01*
X178669781Y-96759223D01*
X178721563Y-96860849D01*
X178762585Y-96941359D01*
X178762715Y-96941613D01*
X178883028Y-97107213D01*
X179027786Y-97251971D01*
X179159477Y-97347648D01*
X179193390Y-97372287D01*
X179301045Y-97427140D01*
X179375776Y-97465218D01*
X179375778Y-97465218D01*
X179375781Y-97465220D01*
X179480137Y-97499127D01*
X179570465Y-97528477D01*
X179631861Y-97538201D01*
X179718513Y-97551925D01*
X179781648Y-97581854D01*
X179786797Y-97586717D01*
X181063181Y-98863101D01*
X181077884Y-98890028D01*
X181094477Y-98915847D01*
X181095368Y-98922047D01*
X181096666Y-98924424D01*
X181099500Y-98950782D01*
X181099500Y-99051355D01*
X181079815Y-99118394D01*
X181027011Y-99164149D01*
X181014505Y-99169061D01*
X180935666Y-99195186D01*
X180786342Y-99287289D01*
X180662289Y-99411342D01*
X180570187Y-99560663D01*
X180570186Y-99560666D01*
X180515001Y-99727203D01*
X180515001Y-99727204D01*
X180515000Y-99727204D01*
X180504500Y-99829983D01*
X180504500Y-101170001D01*
X180504501Y-101170018D01*
X180515000Y-101272796D01*
X180515001Y-101272799D01*
X180564284Y-101421522D01*
X180570186Y-101439334D01*
X180662288Y-101588656D01*
X180786344Y-101712712D01*
X180935666Y-101804814D01*
X180935668Y-101804814D01*
X180935669Y-101804815D01*
X180936348Y-101805132D01*
X180936735Y-101805473D01*
X180941813Y-101808605D01*
X180941277Y-101809472D01*
X180988787Y-101851304D01*
X181007939Y-101918498D01*
X180987723Y-101985379D01*
X180971625Y-102005195D01*
X180829640Y-102147180D01*
X180702843Y-102321700D01*
X180604909Y-102513908D01*
X180538245Y-102719077D01*
X180518810Y-102841783D01*
X180488880Y-102904918D01*
X180484018Y-102910066D01*
X176413181Y-106980904D01*
X176351858Y-107014389D01*
X176282166Y-107009405D01*
X176226233Y-106967533D01*
X176201816Y-106902069D01*
X176201500Y-106893223D01*
X176201500Y-99205457D01*
X176163052Y-99012171D01*
X176163051Y-99012170D01*
X176163051Y-99012166D01*
X176137625Y-98950782D01*
X176087635Y-98830093D01*
X176087628Y-98830080D01*
X175978139Y-98666219D01*
X175978136Y-98666215D01*
X175835686Y-98523765D01*
X175835655Y-98523736D01*
X173469567Y-96157648D01*
X174849500Y-96157648D01*
X174849500Y-96362351D01*
X174881522Y-96564534D01*
X174944781Y-96759223D01*
X174996563Y-96860849D01*
X175037585Y-96941359D01*
X175037715Y-96941613D01*
X175158028Y-97107213D01*
X175302786Y-97251971D01*
X175434477Y-97347648D01*
X175468390Y-97372287D01*
X175576045Y-97427140D01*
X175650776Y-97465218D01*
X175650778Y-97465218D01*
X175650781Y-97465220D01*
X175755137Y-97499127D01*
X175845465Y-97528477D01*
X175906860Y-97538201D01*
X176047648Y-97560500D01*
X176047649Y-97560500D01*
X176252351Y-97560500D01*
X176252352Y-97560500D01*
X176454534Y-97528477D01*
X176649219Y-97465220D01*
X176831610Y-97372287D01*
X176947921Y-97287783D01*
X176997213Y-97251971D01*
X176997215Y-97251968D01*
X176997219Y-97251966D01*
X177141966Y-97107219D01*
X177141968Y-97107215D01*
X177141971Y-97107213D01*
X177221798Y-96997339D01*
X177262287Y-96941610D01*
X177355220Y-96759219D01*
X177418477Y-96564534D01*
X177450500Y-96362352D01*
X177450500Y-96157648D01*
X177441926Y-96103513D01*
X177418477Y-95955465D01*
X177382664Y-95845244D01*
X177355220Y-95760781D01*
X177355218Y-95760778D01*
X177355218Y-95760776D01*
X177303120Y-95658530D01*
X177262287Y-95578390D01*
X177230092Y-95534077D01*
X177141971Y-95412786D01*
X176997213Y-95268028D01*
X176831613Y-95147715D01*
X176831612Y-95147714D01*
X176831610Y-95147713D01*
X176774653Y-95118691D01*
X176649223Y-95054781D01*
X176454534Y-94991522D01*
X176279995Y-94963878D01*
X176252352Y-94959500D01*
X176047648Y-94959500D01*
X176023329Y-94963351D01*
X175845465Y-94991522D01*
X175650776Y-95054781D01*
X175468386Y-95147715D01*
X175302786Y-95268028D01*
X175158028Y-95412786D01*
X175037715Y-95578386D01*
X174944781Y-95760776D01*
X174881522Y-95955465D01*
X174849500Y-96157648D01*
X173469567Y-96157648D01*
X170327101Y-93015182D01*
X170293616Y-92953859D01*
X170298600Y-92884167D01*
X170340472Y-92828234D01*
X170405936Y-92803817D01*
X170414782Y-92803501D01*
X174270541Y-92803501D01*
X174301565Y-92797329D01*
X174367187Y-92784276D01*
X174463835Y-92765052D01*
X174517164Y-92742962D01*
X174645913Y-92689633D01*
X174809781Y-92580140D01*
X174949138Y-92440783D01*
X174949138Y-92440781D01*
X174959346Y-92430574D01*
X174959347Y-92430571D01*
X179963204Y-87426715D01*
X180024525Y-87393232D01*
X180031475Y-87391926D01*
X180179534Y-87368477D01*
X180374219Y-87305220D01*
X180556610Y-87212287D01*
X180649590Y-87144732D01*
X180722213Y-87091971D01*
X180722215Y-87091968D01*
X180722219Y-87091966D01*
X180866966Y-86947219D01*
X180866968Y-86947215D01*
X180866971Y-86947213D01*
X180948391Y-86835146D01*
X180987287Y-86781610D01*
X181080220Y-86599219D01*
X181143477Y-86404534D01*
X181175500Y-86202352D01*
X181175500Y-85997648D01*
X181143477Y-85795466D01*
X181142610Y-85792799D01*
X181080218Y-85600776D01*
X181029558Y-85501351D01*
X180987287Y-85418390D01*
X180927715Y-85336395D01*
X180866971Y-85252786D01*
X180722213Y-85108028D01*
X180556613Y-84987715D01*
X180556612Y-84987714D01*
X180556610Y-84987713D01*
X180499653Y-84958691D01*
X180374223Y-84894781D01*
X180179534Y-84831522D01*
X179991690Y-84801771D01*
X179977352Y-84799500D01*
X179772648Y-84799500D01*
X179758310Y-84801771D01*
X179570465Y-84831522D01*
X179375776Y-84894781D01*
X179193386Y-84987715D01*
X179027786Y-85108028D01*
X178883028Y-85252786D01*
X178762715Y-85418386D01*
X178669781Y-85600778D01*
X178606522Y-85795468D01*
X178583073Y-85943514D01*
X178553143Y-86006649D01*
X178548281Y-86011796D01*
X173793898Y-90766182D01*
X173732575Y-90799667D01*
X173706217Y-90802501D01*
X168824500Y-90802501D01*
X168757461Y-90782816D01*
X168711706Y-90730012D01*
X168700500Y-90678501D01*
X168700500Y-90187180D01*
X168700983Y-90185533D01*
X168700544Y-90183874D01*
X168710793Y-90152125D01*
X168720185Y-90120141D01*
X168721649Y-90118495D01*
X168722009Y-90117383D01*
X168731130Y-90107843D01*
X168745825Y-90091335D01*
X168747964Y-90089578D01*
X168857546Y-90007546D01*
X168872921Y-89987007D01*
X168884519Y-89977487D01*
X168903419Y-89969457D01*
X168919856Y-89957152D01*
X168934922Y-89956073D01*
X168948826Y-89950167D01*
X168969067Y-89953630D01*
X168989547Y-89952165D01*
X169016316Y-89961715D01*
X169017695Y-89961951D01*
X169018154Y-89962370D01*
X169019489Y-89962847D01*
X169200776Y-90055218D01*
X169200778Y-90055218D01*
X169200781Y-90055220D01*
X169254927Y-90072813D01*
X169395465Y-90118477D01*
X169496557Y-90134488D01*
X169597648Y-90150500D01*
X169597649Y-90150500D01*
X169802351Y-90150500D01*
X169802352Y-90150500D01*
X170004534Y-90118477D01*
X170199219Y-90055220D01*
X170381610Y-89962287D01*
X170514874Y-89865466D01*
X170547213Y-89841971D01*
X170547215Y-89841968D01*
X170547219Y-89841966D01*
X170691966Y-89697219D01*
X170691968Y-89697215D01*
X170691971Y-89697213D01*
X170772092Y-89586934D01*
X170812287Y-89531610D01*
X170905220Y-89349219D01*
X170968477Y-89154534D01*
X170991925Y-89006483D01*
X171021854Y-88943350D01*
X171026699Y-88938219D01*
X173967272Y-85997648D01*
X174849500Y-85997648D01*
X174849500Y-86202351D01*
X174881522Y-86404534D01*
X174944781Y-86599223D01*
X175037715Y-86781613D01*
X175158028Y-86947213D01*
X175302786Y-87091971D01*
X175422680Y-87179077D01*
X175468390Y-87212287D01*
X175584607Y-87271503D01*
X175650776Y-87305218D01*
X175650778Y-87305218D01*
X175650781Y-87305220D01*
X175682420Y-87315500D01*
X175845465Y-87368477D01*
X175946557Y-87384488D01*
X176047648Y-87400500D01*
X176047649Y-87400500D01*
X176252351Y-87400500D01*
X176252352Y-87400500D01*
X176454534Y-87368477D01*
X176649219Y-87305220D01*
X176831610Y-87212287D01*
X176924590Y-87144732D01*
X176997213Y-87091971D01*
X176997215Y-87091968D01*
X176997219Y-87091966D01*
X177141966Y-86947219D01*
X177141968Y-86947215D01*
X177141971Y-86947213D01*
X177223391Y-86835146D01*
X177262287Y-86781610D01*
X177355220Y-86599219D01*
X177418477Y-86404534D01*
X177450500Y-86202352D01*
X177450500Y-85997648D01*
X177418477Y-85795466D01*
X177417610Y-85792799D01*
X177355218Y-85600776D01*
X177304558Y-85501351D01*
X177262287Y-85418390D01*
X177202715Y-85336395D01*
X177141971Y-85252786D01*
X176997213Y-85108028D01*
X176831613Y-84987715D01*
X176831612Y-84987714D01*
X176831610Y-84987713D01*
X176774653Y-84958691D01*
X176649223Y-84894781D01*
X176454534Y-84831522D01*
X176266690Y-84801771D01*
X176252352Y-84799500D01*
X176047648Y-84799500D01*
X176033310Y-84801771D01*
X175845465Y-84831522D01*
X175650776Y-84894781D01*
X175468386Y-84987715D01*
X175302786Y-85108028D01*
X175158028Y-85252786D01*
X175037715Y-85418386D01*
X174944781Y-85600776D01*
X174881522Y-85795465D01*
X174849500Y-85997648D01*
X173967272Y-85997648D01*
X175833398Y-84131523D01*
X177527137Y-82437784D01*
X177527137Y-82437783D01*
X177527140Y-82437781D01*
X177636632Y-82273914D01*
X177712052Y-82091835D01*
X177743919Y-81931626D01*
X177776303Y-81869717D01*
X177837019Y-81835143D01*
X177906788Y-81838882D01*
X177953217Y-81868138D01*
X182273281Y-86188202D01*
X182306766Y-86249525D01*
X182308073Y-86256484D01*
X182331522Y-86404531D01*
X182394781Y-86599221D01*
X182487715Y-86781613D01*
X182608028Y-86947213D01*
X182752786Y-87091971D01*
X182872680Y-87179077D01*
X182918390Y-87212287D01*
X183034607Y-87271503D01*
X183100776Y-87305218D01*
X183100778Y-87305218D01*
X183100781Y-87305220D01*
X183132420Y-87315500D01*
X183295465Y-87368477D01*
X183396557Y-87384488D01*
X183497648Y-87400500D01*
X183497649Y-87400500D01*
X183702351Y-87400500D01*
X183702352Y-87400500D01*
X183904534Y-87368477D01*
X184099219Y-87305220D01*
X184281610Y-87212287D01*
X184374590Y-87144732D01*
X184447213Y-87091971D01*
X184447215Y-87091968D01*
X184447219Y-87091966D01*
X184591966Y-86947219D01*
X184591968Y-86947215D01*
X184591971Y-86947213D01*
X184673391Y-86835146D01*
X184712287Y-86781610D01*
X184805220Y-86599219D01*
X184868477Y-86404534D01*
X184900500Y-86202352D01*
X184900500Y-85997648D01*
X184868477Y-85795466D01*
X184867610Y-85792799D01*
X184805218Y-85600776D01*
X184754558Y-85501351D01*
X184712287Y-85418390D01*
X184652715Y-85336395D01*
X184591971Y-85252786D01*
X184447213Y-85108028D01*
X184281613Y-84987715D01*
X184281612Y-84987714D01*
X184281610Y-84987713D01*
X184099219Y-84894780D01*
X183904534Y-84831523D01*
X183904531Y-84831522D01*
X183904532Y-84831522D01*
X183756484Y-84808073D01*
X183693350Y-84778143D01*
X183688202Y-84773281D01*
X178234209Y-79319289D01*
X178234206Y-79319285D01*
X178234206Y-79319286D01*
X178227140Y-79312220D01*
X178227139Y-79312218D01*
X178087782Y-79172861D01*
X177991929Y-79108814D01*
X177982728Y-79098824D01*
X177973756Y-79094006D01*
X177956196Y-79070014D01*
X177952407Y-79065900D01*
X177951346Y-79063989D01*
X177922157Y-79006701D01*
X177865494Y-78928711D01*
X182049500Y-78928711D01*
X182049500Y-79171288D01*
X182080146Y-79404077D01*
X182081162Y-79411789D01*
X182102119Y-79490000D01*
X182143947Y-79646104D01*
X182236773Y-79870205D01*
X182236776Y-79870212D01*
X182358064Y-80080289D01*
X182358066Y-80080292D01*
X182358067Y-80080293D01*
X182505733Y-80272736D01*
X182505739Y-80272743D01*
X182677256Y-80444260D01*
X182677263Y-80444266D01*
X182765272Y-80511797D01*
X182869711Y-80591936D01*
X183079788Y-80713224D01*
X183303900Y-80806054D01*
X183538211Y-80868838D01*
X183718586Y-80892584D01*
X183778711Y-80900500D01*
X183778712Y-80900500D01*
X184021289Y-80900500D01*
X184075986Y-80893299D01*
X184261789Y-80868838D01*
X184496100Y-80806054D01*
X184720212Y-80713224D01*
X184930289Y-80591936D01*
X185122738Y-80444265D01*
X185294265Y-80272738D01*
X185441936Y-80080289D01*
X185563224Y-79870212D01*
X185656054Y-79646100D01*
X185718838Y-79411789D01*
X185750500Y-79171288D01*
X185750500Y-78928712D01*
X185743917Y-78878712D01*
X185735976Y-78818390D01*
X185718838Y-78688211D01*
X185656054Y-78453900D01*
X185563224Y-78229788D01*
X185441936Y-78019711D01*
X185349483Y-77899223D01*
X185294266Y-77827263D01*
X185294260Y-77827256D01*
X185122743Y-77655739D01*
X185122736Y-77655733D01*
X184930293Y-77508067D01*
X184930292Y-77508066D01*
X184930289Y-77508064D01*
X184758661Y-77408974D01*
X184720214Y-77386777D01*
X184720205Y-77386773D01*
X184496104Y-77293947D01*
X184261785Y-77231161D01*
X184021289Y-77199500D01*
X184021288Y-77199500D01*
X183778712Y-77199500D01*
X183778711Y-77199500D01*
X183538214Y-77231161D01*
X183303895Y-77293947D01*
X183079794Y-77386773D01*
X183079785Y-77386777D01*
X182956308Y-77458067D01*
X182879605Y-77502352D01*
X182869706Y-77508067D01*
X182677263Y-77655733D01*
X182677256Y-77655739D01*
X182505739Y-77827256D01*
X182505733Y-77827263D01*
X182358067Y-78019706D01*
X182236777Y-78229785D01*
X182236773Y-78229794D01*
X182143947Y-78453895D01*
X182081161Y-78688214D01*
X182049500Y-78928711D01*
X177865494Y-78928711D01*
X177795359Y-78832179D01*
X177642821Y-78679641D01*
X177468299Y-78552843D01*
X177276089Y-78454908D01*
X177070926Y-78388246D01*
X177070924Y-78388245D01*
X177070922Y-78388245D01*
X176857866Y-78354500D01*
X176857861Y-78354500D01*
X176642139Y-78354500D01*
X176642134Y-78354500D01*
X176429077Y-78388245D01*
X176429074Y-78388246D01*
X176317497Y-78424500D01*
X176223908Y-78454909D01*
X176031700Y-78552843D01*
X175857180Y-78679640D01*
X175714816Y-78822004D01*
X175653493Y-78855488D01*
X175583801Y-78850504D01*
X175527868Y-78808632D01*
X175514748Y-78786716D01*
X175514356Y-78785876D01*
X175422315Y-78636654D01*
X175298345Y-78512684D01*
X175149124Y-78420643D01*
X175149119Y-78420641D01*
X174982697Y-78365494D01*
X174982690Y-78365493D01*
X174879986Y-78355000D01*
X174460000Y-78355000D01*
X174460000Y-79407290D01*
X174439661Y-79395548D01*
X174288333Y-79355000D01*
X174131667Y-79355000D01*
X173980339Y-79395548D01*
X173960000Y-79407290D01*
X173960000Y-78355000D01*
X173540028Y-78355000D01*
X173540012Y-78355001D01*
X173437302Y-78365494D01*
X173270880Y-78420641D01*
X173270875Y-78420643D01*
X173121654Y-78512684D01*
X172997684Y-78636654D01*
X172905643Y-78785875D01*
X172905641Y-78785880D01*
X172850494Y-78952302D01*
X172850493Y-78952309D01*
X172840000Y-79055013D01*
X172840000Y-79700000D01*
X173667291Y-79700000D01*
X173655548Y-79720339D01*
X173615000Y-79871667D01*
X173615000Y-80028333D01*
X173655548Y-80179661D01*
X173667291Y-80200000D01*
X172840001Y-80200000D01*
X172840001Y-80844986D01*
X172850494Y-80947697D01*
X172905641Y-81114119D01*
X172905643Y-81114124D01*
X172997684Y-81263345D01*
X173121654Y-81387315D01*
X173270875Y-81479356D01*
X173270880Y-81479358D01*
X173437302Y-81534505D01*
X173437309Y-81534506D01*
X173540019Y-81544999D01*
X173959999Y-81544999D01*
X173960000Y-81544998D01*
X173960000Y-80492709D01*
X173980339Y-80504452D01*
X174131667Y-80545000D01*
X174288333Y-80545000D01*
X174439661Y-80504452D01*
X174460000Y-80492709D01*
X174460000Y-81544999D01*
X174879972Y-81544999D01*
X174879986Y-81544998D01*
X174982697Y-81534505D01*
X175149119Y-81479358D01*
X175149124Y-81479356D01*
X175298345Y-81387315D01*
X175422315Y-81263345D01*
X175518149Y-81107975D01*
X175519915Y-81109064D01*
X175559278Y-81064349D01*
X175626470Y-81045189D01*
X175693353Y-81065397D01*
X175738694Y-81118557D01*
X175749500Y-81169185D01*
X175749500Y-81334217D01*
X175729815Y-81401256D01*
X175713181Y-81421898D01*
X169611797Y-87523281D01*
X169550474Y-87556766D01*
X169543515Y-87558073D01*
X169395468Y-87581522D01*
X169200778Y-87644781D01*
X169019489Y-87737153D01*
X168950820Y-87750049D01*
X168886079Y-87723773D01*
X168863930Y-87700982D01*
X168857546Y-87692454D01*
X168742331Y-87606204D01*
X168742329Y-87606203D01*
X168742328Y-87606202D01*
X168607482Y-87555908D01*
X168607483Y-87555908D01*
X168547883Y-87549501D01*
X168547881Y-87549500D01*
X168547873Y-87549500D01*
X168547864Y-87549500D01*
X166852129Y-87549500D01*
X166852123Y-87549501D01*
X166792516Y-87555908D01*
X166657671Y-87606202D01*
X166657664Y-87606206D01*
X166542455Y-87692452D01*
X166542452Y-87692455D01*
X166456206Y-87807664D01*
X166456202Y-87807671D01*
X166405908Y-87942517D01*
X166399501Y-88002116D01*
X166399500Y-88002135D01*
X166399500Y-89697870D01*
X166399501Y-89697873D01*
X166405908Y-89757483D01*
X166456202Y-89892328D01*
X166456206Y-89892335D01*
X166519952Y-89977487D01*
X166542454Y-90007546D01*
X166649811Y-90087914D01*
X166691682Y-90143847D01*
X166699500Y-90187180D01*
X166699500Y-91901543D01*
X166702269Y-91915466D01*
X166709429Y-91951458D01*
X166737949Y-92094837D01*
X166748977Y-92121460D01*
X166752688Y-92130419D01*
X166752689Y-92130423D01*
X166813368Y-92276915D01*
X166813369Y-92276918D01*
X166922860Y-92440782D01*
X166922863Y-92440786D01*
X167066537Y-92584460D01*
X167066559Y-92584480D01*
X170079286Y-95597207D01*
X170112771Y-95658530D01*
X170107787Y-95728222D01*
X170065915Y-95784155D01*
X170029924Y-95802819D01*
X169900776Y-95844781D01*
X169718386Y-95937715D01*
X169552786Y-96058028D01*
X169408028Y-96202786D01*
X169287715Y-96368386D01*
X169194781Y-96550776D01*
X169131522Y-96745465D01*
X169099500Y-96947648D01*
X169099500Y-97152351D01*
X169131522Y-97354534D01*
X169194781Y-97549223D01*
X169255349Y-97668092D01*
X169275612Y-97707861D01*
X169287715Y-97731613D01*
X169408028Y-97897213D01*
X169552786Y-98041971D01*
X169707749Y-98154556D01*
X169718390Y-98162287D01*
X169806054Y-98206954D01*
X169900776Y-98255218D01*
X169900778Y-98255218D01*
X169900781Y-98255220D01*
X170005137Y-98289127D01*
X170095465Y-98318477D01*
X170196557Y-98334488D01*
X170297648Y-98350500D01*
X170297649Y-98350500D01*
X170502351Y-98350500D01*
X170502352Y-98350500D01*
X170704534Y-98318477D01*
X170899219Y-98255220D01*
X171081610Y-98162287D01*
X171200500Y-98075909D01*
X171247213Y-98041971D01*
X171247215Y-98041968D01*
X171247219Y-98041966D01*
X171391966Y-97897219D01*
X171391968Y-97897215D01*
X171391971Y-97897213D01*
X171461228Y-97801887D01*
X171512287Y-97731610D01*
X171605220Y-97549219D01*
X171647181Y-97420075D01*
X171686619Y-97362401D01*
X171750978Y-97335203D01*
X171819824Y-97347118D01*
X171852793Y-97370714D01*
X174164181Y-99682102D01*
X174197666Y-99743425D01*
X174200500Y-99769783D01*
X174200500Y-103995940D01*
X174180815Y-104062979D01*
X174128011Y-104108734D01*
X174058853Y-104118678D01*
X174020205Y-104106425D01*
X173899223Y-104044782D01*
X173899222Y-104044781D01*
X173899219Y-104044780D01*
X173808135Y-104015185D01*
X173704534Y-103981522D01*
X173529995Y-103953878D01*
X173502352Y-103949500D01*
X173297648Y-103949500D01*
X173273329Y-103953351D01*
X173095465Y-103981522D01*
X172900776Y-104044781D01*
X172718386Y-104137715D01*
X172552786Y-104258028D01*
X172408028Y-104402786D01*
X172287715Y-104568386D01*
X172194781Y-104750776D01*
X172131522Y-104945465D01*
X172110001Y-105081349D01*
X172099500Y-105147648D01*
X172099500Y-105352352D01*
X172122806Y-105499500D01*
X172131523Y-105554534D01*
X172131522Y-105554534D01*
X172194781Y-105749223D01*
X172252356Y-105862218D01*
X172287356Y-105930910D01*
X172287715Y-105931613D01*
X172408028Y-106097213D01*
X172552786Y-106241971D01*
X172693842Y-106344452D01*
X172718390Y-106362287D01*
X172809840Y-106408883D01*
X172811080Y-106409515D01*
X172861876Y-106457490D01*
X172878671Y-106525311D01*
X172856134Y-106591446D01*
X172811080Y-106630485D01*
X172718386Y-106677715D01*
X172552786Y-106798028D01*
X172408028Y-106942786D01*
X172287715Y-107108386D01*
X172194781Y-107290776D01*
X172131522Y-107485465D01*
X172099500Y-107687648D01*
X172099500Y-107892351D01*
X172131522Y-108094534D01*
X172194781Y-108289223D01*
X172258691Y-108414653D01*
X172265381Y-108427782D01*
X172287715Y-108471613D01*
X172408028Y-108637213D01*
X172552786Y-108781971D01*
X172707749Y-108894556D01*
X172718390Y-108902287D01*
X172809840Y-108948883D01*
X172811080Y-108949515D01*
X172861876Y-108997490D01*
X172878671Y-109065311D01*
X172856134Y-109131446D01*
X172811080Y-109170485D01*
X172718386Y-109217715D01*
X172552786Y-109338028D01*
X172408028Y-109482786D01*
X172287715Y-109648386D01*
X172194781Y-109830776D01*
X172131522Y-110025465D01*
X172107302Y-110178386D01*
X172099500Y-110227648D01*
X172099500Y-110432352D01*
X172101599Y-110445606D01*
X172131522Y-110634534D01*
X172194781Y-110829223D01*
X172252230Y-110941971D01*
X172281797Y-111000000D01*
X172287715Y-111011613D01*
X172408028Y-111177213D01*
X172552786Y-111321971D01*
X172707749Y-111434556D01*
X172718390Y-111442287D01*
X172809840Y-111488883D01*
X172811080Y-111489515D01*
X172861876Y-111537490D01*
X172878671Y-111605311D01*
X172856134Y-111671446D01*
X172811080Y-111710485D01*
X172718386Y-111757715D01*
X172635656Y-111817822D01*
X172599905Y-111843797D01*
X172597123Y-111845818D01*
X172531317Y-111869298D01*
X172524238Y-111869500D01*
X169485783Y-111869500D01*
X169418744Y-111849815D01*
X169398102Y-111833181D01*
X167264209Y-109699289D01*
X167264206Y-109699285D01*
X167264206Y-109699286D01*
X167257139Y-109692219D01*
X167257139Y-109692218D01*
X167117782Y-109552861D01*
X167117781Y-109552860D01*
X167117780Y-109552859D01*
X166953920Y-109443371D01*
X166953911Y-109443366D01*
X166881315Y-109413296D01*
X166825165Y-109390038D01*
X166771836Y-109367949D01*
X166771832Y-109367948D01*
X166771828Y-109367946D01*
X166675188Y-109348724D01*
X166664054Y-109346509D01*
X166656079Y-109344923D01*
X166607386Y-109323624D01*
X166461614Y-109217715D01*
X166444113Y-109208798D01*
X166368917Y-109170483D01*
X166318123Y-109122511D01*
X166301328Y-109054690D01*
X166323865Y-108988555D01*
X166368917Y-108949516D01*
X166461610Y-108902287D01*
X166582877Y-108814181D01*
X166648683Y-108790702D01*
X166655762Y-108790500D01*
X167009912Y-108790500D01*
X167040936Y-108784328D01*
X167106558Y-108771275D01*
X167203206Y-108752051D01*
X167256535Y-108729961D01*
X167385284Y-108676632D01*
X167549152Y-108567139D01*
X167688509Y-108427782D01*
X167688509Y-108427780D01*
X167698717Y-108417573D01*
X167698718Y-108417570D01*
X172777140Y-103339151D01*
X172886632Y-103175284D01*
X172962052Y-102993205D01*
X173000501Y-102799910D01*
X173000501Y-102602829D01*
X173000501Y-102597719D01*
X173000500Y-102597693D01*
X173000500Y-102025761D01*
X173020185Y-101958722D01*
X173024165Y-101952899D01*
X173112287Y-101831610D01*
X173205220Y-101649219D01*
X173268477Y-101454534D01*
X173300500Y-101252352D01*
X173300500Y-101047648D01*
X173268477Y-100845466D01*
X173254468Y-100802352D01*
X173205218Y-100650776D01*
X173171503Y-100584607D01*
X173112287Y-100468390D01*
X173104556Y-100457749D01*
X172991971Y-100302786D01*
X172847213Y-100158028D01*
X172681613Y-100037715D01*
X172681612Y-100037714D01*
X172681610Y-100037713D01*
X172624653Y-100008691D01*
X172499223Y-99944781D01*
X172304534Y-99881522D01*
X172129995Y-99853878D01*
X172102352Y-99849500D01*
X171897648Y-99849500D01*
X171876933Y-99852781D01*
X171695465Y-99881522D01*
X171500776Y-99944781D01*
X171318386Y-100037715D01*
X171152786Y-100158028D01*
X171008028Y-100302786D01*
X170887715Y-100468386D01*
X170794781Y-100650776D01*
X170731522Y-100845465D01*
X170699500Y-101047648D01*
X170699500Y-101252351D01*
X170731522Y-101454534D01*
X170794781Y-101649223D01*
X170875991Y-101808605D01*
X170887713Y-101831610D01*
X170975819Y-101952877D01*
X170982970Y-101972921D01*
X170994477Y-101990826D01*
X170997931Y-102014850D01*
X170999298Y-102018681D01*
X170999500Y-102025761D01*
X170999500Y-102235587D01*
X170979815Y-102302626D01*
X170963181Y-102323268D01*
X167286462Y-105999986D01*
X167225139Y-106033471D01*
X167155447Y-106028487D01*
X167099514Y-105986615D01*
X167075097Y-105921151D01*
X167075423Y-105899702D01*
X167079252Y-105862221D01*
X167080500Y-105850009D01*
X167080499Y-105415781D01*
X167100183Y-105348743D01*
X167116818Y-105328101D01*
X167777137Y-104667784D01*
X167777137Y-104667783D01*
X167777140Y-104667781D01*
X167886632Y-104503914D01*
X167962052Y-104321835D01*
X168000501Y-104128540D01*
X168000501Y-103931459D01*
X168000501Y-103926349D01*
X168000500Y-103926323D01*
X168000500Y-102025761D01*
X168020185Y-101958722D01*
X168024165Y-101952899D01*
X168112287Y-101831610D01*
X168205220Y-101649219D01*
X168268477Y-101454534D01*
X168300500Y-101252352D01*
X168300500Y-101047648D01*
X168268477Y-100845466D01*
X168254468Y-100802352D01*
X168205218Y-100650776D01*
X168171503Y-100584607D01*
X168112287Y-100468390D01*
X168104556Y-100457749D01*
X167991971Y-100302786D01*
X167847213Y-100158028D01*
X167681613Y-100037715D01*
X167681612Y-100037714D01*
X167681610Y-100037713D01*
X167624653Y-100008691D01*
X167499223Y-99944781D01*
X167304534Y-99881522D01*
X167123067Y-99852781D01*
X167102352Y-99849500D01*
X167102351Y-99849500D01*
X167097540Y-99848738D01*
X167097861Y-99846708D01*
X167047833Y-99829350D01*
X167023914Y-99813368D01*
X167023913Y-99813367D01*
X167023911Y-99813366D01*
X166918691Y-99769783D01*
X166895165Y-99760038D01*
X166841836Y-99737949D01*
X166841832Y-99737948D01*
X166841828Y-99737946D01*
X166745188Y-99718724D01*
X166648544Y-99699500D01*
X166648541Y-99699500D01*
X161274500Y-99699500D01*
X161207461Y-99679815D01*
X161161706Y-99627011D01*
X161150500Y-99575500D01*
X161150500Y-98030047D01*
X161170185Y-97963008D01*
X161186819Y-97942366D01*
X161231966Y-97897219D01*
X161231968Y-97897215D01*
X161231971Y-97897213D01*
X161301228Y-97801887D01*
X161352287Y-97731610D01*
X161445220Y-97549219D01*
X161508477Y-97354534D01*
X161540500Y-97152352D01*
X161540500Y-96947648D01*
X161526752Y-96860848D01*
X161508477Y-96745465D01*
X161454740Y-96580080D01*
X161445220Y-96550781D01*
X161445218Y-96550778D01*
X161445218Y-96550776D01*
X161352419Y-96368650D01*
X161352287Y-96368390D01*
X161344556Y-96357749D01*
X161231971Y-96202786D01*
X161087213Y-96058028D01*
X160921613Y-95937715D01*
X160921612Y-95937714D01*
X160921610Y-95937713D01*
X160858349Y-95905480D01*
X160739223Y-95844781D01*
X160544534Y-95781522D01*
X160369995Y-95753878D01*
X160342352Y-95749500D01*
X160137648Y-95749500D01*
X160113329Y-95753351D01*
X159935465Y-95781522D01*
X159740776Y-95844781D01*
X159558386Y-95937715D01*
X159392786Y-96058028D01*
X159248028Y-96202786D01*
X159127715Y-96368386D01*
X159034781Y-96550776D01*
X158971522Y-96745465D01*
X158939500Y-96947648D01*
X158939500Y-97152351D01*
X158971522Y-97354534D01*
X159034781Y-97549223D01*
X159127717Y-97731618D01*
X159130259Y-97735766D01*
X159128589Y-97736788D01*
X159149296Y-97794776D01*
X159149500Y-97801887D01*
X159149500Y-99824237D01*
X159129815Y-99891276D01*
X159125818Y-99897122D01*
X159037715Y-100018386D01*
X158944781Y-100200776D01*
X158881522Y-100395465D01*
X158849500Y-100597648D01*
X158849500Y-100802351D01*
X158881522Y-101004534D01*
X158944781Y-101199223D01*
X159037715Y-101381613D01*
X159158028Y-101547213D01*
X159302786Y-101691971D01*
X159431592Y-101785552D01*
X159468390Y-101812287D01*
X159584607Y-101871503D01*
X159650776Y-101905218D01*
X159650778Y-101905218D01*
X159650781Y-101905220D01*
X159755137Y-101939127D01*
X159845465Y-101968477D01*
X159918218Y-101980000D01*
X160047648Y-102000500D01*
X160047649Y-102000500D01*
X160252351Y-102000500D01*
X160252352Y-102000500D01*
X160454534Y-101968477D01*
X160649219Y-101905220D01*
X160831610Y-101812287D01*
X160952877Y-101724181D01*
X161018683Y-101700702D01*
X161025762Y-101700500D01*
X165744922Y-101700500D01*
X165753349Y-101702974D01*
X165762037Y-101701687D01*
X165786359Y-101712667D01*
X165811961Y-101720185D01*
X165819385Y-101727577D01*
X165825718Y-101730436D01*
X165838179Y-101746289D01*
X165848946Y-101757009D01*
X165852466Y-101762435D01*
X165887713Y-101831610D01*
X165977749Y-101955534D01*
X165979524Y-101958270D01*
X165988612Y-101988732D01*
X165999298Y-102018681D01*
X165999483Y-102025170D01*
X165999499Y-102025224D01*
X165999485Y-102025269D01*
X165999500Y-102025761D01*
X165999500Y-103564216D01*
X165979815Y-103631255D01*
X165963181Y-103651897D01*
X165701897Y-103913181D01*
X165640574Y-103946666D01*
X165614216Y-103949500D01*
X165179998Y-103949500D01*
X165179980Y-103949501D01*
X165077203Y-103960000D01*
X165077200Y-103960001D01*
X164910668Y-104015185D01*
X164910663Y-104015187D01*
X164761342Y-104107289D01*
X164637289Y-104231342D01*
X164545187Y-104380663D01*
X164545185Y-104380668D01*
X164538779Y-104400001D01*
X164490001Y-104547203D01*
X164490001Y-104547204D01*
X164490000Y-104547204D01*
X164479500Y-104649983D01*
X164479500Y-105850001D01*
X164479501Y-105850018D01*
X164490000Y-105952796D01*
X164490001Y-105952799D01*
X164518897Y-106040000D01*
X164545186Y-106119334D01*
X164637288Y-106268656D01*
X164761344Y-106392712D01*
X164910666Y-106484814D01*
X164992570Y-106511954D01*
X165002626Y-106518916D01*
X165014539Y-106521687D01*
X165030813Y-106538432D01*
X165050015Y-106551727D01*
X165054710Y-106563020D01*
X165063235Y-106571792D01*
X165067872Y-106594679D01*
X165076838Y-106616243D01*
X165074682Y-106628282D01*
X165077111Y-106640269D01*
X165068639Y-106662029D01*
X165064523Y-106685018D01*
X165055576Y-106695583D01*
X165051763Y-106705379D01*
X165026453Y-106729977D01*
X165004942Y-106745606D01*
X164977123Y-106765817D01*
X164911319Y-106789298D01*
X164904238Y-106789500D01*
X163121454Y-106789500D01*
X163089391Y-106795876D01*
X163089392Y-106795877D01*
X162928170Y-106827946D01*
X162928164Y-106827948D01*
X162746088Y-106903366D01*
X162746079Y-106903371D01*
X162582219Y-107012859D01*
X162582215Y-107012862D01*
X160061797Y-109533281D01*
X160000474Y-109566766D01*
X159993515Y-109568073D01*
X159845468Y-109591522D01*
X159650778Y-109654781D01*
X159468386Y-109747715D01*
X159347123Y-109835818D01*
X159281317Y-109859298D01*
X159274238Y-109859500D01*
X157475762Y-109859500D01*
X157408723Y-109839815D01*
X157402877Y-109835818D01*
X157348121Y-109796036D01*
X157289292Y-109753294D01*
X157281613Y-109747715D01*
X157281612Y-109747714D01*
X157281610Y-109747713D01*
X157224653Y-109718691D01*
X157099223Y-109654781D01*
X156904534Y-109591522D01*
X156716690Y-109561771D01*
X156702352Y-109559500D01*
X156497648Y-109559500D01*
X156483310Y-109561771D01*
X156295465Y-109591522D01*
X156100776Y-109654781D01*
X155918386Y-109747715D01*
X155752786Y-109868028D01*
X155608028Y-110012786D01*
X155487715Y-110178386D01*
X155394781Y-110360776D01*
X155331522Y-110555465D01*
X155303334Y-110733443D01*
X155299500Y-110757648D01*
X152695000Y-110757648D01*
X152695000Y-110621667D01*
X152654452Y-110470339D01*
X152642709Y-110450000D01*
X153469999Y-110450000D01*
X153469999Y-109805028D01*
X153469998Y-109805013D01*
X153459505Y-109702302D01*
X153404358Y-109535880D01*
X153404356Y-109535875D01*
X153312315Y-109386654D01*
X153188345Y-109262684D01*
X153039124Y-109170643D01*
X153039119Y-109170641D01*
X152872697Y-109115494D01*
X152872690Y-109115493D01*
X152769986Y-109105000D01*
X152350000Y-109105000D01*
X152350000Y-110157290D01*
X152329661Y-110145548D01*
X152178333Y-110105000D01*
X152021667Y-110105000D01*
X151870339Y-110145548D01*
X151850000Y-110157290D01*
X151850000Y-109105000D01*
X151430028Y-109105000D01*
X151430012Y-109105001D01*
X151327302Y-109115494D01*
X151160880Y-109170641D01*
X151160875Y-109170643D01*
X151011654Y-109262684D01*
X150887684Y-109386654D01*
X150791851Y-109542025D01*
X150790086Y-109540936D01*
X150750711Y-109585657D01*
X150683518Y-109604810D01*
X150616637Y-109584595D01*
X150571301Y-109531431D01*
X150560500Y-109480814D01*
X150560500Y-108205782D01*
X150580185Y-108138743D01*
X150596819Y-108118101D01*
X153633571Y-105081349D01*
X156688204Y-102026715D01*
X156749525Y-101993232D01*
X156756475Y-101991926D01*
X156904534Y-101968477D01*
X157099219Y-101905220D01*
X157281610Y-101812287D01*
X157394269Y-101730436D01*
X157447213Y-101691971D01*
X157447215Y-101691968D01*
X157447219Y-101691966D01*
X157591966Y-101547219D01*
X157591968Y-101547215D01*
X157591971Y-101547213D01*
X157670348Y-101439334D01*
X157712287Y-101381610D01*
X157805220Y-101199219D01*
X157868477Y-101004534D01*
X157900500Y-100802352D01*
X157900500Y-100597648D01*
X157868477Y-100395466D01*
X157805220Y-100200781D01*
X157805218Y-100200778D01*
X157805218Y-100200776D01*
X157771503Y-100134607D01*
X157712287Y-100018390D01*
X157704556Y-100007749D01*
X157591971Y-99852786D01*
X157447213Y-99708028D01*
X157281613Y-99587715D01*
X157281612Y-99587714D01*
X157281610Y-99587713D01*
X157213062Y-99552786D01*
X157099223Y-99494781D01*
X156904534Y-99431522D01*
X156729995Y-99403878D01*
X156702352Y-99399500D01*
X156497648Y-99399500D01*
X156473329Y-99403351D01*
X156295465Y-99431522D01*
X156100776Y-99494781D01*
X155918386Y-99587715D01*
X155828385Y-99653104D01*
X155762578Y-99676584D01*
X155694525Y-99660758D01*
X155645830Y-99610652D01*
X155631500Y-99552786D01*
X155631500Y-97334781D01*
X155651185Y-97267742D01*
X155667814Y-97247105D01*
X158788203Y-94126715D01*
X158849524Y-94093232D01*
X158856473Y-94091927D01*
X159004534Y-94068477D01*
X159199219Y-94005220D01*
X159381610Y-93912287D01*
X159474590Y-93844732D01*
X159547213Y-93791971D01*
X159547215Y-93791968D01*
X159547219Y-93791966D01*
X159691966Y-93647219D01*
X159691968Y-93647215D01*
X159691971Y-93647213D01*
X159784032Y-93520500D01*
X159812287Y-93481610D01*
X159905220Y-93299219D01*
X159968477Y-93104534D01*
X160000500Y-92902352D01*
X160000500Y-92697648D01*
X159982576Y-92584480D01*
X159968477Y-92495465D01*
X159934183Y-92389920D01*
X159905220Y-92300781D01*
X159905218Y-92300778D01*
X159905218Y-92300776D01*
X159859458Y-92210968D01*
X159812287Y-92118390D01*
X159795175Y-92094837D01*
X159691971Y-91952786D01*
X159547213Y-91808028D01*
X159381613Y-91687715D01*
X159381612Y-91687714D01*
X159381610Y-91687713D01*
X159199219Y-91594780D01*
X159153252Y-91579844D01*
X159095577Y-91540407D01*
X159068379Y-91476049D01*
X159080294Y-91407202D01*
X159127538Y-91355727D01*
X159172171Y-91339441D01*
X159304534Y-91318477D01*
X159499219Y-91255220D01*
X159681610Y-91162287D01*
X159802877Y-91074181D01*
X159868683Y-91050702D01*
X159875762Y-91050500D01*
X160484218Y-91050500D01*
X160551257Y-91070185D01*
X160571898Y-91086818D01*
X161501004Y-92015925D01*
X162373281Y-92888202D01*
X162406766Y-92949525D01*
X162408073Y-92956484D01*
X162431522Y-93104531D01*
X162431523Y-93104534D01*
X162494780Y-93299219D01*
X162564433Y-93435921D01*
X162587715Y-93481613D01*
X162708028Y-93647213D01*
X162852786Y-93791971D01*
X163007749Y-93904556D01*
X163018390Y-93912287D01*
X163134607Y-93971503D01*
X163200776Y-94005218D01*
X163200778Y-94005218D01*
X163200781Y-94005220D01*
X163305137Y-94039127D01*
X163395465Y-94068477D01*
X163496557Y-94084488D01*
X163597648Y-94100500D01*
X163597649Y-94100500D01*
X163802351Y-94100500D01*
X163802352Y-94100500D01*
X164004534Y-94068477D01*
X164199219Y-94005220D01*
X164381610Y-93912287D01*
X164474590Y-93844732D01*
X164547213Y-93791971D01*
X164547215Y-93791968D01*
X164547219Y-93791966D01*
X164691966Y-93647219D01*
X164691968Y-93647215D01*
X164691971Y-93647213D01*
X164784032Y-93520500D01*
X164812287Y-93481610D01*
X164905220Y-93299219D01*
X164968477Y-93104534D01*
X165000500Y-92902352D01*
X165000500Y-92697648D01*
X164982576Y-92584480D01*
X164968477Y-92495465D01*
X164934183Y-92389920D01*
X164905220Y-92300781D01*
X164905218Y-92300778D01*
X164905218Y-92300776D01*
X164859458Y-92210968D01*
X164812287Y-92118390D01*
X164795175Y-92094837D01*
X164691971Y-91952786D01*
X164547213Y-91808028D01*
X164381613Y-91687715D01*
X164381612Y-91687714D01*
X164381610Y-91687713D01*
X164199219Y-91594780D01*
X164004534Y-91531523D01*
X164004531Y-91531522D01*
X164004532Y-91531522D01*
X163856484Y-91508073D01*
X163793350Y-91478143D01*
X163788202Y-91473281D01*
X161734209Y-89419289D01*
X161734206Y-89419285D01*
X161734206Y-89419286D01*
X161727139Y-89412219D01*
X161727139Y-89412218D01*
X161587782Y-89272861D01*
X161587781Y-89272860D01*
X161587780Y-89272859D01*
X161423920Y-89163371D01*
X161423907Y-89163364D01*
X161277957Y-89102910D01*
X161277950Y-89102908D01*
X161269722Y-89099500D01*
X161241836Y-89087949D01*
X161141289Y-89067949D01*
X161138067Y-89067308D01*
X161048543Y-89049500D01*
X161048541Y-89049500D01*
X159875762Y-89049500D01*
X159808723Y-89029815D01*
X159802877Y-89025818D01*
X159681613Y-88937715D01*
X159681612Y-88937714D01*
X159681610Y-88937713D01*
X159597173Y-88894690D01*
X159499223Y-88844781D01*
X159304534Y-88781522D01*
X159119405Y-88752201D01*
X159102352Y-88749500D01*
X158897648Y-88749500D01*
X158880595Y-88752201D01*
X158695465Y-88781522D01*
X158500776Y-88844781D01*
X158318386Y-88937715D01*
X158224650Y-89005818D01*
X158158844Y-89029298D01*
X158151765Y-89029500D01*
X156825762Y-89029500D01*
X156758723Y-89009815D01*
X156752877Y-89005818D01*
X156631613Y-88917715D01*
X156631612Y-88917714D01*
X156631610Y-88917713D01*
X156574653Y-88888691D01*
X156449223Y-88824781D01*
X156254534Y-88761522D01*
X156079995Y-88733878D01*
X156052352Y-88729500D01*
X155847648Y-88729500D01*
X155823329Y-88733351D01*
X155645465Y-88761522D01*
X155450776Y-88824781D01*
X155268386Y-88917715D01*
X155102786Y-89038028D01*
X155102782Y-89038032D01*
X155007634Y-89133181D01*
X154946311Y-89166666D01*
X154919953Y-89169500D01*
X154105762Y-89169500D01*
X154038723Y-89149815D01*
X154032877Y-89145818D01*
X154008052Y-89127782D01*
X153973819Y-89102910D01*
X153911613Y-89057715D01*
X153911612Y-89057714D01*
X153911610Y-89057713D01*
X153818917Y-89010483D01*
X153768123Y-88962511D01*
X153751328Y-88894690D01*
X153773865Y-88828555D01*
X153818917Y-88789516D01*
X153911610Y-88742287D01*
X153992414Y-88683580D01*
X154077213Y-88621971D01*
X154077215Y-88621968D01*
X154077219Y-88621966D01*
X154221966Y-88477219D01*
X154221968Y-88477215D01*
X154221971Y-88477213D01*
X154283283Y-88392823D01*
X154342287Y-88311610D01*
X154435220Y-88129219D01*
X154498477Y-87934534D01*
X154530500Y-87732352D01*
X154530500Y-87527648D01*
X154517554Y-87445909D01*
X154498477Y-87325465D01*
X154435218Y-87130776D01*
X154401503Y-87064607D01*
X154342287Y-86948390D01*
X154308177Y-86901441D01*
X154221971Y-86782786D01*
X154077213Y-86638028D01*
X153911614Y-86517715D01*
X153900955Y-86512284D01*
X153818917Y-86470483D01*
X153768123Y-86422511D01*
X153751328Y-86354690D01*
X153773865Y-86288555D01*
X153818917Y-86249516D01*
X153911610Y-86202287D01*
X154040482Y-86108657D01*
X154077213Y-86081971D01*
X154077215Y-86081968D01*
X154077219Y-86081966D01*
X154221966Y-85937219D01*
X154221968Y-85937215D01*
X154221971Y-85937213D01*
X154324953Y-85795468D01*
X154342287Y-85771610D01*
X154435220Y-85589219D01*
X154498477Y-85394534D01*
X154530500Y-85192352D01*
X154530500Y-84987648D01*
X154498477Y-84785466D01*
X154435220Y-84590781D01*
X154435218Y-84590778D01*
X154435218Y-84590776D01*
X154383865Y-84489991D01*
X154342287Y-84408390D01*
X154321108Y-84379239D01*
X154221971Y-84242786D01*
X154077213Y-84098028D01*
X153911613Y-83977715D01*
X153911612Y-83977714D01*
X153911610Y-83977713D01*
X153851898Y-83947288D01*
X153729223Y-83884781D01*
X153534534Y-83821522D01*
X153359995Y-83793878D01*
X153332352Y-83789500D01*
X153127648Y-83789500D01*
X153103329Y-83793351D01*
X152925465Y-83821522D01*
X152730776Y-83884781D01*
X152548386Y-83977715D01*
X152382786Y-84098028D01*
X152238028Y-84242786D01*
X152117715Y-84408386D01*
X152024781Y-84590776D01*
X151961522Y-84785465D01*
X151931998Y-84971877D01*
X151929500Y-84987648D01*
X151929500Y-85192352D01*
X151933878Y-85219995D01*
X151961522Y-85394534D01*
X152024781Y-85589223D01*
X152117715Y-85771613D01*
X152238028Y-85937213D01*
X152382786Y-86081971D01*
X152537749Y-86194556D01*
X152548390Y-86202287D01*
X152612968Y-86235191D01*
X152641080Y-86249515D01*
X152691876Y-86297490D01*
X152708671Y-86365311D01*
X152686134Y-86431446D01*
X152641080Y-86470485D01*
X152548386Y-86517715D01*
X152382786Y-86638028D01*
X152238028Y-86782786D01*
X152117715Y-86948386D01*
X152024781Y-87130778D01*
X151961522Y-87325468D01*
X151939390Y-87465199D01*
X151909460Y-87528334D01*
X151904598Y-87533481D01*
X151147895Y-88290185D01*
X150391221Y-89046859D01*
X150391218Y-89046862D01*
X150350131Y-89087949D01*
X150251859Y-89186220D01*
X150142371Y-89350080D01*
X150142364Y-89350093D01*
X150098512Y-89455964D01*
X150098512Y-89455965D01*
X150066951Y-89532158D01*
X150066946Y-89532173D01*
X150066938Y-89532218D01*
X150028500Y-89725455D01*
X150028500Y-89725460D01*
X150028500Y-101752541D01*
X150035510Y-101787781D01*
X150066949Y-101945836D01*
X150077569Y-101971474D01*
X150085585Y-101990826D01*
X150142368Y-102127914D01*
X150142369Y-102127917D01*
X150251859Y-102291780D01*
X150251860Y-102291781D01*
X150251861Y-102291782D01*
X150391218Y-102431139D01*
X150391219Y-102431139D01*
X150398286Y-102438206D01*
X150398285Y-102438206D01*
X150398289Y-102438209D01*
X150738281Y-102778201D01*
X150771766Y-102839524D01*
X150773073Y-102846483D01*
X150796523Y-102994535D01*
X150859781Y-103189223D01*
X150886905Y-103242455D01*
X150947269Y-103360926D01*
X150952715Y-103371613D01*
X151073028Y-103537213D01*
X151217786Y-103681971D01*
X151322845Y-103758299D01*
X151383390Y-103802287D01*
X151499607Y-103861503D01*
X151565776Y-103895218D01*
X151565778Y-103895218D01*
X151565781Y-103895220D01*
X151693413Y-103936690D01*
X151751088Y-103976128D01*
X151778286Y-104040486D01*
X151766371Y-104109333D01*
X151742775Y-104142302D01*
X149618961Y-106266118D01*
X148922220Y-106962859D01*
X148922218Y-106962861D01*
X148886520Y-106998559D01*
X148782859Y-107102219D01*
X148673371Y-107266080D01*
X148673364Y-107266093D01*
X148639762Y-107347219D01*
X148623437Y-107386632D01*
X148615037Y-107406911D01*
X148612843Y-107412208D01*
X148612842Y-107412207D01*
X148597950Y-107448160D01*
X148597947Y-107448170D01*
X148559500Y-107641456D01*
X148559500Y-109485958D01*
X148539815Y-109552997D01*
X148534783Y-109560248D01*
X148529465Y-109567354D01*
X148514641Y-109582179D01*
X148389809Y-109753995D01*
X148389283Y-109754698D01*
X148361973Y-109775150D01*
X148334988Y-109795959D01*
X148334084Y-109796036D01*
X148333358Y-109796581D01*
X148299310Y-109799023D01*
X148265374Y-109801938D01*
X148264572Y-109801515D01*
X148263667Y-109801580D01*
X148233718Y-109785235D01*
X148203579Y-109769332D01*
X148202681Y-109768295D01*
X148202337Y-109768108D01*
X148202027Y-109767541D01*
X148189682Y-109753294D01*
X148167435Y-109722674D01*
X148065359Y-109582179D01*
X148056819Y-109573639D01*
X148023334Y-109512316D01*
X148020500Y-109485958D01*
X148020500Y-103625047D01*
X148040185Y-103558008D01*
X148053897Y-103540990D01*
X148053809Y-103540915D01*
X148056458Y-103537813D01*
X148056819Y-103537366D01*
X148056966Y-103537219D01*
X148056968Y-103537215D01*
X148056971Y-103537213D01*
X148134183Y-103430938D01*
X148177287Y-103371610D01*
X148270220Y-103189219D01*
X148333477Y-102994534D01*
X148365500Y-102792352D01*
X148365500Y-102587648D01*
X148353821Y-102513908D01*
X148333477Y-102385465D01*
X148270218Y-102190776D01*
X148211463Y-102075465D01*
X148177287Y-102008390D01*
X148156594Y-101979908D01*
X148056971Y-101842786D01*
X147912213Y-101698028D01*
X147746613Y-101577715D01*
X147746612Y-101577714D01*
X147746610Y-101577713D01*
X147686762Y-101547219D01*
X147564223Y-101484781D01*
X147369534Y-101421522D01*
X147194995Y-101393878D01*
X147167352Y-101389500D01*
X146962648Y-101389500D01*
X146938329Y-101393351D01*
X146760465Y-101421522D01*
X146565776Y-101484781D01*
X146383386Y-101577715D01*
X146217786Y-101698028D01*
X146073028Y-101842786D01*
X145952715Y-102008386D01*
X145859781Y-102190776D01*
X145796522Y-102385465D01*
X145764500Y-102587648D01*
X145764500Y-102792352D01*
X145765698Y-102799914D01*
X145796522Y-102994534D01*
X145859781Y-103189223D01*
X145945710Y-103357866D01*
X145952713Y-103371610D01*
X145995818Y-103430940D01*
X146019298Y-103496744D01*
X146019500Y-103503824D01*
X146019500Y-109485958D01*
X145999815Y-109552997D01*
X145983181Y-109573639D01*
X145974643Y-109582176D01*
X145974643Y-109582177D01*
X145974641Y-109582179D01*
X145928662Y-109645464D01*
X145847843Y-109756700D01*
X145749909Y-109948908D01*
X145683245Y-110154077D01*
X145649500Y-110367133D01*
X144529322Y-110367133D01*
X144517989Y-110295582D01*
X144454755Y-110100968D01*
X144361859Y-109918650D01*
X144329474Y-109874077D01*
X144329474Y-109874076D01*
X143650000Y-110553551D01*
X143650000Y-110547339D01*
X143622741Y-110445606D01*
X143570080Y-110354394D01*
X143495606Y-110279920D01*
X143404394Y-110227259D01*
X143302661Y-110200000D01*
X143296446Y-110200000D01*
X143975922Y-109520524D01*
X143975921Y-109520523D01*
X143931359Y-109488147D01*
X143931350Y-109488141D01*
X143749031Y-109395244D01*
X143554417Y-109332009D01*
X143352317Y-109300000D01*
X143147683Y-109300000D01*
X142945582Y-109332009D01*
X142750965Y-109395245D01*
X142569791Y-109487558D01*
X142501122Y-109500454D01*
X142436382Y-109474177D01*
X142414234Y-109451388D01*
X142407546Y-109442454D01*
X142407542Y-109442451D01*
X142292335Y-109356206D01*
X142292328Y-109356202D01*
X142157482Y-109305908D01*
X142157483Y-109305908D01*
X142097883Y-109299501D01*
X142097881Y-109299500D01*
X142097873Y-109299500D01*
X142097864Y-109299500D01*
X140402129Y-109299500D01*
X140402123Y-109299501D01*
X140342516Y-109305908D01*
X140207671Y-109356202D01*
X140207664Y-109356206D01*
X140092455Y-109442452D01*
X140092452Y-109442455D01*
X140006206Y-109557664D01*
X140006202Y-109557671D01*
X139955908Y-109692517D01*
X139949501Y-109752116D01*
X139949500Y-109752135D01*
X139949500Y-110434216D01*
X139929815Y-110501255D01*
X139913181Y-110521897D01*
X138293433Y-112141644D01*
X138232110Y-112175129D01*
X138162418Y-112170145D01*
X138106485Y-112128273D01*
X138096919Y-112113388D01*
X138093794Y-112107666D01*
X138007547Y-111992455D01*
X138007544Y-111992452D01*
X137892335Y-111906206D01*
X137892328Y-111906202D01*
X137757482Y-111855908D01*
X137757483Y-111855908D01*
X137697883Y-111849501D01*
X137697881Y-111849500D01*
X137697873Y-111849500D01*
X137697865Y-111849500D01*
X136415783Y-111849500D01*
X136348744Y-111829815D01*
X136328102Y-111813181D01*
X135828313Y-111313392D01*
X135794828Y-111252069D01*
X135799812Y-111182377D01*
X135841684Y-111126444D01*
X135907148Y-111102027D01*
X135972288Y-111115225D01*
X135994303Y-111126443D01*
X136050776Y-111155218D01*
X136050778Y-111155218D01*
X136050781Y-111155220D01*
X136118487Y-111177219D01*
X136245465Y-111218477D01*
X136346557Y-111234488D01*
X136447648Y-111250500D01*
X136447649Y-111250500D01*
X136652351Y-111250500D01*
X136652352Y-111250500D01*
X136854534Y-111218477D01*
X137049219Y-111155220D01*
X137231610Y-111062287D01*
X137335484Y-110986819D01*
X137397213Y-110941971D01*
X137397215Y-110941968D01*
X137397219Y-110941966D01*
X137541966Y-110797219D01*
X137541968Y-110797215D01*
X137541971Y-110797213D01*
X137594732Y-110724590D01*
X137662287Y-110631610D01*
X137755220Y-110449219D01*
X137818477Y-110254534D01*
X137850500Y-110052352D01*
X137850500Y-109847648D01*
X137850499Y-109847644D01*
X137842313Y-109795959D01*
X137818477Y-109645466D01*
X137805412Y-109605255D01*
X137803417Y-109535414D01*
X137835660Y-109479258D01*
X141578101Y-105736818D01*
X141639424Y-105703333D01*
X141665782Y-105700499D01*
X142347871Y-105700499D01*
X142347872Y-105700499D01*
X142407483Y-105694091D01*
X142542331Y-105643796D01*
X142657546Y-105557546D01*
X142664230Y-105548616D01*
X142720159Y-105506746D01*
X142789851Y-105501759D01*
X142819792Y-105512441D01*
X143000968Y-105604755D01*
X143195582Y-105667990D01*
X143397683Y-105700000D01*
X143602317Y-105700000D01*
X143804417Y-105667990D01*
X143999031Y-105604755D01*
X144181349Y-105511859D01*
X144225921Y-105479474D01*
X143546447Y-104800000D01*
X143552661Y-104800000D01*
X143654394Y-104772741D01*
X143745606Y-104720080D01*
X143820080Y-104645606D01*
X143872741Y-104554394D01*
X143900000Y-104452661D01*
X143900000Y-104446448D01*
X144579474Y-105125922D01*
X144579474Y-105125921D01*
X144611859Y-105081349D01*
X144704755Y-104899031D01*
X144767990Y-104704417D01*
X144800000Y-104502317D01*
X144800000Y-104297682D01*
X144767990Y-104095582D01*
X144704755Y-103900968D01*
X144611859Y-103718650D01*
X144579474Y-103674077D01*
X144579474Y-103674076D01*
X143900000Y-104353551D01*
X143900000Y-104347339D01*
X143872741Y-104245606D01*
X143820080Y-104154394D01*
X143745606Y-104079920D01*
X143654394Y-104027259D01*
X143552661Y-104000000D01*
X143546446Y-104000000D01*
X144225922Y-103320524D01*
X144225921Y-103320523D01*
X144181359Y-103288147D01*
X144181350Y-103288141D01*
X143999031Y-103195244D01*
X143804417Y-103132009D01*
X143602317Y-103100000D01*
X143397683Y-103100000D01*
X143195582Y-103132009D01*
X143000965Y-103195245D01*
X142819791Y-103287558D01*
X142751122Y-103300454D01*
X142686382Y-103274177D01*
X142664234Y-103251388D01*
X142657546Y-103242454D01*
X142636761Y-103226894D01*
X142542335Y-103156206D01*
X142542328Y-103156202D01*
X142407482Y-103105908D01*
X142407483Y-103105908D01*
X142347883Y-103099501D01*
X142347881Y-103099500D01*
X142347873Y-103099500D01*
X142347864Y-103099500D01*
X140652129Y-103099500D01*
X140652123Y-103099501D01*
X140592516Y-103105908D01*
X140457671Y-103156202D01*
X140457664Y-103156206D01*
X140342455Y-103242452D01*
X140342452Y-103242455D01*
X140256206Y-103357664D01*
X140256202Y-103357671D01*
X140205908Y-103492517D01*
X140199501Y-103552116D01*
X140199500Y-103552135D01*
X140199500Y-104234217D01*
X140179815Y-104301256D01*
X140163181Y-104321898D01*
X138054542Y-106430536D01*
X137993219Y-106464021D01*
X137923527Y-106459037D01*
X137867594Y-106417165D01*
X137844388Y-106362253D01*
X137817990Y-106195582D01*
X137754755Y-106000968D01*
X137661859Y-105818650D01*
X137629474Y-105774077D01*
X137629474Y-105774076D01*
X136950000Y-106453551D01*
X136950000Y-106447339D01*
X136922741Y-106345606D01*
X136870080Y-106254394D01*
X136795606Y-106179920D01*
X136704394Y-106127259D01*
X136602661Y-106100000D01*
X136596446Y-106100000D01*
X137275922Y-105420524D01*
X137275921Y-105420523D01*
X137231359Y-105388147D01*
X137231350Y-105388141D01*
X137049031Y-105295244D01*
X136854417Y-105232009D01*
X136652317Y-105200000D01*
X136447683Y-105200000D01*
X136245582Y-105232009D01*
X136050968Y-105295244D01*
X135868644Y-105388143D01*
X135824077Y-105420523D01*
X135824077Y-105420524D01*
X136503554Y-106100000D01*
X136497339Y-106100000D01*
X136395606Y-106127259D01*
X136304394Y-106179920D01*
X136229920Y-106254394D01*
X136177259Y-106345606D01*
X136150000Y-106447339D01*
X136150000Y-106453553D01*
X135470524Y-105774077D01*
X135470523Y-105774077D01*
X135438143Y-105818644D01*
X135345244Y-106000968D01*
X135282009Y-106195582D01*
X135250000Y-106397682D01*
X135250000Y-106602317D01*
X135282009Y-106804417D01*
X135345091Y-106998559D01*
X135347086Y-107068401D01*
X135311006Y-107128234D01*
X135248305Y-107159062D01*
X135178891Y-107151098D01*
X135139479Y-107124559D01*
X133881479Y-105866559D01*
X133881459Y-105866537D01*
X133737785Y-105722863D01*
X133737781Y-105722860D01*
X133573920Y-105613371D01*
X133573908Y-105613364D01*
X133499015Y-105582344D01*
X133431875Y-105554534D01*
X133391836Y-105537949D01*
X133391828Y-105537947D01*
X133264730Y-105512666D01*
X133198543Y-105499500D01*
X133198541Y-105499500D01*
X127265762Y-105499500D01*
X127198723Y-105479815D01*
X127192877Y-105475818D01*
X127071613Y-105387715D01*
X127071612Y-105387714D01*
X127071610Y-105387713D01*
X127002208Y-105352351D01*
X126889223Y-105294781D01*
X126694534Y-105231522D01*
X126519995Y-105203878D01*
X126492352Y-105199500D01*
X126287648Y-105199500D01*
X126263329Y-105203351D01*
X126085465Y-105231522D01*
X125890776Y-105294781D01*
X125708386Y-105387715D01*
X125542786Y-105508028D01*
X125398028Y-105652786D01*
X125277715Y-105818386D01*
X125184781Y-106000776D01*
X125121522Y-106195465D01*
X125095106Y-106362253D01*
X125089500Y-106397648D01*
X125089500Y-106602352D01*
X125092704Y-106622580D01*
X125121522Y-106804534D01*
X125184781Y-106999223D01*
X125220030Y-107068401D01*
X125263426Y-107153571D01*
X125277715Y-107181613D01*
X125398028Y-107347213D01*
X125542786Y-107491971D01*
X125697749Y-107604556D01*
X125708390Y-107612287D01*
X125824607Y-107671503D01*
X125890776Y-107705218D01*
X125890778Y-107705218D01*
X125890781Y-107705220D01*
X125947263Y-107723572D01*
X126085465Y-107768477D01*
X126155093Y-107779505D01*
X126287648Y-107800500D01*
X126287649Y-107800500D01*
X126492351Y-107800500D01*
X126492352Y-107800500D01*
X126694534Y-107768477D01*
X126889219Y-107705220D01*
X127071610Y-107612287D01*
X127192877Y-107524181D01*
X127258683Y-107500702D01*
X127265762Y-107500500D01*
X132634218Y-107500500D01*
X132701257Y-107520185D01*
X132721899Y-107536819D01*
X135223281Y-110038201D01*
X135256766Y-110099524D01*
X135258073Y-110106483D01*
X135281523Y-110254535D01*
X135344782Y-110449226D01*
X135384773Y-110527712D01*
X135397669Y-110596381D01*
X135371392Y-110661121D01*
X135314286Y-110701378D01*
X135244480Y-110704370D01*
X135186608Y-110671687D01*
X133834208Y-109319288D01*
X133834206Y-109319285D01*
X133834206Y-109319286D01*
X133827139Y-109312219D01*
X133827139Y-109312218D01*
X133687782Y-109172861D01*
X133687781Y-109172860D01*
X133687780Y-109172859D01*
X133523920Y-109063371D01*
X133523911Y-109063366D01*
X133451315Y-109033296D01*
X133395165Y-109010038D01*
X133341836Y-108987949D01*
X133341832Y-108987948D01*
X133341828Y-108987946D01*
X133245188Y-108968724D01*
X133148544Y-108949500D01*
X133148541Y-108949500D01*
X127265762Y-108949500D01*
X127198723Y-108929815D01*
X127192877Y-108925818D01*
X127071613Y-108837715D01*
X127071612Y-108837714D01*
X127071610Y-108837713D01*
X126988808Y-108795523D01*
X126889223Y-108744781D01*
X126694534Y-108681522D01*
X126519995Y-108653878D01*
X126492352Y-108649500D01*
X126287648Y-108649500D01*
X126263329Y-108653351D01*
X126085465Y-108681522D01*
X125890776Y-108744781D01*
X125708386Y-108837715D01*
X125542786Y-108958028D01*
X125398028Y-109102786D01*
X125277715Y-109268386D01*
X125184781Y-109450776D01*
X125121522Y-109645465D01*
X125089500Y-109847647D01*
X125089500Y-110052351D01*
X125121522Y-110254534D01*
X125184781Y-110449223D01*
X125224774Y-110527712D01*
X125237670Y-110596381D01*
X125211394Y-110661122D01*
X125154287Y-110701379D01*
X125084482Y-110704371D01*
X125026608Y-110671688D01*
X123681819Y-109326899D01*
X123648334Y-109265576D01*
X123645500Y-109239218D01*
X123645500Y-103151456D01*
X123607052Y-102958170D01*
X123607051Y-102958169D01*
X123607051Y-102958165D01*
X123596268Y-102932133D01*
X123531635Y-102776092D01*
X123531628Y-102776079D01*
X123455288Y-102661828D01*
X123422139Y-102612218D01*
X123422136Y-102612214D01*
X123282785Y-102472863D01*
X123282781Y-102472860D01*
X123118920Y-102363371D01*
X123118907Y-102363364D01*
X122936839Y-102287950D01*
X122936828Y-102287947D01*
X122743543Y-102249500D01*
X122743541Y-102249500D01*
X121764042Y-102249500D01*
X121697003Y-102229815D01*
X121676361Y-102213181D01*
X121667823Y-102204643D01*
X121667821Y-102204641D01*
X121565087Y-102130000D01*
X132373391Y-102130000D01*
X133334314Y-102130000D01*
X133329920Y-102134394D01*
X133277259Y-102225606D01*
X133250000Y-102327339D01*
X133250000Y-102432661D01*
X133277259Y-102534394D01*
X133329920Y-102625606D01*
X133334314Y-102630000D01*
X132373391Y-102630000D01*
X132382009Y-102684413D01*
X132445244Y-102879029D01*
X132538140Y-103061349D01*
X132658417Y-103226894D01*
X132658417Y-103226895D01*
X132803104Y-103371582D01*
X132968650Y-103491859D01*
X133150968Y-103584754D01*
X133345578Y-103647988D01*
X133400000Y-103656607D01*
X133400000Y-102695686D01*
X133404394Y-102700080D01*
X133495606Y-102752741D01*
X133597339Y-102780000D01*
X133702661Y-102780000D01*
X133804394Y-102752741D01*
X133895606Y-102700080D01*
X133900000Y-102695686D01*
X133900000Y-103656606D01*
X133954421Y-103647988D01*
X134149031Y-103584754D01*
X134331349Y-103491859D01*
X134496894Y-103371582D01*
X134496895Y-103371582D01*
X134641582Y-103226895D01*
X134641582Y-103226894D01*
X134761859Y-103061349D01*
X134854755Y-102879029D01*
X134917990Y-102684413D01*
X134926609Y-102630000D01*
X133965686Y-102630000D01*
X133970080Y-102625606D01*
X134022741Y-102534394D01*
X134050000Y-102432661D01*
X134050000Y-102327339D01*
X134022741Y-102225606D01*
X133970080Y-102134394D01*
X133965686Y-102130000D01*
X134926609Y-102130000D01*
X134917990Y-102075586D01*
X134854755Y-101880970D01*
X134761859Y-101698650D01*
X134641582Y-101533105D01*
X134641582Y-101533104D01*
X134496895Y-101388417D01*
X134331349Y-101268140D01*
X134149029Y-101175244D01*
X133954413Y-101112009D01*
X133900000Y-101103390D01*
X133900000Y-102064314D01*
X133895606Y-102059920D01*
X133804394Y-102007259D01*
X133702661Y-101980000D01*
X133597339Y-101980000D01*
X133495606Y-102007259D01*
X133404394Y-102059920D01*
X133400000Y-102064314D01*
X133400000Y-101103390D01*
X133345586Y-101112009D01*
X133150970Y-101175244D01*
X132968650Y-101268140D01*
X132803105Y-101388417D01*
X132803104Y-101388417D01*
X132658417Y-101533104D01*
X132658417Y-101533105D01*
X132538140Y-101698650D01*
X132445244Y-101880970D01*
X132382009Y-102075586D01*
X132373391Y-102130000D01*
X121565087Y-102130000D01*
X121493299Y-102077843D01*
X121390027Y-102025224D01*
X121301091Y-101979909D01*
X121301090Y-101979908D01*
X121301089Y-101979908D01*
X121095926Y-101913246D01*
X121095924Y-101913245D01*
X121095922Y-101913245D01*
X120882866Y-101879500D01*
X120882861Y-101879500D01*
X120217139Y-101879500D01*
X120217134Y-101879500D01*
X120004077Y-101913245D01*
X119798908Y-101979909D01*
X119606700Y-102077843D01*
X119537784Y-102127914D01*
X119432179Y-102204641D01*
X119432177Y-102204643D01*
X119432176Y-102204643D01*
X119279643Y-102357176D01*
X119279643Y-102357177D01*
X119279641Y-102357179D01*
X119225906Y-102431139D01*
X119152843Y-102531700D01*
X119054909Y-102723908D01*
X119054908Y-102723910D01*
X119054908Y-102723911D01*
X119037957Y-102776079D01*
X118988245Y-102929077D01*
X118954500Y-103142133D01*
X115600500Y-103142133D01*
X115600500Y-91951455D01*
X116049501Y-91951455D01*
X116049501Y-96748545D01*
X116087948Y-96941830D01*
X116087949Y-96941834D01*
X116087950Y-96941837D01*
X116090358Y-96947648D01*
X116096016Y-96961308D01*
X116096017Y-96961312D01*
X116163368Y-97123914D01*
X116163370Y-97123918D01*
X116272860Y-97287781D01*
X116272861Y-97287782D01*
X116272862Y-97287783D01*
X116412219Y-97427140D01*
X116412220Y-97427140D01*
X116419287Y-97434207D01*
X116419286Y-97434207D01*
X116419290Y-97434210D01*
X116523281Y-97538201D01*
X116556766Y-97599524D01*
X116558073Y-97606483D01*
X116581523Y-97754535D01*
X116644781Y-97949223D01*
X116708691Y-98074653D01*
X116734850Y-98125992D01*
X116737715Y-98131613D01*
X116858028Y-98297213D01*
X117002786Y-98441971D01*
X117157749Y-98554556D01*
X117168390Y-98562287D01*
X117284607Y-98621503D01*
X117350776Y-98655218D01*
X117350778Y-98655218D01*
X117350781Y-98655220D01*
X117455137Y-98689127D01*
X117545465Y-98718477D01*
X117646557Y-98734488D01*
X117747648Y-98750500D01*
X117747649Y-98750500D01*
X117952351Y-98750500D01*
X117952352Y-98750500D01*
X118154534Y-98718477D01*
X118349219Y-98655220D01*
X118531610Y-98562287D01*
X118624590Y-98494732D01*
X118697213Y-98441971D01*
X118697215Y-98441968D01*
X118697219Y-98441966D01*
X118841966Y-98297219D01*
X118841968Y-98297215D01*
X118841971Y-98297213D01*
X118917268Y-98193574D01*
X118962287Y-98131610D01*
X119055220Y-97949219D01*
X119118477Y-97754534D01*
X119150500Y-97552352D01*
X119150500Y-97347648D01*
X121549500Y-97347648D01*
X121549500Y-97552351D01*
X121581522Y-97754534D01*
X121644781Y-97949223D01*
X121708691Y-98074653D01*
X121734850Y-98125992D01*
X121737715Y-98131613D01*
X121858028Y-98297213D01*
X122002786Y-98441971D01*
X122157749Y-98554556D01*
X122168390Y-98562287D01*
X122284607Y-98621503D01*
X122350776Y-98655218D01*
X122350778Y-98655218D01*
X122350781Y-98655220D01*
X122455137Y-98689127D01*
X122545465Y-98718477D01*
X122646557Y-98734488D01*
X122747648Y-98750500D01*
X122747649Y-98750500D01*
X122952351Y-98750500D01*
X122952352Y-98750500D01*
X123154534Y-98718477D01*
X123349219Y-98655220D01*
X123531610Y-98562287D01*
X123624590Y-98494732D01*
X123697213Y-98441971D01*
X123697215Y-98441968D01*
X123697219Y-98441966D01*
X123841966Y-98297219D01*
X123841968Y-98297215D01*
X123841971Y-98297213D01*
X123917268Y-98193574D01*
X123962287Y-98131610D01*
X124055220Y-97949219D01*
X124118477Y-97754534D01*
X124150500Y-97552352D01*
X124150500Y-97347648D01*
X124128191Y-97206794D01*
X124118477Y-97145465D01*
X124079241Y-97024710D01*
X124055220Y-96950781D01*
X124055218Y-96950778D01*
X124055218Y-96950776D01*
X124009397Y-96860848D01*
X123962287Y-96768390D01*
X123928211Y-96721488D01*
X123841971Y-96602786D01*
X123697213Y-96458028D01*
X123531613Y-96337715D01*
X123531612Y-96337714D01*
X123531610Y-96337713D01*
X123474653Y-96308691D01*
X123349223Y-96244781D01*
X123154534Y-96181522D01*
X122979995Y-96153878D01*
X122952352Y-96149500D01*
X122747648Y-96149500D01*
X122723329Y-96153351D01*
X122545465Y-96181522D01*
X122350776Y-96244781D01*
X122168386Y-96337715D01*
X122002786Y-96458028D01*
X121858028Y-96602786D01*
X121737715Y-96768386D01*
X121644781Y-96950776D01*
X121581522Y-97145465D01*
X121549500Y-97347648D01*
X119150500Y-97347648D01*
X119128191Y-97206794D01*
X119118477Y-97145465D01*
X119079241Y-97024710D01*
X119055220Y-96950781D01*
X119055218Y-96950778D01*
X119055218Y-96950776D01*
X119009397Y-96860848D01*
X118962287Y-96768390D01*
X118928211Y-96721488D01*
X118841971Y-96602786D01*
X118697213Y-96458028D01*
X118531613Y-96337715D01*
X118531612Y-96337714D01*
X118531610Y-96337713D01*
X118349219Y-96244780D01*
X118256110Y-96214527D01*
X118154526Y-96181520D01*
X118149792Y-96180384D01*
X118150068Y-96179232D01*
X118091951Y-96151667D01*
X118055031Y-96092349D01*
X118050501Y-96059139D01*
X118050501Y-92515781D01*
X118070186Y-92448742D01*
X118086820Y-92428100D01*
X118411038Y-92103882D01*
X118748375Y-91766544D01*
X118809696Y-91733061D01*
X118879387Y-91738045D01*
X118935321Y-91779916D01*
X118959738Y-91845381D01*
X118959412Y-91866829D01*
X118955000Y-91910011D01*
X118955000Y-92330000D01*
X120007291Y-92330000D01*
X119995548Y-92350339D01*
X119955000Y-92501667D01*
X119955000Y-92658333D01*
X119995548Y-92809661D01*
X120007291Y-92830000D01*
X118955001Y-92830000D01*
X118955001Y-93249986D01*
X118965494Y-93352697D01*
X119020641Y-93519119D01*
X119020643Y-93519124D01*
X119112684Y-93668345D01*
X119236654Y-93792315D01*
X119385875Y-93884356D01*
X119385880Y-93884358D01*
X119552302Y-93939505D01*
X119552309Y-93939506D01*
X119655019Y-93949999D01*
X120299999Y-93949999D01*
X120300000Y-93949998D01*
X120300000Y-93122709D01*
X120320339Y-93134452D01*
X120471667Y-93175000D01*
X120628333Y-93175000D01*
X120779661Y-93134452D01*
X120800000Y-93122709D01*
X120800000Y-93949999D01*
X121444972Y-93949999D01*
X121444986Y-93949998D01*
X121547697Y-93939505D01*
X121570641Y-93931902D01*
X126649500Y-93931902D01*
X126649500Y-94668097D01*
X126686446Y-94901368D01*
X126759433Y-95125996D01*
X126787217Y-95180524D01*
X126866657Y-95336433D01*
X127005483Y-95527510D01*
X127005485Y-95527512D01*
X127172490Y-95694517D01*
X127179603Y-95699685D01*
X127222266Y-95755017D01*
X127228242Y-95824630D01*
X127195634Y-95886424D01*
X127179603Y-95900315D01*
X127172490Y-95905482D01*
X127005485Y-96072487D01*
X127005485Y-96072488D01*
X127005483Y-96072490D01*
X126981423Y-96105606D01*
X126866657Y-96263566D01*
X126759433Y-96474003D01*
X126686446Y-96698631D01*
X126649500Y-96931902D01*
X126649500Y-97668097D01*
X126686446Y-97901368D01*
X126759433Y-98125996D01*
X126857259Y-98317988D01*
X126866657Y-98336433D01*
X127005483Y-98527510D01*
X127172490Y-98694517D01*
X127363567Y-98833343D01*
X127462991Y-98884002D01*
X127574003Y-98940566D01*
X127574005Y-98940566D01*
X127574008Y-98940568D01*
X127694412Y-98979689D01*
X127798631Y-99013553D01*
X128031903Y-99050500D01*
X128031908Y-99050500D01*
X128268097Y-99050500D01*
X128501368Y-99013553D01*
X128505652Y-99012161D01*
X128725992Y-98940568D01*
X128936433Y-98833343D01*
X129127510Y-98694517D01*
X129294517Y-98527510D01*
X129433343Y-98336433D01*
X129540568Y-98125992D01*
X129613553Y-97901368D01*
X129617455Y-97876730D01*
X129650500Y-97668097D01*
X129650500Y-96931902D01*
X129613553Y-96698631D01*
X129565734Y-96551461D01*
X129540568Y-96474008D01*
X129540566Y-96474005D01*
X129540566Y-96474003D01*
X129471122Y-96337713D01*
X129433343Y-96263567D01*
X129294517Y-96072490D01*
X129127510Y-95905483D01*
X129120401Y-95900318D01*
X129077735Y-95844988D01*
X129071756Y-95775375D01*
X129104362Y-95713580D01*
X129120401Y-95699682D01*
X129120500Y-95699609D01*
X129127510Y-95694517D01*
X129294517Y-95527510D01*
X129433343Y-95336433D01*
X129540568Y-95125992D01*
X129613553Y-94901368D01*
X129650500Y-94668097D01*
X129650500Y-93931902D01*
X129613553Y-93698631D01*
X129555227Y-93519124D01*
X129540568Y-93474008D01*
X129540566Y-93474005D01*
X129540566Y-93474003D01*
X129478753Y-93352690D01*
X129433343Y-93263567D01*
X129294517Y-93072490D01*
X129127510Y-92905483D01*
X129119973Y-92900007D01*
X129077309Y-92844678D01*
X129071331Y-92775064D01*
X129103938Y-92713270D01*
X129119981Y-92699369D01*
X129127182Y-92694137D01*
X129294133Y-92527186D01*
X129432914Y-92336171D01*
X129540102Y-92125802D01*
X129613065Y-91901247D01*
X129650000Y-91668052D01*
X129650000Y-91550000D01*
X128650000Y-91550000D01*
X128650000Y-91050000D01*
X129650000Y-91050000D01*
X129650000Y-90931947D01*
X129613065Y-90698752D01*
X129540102Y-90474197D01*
X129432914Y-90263828D01*
X129294133Y-90072813D01*
X129127186Y-89905866D01*
X128936171Y-89767085D01*
X128725802Y-89659897D01*
X128501247Y-89586934D01*
X128400000Y-89570897D01*
X128400000Y-90616988D01*
X128342993Y-90584075D01*
X128215826Y-90550000D01*
X128084174Y-90550000D01*
X127957007Y-90584075D01*
X127900000Y-90616988D01*
X127900000Y-89570897D01*
X127798752Y-89586934D01*
X127574197Y-89659897D01*
X127363828Y-89767085D01*
X127172813Y-89905866D01*
X127005866Y-90072813D01*
X126867085Y-90263828D01*
X126759897Y-90474197D01*
X126686934Y-90698752D01*
X126650000Y-90931947D01*
X126650000Y-91050000D01*
X127650000Y-91050000D01*
X127650000Y-91550000D01*
X126650000Y-91550000D01*
X126650000Y-91668052D01*
X126686934Y-91901247D01*
X126759897Y-92125802D01*
X126867085Y-92336171D01*
X127005866Y-92527186D01*
X127172819Y-92694139D01*
X127180022Y-92699372D01*
X127222689Y-92754701D01*
X127228669Y-92824315D01*
X127196063Y-92886110D01*
X127180029Y-92900005D01*
X127172493Y-92905480D01*
X127172487Y-92905485D01*
X127005485Y-93072487D01*
X127005485Y-93072488D01*
X127005483Y-93072490D01*
X126960465Y-93134452D01*
X126866657Y-93263566D01*
X126759433Y-93474003D01*
X126686446Y-93698631D01*
X126649500Y-93931902D01*
X121570641Y-93931902D01*
X121714119Y-93884358D01*
X121714124Y-93884356D01*
X121816035Y-93821497D01*
X121863345Y-93792315D01*
X121987315Y-93668345D01*
X122079356Y-93519124D01*
X122079358Y-93519119D01*
X122134505Y-93352697D01*
X122134506Y-93352690D01*
X122144999Y-93249986D01*
X122145000Y-93249973D01*
X122145000Y-92830000D01*
X121092709Y-92830000D01*
X121104452Y-92809661D01*
X121145000Y-92658333D01*
X121145000Y-92501667D01*
X121104452Y-92350339D01*
X121092709Y-92330000D01*
X122144999Y-92330000D01*
X122144999Y-91910028D01*
X122144998Y-91910013D01*
X122134505Y-91807302D01*
X122079358Y-91640880D01*
X122079356Y-91640875D01*
X121987315Y-91491654D01*
X121863345Y-91367684D01*
X121714118Y-91275640D01*
X121713277Y-91275248D01*
X121712796Y-91274824D01*
X121707975Y-91271851D01*
X121708483Y-91271027D01*
X121660836Y-91229078D01*
X121641681Y-91161885D01*
X121661894Y-91095003D01*
X121677987Y-91075192D01*
X121820359Y-90932821D01*
X121947157Y-90758299D01*
X122045092Y-90566089D01*
X122111754Y-90360926D01*
X122139273Y-90187180D01*
X122145500Y-90147866D01*
X122145500Y-89932133D01*
X122112765Y-89725460D01*
X122111754Y-89719074D01*
X122045092Y-89513911D01*
X121947157Y-89321701D01*
X121820359Y-89147179D01*
X121667821Y-88994641D01*
X121496704Y-88870317D01*
X121454040Y-88814988D01*
X121448061Y-88745374D01*
X121480667Y-88683580D01*
X121496702Y-88669684D01*
X121667821Y-88545359D01*
X121820359Y-88392821D01*
X121947157Y-88218299D01*
X122045092Y-88026089D01*
X122111754Y-87820926D01*
X122135871Y-87668657D01*
X122145500Y-87607866D01*
X122145500Y-87392133D01*
X122111754Y-87179077D01*
X122111754Y-87179074D01*
X122045092Y-86973911D01*
X121947157Y-86781701D01*
X121820359Y-86607179D01*
X121667821Y-86454641D01*
X121667820Y-86454640D01*
X121601613Y-86406537D01*
X121558948Y-86351207D01*
X121550500Y-86306220D01*
X121550500Y-83665782D01*
X121570185Y-83598743D01*
X121586819Y-83578101D01*
X121920386Y-83244534D01*
X122560503Y-82604417D01*
X123211590Y-81953330D01*
X123272910Y-81919847D01*
X123342602Y-81924831D01*
X123398535Y-81966703D01*
X123422952Y-82032167D01*
X123421741Y-82060410D01*
X123400000Y-82197681D01*
X123400000Y-82402317D01*
X123432009Y-82604417D01*
X123495244Y-82799031D01*
X123588141Y-82981350D01*
X123588147Y-82981359D01*
X123620523Y-83025921D01*
X123620524Y-83025922D01*
X124300000Y-82346446D01*
X124300000Y-82352661D01*
X124327259Y-82454394D01*
X124379920Y-82545606D01*
X124454394Y-82620080D01*
X124545606Y-82672741D01*
X124647339Y-82700000D01*
X124653553Y-82700000D01*
X123974076Y-83379474D01*
X124018650Y-83411859D01*
X124200968Y-83504755D01*
X124395582Y-83567990D01*
X124597683Y-83600000D01*
X124802317Y-83600000D01*
X125004417Y-83567990D01*
X125199031Y-83504755D01*
X125381349Y-83411859D01*
X125425921Y-83379474D01*
X124746447Y-82700000D01*
X124752661Y-82700000D01*
X124854394Y-82672741D01*
X124945606Y-82620080D01*
X125020080Y-82545606D01*
X125072741Y-82454394D01*
X125100000Y-82352661D01*
X125100000Y-82346447D01*
X125779474Y-83025921D01*
X125811859Y-82981349D01*
X125904755Y-82799031D01*
X125967990Y-82604417D01*
X126000000Y-82402317D01*
X126000000Y-82297648D01*
X126949500Y-82297648D01*
X126949500Y-82502351D01*
X126981522Y-82704534D01*
X127044781Y-82899223D01*
X127086233Y-82980575D01*
X127115381Y-83037782D01*
X127137715Y-83081613D01*
X127258028Y-83247213D01*
X127402786Y-83391971D01*
X127557749Y-83504556D01*
X127568390Y-83512287D01*
X127677713Y-83567990D01*
X127750776Y-83605218D01*
X127750778Y-83605218D01*
X127750781Y-83605220D01*
X127855137Y-83639127D01*
X127945465Y-83668477D01*
X128046557Y-83684488D01*
X128147648Y-83700500D01*
X128147649Y-83700500D01*
X128352351Y-83700500D01*
X128352352Y-83700500D01*
X128554534Y-83668477D01*
X128749219Y-83605220D01*
X128931610Y-83512287D01*
X129052877Y-83424181D01*
X129118683Y-83400702D01*
X129125762Y-83400500D01*
X130868542Y-83400500D01*
X130899566Y-83394328D01*
X130965188Y-83381275D01*
X131061836Y-83362051D01*
X131115165Y-83339961D01*
X131243914Y-83286632D01*
X131376609Y-83197967D01*
X131443287Y-83177090D01*
X131510667Y-83195575D01*
X131557357Y-83247553D01*
X131569500Y-83301070D01*
X131569500Y-83518541D01*
X131569500Y-83518543D01*
X131569499Y-83518543D01*
X131607947Y-83711829D01*
X131607950Y-83711839D01*
X131683364Y-83893907D01*
X131683371Y-83893920D01*
X131792859Y-84057780D01*
X131792860Y-84057781D01*
X131792861Y-84057782D01*
X131932218Y-84197139D01*
X131932219Y-84197139D01*
X131939286Y-84204206D01*
X131939285Y-84204206D01*
X131939289Y-84204209D01*
X133692898Y-85957819D01*
X133726383Y-86019142D01*
X133721399Y-86088834D01*
X133679527Y-86144767D01*
X133614063Y-86169184D01*
X133605217Y-86169500D01*
X132761441Y-86169500D01*
X132631351Y-86184157D01*
X132631341Y-86184159D01*
X132466395Y-86241877D01*
X132318423Y-86334853D01*
X132194853Y-86458423D01*
X132101877Y-86606395D01*
X132044159Y-86771341D01*
X132044157Y-86771351D01*
X132029500Y-86901441D01*
X132029500Y-87538558D01*
X132044157Y-87668648D01*
X132044159Y-87668658D01*
X132097441Y-87820926D01*
X132101878Y-87833606D01*
X132194853Y-87981576D01*
X132318424Y-88105147D01*
X132466394Y-88198122D01*
X132631343Y-88255841D01*
X132631349Y-88255841D01*
X132631351Y-88255842D01*
X132672750Y-88260506D01*
X132761442Y-88270499D01*
X132761445Y-88270500D01*
X132761448Y-88270500D01*
X133605217Y-88270500D01*
X133672256Y-88290185D01*
X133718011Y-88342989D01*
X133727955Y-88412147D01*
X133698930Y-88475703D01*
X133692898Y-88482181D01*
X133012220Y-89162859D01*
X133012218Y-89162861D01*
X132967132Y-89207947D01*
X132872859Y-89302219D01*
X132763371Y-89466079D01*
X132763364Y-89466092D01*
X132729099Y-89548816D01*
X132729093Y-89548833D01*
X132727458Y-89552781D01*
X132687949Y-89648164D01*
X132678061Y-89697873D01*
X132676521Y-89705612D01*
X132676520Y-89705617D01*
X132649500Y-89841456D01*
X132649500Y-91344237D01*
X132629815Y-91411276D01*
X132625818Y-91417122D01*
X132537715Y-91538386D01*
X132444781Y-91720776D01*
X132381522Y-91915465D01*
X132349500Y-92117648D01*
X132349500Y-92322351D01*
X132381522Y-92524534D01*
X132444781Y-92719223D01*
X132498329Y-92824315D01*
X132536895Y-92900005D01*
X132537715Y-92901613D01*
X132658028Y-93067213D01*
X132802786Y-93211971D01*
X132922875Y-93299219D01*
X132968390Y-93332287D01*
X133084306Y-93391349D01*
X133150776Y-93425218D01*
X133150778Y-93425218D01*
X133150781Y-93425220D01*
X133255137Y-93459127D01*
X133345465Y-93488477D01*
X133446557Y-93504488D01*
X133547648Y-93520500D01*
X133547649Y-93520500D01*
X133752351Y-93520500D01*
X133752352Y-93520500D01*
X133954534Y-93488477D01*
X134149219Y-93425220D01*
X134331610Y-93332287D01*
X134444889Y-93249986D01*
X134497213Y-93211971D01*
X134497215Y-93211968D01*
X134497219Y-93211966D01*
X134641966Y-93067219D01*
X134641968Y-93067215D01*
X134641971Y-93067213D01*
X134751329Y-92916692D01*
X134762287Y-92901610D01*
X134855220Y-92719219D01*
X134918477Y-92524534D01*
X134950500Y-92322352D01*
X134950500Y-92117648D01*
X135849500Y-92117648D01*
X135849500Y-92322351D01*
X135881522Y-92524534D01*
X135944781Y-92719223D01*
X135998329Y-92824315D01*
X136036895Y-92900005D01*
X136037715Y-92901613D01*
X136158028Y-93067213D01*
X136302786Y-93211971D01*
X136422875Y-93299219D01*
X136468390Y-93332287D01*
X136584306Y-93391349D01*
X136650776Y-93425218D01*
X136650778Y-93425218D01*
X136650781Y-93425220D01*
X136755137Y-93459127D01*
X136845465Y-93488477D01*
X136946557Y-93504488D01*
X137047648Y-93520500D01*
X137047649Y-93520500D01*
X137252351Y-93520500D01*
X137252352Y-93520500D01*
X137454534Y-93488477D01*
X137649219Y-93425220D01*
X137831610Y-93332287D01*
X137952877Y-93244181D01*
X138018683Y-93220702D01*
X138025762Y-93220500D01*
X139713847Y-93220500D01*
X139780886Y-93240185D01*
X139826641Y-93292989D01*
X139836585Y-93362147D01*
X139807560Y-93425703D01*
X139801528Y-93432181D01*
X136512221Y-96721488D01*
X136512218Y-96721491D01*
X136474678Y-96759031D01*
X136372859Y-96860849D01*
X136263371Y-97024710D01*
X136263364Y-97024723D01*
X136224525Y-97118490D01*
X136224521Y-97118500D01*
X136222279Y-97123915D01*
X136187949Y-97206794D01*
X136171839Y-97287783D01*
X136170607Y-97293971D01*
X136170607Y-97293975D01*
X136149500Y-97400087D01*
X136149500Y-101504237D01*
X136129815Y-101571276D01*
X136125818Y-101577122D01*
X136037715Y-101698386D01*
X135944781Y-101880776D01*
X135881522Y-102075465D01*
X135849500Y-102277648D01*
X135849500Y-102482351D01*
X135881522Y-102684534D01*
X135944781Y-102879223D01*
X136037715Y-103061613D01*
X136158028Y-103227213D01*
X136302786Y-103371971D01*
X136428816Y-103463535D01*
X136468390Y-103492287D01*
X136557740Y-103537813D01*
X136650776Y-103585218D01*
X136650778Y-103585218D01*
X136650781Y-103585220D01*
X136755137Y-103619127D01*
X136845465Y-103648477D01*
X136946557Y-103664488D01*
X137047648Y-103680500D01*
X137047649Y-103680500D01*
X137252351Y-103680500D01*
X137252352Y-103680500D01*
X137454534Y-103648477D01*
X137649219Y-103585220D01*
X137831610Y-103492287D01*
X137924590Y-103424732D01*
X137997213Y-103371971D01*
X137997215Y-103371968D01*
X137997219Y-103371966D01*
X138141966Y-103227219D01*
X138141968Y-103227215D01*
X138141971Y-103227213D01*
X138203784Y-103142133D01*
X138262287Y-103061610D01*
X138355220Y-102879219D01*
X138418477Y-102684534D01*
X138450500Y-102482352D01*
X138450500Y-102277648D01*
X138429836Y-102147180D01*
X138418477Y-102075465D01*
X138383714Y-101968477D01*
X138355220Y-101880781D01*
X138355218Y-101880778D01*
X138355218Y-101880776D01*
X138321503Y-101814607D01*
X138262287Y-101698390D01*
X138249654Y-101681003D01*
X138174182Y-101577122D01*
X138150702Y-101511316D01*
X138150500Y-101504237D01*
X138150500Y-97964411D01*
X138170185Y-97897372D01*
X138186814Y-97876735D01*
X139263549Y-96800000D01*
X141393391Y-96800000D01*
X142354314Y-96800000D01*
X142349920Y-96804394D01*
X142297259Y-96895606D01*
X142270000Y-96997339D01*
X142270000Y-97102661D01*
X142297259Y-97204394D01*
X142349920Y-97295606D01*
X142354314Y-97300000D01*
X141393391Y-97300000D01*
X141402009Y-97354413D01*
X141465244Y-97549029D01*
X141558140Y-97731349D01*
X141678417Y-97896894D01*
X141678417Y-97896895D01*
X141823104Y-98041582D01*
X141988650Y-98161859D01*
X142170968Y-98254754D01*
X142365578Y-98317988D01*
X142420000Y-98326607D01*
X142420000Y-97365686D01*
X142424394Y-97370080D01*
X142515606Y-97422741D01*
X142617339Y-97450000D01*
X142722661Y-97450000D01*
X142824394Y-97422741D01*
X142915606Y-97370080D01*
X142920000Y-97365686D01*
X142920000Y-98326606D01*
X142974421Y-98317988D01*
X143169031Y-98254754D01*
X143351349Y-98161859D01*
X143516894Y-98041582D01*
X143516895Y-98041582D01*
X143661582Y-97896895D01*
X143661582Y-97896894D01*
X143781859Y-97731349D01*
X143874755Y-97549029D01*
X143937990Y-97354413D01*
X143946609Y-97300000D01*
X142985686Y-97300000D01*
X142990080Y-97295606D01*
X143042741Y-97204394D01*
X143070000Y-97102661D01*
X143070000Y-96997339D01*
X143042741Y-96895606D01*
X142990080Y-96804394D01*
X142985686Y-96800000D01*
X143946609Y-96800000D01*
X143937990Y-96745586D01*
X143874755Y-96550970D01*
X143781859Y-96368650D01*
X143661582Y-96203105D01*
X143661582Y-96203104D01*
X143516895Y-96058417D01*
X143351349Y-95938140D01*
X143169029Y-95845244D01*
X142974413Y-95782009D01*
X142920000Y-95773390D01*
X142920000Y-96734314D01*
X142915606Y-96729920D01*
X142824394Y-96677259D01*
X142722661Y-96650000D01*
X142617339Y-96650000D01*
X142515606Y-96677259D01*
X142424394Y-96729920D01*
X142420000Y-96734314D01*
X142420000Y-95773390D01*
X142365586Y-95782009D01*
X142170970Y-95845244D01*
X141988650Y-95938140D01*
X141823105Y-96058417D01*
X141823104Y-96058417D01*
X141678417Y-96203104D01*
X141678417Y-96203105D01*
X141558140Y-96368650D01*
X141465244Y-96550970D01*
X141402009Y-96745586D01*
X141393391Y-96800000D01*
X139263549Y-96800000D01*
X144768289Y-91295259D01*
X144829610Y-91261776D01*
X144899302Y-91266760D01*
X144913545Y-91273120D01*
X144921546Y-91277314D01*
X144928390Y-91282287D01*
X145022263Y-91330118D01*
X145022912Y-91330458D01*
X145047530Y-91354257D01*
X145072426Y-91377770D01*
X145072606Y-91378498D01*
X145073146Y-91379020D01*
X145080991Y-91412360D01*
X145089221Y-91445591D01*
X145088979Y-91446301D01*
X145089151Y-91447032D01*
X145077735Y-91479294D01*
X145066684Y-91511725D01*
X145066073Y-91512253D01*
X145065845Y-91512900D01*
X145060931Y-91516709D01*
X145021630Y-91550765D01*
X144928644Y-91598143D01*
X144884077Y-91630523D01*
X144884077Y-91630524D01*
X145563554Y-92310000D01*
X145557339Y-92310000D01*
X145455606Y-92337259D01*
X145364394Y-92389920D01*
X145289920Y-92464394D01*
X145237259Y-92555606D01*
X145210000Y-92657339D01*
X145210000Y-92663553D01*
X144530524Y-91984077D01*
X144530523Y-91984077D01*
X144498143Y-92028644D01*
X144405244Y-92210968D01*
X144342009Y-92405582D01*
X144310000Y-92607682D01*
X144310000Y-92812317D01*
X144342009Y-93014417D01*
X144405244Y-93209031D01*
X144498141Y-93391350D01*
X144498147Y-93391359D01*
X144530523Y-93435921D01*
X144530524Y-93435922D01*
X145210000Y-92756446D01*
X145210000Y-92762661D01*
X145237259Y-92864394D01*
X145289920Y-92955606D01*
X145364394Y-93030080D01*
X145455606Y-93082741D01*
X145557339Y-93110000D01*
X145563553Y-93110000D01*
X144884076Y-93789474D01*
X144928650Y-93821859D01*
X145110968Y-93914755D01*
X145305582Y-93977990D01*
X145507683Y-94010000D01*
X145712317Y-94010000D01*
X145914417Y-93977990D01*
X146109031Y-93914755D01*
X146291349Y-93821859D01*
X146335922Y-93789474D01*
X145656447Y-93110000D01*
X145662661Y-93110000D01*
X145764394Y-93082741D01*
X145855606Y-93030080D01*
X145930080Y-92955606D01*
X145982741Y-92864394D01*
X146010000Y-92762661D01*
X146010000Y-92756447D01*
X146689474Y-93435921D01*
X146721859Y-93391349D01*
X146814755Y-93209031D01*
X146877990Y-93014417D01*
X146910000Y-92812317D01*
X146910000Y-92607682D01*
X146877990Y-92405582D01*
X146814755Y-92210968D01*
X146721859Y-92028650D01*
X146689474Y-91984077D01*
X146689474Y-91984076D01*
X146010000Y-92663551D01*
X146010000Y-92657339D01*
X145982741Y-92555606D01*
X145930080Y-92464394D01*
X145855606Y-92389920D01*
X145764394Y-92337259D01*
X145662661Y-92310000D01*
X145656446Y-92310000D01*
X146335922Y-91630524D01*
X146335921Y-91630523D01*
X146291359Y-91598147D01*
X146291350Y-91598141D01*
X146198369Y-91550765D01*
X146147573Y-91502790D01*
X146130778Y-91434969D01*
X146153315Y-91368835D01*
X146198370Y-91329795D01*
X146220585Y-91318476D01*
X146291610Y-91282287D01*
X146356393Y-91235220D01*
X146457213Y-91161971D01*
X146457215Y-91161968D01*
X146457219Y-91161966D01*
X146601966Y-91017219D01*
X146601968Y-91017215D01*
X146601971Y-91017213D01*
X146672962Y-90919500D01*
X146722287Y-90851610D01*
X146815220Y-90669219D01*
X146878477Y-90474534D01*
X146910500Y-90272352D01*
X146910500Y-90067648D01*
X146884349Y-89902539D01*
X146878477Y-89865465D01*
X146832986Y-89725460D01*
X146815220Y-89670781D01*
X146815218Y-89670778D01*
X146815218Y-89670776D01*
X146755098Y-89552786D01*
X146722287Y-89488390D01*
X146698729Y-89455965D01*
X146601971Y-89322786D01*
X146457213Y-89178028D01*
X146291614Y-89057715D01*
X146255865Y-89039500D01*
X146198917Y-89010483D01*
X146148123Y-88962511D01*
X146131328Y-88894690D01*
X146153865Y-88828555D01*
X146198917Y-88789516D01*
X146291610Y-88742287D01*
X146372414Y-88683580D01*
X146457213Y-88621971D01*
X146457215Y-88621968D01*
X146457219Y-88621966D01*
X146601966Y-88477219D01*
X146601968Y-88477215D01*
X146601971Y-88477213D01*
X146663283Y-88392823D01*
X146722287Y-88311610D01*
X146815220Y-88129219D01*
X146878477Y-87934534D01*
X146910500Y-87732352D01*
X146910500Y-87527648D01*
X146897554Y-87445909D01*
X146878477Y-87325465D01*
X146815218Y-87130776D01*
X146781503Y-87064607D01*
X146722287Y-86948390D01*
X146640012Y-86835147D01*
X146634182Y-86827122D01*
X146610702Y-86761316D01*
X146610500Y-86754237D01*
X146610500Y-86302230D01*
X146630185Y-86235191D01*
X146646819Y-86214549D01*
X146692184Y-86169184D01*
X146752712Y-86108656D01*
X146844814Y-85959334D01*
X146899999Y-85792797D01*
X146910500Y-85690009D01*
X146910499Y-85255780D01*
X146930183Y-85188742D01*
X146946813Y-85168105D01*
X147137778Y-84977141D01*
X147137782Y-84977139D01*
X147277139Y-84837782D01*
X147386632Y-84673914D01*
X147452056Y-84515965D01*
X147462051Y-84491836D01*
X147483889Y-84382051D01*
X147500500Y-84298541D01*
X147500500Y-80375761D01*
X147520185Y-80308722D01*
X147524165Y-80302899D01*
X147612287Y-80181610D01*
X147705220Y-79999219D01*
X147768477Y-79804534D01*
X147800500Y-79602352D01*
X147800500Y-79397648D01*
X150199500Y-79397648D01*
X150199500Y-79602351D01*
X150231522Y-79804534D01*
X150294781Y-79999223D01*
X150387715Y-80181613D01*
X150508028Y-80347213D01*
X150652786Y-80491971D01*
X150790379Y-80591936D01*
X150818390Y-80612287D01*
X150934607Y-80671503D01*
X151000776Y-80705218D01*
X151000778Y-80705218D01*
X151000781Y-80705220D01*
X151098264Y-80736894D01*
X151195465Y-80768477D01*
X151272966Y-80780751D01*
X151343513Y-80791925D01*
X151406648Y-80821854D01*
X151411796Y-80826716D01*
X153268860Y-82683781D01*
X153268861Y-82683782D01*
X153384110Y-82799031D01*
X153408219Y-82823140D01*
X153572079Y-82932628D01*
X153572092Y-82932635D01*
X153700833Y-82985961D01*
X153743744Y-83003735D01*
X153754164Y-83008051D01*
X153850812Y-83027275D01*
X153899135Y-83036887D01*
X153947458Y-83046500D01*
X153947459Y-83046500D01*
X167597542Y-83046500D01*
X167628566Y-83040328D01*
X167694188Y-83027275D01*
X167790836Y-83008051D01*
X167844165Y-82985961D01*
X167972914Y-82932632D01*
X168136782Y-82823139D01*
X168276139Y-82683782D01*
X168276140Y-82683781D01*
X168277139Y-82682782D01*
X168386632Y-82518914D01*
X168420238Y-82437781D01*
X168439961Y-82390166D01*
X168439961Y-82390165D01*
X168462051Y-82336836D01*
X168500500Y-82143540D01*
X168500500Y-81946460D01*
X168500500Y-81164042D01*
X168520185Y-81097003D01*
X168536819Y-81076361D01*
X168545359Y-81067821D01*
X168672157Y-80893299D01*
X168770092Y-80701089D01*
X168836754Y-80495926D01*
X168856822Y-80369223D01*
X168870500Y-80282866D01*
X168870500Y-79617133D01*
X168836754Y-79404077D01*
X168836754Y-79404074D01*
X168770092Y-79198911D01*
X168672157Y-79006701D01*
X168545359Y-78832179D01*
X168392821Y-78679641D01*
X168218299Y-78552843D01*
X168026089Y-78454908D01*
X167820926Y-78388246D01*
X167820924Y-78388245D01*
X167820922Y-78388245D01*
X167607866Y-78354500D01*
X167607861Y-78354500D01*
X167392139Y-78354500D01*
X167392134Y-78354500D01*
X167179077Y-78388245D01*
X167179074Y-78388246D01*
X167067497Y-78424500D01*
X166973908Y-78454909D01*
X166781700Y-78552843D01*
X166714700Y-78601522D01*
X166607179Y-78679641D01*
X166607177Y-78679643D01*
X166607176Y-78679643D01*
X166454643Y-78832176D01*
X166454643Y-78832177D01*
X166454641Y-78832179D01*
X166377729Y-78938038D01*
X166330318Y-79003294D01*
X166274988Y-79045959D01*
X166205374Y-79051938D01*
X166143579Y-79019332D01*
X166129682Y-79003294D01*
X166092639Y-78952309D01*
X166005359Y-78832179D01*
X165852821Y-78679641D01*
X165678299Y-78552843D01*
X165486089Y-78454908D01*
X165280926Y-78388246D01*
X165280924Y-78388245D01*
X165280922Y-78388245D01*
X165067866Y-78354500D01*
X165067861Y-78354500D01*
X164852139Y-78354500D01*
X164852134Y-78354500D01*
X164639077Y-78388245D01*
X164639074Y-78388246D01*
X164527497Y-78424500D01*
X164433908Y-78454909D01*
X164241700Y-78552843D01*
X164067180Y-78679640D01*
X163924816Y-78822004D01*
X163863493Y-78855488D01*
X163793801Y-78850504D01*
X163737868Y-78808632D01*
X163724748Y-78786716D01*
X163724356Y-78785876D01*
X163632315Y-78636654D01*
X163508345Y-78512684D01*
X163359124Y-78420643D01*
X163359119Y-78420641D01*
X163192697Y-78365494D01*
X163192690Y-78365493D01*
X163089986Y-78355000D01*
X162670000Y-78355000D01*
X162670000Y-79407290D01*
X162649661Y-79395548D01*
X162498333Y-79355000D01*
X162341667Y-79355000D01*
X162190339Y-79395548D01*
X162170000Y-79407290D01*
X162170000Y-78355000D01*
X161750028Y-78355000D01*
X161750012Y-78355001D01*
X161647302Y-78365494D01*
X161480880Y-78420641D01*
X161480875Y-78420643D01*
X161331654Y-78512684D01*
X161207684Y-78636654D01*
X161115643Y-78785875D01*
X161115641Y-78785880D01*
X161060494Y-78952302D01*
X161060493Y-78952309D01*
X161050000Y-79055013D01*
X161050000Y-79700000D01*
X161877291Y-79700000D01*
X161865548Y-79720339D01*
X161825000Y-79871667D01*
X161825000Y-80028333D01*
X161865548Y-80179661D01*
X161877291Y-80200000D01*
X161050001Y-80200000D01*
X161050001Y-80844986D01*
X161056531Y-80908898D01*
X161043762Y-80977591D01*
X160995881Y-81028475D01*
X160933173Y-81045500D01*
X159982340Y-81045500D01*
X159915301Y-81025815D01*
X159869546Y-80973011D01*
X159859602Y-80903853D01*
X159888627Y-80840297D01*
X159894659Y-80833819D01*
X159991582Y-80736895D01*
X159991582Y-80736894D01*
X160111859Y-80571349D01*
X160204755Y-80389029D01*
X160267990Y-80194413D01*
X160276609Y-80140000D01*
X159315686Y-80140000D01*
X159320080Y-80135606D01*
X159372741Y-80044394D01*
X159400000Y-79942661D01*
X159400000Y-79837339D01*
X159372741Y-79735606D01*
X159320080Y-79644394D01*
X159315686Y-79640000D01*
X160276609Y-79640000D01*
X160267990Y-79585586D01*
X160204755Y-79390970D01*
X160111859Y-79208650D01*
X160050902Y-79124750D01*
X159991582Y-79043105D01*
X159991582Y-79043104D01*
X159846895Y-78898417D01*
X159681349Y-78778140D01*
X159499029Y-78685244D01*
X159304413Y-78622009D01*
X159250000Y-78613390D01*
X159250000Y-79574314D01*
X159245606Y-79569920D01*
X159154394Y-79517259D01*
X159052661Y-79490000D01*
X158947339Y-79490000D01*
X158845606Y-79517259D01*
X158754394Y-79569920D01*
X158750000Y-79574314D01*
X158750000Y-78613390D01*
X158695586Y-78622009D01*
X158500970Y-78685244D01*
X158318650Y-78778140D01*
X158153105Y-78898417D01*
X158153104Y-78898417D01*
X158008417Y-79043104D01*
X158008417Y-79043105D01*
X157888140Y-79208650D01*
X157795244Y-79390970D01*
X157732009Y-79585586D01*
X157723391Y-79640000D01*
X158684314Y-79640000D01*
X158679920Y-79644394D01*
X158627259Y-79735606D01*
X158600000Y-79837339D01*
X158600000Y-79942661D01*
X158627259Y-80044394D01*
X158679920Y-80135606D01*
X158684314Y-80140000D01*
X157723391Y-80140000D01*
X157732009Y-80194413D01*
X157795244Y-80389029D01*
X157888140Y-80571349D01*
X158008417Y-80736894D01*
X158008417Y-80736895D01*
X158105341Y-80833819D01*
X158138826Y-80895142D01*
X158133842Y-80964834D01*
X158091970Y-81020767D01*
X158026506Y-81045184D01*
X158017660Y-81045500D01*
X156913047Y-81045500D01*
X156846008Y-81025815D01*
X156800253Y-80973011D01*
X156790309Y-80903853D01*
X156819334Y-80840297D01*
X156825366Y-80833819D01*
X156867260Y-80791925D01*
X156941966Y-80717219D01*
X156941968Y-80717215D01*
X156941971Y-80717213D01*
X157018205Y-80612284D01*
X157062287Y-80551610D01*
X157155220Y-80369219D01*
X157218477Y-80174534D01*
X157250500Y-79972352D01*
X157250500Y-79767648D01*
X157243007Y-79720339D01*
X157239225Y-79696461D01*
X157218477Y-79565465D01*
X157168543Y-79411785D01*
X157155220Y-79370781D01*
X157155218Y-79370778D01*
X157155218Y-79370776D01*
X157118900Y-79299500D01*
X157062287Y-79188390D01*
X157033337Y-79148543D01*
X156941971Y-79022786D01*
X156797213Y-78878028D01*
X156631613Y-78757715D01*
X156631612Y-78757714D01*
X156631610Y-78757713D01*
X156574653Y-78728691D01*
X156449223Y-78664781D01*
X156254534Y-78601522D01*
X156079995Y-78573878D01*
X156052352Y-78569500D01*
X155847648Y-78569500D01*
X155823329Y-78573351D01*
X155645465Y-78601522D01*
X155450776Y-78664781D01*
X155268386Y-78757715D01*
X155102786Y-78878028D01*
X154958028Y-79022786D01*
X154837715Y-79188386D01*
X154744781Y-79370776D01*
X154681522Y-79565465D01*
X154649500Y-79767648D01*
X154649500Y-79972351D01*
X154681522Y-80174534D01*
X154744781Y-80369223D01*
X154837715Y-80551613D01*
X154958028Y-80717213D01*
X155074634Y-80833819D01*
X155108119Y-80895142D01*
X155103135Y-80964834D01*
X155061263Y-81020767D01*
X154995799Y-81045184D01*
X154986953Y-81045500D01*
X154511783Y-81045500D01*
X154444744Y-81025815D01*
X154424102Y-81009181D01*
X152826717Y-79411797D01*
X152793232Y-79350474D01*
X152791925Y-79343513D01*
X152786968Y-79312218D01*
X152768477Y-79195466D01*
X152705220Y-79000781D01*
X152705218Y-79000778D01*
X152705218Y-79000776D01*
X152653063Y-78898417D01*
X152612287Y-78818390D01*
X152588667Y-78785880D01*
X152491971Y-78652786D01*
X152347213Y-78508028D01*
X152181613Y-78387715D01*
X152181612Y-78387714D01*
X152181610Y-78387713D01*
X152116426Y-78354500D01*
X151999223Y-78294781D01*
X151804534Y-78231522D01*
X151629995Y-78203878D01*
X151602352Y-78199500D01*
X151397648Y-78199500D01*
X151373329Y-78203351D01*
X151195465Y-78231522D01*
X151000776Y-78294781D01*
X150818386Y-78387715D01*
X150652786Y-78508028D01*
X150508028Y-78652786D01*
X150387715Y-78818386D01*
X150294781Y-79000776D01*
X150231522Y-79195465D01*
X150199500Y-79397648D01*
X147800500Y-79397648D01*
X147788089Y-79319289D01*
X147768477Y-79195465D01*
X147718972Y-79043105D01*
X147705220Y-79000781D01*
X147705218Y-79000778D01*
X147705218Y-79000776D01*
X147653063Y-78898417D01*
X147612287Y-78818390D01*
X147588667Y-78785880D01*
X147491971Y-78652786D01*
X147347213Y-78508028D01*
X147181613Y-78387715D01*
X147181612Y-78387714D01*
X147181610Y-78387713D01*
X147116426Y-78354500D01*
X146999223Y-78294781D01*
X146804534Y-78231522D01*
X146629995Y-78203878D01*
X146602352Y-78199500D01*
X146397648Y-78199500D01*
X146373329Y-78203351D01*
X146195465Y-78231522D01*
X146000776Y-78294781D01*
X145818386Y-78387715D01*
X145652786Y-78508028D01*
X145508028Y-78652786D01*
X145387715Y-78818386D01*
X145294781Y-79000776D01*
X145231522Y-79195465D01*
X145199500Y-79397648D01*
X145199500Y-79602351D01*
X145231522Y-79804534D01*
X145294781Y-79999223D01*
X145368060Y-80143039D01*
X145387713Y-80181610D01*
X145475819Y-80302877D01*
X145499298Y-80368681D01*
X145499500Y-80375761D01*
X145499500Y-83665500D01*
X145479815Y-83732539D01*
X145427011Y-83778294D01*
X145375500Y-83789500D01*
X145009998Y-83789500D01*
X145009980Y-83789501D01*
X144907203Y-83800000D01*
X144907200Y-83800001D01*
X144740668Y-83855185D01*
X144740663Y-83855187D01*
X144591342Y-83947289D01*
X144467289Y-84071342D01*
X144375187Y-84220663D01*
X144375186Y-84220666D01*
X144320001Y-84387203D01*
X144320001Y-84387204D01*
X144320000Y-84387204D01*
X144309500Y-84489983D01*
X144309500Y-85690001D01*
X144309501Y-85690018D01*
X144320000Y-85792796D01*
X144320001Y-85792799D01*
X144375185Y-85959331D01*
X144375187Y-85959336D01*
X144467289Y-86108657D01*
X144573181Y-86214549D01*
X144606666Y-86275872D01*
X144609500Y-86302230D01*
X144609500Y-86754237D01*
X144589815Y-86821276D01*
X144585818Y-86827122D01*
X144497715Y-86948386D01*
X144404781Y-87130776D01*
X144341522Y-87325465D01*
X144319391Y-87465199D01*
X144309500Y-87527648D01*
X144309500Y-87732352D01*
X144310349Y-87737713D01*
X144341522Y-87934534D01*
X144404781Y-88129223D01*
X144468691Y-88254653D01*
X144486796Y-88290185D01*
X144497715Y-88311613D01*
X144618028Y-88477213D01*
X144762786Y-88621971D01*
X144895731Y-88718559D01*
X144928390Y-88742287D01*
X145000192Y-88778872D01*
X145021080Y-88789515D01*
X145071876Y-88837490D01*
X145088671Y-88905311D01*
X145066134Y-88971446D01*
X145021080Y-89010485D01*
X144928386Y-89057715D01*
X144807123Y-89145818D01*
X144741317Y-89169298D01*
X144734238Y-89169500D01*
X144380087Y-89169500D01*
X144313322Y-89182781D01*
X144313321Y-89182781D01*
X144186797Y-89207947D01*
X144186789Y-89207950D01*
X144133464Y-89230037D01*
X144133464Y-89230038D01*
X144087945Y-89248892D01*
X144004719Y-89283366D01*
X144004709Y-89283371D01*
X143840849Y-89392859D01*
X143781658Y-89452051D01*
X143701491Y-89532218D01*
X142947955Y-90285754D01*
X142886632Y-90319239D01*
X142816940Y-90314255D01*
X142761007Y-90272383D01*
X142737801Y-90217471D01*
X142718477Y-90095465D01*
X142675231Y-89962370D01*
X142655220Y-89900781D01*
X142655218Y-89900778D01*
X142655218Y-89900776D01*
X142587098Y-89767085D01*
X142562287Y-89718390D01*
X142547380Y-89697872D01*
X142441971Y-89552786D01*
X142297213Y-89408028D01*
X142131613Y-89287715D01*
X142131612Y-89287714D01*
X142131610Y-89287713D01*
X142074653Y-89258691D01*
X141949223Y-89194781D01*
X141754534Y-89131522D01*
X141579995Y-89103878D01*
X141552352Y-89099500D01*
X141347648Y-89099500D01*
X141323329Y-89103351D01*
X141145465Y-89131522D01*
X140950776Y-89194781D01*
X140768386Y-89287715D01*
X140602786Y-89408028D01*
X140602782Y-89408032D01*
X140458035Y-89552780D01*
X140458028Y-89552786D01*
X140337715Y-89718386D01*
X140244781Y-89900778D01*
X140181522Y-90095468D01*
X140158073Y-90243515D01*
X140128143Y-90306649D01*
X140123281Y-90311797D01*
X139251899Y-91183181D01*
X139190576Y-91216666D01*
X139164218Y-91219500D01*
X138025762Y-91219500D01*
X137958723Y-91199815D01*
X137952877Y-91195818D01*
X137936631Y-91184015D01*
X137894697Y-91153548D01*
X137831613Y-91107715D01*
X137831612Y-91107714D01*
X137831610Y-91107713D01*
X137774653Y-91078691D01*
X137649223Y-91014781D01*
X137454534Y-90951522D01*
X137279995Y-90923878D01*
X137252352Y-90919500D01*
X137047648Y-90919500D01*
X137023329Y-90923351D01*
X136845465Y-90951522D01*
X136650776Y-91014781D01*
X136468386Y-91107715D01*
X136302786Y-91228028D01*
X136158028Y-91372786D01*
X136037715Y-91538386D01*
X135944781Y-91720776D01*
X135881522Y-91915465D01*
X135849500Y-92117648D01*
X134950500Y-92117648D01*
X134924177Y-91951455D01*
X134918477Y-91915465D01*
X134855218Y-91720776D01*
X134814506Y-91640875D01*
X134762287Y-91538390D01*
X134719352Y-91479294D01*
X134674182Y-91417122D01*
X134650702Y-91351316D01*
X134650500Y-91344237D01*
X134650500Y-90405782D01*
X134670185Y-90338743D01*
X134686819Y-90318101D01*
X135428102Y-89576818D01*
X135489425Y-89543333D01*
X135515783Y-89540499D01*
X136447871Y-89540499D01*
X136447872Y-89540499D01*
X136507483Y-89534091D01*
X136603396Y-89498318D01*
X136646729Y-89490500D01*
X138458543Y-89490500D01*
X138497235Y-89482803D01*
X138582549Y-89465833D01*
X138651836Y-89452051D01*
X138719472Y-89424035D01*
X138833914Y-89376632D01*
X138997782Y-89267139D01*
X139137139Y-89127782D01*
X139137140Y-89127780D01*
X139144206Y-89120714D01*
X139144209Y-89120710D01*
X141538203Y-86726715D01*
X141599524Y-86693232D01*
X141606473Y-86691927D01*
X141754534Y-86668477D01*
X141949219Y-86605220D01*
X142131610Y-86512287D01*
X142277164Y-86406537D01*
X142297213Y-86391971D01*
X142297215Y-86391968D01*
X142297219Y-86391966D01*
X142441966Y-86247219D01*
X142441968Y-86247215D01*
X142441971Y-86247213D01*
X142557038Y-86088834D01*
X142562287Y-86081610D01*
X142655220Y-85899219D01*
X142718477Y-85704534D01*
X142750500Y-85502352D01*
X142750500Y-85297648D01*
X142735734Y-85204420D01*
X142718477Y-85095465D01*
X142678320Y-84971877D01*
X142655220Y-84900781D01*
X142655218Y-84900778D01*
X142655218Y-84900776D01*
X142604772Y-84801771D01*
X142562287Y-84718390D01*
X142529974Y-84673914D01*
X142441971Y-84552786D01*
X142297213Y-84408028D01*
X142131613Y-84287715D01*
X142131612Y-84287714D01*
X142131610Y-84287713D01*
X142043436Y-84242786D01*
X141949223Y-84194781D01*
X141754534Y-84131522D01*
X141579995Y-84103878D01*
X141552352Y-84099500D01*
X141347648Y-84099500D01*
X141323329Y-84103351D01*
X141145465Y-84131522D01*
X140950776Y-84194781D01*
X140768386Y-84287715D01*
X140602786Y-84408028D01*
X140458028Y-84552786D01*
X140337715Y-84718386D01*
X140244781Y-84900778D01*
X140181522Y-85095468D01*
X140158073Y-85243515D01*
X140128143Y-85306649D01*
X140123281Y-85311797D01*
X137981899Y-87453181D01*
X137920576Y-87486666D01*
X137894218Y-87489500D01*
X136646729Y-87489500D01*
X136603396Y-87481682D01*
X136507482Y-87445908D01*
X136507483Y-87445908D01*
X136447883Y-87439501D01*
X136447881Y-87439500D01*
X136447873Y-87439500D01*
X136447865Y-87439500D01*
X134954500Y-87439500D01*
X134945814Y-87436949D01*
X134936853Y-87438238D01*
X134912812Y-87427259D01*
X134887461Y-87419815D01*
X134881533Y-87412974D01*
X134873297Y-87409213D01*
X134859007Y-87386978D01*
X134841706Y-87367011D01*
X134839418Y-87356496D01*
X134835523Y-87350435D01*
X134830500Y-87315500D01*
X134830500Y-87124500D01*
X134850185Y-87057461D01*
X134902989Y-87011706D01*
X134954500Y-87000500D01*
X136168555Y-87000500D01*
X136168556Y-87000499D01*
X136298657Y-86985841D01*
X136463606Y-86928122D01*
X136611576Y-86835147D01*
X136735147Y-86711576D01*
X136828122Y-86563606D01*
X136885841Y-86398657D01*
X136900500Y-86268552D01*
X136900500Y-85631448D01*
X136885841Y-85501343D01*
X136828122Y-85336394D01*
X136735147Y-85188424D01*
X136611576Y-85064853D01*
X136463606Y-84971878D01*
X136463605Y-84971877D01*
X136463604Y-84971877D01*
X136298658Y-84914159D01*
X136298648Y-84914157D01*
X136168558Y-84899500D01*
X136168552Y-84899500D01*
X135515783Y-84899500D01*
X135448744Y-84879815D01*
X135428102Y-84863181D01*
X133606819Y-83041898D01*
X133573334Y-82980575D01*
X133570500Y-82954217D01*
X133570500Y-81475761D01*
X133590185Y-81408722D01*
X133594165Y-81402899D01*
X133682287Y-81281610D01*
X133775220Y-81099219D01*
X133838477Y-80904534D01*
X133870500Y-80702352D01*
X133870500Y-80497648D01*
X141429500Y-80497648D01*
X141429500Y-80702351D01*
X141461522Y-80904534D01*
X141524781Y-81099223D01*
X141617715Y-81281613D01*
X141738028Y-81447213D01*
X141882786Y-81591971D01*
X142033478Y-81701453D01*
X142048390Y-81712287D01*
X142164607Y-81771503D01*
X142230776Y-81805218D01*
X142230778Y-81805218D01*
X142230781Y-81805220D01*
X142322875Y-81835143D01*
X142425465Y-81868477D01*
X142526557Y-81884488D01*
X142627648Y-81900500D01*
X142627649Y-81900500D01*
X142832351Y-81900500D01*
X142832352Y-81900500D01*
X143034534Y-81868477D01*
X143229219Y-81805220D01*
X143411610Y-81712287D01*
X143504590Y-81644732D01*
X143577213Y-81591971D01*
X143577215Y-81591968D01*
X143577219Y-81591966D01*
X143721966Y-81447219D01*
X143721968Y-81447215D01*
X143721971Y-81447213D01*
X143837851Y-81287715D01*
X143842287Y-81281610D01*
X143935220Y-81099219D01*
X143998477Y-80904534D01*
X144030500Y-80702352D01*
X144030500Y-80497648D01*
X144014126Y-80394266D01*
X143998477Y-80295465D01*
X143935218Y-80100776D01*
X143901503Y-80034607D01*
X143842287Y-79918390D01*
X143808341Y-79871667D01*
X143721971Y-79752786D01*
X143577213Y-79608028D01*
X143411613Y-79487715D01*
X143411612Y-79487714D01*
X143411610Y-79487713D01*
X143354653Y-79458691D01*
X143229223Y-79394781D01*
X143034534Y-79331522D01*
X142859995Y-79303878D01*
X142832352Y-79299500D01*
X142627648Y-79299500D01*
X142603329Y-79303351D01*
X142425465Y-79331522D01*
X142230776Y-79394781D01*
X142048386Y-79487715D01*
X141882786Y-79608028D01*
X141738028Y-79752786D01*
X141617715Y-79918386D01*
X141524781Y-80100776D01*
X141461522Y-80295465D01*
X141429500Y-80497648D01*
X133870500Y-80497648D01*
X133854126Y-80394266D01*
X133838477Y-80295465D01*
X133775218Y-80100776D01*
X133741503Y-80034607D01*
X133682287Y-79918390D01*
X133648341Y-79871667D01*
X133561971Y-79752786D01*
X133417213Y-79608028D01*
X133251613Y-79487715D01*
X133251612Y-79487714D01*
X133251610Y-79487713D01*
X133194653Y-79458691D01*
X133069223Y-79394781D01*
X132874534Y-79331522D01*
X132699995Y-79303878D01*
X132672352Y-79299500D01*
X132467648Y-79299500D01*
X132443329Y-79303351D01*
X132265465Y-79331522D01*
X132070776Y-79394781D01*
X131888386Y-79487715D01*
X131722786Y-79608028D01*
X131578028Y-79752786D01*
X131457715Y-79918386D01*
X131364781Y-80100778D01*
X131301522Y-80295468D01*
X131278073Y-80443515D01*
X131248143Y-80506649D01*
X131243281Y-80511797D01*
X130391899Y-81363181D01*
X130330576Y-81396666D01*
X130304218Y-81399500D01*
X129125762Y-81399500D01*
X129058723Y-81379815D01*
X129052877Y-81375818D01*
X128931613Y-81287715D01*
X128931612Y-81287714D01*
X128931610Y-81287713D01*
X128874653Y-81258691D01*
X128749223Y-81194781D01*
X128554534Y-81131522D01*
X128379995Y-81103878D01*
X128352352Y-81099500D01*
X128147648Y-81099500D01*
X128123329Y-81103351D01*
X127945465Y-81131522D01*
X127750776Y-81194781D01*
X127568386Y-81287715D01*
X127402786Y-81408028D01*
X127258028Y-81552786D01*
X127137715Y-81718386D01*
X127044781Y-81900776D01*
X126981522Y-82095465D01*
X126949500Y-82297648D01*
X126000000Y-82297648D01*
X126000000Y-82197682D01*
X125967990Y-81995582D01*
X125904755Y-81800968D01*
X125811859Y-81618650D01*
X125779474Y-81574077D01*
X125779474Y-81574076D01*
X125100000Y-82253551D01*
X125100000Y-82247339D01*
X125072741Y-82145606D01*
X125020080Y-82054394D01*
X124945606Y-81979920D01*
X124854394Y-81927259D01*
X124752661Y-81900000D01*
X124746446Y-81900000D01*
X125425922Y-81220524D01*
X125425921Y-81220523D01*
X125381359Y-81188147D01*
X125381350Y-81188141D01*
X125199031Y-81095244D01*
X125004417Y-81032009D01*
X124802317Y-81000000D01*
X124597681Y-81000000D01*
X124460410Y-81021741D01*
X124391117Y-81012786D01*
X124337665Y-80967790D01*
X124317026Y-80901038D01*
X124335751Y-80833724D01*
X124353325Y-80811595D01*
X125477139Y-79687782D01*
X125524341Y-79617139D01*
X125586632Y-79523914D01*
X125662051Y-79341835D01*
X125674632Y-79278582D01*
X125700500Y-79148543D01*
X125700500Y-78424500D01*
X125720185Y-78357461D01*
X125772989Y-78311706D01*
X125824500Y-78300500D01*
X127259953Y-78300500D01*
X127326992Y-78320185D01*
X127347634Y-78336819D01*
X127402786Y-78391971D01*
X127557749Y-78504556D01*
X127568390Y-78512287D01*
X127647986Y-78552843D01*
X127750776Y-78605218D01*
X127750778Y-78605218D01*
X127750781Y-78605220D01*
X127847525Y-78636654D01*
X127945465Y-78668477D01*
X128015964Y-78679643D01*
X128147648Y-78700500D01*
X128147649Y-78700500D01*
X128352351Y-78700500D01*
X128352352Y-78700500D01*
X128554534Y-78668477D01*
X128749219Y-78605220D01*
X128931610Y-78512287D01*
X129024590Y-78444732D01*
X129097213Y-78391971D01*
X129097215Y-78391968D01*
X129097219Y-78391966D01*
X129241966Y-78247219D01*
X129241968Y-78247215D01*
X129241971Y-78247213D01*
X129346837Y-78102875D01*
X129362287Y-78081610D01*
X129455220Y-77899219D01*
X129518477Y-77704534D01*
X129550500Y-77502352D01*
X129550500Y-77297648D01*
X129527114Y-77150000D01*
X131293391Y-77150000D01*
X132254314Y-77150000D01*
X132249920Y-77154394D01*
X132197259Y-77245606D01*
X132170000Y-77347339D01*
X132170000Y-77452661D01*
X132197259Y-77554394D01*
X132249920Y-77645606D01*
X132254314Y-77650000D01*
X131293391Y-77650000D01*
X131302009Y-77704413D01*
X131365244Y-77899029D01*
X131458140Y-78081349D01*
X131578417Y-78246894D01*
X131578417Y-78246895D01*
X131723104Y-78391582D01*
X131888650Y-78511859D01*
X132070968Y-78604754D01*
X132265578Y-78667988D01*
X132320000Y-78676607D01*
X132320000Y-77715686D01*
X132324394Y-77720080D01*
X132415606Y-77772741D01*
X132517339Y-77800000D01*
X132622661Y-77800000D01*
X132724394Y-77772741D01*
X132815606Y-77720080D01*
X132820000Y-77715686D01*
X132820000Y-78676606D01*
X132874421Y-78667988D01*
X133069031Y-78604754D01*
X133251349Y-78511859D01*
X133416894Y-78391582D01*
X133416895Y-78391582D01*
X133561582Y-78246895D01*
X133561582Y-78246894D01*
X133681859Y-78081349D01*
X133774755Y-77899029D01*
X133837990Y-77704413D01*
X133846609Y-77650000D01*
X132885686Y-77650000D01*
X132890080Y-77645606D01*
X132942741Y-77554394D01*
X132970000Y-77452661D01*
X132970000Y-77347339D01*
X132956685Y-77297648D01*
X141429500Y-77297648D01*
X141429500Y-77502351D01*
X141461522Y-77704534D01*
X141524781Y-77899223D01*
X141617715Y-78081613D01*
X141738028Y-78247213D01*
X141882786Y-78391971D01*
X142037749Y-78504556D01*
X142048390Y-78512287D01*
X142127986Y-78552843D01*
X142230776Y-78605218D01*
X142230778Y-78605218D01*
X142230781Y-78605220D01*
X142327525Y-78636654D01*
X142425465Y-78668477D01*
X142495964Y-78679643D01*
X142627648Y-78700500D01*
X142627649Y-78700500D01*
X142832351Y-78700500D01*
X142832352Y-78700500D01*
X143034534Y-78668477D01*
X143229219Y-78605220D01*
X143411610Y-78512287D01*
X143504590Y-78444732D01*
X143577213Y-78391971D01*
X143577215Y-78391968D01*
X143577219Y-78391966D01*
X143721966Y-78247219D01*
X143721968Y-78247215D01*
X143721971Y-78247213D01*
X143826837Y-78102875D01*
X143842287Y-78081610D01*
X143935220Y-77899219D01*
X143998477Y-77704534D01*
X144030500Y-77502352D01*
X144030500Y-77297648D01*
X144022257Y-77245606D01*
X143998477Y-77095465D01*
X143935218Y-76900776D01*
X143842419Y-76718650D01*
X143842287Y-76718390D01*
X143834556Y-76707749D01*
X143721971Y-76552786D01*
X143577213Y-76408028D01*
X143411613Y-76287715D01*
X143411612Y-76287714D01*
X143411610Y-76287713D01*
X143354653Y-76258691D01*
X143229223Y-76194781D01*
X143034534Y-76131522D01*
X142859995Y-76103878D01*
X142832352Y-76099500D01*
X142627648Y-76099500D01*
X142603329Y-76103351D01*
X142425465Y-76131522D01*
X142230776Y-76194781D01*
X142048386Y-76287715D01*
X141882786Y-76408028D01*
X141738028Y-76552786D01*
X141617715Y-76718386D01*
X141524781Y-76900776D01*
X141461522Y-77095465D01*
X141429500Y-77297648D01*
X132956685Y-77297648D01*
X132942741Y-77245606D01*
X132890080Y-77154394D01*
X132885686Y-77150000D01*
X133846609Y-77150000D01*
X133837990Y-77095586D01*
X133774755Y-76900970D01*
X133681859Y-76718650D01*
X133561582Y-76553105D01*
X133561582Y-76553104D01*
X133416895Y-76408417D01*
X133251349Y-76288140D01*
X133069029Y-76195244D01*
X132874413Y-76132009D01*
X132820000Y-76123390D01*
X132820000Y-77084314D01*
X132815606Y-77079920D01*
X132724394Y-77027259D01*
X132622661Y-77000000D01*
X132517339Y-77000000D01*
X132415606Y-77027259D01*
X132324394Y-77079920D01*
X132320000Y-77084314D01*
X132320000Y-76123390D01*
X132265586Y-76132009D01*
X132070970Y-76195244D01*
X131888650Y-76288140D01*
X131723105Y-76408417D01*
X131723104Y-76408417D01*
X131578417Y-76553104D01*
X131578417Y-76553105D01*
X131458140Y-76718650D01*
X131365244Y-76900970D01*
X131302009Y-77095586D01*
X131293391Y-77150000D01*
X129527114Y-77150000D01*
X129518477Y-77095466D01*
X129455220Y-76900781D01*
X129455218Y-76900778D01*
X129455218Y-76900776D01*
X129362419Y-76718650D01*
X129362287Y-76718390D01*
X129354556Y-76707749D01*
X129241971Y-76552786D01*
X129097213Y-76408028D01*
X128931613Y-76287715D01*
X128931612Y-76287714D01*
X128931610Y-76287713D01*
X128874653Y-76258691D01*
X128749223Y-76194781D01*
X128554534Y-76131522D01*
X128379995Y-76103878D01*
X128352352Y-76099500D01*
X128147648Y-76099500D01*
X128123329Y-76103351D01*
X127945465Y-76131522D01*
X127750776Y-76194781D01*
X127633899Y-76254334D01*
X127571779Y-76285985D01*
X127515488Y-76299500D01*
X125575762Y-76299500D01*
X125508723Y-76279815D01*
X125502877Y-76275818D01*
X125381613Y-76187715D01*
X125381612Y-76187714D01*
X125381610Y-76187713D01*
X125324653Y-76158691D01*
X125199223Y-76094781D01*
X125004534Y-76031522D01*
X124829995Y-76003878D01*
X124802352Y-75999500D01*
X124597648Y-75999500D01*
X124573329Y-76003351D01*
X124395465Y-76031522D01*
X124200776Y-76094781D01*
X124018386Y-76187715D01*
X123852786Y-76308028D01*
X123708028Y-76452786D01*
X123587715Y-76618386D01*
X123494781Y-76800776D01*
X123431522Y-76995465D01*
X123399500Y-77197648D01*
X123399500Y-77402351D01*
X123431522Y-77604534D01*
X123494781Y-77799223D01*
X123581648Y-77969706D01*
X123587713Y-77981610D01*
X123675819Y-78102877D01*
X123699298Y-78168681D01*
X123699500Y-78175761D01*
X123699500Y-78584217D01*
X123679815Y-78651256D01*
X123663181Y-78671898D01*
X119912220Y-82422859D01*
X119912218Y-82422861D01*
X119842538Y-82492540D01*
X119772859Y-82562219D01*
X119663369Y-82726082D01*
X119663368Y-82726085D01*
X119632545Y-82800500D01*
X119591657Y-82899213D01*
X119591655Y-82899219D01*
X119587950Y-82908161D01*
X119587946Y-82908174D01*
X119549500Y-83101454D01*
X119549500Y-86306220D01*
X119529815Y-86373259D01*
X119498387Y-86406537D01*
X119432179Y-86454640D01*
X119279643Y-86607176D01*
X119279643Y-86607177D01*
X119279641Y-86607179D01*
X119235105Y-86668477D01*
X119152843Y-86781700D01*
X119054909Y-86973908D01*
X118988245Y-87179077D01*
X118954500Y-87392133D01*
X118954500Y-87607866D01*
X118988245Y-87820922D01*
X118988246Y-87820926D01*
X119054908Y-88026089D01*
X119152843Y-88218299D01*
X119279641Y-88392821D01*
X119432179Y-88545359D01*
X119537619Y-88621966D01*
X119603294Y-88669682D01*
X119619958Y-88691293D01*
X119639253Y-88710596D01*
X119640983Y-88718559D01*
X119645959Y-88725012D01*
X119648294Y-88752201D01*
X119654090Y-88778872D01*
X119651240Y-88786506D01*
X119651938Y-88794626D01*
X119639202Y-88818762D01*
X119629660Y-88844331D01*
X119621432Y-88852440D01*
X119619332Y-88856421D01*
X119604698Y-88869283D01*
X119603995Y-88869809D01*
X119432179Y-88994641D01*
X119417354Y-89009465D01*
X119410248Y-89014783D01*
X119385494Y-89024009D01*
X119362316Y-89036666D01*
X119347169Y-89038294D01*
X119344778Y-89039186D01*
X119342827Y-89038761D01*
X119335958Y-89039500D01*
X118961457Y-89039500D01*
X118895701Y-89052580D01*
X118895696Y-89052581D01*
X118891741Y-89053368D01*
X118768164Y-89077949D01*
X118716136Y-89099500D01*
X118708600Y-89102621D01*
X118708598Y-89102622D01*
X118586082Y-89153369D01*
X118422219Y-89262859D01*
X118382861Y-89302218D01*
X118282861Y-89402218D01*
X118282858Y-89402221D01*
X116412222Y-91272857D01*
X116412219Y-91272860D01*
X116375489Y-91309590D01*
X116272860Y-91412218D01*
X116163372Y-91576079D01*
X116163367Y-91576088D01*
X116119324Y-91682417D01*
X116119319Y-91682432D01*
X116117132Y-91687713D01*
X116087950Y-91758163D01*
X116074980Y-91823369D01*
X116073722Y-91829689D01*
X116073722Y-91829692D01*
X116049501Y-91951455D01*
X115600500Y-91951455D01*
X115600500Y-78878711D01*
X117149500Y-78878711D01*
X117149500Y-79121288D01*
X117178535Y-79341839D01*
X117181162Y-79361789D01*
X117192492Y-79404074D01*
X117243947Y-79596104D01*
X117295407Y-79720339D01*
X117336776Y-79820212D01*
X117458064Y-80030289D01*
X117458066Y-80030292D01*
X117458067Y-80030293D01*
X117605733Y-80222736D01*
X117605739Y-80222743D01*
X117777256Y-80394260D01*
X117777262Y-80394265D01*
X117969711Y-80541936D01*
X118179788Y-80663224D01*
X118403900Y-80756054D01*
X118638211Y-80818838D01*
X118801211Y-80840297D01*
X118878711Y-80850500D01*
X118878712Y-80850500D01*
X119121289Y-80850500D01*
X119169388Y-80844167D01*
X119361789Y-80818838D01*
X119596100Y-80756054D01*
X119820212Y-80663224D01*
X120030289Y-80541936D01*
X120222738Y-80394265D01*
X120394265Y-80222738D01*
X120541936Y-80030289D01*
X120663224Y-79820212D01*
X120756054Y-79596100D01*
X120818838Y-79361789D01*
X120850500Y-79121288D01*
X120850500Y-78878712D01*
X120818838Y-78638211D01*
X120756054Y-78403900D01*
X120663224Y-78179788D01*
X120541936Y-77969711D01*
X120432627Y-77827256D01*
X120394266Y-77777263D01*
X120394260Y-77777256D01*
X120222743Y-77605739D01*
X120222736Y-77605733D01*
X120030293Y-77458067D01*
X120030292Y-77458066D01*
X120030289Y-77458064D01*
X119820212Y-77336776D01*
X119820205Y-77336773D01*
X119596104Y-77243947D01*
X119361785Y-77181161D01*
X119121289Y-77149500D01*
X119121288Y-77149500D01*
X118878712Y-77149500D01*
X118878711Y-77149500D01*
X118638214Y-77181161D01*
X118403895Y-77243947D01*
X118179794Y-77336773D01*
X118179785Y-77336777D01*
X117969706Y-77458067D01*
X117777263Y-77605733D01*
X117777256Y-77605739D01*
X117605739Y-77777256D01*
X117605733Y-77777263D01*
X117458067Y-77969706D01*
X117336777Y-78179785D01*
X117336773Y-78179794D01*
X117243947Y-78403895D01*
X117181161Y-78638214D01*
X117149500Y-78878711D01*
X115600500Y-78878711D01*
X115600500Y-75824500D01*
X115620185Y-75757461D01*
X115672989Y-75711706D01*
X115724500Y-75700500D01*
X187275500Y-75700500D01*
X187342539Y-75720185D01*
G37*
%TD.AperFunction*%
%TD*%
M02*
