%TF.GenerationSoftware,KiCad,Pcbnew,9.0.0*%
%TF.CreationDate,2025-10-10T09:49:05+01:00*%
%TF.ProjectId,GuitarMixer,47756974-6172-44d6-9978-65722e6b6963,V1.0*%
%TF.SameCoordinates,Original*%
%TF.FileFunction,Soldermask,Top*%
%TF.FilePolarity,Negative*%
%FSLAX46Y46*%
G04 Gerber Fmt 4.6, Leading zero omitted, Abs format (unit mm)*
G04 Created by KiCad (PCBNEW 9.0.0) date 2025-10-10 09:49:05*
%MOMM*%
%LPD*%
G01*
G04 APERTURE LIST*
G04 Aperture macros list*
%AMRoundRect*
0 Rectangle with rounded corners*
0 $1 Rounding radius*
0 $2 $3 $4 $5 $6 $7 $8 $9 X,Y pos of 4 corners*
0 Add a 4 corners polygon primitive as box body*
4,1,4,$2,$3,$4,$5,$6,$7,$8,$9,$2,$3,0*
0 Add four circle primitives for the rounded corners*
1,1,$1+$1,$2,$3*
1,1,$1+$1,$4,$5*
1,1,$1+$1,$6,$7*
1,1,$1+$1,$8,$9*
0 Add four rect primitives between the rounded corners*
20,1,$1+$1,$2,$3,$4,$5,0*
20,1,$1+$1,$4,$5,$6,$7,0*
20,1,$1+$1,$6,$7,$8,$9,0*
20,1,$1+$1,$8,$9,$2,$3,0*%
G04 Aperture macros list end*
%ADD10O,1.600000X1.600000*%
%ADD11C,1.600000*%
%ADD12C,3.200000*%
%ADD13RoundRect,0.250000X-0.550000X-0.550000X0.550000X-0.550000X0.550000X0.550000X-0.550000X0.550000X0*%
%ADD14O,2.000000X2.500000*%
%ADD15R,1.800000X1.100000*%
%ADD16RoundRect,0.275000X0.625000X-0.275000X0.625000X0.275000X-0.625000X0.275000X-0.625000X-0.275000X0*%
%ADD17RoundRect,0.250000X-0.845000X0.620000X-0.845000X-0.620000X0.845000X-0.620000X0.845000X0.620000X0*%
%ADD18O,2.190000X1.740000*%
%ADD19RoundRect,0.250000X-0.620000X-0.845000X0.620000X-0.845000X0.620000X0.845000X-0.620000X0.845000X0*%
%ADD20O,1.740000X2.190000*%
%ADD21RoundRect,0.250000X0.845000X-0.620000X0.845000X0.620000X-0.845000X0.620000X-0.845000X-0.620000X0*%
%ADD22RoundRect,0.250000X0.620000X0.845000X-0.620000X0.845000X-0.620000X-0.845000X0.620000X-0.845000X0*%
%ADD23R,2.200000X2.200000*%
%ADD24O,2.200000X2.200000*%
%ADD25R,1.600000X1.600000*%
G04 APERTURE END LIST*
D10*
%TO.C,R10*%
X160150000Y-100700000D03*
D11*
X160150000Y-110860000D03*
%TD*%
D10*
%TO.C,R7*%
X156600000Y-110860000D03*
D11*
X156600000Y-100700000D03*
%TD*%
D12*
%TO.C,REF\u002A\u002A*%
X183900000Y-79050000D03*
%TD*%
%TO.C,REF\u002A\u002A*%
X183800000Y-112100000D03*
%TD*%
%TO.C,REF\u002A\u002A*%
X119000000Y-112200000D03*
%TD*%
%TO.C,REF\u002A\u002A*%
X119000000Y-79000000D03*
%TD*%
D13*
%TO.C,U2*%
X165780000Y-105250000D03*
D11*
X165780000Y-107790000D03*
X165780000Y-110330000D03*
X165780000Y-112870000D03*
X173400000Y-112870000D03*
X173400000Y-110330000D03*
X173400000Y-107790000D03*
X173400000Y-105250000D03*
%TD*%
D13*
%TO.C,U1*%
X145610000Y-85090000D03*
D11*
X145610000Y-87630000D03*
X145610000Y-90170000D03*
X145610000Y-92710000D03*
X153230000Y-92710000D03*
X153230000Y-90170000D03*
X153230000Y-87630000D03*
X153230000Y-85090000D03*
%TD*%
D14*
%TO.C,SW1*%
X128150000Y-91300000D03*
X128150000Y-94300000D03*
X128150000Y-97300000D03*
%TD*%
D11*
%TO.C,R14*%
X157800000Y-89480000D03*
D10*
X157800000Y-79320000D03*
%TD*%
D11*
%TO.C,R13*%
X183600000Y-96260000D03*
D10*
X183600000Y-86100000D03*
%TD*%
D11*
%TO.C,R12*%
X170400000Y-97050000D03*
D10*
X160240000Y-97050000D03*
%TD*%
D11*
%TO.C,R11*%
X179875000Y-96260000D03*
D10*
X179875000Y-86100000D03*
%TD*%
D11*
%TO.C,R9*%
X136550000Y-106500000D03*
D10*
X126390000Y-106500000D03*
%TD*%
D11*
%TO.C,R8*%
X136550000Y-109950000D03*
D10*
X126390000Y-109950000D03*
%TD*%
D11*
%TO.C,R6*%
X152830000Y-97050000D03*
D10*
X142670000Y-97050000D03*
%TD*%
D11*
%TO.C,R5*%
X176150000Y-86100000D03*
D10*
X176150000Y-96260000D03*
%TD*%
D11*
%TO.C,R4*%
X137150000Y-92220000D03*
D10*
X137150000Y-102380000D03*
%TD*%
D11*
%TO.C,R3*%
X133650000Y-92220000D03*
D10*
X133650000Y-102380000D03*
%TD*%
D11*
%TO.C,R2*%
X142730000Y-77400000D03*
D10*
X132570000Y-77400000D03*
%TD*%
D11*
%TO.C,R1*%
X132570000Y-80600000D03*
D10*
X142730000Y-80600000D03*
%TD*%
D15*
%TO.C,Q1*%
X135500000Y-88490000D03*
D16*
X133430000Y-87220000D03*
X135500000Y-85950000D03*
%TD*%
D17*
%TO.C,J6*%
X182100000Y-100500000D03*
D18*
X182100000Y-103040000D03*
X182100000Y-105580000D03*
%TD*%
D19*
%TO.C,J5*%
X174210000Y-79950000D03*
D20*
X176750000Y-79950000D03*
%TD*%
D21*
%TO.C,J4*%
X120550000Y-105790000D03*
D18*
X120550000Y-103250000D03*
%TD*%
D22*
%TO.C,J3*%
X152100000Y-110700000D03*
D20*
X149560000Y-110700000D03*
X147020000Y-110700000D03*
%TD*%
D19*
%TO.C,J2*%
X162420000Y-79950000D03*
D20*
X164960000Y-79950000D03*
X167500000Y-79950000D03*
%TD*%
D21*
%TO.C,J1*%
X120550000Y-92580000D03*
D18*
X120550000Y-90040000D03*
X120550000Y-87500000D03*
%TD*%
D23*
%TO.C,D1*%
X136550000Y-113450000D03*
D24*
X126390000Y-113450000D03*
%TD*%
D11*
%TO.C,C11*%
X163700000Y-92800000D03*
X158700000Y-92800000D03*
%TD*%
%TO.C,C10*%
X172000000Y-101150000D03*
X167000000Y-101150000D03*
%TD*%
D25*
%TO.C,C9*%
X167700000Y-88850000D03*
D11*
X169700000Y-88850000D03*
%TD*%
D25*
%TO.C,C8*%
X141500000Y-104400000D03*
D11*
X143500000Y-104400000D03*
%TD*%
D25*
%TO.C,C7*%
X141250000Y-110600000D03*
D11*
X143250000Y-110600000D03*
%TD*%
%TO.C,C6*%
X152065000Y-102690000D03*
X147065000Y-102690000D03*
%TD*%
%TO.C,C5*%
X146500000Y-79500000D03*
X151500000Y-79500000D03*
%TD*%
%TO.C,C4*%
X117850000Y-97450000D03*
X122850000Y-97450000D03*
%TD*%
%TO.C,C3*%
X141450000Y-85400000D03*
X141450000Y-90400000D03*
%TD*%
%TO.C,C2*%
X128250000Y-77400000D03*
X128250000Y-82400000D03*
%TD*%
%TO.C,C1*%
X124700000Y-77300000D03*
X124700000Y-82300000D03*
%TD*%
M02*
