%TF.GenerationSoftware,KiCad,Pcbnew,9.0.0*%
%TF.CreationDate,2025-09-08T12:12:35+01:00*%
%TF.ProjectId,GuitarMixer,47756974-6172-44d6-9978-65722e6b6963,V0.2*%
%TF.SameCoordinates,Original*%
%TF.FileFunction,Copper,L1,Top*%
%TF.FilePolarity,Positive*%
%FSLAX46Y46*%
G04 Gerber Fmt 4.6, Leading zero omitted, Abs format (unit mm)*
G04 Created by KiCad (PCBNEW 9.0.0) date 2025-09-08 12:12:35*
%MOMM*%
%LPD*%
G01*
G04 APERTURE LIST*
G04 Aperture macros list*
%AMRoundRect*
0 Rectangle with rounded corners*
0 $1 Rounding radius*
0 $2 $3 $4 $5 $6 $7 $8 $9 X,Y pos of 4 corners*
0 Add a 4 corners polygon primitive as box body*
4,1,4,$2,$3,$4,$5,$6,$7,$8,$9,$2,$3,0*
0 Add four circle primitives for the rounded corners*
1,1,$1+$1,$2,$3*
1,1,$1+$1,$4,$5*
1,1,$1+$1,$6,$7*
1,1,$1+$1,$8,$9*
0 Add four rect primitives between the rounded corners*
20,1,$1+$1,$2,$3,$4,$5,0*
20,1,$1+$1,$4,$5,$6,$7,0*
20,1,$1+$1,$6,$7,$8,$9,0*
20,1,$1+$1,$8,$9,$2,$3,0*%
G04 Aperture macros list end*
%TA.AperFunction,ComponentPad*%
%ADD10R,1.600000X1.600000*%
%TD*%
%TA.AperFunction,ComponentPad*%
%ADD11C,1.600000*%
%TD*%
%TA.AperFunction,ComponentPad*%
%ADD12O,1.600000X1.600000*%
%TD*%
%TA.AperFunction,ComponentPad*%
%ADD13RoundRect,0.250000X0.845000X-0.620000X0.845000X0.620000X-0.845000X0.620000X-0.845000X-0.620000X0*%
%TD*%
%TA.AperFunction,ComponentPad*%
%ADD14O,2.190000X1.740000*%
%TD*%
%TA.AperFunction,ComponentPad*%
%ADD15RoundRect,0.250000X-0.620000X-0.845000X0.620000X-0.845000X0.620000X0.845000X-0.620000X0.845000X0*%
%TD*%
%TA.AperFunction,ComponentPad*%
%ADD16O,1.740000X2.190000*%
%TD*%
%TA.AperFunction,ComponentPad*%
%ADD17RoundRect,0.250000X-0.550000X-0.550000X0.550000X-0.550000X0.550000X0.550000X-0.550000X0.550000X0*%
%TD*%
%TA.AperFunction,ComponentPad*%
%ADD18C,2.340000*%
%TD*%
%TA.AperFunction,ComponentPad*%
%ADD19R,1.100000X1.800000*%
%TD*%
%TA.AperFunction,ComponentPad*%
%ADD20RoundRect,0.275000X-0.275000X-0.625000X0.275000X-0.625000X0.275000X0.625000X-0.275000X0.625000X0*%
%TD*%
%TA.AperFunction,ComponentPad*%
%ADD21RoundRect,0.250000X-0.845000X0.620000X-0.845000X-0.620000X0.845000X-0.620000X0.845000X0.620000X0*%
%TD*%
%TA.AperFunction,ComponentPad*%
%ADD22O,2.200000X1.800000*%
%TD*%
%TA.AperFunction,Conductor*%
%ADD23C,0.800000*%
%TD*%
%TA.AperFunction,Conductor*%
%ADD24C,1.200000*%
%TD*%
%TA.AperFunction,Conductor*%
%ADD25C,1.000000*%
%TD*%
G04 APERTURE END LIST*
D10*
%TO.P,C7,1*%
%TO.N,+9VA*%
X62900000Y-45344888D03*
D11*
%TO.P,C7,2*%
%TO.N,Earth*%
X62900000Y-47344888D03*
%TD*%
%TO.P,R5,1*%
%TO.N,Net-(J2-Pin_2)*%
X31500000Y-57500000D03*
D12*
%TO.P,R5,2*%
%TO.N,Net-(U2A--)*%
X31500000Y-67660000D03*
%TD*%
D11*
%TO.P,R12,1*%
%TO.N,Net-(R12-Pad1)*%
X35920000Y-75000000D03*
D12*
%TO.P,R12,2*%
%TO.N,Net-(R10-Pad2)*%
X46080000Y-75000000D03*
%TD*%
D11*
%TO.P,R4,1*%
%TO.N,Net-(C3-Pad2)*%
X22920000Y-54500000D03*
D12*
%TO.P,R4,2*%
%TO.N,Net-(U1A-+)*%
X33080000Y-54500000D03*
%TD*%
D13*
%TO.P,J2,1,Pin_1*%
%TO.N,Earth*%
X26000000Y-67580000D03*
D14*
%TO.P,J2,2,Pin_2*%
%TO.N,Net-(J2-Pin_2)*%
X26000000Y-65040000D03*
%TO.P,J2,3,Pin_3*%
%TO.N,Net-(J2-Pin_3)*%
X26000000Y-62500000D03*
%TD*%
D15*
%TO.P,J4,1,Pin_1*%
%TO.N,Earth*%
X49960000Y-40500000D03*
D16*
%TO.P,J4,2,Pin_2*%
%TO.N,+9V*%
X52500000Y-40500000D03*
%TD*%
D11*
%TO.P,C3,1*%
%TO.N,Net-(Q1-S)*%
X27700000Y-50500000D03*
%TO.P,C3,2*%
%TO.N,Net-(C3-Pad2)*%
X22700000Y-50500000D03*
%TD*%
%TO.P,R11,1*%
%TO.N,Net-(U2B--)*%
X61000000Y-71080000D03*
D12*
%TO.P,R11,2*%
%TO.N,Net-(C9-Pad1)*%
X61000000Y-60920000D03*
%TD*%
D17*
%TO.P,U1,1*%
%TO.N,Net-(U1A--)*%
X36195000Y-60190000D03*
D11*
%TO.P,U1,2,-*%
X36195000Y-62730000D03*
%TO.P,U1,3,+*%
%TO.N,Net-(U1A-+)*%
X36195000Y-65270000D03*
%TO.P,U1,4,V-*%
%TO.N,Earth*%
X36195000Y-67810000D03*
%TO.P,U1,5,+*%
%TO.N,Net-(U1B-+)*%
X43815000Y-67810000D03*
%TO.P,U1,6,-*%
%TO.N,Net-(U1B--)*%
X43815000Y-65270000D03*
%TO.P,U1,7*%
X43815000Y-62730000D03*
%TO.P,U1,8,V+*%
%TO.N,+9VA*%
X43815000Y-60190000D03*
%TD*%
%TO.P,C2,1*%
%TO.N,Net-(J1-Pin_3)*%
X22580000Y-46500000D03*
%TO.P,C2,2*%
%TO.N,Net-(Q1-G)*%
X27580000Y-46500000D03*
%TD*%
D17*
%TO.P,U2,1*%
%TO.N,Net-(R10-Pad2)*%
X49880000Y-71500000D03*
D11*
%TO.P,U2,2,-*%
%TO.N,Net-(U2A--)*%
X49880000Y-74040000D03*
%TO.P,U2,3,+*%
%TO.N,Net-(U2A-+)*%
X49880000Y-76580000D03*
%TO.P,U2,4,V-*%
%TO.N,Earth*%
X49880000Y-79120000D03*
%TO.P,U2,5,+*%
%TO.N,Net-(U2A-+)*%
X57500000Y-79120000D03*
%TO.P,U2,6,-*%
%TO.N,Net-(U2B--)*%
X57500000Y-76580000D03*
%TO.P,U2,7*%
%TO.N,Net-(C9-Pad1)*%
X57500000Y-74040000D03*
%TO.P,U2,8,V+*%
%TO.N,+9VA*%
X57500000Y-71500000D03*
%TD*%
%TO.P,C1,1*%
%TO.N,Net-(J1-Pin_3)*%
X31000000Y-43000000D03*
%TO.P,C1,2*%
%TO.N,Earth*%
X31000000Y-38000000D03*
%TD*%
D10*
%TO.P,D1,1,K*%
%TO.N,+9VA*%
X56500000Y-45310000D03*
D12*
%TO.P,D1,2,A*%
%TO.N,+9V*%
X56500000Y-37690000D03*
%TD*%
D15*
%TO.P,J1,1,Pin_1*%
%TO.N,Earth*%
X34420000Y-40500000D03*
D16*
%TO.P,J1,2,Pin_2*%
%TO.N,Net-(J1-Pin_2)*%
X36960000Y-40500000D03*
%TO.P,J1,3,Pin_3*%
%TO.N,Net-(J1-Pin_3)*%
X39500000Y-40500000D03*
%TD*%
D18*
%TO.P,TR1,1,1*%
%TO.N,Net-(R12-Pad1)*%
X33000000Y-80000000D03*
%TO.P,TR1,2,2*%
%TO.N,Net-(U2B--)*%
X35500000Y-85000000D03*
%TO.P,TR1,3,3*%
X38000000Y-80000000D03*
%TD*%
D11*
%TO.P,R6,1*%
%TO.N,Net-(U1B-+)*%
X32580000Y-71500000D03*
D12*
%TO.P,R6,2*%
%TO.N,Earth*%
X22420000Y-71500000D03*
%TD*%
D10*
%TO.P,C9,1*%
%TO.N,Net-(C9-Pad1)*%
X62500000Y-56000000D03*
D11*
%TO.P,C9,2*%
%TO.N,Net-(J5-Pin_2)*%
X62500000Y-58000000D03*
%TD*%
%TO.P,C6,1*%
%TO.N,Net-(U1B--)*%
X52000000Y-56000000D03*
%TO.P,C6,2*%
%TO.N,Net-(J3-Pin_3)*%
X57000000Y-56000000D03*
%TD*%
D15*
%TO.P,J5,1,Pin_1*%
%TO.N,Earth*%
X43460000Y-40500000D03*
D16*
%TO.P,J5,2,Pin_2*%
%TO.N,Net-(J5-Pin_2)*%
X46000000Y-40500000D03*
%TD*%
D11*
%TO.P,R10,1*%
%TO.N,Net-(U2A--)*%
X22420000Y-75000000D03*
D12*
%TO.P,R10,2*%
%TO.N,Net-(R10-Pad2)*%
X32580000Y-75000000D03*
%TD*%
D11*
%TO.P,R2,1*%
%TO.N,Net-(SW1-B)*%
X43420000Y-46500000D03*
D12*
%TO.P,R2,2*%
%TO.N,Earth*%
X53580000Y-46500000D03*
%TD*%
D19*
%TO.P,Q1,1,S*%
%TO.N,Net-(Q1-S)*%
X36730000Y-56170000D03*
D20*
%TO.P,Q1,2,D*%
%TO.N,+9VA*%
X38000000Y-54100000D03*
%TO.P,Q1,3,G*%
%TO.N,Net-(Q1-G)*%
X39270000Y-56170000D03*
%TD*%
D11*
%TO.P,R3,1*%
%TO.N,Net-(Q1-S)*%
X30300000Y-50200000D03*
D12*
%TO.P,R3,2*%
%TO.N,Earth*%
X40460000Y-50200000D03*
%TD*%
D11*
%TO.P,R7,1*%
%TO.N,Net-(J3-Pin_2)*%
X46080000Y-71500000D03*
D12*
%TO.P,R7,2*%
%TO.N,Net-(U2A--)*%
X35920000Y-71500000D03*
%TD*%
D11*
%TO.P,R1,1*%
%TO.N,Net-(Q1-G)*%
X30500000Y-46500000D03*
D12*
%TO.P,R1,2*%
%TO.N,Net-(SW1-B)*%
X40660000Y-46500000D03*
%TD*%
D11*
%TO.P,R13,1*%
%TO.N,Earth*%
X61000000Y-84080000D03*
D12*
%TO.P,R13,2*%
%TO.N,Net-(J5-Pin_2)*%
X61000000Y-73920000D03*
%TD*%
D11*
%TO.P,R8,1*%
%TO.N,Net-(U2A-+)*%
X47500000Y-68660000D03*
D12*
%TO.P,R8,2*%
%TO.N,+9VA*%
X47500000Y-58500000D03*
%TD*%
D10*
%TO.P,C8,1*%
%TO.N,Net-(U2A-+)*%
X44000000Y-79000000D03*
D11*
%TO.P,C8,2*%
%TO.N,Earth*%
X44000000Y-81000000D03*
%TD*%
%TO.P,C5,1*%
%TO.N,Net-(U1A--)*%
X28000000Y-58500000D03*
%TO.P,C5,2*%
%TO.N,Net-(J2-Pin_3)*%
X23000000Y-58500000D03*
%TD*%
%TO.P,R9,1*%
%TO.N,Earth*%
X47920000Y-83500000D03*
D12*
%TO.P,R9,2*%
%TO.N,Net-(U2A-+)*%
X58080000Y-83500000D03*
%TD*%
D21*
%TO.P,J3,1,Pin_1*%
%TO.N,Earth*%
X54000000Y-62000000D03*
D14*
%TO.P,J3,2,Pin_2*%
%TO.N,Net-(J3-Pin_2)*%
X54000000Y-64540000D03*
%TO.P,J3,3,Pin_3*%
%TO.N,Net-(J3-Pin_3)*%
X54000000Y-67080000D03*
%TD*%
D11*
%TO.P,C4,1*%
%TO.N,Net-(J1-Pin_2)*%
X44000000Y-55500000D03*
%TO.P,C4,2*%
%TO.N,Net-(U1B-+)*%
X49000000Y-55500000D03*
%TD*%
D22*
%TO.P,SW1,1,A*%
%TO.N,Earth*%
X54500000Y-51000000D03*
%TO.P,SW1,2,B*%
%TO.N,Net-(SW1-B)*%
X51500000Y-51000000D03*
%TO.P,SW1,3*%
%TO.N,N/C*%
X48500000Y-51000000D03*
%TD*%
D23*
%TO.N,Net-(Q1-G)*%
X34681000Y-50681000D02*
X30500000Y-46500000D01*
X36231156Y-58589000D02*
X34681000Y-57038844D01*
X39270000Y-56506266D02*
X37187266Y-58589000D01*
X39270000Y-55770000D02*
X39451000Y-55589000D01*
X34681000Y-57038844D02*
X34681000Y-50681000D01*
X39270000Y-55770000D02*
X39270000Y-56506266D01*
X37187266Y-58589000D02*
X36231156Y-58589000D01*
%TO.N,Net-(J1-Pin_2)*%
X42700000Y-55500000D02*
X36960000Y-49760000D01*
X36960000Y-49760000D02*
X36960000Y-40500000D01*
X44000000Y-55500000D02*
X42700000Y-55500000D01*
%TO.N,Net-(U1B-+)*%
X32580000Y-71500000D02*
X34281000Y-69799000D01*
X41826000Y-69799000D02*
X43815000Y-67810000D01*
X49799999Y-56299999D02*
X49000000Y-55500000D01*
X34281000Y-69799000D02*
X41826000Y-69799000D01*
X49799999Y-61825001D02*
X49799999Y-56299999D01*
X43815000Y-67810000D02*
X49799999Y-61825001D01*
%TO.N,Net-(U1A--)*%
X29690000Y-60190000D02*
X28000000Y-58500000D01*
X36195000Y-60190000D02*
X36195000Y-62730000D01*
X36195000Y-60190000D02*
X29690000Y-60190000D01*
D24*
%TO.N,+9VA*%
X46700001Y-57700001D02*
X46700001Y-54493579D01*
X62865112Y-45310000D02*
X62900000Y-45344888D01*
X47494580Y-53699000D02*
X55754001Y-53699000D01*
X56601000Y-45411000D02*
X56500000Y-45310000D01*
X56500000Y-45310000D02*
X62865112Y-45310000D01*
X46700001Y-54493579D02*
X47494580Y-53699000D01*
X47500000Y-58500000D02*
X46700001Y-57700001D01*
X55754001Y-53699000D02*
X56601000Y-52852001D01*
X56601000Y-52852001D02*
X56601000Y-45411000D01*
D23*
%TO.N,Net-(C9-Pad1)*%
X61000000Y-59498000D02*
X61000000Y-60920000D01*
X60900000Y-56000000D02*
X59201000Y-57699000D01*
X59201000Y-72339000D02*
X57500000Y-74040000D01*
X62500000Y-56000000D02*
X60900000Y-56000000D01*
X59201000Y-57699000D02*
X61000000Y-59498000D01*
X59201000Y-57699000D02*
X59201000Y-72339000D01*
%TO.N,Net-(J3-Pin_2)*%
X52555000Y-64540000D02*
X54000000Y-64540000D01*
X47145312Y-71500000D02*
X50645312Y-68000000D01*
X50645312Y-66449688D02*
X52555000Y-64540000D01*
X50645312Y-68000000D02*
X50645312Y-66449688D01*
X46080000Y-71500000D02*
X47145312Y-71500000D01*
D24*
%TO.N,Net-(SW1-B)*%
X43420000Y-46500000D02*
X47000000Y-46500000D01*
X47000000Y-46500000D02*
X51500000Y-51000000D01*
D23*
%TO.N,Net-(U2A--)*%
X35920000Y-71500000D02*
X37621000Y-73201000D01*
X37621000Y-73201000D02*
X49041000Y-73201000D01*
X49041000Y-73201000D02*
X49880000Y-74040000D01*
%TO.N,Net-(R10-Pad2)*%
X34281000Y-76701000D02*
X32580000Y-75000000D01*
X44379000Y-76701000D02*
X34281000Y-76701000D01*
X46080000Y-75000000D02*
X44379000Y-76701000D01*
%TO.N,Net-(U2B--)*%
X43000000Y-87500000D02*
X46580000Y-87500000D01*
X38000000Y-80000000D02*
X38000000Y-82500000D01*
X38000000Y-82500000D02*
X43000000Y-87500000D01*
X46580000Y-87500000D02*
X57500000Y-76580000D01*
D25*
%TO.N,Net-(J3-Pin_3)*%
X55645000Y-67080000D02*
X54000000Y-67080000D01*
X57000000Y-56000000D02*
X57000000Y-65725000D01*
X57000000Y-65725000D02*
X55645000Y-67080000D01*
D23*
%TO.N,Net-(J5-Pin_2)*%
X63299999Y-58799999D02*
X62500000Y-58000000D01*
X63299999Y-71620001D02*
X63299999Y-58799999D01*
X61000000Y-73920000D02*
X63299999Y-71620001D01*
%TD*%
M02*
