M48
; DRILL file {KiCad 9.0.0} date 2025-09-11T11:49:06+0100
; FORMAT={-:-/ absolute / inch / decimal}
; #@! TF.CreationDate,2025-09-11T11:49:06+01:00
; #@! TF.GenerationSoftware,Kicad,Pcbnew,9.0.0
; #@! TF.FileFunction,Plated,1,2,PTH
FMAT,2
INCH
; #@! TA.AperFunction,Plated,PTH,ViaDrill
T1C0.0118
; #@! TA.AperFunction,Plated,PTH,ComponentDrill
T2C0.0295
; #@! TA.AperFunction,Plated,PTH,ComponentDrill
T3C0.0315
; #@! TA.AperFunction,Plated,PTH,ComponentDrill
T4C0.0394
; #@! TA.AperFunction,Plated,PTH,ComponentDrill
T5C0.0433
; #@! TA.AperFunction,Plated,PTH,ComponentDrill
T6C0.0469
%
G90
G05
T1
X1.8016Y-3.3016
X3.189Y-3.248
X4.9803Y-2.7205
X4.9803Y-3.3622
X4.9803Y-3.6693
X5.3622Y-4.0276
T2
X2.752Y-2.0394
X2.752Y-2.1394
X2.802Y-2.0894
T3
X1.9843Y-2.7189
X1.9843Y-3.1189
X1.9921Y-3.6811
X1.9921Y-3.878
X1.9921Y-4.0354
X1.9921Y-4.2323
X2.0215Y-5.0638
X2.1002Y-5.0638
X2.1063Y-2.0394
X2.1811Y-3.722
X2.1811Y-4.122
X2.2953Y-2.1669
X2.2953Y-2.3638
X2.3031Y-2.0394
X2.3089Y-5.1425
X2.3228Y-3.4071
X2.3346Y-3.9764
X2.3346Y-4.0764
X2.3346Y-4.1764
X2.3346Y-4.2764
X2.3876Y-5.1425
X2.4228Y-3.7283
X2.4646Y-2.7969
X2.4646Y-3.1969
X2.4764Y-2.0409
X2.4764Y-2.4409
X2.5197Y-3.4071
X2.5984Y-4.5126
X2.5984Y-4.9126
X2.6346Y-3.9764
X2.6346Y-4.0764
X2.6346Y-4.1764
X2.6346Y-4.2764
X2.6654Y-3.022
X2.6654Y-3.422
X2.6772Y-2.663
X2.6772Y-2.8598
X2.8031Y-4.5126
X2.8031Y-4.9126
X2.8228Y-3.7283
X2.8709Y-2.6039
X2.8709Y-3.0039
X2.874Y-3.1512
X2.874Y-3.5512
X2.878Y-3.9535
X2.878Y-4.3535
X3.063Y-2.6055
X3.063Y-3.0055
X3.2087Y-4.0866
X3.2874Y-4.0866
X3.311Y-2.8228
X3.311Y-3.0197
X3.3189Y-3.1614
X3.3189Y-3.3583
X3.3441Y-2.3614
X3.3441Y-2.5583
X3.5472Y-3.6748
X3.5472Y-4.0748
X3.5748Y-2.9291
X3.5748Y-3.3291
X3.5874Y-4.3189
X3.7441Y-2.8307
X3.7441Y-2.9307
X3.7441Y-3.0307
X3.7441Y-3.1307
X3.7559Y-3.6748
X3.7559Y-4.0748
X3.7717Y-3.3346
X3.9528Y-3.6748
X3.9528Y-4.0748
X3.9685Y-3.3346
X3.9874Y-4.3189
X4.0441Y-2.8307
X4.0441Y-2.9307
X4.0441Y-3.0307
X4.0441Y-3.1307
X4.1031Y-3.7598
X4.2244Y-2.1063
X4.2323Y-3.4921
X4.2362Y-2.7866
X4.2362Y-3.1866
X4.2472Y-4.0323
X4.2472Y-4.1323
X4.2472Y-4.2323
X4.2472Y-4.3323
X4.2559Y-2.3504
X4.2559Y-2.5472
X4.4213Y-2.1063
X4.4291Y-3.4921
X4.4606Y-2.9346
X4.4606Y-3.1315
X4.5031Y-3.7598
X4.5354Y-2.348
X4.5354Y-2.748
X4.5472Y-4.0323
X4.5472Y-4.1323
X4.5472Y-4.2323
X4.5472Y-4.3323
X4.6575Y-3.7677
X4.7795Y-2.348
X4.7795Y-2.748
X4.7835Y-2.9346
X4.7835Y-3.1315
X4.8543Y-3.7677
X5.4213Y-2.7575
X5.4213Y-3.1575
X5.4213Y-3.311
X5.4213Y-3.5079
T5
X2.3976Y-4.5244
X2.3976Y-4.9244
T6
X1.9724Y-2.2063
X1.9724Y-2.3063
X1.9724Y-2.4063
X2.0906Y-4.6622
X2.0906Y-4.7622
X3.1307Y-3.6614
X3.2307Y-3.6614
X3.3307Y-3.6614
X3.5906Y-2.4488
X3.6906Y-2.4488
X3.7906Y-2.4488
X4.5717Y-3.5016
X4.6717Y-3.5016
X4.7717Y-3.5016
X5.2256Y-3.7646
X5.3256Y-3.7646
T4
G00X2.2559Y-2.8106
M15
G01X2.2559Y-2.7909
M16
G05
G00X2.2559Y-2.9287
M15
G01X2.2559Y-2.9091
M16
G05
G00X2.2559Y-3.0469
M15
G01X2.2559Y-3.0272
M16
G05
M30
