%TF.GenerationSoftware,KiCad,Pcbnew,9.0.0*%
%TF.CreationDate,2025-09-11T11:48:56+01:00*%
%TF.ProjectId,GuitarMixer,47756974-6172-44d6-9978-65722e6b6963,rev?*%
%TF.SameCoordinates,Original*%
%TF.FileFunction,Copper,L1,Top*%
%TF.FilePolarity,Positive*%
%FSLAX46Y46*%
G04 Gerber Fmt 4.6, Leading zero omitted, Abs format (unit mm)*
G04 Created by KiCad (PCBNEW 9.0.0) date 2025-09-11 11:48:56*
%MOMM*%
%LPD*%
G01*
G04 APERTURE LIST*
G04 Aperture macros list*
%AMRoundRect*
0 Rectangle with rounded corners*
0 $1 Rounding radius*
0 $2 $3 $4 $5 $6 $7 $8 $9 X,Y pos of 4 corners*
0 Add a 4 corners polygon primitive as box body*
4,1,4,$2,$3,$4,$5,$6,$7,$8,$9,$2,$3,0*
0 Add four circle primitives for the rounded corners*
1,1,$1+$1,$2,$3*
1,1,$1+$1,$4,$5*
1,1,$1+$1,$6,$7*
1,1,$1+$1,$8,$9*
0 Add four rect primitives between the rounded corners*
20,1,$1+$1,$2,$3,$4,$5,0*
20,1,$1+$1,$4,$5,$6,$7,0*
20,1,$1+$1,$6,$7,$8,$9,0*
20,1,$1+$1,$8,$9,$2,$3,0*%
G04 Aperture macros list end*
%TA.AperFunction,ComponentPad*%
%ADD10C,1.600000*%
%TD*%
%TA.AperFunction,ComponentPad*%
%ADD11O,1.600000X1.600000*%
%TD*%
%TA.AperFunction,ComponentPad*%
%ADD12R,1.800000X1.100000*%
%TD*%
%TA.AperFunction,ComponentPad*%
%ADD13RoundRect,0.275000X-0.625000X0.275000X-0.625000X-0.275000X0.625000X-0.275000X0.625000X0.275000X0*%
%TD*%
%TA.AperFunction,ComponentPad*%
%ADD14RoundRect,0.250000X-0.550000X-0.550000X0.550000X-0.550000X0.550000X0.550000X-0.550000X0.550000X0*%
%TD*%
%TA.AperFunction,ComponentPad*%
%ADD15RoundRect,0.250000X0.620000X0.845000X-0.620000X0.845000X-0.620000X-0.845000X0.620000X-0.845000X0*%
%TD*%
%TA.AperFunction,ComponentPad*%
%ADD16O,1.740000X2.190000*%
%TD*%
%TA.AperFunction,ComponentPad*%
%ADD17RoundRect,0.250000X-0.620000X-0.845000X0.620000X-0.845000X0.620000X0.845000X-0.620000X0.845000X0*%
%TD*%
%TA.AperFunction,SMDPad,CuDef*%
%ADD18R,2.000000X2.000000*%
%TD*%
%TA.AperFunction,SMDPad,CuDef*%
%ADD19R,1.000000X1.500000*%
%TD*%
%TA.AperFunction,ComponentPad*%
%ADD20RoundRect,0.250000X0.845000X-0.620000X0.845000X0.620000X-0.845000X0.620000X-0.845000X-0.620000X0*%
%TD*%
%TA.AperFunction,ComponentPad*%
%ADD21O,2.190000X1.740000*%
%TD*%
%TA.AperFunction,ComponentPad*%
%ADD22R,1.600000X1.600000*%
%TD*%
%TA.AperFunction,ComponentPad*%
%ADD23O,2.000000X2.500000*%
%TD*%
%TA.AperFunction,ComponentPad*%
%ADD24R,2.200000X2.200000*%
%TD*%
%TA.AperFunction,ComponentPad*%
%ADD25O,2.200000X2.200000*%
%TD*%
%TA.AperFunction,ViaPad*%
%ADD26C,0.600000*%
%TD*%
%TA.AperFunction,Conductor*%
%ADD27C,1.000000*%
%TD*%
G04 APERTURE END LIST*
D10*
%TO.P,RT4,1*%
%TO.N,Net-(CT11-Pad2)*%
X104220000Y-95500000D03*
D11*
%TO.P,RT4,2*%
%TO.N,Net-(C6-Pad1)*%
X114380000Y-95500000D03*
%TD*%
D10*
%TO.P,CT3,1*%
%TO.N,Net-(U1B-+)*%
X84940000Y-64980000D03*
%TO.P,CT3,2*%
%TO.N,Earth*%
X84940000Y-59980000D03*
%TD*%
%TO.P,CT5,1*%
%TO.N,+4V*%
X50600000Y-107500000D03*
%TO.P,CT5,2*%
%TO.N,Earth*%
X50600000Y-102500000D03*
%TD*%
D12*
%TO.P,Q1,1,S*%
%TO.N,Net-(Q1-S)*%
X69500000Y-51800000D03*
D13*
%TO.P,Q1,2,D*%
%TO.N,+9VA*%
X71570000Y-53070000D03*
%TO.P,Q1,3,G*%
%TO.N,Net-(JP8-A)*%
X69500000Y-54340000D03*
%TD*%
D14*
%TO.P,U3,1*%
%TO.N,Net-(RT7-Pad1)*%
X107880000Y-102420000D03*
D10*
%TO.P,U3,2,-*%
%TO.N,Net-(U3A--)*%
X107880000Y-104960000D03*
%TO.P,U3,3,+*%
%TO.N,Net-(JP5-A)*%
X107880000Y-107500000D03*
%TO.P,U3,4,V-*%
%TO.N,GND*%
X107880000Y-110040000D03*
%TO.P,U3,5*%
%TO.N,N/C*%
X115500000Y-110040000D03*
%TO.P,U3,6*%
X115500000Y-107500000D03*
%TO.P,U3,7*%
X115500000Y-104960000D03*
%TO.P,U3,8,V+*%
%TO.N,+9VA*%
X115500000Y-102420000D03*
%TD*%
D15*
%TO.P,J6,1,Pin_1*%
%TO.N,Net-(J6-Pin_1)*%
X84600000Y-93000000D03*
D16*
%TO.P,J6,2,Pin_2*%
X82060000Y-93000000D03*
%TO.P,J6,3,Pin_3*%
%TO.N,Net-(J6-Pin_3)*%
X79520000Y-93000000D03*
%TD*%
D10*
%TO.P,R2,1*%
%TO.N,Net-(SW1-B)*%
X50400000Y-69060000D03*
D11*
%TO.P,R2,2*%
%TO.N,Earth*%
X50400000Y-79220000D03*
%TD*%
D14*
%TO.P,U2,1*%
%TO.N,Net-(JP6-A)*%
X59300000Y-101000000D03*
D10*
%TO.P,U2,2,-*%
%TO.N,Net-(JP5-A)*%
X59300000Y-103540000D03*
%TO.P,U2,3,+*%
%TO.N,+4V*%
X59300000Y-106080000D03*
%TO.P,U2,4,V-*%
%TO.N,GND*%
X59300000Y-108620000D03*
%TO.P,U2,5,+*%
%TO.N,+4V*%
X66920000Y-108620000D03*
%TO.P,U2,6,-*%
%TO.N,Net-(J6-Pin_1)*%
X66920000Y-106080000D03*
%TO.P,U2,7*%
%TO.N,Net-(C9-Pad1)*%
X66920000Y-103540000D03*
%TO.P,U2,8,V+*%
%TO.N,+9VA*%
X66920000Y-101000000D03*
%TD*%
%TO.P,R6,1*%
%TO.N,Net-(C4-Pad2)*%
X67700000Y-86920000D03*
D11*
%TO.P,R6,2*%
%TO.N,Earth*%
X67700000Y-76760000D03*
%TD*%
D17*
%TO.P,J5,1,Pin_1*%
%TO.N,Earth*%
X132730000Y-95620000D03*
D16*
%TO.P,J5,2,Pin_2*%
%TO.N,Net-(J5-Pin_2)*%
X135270000Y-95620000D03*
%TD*%
D10*
%TO.P,R8,1*%
%TO.N,+4V*%
X71200000Y-124780000D03*
D11*
%TO.P,R8,2*%
%TO.N,+9VA*%
X71200000Y-114620000D03*
%TD*%
D10*
%TO.P,RT8,1*%
%TO.N,Earth*%
X100400000Y-93340000D03*
D11*
%TO.P,RT8,2*%
%TO.N,Net-(U3A--)*%
X100400000Y-103500000D03*
%TD*%
D10*
%TO.P,CT8,1*%
%TO.N,Net-(CT8-Pad1)*%
X112300000Y-53500000D03*
%TO.P,CT8,2*%
%TO.N,Net-(JP5-A)*%
X107300000Y-53500000D03*
%TD*%
D18*
%TO.P,TP1,1,1*%
%TO.N,Net-(J6-Pin_1)*%
X78200000Y-110700000D03*
%TD*%
D19*
%TO.P,JP1,1,A*%
%TO.N,GND*%
X49900000Y-87600000D03*
%TO.P,JP1,2,C*%
%TO.N,Earth*%
X51200000Y-87600000D03*
%TO.P,JP1,3,B*%
%TO.N,+4V*%
X52500000Y-87600000D03*
%TD*%
D10*
%TO.P,C1,1*%
%TO.N,Net-(J1-Pin_3)*%
X58300000Y-55040000D03*
%TO.P,C1,2*%
%TO.N,Earth*%
X58300000Y-60040000D03*
%TD*%
%TO.P,R4,1*%
%TO.N,Net-(C3-Pad2)*%
X72920000Y-66140000D03*
D11*
%TO.P,R4,2*%
%TO.N,Net-(R4-Pad2)*%
X72920000Y-76300000D03*
%TD*%
D20*
%TO.P,J4,1,Pin_1*%
%TO.N,GND*%
X53100000Y-120960000D03*
D21*
%TO.P,J4,2,Pin_2*%
%TO.N,+9V*%
X53100000Y-118420000D03*
%TD*%
D19*
%TO.P,JP9,1,A*%
%TO.N,Net-(JP2-A)*%
X86400000Y-53540000D03*
%TO.P,JP9,2,B*%
%TO.N,Net-(JP5-A)*%
X87700000Y-53540000D03*
%TD*%
D15*
%TO.P,J3,1,Pin_1*%
%TO.N,Earth*%
X121200000Y-88940000D03*
D16*
%TO.P,J3,2,Pin_2*%
%TO.N,Net-(J3-Pin_2)*%
X118660000Y-88940000D03*
%TO.P,J3,3,Pin_3*%
%TO.N,Net-(J3-Pin_3)*%
X116120000Y-88940000D03*
%TD*%
D10*
%TO.P,RT2,1*%
%TO.N,Net-(U1A--)*%
X90800000Y-74400000D03*
D11*
%TO.P,RT2,2*%
%TO.N,Net-(C5-Pad1)*%
X90800000Y-84560000D03*
%TD*%
D10*
%TO.P,RT1,1*%
%TO.N,Net-(R4-Pad2)*%
X77800000Y-76340000D03*
D11*
%TO.P,RT1,2*%
%TO.N,Net-(JP2-A)*%
X77800000Y-66180000D03*
%TD*%
D10*
%TO.P,R10,1*%
%TO.N,Net-(JP5-A)*%
X55400000Y-104700000D03*
D11*
%TO.P,R10,2*%
%TO.N,Net-(JP6-A)*%
X55400000Y-94540000D03*
%TD*%
D19*
%TO.P,JP2,1,A*%
%TO.N,Net-(JP2-A)*%
X131400000Y-70550000D03*
%TO.P,JP2,2,B*%
%TO.N,Net-(JP2-B)*%
X132700000Y-70550000D03*
%TD*%
D10*
%TO.P,R9,1*%
%TO.N,GND*%
X66000000Y-124780000D03*
D11*
%TO.P,R9,2*%
%TO.N,+4V*%
X66000000Y-114620000D03*
%TD*%
D10*
%TO.P,RT3,1*%
%TO.N,Net-(C4-Pad2)*%
X73000000Y-80040000D03*
D11*
%TO.P,RT3,2*%
%TO.N,Net-(U1B-+)*%
X73000000Y-90200000D03*
%TD*%
D10*
%TO.P,R1,1*%
%TO.N,Net-(JP8-A)*%
X62900000Y-51840000D03*
D11*
%TO.P,R1,2*%
%TO.N,Net-(SW1-B)*%
X62900000Y-62000000D03*
%TD*%
D19*
%TO.P,JP3,1,A*%
%TO.N,Net-(J2-Pin_3)*%
X131400000Y-74100000D03*
%TO.P,JP3,2,B*%
%TO.N,Net-(JP2-B)*%
X132700000Y-74100000D03*
%TD*%
D10*
%TO.P,RT5,1*%
%TO.N,Net-(JP2-B)*%
X137700000Y-70040000D03*
D11*
%TO.P,RT5,2*%
%TO.N,Net-(CT9-Pad2)*%
X137700000Y-80200000D03*
%TD*%
D10*
%TO.P,R7,1*%
%TO.N,Net-(CT7-Pad2)*%
X121400000Y-69800000D03*
D11*
%TO.P,R7,2*%
%TO.N,Net-(CT8-Pad1)*%
X121400000Y-59640000D03*
%TD*%
D10*
%TO.P,RT9,1*%
%TO.N,Net-(RT7-Pad1)*%
X95400000Y-103500000D03*
D11*
%TO.P,RT9,2*%
%TO.N,Net-(U3A--)*%
X95400000Y-93340000D03*
%TD*%
D20*
%TO.P,J1,1,Pin_1*%
%TO.N,Earth*%
X50100000Y-61120000D03*
D21*
%TO.P,J1,2,Pin_2*%
%TO.N,Net-(J1-Pin_2)*%
X50100000Y-58580000D03*
%TO.P,J1,3,Pin_3*%
%TO.N,Net-(J1-Pin_3)*%
X50100000Y-56040000D03*
%TD*%
D19*
%TO.P,JP5,1,A*%
%TO.N,Net-(JP5-A)*%
X131400000Y-81100000D03*
%TO.P,JP5,2,B*%
%TO.N,Net-(JP2-B)*%
X132700000Y-81100000D03*
%TD*%
D10*
%TO.P,CT6,1*%
%TO.N,Net-(J2-Pin_2)*%
X108100000Y-59700000D03*
%TO.P,CT6,2*%
%TO.N,Net-(CT6-Pad2)*%
X108100000Y-64700000D03*
%TD*%
D19*
%TO.P,JP8,1,A*%
%TO.N,Net-(JP8-A)*%
X76500000Y-60140000D03*
%TO.P,JP8,2,B*%
%TO.N,Net-(JP2-A)*%
X77800000Y-60140000D03*
%TD*%
D22*
%TO.P,C9,1*%
%TO.N,Net-(C9-Pad1)*%
X81500000Y-103800000D03*
D10*
%TO.P,C9,2*%
%TO.N,Net-(JP7-A)*%
X83500000Y-103800000D03*
%TD*%
%TO.P,CT7,1*%
%TO.N,Net-(J3-Pin_2)*%
X121500000Y-79540000D03*
%TO.P,CT7,2*%
%TO.N,Net-(CT7-Pad2)*%
X121500000Y-74540000D03*
%TD*%
%TO.P,C3,1*%
%TO.N,Net-(Q1-S)*%
X68000000Y-72640000D03*
%TO.P,C3,2*%
%TO.N,Net-(C3-Pad2)*%
X68000000Y-67640000D03*
%TD*%
%TO.P,CT11,1*%
%TO.N,Net-(U1B--)*%
X113300000Y-79540000D03*
%TO.P,CT11,2*%
%TO.N,Net-(CT11-Pad2)*%
X113300000Y-74540000D03*
%TD*%
%TO.P,CT9,1*%
%TO.N,Net-(J5-Pin_2)*%
X137700000Y-89100000D03*
%TO.P,CT9,2*%
%TO.N,Net-(CT9-Pad2)*%
X137700000Y-84100000D03*
%TD*%
%TO.P,R12,1*%
%TO.N,Net-(J6-Pin_3)*%
X61540000Y-94700000D03*
D11*
%TO.P,R12,2*%
%TO.N,Net-(JP6-A)*%
X71700000Y-94700000D03*
%TD*%
D10*
%TO.P,RT6,1*%
%TO.N,Net-(U1B--)*%
X107600000Y-80940000D03*
D11*
%TO.P,RT6,2*%
%TO.N,Net-(CT11-Pad2)*%
X107600000Y-70780000D03*
%TD*%
D10*
%TO.P,CT10,1*%
%TO.N,Net-(JP5-A)*%
X50600000Y-98500000D03*
%TO.P,CT10,2*%
%TO.N,Net-(JP6-A)*%
X50600000Y-93500000D03*
%TD*%
%TO.P,R5,1*%
%TO.N,Net-(CT6-Pad2)*%
X115200000Y-69800000D03*
D11*
%TO.P,R5,2*%
%TO.N,Net-(CT8-Pad1)*%
X115200000Y-59640000D03*
%TD*%
D22*
%TO.P,C7,1*%
%TO.N,+9VA*%
X51344888Y-128620000D03*
D10*
%TO.P,C7,2*%
%TO.N,GND*%
X53344888Y-128620000D03*
%TD*%
D22*
%TO.P,C8,1*%
%TO.N,+4V*%
X58644888Y-130620000D03*
D10*
%TO.P,C8,2*%
%TO.N,GND*%
X60644888Y-130620000D03*
%TD*%
D19*
%TO.P,JP4,1,A*%
%TO.N,Net-(J3-Pin_3)*%
X131400000Y-77650000D03*
%TO.P,JP4,2,B*%
%TO.N,Net-(JP2-B)*%
X132700000Y-77650000D03*
%TD*%
D10*
%TO.P,C2,1*%
%TO.N,Net-(J1-Pin_3)*%
X53500000Y-51800000D03*
%TO.P,C2,2*%
%TO.N,Net-(JP8-A)*%
X58500000Y-51800000D03*
%TD*%
%TO.P,R11,1*%
%TO.N,Net-(J6-Pin_1)*%
X73100000Y-110580000D03*
D11*
%TO.P,R11,2*%
%TO.N,Net-(C9-Pad1)*%
X73100000Y-100420000D03*
%TD*%
D10*
%TO.P,RT7,1*%
%TO.N,Net-(RT7-Pad1)*%
X101280000Y-109700000D03*
D11*
%TO.P,RT7,2*%
%TO.N,Net-(C9-Pad1)*%
X91120000Y-109700000D03*
%TD*%
D10*
%TO.P,CT1,1*%
%TO.N,Net-(JP2-A)*%
X84100000Y-71700000D03*
%TO.P,CT1,2*%
%TO.N,Earth*%
X84100000Y-76700000D03*
%TD*%
%TO.P,C6,1*%
%TO.N,Net-(C6-Pad1)*%
X107500000Y-88700000D03*
%TO.P,C6,2*%
%TO.N,Net-(J3-Pin_3)*%
X112500000Y-88700000D03*
%TD*%
%TO.P,CT2,1*%
%TO.N,Net-(C5-Pad1)*%
X84300000Y-85300000D03*
%TO.P,CT2,2*%
%TO.N,Earth*%
X84300000Y-80300000D03*
%TD*%
D14*
%TO.P,U1,1*%
%TO.N,Net-(U1A--)*%
X95100000Y-71900000D03*
D10*
%TO.P,U1,2,-*%
X95100000Y-74440000D03*
%TO.P,U1,3,+*%
%TO.N,Net-(JP2-A)*%
X95100000Y-76980000D03*
%TO.P,U1,4,V-*%
%TO.N,GND*%
X95100000Y-79520000D03*
%TO.P,U1,5,+*%
%TO.N,Net-(U1B-+)*%
X102720000Y-79520000D03*
%TO.P,U1,6,-*%
%TO.N,Net-(U1B--)*%
X102720000Y-76980000D03*
%TO.P,U1,7*%
%TO.N,Net-(CT11-Pad2)*%
X102720000Y-74440000D03*
%TO.P,U1,8,V+*%
%TO.N,+9VA*%
X102720000Y-71900000D03*
%TD*%
D23*
%TO.P,SW1,1,A*%
%TO.N,Earth*%
X57300000Y-77140000D03*
%TO.P,SW1,2,B*%
%TO.N,Net-(SW1-B)*%
X57300000Y-74140000D03*
%TO.P,SW1,3*%
%TO.N,N/C*%
X57300000Y-71140000D03*
%TD*%
D19*
%TO.P,JP6,1,A*%
%TO.N,Net-(JP6-A)*%
X131400000Y-84750000D03*
%TO.P,JP6,2,B*%
%TO.N,Net-(JP2-B)*%
X132700000Y-84750000D03*
%TD*%
D10*
%TO.P,CT4,1*%
%TO.N,Net-(C6-Pad1)*%
X118300000Y-95700000D03*
%TO.P,CT4,2*%
%TO.N,Earth*%
X123300000Y-95700000D03*
%TD*%
D19*
%TO.P,JP7,1,A*%
%TO.N,Net-(JP7-A)*%
X131400000Y-89100000D03*
%TO.P,JP7,2,B*%
%TO.N,Net-(JP2-B)*%
X132700000Y-89100000D03*
%TD*%
D17*
%TO.P,J2,1,Pin_1*%
%TO.N,Earth*%
X91200000Y-62200000D03*
D16*
%TO.P,J2,2,Pin_2*%
%TO.N,Net-(J2-Pin_2)*%
X93740000Y-62200000D03*
%TO.P,J2,3,Pin_3*%
%TO.N,Net-(J2-Pin_3)*%
X96280000Y-62200000D03*
%TD*%
D10*
%TO.P,C5,1*%
%TO.N,Net-(C5-Pad1)*%
X95800000Y-84700000D03*
%TO.P,C5,2*%
%TO.N,Net-(J2-Pin_3)*%
X100800000Y-84700000D03*
%TD*%
%TO.P,R13,1*%
%TO.N,Earth*%
X90100000Y-93340000D03*
D11*
%TO.P,R13,2*%
%TO.N,Net-(JP7-A)*%
X90100000Y-103500000D03*
%TD*%
D10*
%TO.P,C4,1*%
%TO.N,Net-(J1-Pin_2)*%
X59000000Y-86540000D03*
%TO.P,C4,2*%
%TO.N,Net-(C4-Pad2)*%
X64000000Y-86540000D03*
%TD*%
%TO.P,R3,1*%
%TO.N,Net-(Q1-S)*%
X62600000Y-71040000D03*
D11*
%TO.P,R3,2*%
%TO.N,Earth*%
X62600000Y-81200000D03*
%TD*%
D24*
%TO.P,D1,1,K*%
%TO.N,+9VA*%
X60900000Y-125080000D03*
D25*
%TO.P,D1,2,A*%
%TO.N,+9V*%
X60900000Y-114920000D03*
%TD*%
D26*
%TO.N,Earth*%
X45760000Y-83860000D03*
%TO.N,+9VA*%
X136200000Y-102300000D03*
%TO.N,Net-(U1B-+)*%
X81000000Y-82500000D03*
%TO.N,Net-(JP5-A)*%
X126500000Y-93200000D03*
X126500000Y-85400000D03*
X126500000Y-69100000D03*
%TD*%
D27*
%TO.N,Net-(JP2-B)*%
X136400000Y-70000000D02*
X136440000Y-70040000D01*
X136440000Y-70040000D02*
X137700000Y-70040000D01*
%TO.N,Earth*%
X51200000Y-86248000D02*
X51200000Y-87600000D01*
X100400000Y-94471370D02*
X103429630Y-97501000D01*
X82659000Y-78141000D02*
X84100000Y-76700000D01*
X69081000Y-78141000D02*
X82659000Y-78141000D01*
X100400000Y-93340000D02*
X100400000Y-94471370D01*
X48812000Y-83860000D02*
X51200000Y-86248000D01*
X67700000Y-76760000D02*
X69081000Y-78141000D01*
X121499000Y-97501000D02*
X123300000Y-95700000D01*
X103429630Y-97501000D02*
X121499000Y-97501000D01*
X45760000Y-83860000D02*
X48812000Y-83860000D01*
%TO.N,Net-(JP8-A)*%
X75700000Y-60140000D02*
X76299000Y-60140000D01*
X69900000Y-54340000D02*
X75700000Y-60140000D01*
X62900000Y-51840000D02*
X65400000Y-54340000D01*
X65400000Y-54340000D02*
X69900000Y-54340000D01*
%TO.N,Net-(J1-Pin_2)*%
X52201000Y-79741000D02*
X52201000Y-59301000D01*
X59000000Y-86540000D02*
X52201000Y-79741000D01*
X51480000Y-58580000D02*
X50100000Y-58580000D01*
X52201000Y-59301000D02*
X51480000Y-58580000D01*
%TO.N,Net-(J2-Pin_3)*%
X100800000Y-84700000D02*
X102500000Y-83000000D01*
X102500000Y-83000000D02*
X122299000Y-83000000D01*
X122299000Y-83000000D02*
X131199000Y-74100000D01*
%TO.N,Net-(C5-Pad1)*%
X84300000Y-85300000D02*
X90060000Y-85300000D01*
X90060000Y-85300000D02*
X90800000Y-84560000D01*
X95660000Y-84560000D02*
X95800000Y-84700000D01*
X90800000Y-84560000D02*
X95660000Y-84560000D01*
%TO.N,Net-(J3-Pin_3)*%
X131199000Y-77851000D02*
X131199000Y-77650000D01*
X124350000Y-84700000D02*
X131199000Y-77851000D01*
X116120000Y-88940000D02*
X116120000Y-87295000D01*
X118715000Y-84700000D02*
X124350000Y-84700000D01*
X116120000Y-87295000D02*
X118715000Y-84700000D01*
%TO.N,+9VA*%
X71200000Y-114620000D02*
X75680000Y-119100000D01*
X75680000Y-119100000D02*
X122600000Y-119100000D01*
X136200000Y-105500000D02*
X136200000Y-102300000D01*
X122600000Y-119100000D02*
X136200000Y-105500000D01*
%TO.N,GND*%
X57320000Y-110600000D02*
X45500000Y-110600000D01*
X45500000Y-110600000D02*
X45500000Y-91799000D01*
X59300000Y-108620000D02*
X57320000Y-110600000D01*
X45500000Y-91799000D02*
X49699000Y-87600000D01*
%TO.N,+4V*%
X61101000Y-105410370D02*
X61101000Y-96807999D01*
X71200000Y-119820000D02*
X66000000Y-114620000D01*
X59300000Y-106080000D02*
X60431370Y-106080000D01*
X60431370Y-106080000D02*
X61101000Y-105410370D01*
X71200000Y-124780000D02*
X71200000Y-119820000D01*
X61101000Y-96807999D02*
X52701000Y-88407999D01*
X52701000Y-88407999D02*
X52701000Y-87600000D01*
%TO.N,Net-(C9-Pad1)*%
X66920000Y-103540000D02*
X69980000Y-103540000D01*
X69980000Y-103540000D02*
X73100000Y-100420000D01*
%TO.N,Net-(JP7-A)*%
X121100000Y-115600000D02*
X129700000Y-107000000D01*
X129700000Y-90599000D02*
X131199000Y-89100000D01*
X90100000Y-103500000D02*
X102200000Y-115600000D01*
X102200000Y-115600000D02*
X121100000Y-115600000D01*
X129700000Y-107000000D02*
X129700000Y-90599000D01*
%TO.N,Net-(JP2-A)*%
X77800000Y-61939000D02*
X86199000Y-53540000D01*
X89380000Y-76980000D02*
X95100000Y-76980000D01*
X100919000Y-72292370D02*
X100919000Y-70281000D01*
X96231370Y-76980000D02*
X100919000Y-72292370D01*
X130349000Y-71601000D02*
X131199000Y-70751000D01*
X77800000Y-66180000D02*
X77800000Y-61939000D01*
X78001000Y-65979000D02*
X78001000Y-60140000D01*
X77800000Y-66180000D02*
X78580000Y-66180000D01*
X102221000Y-68979000D02*
X111832001Y-68979000D01*
X84100000Y-71700000D02*
X89380000Y-76980000D01*
X95100000Y-76980000D02*
X96231370Y-76980000D01*
X100919000Y-70281000D02*
X102221000Y-68979000D01*
X78580000Y-66180000D02*
X84100000Y-71700000D01*
X131199000Y-70751000D02*
X131199000Y-70550000D01*
X77800000Y-66180000D02*
X78001000Y-65979000D01*
X114454001Y-71601000D02*
X130349000Y-71601000D01*
X111832001Y-68979000D02*
X114454001Y-71601000D01*
%TO.N,Net-(U1B-+)*%
X102720000Y-79520000D02*
X99740000Y-82500000D01*
X81000000Y-82500000D02*
X80900000Y-82500000D01*
X99740000Y-82500000D02*
X81000000Y-82500000D01*
%TO.N,Net-(J2-Pin_2)*%
X94145000Y-59700000D02*
X108100000Y-59700000D01*
X93740000Y-62200000D02*
X93740000Y-60105000D01*
X93740000Y-60105000D02*
X94145000Y-59700000D01*
%TO.N,Net-(JP5-A)*%
X107300000Y-53500000D02*
X111639000Y-57839000D01*
X107880000Y-107500000D02*
X109011370Y-107500000D01*
X130800000Y-81100000D02*
X131199000Y-81100000D01*
X122300000Y-57900000D02*
X126500000Y-62100000D01*
X126500000Y-62100000D02*
X126500000Y-69100000D01*
X109011370Y-107500000D02*
X111900000Y-104611370D01*
X115573001Y-99800000D02*
X124900000Y-99800000D01*
X126500000Y-98200000D02*
X126500000Y-93200000D01*
X126500000Y-85400000D02*
X130800000Y-81100000D01*
X87941000Y-53500000D02*
X87901000Y-53540000D01*
X107300000Y-53500000D02*
X87941000Y-53500000D01*
X111639000Y-57839000D02*
X122239000Y-57839000D01*
X111900000Y-104611370D02*
X111900000Y-103473001D01*
X124900000Y-99800000D02*
X126500000Y-98200000D01*
X111900000Y-103473001D02*
X115573001Y-99800000D01*
X122239000Y-57839000D02*
X122300000Y-57900000D01*
%TO.N,Net-(JP6-A)*%
X71700000Y-94700000D02*
X76500000Y-89900000D01*
X124850000Y-91300000D02*
X131199000Y-84951000D01*
X76500000Y-89900000D02*
X103400000Y-89900000D01*
X103400000Y-89900000D02*
X104800000Y-91300000D01*
X104800000Y-91300000D02*
X124850000Y-91300000D01*
%TO.N,Net-(U1B--)*%
X111900000Y-80940000D02*
X113300000Y-79540000D01*
X102720000Y-76980000D02*
X103640000Y-76980000D01*
X107600000Y-80940000D02*
X111900000Y-80940000D01*
X103640000Y-76980000D02*
X107600000Y-80940000D01*
%TO.N,Net-(J6-Pin_1)*%
X73100000Y-110580000D02*
X73100000Y-105900000D01*
X82060000Y-96940000D02*
X82060000Y-93000000D01*
X68600000Y-106080000D02*
X66920000Y-106080000D01*
X73100000Y-105900000D02*
X82060000Y-96940000D01*
X78080000Y-110580000D02*
X78200000Y-110700000D01*
X82060000Y-93000000D02*
X84600000Y-93000000D01*
X73100000Y-110580000D02*
X68600000Y-106080000D01*
X73100000Y-110580000D02*
X78080000Y-110580000D01*
%TO.N,Net-(JP2-B)*%
X136400000Y-70000000D02*
X133451000Y-70000000D01*
X132901000Y-73499000D02*
X132901000Y-89100000D01*
X136400000Y-70000000D02*
X132901000Y-73499000D01*
X133451000Y-70000000D02*
X132901000Y-70550000D01*
%TO.N,Net-(RT7-Pad1)*%
X101280000Y-109700000D02*
X101280000Y-108568630D01*
X101280000Y-108568630D02*
X107428630Y-102420000D01*
X107428630Y-102420000D02*
X107880000Y-102420000D01*
%TD*%
M02*
