%TF.GenerationSoftware,KiCad,Pcbnew,9.0.0*%
%TF.CreationDate,2025-09-08T17:14:00+01:00*%
%TF.ProjectId,GuitarMixer,47756974-6172-44d6-9978-65722e6b6963,V0.3*%
%TF.SameCoordinates,Original*%
%TF.FileFunction,Legend,Top*%
%TF.FilePolarity,Positive*%
%FSLAX46Y46*%
G04 Gerber Fmt 4.6, Leading zero omitted, Abs format (unit mm)*
G04 Created by KiCad (PCBNEW 9.0.0) date 2025-09-08 17:14:00*
%MOMM*%
%LPD*%
G01*
G04 APERTURE LIST*
%ADD10C,0.160000*%
%ADD11C,0.200000*%
%ADD12C,0.100000*%
%ADD13C,0.150000*%
%ADD14C,0.120000*%
G04 APERTURE END LIST*
D10*
X41148120Y-35793775D02*
X41300501Y-35793775D01*
X41300501Y-35793775D02*
X41376691Y-35831870D01*
X41376691Y-35831870D02*
X41452882Y-35908060D01*
X41452882Y-35908060D02*
X41490977Y-36060441D01*
X41490977Y-36060441D02*
X41490977Y-36327108D01*
X41490977Y-36327108D02*
X41452882Y-36479489D01*
X41452882Y-36479489D02*
X41376691Y-36555680D01*
X41376691Y-36555680D02*
X41300501Y-36593775D01*
X41300501Y-36593775D02*
X41148120Y-36593775D01*
X41148120Y-36593775D02*
X41071929Y-36555680D01*
X41071929Y-36555680D02*
X40995739Y-36479489D01*
X40995739Y-36479489D02*
X40957643Y-36327108D01*
X40957643Y-36327108D02*
X40957643Y-36060441D01*
X40957643Y-36060441D02*
X40995739Y-35908060D01*
X40995739Y-35908060D02*
X41071929Y-35831870D01*
X41071929Y-35831870D02*
X41148120Y-35793775D01*
X41833834Y-36593775D02*
X41833834Y-35793775D01*
X41833834Y-35793775D02*
X42138596Y-35793775D01*
X42138596Y-35793775D02*
X42214786Y-35831870D01*
X42214786Y-35831870D02*
X42252881Y-35869965D01*
X42252881Y-35869965D02*
X42290977Y-35946156D01*
X42290977Y-35946156D02*
X42290977Y-36060441D01*
X42290977Y-36060441D02*
X42252881Y-36136632D01*
X42252881Y-36136632D02*
X42214786Y-36174727D01*
X42214786Y-36174727D02*
X42138596Y-36212822D01*
X42138596Y-36212822D02*
X41833834Y-36212822D01*
X42633834Y-36517584D02*
X42671929Y-36555680D01*
X42671929Y-36555680D02*
X42633834Y-36593775D01*
X42633834Y-36593775D02*
X42595738Y-36555680D01*
X42595738Y-36555680D02*
X42633834Y-36517584D01*
X42633834Y-36517584D02*
X42633834Y-36593775D01*
X42633834Y-36098537D02*
X42671929Y-36136632D01*
X42671929Y-36136632D02*
X42633834Y-36174727D01*
X42633834Y-36174727D02*
X42595738Y-36136632D01*
X42595738Y-36136632D02*
X42633834Y-36098537D01*
X42633834Y-36098537D02*
X42633834Y-36174727D01*
X43624310Y-36174727D02*
X43890976Y-36174727D01*
X44005262Y-36593775D02*
X43624310Y-36593775D01*
X43624310Y-36593775D02*
X43624310Y-35793775D01*
X43624310Y-35793775D02*
X44005262Y-35793775D01*
X45529072Y-36555680D02*
X45643358Y-36593775D01*
X45643358Y-36593775D02*
X45833834Y-36593775D01*
X45833834Y-36593775D02*
X45910025Y-36555680D01*
X45910025Y-36555680D02*
X45948120Y-36517584D01*
X45948120Y-36517584D02*
X45986215Y-36441394D01*
X45986215Y-36441394D02*
X45986215Y-36365203D01*
X45986215Y-36365203D02*
X45948120Y-36289013D01*
X45948120Y-36289013D02*
X45910025Y-36250918D01*
X45910025Y-36250918D02*
X45833834Y-36212822D01*
X45833834Y-36212822D02*
X45681453Y-36174727D01*
X45681453Y-36174727D02*
X45605263Y-36136632D01*
X45605263Y-36136632D02*
X45567168Y-36098537D01*
X45567168Y-36098537D02*
X45529072Y-36022346D01*
X45529072Y-36022346D02*
X45529072Y-35946156D01*
X45529072Y-35946156D02*
X45567168Y-35869965D01*
X45567168Y-35869965D02*
X45605263Y-35831870D01*
X45605263Y-35831870D02*
X45681453Y-35793775D01*
X45681453Y-35793775D02*
X45871930Y-35793775D01*
X45871930Y-35793775D02*
X45986215Y-35831870D01*
D11*
X29726816Y-84867219D02*
X30060149Y-85867219D01*
X30060149Y-85867219D02*
X30393482Y-84867219D01*
X30869673Y-85867219D02*
X30774435Y-85819600D01*
X30774435Y-85819600D02*
X30726816Y-85771980D01*
X30726816Y-85771980D02*
X30679197Y-85676742D01*
X30679197Y-85676742D02*
X30679197Y-85391028D01*
X30679197Y-85391028D02*
X30726816Y-85295790D01*
X30726816Y-85295790D02*
X30774435Y-85248171D01*
X30774435Y-85248171D02*
X30869673Y-85200552D01*
X30869673Y-85200552D02*
X31012530Y-85200552D01*
X31012530Y-85200552D02*
X31107768Y-85248171D01*
X31107768Y-85248171D02*
X31155387Y-85295790D01*
X31155387Y-85295790D02*
X31203006Y-85391028D01*
X31203006Y-85391028D02*
X31203006Y-85676742D01*
X31203006Y-85676742D02*
X31155387Y-85771980D01*
X31155387Y-85771980D02*
X31107768Y-85819600D01*
X31107768Y-85819600D02*
X31012530Y-85867219D01*
X31012530Y-85867219D02*
X30869673Y-85867219D01*
X31774435Y-85867219D02*
X31679197Y-85819600D01*
X31679197Y-85819600D02*
X31631578Y-85724361D01*
X31631578Y-85724361D02*
X31631578Y-84867219D01*
X32155388Y-85771980D02*
X32203007Y-85819600D01*
X32203007Y-85819600D02*
X32155388Y-85867219D01*
X32155388Y-85867219D02*
X32107769Y-85819600D01*
X32107769Y-85819600D02*
X32155388Y-85771980D01*
X32155388Y-85771980D02*
X32155388Y-85867219D01*
X32155388Y-85248171D02*
X32203007Y-85295790D01*
X32203007Y-85295790D02*
X32155388Y-85343409D01*
X32155388Y-85343409D02*
X32107769Y-85295790D01*
X32107769Y-85295790D02*
X32155388Y-85248171D01*
X32155388Y-85248171D02*
X32155388Y-85343409D01*
X33393483Y-85867219D02*
X33393483Y-84867219D01*
X33393483Y-85343409D02*
X33964911Y-85343409D01*
X33964911Y-85867219D02*
X33964911Y-84867219D01*
X35869674Y-84867219D02*
X36107769Y-85867219D01*
X36107769Y-85867219D02*
X36298245Y-85152933D01*
X36298245Y-85152933D02*
X36488721Y-85867219D01*
X36488721Y-85867219D02*
X36726817Y-84867219D01*
X39107769Y-85867219D02*
X38631579Y-85867219D01*
X38631579Y-85867219D02*
X38631579Y-84867219D01*
D10*
X48095739Y-36593775D02*
X48095739Y-35793775D01*
X48095739Y-35793775D02*
X48400501Y-35793775D01*
X48400501Y-35793775D02*
X48476691Y-35831870D01*
X48476691Y-35831870D02*
X48514786Y-35869965D01*
X48514786Y-35869965D02*
X48552882Y-35946156D01*
X48552882Y-35946156D02*
X48552882Y-36060441D01*
X48552882Y-36060441D02*
X48514786Y-36136632D01*
X48514786Y-36136632D02*
X48476691Y-36174727D01*
X48476691Y-36174727D02*
X48400501Y-36212822D01*
X48400501Y-36212822D02*
X48095739Y-36212822D01*
X48895739Y-36517584D02*
X48933834Y-36555680D01*
X48933834Y-36555680D02*
X48895739Y-36593775D01*
X48895739Y-36593775D02*
X48857643Y-36555680D01*
X48857643Y-36555680D02*
X48895739Y-36517584D01*
X48895739Y-36517584D02*
X48895739Y-36593775D01*
X48895739Y-36098537D02*
X48933834Y-36136632D01*
X48933834Y-36136632D02*
X48895739Y-36174727D01*
X48895739Y-36174727D02*
X48857643Y-36136632D01*
X48857643Y-36136632D02*
X48895739Y-36098537D01*
X48895739Y-36098537D02*
X48895739Y-36174727D01*
X50305262Y-35831870D02*
X50229072Y-35793775D01*
X50229072Y-35793775D02*
X50114786Y-35793775D01*
X50114786Y-35793775D02*
X50000500Y-35831870D01*
X50000500Y-35831870D02*
X49924310Y-35908060D01*
X49924310Y-35908060D02*
X49886215Y-35984251D01*
X49886215Y-35984251D02*
X49848119Y-36136632D01*
X49848119Y-36136632D02*
X49848119Y-36250918D01*
X49848119Y-36250918D02*
X49886215Y-36403299D01*
X49886215Y-36403299D02*
X49924310Y-36479489D01*
X49924310Y-36479489D02*
X50000500Y-36555680D01*
X50000500Y-36555680D02*
X50114786Y-36593775D01*
X50114786Y-36593775D02*
X50190977Y-36593775D01*
X50190977Y-36593775D02*
X50305262Y-36555680D01*
X50305262Y-36555680D02*
X50343358Y-36517584D01*
X50343358Y-36517584D02*
X50343358Y-36250918D01*
X50343358Y-36250918D02*
X50190977Y-36250918D01*
X51905263Y-36289013D02*
X52514787Y-36289013D01*
X52210025Y-36593775D02*
X52210025Y-35984251D01*
D11*
X62145863Y-52067219D02*
X61669673Y-52067219D01*
X61669673Y-52067219D02*
X61622054Y-52543409D01*
X61622054Y-52543409D02*
X61669673Y-52495790D01*
X61669673Y-52495790D02*
X61764911Y-52448171D01*
X61764911Y-52448171D02*
X62003006Y-52448171D01*
X62003006Y-52448171D02*
X62098244Y-52495790D01*
X62098244Y-52495790D02*
X62145863Y-52543409D01*
X62145863Y-52543409D02*
X62193482Y-52638647D01*
X62193482Y-52638647D02*
X62193482Y-52876742D01*
X62193482Y-52876742D02*
X62145863Y-52971980D01*
X62145863Y-52971980D02*
X62098244Y-53019600D01*
X62098244Y-53019600D02*
X62003006Y-53067219D01*
X62003006Y-53067219D02*
X61764911Y-53067219D01*
X61764911Y-53067219D02*
X61669673Y-53019600D01*
X61669673Y-53019600D02*
X61622054Y-52971980D01*
X62622054Y-53067219D02*
X62622054Y-52067219D01*
X62622054Y-52067219D02*
X62955387Y-52781504D01*
X62955387Y-52781504D02*
X63288720Y-52067219D01*
X63288720Y-52067219D02*
X63288720Y-53067219D01*
D10*
X32595739Y-36593775D02*
X32595739Y-35793775D01*
X32976691Y-36593775D02*
X32976691Y-35793775D01*
X32976691Y-35793775D02*
X33433834Y-36593775D01*
X33433834Y-36593775D02*
X33433834Y-35793775D01*
X33814786Y-36517584D02*
X33852881Y-36555680D01*
X33852881Y-36555680D02*
X33814786Y-36593775D01*
X33814786Y-36593775D02*
X33776690Y-36555680D01*
X33776690Y-36555680D02*
X33814786Y-36517584D01*
X33814786Y-36517584D02*
X33814786Y-36593775D01*
X33814786Y-36098537D02*
X33852881Y-36136632D01*
X33852881Y-36136632D02*
X33814786Y-36174727D01*
X33814786Y-36174727D02*
X33776690Y-36136632D01*
X33776690Y-36136632D02*
X33814786Y-36098537D01*
X33814786Y-36098537D02*
X33814786Y-36174727D01*
X35224309Y-35831870D02*
X35148119Y-35793775D01*
X35148119Y-35793775D02*
X35033833Y-35793775D01*
X35033833Y-35793775D02*
X34919547Y-35831870D01*
X34919547Y-35831870D02*
X34843357Y-35908060D01*
X34843357Y-35908060D02*
X34805262Y-35984251D01*
X34805262Y-35984251D02*
X34767166Y-36136632D01*
X34767166Y-36136632D02*
X34767166Y-36250918D01*
X34767166Y-36250918D02*
X34805262Y-36403299D01*
X34805262Y-36403299D02*
X34843357Y-36479489D01*
X34843357Y-36479489D02*
X34919547Y-36555680D01*
X34919547Y-36555680D02*
X35033833Y-36593775D01*
X35033833Y-36593775D02*
X35110024Y-36593775D01*
X35110024Y-36593775D02*
X35224309Y-36555680D01*
X35224309Y-36555680D02*
X35262405Y-36517584D01*
X35262405Y-36517584D02*
X35262405Y-36250918D01*
X35262405Y-36250918D02*
X35110024Y-36250918D01*
X36824310Y-36174727D02*
X37090976Y-36174727D01*
X37205262Y-36593775D02*
X36824310Y-36593775D01*
X36824310Y-36593775D02*
X36824310Y-35793775D01*
X36824310Y-35793775D02*
X37205262Y-35793775D01*
X37662405Y-36593775D02*
X37586215Y-36555680D01*
X37586215Y-36555680D02*
X37548120Y-36479489D01*
X37548120Y-36479489D02*
X37548120Y-35793775D01*
X39148120Y-36365203D02*
X39529073Y-36365203D01*
X39071930Y-36593775D02*
X39338597Y-35793775D01*
X39338597Y-35793775D02*
X39605263Y-36593775D01*
D12*
X29590475Y-89276760D02*
X30066665Y-89276760D01*
X29495237Y-89562475D02*
X29828570Y-88562475D01*
X29828570Y-88562475D02*
X30161903Y-89562475D01*
X30495237Y-89038665D02*
X30828570Y-89038665D01*
X30971427Y-89562475D02*
X30495237Y-89562475D01*
X30495237Y-89562475D02*
X30495237Y-88562475D01*
X30495237Y-88562475D02*
X30971427Y-88562475D01*
X31923808Y-88610094D02*
X31828570Y-88562475D01*
X31828570Y-88562475D02*
X31685713Y-88562475D01*
X31685713Y-88562475D02*
X31542856Y-88610094D01*
X31542856Y-88610094D02*
X31447618Y-88705332D01*
X31447618Y-88705332D02*
X31399999Y-88800570D01*
X31399999Y-88800570D02*
X31352380Y-88991046D01*
X31352380Y-88991046D02*
X31352380Y-89133903D01*
X31352380Y-89133903D02*
X31399999Y-89324379D01*
X31399999Y-89324379D02*
X31447618Y-89419617D01*
X31447618Y-89419617D02*
X31542856Y-89514856D01*
X31542856Y-89514856D02*
X31685713Y-89562475D01*
X31685713Y-89562475D02*
X31780951Y-89562475D01*
X31780951Y-89562475D02*
X31923808Y-89514856D01*
X31923808Y-89514856D02*
X31971427Y-89467236D01*
X31971427Y-89467236D02*
X31971427Y-89133903D01*
X31971427Y-89133903D02*
X31780951Y-89133903D01*
X32399999Y-89562475D02*
X32399999Y-88562475D01*
X32399999Y-88562475D02*
X32733332Y-89276760D01*
X32733332Y-89276760D02*
X33066665Y-88562475D01*
X33066665Y-88562475D02*
X33066665Y-89562475D01*
X33542856Y-89467236D02*
X33590475Y-89514856D01*
X33590475Y-89514856D02*
X33542856Y-89562475D01*
X33542856Y-89562475D02*
X33495237Y-89514856D01*
X33495237Y-89514856D02*
X33542856Y-89467236D01*
X33542856Y-89467236D02*
X33542856Y-89562475D01*
X33542856Y-88943427D02*
X33590475Y-88991046D01*
X33590475Y-88991046D02*
X33542856Y-89038665D01*
X33542856Y-89038665D02*
X33495237Y-88991046D01*
X33495237Y-88991046D02*
X33542856Y-88943427D01*
X33542856Y-88943427D02*
X33542856Y-89038665D01*
X34733332Y-89276760D02*
X35209522Y-89276760D01*
X34638094Y-89562475D02*
X34971427Y-88562475D01*
X34971427Y-88562475D02*
X35304760Y-89562475D01*
X36066665Y-89514856D02*
X35971427Y-89562475D01*
X35971427Y-89562475D02*
X35780951Y-89562475D01*
X35780951Y-89562475D02*
X35685713Y-89514856D01*
X35685713Y-89514856D02*
X35638094Y-89467236D01*
X35638094Y-89467236D02*
X35590475Y-89371998D01*
X35590475Y-89371998D02*
X35590475Y-89086284D01*
X35590475Y-89086284D02*
X35638094Y-88991046D01*
X35638094Y-88991046D02*
X35685713Y-88943427D01*
X35685713Y-88943427D02*
X35780951Y-88895808D01*
X35780951Y-88895808D02*
X35971427Y-88895808D01*
X35971427Y-88895808D02*
X36066665Y-88943427D01*
X36638094Y-89562475D02*
X36542856Y-89514856D01*
X36542856Y-89514856D02*
X36495237Y-89467236D01*
X36495237Y-89467236D02*
X36447618Y-89371998D01*
X36447618Y-89371998D02*
X36447618Y-89086284D01*
X36447618Y-89086284D02*
X36495237Y-88991046D01*
X36495237Y-88991046D02*
X36542856Y-88943427D01*
X36542856Y-88943427D02*
X36638094Y-88895808D01*
X36638094Y-88895808D02*
X36780951Y-88895808D01*
X36780951Y-88895808D02*
X36876189Y-88943427D01*
X36876189Y-88943427D02*
X36923808Y-88991046D01*
X36923808Y-88991046D02*
X36971427Y-89086284D01*
X36971427Y-89086284D02*
X36971427Y-89371998D01*
X36971427Y-89371998D02*
X36923808Y-89467236D01*
X36923808Y-89467236D02*
X36876189Y-89514856D01*
X36876189Y-89514856D02*
X36780951Y-89562475D01*
X36780951Y-89562475D02*
X36638094Y-89562475D01*
X37828570Y-88895808D02*
X37828570Y-89562475D01*
X37399999Y-88895808D02*
X37399999Y-89419617D01*
X37399999Y-89419617D02*
X37447618Y-89514856D01*
X37447618Y-89514856D02*
X37542856Y-89562475D01*
X37542856Y-89562475D02*
X37685713Y-89562475D01*
X37685713Y-89562475D02*
X37780951Y-89514856D01*
X37780951Y-89514856D02*
X37828570Y-89467236D01*
X38257142Y-89514856D02*
X38352380Y-89562475D01*
X38352380Y-89562475D02*
X38542856Y-89562475D01*
X38542856Y-89562475D02*
X38638094Y-89514856D01*
X38638094Y-89514856D02*
X38685713Y-89419617D01*
X38685713Y-89419617D02*
X38685713Y-89371998D01*
X38685713Y-89371998D02*
X38638094Y-89276760D01*
X38638094Y-89276760D02*
X38542856Y-89229141D01*
X38542856Y-89229141D02*
X38399999Y-89229141D01*
X38399999Y-89229141D02*
X38304761Y-89181522D01*
X38304761Y-89181522D02*
X38257142Y-89086284D01*
X38257142Y-89086284D02*
X38257142Y-89038665D01*
X38257142Y-89038665D02*
X38304761Y-88943427D01*
X38304761Y-88943427D02*
X38399999Y-88895808D01*
X38399999Y-88895808D02*
X38542856Y-88895808D01*
X38542856Y-88895808D02*
X38638094Y-88943427D01*
X38971428Y-88895808D02*
X39352380Y-88895808D01*
X39114285Y-88562475D02*
X39114285Y-89419617D01*
X39114285Y-89419617D02*
X39161904Y-89514856D01*
X39161904Y-89514856D02*
X39257142Y-89562475D01*
X39257142Y-89562475D02*
X39352380Y-89562475D01*
X39685714Y-89562475D02*
X39685714Y-88895808D01*
X39685714Y-88562475D02*
X39638095Y-88610094D01*
X39638095Y-88610094D02*
X39685714Y-88657713D01*
X39685714Y-88657713D02*
X39733333Y-88610094D01*
X39733333Y-88610094D02*
X39685714Y-88562475D01*
X39685714Y-88562475D02*
X39685714Y-88657713D01*
X40590475Y-89514856D02*
X40495237Y-89562475D01*
X40495237Y-89562475D02*
X40304761Y-89562475D01*
X40304761Y-89562475D02*
X40209523Y-89514856D01*
X40209523Y-89514856D02*
X40161904Y-89467236D01*
X40161904Y-89467236D02*
X40114285Y-89371998D01*
X40114285Y-89371998D02*
X40114285Y-89086284D01*
X40114285Y-89086284D02*
X40161904Y-88991046D01*
X40161904Y-88991046D02*
X40209523Y-88943427D01*
X40209523Y-88943427D02*
X40304761Y-88895808D01*
X40304761Y-88895808D02*
X40495237Y-88895808D01*
X40495237Y-88895808D02*
X40590475Y-88943427D01*
X41733332Y-88514856D02*
X40876190Y-89800570D01*
X42066666Y-89038665D02*
X42399999Y-89038665D01*
X42542856Y-89562475D02*
X42066666Y-89562475D01*
X42066666Y-89562475D02*
X42066666Y-88562475D01*
X42066666Y-88562475D02*
X42542856Y-88562475D01*
X43114285Y-89562475D02*
X43019047Y-89514856D01*
X43019047Y-89514856D02*
X42971428Y-89419617D01*
X42971428Y-89419617D02*
X42971428Y-88562475D01*
X43876190Y-89514856D02*
X43780952Y-89562475D01*
X43780952Y-89562475D02*
X43590476Y-89562475D01*
X43590476Y-89562475D02*
X43495238Y-89514856D01*
X43495238Y-89514856D02*
X43447619Y-89419617D01*
X43447619Y-89419617D02*
X43447619Y-89038665D01*
X43447619Y-89038665D02*
X43495238Y-88943427D01*
X43495238Y-88943427D02*
X43590476Y-88895808D01*
X43590476Y-88895808D02*
X43780952Y-88895808D01*
X43780952Y-88895808D02*
X43876190Y-88943427D01*
X43876190Y-88943427D02*
X43923809Y-89038665D01*
X43923809Y-89038665D02*
X43923809Y-89133903D01*
X43923809Y-89133903D02*
X43447619Y-89229141D01*
X44780952Y-89514856D02*
X44685714Y-89562475D01*
X44685714Y-89562475D02*
X44495238Y-89562475D01*
X44495238Y-89562475D02*
X44400000Y-89514856D01*
X44400000Y-89514856D02*
X44352381Y-89467236D01*
X44352381Y-89467236D02*
X44304762Y-89371998D01*
X44304762Y-89371998D02*
X44304762Y-89086284D01*
X44304762Y-89086284D02*
X44352381Y-88991046D01*
X44352381Y-88991046D02*
X44400000Y-88943427D01*
X44400000Y-88943427D02*
X44495238Y-88895808D01*
X44495238Y-88895808D02*
X44685714Y-88895808D01*
X44685714Y-88895808D02*
X44780952Y-88943427D01*
X45066667Y-88895808D02*
X45447619Y-88895808D01*
X45209524Y-88562475D02*
X45209524Y-89419617D01*
X45209524Y-89419617D02*
X45257143Y-89514856D01*
X45257143Y-89514856D02*
X45352381Y-89562475D01*
X45352381Y-89562475D02*
X45447619Y-89562475D01*
X45780953Y-89562475D02*
X45780953Y-88895808D01*
X45780953Y-89086284D02*
X45828572Y-88991046D01*
X45828572Y-88991046D02*
X45876191Y-88943427D01*
X45876191Y-88943427D02*
X45971429Y-88895808D01*
X45971429Y-88895808D02*
X46066667Y-88895808D01*
X46400001Y-89562475D02*
X46400001Y-88895808D01*
X46400001Y-88562475D02*
X46352382Y-88610094D01*
X46352382Y-88610094D02*
X46400001Y-88657713D01*
X46400001Y-88657713D02*
X46447620Y-88610094D01*
X46447620Y-88610094D02*
X46400001Y-88562475D01*
X46400001Y-88562475D02*
X46400001Y-88657713D01*
X47304762Y-89514856D02*
X47209524Y-89562475D01*
X47209524Y-89562475D02*
X47019048Y-89562475D01*
X47019048Y-89562475D02*
X46923810Y-89514856D01*
X46923810Y-89514856D02*
X46876191Y-89467236D01*
X46876191Y-89467236D02*
X46828572Y-89371998D01*
X46828572Y-89371998D02*
X46828572Y-89086284D01*
X46828572Y-89086284D02*
X46876191Y-88991046D01*
X46876191Y-88991046D02*
X46923810Y-88943427D01*
X46923810Y-88943427D02*
X47019048Y-88895808D01*
X47019048Y-88895808D02*
X47209524Y-88895808D01*
X47209524Y-88895808D02*
X47304762Y-88943427D01*
X49019048Y-88610094D02*
X48923810Y-88562475D01*
X48923810Y-88562475D02*
X48780953Y-88562475D01*
X48780953Y-88562475D02*
X48638096Y-88610094D01*
X48638096Y-88610094D02*
X48542858Y-88705332D01*
X48542858Y-88705332D02*
X48495239Y-88800570D01*
X48495239Y-88800570D02*
X48447620Y-88991046D01*
X48447620Y-88991046D02*
X48447620Y-89133903D01*
X48447620Y-89133903D02*
X48495239Y-89324379D01*
X48495239Y-89324379D02*
X48542858Y-89419617D01*
X48542858Y-89419617D02*
X48638096Y-89514856D01*
X48638096Y-89514856D02*
X48780953Y-89562475D01*
X48780953Y-89562475D02*
X48876191Y-89562475D01*
X48876191Y-89562475D02*
X49019048Y-89514856D01*
X49019048Y-89514856D02*
X49066667Y-89467236D01*
X49066667Y-89467236D02*
X49066667Y-89133903D01*
X49066667Y-89133903D02*
X48876191Y-89133903D01*
X49923810Y-88895808D02*
X49923810Y-89562475D01*
X49495239Y-88895808D02*
X49495239Y-89419617D01*
X49495239Y-89419617D02*
X49542858Y-89514856D01*
X49542858Y-89514856D02*
X49638096Y-89562475D01*
X49638096Y-89562475D02*
X49780953Y-89562475D01*
X49780953Y-89562475D02*
X49876191Y-89514856D01*
X49876191Y-89514856D02*
X49923810Y-89467236D01*
X50400001Y-89562475D02*
X50400001Y-88895808D01*
X50400001Y-88562475D02*
X50352382Y-88610094D01*
X50352382Y-88610094D02*
X50400001Y-88657713D01*
X50400001Y-88657713D02*
X50447620Y-88610094D01*
X50447620Y-88610094D02*
X50400001Y-88562475D01*
X50400001Y-88562475D02*
X50400001Y-88657713D01*
X50733334Y-88895808D02*
X51114286Y-88895808D01*
X50876191Y-88562475D02*
X50876191Y-89419617D01*
X50876191Y-89419617D02*
X50923810Y-89514856D01*
X50923810Y-89514856D02*
X51019048Y-89562475D01*
X51019048Y-89562475D02*
X51114286Y-89562475D01*
X51876191Y-89562475D02*
X51876191Y-89038665D01*
X51876191Y-89038665D02*
X51828572Y-88943427D01*
X51828572Y-88943427D02*
X51733334Y-88895808D01*
X51733334Y-88895808D02*
X51542858Y-88895808D01*
X51542858Y-88895808D02*
X51447620Y-88943427D01*
X51876191Y-89514856D02*
X51780953Y-89562475D01*
X51780953Y-89562475D02*
X51542858Y-89562475D01*
X51542858Y-89562475D02*
X51447620Y-89514856D01*
X51447620Y-89514856D02*
X51400001Y-89419617D01*
X51400001Y-89419617D02*
X51400001Y-89324379D01*
X51400001Y-89324379D02*
X51447620Y-89229141D01*
X51447620Y-89229141D02*
X51542858Y-89181522D01*
X51542858Y-89181522D02*
X51780953Y-89181522D01*
X51780953Y-89181522D02*
X51876191Y-89133903D01*
X52352382Y-89562475D02*
X52352382Y-88895808D01*
X52352382Y-89086284D02*
X52400001Y-88991046D01*
X52400001Y-88991046D02*
X52447620Y-88943427D01*
X52447620Y-88943427D02*
X52542858Y-88895808D01*
X52542858Y-88895808D02*
X52638096Y-88895808D01*
X53733335Y-89562475D02*
X53733335Y-88562475D01*
X53733335Y-88562475D02*
X54066668Y-89276760D01*
X54066668Y-89276760D02*
X54400001Y-88562475D01*
X54400001Y-88562475D02*
X54400001Y-89562475D01*
X54876192Y-89562475D02*
X54876192Y-88895808D01*
X54876192Y-88562475D02*
X54828573Y-88610094D01*
X54828573Y-88610094D02*
X54876192Y-88657713D01*
X54876192Y-88657713D02*
X54923811Y-88610094D01*
X54923811Y-88610094D02*
X54876192Y-88562475D01*
X54876192Y-88562475D02*
X54876192Y-88657713D01*
X55257144Y-89562475D02*
X55780953Y-88895808D01*
X55257144Y-88895808D02*
X55780953Y-89562475D01*
X56542858Y-89514856D02*
X56447620Y-89562475D01*
X56447620Y-89562475D02*
X56257144Y-89562475D01*
X56257144Y-89562475D02*
X56161906Y-89514856D01*
X56161906Y-89514856D02*
X56114287Y-89419617D01*
X56114287Y-89419617D02*
X56114287Y-89038665D01*
X56114287Y-89038665D02*
X56161906Y-88943427D01*
X56161906Y-88943427D02*
X56257144Y-88895808D01*
X56257144Y-88895808D02*
X56447620Y-88895808D01*
X56447620Y-88895808D02*
X56542858Y-88943427D01*
X56542858Y-88943427D02*
X56590477Y-89038665D01*
X56590477Y-89038665D02*
X56590477Y-89133903D01*
X56590477Y-89133903D02*
X56114287Y-89229141D01*
X57019049Y-89562475D02*
X57019049Y-88895808D01*
X57019049Y-89086284D02*
X57066668Y-88991046D01*
X57066668Y-88991046D02*
X57114287Y-88943427D01*
X57114287Y-88943427D02*
X57209525Y-88895808D01*
X57209525Y-88895808D02*
X57304763Y-88895808D01*
X30590475Y-90172419D02*
X30923808Y-91172419D01*
X30923808Y-91172419D02*
X31257141Y-90172419D01*
X31780951Y-90172419D02*
X31876189Y-90172419D01*
X31876189Y-90172419D02*
X31971427Y-90220038D01*
X31971427Y-90220038D02*
X32019046Y-90267657D01*
X32019046Y-90267657D02*
X32066665Y-90362895D01*
X32066665Y-90362895D02*
X32114284Y-90553371D01*
X32114284Y-90553371D02*
X32114284Y-90791466D01*
X32114284Y-90791466D02*
X32066665Y-90981942D01*
X32066665Y-90981942D02*
X32019046Y-91077180D01*
X32019046Y-91077180D02*
X31971427Y-91124800D01*
X31971427Y-91124800D02*
X31876189Y-91172419D01*
X31876189Y-91172419D02*
X31780951Y-91172419D01*
X31780951Y-91172419D02*
X31685713Y-91124800D01*
X31685713Y-91124800D02*
X31638094Y-91077180D01*
X31638094Y-91077180D02*
X31590475Y-90981942D01*
X31590475Y-90981942D02*
X31542856Y-90791466D01*
X31542856Y-90791466D02*
X31542856Y-90553371D01*
X31542856Y-90553371D02*
X31590475Y-90362895D01*
X31590475Y-90362895D02*
X31638094Y-90267657D01*
X31638094Y-90267657D02*
X31685713Y-90220038D01*
X31685713Y-90220038D02*
X31780951Y-90172419D01*
X32542856Y-91077180D02*
X32590475Y-91124800D01*
X32590475Y-91124800D02*
X32542856Y-91172419D01*
X32542856Y-91172419D02*
X32495237Y-91124800D01*
X32495237Y-91124800D02*
X32542856Y-91077180D01*
X32542856Y-91077180D02*
X32542856Y-91172419D01*
X32923808Y-90172419D02*
X33542855Y-90172419D01*
X33542855Y-90172419D02*
X33209522Y-90553371D01*
X33209522Y-90553371D02*
X33352379Y-90553371D01*
X33352379Y-90553371D02*
X33447617Y-90600990D01*
X33447617Y-90600990D02*
X33495236Y-90648609D01*
X33495236Y-90648609D02*
X33542855Y-90743847D01*
X33542855Y-90743847D02*
X33542855Y-90981942D01*
X33542855Y-90981942D02*
X33495236Y-91077180D01*
X33495236Y-91077180D02*
X33447617Y-91124800D01*
X33447617Y-91124800D02*
X33352379Y-91172419D01*
X33352379Y-91172419D02*
X33066665Y-91172419D01*
X33066665Y-91172419D02*
X32971427Y-91124800D01*
X32971427Y-91124800D02*
X32923808Y-91077180D01*
X34685713Y-90886704D02*
X35161903Y-90886704D01*
X34590475Y-91172419D02*
X34923808Y-90172419D01*
X34923808Y-90172419D02*
X35257141Y-91172419D01*
X35590475Y-90505752D02*
X35590475Y-91172419D01*
X35590475Y-90600990D02*
X35638094Y-90553371D01*
X35638094Y-90553371D02*
X35733332Y-90505752D01*
X35733332Y-90505752D02*
X35876189Y-90505752D01*
X35876189Y-90505752D02*
X35971427Y-90553371D01*
X35971427Y-90553371D02*
X36019046Y-90648609D01*
X36019046Y-90648609D02*
X36019046Y-91172419D01*
X36923808Y-91172419D02*
X36923808Y-90172419D01*
X36923808Y-91124800D02*
X36828570Y-91172419D01*
X36828570Y-91172419D02*
X36638094Y-91172419D01*
X36638094Y-91172419D02*
X36542856Y-91124800D01*
X36542856Y-91124800D02*
X36495237Y-91077180D01*
X36495237Y-91077180D02*
X36447618Y-90981942D01*
X36447618Y-90981942D02*
X36447618Y-90696228D01*
X36447618Y-90696228D02*
X36495237Y-90600990D01*
X36495237Y-90600990D02*
X36542856Y-90553371D01*
X36542856Y-90553371D02*
X36638094Y-90505752D01*
X36638094Y-90505752D02*
X36828570Y-90505752D01*
X36828570Y-90505752D02*
X36923808Y-90553371D01*
X37399999Y-91172419D02*
X37399999Y-90505752D01*
X37399999Y-90696228D02*
X37447618Y-90600990D01*
X37447618Y-90600990D02*
X37495237Y-90553371D01*
X37495237Y-90553371D02*
X37590475Y-90505752D01*
X37590475Y-90505752D02*
X37685713Y-90505752D01*
X38399999Y-91124800D02*
X38304761Y-91172419D01*
X38304761Y-91172419D02*
X38114285Y-91172419D01*
X38114285Y-91172419D02*
X38019047Y-91124800D01*
X38019047Y-91124800D02*
X37971428Y-91029561D01*
X37971428Y-91029561D02*
X37971428Y-90648609D01*
X37971428Y-90648609D02*
X38019047Y-90553371D01*
X38019047Y-90553371D02*
X38114285Y-90505752D01*
X38114285Y-90505752D02*
X38304761Y-90505752D01*
X38304761Y-90505752D02*
X38399999Y-90553371D01*
X38399999Y-90553371D02*
X38447618Y-90648609D01*
X38447618Y-90648609D02*
X38447618Y-90743847D01*
X38447618Y-90743847D02*
X37971428Y-90839085D01*
X38780952Y-90505752D02*
X38971428Y-91172419D01*
X38971428Y-91172419D02*
X39161904Y-90696228D01*
X39161904Y-90696228D02*
X39352380Y-91172419D01*
X39352380Y-91172419D02*
X39542856Y-90505752D01*
X41257142Y-91077180D02*
X41209523Y-91124800D01*
X41209523Y-91124800D02*
X41066666Y-91172419D01*
X41066666Y-91172419D02*
X40971428Y-91172419D01*
X40971428Y-91172419D02*
X40828571Y-91124800D01*
X40828571Y-91124800D02*
X40733333Y-91029561D01*
X40733333Y-91029561D02*
X40685714Y-90934323D01*
X40685714Y-90934323D02*
X40638095Y-90743847D01*
X40638095Y-90743847D02*
X40638095Y-90600990D01*
X40638095Y-90600990D02*
X40685714Y-90410514D01*
X40685714Y-90410514D02*
X40733333Y-90315276D01*
X40733333Y-90315276D02*
X40828571Y-90220038D01*
X40828571Y-90220038D02*
X40971428Y-90172419D01*
X40971428Y-90172419D02*
X41066666Y-90172419D01*
X41066666Y-90172419D02*
X41209523Y-90220038D01*
X41209523Y-90220038D02*
X41257142Y-90267657D01*
X41685714Y-91077180D02*
X41733333Y-91124800D01*
X41733333Y-91124800D02*
X41685714Y-91172419D01*
X41685714Y-91172419D02*
X41638095Y-91124800D01*
X41638095Y-91124800D02*
X41685714Y-91077180D01*
X41685714Y-91077180D02*
X41685714Y-91172419D01*
X42733332Y-91172419D02*
X42399999Y-90696228D01*
X42161904Y-91172419D02*
X42161904Y-90172419D01*
X42161904Y-90172419D02*
X42542856Y-90172419D01*
X42542856Y-90172419D02*
X42638094Y-90220038D01*
X42638094Y-90220038D02*
X42685713Y-90267657D01*
X42685713Y-90267657D02*
X42733332Y-90362895D01*
X42733332Y-90362895D02*
X42733332Y-90505752D01*
X42733332Y-90505752D02*
X42685713Y-90600990D01*
X42685713Y-90600990D02*
X42638094Y-90648609D01*
X42638094Y-90648609D02*
X42542856Y-90696228D01*
X42542856Y-90696228D02*
X42161904Y-90696228D01*
X43161904Y-91077180D02*
X43209523Y-91124800D01*
X43209523Y-91124800D02*
X43161904Y-91172419D01*
X43161904Y-91172419D02*
X43114285Y-91124800D01*
X43114285Y-91124800D02*
X43161904Y-91077180D01*
X43161904Y-91077180D02*
X43161904Y-91172419D01*
X44399999Y-91172419D02*
X44399999Y-90172419D01*
X44399999Y-90172419D02*
X44733332Y-90886704D01*
X44733332Y-90886704D02*
X45066665Y-90172419D01*
X45066665Y-90172419D02*
X45066665Y-91172419D01*
X45971427Y-91172419D02*
X45971427Y-90648609D01*
X45971427Y-90648609D02*
X45923808Y-90553371D01*
X45923808Y-90553371D02*
X45828570Y-90505752D01*
X45828570Y-90505752D02*
X45638094Y-90505752D01*
X45638094Y-90505752D02*
X45542856Y-90553371D01*
X45971427Y-91124800D02*
X45876189Y-91172419D01*
X45876189Y-91172419D02*
X45638094Y-91172419D01*
X45638094Y-91172419D02*
X45542856Y-91124800D01*
X45542856Y-91124800D02*
X45495237Y-91029561D01*
X45495237Y-91029561D02*
X45495237Y-90934323D01*
X45495237Y-90934323D02*
X45542856Y-90839085D01*
X45542856Y-90839085D02*
X45638094Y-90791466D01*
X45638094Y-90791466D02*
X45876189Y-90791466D01*
X45876189Y-90791466D02*
X45971427Y-90743847D01*
X46447618Y-91172419D02*
X46447618Y-90505752D01*
X46447618Y-90696228D02*
X46495237Y-90600990D01*
X46495237Y-90600990D02*
X46542856Y-90553371D01*
X46542856Y-90553371D02*
X46638094Y-90505752D01*
X46638094Y-90505752D02*
X46733332Y-90505752D01*
X46923809Y-90505752D02*
X47304761Y-90505752D01*
X47066666Y-90172419D02*
X47066666Y-91029561D01*
X47066666Y-91029561D02*
X47114285Y-91124800D01*
X47114285Y-91124800D02*
X47209523Y-91172419D01*
X47209523Y-91172419D02*
X47304761Y-91172419D01*
X47638095Y-91172419D02*
X47638095Y-90505752D01*
X47638095Y-90172419D02*
X47590476Y-90220038D01*
X47590476Y-90220038D02*
X47638095Y-90267657D01*
X47638095Y-90267657D02*
X47685714Y-90220038D01*
X47685714Y-90220038D02*
X47638095Y-90172419D01*
X47638095Y-90172419D02*
X47638095Y-90267657D01*
X48114285Y-90505752D02*
X48114285Y-91172419D01*
X48114285Y-90600990D02*
X48161904Y-90553371D01*
X48161904Y-90553371D02*
X48257142Y-90505752D01*
X48257142Y-90505752D02*
X48399999Y-90505752D01*
X48399999Y-90505752D02*
X48495237Y-90553371D01*
X48495237Y-90553371D02*
X48542856Y-90648609D01*
X48542856Y-90648609D02*
X48542856Y-91172419D01*
X50066666Y-91553371D02*
X50019047Y-91505752D01*
X50019047Y-91505752D02*
X49923809Y-91362895D01*
X49923809Y-91362895D02*
X49876190Y-91267657D01*
X49876190Y-91267657D02*
X49828571Y-91124800D01*
X49828571Y-91124800D02*
X49780952Y-90886704D01*
X49780952Y-90886704D02*
X49780952Y-90696228D01*
X49780952Y-90696228D02*
X49828571Y-90458133D01*
X49828571Y-90458133D02*
X49876190Y-90315276D01*
X49876190Y-90315276D02*
X49923809Y-90220038D01*
X49923809Y-90220038D02*
X50019047Y-90077180D01*
X50019047Y-90077180D02*
X50066666Y-90029561D01*
X50876190Y-91124800D02*
X50780952Y-91172419D01*
X50780952Y-91172419D02*
X50590476Y-91172419D01*
X50590476Y-91172419D02*
X50495238Y-91124800D01*
X50495238Y-91124800D02*
X50447619Y-91077180D01*
X50447619Y-91077180D02*
X50400000Y-90981942D01*
X50400000Y-90981942D02*
X50400000Y-90696228D01*
X50400000Y-90696228D02*
X50447619Y-90600990D01*
X50447619Y-90600990D02*
X50495238Y-90553371D01*
X50495238Y-90553371D02*
X50590476Y-90505752D01*
X50590476Y-90505752D02*
X50780952Y-90505752D01*
X50780952Y-90505752D02*
X50876190Y-90553371D01*
X51209524Y-91553371D02*
X51257143Y-91505752D01*
X51257143Y-91505752D02*
X51352381Y-91362895D01*
X51352381Y-91362895D02*
X51400000Y-91267657D01*
X51400000Y-91267657D02*
X51447619Y-91124800D01*
X51447619Y-91124800D02*
X51495238Y-90886704D01*
X51495238Y-90886704D02*
X51495238Y-90696228D01*
X51495238Y-90696228D02*
X51447619Y-90458133D01*
X51447619Y-90458133D02*
X51400000Y-90315276D01*
X51400000Y-90315276D02*
X51352381Y-90220038D01*
X51352381Y-90220038D02*
X51257143Y-90077180D01*
X51257143Y-90077180D02*
X51209524Y-90029561D01*
X52685715Y-90267657D02*
X52733334Y-90220038D01*
X52733334Y-90220038D02*
X52828572Y-90172419D01*
X52828572Y-90172419D02*
X53066667Y-90172419D01*
X53066667Y-90172419D02*
X53161905Y-90220038D01*
X53161905Y-90220038D02*
X53209524Y-90267657D01*
X53209524Y-90267657D02*
X53257143Y-90362895D01*
X53257143Y-90362895D02*
X53257143Y-90458133D01*
X53257143Y-90458133D02*
X53209524Y-90600990D01*
X53209524Y-90600990D02*
X52638096Y-91172419D01*
X52638096Y-91172419D02*
X53257143Y-91172419D01*
X53876191Y-90172419D02*
X53971429Y-90172419D01*
X53971429Y-90172419D02*
X54066667Y-90220038D01*
X54066667Y-90220038D02*
X54114286Y-90267657D01*
X54114286Y-90267657D02*
X54161905Y-90362895D01*
X54161905Y-90362895D02*
X54209524Y-90553371D01*
X54209524Y-90553371D02*
X54209524Y-90791466D01*
X54209524Y-90791466D02*
X54161905Y-90981942D01*
X54161905Y-90981942D02*
X54114286Y-91077180D01*
X54114286Y-91077180D02*
X54066667Y-91124800D01*
X54066667Y-91124800D02*
X53971429Y-91172419D01*
X53971429Y-91172419D02*
X53876191Y-91172419D01*
X53876191Y-91172419D02*
X53780953Y-91124800D01*
X53780953Y-91124800D02*
X53733334Y-91077180D01*
X53733334Y-91077180D02*
X53685715Y-90981942D01*
X53685715Y-90981942D02*
X53638096Y-90791466D01*
X53638096Y-90791466D02*
X53638096Y-90553371D01*
X53638096Y-90553371D02*
X53685715Y-90362895D01*
X53685715Y-90362895D02*
X53733334Y-90267657D01*
X53733334Y-90267657D02*
X53780953Y-90220038D01*
X53780953Y-90220038D02*
X53876191Y-90172419D01*
X54590477Y-90267657D02*
X54638096Y-90220038D01*
X54638096Y-90220038D02*
X54733334Y-90172419D01*
X54733334Y-90172419D02*
X54971429Y-90172419D01*
X54971429Y-90172419D02*
X55066667Y-90220038D01*
X55066667Y-90220038D02*
X55114286Y-90267657D01*
X55114286Y-90267657D02*
X55161905Y-90362895D01*
X55161905Y-90362895D02*
X55161905Y-90458133D01*
X55161905Y-90458133D02*
X55114286Y-90600990D01*
X55114286Y-90600990D02*
X54542858Y-91172419D01*
X54542858Y-91172419D02*
X55161905Y-91172419D01*
X56066667Y-90172419D02*
X55590477Y-90172419D01*
X55590477Y-90172419D02*
X55542858Y-90648609D01*
X55542858Y-90648609D02*
X55590477Y-90600990D01*
X55590477Y-90600990D02*
X55685715Y-90553371D01*
X55685715Y-90553371D02*
X55923810Y-90553371D01*
X55923810Y-90553371D02*
X56019048Y-90600990D01*
X56019048Y-90600990D02*
X56066667Y-90648609D01*
X56066667Y-90648609D02*
X56114286Y-90743847D01*
X56114286Y-90743847D02*
X56114286Y-90981942D01*
X56114286Y-90981942D02*
X56066667Y-91077180D01*
X56066667Y-91077180D02*
X56019048Y-91124800D01*
X56019048Y-91124800D02*
X55923810Y-91172419D01*
X55923810Y-91172419D02*
X55685715Y-91172419D01*
X55685715Y-91172419D02*
X55590477Y-91124800D01*
X55590477Y-91124800D02*
X55542858Y-91077180D01*
X57848609Y-68896115D02*
X57848609Y-68562782D01*
X58372419Y-68419925D02*
X58372419Y-68896115D01*
X58372419Y-68896115D02*
X57372419Y-68896115D01*
X57372419Y-68896115D02*
X57372419Y-68419925D01*
X58372419Y-67848496D02*
X58324800Y-67943734D01*
X58324800Y-67943734D02*
X58229561Y-67991353D01*
X58229561Y-67991353D02*
X57372419Y-67991353D01*
X58277180Y-67467543D02*
X58324800Y-67419924D01*
X58324800Y-67419924D02*
X58372419Y-67467543D01*
X58372419Y-67467543D02*
X58324800Y-67515162D01*
X58324800Y-67515162D02*
X58277180Y-67467543D01*
X58277180Y-67467543D02*
X58372419Y-67467543D01*
X57753371Y-67467543D02*
X57800990Y-67419924D01*
X57800990Y-67419924D02*
X57848609Y-67467543D01*
X57848609Y-67467543D02*
X57800990Y-67515162D01*
X57800990Y-67515162D02*
X57753371Y-67467543D01*
X57753371Y-67467543D02*
X57848609Y-67467543D01*
X58372419Y-66229448D02*
X57372419Y-66229448D01*
X57848609Y-66229448D02*
X57848609Y-65658020D01*
X58372419Y-65658020D02*
X57372419Y-65658020D01*
X57372419Y-64515162D02*
X58372419Y-64277067D01*
X58372419Y-64277067D02*
X57658133Y-64086591D01*
X57658133Y-64086591D02*
X58372419Y-63896115D01*
X58372419Y-63896115D02*
X57372419Y-63658020D01*
X58372419Y-62038972D02*
X58372419Y-62515162D01*
X58372419Y-62515162D02*
X57372419Y-62515162D01*
D11*
X39293482Y-52567219D02*
X38722054Y-52567219D01*
X39007768Y-52567219D02*
X39007768Y-51567219D01*
X39007768Y-51567219D02*
X38912530Y-51710076D01*
X38912530Y-51710076D02*
X38817292Y-51805314D01*
X38817292Y-51805314D02*
X38722054Y-51852933D01*
X39912530Y-51567219D02*
X40007768Y-51567219D01*
X40007768Y-51567219D02*
X40103006Y-51614838D01*
X40103006Y-51614838D02*
X40150625Y-51662457D01*
X40150625Y-51662457D02*
X40198244Y-51757695D01*
X40198244Y-51757695D02*
X40245863Y-51948171D01*
X40245863Y-51948171D02*
X40245863Y-52186266D01*
X40245863Y-52186266D02*
X40198244Y-52376742D01*
X40198244Y-52376742D02*
X40150625Y-52471980D01*
X40150625Y-52471980D02*
X40103006Y-52519600D01*
X40103006Y-52519600D02*
X40007768Y-52567219D01*
X40007768Y-52567219D02*
X39912530Y-52567219D01*
X39912530Y-52567219D02*
X39817292Y-52519600D01*
X39817292Y-52519600D02*
X39769673Y-52471980D01*
X39769673Y-52471980D02*
X39722054Y-52376742D01*
X39722054Y-52376742D02*
X39674435Y-52186266D01*
X39674435Y-52186266D02*
X39674435Y-51948171D01*
X39674435Y-51948171D02*
X39722054Y-51757695D01*
X39722054Y-51757695D02*
X39769673Y-51662457D01*
X39769673Y-51662457D02*
X39817292Y-51614838D01*
X39817292Y-51614838D02*
X39912530Y-51567219D01*
X40674435Y-52567219D02*
X40674435Y-51567219D01*
X40674435Y-51567219D02*
X41007768Y-52281504D01*
X41007768Y-52281504D02*
X41341101Y-51567219D01*
X41341101Y-51567219D02*
X41341101Y-52567219D01*
D12*
X22556704Y-68703734D02*
X22556704Y-68227544D01*
X22842419Y-68798972D02*
X21842419Y-68465639D01*
X21842419Y-68465639D02*
X22842419Y-68132306D01*
X22747180Y-67798972D02*
X22794800Y-67751353D01*
X22794800Y-67751353D02*
X22842419Y-67798972D01*
X22842419Y-67798972D02*
X22794800Y-67846591D01*
X22794800Y-67846591D02*
X22747180Y-67798972D01*
X22747180Y-67798972D02*
X22842419Y-67798972D01*
X22223371Y-67798972D02*
X22270990Y-67751353D01*
X22270990Y-67751353D02*
X22318609Y-67798972D01*
X22318609Y-67798972D02*
X22270990Y-67846591D01*
X22270990Y-67846591D02*
X22223371Y-67798972D01*
X22223371Y-67798972D02*
X22318609Y-67798972D01*
X22842419Y-66084687D02*
X22842419Y-66560877D01*
X22842419Y-66560877D02*
X21842419Y-66560877D01*
X21842419Y-65084686D02*
X22842419Y-64846591D01*
X22842419Y-64846591D02*
X22128133Y-64656115D01*
X22128133Y-64656115D02*
X22842419Y-64465639D01*
X22842419Y-64465639D02*
X21842419Y-64227544D01*
X22842419Y-63084686D02*
X21842419Y-63084686D01*
X22318609Y-63084686D02*
X22318609Y-62513258D01*
X22842419Y-62513258D02*
X21842419Y-62513258D01*
D13*
X64259580Y-50511554D02*
X64307200Y-50559173D01*
X64307200Y-50559173D02*
X64354819Y-50702030D01*
X64354819Y-50702030D02*
X64354819Y-50797268D01*
X64354819Y-50797268D02*
X64307200Y-50940125D01*
X64307200Y-50940125D02*
X64211961Y-51035363D01*
X64211961Y-51035363D02*
X64116723Y-51082982D01*
X64116723Y-51082982D02*
X63926247Y-51130601D01*
X63926247Y-51130601D02*
X63783390Y-51130601D01*
X63783390Y-51130601D02*
X63592914Y-51082982D01*
X63592914Y-51082982D02*
X63497676Y-51035363D01*
X63497676Y-51035363D02*
X63402438Y-50940125D01*
X63402438Y-50940125D02*
X63354819Y-50797268D01*
X63354819Y-50797268D02*
X63354819Y-50702030D01*
X63354819Y-50702030D02*
X63402438Y-50559173D01*
X63402438Y-50559173D02*
X63450057Y-50511554D01*
X63354819Y-50178220D02*
X63354819Y-49511554D01*
X63354819Y-49511554D02*
X64354819Y-49940125D01*
X31954819Y-62746666D02*
X31478628Y-63079999D01*
X31954819Y-63318094D02*
X30954819Y-63318094D01*
X30954819Y-63318094D02*
X30954819Y-62937142D01*
X30954819Y-62937142D02*
X31002438Y-62841904D01*
X31002438Y-62841904D02*
X31050057Y-62794285D01*
X31050057Y-62794285D02*
X31145295Y-62746666D01*
X31145295Y-62746666D02*
X31288152Y-62746666D01*
X31288152Y-62746666D02*
X31383390Y-62794285D01*
X31383390Y-62794285D02*
X31431009Y-62841904D01*
X31431009Y-62841904D02*
X31478628Y-62937142D01*
X31478628Y-62937142D02*
X31478628Y-63318094D01*
X30954819Y-61841904D02*
X30954819Y-62318094D01*
X30954819Y-62318094D02*
X31431009Y-62365713D01*
X31431009Y-62365713D02*
X31383390Y-62318094D01*
X31383390Y-62318094D02*
X31335771Y-62222856D01*
X31335771Y-62222856D02*
X31335771Y-61984761D01*
X31335771Y-61984761D02*
X31383390Y-61889523D01*
X31383390Y-61889523D02*
X31431009Y-61841904D01*
X31431009Y-61841904D02*
X31526247Y-61794285D01*
X31526247Y-61794285D02*
X31764342Y-61794285D01*
X31764342Y-61794285D02*
X31859580Y-61841904D01*
X31859580Y-61841904D02*
X31907200Y-61889523D01*
X31907200Y-61889523D02*
X31954819Y-61984761D01*
X31954819Y-61984761D02*
X31954819Y-62222856D01*
X31954819Y-62222856D02*
X31907200Y-62318094D01*
X31907200Y-62318094D02*
X31859580Y-62365713D01*
X42166666Y-83484819D02*
X42166666Y-84199104D01*
X42166666Y-84199104D02*
X42119047Y-84341961D01*
X42119047Y-84341961D02*
X42023809Y-84437200D01*
X42023809Y-84437200D02*
X41880952Y-84484819D01*
X41880952Y-84484819D02*
X41785714Y-84484819D01*
X43071428Y-83484819D02*
X42880952Y-83484819D01*
X42880952Y-83484819D02*
X42785714Y-83532438D01*
X42785714Y-83532438D02*
X42738095Y-83580057D01*
X42738095Y-83580057D02*
X42642857Y-83722914D01*
X42642857Y-83722914D02*
X42595238Y-83913390D01*
X42595238Y-83913390D02*
X42595238Y-84294342D01*
X42595238Y-84294342D02*
X42642857Y-84389580D01*
X42642857Y-84389580D02*
X42690476Y-84437200D01*
X42690476Y-84437200D02*
X42785714Y-84484819D01*
X42785714Y-84484819D02*
X42976190Y-84484819D01*
X42976190Y-84484819D02*
X43071428Y-84437200D01*
X43071428Y-84437200D02*
X43119047Y-84389580D01*
X43119047Y-84389580D02*
X43166666Y-84294342D01*
X43166666Y-84294342D02*
X43166666Y-84056247D01*
X43166666Y-84056247D02*
X43119047Y-83961009D01*
X43119047Y-83961009D02*
X43071428Y-83913390D01*
X43071428Y-83913390D02*
X42976190Y-83865771D01*
X42976190Y-83865771D02*
X42785714Y-83865771D01*
X42785714Y-83865771D02*
X42690476Y-83913390D01*
X42690476Y-83913390D02*
X42642857Y-83961009D01*
X42642857Y-83961009D02*
X42595238Y-84056247D01*
X40357142Y-75454819D02*
X40023809Y-74978628D01*
X39785714Y-75454819D02*
X39785714Y-74454819D01*
X39785714Y-74454819D02*
X40166666Y-74454819D01*
X40166666Y-74454819D02*
X40261904Y-74502438D01*
X40261904Y-74502438D02*
X40309523Y-74550057D01*
X40309523Y-74550057D02*
X40357142Y-74645295D01*
X40357142Y-74645295D02*
X40357142Y-74788152D01*
X40357142Y-74788152D02*
X40309523Y-74883390D01*
X40309523Y-74883390D02*
X40261904Y-74931009D01*
X40261904Y-74931009D02*
X40166666Y-74978628D01*
X40166666Y-74978628D02*
X39785714Y-74978628D01*
X41309523Y-75454819D02*
X40738095Y-75454819D01*
X41023809Y-75454819D02*
X41023809Y-74454819D01*
X41023809Y-74454819D02*
X40928571Y-74597676D01*
X40928571Y-74597676D02*
X40833333Y-74692914D01*
X40833333Y-74692914D02*
X40738095Y-74740533D01*
X41690476Y-74550057D02*
X41738095Y-74502438D01*
X41738095Y-74502438D02*
X41833333Y-74454819D01*
X41833333Y-74454819D02*
X42071428Y-74454819D01*
X42071428Y-74454819D02*
X42166666Y-74502438D01*
X42166666Y-74502438D02*
X42214285Y-74550057D01*
X42214285Y-74550057D02*
X42261904Y-74645295D01*
X42261904Y-74645295D02*
X42261904Y-74740533D01*
X42261904Y-74740533D02*
X42214285Y-74883390D01*
X42214285Y-74883390D02*
X41642857Y-75454819D01*
X41642857Y-75454819D02*
X42261904Y-75454819D01*
X27833333Y-54954819D02*
X27500000Y-54478628D01*
X27261905Y-54954819D02*
X27261905Y-53954819D01*
X27261905Y-53954819D02*
X27642857Y-53954819D01*
X27642857Y-53954819D02*
X27738095Y-54002438D01*
X27738095Y-54002438D02*
X27785714Y-54050057D01*
X27785714Y-54050057D02*
X27833333Y-54145295D01*
X27833333Y-54145295D02*
X27833333Y-54288152D01*
X27833333Y-54288152D02*
X27785714Y-54383390D01*
X27785714Y-54383390D02*
X27738095Y-54431009D01*
X27738095Y-54431009D02*
X27642857Y-54478628D01*
X27642857Y-54478628D02*
X27261905Y-54478628D01*
X28690476Y-54288152D02*
X28690476Y-54954819D01*
X28452381Y-53907200D02*
X28214286Y-54621485D01*
X28214286Y-54621485D02*
X28833333Y-54621485D01*
X56954819Y-43238094D02*
X55954819Y-43238094D01*
X55954819Y-43238094D02*
X55954819Y-42999999D01*
X55954819Y-42999999D02*
X56002438Y-42857142D01*
X56002438Y-42857142D02*
X56097676Y-42761904D01*
X56097676Y-42761904D02*
X56192914Y-42714285D01*
X56192914Y-42714285D02*
X56383390Y-42666666D01*
X56383390Y-42666666D02*
X56526247Y-42666666D01*
X56526247Y-42666666D02*
X56716723Y-42714285D01*
X56716723Y-42714285D02*
X56811961Y-42761904D01*
X56811961Y-42761904D02*
X56907200Y-42857142D01*
X56907200Y-42857142D02*
X56954819Y-42999999D01*
X56954819Y-42999999D02*
X56954819Y-43238094D01*
X56954819Y-41714285D02*
X56954819Y-42285713D01*
X56954819Y-41999999D02*
X55954819Y-41999999D01*
X55954819Y-41999999D02*
X56097676Y-42095237D01*
X56097676Y-42095237D02*
X56192914Y-42190475D01*
X56192914Y-42190475D02*
X56240533Y-42285713D01*
X53454819Y-45261904D02*
X52454819Y-45261904D01*
X53454819Y-44690476D02*
X52883390Y-45119047D01*
X52454819Y-44690476D02*
X53026247Y-45261904D01*
X25033333Y-50859580D02*
X24985714Y-50907200D01*
X24985714Y-50907200D02*
X24842857Y-50954819D01*
X24842857Y-50954819D02*
X24747619Y-50954819D01*
X24747619Y-50954819D02*
X24604762Y-50907200D01*
X24604762Y-50907200D02*
X24509524Y-50811961D01*
X24509524Y-50811961D02*
X24461905Y-50716723D01*
X24461905Y-50716723D02*
X24414286Y-50526247D01*
X24414286Y-50526247D02*
X24414286Y-50383390D01*
X24414286Y-50383390D02*
X24461905Y-50192914D01*
X24461905Y-50192914D02*
X24509524Y-50097676D01*
X24509524Y-50097676D02*
X24604762Y-50002438D01*
X24604762Y-50002438D02*
X24747619Y-49954819D01*
X24747619Y-49954819D02*
X24842857Y-49954819D01*
X24842857Y-49954819D02*
X24985714Y-50002438D01*
X24985714Y-50002438D02*
X25033333Y-50050057D01*
X25366667Y-49954819D02*
X25985714Y-49954819D01*
X25985714Y-49954819D02*
X25652381Y-50335771D01*
X25652381Y-50335771D02*
X25795238Y-50335771D01*
X25795238Y-50335771D02*
X25890476Y-50383390D01*
X25890476Y-50383390D02*
X25938095Y-50431009D01*
X25938095Y-50431009D02*
X25985714Y-50526247D01*
X25985714Y-50526247D02*
X25985714Y-50764342D01*
X25985714Y-50764342D02*
X25938095Y-50859580D01*
X25938095Y-50859580D02*
X25890476Y-50907200D01*
X25890476Y-50907200D02*
X25795238Y-50954819D01*
X25795238Y-50954819D02*
X25509524Y-50954819D01*
X25509524Y-50954819D02*
X25414286Y-50907200D01*
X25414286Y-50907200D02*
X25366667Y-50859580D01*
X61454819Y-66642857D02*
X60978628Y-66976190D01*
X61454819Y-67214285D02*
X60454819Y-67214285D01*
X60454819Y-67214285D02*
X60454819Y-66833333D01*
X60454819Y-66833333D02*
X60502438Y-66738095D01*
X60502438Y-66738095D02*
X60550057Y-66690476D01*
X60550057Y-66690476D02*
X60645295Y-66642857D01*
X60645295Y-66642857D02*
X60788152Y-66642857D01*
X60788152Y-66642857D02*
X60883390Y-66690476D01*
X60883390Y-66690476D02*
X60931009Y-66738095D01*
X60931009Y-66738095D02*
X60978628Y-66833333D01*
X60978628Y-66833333D02*
X60978628Y-67214285D01*
X61454819Y-65690476D02*
X61454819Y-66261904D01*
X61454819Y-65976190D02*
X60454819Y-65976190D01*
X60454819Y-65976190D02*
X60597676Y-66071428D01*
X60597676Y-66071428D02*
X60692914Y-66166666D01*
X60692914Y-66166666D02*
X60740533Y-66261904D01*
X61454819Y-64738095D02*
X61454819Y-65309523D01*
X61454819Y-65023809D02*
X60454819Y-65023809D01*
X60454819Y-65023809D02*
X60597676Y-65119047D01*
X60597676Y-65119047D02*
X60692914Y-65214285D01*
X60692914Y-65214285D02*
X60740533Y-65309523D01*
X39243095Y-60644819D02*
X39243095Y-61454342D01*
X39243095Y-61454342D02*
X39290714Y-61549580D01*
X39290714Y-61549580D02*
X39338333Y-61597200D01*
X39338333Y-61597200D02*
X39433571Y-61644819D01*
X39433571Y-61644819D02*
X39624047Y-61644819D01*
X39624047Y-61644819D02*
X39719285Y-61597200D01*
X39719285Y-61597200D02*
X39766904Y-61549580D01*
X39766904Y-61549580D02*
X39814523Y-61454342D01*
X39814523Y-61454342D02*
X39814523Y-60644819D01*
X40814523Y-61644819D02*
X40243095Y-61644819D01*
X40528809Y-61644819D02*
X40528809Y-60644819D01*
X40528809Y-60644819D02*
X40433571Y-60787676D01*
X40433571Y-60787676D02*
X40338333Y-60882914D01*
X40338333Y-60882914D02*
X40243095Y-60930533D01*
X24913333Y-46859580D02*
X24865714Y-46907200D01*
X24865714Y-46907200D02*
X24722857Y-46954819D01*
X24722857Y-46954819D02*
X24627619Y-46954819D01*
X24627619Y-46954819D02*
X24484762Y-46907200D01*
X24484762Y-46907200D02*
X24389524Y-46811961D01*
X24389524Y-46811961D02*
X24341905Y-46716723D01*
X24341905Y-46716723D02*
X24294286Y-46526247D01*
X24294286Y-46526247D02*
X24294286Y-46383390D01*
X24294286Y-46383390D02*
X24341905Y-46192914D01*
X24341905Y-46192914D02*
X24389524Y-46097676D01*
X24389524Y-46097676D02*
X24484762Y-46002438D01*
X24484762Y-46002438D02*
X24627619Y-45954819D01*
X24627619Y-45954819D02*
X24722857Y-45954819D01*
X24722857Y-45954819D02*
X24865714Y-46002438D01*
X24865714Y-46002438D02*
X24913333Y-46050057D01*
X25294286Y-46050057D02*
X25341905Y-46002438D01*
X25341905Y-46002438D02*
X25437143Y-45954819D01*
X25437143Y-45954819D02*
X25675238Y-45954819D01*
X25675238Y-45954819D02*
X25770476Y-46002438D01*
X25770476Y-46002438D02*
X25818095Y-46050057D01*
X25818095Y-46050057D02*
X25865714Y-46145295D01*
X25865714Y-46145295D02*
X25865714Y-46240533D01*
X25865714Y-46240533D02*
X25818095Y-46383390D01*
X25818095Y-46383390D02*
X25246667Y-46954819D01*
X25246667Y-46954819D02*
X25865714Y-46954819D01*
X52738095Y-72454819D02*
X52738095Y-73264342D01*
X52738095Y-73264342D02*
X52785714Y-73359580D01*
X52785714Y-73359580D02*
X52833333Y-73407200D01*
X52833333Y-73407200D02*
X52928571Y-73454819D01*
X52928571Y-73454819D02*
X53119047Y-73454819D01*
X53119047Y-73454819D02*
X53214285Y-73407200D01*
X53214285Y-73407200D02*
X53261904Y-73359580D01*
X53261904Y-73359580D02*
X53309523Y-73264342D01*
X53309523Y-73264342D02*
X53309523Y-72454819D01*
X53738095Y-72550057D02*
X53785714Y-72502438D01*
X53785714Y-72502438D02*
X53880952Y-72454819D01*
X53880952Y-72454819D02*
X54119047Y-72454819D01*
X54119047Y-72454819D02*
X54214285Y-72502438D01*
X54214285Y-72502438D02*
X54261904Y-72550057D01*
X54261904Y-72550057D02*
X54309523Y-72645295D01*
X54309523Y-72645295D02*
X54309523Y-72740533D01*
X54309523Y-72740533D02*
X54261904Y-72883390D01*
X54261904Y-72883390D02*
X53690476Y-73454819D01*
X53690476Y-73454819D02*
X54309523Y-73454819D01*
X31359580Y-40666666D02*
X31407200Y-40714285D01*
X31407200Y-40714285D02*
X31454819Y-40857142D01*
X31454819Y-40857142D02*
X31454819Y-40952380D01*
X31454819Y-40952380D02*
X31407200Y-41095237D01*
X31407200Y-41095237D02*
X31311961Y-41190475D01*
X31311961Y-41190475D02*
X31216723Y-41238094D01*
X31216723Y-41238094D02*
X31026247Y-41285713D01*
X31026247Y-41285713D02*
X30883390Y-41285713D01*
X30883390Y-41285713D02*
X30692914Y-41238094D01*
X30692914Y-41238094D02*
X30597676Y-41190475D01*
X30597676Y-41190475D02*
X30502438Y-41095237D01*
X30502438Y-41095237D02*
X30454819Y-40952380D01*
X30454819Y-40952380D02*
X30454819Y-40857142D01*
X30454819Y-40857142D02*
X30502438Y-40714285D01*
X30502438Y-40714285D02*
X30550057Y-40666666D01*
X31454819Y-39714285D02*
X31454819Y-40285713D01*
X31454819Y-39999999D02*
X30454819Y-39999999D01*
X30454819Y-39999999D02*
X30597676Y-40095237D01*
X30597676Y-40095237D02*
X30692914Y-40190475D01*
X30692914Y-40190475D02*
X30740533Y-40285713D01*
X27333333Y-71954819D02*
X27000000Y-71478628D01*
X26761905Y-71954819D02*
X26761905Y-70954819D01*
X26761905Y-70954819D02*
X27142857Y-70954819D01*
X27142857Y-70954819D02*
X27238095Y-71002438D01*
X27238095Y-71002438D02*
X27285714Y-71050057D01*
X27285714Y-71050057D02*
X27333333Y-71145295D01*
X27333333Y-71145295D02*
X27333333Y-71288152D01*
X27333333Y-71288152D02*
X27285714Y-71383390D01*
X27285714Y-71383390D02*
X27238095Y-71431009D01*
X27238095Y-71431009D02*
X27142857Y-71478628D01*
X27142857Y-71478628D02*
X26761905Y-71478628D01*
X28190476Y-70954819D02*
X28000000Y-70954819D01*
X28000000Y-70954819D02*
X27904762Y-71002438D01*
X27904762Y-71002438D02*
X27857143Y-71050057D01*
X27857143Y-71050057D02*
X27761905Y-71192914D01*
X27761905Y-71192914D02*
X27714286Y-71383390D01*
X27714286Y-71383390D02*
X27714286Y-71764342D01*
X27714286Y-71764342D02*
X27761905Y-71859580D01*
X27761905Y-71859580D02*
X27809524Y-71907200D01*
X27809524Y-71907200D02*
X27904762Y-71954819D01*
X27904762Y-71954819D02*
X28095238Y-71954819D01*
X28095238Y-71954819D02*
X28190476Y-71907200D01*
X28190476Y-71907200D02*
X28238095Y-71859580D01*
X28238095Y-71859580D02*
X28285714Y-71764342D01*
X28285714Y-71764342D02*
X28285714Y-71526247D01*
X28285714Y-71526247D02*
X28238095Y-71431009D01*
X28238095Y-71431009D02*
X28190476Y-71383390D01*
X28190476Y-71383390D02*
X28095238Y-71335771D01*
X28095238Y-71335771D02*
X27904762Y-71335771D01*
X27904762Y-71335771D02*
X27809524Y-71383390D01*
X27809524Y-71383390D02*
X27761905Y-71431009D01*
X27761905Y-71431009D02*
X27714286Y-71526247D01*
X63859580Y-61166666D02*
X63907200Y-61214285D01*
X63907200Y-61214285D02*
X63954819Y-61357142D01*
X63954819Y-61357142D02*
X63954819Y-61452380D01*
X63954819Y-61452380D02*
X63907200Y-61595237D01*
X63907200Y-61595237D02*
X63811961Y-61690475D01*
X63811961Y-61690475D02*
X63716723Y-61738094D01*
X63716723Y-61738094D02*
X63526247Y-61785713D01*
X63526247Y-61785713D02*
X63383390Y-61785713D01*
X63383390Y-61785713D02*
X63192914Y-61738094D01*
X63192914Y-61738094D02*
X63097676Y-61690475D01*
X63097676Y-61690475D02*
X63002438Y-61595237D01*
X63002438Y-61595237D02*
X62954819Y-61452380D01*
X62954819Y-61452380D02*
X62954819Y-61357142D01*
X62954819Y-61357142D02*
X63002438Y-61214285D01*
X63002438Y-61214285D02*
X63050057Y-61166666D01*
X63954819Y-60690475D02*
X63954819Y-60499999D01*
X63954819Y-60499999D02*
X63907200Y-60404761D01*
X63907200Y-60404761D02*
X63859580Y-60357142D01*
X63859580Y-60357142D02*
X63716723Y-60261904D01*
X63716723Y-60261904D02*
X63526247Y-60214285D01*
X63526247Y-60214285D02*
X63145295Y-60214285D01*
X63145295Y-60214285D02*
X63050057Y-60261904D01*
X63050057Y-60261904D02*
X63002438Y-60309523D01*
X63002438Y-60309523D02*
X62954819Y-60404761D01*
X62954819Y-60404761D02*
X62954819Y-60595237D01*
X62954819Y-60595237D02*
X63002438Y-60690475D01*
X63002438Y-60690475D02*
X63050057Y-60738094D01*
X63050057Y-60738094D02*
X63145295Y-60785713D01*
X63145295Y-60785713D02*
X63383390Y-60785713D01*
X63383390Y-60785713D02*
X63478628Y-60738094D01*
X63478628Y-60738094D02*
X63526247Y-60690475D01*
X63526247Y-60690475D02*
X63573866Y-60595237D01*
X63573866Y-60595237D02*
X63573866Y-60404761D01*
X63573866Y-60404761D02*
X63526247Y-60309523D01*
X63526247Y-60309523D02*
X63478628Y-60261904D01*
X63478628Y-60261904D02*
X63383390Y-60214285D01*
X54333333Y-56359580D02*
X54285714Y-56407200D01*
X54285714Y-56407200D02*
X54142857Y-56454819D01*
X54142857Y-56454819D02*
X54047619Y-56454819D01*
X54047619Y-56454819D02*
X53904762Y-56407200D01*
X53904762Y-56407200D02*
X53809524Y-56311961D01*
X53809524Y-56311961D02*
X53761905Y-56216723D01*
X53761905Y-56216723D02*
X53714286Y-56026247D01*
X53714286Y-56026247D02*
X53714286Y-55883390D01*
X53714286Y-55883390D02*
X53761905Y-55692914D01*
X53761905Y-55692914D02*
X53809524Y-55597676D01*
X53809524Y-55597676D02*
X53904762Y-55502438D01*
X53904762Y-55502438D02*
X54047619Y-55454819D01*
X54047619Y-55454819D02*
X54142857Y-55454819D01*
X54142857Y-55454819D02*
X54285714Y-55502438D01*
X54285714Y-55502438D02*
X54333333Y-55550057D01*
X55190476Y-55454819D02*
X55000000Y-55454819D01*
X55000000Y-55454819D02*
X54904762Y-55502438D01*
X54904762Y-55502438D02*
X54857143Y-55550057D01*
X54857143Y-55550057D02*
X54761905Y-55692914D01*
X54761905Y-55692914D02*
X54714286Y-55883390D01*
X54714286Y-55883390D02*
X54714286Y-56264342D01*
X54714286Y-56264342D02*
X54761905Y-56359580D01*
X54761905Y-56359580D02*
X54809524Y-56407200D01*
X54809524Y-56407200D02*
X54904762Y-56454819D01*
X54904762Y-56454819D02*
X55095238Y-56454819D01*
X55095238Y-56454819D02*
X55190476Y-56407200D01*
X55190476Y-56407200D02*
X55238095Y-56359580D01*
X55238095Y-56359580D02*
X55285714Y-56264342D01*
X55285714Y-56264342D02*
X55285714Y-56026247D01*
X55285714Y-56026247D02*
X55238095Y-55931009D01*
X55238095Y-55931009D02*
X55190476Y-55883390D01*
X55190476Y-55883390D02*
X55095238Y-55835771D01*
X55095238Y-55835771D02*
X54904762Y-55835771D01*
X54904762Y-55835771D02*
X54809524Y-55883390D01*
X54809524Y-55883390D02*
X54761905Y-55931009D01*
X54761905Y-55931009D02*
X54714286Y-56026247D01*
X26857142Y-75454819D02*
X26523809Y-74978628D01*
X26285714Y-75454819D02*
X26285714Y-74454819D01*
X26285714Y-74454819D02*
X26666666Y-74454819D01*
X26666666Y-74454819D02*
X26761904Y-74502438D01*
X26761904Y-74502438D02*
X26809523Y-74550057D01*
X26809523Y-74550057D02*
X26857142Y-74645295D01*
X26857142Y-74645295D02*
X26857142Y-74788152D01*
X26857142Y-74788152D02*
X26809523Y-74883390D01*
X26809523Y-74883390D02*
X26761904Y-74931009D01*
X26761904Y-74931009D02*
X26666666Y-74978628D01*
X26666666Y-74978628D02*
X26285714Y-74978628D01*
X27809523Y-75454819D02*
X27238095Y-75454819D01*
X27523809Y-75454819D02*
X27523809Y-74454819D01*
X27523809Y-74454819D02*
X27428571Y-74597676D01*
X27428571Y-74597676D02*
X27333333Y-74692914D01*
X27333333Y-74692914D02*
X27238095Y-74740533D01*
X28428571Y-74454819D02*
X28523809Y-74454819D01*
X28523809Y-74454819D02*
X28619047Y-74502438D01*
X28619047Y-74502438D02*
X28666666Y-74550057D01*
X28666666Y-74550057D02*
X28714285Y-74645295D01*
X28714285Y-74645295D02*
X28761904Y-74835771D01*
X28761904Y-74835771D02*
X28761904Y-75073866D01*
X28761904Y-75073866D02*
X28714285Y-75264342D01*
X28714285Y-75264342D02*
X28666666Y-75359580D01*
X28666666Y-75359580D02*
X28619047Y-75407200D01*
X28619047Y-75407200D02*
X28523809Y-75454819D01*
X28523809Y-75454819D02*
X28428571Y-75454819D01*
X28428571Y-75454819D02*
X28333333Y-75407200D01*
X28333333Y-75407200D02*
X28285714Y-75359580D01*
X28285714Y-75359580D02*
X28238095Y-75264342D01*
X28238095Y-75264342D02*
X28190476Y-75073866D01*
X28190476Y-75073866D02*
X28190476Y-74835771D01*
X28190476Y-74835771D02*
X28238095Y-74645295D01*
X28238095Y-74645295D02*
X28285714Y-74550057D01*
X28285714Y-74550057D02*
X28333333Y-74502438D01*
X28333333Y-74502438D02*
X28428571Y-74454819D01*
X48333333Y-46954819D02*
X48000000Y-46478628D01*
X47761905Y-46954819D02*
X47761905Y-45954819D01*
X47761905Y-45954819D02*
X48142857Y-45954819D01*
X48142857Y-45954819D02*
X48238095Y-46002438D01*
X48238095Y-46002438D02*
X48285714Y-46050057D01*
X48285714Y-46050057D02*
X48333333Y-46145295D01*
X48333333Y-46145295D02*
X48333333Y-46288152D01*
X48333333Y-46288152D02*
X48285714Y-46383390D01*
X48285714Y-46383390D02*
X48238095Y-46431009D01*
X48238095Y-46431009D02*
X48142857Y-46478628D01*
X48142857Y-46478628D02*
X47761905Y-46478628D01*
X48714286Y-46050057D02*
X48761905Y-46002438D01*
X48761905Y-46002438D02*
X48857143Y-45954819D01*
X48857143Y-45954819D02*
X49095238Y-45954819D01*
X49095238Y-45954819D02*
X49190476Y-46002438D01*
X49190476Y-46002438D02*
X49238095Y-46050057D01*
X49238095Y-46050057D02*
X49285714Y-46145295D01*
X49285714Y-46145295D02*
X49285714Y-46240533D01*
X49285714Y-46240533D02*
X49238095Y-46383390D01*
X49238095Y-46383390D02*
X48666667Y-46954819D01*
X48666667Y-46954819D02*
X49285714Y-46954819D01*
X41304761Y-57850057D02*
X41209523Y-57802438D01*
X41209523Y-57802438D02*
X41114285Y-57707200D01*
X41114285Y-57707200D02*
X40971428Y-57564342D01*
X40971428Y-57564342D02*
X40876190Y-57516723D01*
X40876190Y-57516723D02*
X40780952Y-57516723D01*
X40828571Y-57754819D02*
X40733333Y-57707200D01*
X40733333Y-57707200D02*
X40638095Y-57611961D01*
X40638095Y-57611961D02*
X40590476Y-57421485D01*
X40590476Y-57421485D02*
X40590476Y-57088152D01*
X40590476Y-57088152D02*
X40638095Y-56897676D01*
X40638095Y-56897676D02*
X40733333Y-56802438D01*
X40733333Y-56802438D02*
X40828571Y-56754819D01*
X40828571Y-56754819D02*
X41019047Y-56754819D01*
X41019047Y-56754819D02*
X41114285Y-56802438D01*
X41114285Y-56802438D02*
X41209523Y-56897676D01*
X41209523Y-56897676D02*
X41257142Y-57088152D01*
X41257142Y-57088152D02*
X41257142Y-57421485D01*
X41257142Y-57421485D02*
X41209523Y-57611961D01*
X41209523Y-57611961D02*
X41114285Y-57707200D01*
X41114285Y-57707200D02*
X41019047Y-57754819D01*
X41019047Y-57754819D02*
X40828571Y-57754819D01*
X42209523Y-57754819D02*
X41638095Y-57754819D01*
X41923809Y-57754819D02*
X41923809Y-56754819D01*
X41923809Y-56754819D02*
X41828571Y-56897676D01*
X41828571Y-56897676D02*
X41733333Y-56992914D01*
X41733333Y-56992914D02*
X41638095Y-57040533D01*
X35213333Y-50654819D02*
X34880000Y-50178628D01*
X34641905Y-50654819D02*
X34641905Y-49654819D01*
X34641905Y-49654819D02*
X35022857Y-49654819D01*
X35022857Y-49654819D02*
X35118095Y-49702438D01*
X35118095Y-49702438D02*
X35165714Y-49750057D01*
X35165714Y-49750057D02*
X35213333Y-49845295D01*
X35213333Y-49845295D02*
X35213333Y-49988152D01*
X35213333Y-49988152D02*
X35165714Y-50083390D01*
X35165714Y-50083390D02*
X35118095Y-50131009D01*
X35118095Y-50131009D02*
X35022857Y-50178628D01*
X35022857Y-50178628D02*
X34641905Y-50178628D01*
X35546667Y-49654819D02*
X36165714Y-49654819D01*
X36165714Y-49654819D02*
X35832381Y-50035771D01*
X35832381Y-50035771D02*
X35975238Y-50035771D01*
X35975238Y-50035771D02*
X36070476Y-50083390D01*
X36070476Y-50083390D02*
X36118095Y-50131009D01*
X36118095Y-50131009D02*
X36165714Y-50226247D01*
X36165714Y-50226247D02*
X36165714Y-50464342D01*
X36165714Y-50464342D02*
X36118095Y-50559580D01*
X36118095Y-50559580D02*
X36070476Y-50607200D01*
X36070476Y-50607200D02*
X35975238Y-50654819D01*
X35975238Y-50654819D02*
X35689524Y-50654819D01*
X35689524Y-50654819D02*
X35594286Y-50607200D01*
X35594286Y-50607200D02*
X35546667Y-50559580D01*
X40833333Y-71954819D02*
X40500000Y-71478628D01*
X40261905Y-71954819D02*
X40261905Y-70954819D01*
X40261905Y-70954819D02*
X40642857Y-70954819D01*
X40642857Y-70954819D02*
X40738095Y-71002438D01*
X40738095Y-71002438D02*
X40785714Y-71050057D01*
X40785714Y-71050057D02*
X40833333Y-71145295D01*
X40833333Y-71145295D02*
X40833333Y-71288152D01*
X40833333Y-71288152D02*
X40785714Y-71383390D01*
X40785714Y-71383390D02*
X40738095Y-71431009D01*
X40738095Y-71431009D02*
X40642857Y-71478628D01*
X40642857Y-71478628D02*
X40261905Y-71478628D01*
X41166667Y-70954819D02*
X41833333Y-70954819D01*
X41833333Y-70954819D02*
X41404762Y-71954819D01*
X35413333Y-46954819D02*
X35080000Y-46478628D01*
X34841905Y-46954819D02*
X34841905Y-45954819D01*
X34841905Y-45954819D02*
X35222857Y-45954819D01*
X35222857Y-45954819D02*
X35318095Y-46002438D01*
X35318095Y-46002438D02*
X35365714Y-46050057D01*
X35365714Y-46050057D02*
X35413333Y-46145295D01*
X35413333Y-46145295D02*
X35413333Y-46288152D01*
X35413333Y-46288152D02*
X35365714Y-46383390D01*
X35365714Y-46383390D02*
X35318095Y-46431009D01*
X35318095Y-46431009D02*
X35222857Y-46478628D01*
X35222857Y-46478628D02*
X34841905Y-46478628D01*
X36365714Y-46954819D02*
X35794286Y-46954819D01*
X36080000Y-46954819D02*
X36080000Y-45954819D01*
X36080000Y-45954819D02*
X35984762Y-46097676D01*
X35984762Y-46097676D02*
X35889524Y-46192914D01*
X35889524Y-46192914D02*
X35794286Y-46240533D01*
X61454819Y-79642857D02*
X60978628Y-79976190D01*
X61454819Y-80214285D02*
X60454819Y-80214285D01*
X60454819Y-80214285D02*
X60454819Y-79833333D01*
X60454819Y-79833333D02*
X60502438Y-79738095D01*
X60502438Y-79738095D02*
X60550057Y-79690476D01*
X60550057Y-79690476D02*
X60645295Y-79642857D01*
X60645295Y-79642857D02*
X60788152Y-79642857D01*
X60788152Y-79642857D02*
X60883390Y-79690476D01*
X60883390Y-79690476D02*
X60931009Y-79738095D01*
X60931009Y-79738095D02*
X60978628Y-79833333D01*
X60978628Y-79833333D02*
X60978628Y-80214285D01*
X61454819Y-78690476D02*
X61454819Y-79261904D01*
X61454819Y-78976190D02*
X60454819Y-78976190D01*
X60454819Y-78976190D02*
X60597676Y-79071428D01*
X60597676Y-79071428D02*
X60692914Y-79166666D01*
X60692914Y-79166666D02*
X60740533Y-79261904D01*
X60454819Y-78357142D02*
X60454819Y-77738095D01*
X60454819Y-77738095D02*
X60835771Y-78071428D01*
X60835771Y-78071428D02*
X60835771Y-77928571D01*
X60835771Y-77928571D02*
X60883390Y-77833333D01*
X60883390Y-77833333D02*
X60931009Y-77785714D01*
X60931009Y-77785714D02*
X61026247Y-77738095D01*
X61026247Y-77738095D02*
X61264342Y-77738095D01*
X61264342Y-77738095D02*
X61359580Y-77785714D01*
X61359580Y-77785714D02*
X61407200Y-77833333D01*
X61407200Y-77833333D02*
X61454819Y-77928571D01*
X61454819Y-77928571D02*
X61454819Y-78214285D01*
X61454819Y-78214285D02*
X61407200Y-78309523D01*
X61407200Y-78309523D02*
X61359580Y-78357142D01*
X47954819Y-63746666D02*
X47478628Y-64079999D01*
X47954819Y-64318094D02*
X46954819Y-64318094D01*
X46954819Y-64318094D02*
X46954819Y-63937142D01*
X46954819Y-63937142D02*
X47002438Y-63841904D01*
X47002438Y-63841904D02*
X47050057Y-63794285D01*
X47050057Y-63794285D02*
X47145295Y-63746666D01*
X47145295Y-63746666D02*
X47288152Y-63746666D01*
X47288152Y-63746666D02*
X47383390Y-63794285D01*
X47383390Y-63794285D02*
X47431009Y-63841904D01*
X47431009Y-63841904D02*
X47478628Y-63937142D01*
X47478628Y-63937142D02*
X47478628Y-64318094D01*
X47383390Y-63175237D02*
X47335771Y-63270475D01*
X47335771Y-63270475D02*
X47288152Y-63318094D01*
X47288152Y-63318094D02*
X47192914Y-63365713D01*
X47192914Y-63365713D02*
X47145295Y-63365713D01*
X47145295Y-63365713D02*
X47050057Y-63318094D01*
X47050057Y-63318094D02*
X47002438Y-63270475D01*
X47002438Y-63270475D02*
X46954819Y-63175237D01*
X46954819Y-63175237D02*
X46954819Y-62984761D01*
X46954819Y-62984761D02*
X47002438Y-62889523D01*
X47002438Y-62889523D02*
X47050057Y-62841904D01*
X47050057Y-62841904D02*
X47145295Y-62794285D01*
X47145295Y-62794285D02*
X47192914Y-62794285D01*
X47192914Y-62794285D02*
X47288152Y-62841904D01*
X47288152Y-62841904D02*
X47335771Y-62889523D01*
X47335771Y-62889523D02*
X47383390Y-62984761D01*
X47383390Y-62984761D02*
X47383390Y-63175237D01*
X47383390Y-63175237D02*
X47431009Y-63270475D01*
X47431009Y-63270475D02*
X47478628Y-63318094D01*
X47478628Y-63318094D02*
X47573866Y-63365713D01*
X47573866Y-63365713D02*
X47764342Y-63365713D01*
X47764342Y-63365713D02*
X47859580Y-63318094D01*
X47859580Y-63318094D02*
X47907200Y-63270475D01*
X47907200Y-63270475D02*
X47954819Y-63175237D01*
X47954819Y-63175237D02*
X47954819Y-62984761D01*
X47954819Y-62984761D02*
X47907200Y-62889523D01*
X47907200Y-62889523D02*
X47859580Y-62841904D01*
X47859580Y-62841904D02*
X47764342Y-62794285D01*
X47764342Y-62794285D02*
X47573866Y-62794285D01*
X47573866Y-62794285D02*
X47478628Y-62841904D01*
X47478628Y-62841904D02*
X47431009Y-62889523D01*
X47431009Y-62889523D02*
X47383390Y-62984761D01*
X48109580Y-80166666D02*
X48157200Y-80214285D01*
X48157200Y-80214285D02*
X48204819Y-80357142D01*
X48204819Y-80357142D02*
X48204819Y-80452380D01*
X48204819Y-80452380D02*
X48157200Y-80595237D01*
X48157200Y-80595237D02*
X48061961Y-80690475D01*
X48061961Y-80690475D02*
X47966723Y-80738094D01*
X47966723Y-80738094D02*
X47776247Y-80785713D01*
X47776247Y-80785713D02*
X47633390Y-80785713D01*
X47633390Y-80785713D02*
X47442914Y-80738094D01*
X47442914Y-80738094D02*
X47347676Y-80690475D01*
X47347676Y-80690475D02*
X47252438Y-80595237D01*
X47252438Y-80595237D02*
X47204819Y-80452380D01*
X47204819Y-80452380D02*
X47204819Y-80357142D01*
X47204819Y-80357142D02*
X47252438Y-80214285D01*
X47252438Y-80214285D02*
X47300057Y-80166666D01*
X47633390Y-79595237D02*
X47585771Y-79690475D01*
X47585771Y-79690475D02*
X47538152Y-79738094D01*
X47538152Y-79738094D02*
X47442914Y-79785713D01*
X47442914Y-79785713D02*
X47395295Y-79785713D01*
X47395295Y-79785713D02*
X47300057Y-79738094D01*
X47300057Y-79738094D02*
X47252438Y-79690475D01*
X47252438Y-79690475D02*
X47204819Y-79595237D01*
X47204819Y-79595237D02*
X47204819Y-79404761D01*
X47204819Y-79404761D02*
X47252438Y-79309523D01*
X47252438Y-79309523D02*
X47300057Y-79261904D01*
X47300057Y-79261904D02*
X47395295Y-79214285D01*
X47395295Y-79214285D02*
X47442914Y-79214285D01*
X47442914Y-79214285D02*
X47538152Y-79261904D01*
X47538152Y-79261904D02*
X47585771Y-79309523D01*
X47585771Y-79309523D02*
X47633390Y-79404761D01*
X47633390Y-79404761D02*
X47633390Y-79595237D01*
X47633390Y-79595237D02*
X47681009Y-79690475D01*
X47681009Y-79690475D02*
X47728628Y-79738094D01*
X47728628Y-79738094D02*
X47823866Y-79785713D01*
X47823866Y-79785713D02*
X48014342Y-79785713D01*
X48014342Y-79785713D02*
X48109580Y-79738094D01*
X48109580Y-79738094D02*
X48157200Y-79690475D01*
X48157200Y-79690475D02*
X48204819Y-79595237D01*
X48204819Y-79595237D02*
X48204819Y-79404761D01*
X48204819Y-79404761D02*
X48157200Y-79309523D01*
X48157200Y-79309523D02*
X48109580Y-79261904D01*
X48109580Y-79261904D02*
X48014342Y-79214285D01*
X48014342Y-79214285D02*
X47823866Y-79214285D01*
X47823866Y-79214285D02*
X47728628Y-79261904D01*
X47728628Y-79261904D02*
X47681009Y-79309523D01*
X47681009Y-79309523D02*
X47633390Y-79404761D01*
X25333333Y-58859580D02*
X25285714Y-58907200D01*
X25285714Y-58907200D02*
X25142857Y-58954819D01*
X25142857Y-58954819D02*
X25047619Y-58954819D01*
X25047619Y-58954819D02*
X24904762Y-58907200D01*
X24904762Y-58907200D02*
X24809524Y-58811961D01*
X24809524Y-58811961D02*
X24761905Y-58716723D01*
X24761905Y-58716723D02*
X24714286Y-58526247D01*
X24714286Y-58526247D02*
X24714286Y-58383390D01*
X24714286Y-58383390D02*
X24761905Y-58192914D01*
X24761905Y-58192914D02*
X24809524Y-58097676D01*
X24809524Y-58097676D02*
X24904762Y-58002438D01*
X24904762Y-58002438D02*
X25047619Y-57954819D01*
X25047619Y-57954819D02*
X25142857Y-57954819D01*
X25142857Y-57954819D02*
X25285714Y-58002438D01*
X25285714Y-58002438D02*
X25333333Y-58050057D01*
X26238095Y-57954819D02*
X25761905Y-57954819D01*
X25761905Y-57954819D02*
X25714286Y-58431009D01*
X25714286Y-58431009D02*
X25761905Y-58383390D01*
X25761905Y-58383390D02*
X25857143Y-58335771D01*
X25857143Y-58335771D02*
X26095238Y-58335771D01*
X26095238Y-58335771D02*
X26190476Y-58383390D01*
X26190476Y-58383390D02*
X26238095Y-58431009D01*
X26238095Y-58431009D02*
X26285714Y-58526247D01*
X26285714Y-58526247D02*
X26285714Y-58764342D01*
X26285714Y-58764342D02*
X26238095Y-58859580D01*
X26238095Y-58859580D02*
X26190476Y-58907200D01*
X26190476Y-58907200D02*
X26095238Y-58954819D01*
X26095238Y-58954819D02*
X25857143Y-58954819D01*
X25857143Y-58954819D02*
X25761905Y-58907200D01*
X25761905Y-58907200D02*
X25714286Y-58859580D01*
X52833333Y-83954819D02*
X52500000Y-83478628D01*
X52261905Y-83954819D02*
X52261905Y-82954819D01*
X52261905Y-82954819D02*
X52642857Y-82954819D01*
X52642857Y-82954819D02*
X52738095Y-83002438D01*
X52738095Y-83002438D02*
X52785714Y-83050057D01*
X52785714Y-83050057D02*
X52833333Y-83145295D01*
X52833333Y-83145295D02*
X52833333Y-83288152D01*
X52833333Y-83288152D02*
X52785714Y-83383390D01*
X52785714Y-83383390D02*
X52738095Y-83431009D01*
X52738095Y-83431009D02*
X52642857Y-83478628D01*
X52642857Y-83478628D02*
X52261905Y-83478628D01*
X53309524Y-83954819D02*
X53500000Y-83954819D01*
X53500000Y-83954819D02*
X53595238Y-83907200D01*
X53595238Y-83907200D02*
X53642857Y-83859580D01*
X53642857Y-83859580D02*
X53738095Y-83716723D01*
X53738095Y-83716723D02*
X53785714Y-83526247D01*
X53785714Y-83526247D02*
X53785714Y-83145295D01*
X53785714Y-83145295D02*
X53738095Y-83050057D01*
X53738095Y-83050057D02*
X53690476Y-83002438D01*
X53690476Y-83002438D02*
X53595238Y-82954819D01*
X53595238Y-82954819D02*
X53404762Y-82954819D01*
X53404762Y-82954819D02*
X53309524Y-83002438D01*
X53309524Y-83002438D02*
X53261905Y-83050057D01*
X53261905Y-83050057D02*
X53214286Y-83145295D01*
X53214286Y-83145295D02*
X53214286Y-83383390D01*
X53214286Y-83383390D02*
X53261905Y-83478628D01*
X53261905Y-83478628D02*
X53309524Y-83526247D01*
X53309524Y-83526247D02*
X53404762Y-83573866D01*
X53404762Y-83573866D02*
X53595238Y-83573866D01*
X53595238Y-83573866D02*
X53690476Y-83526247D01*
X53690476Y-83526247D02*
X53738095Y-83478628D01*
X53738095Y-83478628D02*
X53785714Y-83383390D01*
X46333333Y-55859580D02*
X46285714Y-55907200D01*
X46285714Y-55907200D02*
X46142857Y-55954819D01*
X46142857Y-55954819D02*
X46047619Y-55954819D01*
X46047619Y-55954819D02*
X45904762Y-55907200D01*
X45904762Y-55907200D02*
X45809524Y-55811961D01*
X45809524Y-55811961D02*
X45761905Y-55716723D01*
X45761905Y-55716723D02*
X45714286Y-55526247D01*
X45714286Y-55526247D02*
X45714286Y-55383390D01*
X45714286Y-55383390D02*
X45761905Y-55192914D01*
X45761905Y-55192914D02*
X45809524Y-55097676D01*
X45809524Y-55097676D02*
X45904762Y-55002438D01*
X45904762Y-55002438D02*
X46047619Y-54954819D01*
X46047619Y-54954819D02*
X46142857Y-54954819D01*
X46142857Y-54954819D02*
X46285714Y-55002438D01*
X46285714Y-55002438D02*
X46333333Y-55050057D01*
X47190476Y-55288152D02*
X47190476Y-55954819D01*
X46952381Y-54907200D02*
X46714286Y-55621485D01*
X46714286Y-55621485D02*
X47333333Y-55621485D01*
X44966667Y-52807200D02*
X45109524Y-52854819D01*
X45109524Y-52854819D02*
X45347619Y-52854819D01*
X45347619Y-52854819D02*
X45442857Y-52807200D01*
X45442857Y-52807200D02*
X45490476Y-52759580D01*
X45490476Y-52759580D02*
X45538095Y-52664342D01*
X45538095Y-52664342D02*
X45538095Y-52569104D01*
X45538095Y-52569104D02*
X45490476Y-52473866D01*
X45490476Y-52473866D02*
X45442857Y-52426247D01*
X45442857Y-52426247D02*
X45347619Y-52378628D01*
X45347619Y-52378628D02*
X45157143Y-52331009D01*
X45157143Y-52331009D02*
X45061905Y-52283390D01*
X45061905Y-52283390D02*
X45014286Y-52235771D01*
X45014286Y-52235771D02*
X44966667Y-52140533D01*
X44966667Y-52140533D02*
X44966667Y-52045295D01*
X44966667Y-52045295D02*
X45014286Y-51950057D01*
X45014286Y-51950057D02*
X45061905Y-51902438D01*
X45061905Y-51902438D02*
X45157143Y-51854819D01*
X45157143Y-51854819D02*
X45395238Y-51854819D01*
X45395238Y-51854819D02*
X45538095Y-51902438D01*
X45871429Y-51854819D02*
X46109524Y-52854819D01*
X46109524Y-52854819D02*
X46300000Y-52140533D01*
X46300000Y-52140533D02*
X46490476Y-52854819D01*
X46490476Y-52854819D02*
X46728572Y-51854819D01*
X47633333Y-52854819D02*
X47061905Y-52854819D01*
X47347619Y-52854819D02*
X47347619Y-51854819D01*
X47347619Y-51854819D02*
X47252381Y-51997676D01*
X47252381Y-51997676D02*
X47157143Y-52092914D01*
X47157143Y-52092914D02*
X47061905Y-52140533D01*
D14*
%TO.C,C7*%
X61860000Y-46344888D02*
X60320000Y-46344888D01*
X61860000Y-46384888D02*
X60320000Y-46384888D01*
X61860000Y-46424888D02*
X60321000Y-46424888D01*
X61860000Y-46464888D02*
X60322000Y-46464888D01*
X61860000Y-46504888D02*
X60324000Y-46504888D01*
X61860000Y-46544888D02*
X60327000Y-46544888D01*
X61860000Y-46584888D02*
X60331000Y-46584888D01*
X61860000Y-46624888D02*
X60335000Y-46624888D01*
X61860000Y-46664888D02*
X60339000Y-46664888D01*
X61860000Y-46704888D02*
X60344000Y-46704888D01*
X61860000Y-46744888D02*
X60350000Y-46744888D01*
X61860000Y-46784888D02*
X60357000Y-46784888D01*
X61860000Y-46824888D02*
X60364000Y-46824888D01*
X61860000Y-46864888D02*
X60372000Y-46864888D01*
X61860000Y-46904888D02*
X60380000Y-46904888D01*
X61860000Y-46944888D02*
X60389000Y-46944888D01*
X61860000Y-46984888D02*
X60399000Y-46984888D01*
X61860000Y-47024888D02*
X60409000Y-47024888D01*
X61860000Y-47065888D02*
X60420000Y-47065888D01*
X61860000Y-47105888D02*
X60432000Y-47105888D01*
X61860000Y-47145888D02*
X60445000Y-47145888D01*
X61860000Y-47185888D02*
X60458000Y-47185888D01*
X61860000Y-47225888D02*
X60472000Y-47225888D01*
X61860000Y-47265888D02*
X60486000Y-47265888D01*
X61860000Y-47305888D02*
X60502000Y-47305888D01*
X61860000Y-47345888D02*
X60518000Y-47345888D01*
X61860000Y-47385888D02*
X60535000Y-47385888D01*
X61860000Y-47425888D02*
X60552000Y-47425888D01*
X61860000Y-47465888D02*
X60571000Y-47465888D01*
X61860000Y-47505888D02*
X60590000Y-47505888D01*
X61860000Y-47545888D02*
X60610000Y-47545888D01*
X61860000Y-47585888D02*
X60632000Y-47585888D01*
X61860000Y-47625888D02*
X60653000Y-47625888D01*
X61860000Y-47665888D02*
X60676000Y-47665888D01*
X61860000Y-47705888D02*
X60700000Y-47705888D01*
X61860000Y-47745888D02*
X60725000Y-47745888D01*
X61860000Y-47785888D02*
X60751000Y-47785888D01*
X61860000Y-47825888D02*
X60778000Y-47825888D01*
X61860000Y-47865888D02*
X60805000Y-47865888D01*
X61860000Y-47905888D02*
X60835000Y-47905888D01*
X61860000Y-47945888D02*
X60865000Y-47945888D01*
X61860000Y-47985888D02*
X60896000Y-47985888D01*
X61860000Y-48025888D02*
X60929000Y-48025888D01*
X61860000Y-48065888D02*
X60963000Y-48065888D01*
X61860000Y-48105888D02*
X60999000Y-48105888D01*
X61860000Y-48145888D02*
X61036000Y-48145888D01*
X61860000Y-48185888D02*
X61074000Y-48185888D01*
X61860000Y-48225888D02*
X61115000Y-48225888D01*
X61860000Y-48265888D02*
X61157000Y-48265888D01*
X61860000Y-48305888D02*
X61201000Y-48305888D01*
X61860000Y-48345888D02*
X61247000Y-48345888D01*
X63184000Y-48945888D02*
X62616000Y-48945888D01*
X63418000Y-48905888D02*
X62382000Y-48905888D01*
X63577000Y-48865888D02*
X62223000Y-48865888D01*
X63705000Y-48825888D02*
X62095000Y-48825888D01*
X63815000Y-48785888D02*
X61985000Y-48785888D01*
X63911000Y-48745888D02*
X61889000Y-48745888D01*
X63998000Y-48705888D02*
X61802000Y-48705888D01*
X64078000Y-48665888D02*
X61722000Y-48665888D01*
X64151000Y-48625888D02*
X61649000Y-48625888D01*
X64219000Y-48585888D02*
X61581000Y-48585888D01*
X64283000Y-48545888D02*
X61517000Y-48545888D01*
X64343000Y-48505888D02*
X61457000Y-48505888D01*
X64375000Y-43540113D02*
X64375000Y-44040113D01*
X64400000Y-48465888D02*
X61400000Y-48465888D01*
X64454000Y-48425888D02*
X61346000Y-48425888D01*
X64505000Y-48385888D02*
X61295000Y-48385888D01*
X64553000Y-48345888D02*
X63940000Y-48345888D01*
X64599000Y-48305888D02*
X63940000Y-48305888D01*
X64625000Y-43790113D02*
X64125000Y-43790113D01*
X64643000Y-48265888D02*
X63940000Y-48265888D01*
X64685000Y-48225888D02*
X63940000Y-48225888D01*
X64726000Y-48185888D02*
X63940000Y-48185888D01*
X64764000Y-48145888D02*
X63940000Y-48145888D01*
X64801000Y-48105888D02*
X63940000Y-48105888D01*
X64837000Y-48065888D02*
X63940000Y-48065888D01*
X64871000Y-48025888D02*
X63940000Y-48025888D01*
X64904000Y-47985888D02*
X63940000Y-47985888D01*
X64935000Y-47945888D02*
X63940000Y-47945888D01*
X64965000Y-47905888D02*
X63940000Y-47905888D01*
X64995000Y-47865888D02*
X63940000Y-47865888D01*
X65022000Y-47825888D02*
X63940000Y-47825888D01*
X65049000Y-47785888D02*
X63940000Y-47785888D01*
X65075000Y-47745888D02*
X63940000Y-47745888D01*
X65100000Y-47705888D02*
X63940000Y-47705888D01*
X65124000Y-47665888D02*
X63940000Y-47665888D01*
X65147000Y-47625888D02*
X63940000Y-47625888D01*
X65168000Y-47585888D02*
X63940000Y-47585888D01*
X65190000Y-47545888D02*
X63940000Y-47545888D01*
X65210000Y-47505888D02*
X63940000Y-47505888D01*
X65229000Y-47465888D02*
X63940000Y-47465888D01*
X65248000Y-47425888D02*
X63940000Y-47425888D01*
X65265000Y-47385888D02*
X63940000Y-47385888D01*
X65282000Y-47345888D02*
X63940000Y-47345888D01*
X65298000Y-47305888D02*
X63940000Y-47305888D01*
X65314000Y-47265888D02*
X63940000Y-47265888D01*
X65328000Y-47225888D02*
X63940000Y-47225888D01*
X65342000Y-47185888D02*
X63940000Y-47185888D01*
X65355000Y-47145888D02*
X63940000Y-47145888D01*
X65368000Y-47105888D02*
X63940000Y-47105888D01*
X65380000Y-47065888D02*
X63940000Y-47065888D01*
X65391000Y-47024888D02*
X63940000Y-47024888D01*
X65401000Y-46984888D02*
X63940000Y-46984888D01*
X65411000Y-46944888D02*
X63940000Y-46944888D01*
X65420000Y-46904888D02*
X63940000Y-46904888D01*
X65428000Y-46864888D02*
X63940000Y-46864888D01*
X65436000Y-46824888D02*
X63940000Y-46824888D01*
X65443000Y-46784888D02*
X63940000Y-46784888D01*
X65450000Y-46744888D02*
X63940000Y-46744888D01*
X65456000Y-46704888D02*
X63940000Y-46704888D01*
X65461000Y-46664888D02*
X63940000Y-46664888D01*
X65465000Y-46624888D02*
X63940000Y-46624888D01*
X65469000Y-46584888D02*
X63940000Y-46584888D01*
X65473000Y-46544888D02*
X63940000Y-46544888D01*
X65476000Y-46504888D02*
X63940000Y-46504888D01*
X65478000Y-46464888D02*
X63940000Y-46464888D01*
X65479000Y-46424888D02*
X63940000Y-46424888D01*
X65480000Y-46344888D02*
X63940000Y-46344888D01*
X65480000Y-46384888D02*
X63940000Y-46384888D01*
X65520000Y-46344888D02*
G75*
G02*
X60280000Y-46344888I-2620000J0D01*
G01*
X60280000Y-46344888D02*
G75*
G02*
X65520000Y-46344888I2620000J0D01*
G01*
%TO.C,R5*%
X30130000Y-59310000D02*
X30130000Y-65850000D01*
X30130000Y-65850000D02*
X32870000Y-65850000D01*
X31500000Y-58540000D02*
X31500000Y-59310000D01*
X31500000Y-66620000D02*
X31500000Y-65850000D01*
X32870000Y-59310000D02*
X30130000Y-59310000D01*
X32870000Y-65850000D02*
X32870000Y-59310000D01*
%TO.C,J6*%
X32340000Y-78010000D02*
X32340000Y-84030000D01*
X32340000Y-84030000D02*
X40180000Y-84030000D01*
X32920000Y-83430000D02*
X32920000Y-84030000D01*
X33720000Y-79010000D02*
X33720000Y-78010000D01*
X33970000Y-78010000D02*
X33970000Y-79010000D01*
X33970000Y-79540000D02*
X33720000Y-79010000D01*
X34520000Y-83430000D02*
X32920000Y-83430000D01*
X34520000Y-84030000D02*
X34520000Y-83430000D01*
X35460000Y-83430000D02*
X35460000Y-84030000D01*
X37060000Y-83430000D02*
X35460000Y-83430000D01*
X37060000Y-84030000D02*
X37060000Y-83430000D01*
X38000000Y-83430000D02*
X38000000Y-84030000D01*
X38550000Y-78010000D02*
X38550000Y-79010000D01*
X38550000Y-79540000D02*
X33970000Y-79540000D01*
X38800000Y-78010000D02*
X38800000Y-79010000D01*
X38800000Y-79010000D02*
X33720000Y-79010000D01*
X38800000Y-79010000D02*
X38550000Y-79540000D01*
X39600000Y-83430000D02*
X38000000Y-83430000D01*
X39600000Y-84030000D02*
X39600000Y-83430000D01*
X40180000Y-78010000D02*
X32340000Y-78010000D01*
X40180000Y-84030000D02*
X40180000Y-78010000D01*
X40470000Y-83000000D02*
X40470000Y-79000000D01*
%TO.C,R12*%
X36960000Y-75000000D02*
X37730000Y-75000000D01*
X37730000Y-73630000D02*
X37730000Y-76370000D01*
X37730000Y-76370000D02*
X44270000Y-76370000D01*
X44270000Y-73630000D02*
X37730000Y-73630000D01*
X44270000Y-76370000D02*
X44270000Y-73630000D01*
X45040000Y-75000000D02*
X44270000Y-75000000D01*
%TO.C,R4*%
X23960000Y-54500000D02*
X24730000Y-54500000D01*
X24730000Y-53130000D02*
X24730000Y-55870000D01*
X24730000Y-55870000D02*
X31270000Y-55870000D01*
X31270000Y-53130000D02*
X24730000Y-53130000D01*
X31270000Y-55870000D02*
X31270000Y-53130000D01*
X32040000Y-54500000D02*
X31270000Y-54500000D01*
%TO.C,D1*%
X55030000Y-40160000D02*
X55030000Y-45600000D01*
X55030000Y-44580000D02*
X57970000Y-44580000D01*
X55030000Y-44700000D02*
X57970000Y-44700000D01*
X55030000Y-44820000D02*
X57970000Y-44820000D01*
X55030000Y-45600000D02*
X57970000Y-45600000D01*
X56500000Y-39140000D02*
X56500000Y-40160000D01*
X56500000Y-46620000D02*
X56500000Y-45600000D01*
X57970000Y-40160000D02*
X55030000Y-40160000D01*
X57970000Y-45600000D02*
X57970000Y-40160000D01*
%TO.C,J2*%
X22970000Y-61120000D02*
X22970000Y-68960000D01*
X22970000Y-63300000D02*
X23570000Y-63300000D01*
X22970000Y-65840000D02*
X23570000Y-65840000D01*
X22970000Y-68380000D02*
X23570000Y-68380000D01*
X22970000Y-68960000D02*
X28990000Y-68960000D01*
X23570000Y-61700000D02*
X22970000Y-61700000D01*
X23570000Y-63300000D02*
X23570000Y-61700000D01*
X23570000Y-64240000D02*
X22970000Y-64240000D01*
X23570000Y-65840000D02*
X23570000Y-64240000D01*
X23570000Y-66780000D02*
X22970000Y-66780000D01*
X23570000Y-68380000D02*
X23570000Y-66780000D01*
X24000000Y-69250000D02*
X28000000Y-69250000D01*
X27460000Y-62750000D02*
X27990000Y-62500000D01*
X27460000Y-67330000D02*
X27460000Y-62750000D01*
X27990000Y-62500000D02*
X28990000Y-62500000D01*
X27990000Y-67580000D02*
X27460000Y-67330000D01*
X27990000Y-67580000D02*
X27990000Y-62500000D01*
X28990000Y-61120000D02*
X22970000Y-61120000D01*
X28990000Y-62750000D02*
X27990000Y-62750000D01*
X28990000Y-67330000D02*
X27990000Y-67330000D01*
X28990000Y-67580000D02*
X27990000Y-67580000D01*
X28990000Y-68960000D02*
X28990000Y-61120000D01*
%TO.C,J4*%
X48290000Y-38500000D02*
X48290000Y-42500000D01*
X48580000Y-37470000D02*
X48580000Y-43490000D01*
X48580000Y-43490000D02*
X53880000Y-43490000D01*
X49160000Y-37470000D02*
X49160000Y-38070000D01*
X49160000Y-38070000D02*
X50760000Y-38070000D01*
X49960000Y-42490000D02*
X50210000Y-41960000D01*
X49960000Y-42490000D02*
X52500000Y-42490000D01*
X49960000Y-43490000D02*
X49960000Y-42490000D01*
X50210000Y-41960000D02*
X52250000Y-41960000D01*
X50210000Y-43490000D02*
X50210000Y-42490000D01*
X50760000Y-38070000D02*
X50760000Y-37470000D01*
X51700000Y-37470000D02*
X51700000Y-38070000D01*
X51700000Y-38070000D02*
X53300000Y-38070000D01*
X52250000Y-41960000D02*
X52500000Y-42490000D01*
X52250000Y-43490000D02*
X52250000Y-42490000D01*
X52500000Y-42490000D02*
X52500000Y-43490000D01*
X53300000Y-38070000D02*
X53300000Y-37470000D01*
X53880000Y-37470000D02*
X48580000Y-37470000D01*
X53880000Y-43490000D02*
X53880000Y-37470000D01*
%TO.C,C3*%
X21580000Y-52370000D02*
X21580000Y-48630000D01*
X28820000Y-48630000D02*
X21580000Y-48630000D01*
X28820000Y-52370000D02*
X21580000Y-52370000D01*
X28820000Y-52370000D02*
X28820000Y-48630000D01*
%TO.C,R11*%
X59630000Y-62730000D02*
X59630000Y-69270000D01*
X59630000Y-69270000D02*
X62370000Y-69270000D01*
X61000000Y-61960000D02*
X61000000Y-62730000D01*
X61000000Y-70040000D02*
X61000000Y-69270000D01*
X62370000Y-62730000D02*
X59630000Y-62730000D01*
X62370000Y-69270000D02*
X62370000Y-62730000D01*
%TO.C,U1*%
X37355000Y-58860000D02*
X37355000Y-69140000D01*
X37355000Y-69140000D02*
X42655000Y-69140000D01*
X39005000Y-58860000D02*
X37355000Y-58860000D01*
X42655000Y-58860000D02*
X41005000Y-58860000D01*
X42655000Y-69140000D02*
X42655000Y-58860000D01*
X41005000Y-58860000D02*
G75*
G02*
X39005000Y-58860000I-1000000J0D01*
G01*
%TO.C,C2*%
X22610000Y-45130000D02*
X22610000Y-45445000D01*
X22610000Y-45130000D02*
X27550000Y-45130000D01*
X22610000Y-47555000D02*
X22610000Y-47870000D01*
X22610000Y-47870000D02*
X27550000Y-47870000D01*
X27550000Y-45130000D02*
X27550000Y-45445000D01*
X27550000Y-47555000D02*
X27550000Y-47870000D01*
%TO.C,U2*%
X51040000Y-70170000D02*
X51040000Y-80450000D01*
X51040000Y-80450000D02*
X56340000Y-80450000D01*
X52690000Y-70170000D02*
X51040000Y-70170000D01*
X56340000Y-70170000D02*
X54690000Y-70170000D01*
X56340000Y-80450000D02*
X56340000Y-70170000D01*
X54690000Y-70170000D02*
G75*
G02*
X52690000Y-70170000I-1000000J0D01*
G01*
%TO.C,C1*%
X29930000Y-38230000D02*
X29945000Y-38230000D01*
X29930000Y-42770000D02*
X29930000Y-38230000D01*
X29930000Y-42770000D02*
X29945000Y-42770000D01*
X32055000Y-38230000D02*
X32070000Y-38230000D01*
X32055000Y-42770000D02*
X32070000Y-42770000D01*
X32070000Y-42770000D02*
X32070000Y-38230000D01*
%TO.C,J1*%
X32750000Y-38500000D02*
X32750000Y-42500000D01*
X33040000Y-37470000D02*
X33040000Y-43490000D01*
X33040000Y-43490000D02*
X40880000Y-43490000D01*
X33620000Y-37470000D02*
X33620000Y-38070000D01*
X33620000Y-38070000D02*
X35220000Y-38070000D01*
X34420000Y-42490000D02*
X34670000Y-41960000D01*
X34420000Y-42490000D02*
X39500000Y-42490000D01*
X34420000Y-43490000D02*
X34420000Y-42490000D01*
X34670000Y-41960000D02*
X39250000Y-41960000D01*
X34670000Y-43490000D02*
X34670000Y-42490000D01*
X35220000Y-38070000D02*
X35220000Y-37470000D01*
X36160000Y-37470000D02*
X36160000Y-38070000D01*
X36160000Y-38070000D02*
X37760000Y-38070000D01*
X37760000Y-38070000D02*
X37760000Y-37470000D01*
X38700000Y-37470000D02*
X38700000Y-38070000D01*
X38700000Y-38070000D02*
X40300000Y-38070000D01*
X39250000Y-41960000D02*
X39500000Y-42490000D01*
X39250000Y-43490000D02*
X39250000Y-42490000D01*
X39500000Y-42490000D02*
X39500000Y-43490000D01*
X40300000Y-38070000D02*
X40300000Y-37470000D01*
X40880000Y-37470000D02*
X33040000Y-37470000D01*
X40880000Y-43490000D02*
X40880000Y-37470000D01*
%TO.C,R6*%
X23460000Y-71500000D02*
X24230000Y-71500000D01*
X24230000Y-70130000D02*
X24230000Y-72870000D01*
X24230000Y-72870000D02*
X30770000Y-72870000D01*
X30770000Y-70130000D02*
X24230000Y-70130000D01*
X30770000Y-72870000D02*
X30770000Y-70130000D01*
X31540000Y-71500000D02*
X30770000Y-71500000D01*
%TO.C,C9*%
X61460000Y-57000000D02*
X59920000Y-57000000D01*
X61460000Y-57040000D02*
X59920000Y-57040000D01*
X61460000Y-57080000D02*
X59921000Y-57080000D01*
X61460000Y-57120000D02*
X59922000Y-57120000D01*
X61460000Y-57160000D02*
X59924000Y-57160000D01*
X61460000Y-57200000D02*
X59927000Y-57200000D01*
X61460000Y-57240000D02*
X59931000Y-57240000D01*
X61460000Y-57280000D02*
X59935000Y-57280000D01*
X61460000Y-57320000D02*
X59939000Y-57320000D01*
X61460000Y-57360000D02*
X59944000Y-57360000D01*
X61460000Y-57400000D02*
X59950000Y-57400000D01*
X61460000Y-57440000D02*
X59957000Y-57440000D01*
X61460000Y-57480000D02*
X59964000Y-57480000D01*
X61460000Y-57520000D02*
X59972000Y-57520000D01*
X61460000Y-57560000D02*
X59980000Y-57560000D01*
X61460000Y-57600000D02*
X59989000Y-57600000D01*
X61460000Y-57640000D02*
X59999000Y-57640000D01*
X61460000Y-57680000D02*
X60009000Y-57680000D01*
X61460000Y-57721000D02*
X60020000Y-57721000D01*
X61460000Y-57761000D02*
X60032000Y-57761000D01*
X61460000Y-57801000D02*
X60045000Y-57801000D01*
X61460000Y-57841000D02*
X60058000Y-57841000D01*
X61460000Y-57881000D02*
X60072000Y-57881000D01*
X61460000Y-57921000D02*
X60086000Y-57921000D01*
X61460000Y-57961000D02*
X60102000Y-57961000D01*
X61460000Y-58001000D02*
X60118000Y-58001000D01*
X61460000Y-58041000D02*
X60135000Y-58041000D01*
X61460000Y-58081000D02*
X60152000Y-58081000D01*
X61460000Y-58121000D02*
X60171000Y-58121000D01*
X61460000Y-58161000D02*
X60190000Y-58161000D01*
X61460000Y-58201000D02*
X60210000Y-58201000D01*
X61460000Y-58241000D02*
X60232000Y-58241000D01*
X61460000Y-58281000D02*
X60253000Y-58281000D01*
X61460000Y-58321000D02*
X60276000Y-58321000D01*
X61460000Y-58361000D02*
X60300000Y-58361000D01*
X61460000Y-58401000D02*
X60325000Y-58401000D01*
X61460000Y-58441000D02*
X60351000Y-58441000D01*
X61460000Y-58481000D02*
X60378000Y-58481000D01*
X61460000Y-58521000D02*
X60405000Y-58521000D01*
X61460000Y-58561000D02*
X60435000Y-58561000D01*
X61460000Y-58601000D02*
X60465000Y-58601000D01*
X61460000Y-58641000D02*
X60496000Y-58641000D01*
X61460000Y-58681000D02*
X60529000Y-58681000D01*
X61460000Y-58721000D02*
X60563000Y-58721000D01*
X61460000Y-58761000D02*
X60599000Y-58761000D01*
X61460000Y-58801000D02*
X60636000Y-58801000D01*
X61460000Y-58841000D02*
X60674000Y-58841000D01*
X61460000Y-58881000D02*
X60715000Y-58881000D01*
X61460000Y-58921000D02*
X60757000Y-58921000D01*
X61460000Y-58961000D02*
X60801000Y-58961000D01*
X61460000Y-59001000D02*
X60847000Y-59001000D01*
X62784000Y-59601000D02*
X62216000Y-59601000D01*
X63018000Y-59561000D02*
X61982000Y-59561000D01*
X63177000Y-59521000D02*
X61823000Y-59521000D01*
X63305000Y-59481000D02*
X61695000Y-59481000D01*
X63415000Y-59441000D02*
X61585000Y-59441000D01*
X63511000Y-59401000D02*
X61489000Y-59401000D01*
X63598000Y-59361000D02*
X61402000Y-59361000D01*
X63678000Y-59321000D02*
X61322000Y-59321000D01*
X63751000Y-59281000D02*
X61249000Y-59281000D01*
X63819000Y-59241000D02*
X61181000Y-59241000D01*
X63883000Y-59201000D02*
X61117000Y-59201000D01*
X63943000Y-59161000D02*
X61057000Y-59161000D01*
X63975000Y-54195225D02*
X63975000Y-54695225D01*
X64000000Y-59121000D02*
X61000000Y-59121000D01*
X64054000Y-59081000D02*
X60946000Y-59081000D01*
X64105000Y-59041000D02*
X60895000Y-59041000D01*
X64153000Y-59001000D02*
X63540000Y-59001000D01*
X64199000Y-58961000D02*
X63540000Y-58961000D01*
X64225000Y-54445225D02*
X63725000Y-54445225D01*
X64243000Y-58921000D02*
X63540000Y-58921000D01*
X64285000Y-58881000D02*
X63540000Y-58881000D01*
X64326000Y-58841000D02*
X63540000Y-58841000D01*
X64364000Y-58801000D02*
X63540000Y-58801000D01*
X64401000Y-58761000D02*
X63540000Y-58761000D01*
X64437000Y-58721000D02*
X63540000Y-58721000D01*
X64471000Y-58681000D02*
X63540000Y-58681000D01*
X64504000Y-58641000D02*
X63540000Y-58641000D01*
X64535000Y-58601000D02*
X63540000Y-58601000D01*
X64565000Y-58561000D02*
X63540000Y-58561000D01*
X64595000Y-58521000D02*
X63540000Y-58521000D01*
X64622000Y-58481000D02*
X63540000Y-58481000D01*
X64649000Y-58441000D02*
X63540000Y-58441000D01*
X64675000Y-58401000D02*
X63540000Y-58401000D01*
X64700000Y-58361000D02*
X63540000Y-58361000D01*
X64724000Y-58321000D02*
X63540000Y-58321000D01*
X64747000Y-58281000D02*
X63540000Y-58281000D01*
X64768000Y-58241000D02*
X63540000Y-58241000D01*
X64790000Y-58201000D02*
X63540000Y-58201000D01*
X64810000Y-58161000D02*
X63540000Y-58161000D01*
X64829000Y-58121000D02*
X63540000Y-58121000D01*
X64848000Y-58081000D02*
X63540000Y-58081000D01*
X64865000Y-58041000D02*
X63540000Y-58041000D01*
X64882000Y-58001000D02*
X63540000Y-58001000D01*
X64898000Y-57961000D02*
X63540000Y-57961000D01*
X64914000Y-57921000D02*
X63540000Y-57921000D01*
X64928000Y-57881000D02*
X63540000Y-57881000D01*
X64942000Y-57841000D02*
X63540000Y-57841000D01*
X64955000Y-57801000D02*
X63540000Y-57801000D01*
X64968000Y-57761000D02*
X63540000Y-57761000D01*
X64980000Y-57721000D02*
X63540000Y-57721000D01*
X64991000Y-57680000D02*
X63540000Y-57680000D01*
X65001000Y-57640000D02*
X63540000Y-57640000D01*
X65011000Y-57600000D02*
X63540000Y-57600000D01*
X65020000Y-57560000D02*
X63540000Y-57560000D01*
X65028000Y-57520000D02*
X63540000Y-57520000D01*
X65036000Y-57480000D02*
X63540000Y-57480000D01*
X65043000Y-57440000D02*
X63540000Y-57440000D01*
X65050000Y-57400000D02*
X63540000Y-57400000D01*
X65056000Y-57360000D02*
X63540000Y-57360000D01*
X65061000Y-57320000D02*
X63540000Y-57320000D01*
X65065000Y-57280000D02*
X63540000Y-57280000D01*
X65069000Y-57240000D02*
X63540000Y-57240000D01*
X65073000Y-57200000D02*
X63540000Y-57200000D01*
X65076000Y-57160000D02*
X63540000Y-57160000D01*
X65078000Y-57120000D02*
X63540000Y-57120000D01*
X65079000Y-57080000D02*
X63540000Y-57080000D01*
X65080000Y-57000000D02*
X63540000Y-57000000D01*
X65080000Y-57040000D02*
X63540000Y-57040000D01*
X65120000Y-57000000D02*
G75*
G02*
X59880000Y-57000000I-2620000J0D01*
G01*
X59880000Y-57000000D02*
G75*
G02*
X65120000Y-57000000I2620000J0D01*
G01*
%TO.C,C6*%
X50880000Y-54130000D02*
X50880000Y-57870000D01*
X50880000Y-54130000D02*
X58120000Y-54130000D01*
X50880000Y-57870000D02*
X58120000Y-57870000D01*
X58120000Y-54130000D02*
X58120000Y-57870000D01*
%TO.C,J5*%
X41790000Y-38500000D02*
X41790000Y-42500000D01*
X42080000Y-37470000D02*
X42080000Y-43490000D01*
X42080000Y-43490000D02*
X47380000Y-43490000D01*
X42660000Y-37470000D02*
X42660000Y-38070000D01*
X42660000Y-38070000D02*
X44260000Y-38070000D01*
X43460000Y-42490000D02*
X43710000Y-41960000D01*
X43460000Y-42490000D02*
X46000000Y-42490000D01*
X43460000Y-43490000D02*
X43460000Y-42490000D01*
X43710000Y-41960000D02*
X45750000Y-41960000D01*
X43710000Y-43490000D02*
X43710000Y-42490000D01*
X44260000Y-38070000D02*
X44260000Y-37470000D01*
X45200000Y-37470000D02*
X45200000Y-38070000D01*
X45200000Y-38070000D02*
X46800000Y-38070000D01*
X45750000Y-41960000D02*
X46000000Y-42490000D01*
X45750000Y-43490000D02*
X45750000Y-42490000D01*
X46000000Y-42490000D02*
X46000000Y-43490000D01*
X46800000Y-38070000D02*
X46800000Y-37470000D01*
X47380000Y-37470000D02*
X42080000Y-37470000D01*
X47380000Y-43490000D02*
X47380000Y-37470000D01*
%TO.C,R10*%
X23460000Y-75000000D02*
X24230000Y-75000000D01*
X24230000Y-73630000D02*
X24230000Y-76370000D01*
X24230000Y-76370000D02*
X30770000Y-76370000D01*
X30770000Y-73630000D02*
X24230000Y-73630000D01*
X30770000Y-76370000D02*
X30770000Y-73630000D01*
X31540000Y-75000000D02*
X30770000Y-75000000D01*
%TO.C,R2*%
X44460000Y-46500000D02*
X45230000Y-46500000D01*
X45230000Y-45130000D02*
X45230000Y-47870000D01*
X45230000Y-47870000D02*
X51770000Y-47870000D01*
X51770000Y-45130000D02*
X45230000Y-45130000D01*
X51770000Y-47870000D02*
X51770000Y-45130000D01*
X52540000Y-46500000D02*
X51770000Y-46500000D01*
%TO.C,Q1*%
X36200000Y-57620000D02*
X39800000Y-57620000D01*
X36188125Y-57611741D02*
G75*
G02*
X37180000Y-53320000I1811875J1841741D01*
G01*
X38780000Y-53320000D02*
G75*
G02*
X39808445Y-57597684I-780000J-2450000D01*
G01*
%TO.C,R3*%
X31340000Y-50200000D02*
X32110000Y-50200000D01*
X32110000Y-48830000D02*
X32110000Y-51570000D01*
X32110000Y-51570000D02*
X38650000Y-51570000D01*
X38650000Y-48830000D02*
X32110000Y-48830000D01*
X38650000Y-51570000D02*
X38650000Y-48830000D01*
X39420000Y-50200000D02*
X38650000Y-50200000D01*
%TO.C,R7*%
X36960000Y-71500000D02*
X37730000Y-71500000D01*
X37730000Y-70130000D02*
X37730000Y-72870000D01*
X37730000Y-72870000D02*
X44270000Y-72870000D01*
X44270000Y-70130000D02*
X37730000Y-70130000D01*
X44270000Y-72870000D02*
X44270000Y-70130000D01*
X45040000Y-71500000D02*
X44270000Y-71500000D01*
%TO.C,R1*%
X31540000Y-46500000D02*
X32310000Y-46500000D01*
X32310000Y-45130000D02*
X32310000Y-47870000D01*
X32310000Y-47870000D02*
X38850000Y-47870000D01*
X38850000Y-45130000D02*
X32310000Y-45130000D01*
X38850000Y-47870000D02*
X38850000Y-45130000D01*
X39620000Y-46500000D02*
X38850000Y-46500000D01*
%TO.C,R13*%
X59630000Y-75730000D02*
X59630000Y-82270000D01*
X59630000Y-82270000D02*
X62370000Y-82270000D01*
X61000000Y-74960000D02*
X61000000Y-75730000D01*
X61000000Y-83040000D02*
X61000000Y-82270000D01*
X62370000Y-75730000D02*
X59630000Y-75730000D01*
X62370000Y-82270000D02*
X62370000Y-75730000D01*
%TO.C,R8*%
X46130000Y-60310000D02*
X46130000Y-66850000D01*
X46130000Y-66850000D02*
X48870000Y-66850000D01*
X47500000Y-59540000D02*
X47500000Y-60310000D01*
X47500000Y-67620000D02*
X47500000Y-66850000D01*
X48870000Y-60310000D02*
X46130000Y-60310000D01*
X48870000Y-66850000D02*
X48870000Y-60310000D01*
%TO.C,C8*%
X42960000Y-80000000D02*
X41420000Y-80000000D01*
X42960000Y-80040000D02*
X41420000Y-80040000D01*
X42960000Y-80080000D02*
X41421000Y-80080000D01*
X42960000Y-80120000D02*
X41422000Y-80120000D01*
X42960000Y-80160000D02*
X41424000Y-80160000D01*
X42960000Y-80200000D02*
X41427000Y-80200000D01*
X42960000Y-80240000D02*
X41431000Y-80240000D01*
X42960000Y-80280000D02*
X41435000Y-80280000D01*
X42960000Y-80320000D02*
X41439000Y-80320000D01*
X42960000Y-80360000D02*
X41444000Y-80360000D01*
X42960000Y-80400000D02*
X41450000Y-80400000D01*
X42960000Y-80440000D02*
X41457000Y-80440000D01*
X42960000Y-80480000D02*
X41464000Y-80480000D01*
X42960000Y-80520000D02*
X41472000Y-80520000D01*
X42960000Y-80560000D02*
X41480000Y-80560000D01*
X42960000Y-80600000D02*
X41489000Y-80600000D01*
X42960000Y-80640000D02*
X41499000Y-80640000D01*
X42960000Y-80680000D02*
X41509000Y-80680000D01*
X42960000Y-80721000D02*
X41520000Y-80721000D01*
X42960000Y-80761000D02*
X41532000Y-80761000D01*
X42960000Y-80801000D02*
X41545000Y-80801000D01*
X42960000Y-80841000D02*
X41558000Y-80841000D01*
X42960000Y-80881000D02*
X41572000Y-80881000D01*
X42960000Y-80921000D02*
X41586000Y-80921000D01*
X42960000Y-80961000D02*
X41602000Y-80961000D01*
X42960000Y-81001000D02*
X41618000Y-81001000D01*
X42960000Y-81041000D02*
X41635000Y-81041000D01*
X42960000Y-81081000D02*
X41652000Y-81081000D01*
X42960000Y-81121000D02*
X41671000Y-81121000D01*
X42960000Y-81161000D02*
X41690000Y-81161000D01*
X42960000Y-81201000D02*
X41710000Y-81201000D01*
X42960000Y-81241000D02*
X41732000Y-81241000D01*
X42960000Y-81281000D02*
X41753000Y-81281000D01*
X42960000Y-81321000D02*
X41776000Y-81321000D01*
X42960000Y-81361000D02*
X41800000Y-81361000D01*
X42960000Y-81401000D02*
X41825000Y-81401000D01*
X42960000Y-81441000D02*
X41851000Y-81441000D01*
X42960000Y-81481000D02*
X41878000Y-81481000D01*
X42960000Y-81521000D02*
X41905000Y-81521000D01*
X42960000Y-81561000D02*
X41935000Y-81561000D01*
X42960000Y-81601000D02*
X41965000Y-81601000D01*
X42960000Y-81641000D02*
X41996000Y-81641000D01*
X42960000Y-81681000D02*
X42029000Y-81681000D01*
X42960000Y-81721000D02*
X42063000Y-81721000D01*
X42960000Y-81761000D02*
X42099000Y-81761000D01*
X42960000Y-81801000D02*
X42136000Y-81801000D01*
X42960000Y-81841000D02*
X42174000Y-81841000D01*
X42960000Y-81881000D02*
X42215000Y-81881000D01*
X42960000Y-81921000D02*
X42257000Y-81921000D01*
X42960000Y-81961000D02*
X42301000Y-81961000D01*
X42960000Y-82001000D02*
X42347000Y-82001000D01*
X44284000Y-82601000D02*
X43716000Y-82601000D01*
X44518000Y-82561000D02*
X43482000Y-82561000D01*
X44677000Y-82521000D02*
X43323000Y-82521000D01*
X44805000Y-82481000D02*
X43195000Y-82481000D01*
X44915000Y-82441000D02*
X43085000Y-82441000D01*
X45011000Y-82401000D02*
X42989000Y-82401000D01*
X45098000Y-82361000D02*
X42902000Y-82361000D01*
X45178000Y-82321000D02*
X42822000Y-82321000D01*
X45251000Y-82281000D02*
X42749000Y-82281000D01*
X45319000Y-82241000D02*
X42681000Y-82241000D01*
X45383000Y-82201000D02*
X42617000Y-82201000D01*
X45443000Y-82161000D02*
X42557000Y-82161000D01*
X45475000Y-77195225D02*
X45475000Y-77695225D01*
X45500000Y-82121000D02*
X42500000Y-82121000D01*
X45554000Y-82081000D02*
X42446000Y-82081000D01*
X45605000Y-82041000D02*
X42395000Y-82041000D01*
X45653000Y-82001000D02*
X45040000Y-82001000D01*
X45699000Y-81961000D02*
X45040000Y-81961000D01*
X45725000Y-77445225D02*
X45225000Y-77445225D01*
X45743000Y-81921000D02*
X45040000Y-81921000D01*
X45785000Y-81881000D02*
X45040000Y-81881000D01*
X45826000Y-81841000D02*
X45040000Y-81841000D01*
X45864000Y-81801000D02*
X45040000Y-81801000D01*
X45901000Y-81761000D02*
X45040000Y-81761000D01*
X45937000Y-81721000D02*
X45040000Y-81721000D01*
X45971000Y-81681000D02*
X45040000Y-81681000D01*
X46004000Y-81641000D02*
X45040000Y-81641000D01*
X46035000Y-81601000D02*
X45040000Y-81601000D01*
X46065000Y-81561000D02*
X45040000Y-81561000D01*
X46095000Y-81521000D02*
X45040000Y-81521000D01*
X46122000Y-81481000D02*
X45040000Y-81481000D01*
X46149000Y-81441000D02*
X45040000Y-81441000D01*
X46175000Y-81401000D02*
X45040000Y-81401000D01*
X46200000Y-81361000D02*
X45040000Y-81361000D01*
X46224000Y-81321000D02*
X45040000Y-81321000D01*
X46247000Y-81281000D02*
X45040000Y-81281000D01*
X46268000Y-81241000D02*
X45040000Y-81241000D01*
X46290000Y-81201000D02*
X45040000Y-81201000D01*
X46310000Y-81161000D02*
X45040000Y-81161000D01*
X46329000Y-81121000D02*
X45040000Y-81121000D01*
X46348000Y-81081000D02*
X45040000Y-81081000D01*
X46365000Y-81041000D02*
X45040000Y-81041000D01*
X46382000Y-81001000D02*
X45040000Y-81001000D01*
X46398000Y-80961000D02*
X45040000Y-80961000D01*
X46414000Y-80921000D02*
X45040000Y-80921000D01*
X46428000Y-80881000D02*
X45040000Y-80881000D01*
X46442000Y-80841000D02*
X45040000Y-80841000D01*
X46455000Y-80801000D02*
X45040000Y-80801000D01*
X46468000Y-80761000D02*
X45040000Y-80761000D01*
X46480000Y-80721000D02*
X45040000Y-80721000D01*
X46491000Y-80680000D02*
X45040000Y-80680000D01*
X46501000Y-80640000D02*
X45040000Y-80640000D01*
X46511000Y-80600000D02*
X45040000Y-80600000D01*
X46520000Y-80560000D02*
X45040000Y-80560000D01*
X46528000Y-80520000D02*
X45040000Y-80520000D01*
X46536000Y-80480000D02*
X45040000Y-80480000D01*
X46543000Y-80440000D02*
X45040000Y-80440000D01*
X46550000Y-80400000D02*
X45040000Y-80400000D01*
X46556000Y-80360000D02*
X45040000Y-80360000D01*
X46561000Y-80320000D02*
X45040000Y-80320000D01*
X46565000Y-80280000D02*
X45040000Y-80280000D01*
X46569000Y-80240000D02*
X45040000Y-80240000D01*
X46573000Y-80200000D02*
X45040000Y-80200000D01*
X46576000Y-80160000D02*
X45040000Y-80160000D01*
X46578000Y-80120000D02*
X45040000Y-80120000D01*
X46579000Y-80080000D02*
X45040000Y-80080000D01*
X46580000Y-80000000D02*
X45040000Y-80000000D01*
X46580000Y-80040000D02*
X45040000Y-80040000D01*
X46620000Y-80000000D02*
G75*
G02*
X41380000Y-80000000I-2620000J0D01*
G01*
X41380000Y-80000000D02*
G75*
G02*
X46620000Y-80000000I2620000J0D01*
G01*
%TO.C,C5*%
X21880000Y-60370000D02*
X21880000Y-56630000D01*
X29120000Y-56630000D02*
X21880000Y-56630000D01*
X29120000Y-60370000D02*
X21880000Y-60370000D01*
X29120000Y-60370000D02*
X29120000Y-56630000D01*
%TO.C,R9*%
X48960000Y-83500000D02*
X49730000Y-83500000D01*
X49730000Y-82130000D02*
X49730000Y-84870000D01*
X49730000Y-84870000D02*
X56270000Y-84870000D01*
X56270000Y-82130000D02*
X49730000Y-82130000D01*
X56270000Y-84870000D02*
X56270000Y-82130000D01*
X57040000Y-83500000D02*
X56270000Y-83500000D01*
%TO.C,J3*%
X51010000Y-60620000D02*
X51010000Y-68460000D01*
X51010000Y-62000000D02*
X52010000Y-62000000D01*
X51010000Y-62250000D02*
X52010000Y-62250000D01*
X51010000Y-66830000D02*
X52010000Y-66830000D01*
X51010000Y-68460000D02*
X57030000Y-68460000D01*
X52010000Y-62000000D02*
X52010000Y-67080000D01*
X52010000Y-62000000D02*
X52540000Y-62250000D01*
X52010000Y-67080000D02*
X51010000Y-67080000D01*
X52540000Y-62250000D02*
X52540000Y-66830000D01*
X52540000Y-66830000D02*
X52010000Y-67080000D01*
X56000000Y-60330000D02*
X52000000Y-60330000D01*
X56430000Y-61200000D02*
X56430000Y-62800000D01*
X56430000Y-62800000D02*
X57030000Y-62800000D01*
X56430000Y-63740000D02*
X56430000Y-65340000D01*
X56430000Y-65340000D02*
X57030000Y-65340000D01*
X56430000Y-66280000D02*
X56430000Y-67880000D01*
X56430000Y-67880000D02*
X57030000Y-67880000D01*
X57030000Y-60620000D02*
X51010000Y-60620000D01*
X57030000Y-61200000D02*
X56430000Y-61200000D01*
X57030000Y-63740000D02*
X56430000Y-63740000D01*
X57030000Y-66280000D02*
X56430000Y-66280000D01*
X57030000Y-68460000D02*
X57030000Y-60620000D01*
%TO.C,C4*%
X44030000Y-54130000D02*
X44030000Y-54445000D01*
X44030000Y-54130000D02*
X48970000Y-54130000D01*
X44030000Y-56555000D02*
X44030000Y-56870000D01*
X44030000Y-56870000D02*
X48970000Y-56870000D01*
X48970000Y-54130000D02*
X48970000Y-54445000D01*
X48970000Y-56555000D02*
X48970000Y-56870000D01*
D13*
%TO.C,SW1*%
X41600000Y-52150000D02*
X41600000Y-49650000D01*
X45650000Y-48650000D02*
X42600000Y-48650000D01*
X45650000Y-53150000D02*
X42600000Y-53150000D01*
X48300000Y-49300000D02*
X48300000Y-52500000D01*
X54500000Y-49300000D02*
X48300000Y-49300000D01*
X54500000Y-49300000D02*
X54500000Y-52500000D01*
X54500000Y-52500000D02*
X48300000Y-52500000D01*
X56650000Y-48150000D02*
X46150000Y-48150000D01*
X56650000Y-53650000D02*
X46150000Y-53650000D01*
X60200000Y-48650000D02*
X57150000Y-48650000D01*
X60200000Y-53150000D02*
X57150000Y-53150000D01*
X61200000Y-52150000D02*
X61200000Y-49650000D01*
X41600000Y-49650000D02*
G75*
G02*
X42600000Y-48650000I1000000J0D01*
G01*
X42600000Y-53150000D02*
G75*
G02*
X41600000Y-52150000I0J1000000D01*
G01*
X45650000Y-48650000D02*
G75*
G02*
X46150000Y-48150000I500000J0D01*
G01*
X46150000Y-53650000D02*
G75*
G02*
X45650000Y-53150000I0J500000D01*
G01*
X56650000Y-48150000D02*
G75*
G02*
X57150000Y-48650000I-1J-500001D01*
G01*
X57150000Y-53150000D02*
G75*
G02*
X56650000Y-53650000I-500001J1D01*
G01*
X60200000Y-48650000D02*
G75*
G02*
X61200000Y-49650000I1J-999999D01*
G01*
X61200000Y-52150000D02*
G75*
G02*
X60200000Y-53150000I-999999J-1D01*
G01*
X45000000Y-50900000D02*
G75*
G02*
X42800000Y-50900000I-1100000J0D01*
G01*
X42800000Y-50900000D02*
G75*
G02*
X45000000Y-50900000I1100000J0D01*
G01*
X60000000Y-50900000D02*
G75*
G02*
X57800000Y-50900000I-1100000J0D01*
G01*
X57800000Y-50900000D02*
G75*
G02*
X60000000Y-50900000I1100000J0D01*
G01*
%TD*%
M02*
