%TF.GenerationSoftware,KiCad,Pcbnew,9.0.0*%
%TF.CreationDate,2025-09-11T11:48:57+01:00*%
%TF.ProjectId,GuitarMixer,47756974-6172-44d6-9978-65722e6b6963,rev?*%
%TF.SameCoordinates,Original*%
%TF.FileFunction,Copper,L2,Bot*%
%TF.FilePolarity,Positive*%
%FSLAX46Y46*%
G04 Gerber Fmt 4.6, Leading zero omitted, Abs format (unit mm)*
G04 Created by KiCad (PCBNEW 9.0.0) date 2025-09-11 11:48:57*
%MOMM*%
%LPD*%
G01*
G04 APERTURE LIST*
G04 Aperture macros list*
%AMRoundRect*
0 Rectangle with rounded corners*
0 $1 Rounding radius*
0 $2 $3 $4 $5 $6 $7 $8 $9 X,Y pos of 4 corners*
0 Add a 4 corners polygon primitive as box body*
4,1,4,$2,$3,$4,$5,$6,$7,$8,$9,$2,$3,0*
0 Add four circle primitives for the rounded corners*
1,1,$1+$1,$2,$3*
1,1,$1+$1,$4,$5*
1,1,$1+$1,$6,$7*
1,1,$1+$1,$8,$9*
0 Add four rect primitives between the rounded corners*
20,1,$1+$1,$2,$3,$4,$5,0*
20,1,$1+$1,$4,$5,$6,$7,0*
20,1,$1+$1,$6,$7,$8,$9,0*
20,1,$1+$1,$8,$9,$2,$3,0*%
G04 Aperture macros list end*
%TA.AperFunction,ComponentPad*%
%ADD10C,1.600000*%
%TD*%
%TA.AperFunction,ComponentPad*%
%ADD11O,1.600000X1.600000*%
%TD*%
%TA.AperFunction,ComponentPad*%
%ADD12R,1.800000X1.100000*%
%TD*%
%TA.AperFunction,ComponentPad*%
%ADD13RoundRect,0.275000X-0.625000X0.275000X-0.625000X-0.275000X0.625000X-0.275000X0.625000X0.275000X0*%
%TD*%
%TA.AperFunction,ComponentPad*%
%ADD14RoundRect,0.250000X-0.550000X-0.550000X0.550000X-0.550000X0.550000X0.550000X-0.550000X0.550000X0*%
%TD*%
%TA.AperFunction,ComponentPad*%
%ADD15RoundRect,0.250000X0.620000X0.845000X-0.620000X0.845000X-0.620000X-0.845000X0.620000X-0.845000X0*%
%TD*%
%TA.AperFunction,ComponentPad*%
%ADD16O,1.740000X2.190000*%
%TD*%
%TA.AperFunction,ComponentPad*%
%ADD17RoundRect,0.250000X-0.620000X-0.845000X0.620000X-0.845000X0.620000X0.845000X-0.620000X0.845000X0*%
%TD*%
%TA.AperFunction,ComponentPad*%
%ADD18RoundRect,0.250000X0.845000X-0.620000X0.845000X0.620000X-0.845000X0.620000X-0.845000X-0.620000X0*%
%TD*%
%TA.AperFunction,ComponentPad*%
%ADD19O,2.190000X1.740000*%
%TD*%
%TA.AperFunction,ComponentPad*%
%ADD20R,1.600000X1.600000*%
%TD*%
%TA.AperFunction,ComponentPad*%
%ADD21O,2.000000X2.500000*%
%TD*%
%TA.AperFunction,ComponentPad*%
%ADD22R,2.200000X2.200000*%
%TD*%
%TA.AperFunction,ComponentPad*%
%ADD23O,2.200000X2.200000*%
%TD*%
%TA.AperFunction,ViaPad*%
%ADD24C,0.600000*%
%TD*%
%TA.AperFunction,Conductor*%
%ADD25C,1.000000*%
%TD*%
G04 APERTURE END LIST*
D10*
%TO.P,RT4,1*%
%TO.N,Net-(CT11-Pad2)*%
X104220000Y-95500000D03*
D11*
%TO.P,RT4,2*%
%TO.N,Net-(C6-Pad1)*%
X114380000Y-95500000D03*
%TD*%
D10*
%TO.P,CT3,1*%
%TO.N,Net-(U1B-+)*%
X84940000Y-64980000D03*
%TO.P,CT3,2*%
%TO.N,Earth*%
X84940000Y-59980000D03*
%TD*%
%TO.P,CT5,1*%
%TO.N,+4V*%
X50600000Y-107500000D03*
%TO.P,CT5,2*%
%TO.N,Earth*%
X50600000Y-102500000D03*
%TD*%
D12*
%TO.P,Q1,1,S*%
%TO.N,Net-(Q1-S)*%
X69500000Y-51800000D03*
D13*
%TO.P,Q1,2,D*%
%TO.N,+9VA*%
X71570000Y-53070000D03*
%TO.P,Q1,3,G*%
%TO.N,Net-(JP8-A)*%
X69500000Y-54340000D03*
%TD*%
D14*
%TO.P,U3,1*%
%TO.N,Net-(RT7-Pad1)*%
X107880000Y-102420000D03*
D10*
%TO.P,U3,2,-*%
%TO.N,Net-(U3A--)*%
X107880000Y-104960000D03*
%TO.P,U3,3,+*%
%TO.N,Net-(JP5-A)*%
X107880000Y-107500000D03*
%TO.P,U3,4,V-*%
%TO.N,GND*%
X107880000Y-110040000D03*
%TO.P,U3,5*%
%TO.N,N/C*%
X115500000Y-110040000D03*
%TO.P,U3,6*%
X115500000Y-107500000D03*
%TO.P,U3,7*%
X115500000Y-104960000D03*
%TO.P,U3,8,V+*%
%TO.N,+9VA*%
X115500000Y-102420000D03*
%TD*%
D15*
%TO.P,J6,1,Pin_1*%
%TO.N,Net-(J6-Pin_1)*%
X84600000Y-93000000D03*
D16*
%TO.P,J6,2,Pin_2*%
X82060000Y-93000000D03*
%TO.P,J6,3,Pin_3*%
%TO.N,Net-(J6-Pin_3)*%
X79520000Y-93000000D03*
%TD*%
D10*
%TO.P,R2,1*%
%TO.N,Net-(SW1-B)*%
X50400000Y-69060000D03*
D11*
%TO.P,R2,2*%
%TO.N,Earth*%
X50400000Y-79220000D03*
%TD*%
D14*
%TO.P,U2,1*%
%TO.N,Net-(JP6-A)*%
X59300000Y-101000000D03*
D10*
%TO.P,U2,2,-*%
%TO.N,Net-(JP5-A)*%
X59300000Y-103540000D03*
%TO.P,U2,3,+*%
%TO.N,+4V*%
X59300000Y-106080000D03*
%TO.P,U2,4,V-*%
%TO.N,GND*%
X59300000Y-108620000D03*
%TO.P,U2,5,+*%
%TO.N,+4V*%
X66920000Y-108620000D03*
%TO.P,U2,6,-*%
%TO.N,Net-(J6-Pin_1)*%
X66920000Y-106080000D03*
%TO.P,U2,7*%
%TO.N,Net-(C9-Pad1)*%
X66920000Y-103540000D03*
%TO.P,U2,8,V+*%
%TO.N,+9VA*%
X66920000Y-101000000D03*
%TD*%
%TO.P,R6,1*%
%TO.N,Net-(C4-Pad2)*%
X67700000Y-86920000D03*
D11*
%TO.P,R6,2*%
%TO.N,Earth*%
X67700000Y-76760000D03*
%TD*%
D17*
%TO.P,J5,1,Pin_1*%
%TO.N,Earth*%
X132730000Y-95620000D03*
D16*
%TO.P,J5,2,Pin_2*%
%TO.N,Net-(J5-Pin_2)*%
X135270000Y-95620000D03*
%TD*%
D10*
%TO.P,R8,1*%
%TO.N,+4V*%
X71200000Y-124780000D03*
D11*
%TO.P,R8,2*%
%TO.N,+9VA*%
X71200000Y-114620000D03*
%TD*%
D10*
%TO.P,RT8,1*%
%TO.N,Earth*%
X100400000Y-93340000D03*
D11*
%TO.P,RT8,2*%
%TO.N,Net-(U3A--)*%
X100400000Y-103500000D03*
%TD*%
D10*
%TO.P,CT8,1*%
%TO.N,Net-(CT8-Pad1)*%
X112300000Y-53500000D03*
%TO.P,CT8,2*%
%TO.N,Net-(JP5-A)*%
X107300000Y-53500000D03*
%TD*%
%TO.P,C1,1*%
%TO.N,Net-(J1-Pin_3)*%
X58300000Y-55040000D03*
%TO.P,C1,2*%
%TO.N,Earth*%
X58300000Y-60040000D03*
%TD*%
%TO.P,R4,1*%
%TO.N,Net-(C3-Pad2)*%
X72920000Y-66140000D03*
D11*
%TO.P,R4,2*%
%TO.N,Net-(R4-Pad2)*%
X72920000Y-76300000D03*
%TD*%
D18*
%TO.P,J4,1,Pin_1*%
%TO.N,GND*%
X53100000Y-120960000D03*
D19*
%TO.P,J4,2,Pin_2*%
%TO.N,+9V*%
X53100000Y-118420000D03*
%TD*%
D15*
%TO.P,J3,1,Pin_1*%
%TO.N,Earth*%
X121200000Y-88940000D03*
D16*
%TO.P,J3,2,Pin_2*%
%TO.N,Net-(J3-Pin_2)*%
X118660000Y-88940000D03*
%TO.P,J3,3,Pin_3*%
%TO.N,Net-(J3-Pin_3)*%
X116120000Y-88940000D03*
%TD*%
D10*
%TO.P,RT2,1*%
%TO.N,Net-(U1A--)*%
X90800000Y-74400000D03*
D11*
%TO.P,RT2,2*%
%TO.N,Net-(C5-Pad1)*%
X90800000Y-84560000D03*
%TD*%
D10*
%TO.P,RT1,1*%
%TO.N,Net-(R4-Pad2)*%
X77800000Y-76340000D03*
D11*
%TO.P,RT1,2*%
%TO.N,Net-(JP2-A)*%
X77800000Y-66180000D03*
%TD*%
D10*
%TO.P,R10,1*%
%TO.N,Net-(JP5-A)*%
X55400000Y-104700000D03*
D11*
%TO.P,R10,2*%
%TO.N,Net-(JP6-A)*%
X55400000Y-94540000D03*
%TD*%
D10*
%TO.P,R9,1*%
%TO.N,GND*%
X66000000Y-124780000D03*
D11*
%TO.P,R9,2*%
%TO.N,+4V*%
X66000000Y-114620000D03*
%TD*%
D10*
%TO.P,RT3,1*%
%TO.N,Net-(C4-Pad2)*%
X73000000Y-80040000D03*
D11*
%TO.P,RT3,2*%
%TO.N,Net-(U1B-+)*%
X73000000Y-90200000D03*
%TD*%
D10*
%TO.P,R1,1*%
%TO.N,Net-(JP8-A)*%
X62900000Y-51840000D03*
D11*
%TO.P,R1,2*%
%TO.N,Net-(SW1-B)*%
X62900000Y-62000000D03*
%TD*%
D10*
%TO.P,RT5,1*%
%TO.N,Net-(JP2-B)*%
X137700000Y-70040000D03*
D11*
%TO.P,RT5,2*%
%TO.N,Net-(CT9-Pad2)*%
X137700000Y-80200000D03*
%TD*%
D10*
%TO.P,R7,1*%
%TO.N,Net-(CT7-Pad2)*%
X121400000Y-69800000D03*
D11*
%TO.P,R7,2*%
%TO.N,Net-(CT8-Pad1)*%
X121400000Y-59640000D03*
%TD*%
D10*
%TO.P,RT9,1*%
%TO.N,Net-(RT7-Pad1)*%
X95400000Y-103500000D03*
D11*
%TO.P,RT9,2*%
%TO.N,Net-(U3A--)*%
X95400000Y-93340000D03*
%TD*%
D18*
%TO.P,J1,1,Pin_1*%
%TO.N,Earth*%
X50100000Y-61120000D03*
D19*
%TO.P,J1,2,Pin_2*%
%TO.N,Net-(J1-Pin_2)*%
X50100000Y-58580000D03*
%TO.P,J1,3,Pin_3*%
%TO.N,Net-(J1-Pin_3)*%
X50100000Y-56040000D03*
%TD*%
D10*
%TO.P,CT6,1*%
%TO.N,Net-(J2-Pin_2)*%
X108100000Y-59700000D03*
%TO.P,CT6,2*%
%TO.N,Net-(CT6-Pad2)*%
X108100000Y-64700000D03*
%TD*%
D20*
%TO.P,C9,1*%
%TO.N,Net-(C9-Pad1)*%
X81500000Y-103800000D03*
D10*
%TO.P,C9,2*%
%TO.N,Net-(JP7-A)*%
X83500000Y-103800000D03*
%TD*%
%TO.P,CT7,1*%
%TO.N,Net-(J3-Pin_2)*%
X121500000Y-79540000D03*
%TO.P,CT7,2*%
%TO.N,Net-(CT7-Pad2)*%
X121500000Y-74540000D03*
%TD*%
%TO.P,C3,1*%
%TO.N,Net-(Q1-S)*%
X68000000Y-72640000D03*
%TO.P,C3,2*%
%TO.N,Net-(C3-Pad2)*%
X68000000Y-67640000D03*
%TD*%
%TO.P,CT11,1*%
%TO.N,Net-(U1B--)*%
X113300000Y-79540000D03*
%TO.P,CT11,2*%
%TO.N,Net-(CT11-Pad2)*%
X113300000Y-74540000D03*
%TD*%
%TO.P,CT9,1*%
%TO.N,Net-(J5-Pin_2)*%
X137700000Y-89100000D03*
%TO.P,CT9,2*%
%TO.N,Net-(CT9-Pad2)*%
X137700000Y-84100000D03*
%TD*%
%TO.P,R12,1*%
%TO.N,Net-(J6-Pin_3)*%
X61540000Y-94700000D03*
D11*
%TO.P,R12,2*%
%TO.N,Net-(JP6-A)*%
X71700000Y-94700000D03*
%TD*%
D10*
%TO.P,RT6,1*%
%TO.N,Net-(U1B--)*%
X107600000Y-80940000D03*
D11*
%TO.P,RT6,2*%
%TO.N,Net-(CT11-Pad2)*%
X107600000Y-70780000D03*
%TD*%
D10*
%TO.P,CT10,1*%
%TO.N,Net-(JP5-A)*%
X50600000Y-98500000D03*
%TO.P,CT10,2*%
%TO.N,Net-(JP6-A)*%
X50600000Y-93500000D03*
%TD*%
%TO.P,R5,1*%
%TO.N,Net-(CT6-Pad2)*%
X115200000Y-69800000D03*
D11*
%TO.P,R5,2*%
%TO.N,Net-(CT8-Pad1)*%
X115200000Y-59640000D03*
%TD*%
D20*
%TO.P,C7,1*%
%TO.N,+9VA*%
X51344888Y-128620000D03*
D10*
%TO.P,C7,2*%
%TO.N,GND*%
X53344888Y-128620000D03*
%TD*%
D20*
%TO.P,C8,1*%
%TO.N,+4V*%
X58644888Y-130620000D03*
D10*
%TO.P,C8,2*%
%TO.N,GND*%
X60644888Y-130620000D03*
%TD*%
%TO.P,C2,1*%
%TO.N,Net-(J1-Pin_3)*%
X53500000Y-51800000D03*
%TO.P,C2,2*%
%TO.N,Net-(JP8-A)*%
X58500000Y-51800000D03*
%TD*%
%TO.P,R11,1*%
%TO.N,Net-(J6-Pin_1)*%
X73100000Y-110580000D03*
D11*
%TO.P,R11,2*%
%TO.N,Net-(C9-Pad1)*%
X73100000Y-100420000D03*
%TD*%
D10*
%TO.P,RT7,1*%
%TO.N,Net-(RT7-Pad1)*%
X101280000Y-109700000D03*
D11*
%TO.P,RT7,2*%
%TO.N,Net-(C9-Pad1)*%
X91120000Y-109700000D03*
%TD*%
D10*
%TO.P,CT1,1*%
%TO.N,Net-(JP2-A)*%
X84100000Y-71700000D03*
%TO.P,CT1,2*%
%TO.N,Earth*%
X84100000Y-76700000D03*
%TD*%
%TO.P,C6,1*%
%TO.N,Net-(C6-Pad1)*%
X107500000Y-88700000D03*
%TO.P,C6,2*%
%TO.N,Net-(J3-Pin_3)*%
X112500000Y-88700000D03*
%TD*%
%TO.P,CT2,1*%
%TO.N,Net-(C5-Pad1)*%
X84300000Y-85300000D03*
%TO.P,CT2,2*%
%TO.N,Earth*%
X84300000Y-80300000D03*
%TD*%
D14*
%TO.P,U1,1*%
%TO.N,Net-(U1A--)*%
X95100000Y-71900000D03*
D10*
%TO.P,U1,2,-*%
X95100000Y-74440000D03*
%TO.P,U1,3,+*%
%TO.N,Net-(JP2-A)*%
X95100000Y-76980000D03*
%TO.P,U1,4,V-*%
%TO.N,GND*%
X95100000Y-79520000D03*
%TO.P,U1,5,+*%
%TO.N,Net-(U1B-+)*%
X102720000Y-79520000D03*
%TO.P,U1,6,-*%
%TO.N,Net-(U1B--)*%
X102720000Y-76980000D03*
%TO.P,U1,7*%
%TO.N,Net-(CT11-Pad2)*%
X102720000Y-74440000D03*
%TO.P,U1,8,V+*%
%TO.N,+9VA*%
X102720000Y-71900000D03*
%TD*%
D21*
%TO.P,SW1,1,A*%
%TO.N,Earth*%
X57300000Y-77140000D03*
%TO.P,SW1,2,B*%
%TO.N,Net-(SW1-B)*%
X57300000Y-74140000D03*
%TO.P,SW1,3*%
%TO.N,N/C*%
X57300000Y-71140000D03*
%TD*%
D10*
%TO.P,CT4,1*%
%TO.N,Net-(C6-Pad1)*%
X118300000Y-95700000D03*
%TO.P,CT4,2*%
%TO.N,Earth*%
X123300000Y-95700000D03*
%TD*%
D17*
%TO.P,J2,1,Pin_1*%
%TO.N,Earth*%
X91200000Y-62200000D03*
D16*
%TO.P,J2,2,Pin_2*%
%TO.N,Net-(J2-Pin_2)*%
X93740000Y-62200000D03*
%TO.P,J2,3,Pin_3*%
%TO.N,Net-(J2-Pin_3)*%
X96280000Y-62200000D03*
%TD*%
D10*
%TO.P,C5,1*%
%TO.N,Net-(C5-Pad1)*%
X95800000Y-84700000D03*
%TO.P,C5,2*%
%TO.N,Net-(J2-Pin_3)*%
X100800000Y-84700000D03*
%TD*%
%TO.P,R13,1*%
%TO.N,Earth*%
X90100000Y-93340000D03*
D11*
%TO.P,R13,2*%
%TO.N,Net-(JP7-A)*%
X90100000Y-103500000D03*
%TD*%
D10*
%TO.P,C4,1*%
%TO.N,Net-(J1-Pin_2)*%
X59000000Y-86540000D03*
%TO.P,C4,2*%
%TO.N,Net-(C4-Pad2)*%
X64000000Y-86540000D03*
%TD*%
%TO.P,R3,1*%
%TO.N,Net-(Q1-S)*%
X62600000Y-71040000D03*
D11*
%TO.P,R3,2*%
%TO.N,Earth*%
X62600000Y-81200000D03*
%TD*%
D22*
%TO.P,D1,1,K*%
%TO.N,+9VA*%
X60900000Y-125080000D03*
D23*
%TO.P,D1,2,A*%
%TO.N,+9V*%
X60900000Y-114920000D03*
%TD*%
D24*
%TO.N,Earth*%
X45760000Y-83860000D03*
%TO.N,+9VA*%
X136200000Y-102300000D03*
%TO.N,Net-(U1B-+)*%
X81000000Y-82500000D03*
%TO.N,Net-(JP5-A)*%
X126500000Y-93200000D03*
X126500000Y-85400000D03*
X126500000Y-69100000D03*
%TD*%
D25*
%TO.N,+9VA*%
X136200000Y-102300000D02*
X141300000Y-97200000D01*
X128800000Y-50300000D02*
X73940000Y-50300000D01*
X141300000Y-97200000D02*
X141300000Y-62800000D01*
X141300000Y-62800000D02*
X128800000Y-50300000D01*
X73940000Y-50300000D02*
X71170000Y-53070000D01*
%TO.N,Net-(J5-Pin_2)*%
X135270000Y-93730000D02*
X137700000Y-91300000D01*
X137700000Y-91300000D02*
X137700000Y-89100000D01*
%TO.N,Net-(J1-Pin_3)*%
X57300000Y-56040000D02*
X58300000Y-55040000D01*
X53500000Y-52640000D02*
X50100000Y-56040000D01*
X53500000Y-51800000D02*
X53500000Y-52640000D01*
X50100000Y-56040000D02*
X57300000Y-56040000D01*
%TO.N,Earth*%
X98599000Y-91539000D02*
X91901000Y-91539000D01*
X50400000Y-79220000D02*
X47900000Y-76720000D01*
X47900000Y-76720000D02*
X47900000Y-63320000D01*
X132650000Y-95700000D02*
X132730000Y-95620000D01*
X45700000Y-97600000D02*
X45700000Y-83920000D01*
X123380000Y-95620000D02*
X123300000Y-95700000D01*
X57300000Y-77140000D02*
X52480000Y-77140000D01*
X50600000Y-102500000D02*
X45700000Y-97600000D01*
X91200000Y-69600000D02*
X91200000Y-62200000D01*
X84300000Y-80300000D02*
X84300000Y-76900000D01*
X63260000Y-81200000D02*
X67700000Y-76760000D01*
X58540000Y-77140000D02*
X62600000Y-81200000D01*
X57220000Y-61120000D02*
X58300000Y-60040000D01*
X123300000Y-95700000D02*
X132650000Y-95700000D01*
X90100000Y-93340000D02*
X88999000Y-92239000D01*
X84300000Y-76900000D02*
X84100000Y-76700000D01*
X52480000Y-77140000D02*
X50400000Y-79220000D01*
X88999000Y-92239000D02*
X88999000Y-84999000D01*
X62600000Y-81200000D02*
X63260000Y-81200000D01*
X123300000Y-91040000D02*
X121200000Y-88940000D01*
X57300000Y-77140000D02*
X58540000Y-77140000D01*
X47900000Y-63320000D02*
X50100000Y-61120000D01*
X123300000Y-95700000D02*
X123300000Y-91040000D01*
X100400000Y-93340000D02*
X98599000Y-91539000D01*
X50100000Y-61120000D02*
X57220000Y-61120000D01*
X45700000Y-83920000D02*
X45760000Y-83860000D01*
X84100000Y-76700000D02*
X91200000Y-69600000D01*
X91901000Y-91539000D02*
X90100000Y-93340000D01*
X87160000Y-62200000D02*
X84940000Y-59980000D01*
X88999000Y-84999000D02*
X84300000Y-80300000D01*
X91200000Y-62200000D02*
X87160000Y-62200000D01*
X45760000Y-83860000D02*
X50400000Y-79220000D01*
%TO.N,Net-(JP8-A)*%
X63100000Y-51640000D02*
X62900000Y-51840000D01*
X58500000Y-51800000D02*
X62860000Y-51800000D01*
X62860000Y-51800000D02*
X62900000Y-51840000D01*
%TO.N,Net-(Q1-S)*%
X69327842Y-51800000D02*
X69900000Y-51800000D01*
X66400000Y-71040000D02*
X68000000Y-72640000D01*
X62600000Y-71040000D02*
X66400000Y-71040000D01*
X62600000Y-71040000D02*
X62600000Y-69908630D01*
X67599000Y-64909630D02*
X67599000Y-53528842D01*
X62600000Y-69908630D02*
X67599000Y-64909630D01*
X67599000Y-53528842D02*
X69327842Y-51800000D01*
%TO.N,Net-(C3-Pad2)*%
X68000000Y-67640000D02*
X71420000Y-67640000D01*
X71420000Y-67640000D02*
X72920000Y-66140000D01*
%TO.N,Net-(C4-Pad2)*%
X67320000Y-86540000D02*
X67700000Y-86920000D01*
X67700000Y-86920000D02*
X67700000Y-85340000D01*
X64000000Y-86540000D02*
X67320000Y-86540000D01*
X67700000Y-85340000D02*
X73000000Y-80040000D01*
%TO.N,Net-(J2-Pin_3)*%
X100800000Y-84700000D02*
X100800000Y-66720000D01*
X100800000Y-66720000D02*
X96280000Y-62200000D01*
%TO.N,Net-(C6-Pad1)*%
X114300000Y-95500000D02*
X107500000Y-88700000D01*
X118300000Y-95700000D02*
X114580000Y-95700000D01*
X114580000Y-95700000D02*
X114380000Y-95500000D01*
X114380000Y-95500000D02*
X114300000Y-95500000D01*
%TO.N,Net-(J3-Pin_3)*%
X112500000Y-88700000D02*
X115880000Y-88700000D01*
X115880000Y-88700000D02*
X116120000Y-88940000D01*
%TO.N,+9VA*%
X74400000Y-56300000D02*
X98500000Y-56300000D01*
X102720000Y-60520000D02*
X102720000Y-71900000D01*
X136080000Y-102420000D02*
X136200000Y-102300000D01*
X60900000Y-124920000D02*
X71200000Y-114620000D01*
X66920000Y-101000000D02*
X68051370Y-101000000D01*
X60900000Y-125080000D02*
X60900000Y-124920000D01*
X69700000Y-102648630D02*
X69700000Y-113120000D01*
X53084888Y-125080000D02*
X60900000Y-125080000D01*
X98500000Y-56300000D02*
X102720000Y-60520000D01*
X51344888Y-126820000D02*
X53084888Y-125080000D01*
X51344888Y-128620000D02*
X51344888Y-126820000D01*
X115500000Y-102420000D02*
X136080000Y-102420000D01*
X68051370Y-101000000D02*
X69700000Y-102648630D01*
X71170000Y-53070000D02*
X74400000Y-56300000D01*
X69700000Y-113120000D02*
X71200000Y-114620000D01*
%TO.N,GND*%
X110000000Y-99400000D02*
X111300000Y-100700000D01*
X97601000Y-82021000D02*
X97601000Y-84047999D01*
X60644888Y-130620000D02*
X60644888Y-130135112D01*
X73380000Y-117400000D02*
X102500000Y-117400000D01*
X95100000Y-79520000D02*
X97601000Y-82021000D01*
X49543888Y-124516112D02*
X49543888Y-130421000D01*
X97601000Y-84047999D02*
X102300000Y-88746999D01*
X60644888Y-129018000D02*
X60644888Y-130620000D01*
X102300000Y-88746999D02*
X102300000Y-97900000D01*
X60246888Y-128620000D02*
X60644888Y-129018000D01*
X107880000Y-112020000D02*
X107880000Y-110040000D01*
X53145888Y-130421000D02*
X53344888Y-130222000D01*
X60644888Y-130135112D02*
X66000000Y-124780000D01*
X53344888Y-130222000D02*
X53344888Y-128620000D01*
X111300000Y-100700000D02*
X111300000Y-109400000D01*
X53100000Y-120960000D02*
X53645888Y-121505888D01*
X50400000Y-117520000D02*
X59300000Y-108620000D01*
X49543888Y-130421000D02*
X53145888Y-130421000D01*
X66000000Y-124780000D02*
X73380000Y-117400000D01*
X53100000Y-120960000D02*
X52005000Y-120960000D01*
X52005000Y-120960000D02*
X50400000Y-119355000D01*
X53344888Y-128620000D02*
X60246888Y-128620000D01*
X102300000Y-97900000D02*
X103800000Y-99400000D01*
X110660000Y-110040000D02*
X107880000Y-110040000D01*
X102500000Y-117400000D02*
X107880000Y-112020000D01*
X111300000Y-109400000D02*
X110660000Y-110040000D01*
X50400000Y-119355000D02*
X50400000Y-117520000D01*
X103800000Y-99400000D02*
X110000000Y-99400000D01*
X53100000Y-120960000D02*
X49543888Y-124516112D01*
%TO.N,+4V*%
X59880000Y-106080000D02*
X62420000Y-108620000D01*
X51399999Y-106700001D02*
X58679999Y-106700001D01*
X58644888Y-132420000D02*
X58645888Y-132421000D01*
X66920000Y-108620000D02*
X66920000Y-113700000D01*
X58645888Y-132421000D02*
X63559000Y-132421000D01*
X66920000Y-113700000D02*
X66000000Y-114620000D01*
X58644888Y-130620000D02*
X58644888Y-132420000D01*
X63559000Y-132421000D02*
X71200000Y-124780000D01*
X62420000Y-108620000D02*
X66920000Y-108620000D01*
X50600000Y-107500000D02*
X51399999Y-106700001D01*
X58679999Y-106700001D02*
X59300000Y-106080000D01*
X59300000Y-106080000D02*
X59880000Y-106080000D01*
%TO.N,Net-(C9-Pad1)*%
X82380000Y-109700000D02*
X91120000Y-109700000D01*
X81500000Y-103800000D02*
X76480000Y-103800000D01*
X73100000Y-100420000D02*
X82380000Y-109700000D01*
X76480000Y-103800000D02*
X73100000Y-100420000D01*
%TO.N,Net-(JP7-A)*%
X89800000Y-103800000D02*
X90100000Y-103500000D01*
X83500000Y-103800000D02*
X89800000Y-103800000D01*
%TO.N,Net-(U1B-+)*%
X82299000Y-67621000D02*
X84940000Y-64980000D01*
X73000000Y-90200000D02*
X82299000Y-80901000D01*
X82299000Y-80901000D02*
X82299000Y-67621000D01*
%TO.N,Net-(CT6-Pad2)*%
X110100000Y-64700000D02*
X115200000Y-69800000D01*
X108100000Y-64700000D02*
X110100000Y-64700000D01*
%TO.N,Net-(CT7-Pad2)*%
X121400000Y-69800000D02*
X121400000Y-74440000D01*
X121400000Y-74440000D02*
X121500000Y-74540000D01*
%TO.N,Net-(J3-Pin_2)*%
X118660000Y-82380000D02*
X121500000Y-79540000D01*
X118660000Y-88940000D02*
X118660000Y-82380000D01*
%TO.N,Net-(JP5-A)*%
X101853001Y-107500000D02*
X107880000Y-107500000D01*
X59300000Y-103540000D02*
X56560000Y-103540000D01*
X60431370Y-103540000D02*
X63200000Y-100771370D01*
X126500000Y-85400000D02*
X126500000Y-69100000D01*
X98599000Y-104099000D02*
X98599000Y-104245999D01*
X63200000Y-100771370D02*
X63200000Y-100600000D01*
X98599000Y-104245999D02*
X101853001Y-107500000D01*
X126500000Y-85400000D02*
X126500000Y-93200000D01*
X63200000Y-100600000D02*
X65181000Y-98619000D01*
X55400000Y-103300000D02*
X50600000Y-98500000D01*
X65181000Y-98619000D02*
X93119000Y-98619000D01*
X55400000Y-104700000D02*
X55400000Y-103300000D01*
X93119000Y-98619000D02*
X98599000Y-104099000D01*
X56560000Y-103540000D02*
X55400000Y-104700000D01*
X59300000Y-103540000D02*
X60431370Y-103540000D01*
%TO.N,Net-(CT8-Pad1)*%
X115200000Y-56400000D02*
X112300000Y-53500000D01*
X115200000Y-59640000D02*
X121400000Y-59640000D01*
X115200000Y-59640000D02*
X115200000Y-56400000D01*
%TO.N,Net-(CT9-Pad2)*%
X137700000Y-84100000D02*
X137700000Y-80360000D01*
%TO.N,Net-(J5-Pin_2)*%
X135270000Y-95620000D02*
X135270000Y-93730000D01*
%TO.N,Net-(JP6-A)*%
X59300000Y-101000000D02*
X59300000Y-98440000D01*
X65600000Y-94700000D02*
X71700000Y-94700000D01*
X55400000Y-94540000D02*
X51640000Y-94540000D01*
X59300000Y-98440000D02*
X55400000Y-94540000D01*
X51640000Y-94540000D02*
X50600000Y-93500000D01*
X59300000Y-101000000D02*
X65600000Y-94700000D01*
%TO.N,Net-(CT11-Pad2)*%
X104521000Y-95199000D02*
X104521000Y-75109630D01*
X109540000Y-70780000D02*
X113300000Y-74540000D01*
X103851370Y-74440000D02*
X102720000Y-74440000D01*
X102720000Y-74440000D02*
X103940000Y-74440000D01*
X107600000Y-70780000D02*
X109540000Y-70780000D01*
X103940000Y-74440000D02*
X107600000Y-70780000D01*
X104521000Y-75109630D02*
X103851370Y-74440000D01*
X104220000Y-95500000D02*
X104521000Y-95199000D01*
%TO.N,+9V*%
X53100000Y-118420000D02*
X57400000Y-118420000D01*
X57400000Y-118420000D02*
X60900000Y-114920000D01*
%TO.N,Net-(J6-Pin_3)*%
X63341000Y-92899000D02*
X79419000Y-92899000D01*
X79419000Y-92899000D02*
X79520000Y-93000000D01*
X61540000Y-94700000D02*
X63341000Y-92899000D01*
%TO.N,Net-(SW1-B)*%
X50400000Y-69060000D02*
X50400000Y-69000000D01*
X50400000Y-69060000D02*
X55480000Y-74140000D01*
X55480000Y-74140000D02*
X57300000Y-74140000D01*
X59000000Y-65900000D02*
X62900000Y-62000000D01*
X50400000Y-69000000D02*
X53500000Y-65900000D01*
X53500000Y-65900000D02*
X59000000Y-65900000D01*
%TO.N,Net-(R4-Pad2)*%
X72920000Y-76300000D02*
X77760000Y-76300000D01*
X77760000Y-76300000D02*
X77800000Y-76340000D01*
%TO.N,Net-(U1A--)*%
X95060000Y-74400000D02*
X95100000Y-74440000D01*
X90800000Y-74400000D02*
X95060000Y-74400000D01*
X95100000Y-74440000D02*
X95100000Y-71900000D01*
%TO.N,Net-(RT7-Pad1)*%
X101280000Y-109380000D02*
X95400000Y-103500000D01*
X101280000Y-109700000D02*
X101280000Y-109380000D01*
%TO.N,Net-(U3A--)*%
X100400000Y-103500000D02*
X101860000Y-104960000D01*
X95400000Y-93340000D02*
X95400000Y-98500000D01*
X101860000Y-104960000D02*
X107880000Y-104960000D01*
X95400000Y-98500000D02*
X100400000Y-103500000D01*
%TD*%
%TA.AperFunction,Conductor*%
%TO.N,Earth*%
G36*
X142042539Y-46920185D02*
G01*
X142088294Y-46972989D01*
X142099500Y-47024500D01*
X142099500Y-61885216D01*
X142079815Y-61952255D01*
X142027011Y-61998010D01*
X141957853Y-62007954D01*
X141894297Y-61978929D01*
X141887819Y-61972897D01*
X129584209Y-49669289D01*
X129584206Y-49669285D01*
X129584206Y-49669286D01*
X129577139Y-49662219D01*
X129577139Y-49662218D01*
X129437782Y-49522861D01*
X129437781Y-49522860D01*
X129437780Y-49522859D01*
X129273920Y-49413371D01*
X129273911Y-49413366D01*
X129201315Y-49383296D01*
X129145165Y-49360038D01*
X129091836Y-49337949D01*
X129091832Y-49337948D01*
X129091828Y-49337946D01*
X128995188Y-49318724D01*
X128898544Y-49299500D01*
X128898541Y-49299500D01*
X74044675Y-49299500D01*
X74044655Y-49299499D01*
X74038541Y-49299499D01*
X73841460Y-49299499D01*
X73841457Y-49299499D01*
X73648172Y-49337946D01*
X73648164Y-49337948D01*
X73466088Y-49413366D01*
X73466079Y-49413371D01*
X73302219Y-49522859D01*
X73302215Y-49522862D01*
X71112180Y-51712898D01*
X71050857Y-51746383D01*
X70981165Y-51741399D01*
X70925232Y-51699527D01*
X70900815Y-51634063D01*
X70900499Y-51625217D01*
X70900499Y-51202129D01*
X70900498Y-51202123D01*
X70900497Y-51202116D01*
X70894091Y-51142517D01*
X70885092Y-51118390D01*
X70843797Y-51007671D01*
X70843793Y-51007664D01*
X70757547Y-50892455D01*
X70757544Y-50892452D01*
X70642335Y-50806206D01*
X70642328Y-50806202D01*
X70507482Y-50755908D01*
X70507483Y-50755908D01*
X70447883Y-50749501D01*
X70447881Y-50749500D01*
X70447873Y-50749500D01*
X70447864Y-50749500D01*
X68552129Y-50749500D01*
X68552123Y-50749501D01*
X68492516Y-50755908D01*
X68357671Y-50806202D01*
X68357664Y-50806206D01*
X68242455Y-50892452D01*
X68242452Y-50892455D01*
X68156206Y-51007664D01*
X68156202Y-51007671D01*
X68105908Y-51142517D01*
X68104202Y-51158390D01*
X68099501Y-51202123D01*
X68099500Y-51202135D01*
X68099500Y-51562059D01*
X68079815Y-51629098D01*
X68063181Y-51649740D01*
X66961221Y-52751700D01*
X66961218Y-52751703D01*
X66920955Y-52791966D01*
X66821859Y-52891061D01*
X66712371Y-53054921D01*
X66712364Y-53054934D01*
X66672863Y-53150299D01*
X66672859Y-53150309D01*
X66670408Y-53156229D01*
X66636949Y-53237006D01*
X66617724Y-53333654D01*
X66616599Y-53339305D01*
X66616597Y-53339315D01*
X66598500Y-53430297D01*
X66598500Y-64443847D01*
X66578815Y-64510886D01*
X66562181Y-64531528D01*
X61962220Y-69131489D01*
X61962218Y-69131491D01*
X61900928Y-69192781D01*
X61822859Y-69270849D01*
X61713371Y-69434710D01*
X61713364Y-69434723D01*
X61684959Y-69503300D01*
X61684955Y-69503311D01*
X61682945Y-69508165D01*
X61637949Y-69616794D01*
X61621108Y-69701459D01*
X61619756Y-69708255D01*
X61619754Y-69708262D01*
X61599500Y-69810086D01*
X61599500Y-70164237D01*
X61579815Y-70231276D01*
X61575818Y-70237122D01*
X61487715Y-70358386D01*
X61394781Y-70540776D01*
X61331522Y-70735465D01*
X61299500Y-70937648D01*
X61299500Y-71142351D01*
X61331522Y-71344534D01*
X61394781Y-71539223D01*
X61487715Y-71721613D01*
X61608028Y-71887213D01*
X61752786Y-72031971D01*
X61902546Y-72140776D01*
X61918390Y-72152287D01*
X62034607Y-72211503D01*
X62100776Y-72245218D01*
X62100778Y-72245218D01*
X62100781Y-72245220D01*
X62205137Y-72279127D01*
X62295465Y-72308477D01*
X62396557Y-72324488D01*
X62497648Y-72340500D01*
X62497649Y-72340500D01*
X62702351Y-72340500D01*
X62702352Y-72340500D01*
X62904534Y-72308477D01*
X63099219Y-72245220D01*
X63281610Y-72152287D01*
X63402877Y-72064181D01*
X63468683Y-72040702D01*
X63475762Y-72040500D01*
X65934218Y-72040500D01*
X66001257Y-72060185D01*
X66021899Y-72076819D01*
X66673281Y-72728201D01*
X66706766Y-72789524D01*
X66708073Y-72796483D01*
X66731523Y-72944535D01*
X66794781Y-73139223D01*
X66887715Y-73321613D01*
X67008028Y-73487213D01*
X67152786Y-73631971D01*
X67271734Y-73718390D01*
X67318390Y-73752287D01*
X67422801Y-73805487D01*
X67500776Y-73845218D01*
X67500778Y-73845218D01*
X67500781Y-73845220D01*
X67551754Y-73861782D01*
X67695465Y-73908477D01*
X67796557Y-73924488D01*
X67897648Y-73940500D01*
X67897649Y-73940500D01*
X68102351Y-73940500D01*
X68102352Y-73940500D01*
X68304534Y-73908477D01*
X68499219Y-73845220D01*
X68681610Y-73752287D01*
X68839418Y-73637634D01*
X68847213Y-73631971D01*
X68847215Y-73631968D01*
X68847219Y-73631966D01*
X68991966Y-73487219D01*
X68991968Y-73487215D01*
X68991971Y-73487213D01*
X69055697Y-73399500D01*
X69112287Y-73321610D01*
X69205220Y-73139219D01*
X69268477Y-72944534D01*
X69300500Y-72742352D01*
X69300500Y-72537648D01*
X69294540Y-72500016D01*
X69268477Y-72335465D01*
X69239127Y-72245137D01*
X69205220Y-72140781D01*
X69205218Y-72140778D01*
X69205218Y-72140776D01*
X69164154Y-72060185D01*
X69112287Y-71958390D01*
X69060579Y-71887219D01*
X68991971Y-71792786D01*
X68847213Y-71648028D01*
X68681613Y-71527715D01*
X68681612Y-71527714D01*
X68681610Y-71527713D01*
X68624653Y-71498691D01*
X68499223Y-71434781D01*
X68304535Y-71371523D01*
X68156483Y-71348073D01*
X68093349Y-71318143D01*
X68088201Y-71313281D01*
X67184209Y-70409289D01*
X67184206Y-70409285D01*
X67184206Y-70409286D01*
X67177140Y-70402220D01*
X67177139Y-70402218D01*
X67037782Y-70262861D01*
X66950479Y-70204527D01*
X66873919Y-70153371D01*
X66873910Y-70153366D01*
X66748954Y-70101608D01*
X66748951Y-70101607D01*
X66741184Y-70098390D01*
X66691836Y-70077949D01*
X66561211Y-70051966D01*
X66557494Y-70051226D01*
X66557488Y-70051225D01*
X66498543Y-70039500D01*
X66498541Y-70039500D01*
X64183412Y-70039500D01*
X64116373Y-70019815D01*
X64070618Y-69967011D01*
X64060674Y-69897853D01*
X64089699Y-69834297D01*
X64095731Y-69827819D01*
X64652702Y-69270848D01*
X66488664Y-67434884D01*
X66549985Y-67401401D01*
X66619677Y-67406385D01*
X66675610Y-67448257D01*
X66700027Y-67513721D01*
X66699219Y-67532744D01*
X66699882Y-67532797D01*
X66699500Y-67537647D01*
X66699500Y-67742351D01*
X66731522Y-67944534D01*
X66794781Y-68139223D01*
X66832562Y-68213371D01*
X66865381Y-68277782D01*
X66887715Y-68321613D01*
X67008028Y-68487213D01*
X67152786Y-68631971D01*
X67300790Y-68739500D01*
X67318390Y-68752287D01*
X67428047Y-68808160D01*
X67500776Y-68845218D01*
X67500778Y-68845218D01*
X67500781Y-68845220D01*
X67605137Y-68879127D01*
X67695465Y-68908477D01*
X67796557Y-68924488D01*
X67897648Y-68940500D01*
X67897649Y-68940500D01*
X68102351Y-68940500D01*
X68102352Y-68940500D01*
X68304534Y-68908477D01*
X68499219Y-68845220D01*
X68681610Y-68752287D01*
X68802877Y-68664181D01*
X68868683Y-68640702D01*
X68875762Y-68640500D01*
X71518542Y-68640500D01*
X71545463Y-68635144D01*
X71615188Y-68621275D01*
X71711836Y-68602051D01*
X71811470Y-68560781D01*
X71893914Y-68526632D01*
X72057782Y-68417139D01*
X72197139Y-68277782D01*
X72197139Y-68277780D01*
X72207347Y-68267573D01*
X72207349Y-68267570D01*
X73008203Y-67466715D01*
X73069524Y-67433232D01*
X73076473Y-67431927D01*
X73224534Y-67408477D01*
X73419219Y-67345220D01*
X73601610Y-67252287D01*
X73694590Y-67184732D01*
X73767213Y-67131971D01*
X73767215Y-67131968D01*
X73767219Y-67131966D01*
X73911966Y-66987219D01*
X73911968Y-66987215D01*
X73911971Y-66987213D01*
X73964732Y-66914590D01*
X74032287Y-66821610D01*
X74125220Y-66639219D01*
X74188477Y-66444534D01*
X74220500Y-66242352D01*
X74220500Y-66077648D01*
X76499500Y-66077648D01*
X76499500Y-66282351D01*
X76531522Y-66484534D01*
X76594781Y-66679223D01*
X76649508Y-66786628D01*
X76678669Y-66843861D01*
X76687715Y-66861613D01*
X76808028Y-67027213D01*
X76952786Y-67171971D01*
X77063334Y-67252287D01*
X77118390Y-67292287D01*
X77222273Y-67345218D01*
X77300776Y-67385218D01*
X77300778Y-67385218D01*
X77300781Y-67385220D01*
X77372359Y-67408477D01*
X77495465Y-67448477D01*
X77596557Y-67464488D01*
X77697648Y-67480500D01*
X77697649Y-67480500D01*
X77902351Y-67480500D01*
X77902352Y-67480500D01*
X78104534Y-67448477D01*
X78299219Y-67385220D01*
X78481610Y-67292287D01*
X78628203Y-67185782D01*
X78647213Y-67171971D01*
X78647215Y-67171968D01*
X78647219Y-67171966D01*
X78791966Y-67027219D01*
X78791968Y-67027215D01*
X78791971Y-67027213D01*
X78884032Y-66900500D01*
X78912287Y-66861610D01*
X79005220Y-66679219D01*
X79068477Y-66484534D01*
X79100500Y-66282352D01*
X79100500Y-66077648D01*
X79094165Y-66037648D01*
X79068477Y-65875465D01*
X79018023Y-65720185D01*
X79005220Y-65680781D01*
X79005218Y-65680778D01*
X79005218Y-65680776D01*
X78971503Y-65614607D01*
X78912287Y-65498390D01*
X78904556Y-65487749D01*
X78791971Y-65332786D01*
X78647213Y-65188028D01*
X78481613Y-65067715D01*
X78481612Y-65067714D01*
X78481610Y-65067713D01*
X78403106Y-65027713D01*
X78299223Y-64974781D01*
X78104534Y-64911522D01*
X77929995Y-64883878D01*
X77902352Y-64879500D01*
X77697648Y-64879500D01*
X77673329Y-64883351D01*
X77495465Y-64911522D01*
X77300776Y-64974781D01*
X77118386Y-65067715D01*
X76952786Y-65188028D01*
X76808028Y-65332786D01*
X76687715Y-65498386D01*
X76594781Y-65680776D01*
X76531522Y-65875465D01*
X76499500Y-66077648D01*
X74220500Y-66077648D01*
X74220500Y-66037648D01*
X74199525Y-65905218D01*
X74188477Y-65835465D01*
X74151020Y-65720185D01*
X74125220Y-65640781D01*
X74125218Y-65640778D01*
X74125218Y-65640776D01*
X74077647Y-65547414D01*
X74032287Y-65458390D01*
X74024556Y-65447749D01*
X73911971Y-65292786D01*
X73767213Y-65148028D01*
X73601613Y-65027715D01*
X73601612Y-65027714D01*
X73601610Y-65027713D01*
X73544653Y-64998691D01*
X73419223Y-64934781D01*
X73224534Y-64871522D01*
X73049995Y-64843878D01*
X73022352Y-64839500D01*
X72817648Y-64839500D01*
X72793329Y-64843351D01*
X72615465Y-64871522D01*
X72420776Y-64934781D01*
X72238386Y-65027715D01*
X72072786Y-65148028D01*
X71928028Y-65292786D01*
X71807715Y-65458386D01*
X71714781Y-65640778D01*
X71651522Y-65835468D01*
X71628073Y-65983515D01*
X71598143Y-66046649D01*
X71593281Y-66051797D01*
X71041899Y-66603181D01*
X70980576Y-66636666D01*
X70954218Y-66639500D01*
X68875762Y-66639500D01*
X68808723Y-66619815D01*
X68802877Y-66615818D01*
X68681613Y-66527715D01*
X68681612Y-66527714D01*
X68681610Y-66527713D01*
X68596867Y-66484534D01*
X68499223Y-66434781D01*
X68304534Y-66371522D01*
X68129995Y-66343878D01*
X68102352Y-66339500D01*
X67897648Y-66339500D01*
X67892797Y-66339882D01*
X67892622Y-66337663D01*
X67832430Y-66329753D01*
X67779075Y-66284642D01*
X67758578Y-66217847D01*
X67777448Y-66150573D01*
X67794882Y-66128667D01*
X68376140Y-65547411D01*
X68485632Y-65383544D01*
X68561052Y-65201465D01*
X68599501Y-65008170D01*
X68599501Y-64811089D01*
X68599501Y-64805979D01*
X68599500Y-64805953D01*
X68599500Y-59877682D01*
X83640000Y-59877682D01*
X83640000Y-60082317D01*
X83672009Y-60284417D01*
X83735244Y-60479031D01*
X83828141Y-60661350D01*
X83828147Y-60661359D01*
X83860523Y-60705921D01*
X83860524Y-60705922D01*
X84540000Y-60026446D01*
X84540000Y-60032661D01*
X84567259Y-60134394D01*
X84619920Y-60225606D01*
X84694394Y-60300080D01*
X84785606Y-60352741D01*
X84887339Y-60380000D01*
X84893553Y-60380000D01*
X84214076Y-61059474D01*
X84258650Y-61091859D01*
X84440968Y-61184755D01*
X84635582Y-61247990D01*
X84837683Y-61280000D01*
X85042317Y-61280000D01*
X85244417Y-61247990D01*
X85439031Y-61184754D01*
X85621349Y-61091859D01*
X85665921Y-61059474D01*
X84986447Y-60380000D01*
X84992661Y-60380000D01*
X85094394Y-60352741D01*
X85185606Y-60300080D01*
X85260080Y-60225606D01*
X85312741Y-60134394D01*
X85340000Y-60032661D01*
X85340000Y-60026447D01*
X86019474Y-60705921D01*
X86051859Y-60661349D01*
X86144755Y-60479031D01*
X86207990Y-60284417D01*
X86240000Y-60082317D01*
X86240000Y-59877682D01*
X86207990Y-59675582D01*
X86144755Y-59480968D01*
X86051859Y-59298650D01*
X86019474Y-59254077D01*
X86019474Y-59254076D01*
X85340000Y-59933551D01*
X85340000Y-59927339D01*
X85312741Y-59825606D01*
X85260080Y-59734394D01*
X85185606Y-59659920D01*
X85094394Y-59607259D01*
X84992661Y-59580000D01*
X84986446Y-59580000D01*
X85665922Y-58900524D01*
X85665921Y-58900523D01*
X85621359Y-58868147D01*
X85621350Y-58868141D01*
X85439031Y-58775244D01*
X85244417Y-58712009D01*
X85042317Y-58680000D01*
X84837683Y-58680000D01*
X84635582Y-58712009D01*
X84440968Y-58775244D01*
X84258644Y-58868143D01*
X84214077Y-58900523D01*
X84214077Y-58900524D01*
X84893554Y-59580000D01*
X84887339Y-59580000D01*
X84785606Y-59607259D01*
X84694394Y-59659920D01*
X84619920Y-59734394D01*
X84567259Y-59825606D01*
X84540000Y-59927339D01*
X84540000Y-59933553D01*
X83860524Y-59254077D01*
X83860523Y-59254077D01*
X83828143Y-59298644D01*
X83735244Y-59480968D01*
X83672009Y-59675582D01*
X83640000Y-59877682D01*
X68599500Y-59877682D01*
X68599500Y-55503122D01*
X68619185Y-55436083D01*
X68671989Y-55390328D01*
X68737383Y-55379902D01*
X68796277Y-55386537D01*
X68831442Y-55390499D01*
X68831445Y-55390500D01*
X68831448Y-55390500D01*
X70168555Y-55390500D01*
X70168556Y-55390499D01*
X70298657Y-55375841D01*
X70463606Y-55318122D01*
X70611576Y-55225147D01*
X70735147Y-55101576D01*
X70828122Y-54953606D01*
X70885841Y-54788657D01*
X70900500Y-54658552D01*
X70900500Y-54514782D01*
X70920185Y-54447743D01*
X70972989Y-54401988D01*
X71042147Y-54392044D01*
X71105703Y-54421069D01*
X71112181Y-54427101D01*
X73619735Y-56934655D01*
X73619764Y-56934686D01*
X73762214Y-57077136D01*
X73762218Y-57077139D01*
X73926079Y-57186628D01*
X73926092Y-57186635D01*
X74054833Y-57239961D01*
X74097744Y-57257735D01*
X74108164Y-57262051D01*
X74204812Y-57281275D01*
X74253135Y-57290887D01*
X74301458Y-57300500D01*
X74301459Y-57300500D01*
X74301460Y-57300500D01*
X74498540Y-57300500D01*
X98034218Y-57300500D01*
X98101257Y-57320185D01*
X98121899Y-57336819D01*
X101683181Y-60898101D01*
X101716666Y-60959424D01*
X101719500Y-60985782D01*
X101719500Y-65925216D01*
X101713261Y-65946461D01*
X101711682Y-65968549D01*
X101703609Y-65979332D01*
X101699815Y-65992255D01*
X101683083Y-66006753D01*
X101669811Y-66024483D01*
X101657188Y-66029190D01*
X101647011Y-66038010D01*
X101625095Y-66041161D01*
X101604347Y-66048900D01*
X101591185Y-66046037D01*
X101577853Y-66047954D01*
X101557711Y-66038755D01*
X101536074Y-66034049D01*
X101518345Y-66020777D01*
X101514297Y-66018929D01*
X101507819Y-66012898D01*
X101474253Y-65979332D01*
X101437782Y-65942861D01*
X101437781Y-65942860D01*
X97686819Y-62191898D01*
X97653334Y-62130575D01*
X97650500Y-62104217D01*
X97650500Y-61867133D01*
X97623310Y-61695466D01*
X97616754Y-61654074D01*
X97550092Y-61448911D01*
X97452157Y-61256701D01*
X97325359Y-61082179D01*
X97172821Y-60929641D01*
X96998299Y-60802843D01*
X96806089Y-60704908D01*
X96600926Y-60638246D01*
X96600924Y-60638245D01*
X96600922Y-60638245D01*
X96387866Y-60604500D01*
X96387861Y-60604500D01*
X96172139Y-60604500D01*
X96172134Y-60604500D01*
X95959077Y-60638245D01*
X95753908Y-60704909D01*
X95561700Y-60802843D01*
X95462129Y-60875186D01*
X95387179Y-60929641D01*
X95387177Y-60929643D01*
X95387176Y-60929643D01*
X95234643Y-61082176D01*
X95234643Y-61082177D01*
X95234641Y-61082179D01*
X95183346Y-61152781D01*
X95110318Y-61253294D01*
X95054988Y-61295959D01*
X94985374Y-61301938D01*
X94923579Y-61269332D01*
X94909682Y-61253294D01*
X94872639Y-61202309D01*
X94785359Y-61082179D01*
X94632821Y-60929641D01*
X94458299Y-60802843D01*
X94266089Y-60704908D01*
X94060926Y-60638246D01*
X94060924Y-60638245D01*
X94060922Y-60638245D01*
X93847866Y-60604500D01*
X93847861Y-60604500D01*
X93632139Y-60604500D01*
X93632134Y-60604500D01*
X93419077Y-60638245D01*
X93213908Y-60704909D01*
X93021700Y-60802843D01*
X92847180Y-60929640D01*
X92704816Y-61072004D01*
X92643493Y-61105488D01*
X92573801Y-61100504D01*
X92517868Y-61058632D01*
X92504748Y-61036716D01*
X92504356Y-61035876D01*
X92412315Y-60886654D01*
X92288345Y-60762684D01*
X92139124Y-60670643D01*
X92139119Y-60670641D01*
X91972697Y-60615494D01*
X91972690Y-60615493D01*
X91869986Y-60605000D01*
X91450000Y-60605000D01*
X91450000Y-61657290D01*
X91429661Y-61645548D01*
X91278333Y-61605000D01*
X91121667Y-61605000D01*
X90970339Y-61645548D01*
X90950000Y-61657290D01*
X90950000Y-60605000D01*
X90530028Y-60605000D01*
X90530012Y-60605001D01*
X90427302Y-60615494D01*
X90260880Y-60670641D01*
X90260875Y-60670643D01*
X90111654Y-60762684D01*
X89987684Y-60886654D01*
X89895643Y-61035875D01*
X89895641Y-61035880D01*
X89840494Y-61202302D01*
X89840493Y-61202309D01*
X89830000Y-61305013D01*
X89830000Y-61950000D01*
X90657291Y-61950000D01*
X90645548Y-61970339D01*
X90605000Y-62121667D01*
X90605000Y-62278333D01*
X90645548Y-62429661D01*
X90657291Y-62450000D01*
X89830001Y-62450000D01*
X89830001Y-63094986D01*
X89840494Y-63197697D01*
X89895641Y-63364119D01*
X89895643Y-63364124D01*
X89987684Y-63513345D01*
X90111654Y-63637315D01*
X90260875Y-63729356D01*
X90260880Y-63729358D01*
X90427302Y-63784505D01*
X90427309Y-63784506D01*
X90530019Y-63794999D01*
X90949999Y-63794999D01*
X90950000Y-63794998D01*
X90950000Y-62742709D01*
X90970339Y-62754452D01*
X91121667Y-62795000D01*
X91278333Y-62795000D01*
X91429661Y-62754452D01*
X91450000Y-62742709D01*
X91450000Y-63794999D01*
X91869972Y-63794999D01*
X91869986Y-63794998D01*
X91972697Y-63784505D01*
X92139119Y-63729358D01*
X92139124Y-63729356D01*
X92288345Y-63637315D01*
X92412315Y-63513345D01*
X92504354Y-63364127D01*
X92504745Y-63363289D01*
X92505167Y-63362809D01*
X92508149Y-63357975D01*
X92508974Y-63358484D01*
X92550910Y-63310843D01*
X92618100Y-63291681D01*
X92684984Y-63311887D01*
X92704816Y-63327996D01*
X92847179Y-63470359D01*
X93021701Y-63597157D01*
X93213911Y-63695092D01*
X93419074Y-63761754D01*
X93498973Y-63774408D01*
X93632134Y-63795500D01*
X93632139Y-63795500D01*
X93847866Y-63795500D01*
X93978676Y-63774781D01*
X94060926Y-63761754D01*
X94266089Y-63695092D01*
X94458299Y-63597157D01*
X94632821Y-63470359D01*
X94785359Y-63317821D01*
X94909682Y-63146704D01*
X94965012Y-63104040D01*
X95034626Y-63098061D01*
X95096420Y-63130667D01*
X95110315Y-63146702D01*
X95234641Y-63317821D01*
X95387179Y-63470359D01*
X95561701Y-63597157D01*
X95753911Y-63695092D01*
X95959074Y-63761754D01*
X96038973Y-63774408D01*
X96172134Y-63795500D01*
X96172139Y-63795500D01*
X96387853Y-63795500D01*
X96387861Y-63795500D01*
X96388216Y-63795443D01*
X96388353Y-63795461D01*
X96392712Y-63795118D01*
X96392784Y-63796033D01*
X96457507Y-63804386D01*
X96495312Y-63830232D01*
X99763181Y-67098101D01*
X99796666Y-67159424D01*
X99799500Y-67185782D01*
X99799500Y-83824237D01*
X99779815Y-83891276D01*
X99775818Y-83897122D01*
X99687715Y-84018386D01*
X99594781Y-84200776D01*
X99552819Y-84329924D01*
X99513381Y-84387599D01*
X99449022Y-84414797D01*
X99380176Y-84402882D01*
X99347207Y-84379286D01*
X99028702Y-84060781D01*
X98637819Y-83669897D01*
X98604334Y-83608574D01*
X98601500Y-83582216D01*
X98601500Y-81922456D01*
X98567579Y-81751926D01*
X98567578Y-81751925D01*
X98565648Y-81742219D01*
X98563051Y-81729164D01*
X98525896Y-81639464D01*
X98496291Y-81567990D01*
X98487635Y-81547092D01*
X98487628Y-81547079D01*
X98378139Y-81383218D01*
X98378136Y-81383214D01*
X98235686Y-81240764D01*
X98235655Y-81240735D01*
X96426717Y-79431797D01*
X96393232Y-79370474D01*
X96391925Y-79363513D01*
X96371644Y-79235465D01*
X96368477Y-79215466D01*
X96366060Y-79208028D01*
X96326968Y-79087715D01*
X96305220Y-79020781D01*
X96305218Y-79020778D01*
X96305218Y-79020776D01*
X96243424Y-78899500D01*
X96212287Y-78838390D01*
X96163705Y-78771522D01*
X96091971Y-78672786D01*
X95947213Y-78528028D01*
X95781614Y-78407715D01*
X95775006Y-78404348D01*
X95688917Y-78360483D01*
X95638123Y-78312511D01*
X95621328Y-78244690D01*
X95643865Y-78178555D01*
X95688917Y-78139516D01*
X95781610Y-78092287D01*
X95870111Y-78027988D01*
X95947213Y-77971971D01*
X95947215Y-77971968D01*
X95947219Y-77971966D01*
X96091966Y-77827219D01*
X96091968Y-77827215D01*
X96091971Y-77827213D01*
X96154428Y-77741247D01*
X96212287Y-77661610D01*
X96305220Y-77479219D01*
X96368477Y-77284534D01*
X96400500Y-77082352D01*
X96400500Y-76877648D01*
X96388569Y-76802317D01*
X96368477Y-76675465D01*
X96324054Y-76538746D01*
X96305220Y-76480781D01*
X96305218Y-76480778D01*
X96305218Y-76480776D01*
X96261809Y-76395582D01*
X96212287Y-76298390D01*
X96168156Y-76237648D01*
X96091971Y-76132786D01*
X95947213Y-75988028D01*
X95781614Y-75867715D01*
X95728743Y-75840776D01*
X95688917Y-75820483D01*
X95638123Y-75772511D01*
X95621328Y-75704690D01*
X95643865Y-75638555D01*
X95688917Y-75599516D01*
X95781610Y-75552287D01*
X95863514Y-75492781D01*
X95947213Y-75431971D01*
X95947215Y-75431968D01*
X95947219Y-75431966D01*
X96091966Y-75287219D01*
X96091968Y-75287215D01*
X96091971Y-75287213D01*
X96144732Y-75214590D01*
X96212287Y-75121610D01*
X96305220Y-74939219D01*
X96368477Y-74744534D01*
X96400500Y-74542352D01*
X96400500Y-74337648D01*
X96368477Y-74135466D01*
X96305220Y-73940781D01*
X96305218Y-73940778D01*
X96305218Y-73940776D01*
X96264968Y-73861782D01*
X96212287Y-73758390D01*
X96183223Y-73718386D01*
X96124182Y-73637122D01*
X96100702Y-73571316D01*
X96100500Y-73564237D01*
X96100500Y-73112230D01*
X96120185Y-73045191D01*
X96136819Y-73024549D01*
X96160868Y-73000500D01*
X96242712Y-72918656D01*
X96334814Y-72769334D01*
X96389999Y-72602797D01*
X96400500Y-72500009D01*
X96400499Y-71299992D01*
X96390364Y-71200781D01*
X96389999Y-71197203D01*
X96389998Y-71197200D01*
X96371823Y-71142351D01*
X96334814Y-71030666D01*
X96242712Y-70881344D01*
X96118656Y-70757288D01*
X95983770Y-70674090D01*
X95969336Y-70665187D01*
X95969331Y-70665185D01*
X95915095Y-70647213D01*
X95802797Y-70610001D01*
X95802795Y-70610000D01*
X95700010Y-70599500D01*
X94499998Y-70599500D01*
X94499981Y-70599501D01*
X94397203Y-70610000D01*
X94397200Y-70610001D01*
X94230668Y-70665185D01*
X94230663Y-70665187D01*
X94081342Y-70757289D01*
X93957289Y-70881342D01*
X93865187Y-71030663D01*
X93865185Y-71030668D01*
X93843165Y-71097122D01*
X93810001Y-71197203D01*
X93810001Y-71197204D01*
X93810000Y-71197204D01*
X93799500Y-71299983D01*
X93799500Y-72500001D01*
X93799501Y-72500018D01*
X93810000Y-72602796D01*
X93810001Y-72602799D01*
X93865185Y-72769331D01*
X93865187Y-72769336D01*
X93891678Y-72812284D01*
X93948999Y-72905218D01*
X93957289Y-72918657D01*
X94063181Y-73024549D01*
X94077884Y-73051476D01*
X94094477Y-73077295D01*
X94095368Y-73083495D01*
X94096666Y-73085872D01*
X94099500Y-73112230D01*
X94099500Y-73275500D01*
X94079815Y-73342539D01*
X94027011Y-73388294D01*
X93975500Y-73399500D01*
X91675762Y-73399500D01*
X91608723Y-73379815D01*
X91602877Y-73375818D01*
X91481613Y-73287715D01*
X91481612Y-73287714D01*
X91481610Y-73287713D01*
X91424653Y-73258691D01*
X91299223Y-73194781D01*
X91104534Y-73131522D01*
X90928023Y-73103566D01*
X90902352Y-73099500D01*
X90697648Y-73099500D01*
X90673329Y-73103351D01*
X90495465Y-73131522D01*
X90300776Y-73194781D01*
X90118386Y-73287715D01*
X89952786Y-73408028D01*
X89808028Y-73552786D01*
X89687715Y-73718386D01*
X89594781Y-73900776D01*
X89531522Y-74095465D01*
X89499500Y-74297648D01*
X89499500Y-74502351D01*
X89531522Y-74704534D01*
X89594781Y-74899223D01*
X89645876Y-74999500D01*
X89682573Y-75071523D01*
X89687715Y-75081613D01*
X89808028Y-75247213D01*
X89952786Y-75391971D01*
X90088230Y-75490375D01*
X90118390Y-75512287D01*
X90200033Y-75553886D01*
X90300776Y-75605218D01*
X90300778Y-75605218D01*
X90300781Y-75605220D01*
X90347879Y-75620523D01*
X90495465Y-75668477D01*
X90526188Y-75673343D01*
X90697648Y-75700500D01*
X90697649Y-75700500D01*
X90902351Y-75700500D01*
X90902352Y-75700500D01*
X91104534Y-75668477D01*
X91299219Y-75605220D01*
X91481610Y-75512287D01*
X91602877Y-75424181D01*
X91668683Y-75400702D01*
X91675762Y-75400500D01*
X94170193Y-75400500D01*
X94237232Y-75420185D01*
X94250731Y-75430215D01*
X94252788Y-75431972D01*
X94336486Y-75492781D01*
X94418390Y-75552287D01*
X94502837Y-75595315D01*
X94511080Y-75599515D01*
X94561876Y-75647490D01*
X94578671Y-75715311D01*
X94556134Y-75781446D01*
X94511080Y-75820485D01*
X94418386Y-75867715D01*
X94252786Y-75988028D01*
X94108028Y-76132786D01*
X93987715Y-76298386D01*
X93894781Y-76480776D01*
X93831522Y-76675465D01*
X93799500Y-76877648D01*
X93799500Y-77082351D01*
X93831522Y-77284534D01*
X93894781Y-77479223D01*
X93987715Y-77661613D01*
X94108028Y-77827213D01*
X94252786Y-77971971D01*
X94341752Y-78036607D01*
X94418390Y-78092287D01*
X94509840Y-78138883D01*
X94511080Y-78139515D01*
X94561876Y-78187490D01*
X94578671Y-78255311D01*
X94556134Y-78321446D01*
X94511080Y-78360485D01*
X94418386Y-78407715D01*
X94252786Y-78528028D01*
X94108028Y-78672786D01*
X93987715Y-78838386D01*
X93894781Y-79020776D01*
X93831522Y-79215465D01*
X93799500Y-79417648D01*
X93799500Y-79622351D01*
X93831522Y-79824534D01*
X93894781Y-80019223D01*
X93957519Y-80142351D01*
X93959177Y-80145606D01*
X93987715Y-80201613D01*
X94108028Y-80367213D01*
X94252786Y-80511971D01*
X94377386Y-80602496D01*
X94418390Y-80632287D01*
X94506054Y-80676954D01*
X94600776Y-80725218D01*
X94600778Y-80725218D01*
X94600781Y-80725220D01*
X94662329Y-80745218D01*
X94795465Y-80788477D01*
X94862102Y-80799031D01*
X94943513Y-80811925D01*
X95006648Y-80841854D01*
X95011797Y-80846717D01*
X96564181Y-82399101D01*
X96597666Y-82460424D01*
X96600500Y-82486782D01*
X96600500Y-83445940D01*
X96580815Y-83512979D01*
X96528011Y-83558734D01*
X96458853Y-83568678D01*
X96420205Y-83556425D01*
X96299223Y-83494782D01*
X96299222Y-83494781D01*
X96299219Y-83494780D01*
X96219035Y-83468726D01*
X96104534Y-83431522D01*
X95929995Y-83403878D01*
X95902352Y-83399500D01*
X95697648Y-83399500D01*
X95673329Y-83403351D01*
X95495465Y-83431522D01*
X95300776Y-83494781D01*
X95118386Y-83587715D01*
X94952786Y-83708028D01*
X94808028Y-83852786D01*
X94687715Y-84018386D01*
X94594781Y-84200776D01*
X94531522Y-84395465D01*
X94499500Y-84597648D01*
X94499500Y-84802351D01*
X94531522Y-85004534D01*
X94594781Y-85199223D01*
X94646874Y-85301459D01*
X94681021Y-85368477D01*
X94687715Y-85381613D01*
X94808028Y-85547213D01*
X94952786Y-85691971D01*
X95053607Y-85765220D01*
X95118390Y-85812287D01*
X95234607Y-85871503D01*
X95300776Y-85905218D01*
X95300778Y-85905218D01*
X95300781Y-85905220D01*
X95405137Y-85939127D01*
X95495465Y-85968477D01*
X95578383Y-85981610D01*
X95697648Y-86000500D01*
X95697649Y-86000500D01*
X95902351Y-86000500D01*
X95902352Y-86000500D01*
X96104534Y-85968477D01*
X96299219Y-85905220D01*
X96481610Y-85812287D01*
X96582837Y-85738742D01*
X96647213Y-85691971D01*
X96647215Y-85691968D01*
X96647219Y-85691966D01*
X96791966Y-85547219D01*
X96791968Y-85547215D01*
X96791971Y-85547213D01*
X96878791Y-85427713D01*
X96912287Y-85381610D01*
X97005220Y-85199219D01*
X97024130Y-85141019D01*
X97063564Y-85083348D01*
X97127922Y-85056148D01*
X97196769Y-85068062D01*
X97229740Y-85091659D01*
X101263181Y-89125100D01*
X101296666Y-89186423D01*
X101299500Y-89212781D01*
X101299500Y-92143272D01*
X101279815Y-92210311D01*
X101227011Y-92256066D01*
X101157853Y-92266010D01*
X101102615Y-92243590D01*
X101081352Y-92228142D01*
X100899031Y-92135244D01*
X100704417Y-92072009D01*
X100502317Y-92040000D01*
X100297683Y-92040000D01*
X100095582Y-92072009D01*
X99900968Y-92135244D01*
X99718644Y-92228143D01*
X99674077Y-92260523D01*
X99674077Y-92260524D01*
X100353553Y-92940000D01*
X100347339Y-92940000D01*
X100245606Y-92967259D01*
X100154394Y-93019920D01*
X100079920Y-93094394D01*
X100027259Y-93185606D01*
X100000000Y-93287339D01*
X100000000Y-93293553D01*
X99320524Y-92614077D01*
X99320523Y-92614077D01*
X99288143Y-92658644D01*
X99195244Y-92840968D01*
X99132009Y-93035582D01*
X99100000Y-93237682D01*
X99100000Y-93442317D01*
X99132009Y-93644417D01*
X99195244Y-93839031D01*
X99288141Y-94021350D01*
X99288147Y-94021359D01*
X99320523Y-94065921D01*
X99320524Y-94065922D01*
X100000000Y-93386446D01*
X100000000Y-93392661D01*
X100027259Y-93494394D01*
X100079920Y-93585606D01*
X100154394Y-93660080D01*
X100245606Y-93712741D01*
X100347339Y-93740000D01*
X100353552Y-93740000D01*
X99674076Y-94419474D01*
X99718650Y-94451859D01*
X99900968Y-94544755D01*
X100095582Y-94607990D01*
X100297683Y-94640000D01*
X100502317Y-94640000D01*
X100704417Y-94607990D01*
X100899031Y-94544755D01*
X101081351Y-94451858D01*
X101102612Y-94436411D01*
X101168418Y-94412929D01*
X101236472Y-94428753D01*
X101285168Y-94478857D01*
X101299500Y-94536727D01*
X101299500Y-97998544D01*
X101337947Y-98191828D01*
X101337949Y-98191836D01*
X101356795Y-98237334D01*
X101356795Y-98237335D01*
X101413364Y-98373907D01*
X101413371Y-98373920D01*
X101522859Y-98537780D01*
X101522860Y-98537781D01*
X101522861Y-98537782D01*
X101662218Y-98677139D01*
X101662219Y-98677139D01*
X101669286Y-98684206D01*
X101669285Y-98684206D01*
X101669288Y-98684208D01*
X103022860Y-100037781D01*
X103022861Y-100037782D01*
X103098445Y-100113366D01*
X103162219Y-100177140D01*
X103326079Y-100286628D01*
X103326081Y-100286629D01*
X103326086Y-100286632D01*
X103410169Y-100321460D01*
X103508164Y-100362051D01*
X103698860Y-100399983D01*
X103701454Y-100400499D01*
X103701457Y-100400500D01*
X103701459Y-100400500D01*
X109534218Y-100400500D01*
X109601257Y-100420185D01*
X109621899Y-100436819D01*
X110263181Y-101078101D01*
X110296666Y-101139424D01*
X110299500Y-101165782D01*
X110299500Y-108915500D01*
X110279815Y-108982539D01*
X110227011Y-109028294D01*
X110175500Y-109039500D01*
X108755762Y-109039500D01*
X108688723Y-109019815D01*
X108682877Y-109015818D01*
X108561613Y-108927715D01*
X108561612Y-108927714D01*
X108561610Y-108927713D01*
X108468917Y-108880483D01*
X108418123Y-108832511D01*
X108401328Y-108764690D01*
X108423865Y-108698555D01*
X108468917Y-108659516D01*
X108561610Y-108612287D01*
X108595431Y-108587715D01*
X108727213Y-108491971D01*
X108727215Y-108491968D01*
X108727219Y-108491966D01*
X108871966Y-108347219D01*
X108871968Y-108347215D01*
X108871971Y-108347213D01*
X108924732Y-108274590D01*
X108992287Y-108181610D01*
X109085220Y-107999219D01*
X109148477Y-107804534D01*
X109180500Y-107602352D01*
X109180500Y-107397648D01*
X109148477Y-107195466D01*
X109085220Y-107000781D01*
X109085218Y-107000778D01*
X109085218Y-107000776D01*
X109047735Y-106927213D01*
X108992287Y-106818390D01*
X108984556Y-106807749D01*
X108871971Y-106652786D01*
X108727213Y-106508028D01*
X108561614Y-106387715D01*
X108555006Y-106384348D01*
X108468917Y-106340483D01*
X108418123Y-106292511D01*
X108401328Y-106224690D01*
X108423865Y-106158555D01*
X108468917Y-106119516D01*
X108561610Y-106072287D01*
X108681431Y-105985233D01*
X108727213Y-105951971D01*
X108727215Y-105951968D01*
X108727219Y-105951966D01*
X108871966Y-105807219D01*
X108871968Y-105807215D01*
X108871971Y-105807213D01*
X108950814Y-105698693D01*
X108992287Y-105641610D01*
X109085220Y-105459219D01*
X109148477Y-105264534D01*
X109180500Y-105062352D01*
X109180500Y-104857648D01*
X109171499Y-104800816D01*
X109148477Y-104655465D01*
X109095354Y-104491971D01*
X109085220Y-104460781D01*
X109085218Y-104460778D01*
X109085218Y-104460776D01*
X109027354Y-104347213D01*
X108992287Y-104278390D01*
X108984556Y-104267749D01*
X108871971Y-104112786D01*
X108727219Y-103968034D01*
X108715195Y-103959298D01*
X108633546Y-103899977D01*
X108590882Y-103844649D01*
X108584903Y-103775036D01*
X108617508Y-103713240D01*
X108667426Y-103681955D01*
X108749334Y-103654814D01*
X108898656Y-103562712D01*
X109022712Y-103438656D01*
X109114814Y-103289334D01*
X109169999Y-103122797D01*
X109180500Y-103020009D01*
X109180499Y-101819992D01*
X109169999Y-101717203D01*
X109114814Y-101550666D01*
X109022712Y-101401344D01*
X108898656Y-101277288D01*
X108797314Y-101214780D01*
X108749336Y-101185187D01*
X108749331Y-101185185D01*
X108747862Y-101184698D01*
X108582797Y-101130001D01*
X108582795Y-101130000D01*
X108480010Y-101119500D01*
X107279998Y-101119500D01*
X107279981Y-101119501D01*
X107177203Y-101130000D01*
X107177200Y-101130001D01*
X107010668Y-101185185D01*
X107010663Y-101185187D01*
X106861342Y-101277289D01*
X106737289Y-101401342D01*
X106645187Y-101550663D01*
X106645185Y-101550668D01*
X106643557Y-101555582D01*
X106590001Y-101717203D01*
X106590001Y-101717204D01*
X106590000Y-101717204D01*
X106579500Y-101819983D01*
X106579500Y-103020001D01*
X106579501Y-103020018D01*
X106590000Y-103122796D01*
X106590001Y-103122799D01*
X106627336Y-103235466D01*
X106645186Y-103289334D01*
X106737288Y-103438656D01*
X106861344Y-103562712D01*
X107010666Y-103654814D01*
X107092570Y-103681954D01*
X107102626Y-103688916D01*
X107114539Y-103691687D01*
X107130813Y-103708432D01*
X107150015Y-103721727D01*
X107154710Y-103733020D01*
X107163235Y-103741792D01*
X107167872Y-103764679D01*
X107176838Y-103786243D01*
X107174682Y-103798282D01*
X107177111Y-103810269D01*
X107168639Y-103832029D01*
X107164523Y-103855018D01*
X107155576Y-103865583D01*
X107151763Y-103875379D01*
X107126453Y-103899977D01*
X107098394Y-103920363D01*
X107077123Y-103935817D01*
X107011319Y-103959298D01*
X107004238Y-103959500D01*
X102325782Y-103959500D01*
X102258743Y-103939815D01*
X102238101Y-103923181D01*
X101726717Y-103411797D01*
X101693232Y-103350474D01*
X101691925Y-103343513D01*
X101679840Y-103267213D01*
X101668477Y-103195466D01*
X101663893Y-103181359D01*
X101618073Y-103040339D01*
X101605220Y-103000781D01*
X101605218Y-103000778D01*
X101605218Y-103000776D01*
X101539980Y-102872741D01*
X101512287Y-102818390D01*
X101462462Y-102749811D01*
X101391971Y-102652786D01*
X101247213Y-102508028D01*
X101081612Y-102387714D01*
X100899223Y-102294781D01*
X100704535Y-102231523D01*
X100556483Y-102208073D01*
X100493349Y-102178143D01*
X100488201Y-102173281D01*
X96436819Y-98121899D01*
X96403334Y-98060576D01*
X96400500Y-98034218D01*
X96400500Y-94215761D01*
X96420185Y-94148722D01*
X96424165Y-94142899D01*
X96512287Y-94021610D01*
X96605220Y-93839219D01*
X96668477Y-93644534D01*
X96700500Y-93442352D01*
X96700500Y-93237648D01*
X96684537Y-93136865D01*
X96668477Y-93035465D01*
X96637458Y-92940000D01*
X96605220Y-92840781D01*
X96605218Y-92840778D01*
X96605218Y-92840776D01*
X96512419Y-92658650D01*
X96512287Y-92658390D01*
X96480092Y-92614077D01*
X96391971Y-92492786D01*
X96247213Y-92348028D01*
X96081613Y-92227715D01*
X96081612Y-92227714D01*
X96081610Y-92227713D01*
X96024653Y-92198691D01*
X95899223Y-92134781D01*
X95704534Y-92071522D01*
X95529995Y-92043878D01*
X95502352Y-92039500D01*
X95297648Y-92039500D01*
X95273329Y-92043351D01*
X95095465Y-92071522D01*
X94900776Y-92134781D01*
X94718386Y-92227715D01*
X94552786Y-92348028D01*
X94408028Y-92492786D01*
X94287715Y-92658386D01*
X94194781Y-92840776D01*
X94131522Y-93035465D01*
X94099500Y-93237648D01*
X94099500Y-93442351D01*
X94131522Y-93644534D01*
X94194781Y-93839223D01*
X94275580Y-93997797D01*
X94287713Y-94021610D01*
X94375819Y-94142877D01*
X94399298Y-94208681D01*
X94399500Y-94215761D01*
X94399500Y-98185217D01*
X94379815Y-98252256D01*
X94327011Y-98298011D01*
X94257853Y-98307955D01*
X94194297Y-98278930D01*
X94187819Y-98272898D01*
X93903209Y-97988289D01*
X93903206Y-97988285D01*
X93903206Y-97988286D01*
X93896139Y-97981219D01*
X93896139Y-97981218D01*
X93756782Y-97841861D01*
X93756781Y-97841860D01*
X93756780Y-97841859D01*
X93592920Y-97732371D01*
X93592911Y-97732366D01*
X93471482Y-97682069D01*
X93471483Y-97682069D01*
X93464165Y-97679038D01*
X93410836Y-97656949D01*
X93295997Y-97634106D01*
X93291808Y-97633272D01*
X93291798Y-97633270D01*
X93217543Y-97618500D01*
X93217541Y-97618500D01*
X65082459Y-97618500D01*
X65082457Y-97618500D01*
X65030155Y-97628904D01*
X65004003Y-97634106D01*
X64889167Y-97656947D01*
X64889159Y-97656950D01*
X64835834Y-97679037D01*
X64835834Y-97679038D01*
X64828517Y-97682069D01*
X64707089Y-97732366D01*
X64707079Y-97732371D01*
X64543219Y-97841859D01*
X64473540Y-97911538D01*
X64403861Y-97981218D01*
X64403858Y-97981221D01*
X62562221Y-99822858D01*
X62562218Y-99822861D01*
X62509629Y-99875450D01*
X62422859Y-99962219D01*
X62313371Y-100126079D01*
X62313364Y-100126091D01*
X62281929Y-100201987D01*
X62242490Y-100297204D01*
X62242386Y-100297454D01*
X62242379Y-100297471D01*
X62240073Y-100303036D01*
X62213200Y-100343248D01*
X60806462Y-101749986D01*
X60745139Y-101783471D01*
X60675447Y-101778487D01*
X60619514Y-101736615D01*
X60595097Y-101671151D01*
X60595423Y-101649702D01*
X60597924Y-101625220D01*
X60600500Y-101600009D01*
X60600499Y-101165780D01*
X60620183Y-101098742D01*
X60636813Y-101078105D01*
X65978102Y-95736819D01*
X66039425Y-95703334D01*
X66065783Y-95700500D01*
X70824238Y-95700500D01*
X70891277Y-95720185D01*
X70897119Y-95724179D01*
X71018390Y-95812287D01*
X71101030Y-95854394D01*
X71200776Y-95905218D01*
X71200778Y-95905218D01*
X71200781Y-95905220D01*
X71305137Y-95939127D01*
X71395465Y-95968477D01*
X71496557Y-95984488D01*
X71597648Y-96000500D01*
X71597649Y-96000500D01*
X71802351Y-96000500D01*
X71802352Y-96000500D01*
X72004534Y-95968477D01*
X72199219Y-95905220D01*
X72381610Y-95812287D01*
X72519994Y-95711746D01*
X72547213Y-95691971D01*
X72547215Y-95691968D01*
X72547219Y-95691966D01*
X72691966Y-95547219D01*
X72691968Y-95547215D01*
X72691971Y-95547213D01*
X72759407Y-95454394D01*
X72812287Y-95381610D01*
X72905220Y-95199219D01*
X72968477Y-95004534D01*
X73000500Y-94802352D01*
X73000500Y-94597648D01*
X72985379Y-94502177D01*
X72968477Y-94395465D01*
X72916490Y-94235466D01*
X72905220Y-94200781D01*
X72905218Y-94200778D01*
X72905218Y-94200776D01*
X72859566Y-94111181D01*
X72843573Y-94079793D01*
X72830678Y-94011126D01*
X72856954Y-93946386D01*
X72914060Y-93906128D01*
X72954059Y-93899500D01*
X78252840Y-93899500D01*
X78319879Y-93919185D01*
X78353156Y-93950613D01*
X78474641Y-94117821D01*
X78627179Y-94270359D01*
X78801701Y-94397157D01*
X78993911Y-94495092D01*
X79199074Y-94561754D01*
X79278973Y-94574408D01*
X79412134Y-94595500D01*
X79412139Y-94595500D01*
X79627866Y-94595500D01*
X79746230Y-94576752D01*
X79840926Y-94561754D01*
X80046089Y-94495092D01*
X80238299Y-94397157D01*
X80412821Y-94270359D01*
X80565359Y-94117821D01*
X80689682Y-93946704D01*
X80745012Y-93904040D01*
X80814626Y-93898061D01*
X80876420Y-93930667D01*
X80890315Y-93946702D01*
X81014641Y-94117821D01*
X81167179Y-94270359D01*
X81341701Y-94397157D01*
X81533911Y-94495092D01*
X81739074Y-94561754D01*
X81818973Y-94574408D01*
X81952134Y-94595500D01*
X81952139Y-94595500D01*
X82167866Y-94595500D01*
X82286230Y-94576752D01*
X82380926Y-94561754D01*
X82586089Y-94495092D01*
X82778299Y-94397157D01*
X82952821Y-94270359D01*
X83094807Y-94128372D01*
X83156126Y-94094890D01*
X83225818Y-94099874D01*
X83281752Y-94141745D01*
X83294864Y-94163645D01*
X83295181Y-94164326D01*
X83295186Y-94164334D01*
X83387288Y-94313656D01*
X83511344Y-94437712D01*
X83660666Y-94529814D01*
X83827203Y-94584999D01*
X83929991Y-94595500D01*
X85270008Y-94595499D01*
X85372797Y-94584999D01*
X85539334Y-94529814D01*
X85688656Y-94437712D01*
X85812712Y-94313656D01*
X85904814Y-94164334D01*
X85959999Y-93997797D01*
X85970500Y-93895009D01*
X85970499Y-93237682D01*
X88800000Y-93237682D01*
X88800000Y-93442317D01*
X88832009Y-93644417D01*
X88895244Y-93839031D01*
X88988141Y-94021350D01*
X88988147Y-94021359D01*
X89020523Y-94065921D01*
X89020524Y-94065922D01*
X89700000Y-93386446D01*
X89700000Y-93392661D01*
X89727259Y-93494394D01*
X89779920Y-93585606D01*
X89854394Y-93660080D01*
X89945606Y-93712741D01*
X90047339Y-93740000D01*
X90053553Y-93740000D01*
X89374076Y-94419474D01*
X89418650Y-94451859D01*
X89600968Y-94544755D01*
X89795582Y-94607990D01*
X89997683Y-94640000D01*
X90202317Y-94640000D01*
X90404417Y-94607990D01*
X90599031Y-94544755D01*
X90781349Y-94451859D01*
X90825921Y-94419474D01*
X90146447Y-93740000D01*
X90152661Y-93740000D01*
X90254394Y-93712741D01*
X90345606Y-93660080D01*
X90420080Y-93585606D01*
X90472741Y-93494394D01*
X90500000Y-93392661D01*
X90500000Y-93386447D01*
X91179474Y-94065921D01*
X91211859Y-94021349D01*
X91304755Y-93839031D01*
X91367990Y-93644417D01*
X91400000Y-93442317D01*
X91400000Y-93237682D01*
X91367990Y-93035582D01*
X91304755Y-92840968D01*
X91211859Y-92658650D01*
X91179474Y-92614077D01*
X91179474Y-92614076D01*
X90500000Y-93293551D01*
X90500000Y-93287339D01*
X90472741Y-93185606D01*
X90420080Y-93094394D01*
X90345606Y-93019920D01*
X90254394Y-92967259D01*
X90152661Y-92940000D01*
X90146446Y-92940000D01*
X90825922Y-92260524D01*
X90825921Y-92260523D01*
X90781359Y-92228147D01*
X90781350Y-92228141D01*
X90599031Y-92135244D01*
X90404417Y-92072009D01*
X90202317Y-92040000D01*
X89997683Y-92040000D01*
X89795582Y-92072009D01*
X89600968Y-92135244D01*
X89418644Y-92228143D01*
X89374077Y-92260523D01*
X89374077Y-92260524D01*
X90053554Y-92940000D01*
X90047339Y-92940000D01*
X89945606Y-92967259D01*
X89854394Y-93019920D01*
X89779920Y-93094394D01*
X89727259Y-93185606D01*
X89700000Y-93287339D01*
X89700000Y-93293553D01*
X89020524Y-92614077D01*
X89020523Y-92614077D01*
X88988143Y-92658644D01*
X88895244Y-92840968D01*
X88832009Y-93035582D01*
X88800000Y-93237682D01*
X85970499Y-93237682D01*
X85970499Y-92986446D01*
X85970499Y-92307783D01*
X85970499Y-92104998D01*
X85970498Y-92104981D01*
X85959999Y-92002203D01*
X85959998Y-92002200D01*
X85938651Y-91937780D01*
X85904814Y-91835666D01*
X85812712Y-91686344D01*
X85688656Y-91562288D01*
X85539334Y-91470186D01*
X85372797Y-91415001D01*
X85372795Y-91415000D01*
X85270010Y-91404500D01*
X83929998Y-91404500D01*
X83929981Y-91404501D01*
X83827203Y-91415000D01*
X83827200Y-91415001D01*
X83660668Y-91470185D01*
X83660663Y-91470187D01*
X83511342Y-91562289D01*
X83387289Y-91686342D01*
X83295179Y-91835677D01*
X83294861Y-91836360D01*
X83294518Y-91836748D01*
X83291395Y-91841813D01*
X83290529Y-91841278D01*
X83248683Y-91888794D01*
X83181487Y-91907939D01*
X83114608Y-91887716D01*
X83094804Y-91871624D01*
X82952823Y-91729643D01*
X82952821Y-91729641D01*
X82778299Y-91602843D01*
X82586089Y-91504908D01*
X82380926Y-91438246D01*
X82380924Y-91438245D01*
X82380922Y-91438245D01*
X82167866Y-91404500D01*
X82167861Y-91404500D01*
X81952139Y-91404500D01*
X81952134Y-91404500D01*
X81739077Y-91438245D01*
X81533908Y-91504909D01*
X81341700Y-91602843D01*
X81242129Y-91675186D01*
X81167179Y-91729641D01*
X81167177Y-91729643D01*
X81167176Y-91729643D01*
X81014643Y-91882176D01*
X81014643Y-91882177D01*
X81014641Y-91882179D01*
X80974243Y-91937782D01*
X80890318Y-92053294D01*
X80834988Y-92095959D01*
X80765374Y-92101938D01*
X80703579Y-92069332D01*
X80689682Y-92053294D01*
X80652562Y-92002203D01*
X80565359Y-91882179D01*
X80412821Y-91729641D01*
X80238299Y-91602843D01*
X80046089Y-91504908D01*
X79840926Y-91438246D01*
X79840924Y-91438245D01*
X79840922Y-91438245D01*
X79627866Y-91404500D01*
X79627861Y-91404500D01*
X79412139Y-91404500D01*
X79412134Y-91404500D01*
X79199077Y-91438245D01*
X78993908Y-91504909D01*
X78801700Y-91602843D01*
X78702129Y-91675186D01*
X78627179Y-91729641D01*
X78627177Y-91729643D01*
X78627176Y-91729643D01*
X78494639Y-91862181D01*
X78433316Y-91895666D01*
X78406958Y-91898500D01*
X63242458Y-91898500D01*
X63232404Y-91900500D01*
X63212295Y-91904500D01*
X63081612Y-91930494D01*
X63049164Y-91936948D01*
X62867088Y-92012366D01*
X62867079Y-92012371D01*
X62703219Y-92121859D01*
X62703215Y-92121862D01*
X61451797Y-93373281D01*
X61390474Y-93406766D01*
X61383515Y-93408073D01*
X61235468Y-93431522D01*
X61040778Y-93494781D01*
X60858386Y-93587715D01*
X60692786Y-93708028D01*
X60548028Y-93852786D01*
X60427715Y-94018386D01*
X60334781Y-94200776D01*
X60271522Y-94395465D01*
X60239500Y-94597648D01*
X60239500Y-94802351D01*
X60271522Y-95004534D01*
X60334781Y-95199223D01*
X60394863Y-95317139D01*
X60421797Y-95370000D01*
X60427715Y-95381613D01*
X60548028Y-95547213D01*
X60692786Y-95691971D01*
X60847715Y-95804531D01*
X60858390Y-95812287D01*
X60941030Y-95854394D01*
X61040776Y-95905218D01*
X61040778Y-95905218D01*
X61040781Y-95905220D01*
X61145137Y-95939127D01*
X61235465Y-95968477D01*
X61336557Y-95984488D01*
X61437648Y-96000500D01*
X61437649Y-96000500D01*
X61642351Y-96000500D01*
X61642352Y-96000500D01*
X61844534Y-95968477D01*
X62039219Y-95905220D01*
X62221610Y-95812287D01*
X62359994Y-95711746D01*
X62387213Y-95691971D01*
X62387215Y-95691968D01*
X62387219Y-95691966D01*
X62531966Y-95547219D01*
X62531968Y-95547215D01*
X62531971Y-95547213D01*
X62599407Y-95454394D01*
X62652287Y-95381610D01*
X62745220Y-95199219D01*
X62808477Y-95004534D01*
X62831925Y-94856483D01*
X62861854Y-94793350D01*
X62866698Y-94788220D01*
X63719102Y-93935819D01*
X63780425Y-93902334D01*
X63806783Y-93899500D01*
X64686216Y-93899500D01*
X64753255Y-93919185D01*
X64799010Y-93971989D01*
X64808954Y-94041147D01*
X64779929Y-94104703D01*
X64773897Y-94111181D01*
X60504876Y-98380202D01*
X60443553Y-98413687D01*
X60373861Y-98408703D01*
X60317928Y-98366831D01*
X60295578Y-98316712D01*
X60262052Y-98148172D01*
X60262051Y-98148165D01*
X60201001Y-98000776D01*
X60186635Y-97966092D01*
X60186628Y-97966079D01*
X60077139Y-97802218D01*
X60077136Y-97802214D01*
X59934686Y-97659764D01*
X59934655Y-97659735D01*
X56726717Y-94451797D01*
X56693232Y-94390474D01*
X56691925Y-94383513D01*
X56668477Y-94235466D01*
X56668477Y-94235465D01*
X56627093Y-94108100D01*
X56605220Y-94040781D01*
X56605218Y-94040778D01*
X56605218Y-94040776D01*
X56570169Y-93971989D01*
X56512287Y-93858390D01*
X56504556Y-93847749D01*
X56391971Y-93692786D01*
X56247213Y-93548028D01*
X56081613Y-93427715D01*
X56081612Y-93427714D01*
X56081610Y-93427713D01*
X56012817Y-93392661D01*
X55899223Y-93334781D01*
X55704534Y-93271522D01*
X55529995Y-93243878D01*
X55502352Y-93239500D01*
X55297648Y-93239500D01*
X55273329Y-93243351D01*
X55095465Y-93271522D01*
X54900776Y-93334781D01*
X54718386Y-93427715D01*
X54597123Y-93515818D01*
X54531317Y-93539298D01*
X54524238Y-93539500D01*
X52105782Y-93539500D01*
X52076341Y-93530855D01*
X52046355Y-93524332D01*
X52041339Y-93520577D01*
X52038743Y-93519815D01*
X52018101Y-93503181D01*
X51926717Y-93411797D01*
X51893232Y-93350474D01*
X51891925Y-93343513D01*
X51891368Y-93339999D01*
X51868477Y-93195466D01*
X51865273Y-93185606D01*
X51829511Y-93075542D01*
X51805220Y-93000781D01*
X51805218Y-93000778D01*
X51805218Y-93000776D01*
X51771503Y-92934607D01*
X51712287Y-92818390D01*
X51704556Y-92807749D01*
X51591971Y-92652786D01*
X51447213Y-92508028D01*
X51281613Y-92387715D01*
X51281612Y-92387714D01*
X51281610Y-92387713D01*
X51203724Y-92348028D01*
X51099223Y-92294781D01*
X50904534Y-92231522D01*
X50729995Y-92203878D01*
X50702352Y-92199500D01*
X50497648Y-92199500D01*
X50473329Y-92203351D01*
X50295465Y-92231522D01*
X50100776Y-92294781D01*
X49918386Y-92387715D01*
X49752786Y-92508028D01*
X49608028Y-92652786D01*
X49487715Y-92818386D01*
X49394781Y-93000776D01*
X49331522Y-93195465D01*
X49303359Y-93373281D01*
X49299500Y-93397648D01*
X49299500Y-93602352D01*
X49303878Y-93629995D01*
X49331522Y-93804534D01*
X49394781Y-93999223D01*
X49455211Y-94117821D01*
X49486798Y-94179815D01*
X49487715Y-94181613D01*
X49608028Y-94347213D01*
X49752786Y-94491971D01*
X49885158Y-94588143D01*
X49918390Y-94612287D01*
X50034607Y-94671503D01*
X50100776Y-94705218D01*
X50100778Y-94705218D01*
X50100781Y-94705220D01*
X50161698Y-94725013D01*
X50295465Y-94768477D01*
X50372966Y-94780751D01*
X50443513Y-94791925D01*
X50506648Y-94821854D01*
X50511797Y-94826717D01*
X50859735Y-95174655D01*
X50859764Y-95174686D01*
X51002217Y-95317139D01*
X51119616Y-95395582D01*
X51166086Y-95426632D01*
X51166088Y-95426633D01*
X51166092Y-95426635D01*
X51233110Y-95454394D01*
X51288022Y-95477139D01*
X51348164Y-95502051D01*
X51444812Y-95521275D01*
X51449734Y-95522254D01*
X51541458Y-95540500D01*
X51541459Y-95540500D01*
X51541460Y-95540500D01*
X51738540Y-95540500D01*
X54524238Y-95540500D01*
X54591277Y-95560185D01*
X54597119Y-95564179D01*
X54718390Y-95652287D01*
X54818575Y-95703334D01*
X54900776Y-95745218D01*
X54900778Y-95745218D01*
X54900781Y-95745220D01*
X55005137Y-95779127D01*
X55095465Y-95808477D01*
X55172966Y-95820751D01*
X55243513Y-95831925D01*
X55306648Y-95861854D01*
X55311797Y-95866717D01*
X58263181Y-98818101D01*
X58296666Y-98879424D01*
X58299500Y-98905782D01*
X58299500Y-99787769D01*
X58279815Y-99854808D01*
X58263182Y-99875450D01*
X58157287Y-99981345D01*
X58065187Y-100130663D01*
X58065185Y-100130668D01*
X58037349Y-100214670D01*
X58010001Y-100297203D01*
X58010001Y-100297204D01*
X58010000Y-100297204D01*
X57999500Y-100399983D01*
X57999500Y-101600001D01*
X57999501Y-101600018D01*
X58010000Y-101702796D01*
X58010001Y-101702799D01*
X58065185Y-101869331D01*
X58065187Y-101869336D01*
X58066516Y-101871491D01*
X58157288Y-102018656D01*
X58281344Y-102142712D01*
X58430666Y-102234814D01*
X58512570Y-102261954D01*
X58522626Y-102268916D01*
X58534539Y-102271687D01*
X58550813Y-102288432D01*
X58570015Y-102301727D01*
X58574710Y-102313020D01*
X58583235Y-102321792D01*
X58587872Y-102344679D01*
X58596838Y-102366243D01*
X58594682Y-102378282D01*
X58597111Y-102390269D01*
X58588639Y-102412029D01*
X58584523Y-102435018D01*
X58575576Y-102445583D01*
X58571763Y-102455379D01*
X58546453Y-102479977D01*
X58519583Y-102499500D01*
X58497123Y-102515817D01*
X58431319Y-102539298D01*
X58424238Y-102539500D01*
X56461457Y-102539500D01*
X56381214Y-102555461D01*
X56381200Y-102555464D01*
X56377483Y-102556204D01*
X56268164Y-102577949D01*
X56227531Y-102594780D01*
X56219779Y-102597990D01*
X56211667Y-102600128D01*
X56200119Y-102599804D01*
X56151281Y-102605051D01*
X56088804Y-102573771D01*
X56085626Y-102570704D01*
X56034686Y-102519764D01*
X56034655Y-102519735D01*
X51926717Y-98411797D01*
X51893232Y-98350474D01*
X51891925Y-98343513D01*
X51868477Y-98195466D01*
X51868477Y-98195465D01*
X51832773Y-98085580D01*
X51805220Y-98000781D01*
X51805218Y-98000778D01*
X51805218Y-98000776D01*
X51771503Y-97934607D01*
X51712287Y-97818390D01*
X51699987Y-97801460D01*
X51591971Y-97652786D01*
X51447213Y-97508028D01*
X51281613Y-97387715D01*
X51281612Y-97387714D01*
X51281610Y-97387713D01*
X51224653Y-97358691D01*
X51099223Y-97294781D01*
X50904534Y-97231522D01*
X50729995Y-97203878D01*
X50702352Y-97199500D01*
X50497648Y-97199500D01*
X50473329Y-97203351D01*
X50295465Y-97231522D01*
X50100776Y-97294781D01*
X49918386Y-97387715D01*
X49752786Y-97508028D01*
X49608028Y-97652786D01*
X49487715Y-97818386D01*
X49394781Y-98000776D01*
X49331522Y-98195465D01*
X49299500Y-98397648D01*
X49299500Y-98602351D01*
X49331522Y-98804534D01*
X49394781Y-98999223D01*
X49487715Y-99181613D01*
X49608028Y-99347213D01*
X49752786Y-99491971D01*
X49907749Y-99604556D01*
X49918390Y-99612287D01*
X50024565Y-99666386D01*
X50100776Y-99705218D01*
X50100778Y-99705218D01*
X50100781Y-99705220D01*
X50183143Y-99731981D01*
X50295465Y-99768477D01*
X50372966Y-99780751D01*
X50443513Y-99791925D01*
X50506648Y-99821854D01*
X50511797Y-99826717D01*
X54363181Y-103678101D01*
X54377884Y-103705028D01*
X54394477Y-103730847D01*
X54395368Y-103737047D01*
X54396666Y-103739424D01*
X54399500Y-103765782D01*
X54399500Y-103824237D01*
X54379815Y-103891276D01*
X54375818Y-103897122D01*
X54287715Y-104018386D01*
X54194781Y-104200776D01*
X54131522Y-104395465D01*
X54099500Y-104597648D01*
X54099500Y-104802351D01*
X54131522Y-105004534D01*
X54194781Y-105199223D01*
X54287712Y-105381609D01*
X54375628Y-105502616D01*
X54399107Y-105568423D01*
X54383281Y-105636477D01*
X54333175Y-105685171D01*
X54275309Y-105699501D01*
X51301455Y-105699501D01*
X51108170Y-105737948D01*
X51108162Y-105737950D01*
X51059727Y-105758013D01*
X51059726Y-105758013D01*
X50926087Y-105813367D01*
X50788620Y-105905220D01*
X50788619Y-105905221D01*
X50762214Y-105922863D01*
X50762213Y-105922864D01*
X50511797Y-106173281D01*
X50450474Y-106206766D01*
X50443515Y-106208073D01*
X50295468Y-106231522D01*
X50100778Y-106294781D01*
X49918386Y-106387715D01*
X49752786Y-106508028D01*
X49608028Y-106652786D01*
X49487715Y-106818386D01*
X49394781Y-107000776D01*
X49331522Y-107195465D01*
X49299500Y-107397648D01*
X49299500Y-107602351D01*
X49331522Y-107804534D01*
X49394781Y-107999223D01*
X49487715Y-108181613D01*
X49608028Y-108347213D01*
X49752786Y-108491971D01*
X49884569Y-108587715D01*
X49918390Y-108612287D01*
X49994090Y-108650858D01*
X50100776Y-108705218D01*
X50100778Y-108705218D01*
X50100781Y-108705220D01*
X50153505Y-108722351D01*
X50295465Y-108768477D01*
X50314697Y-108771523D01*
X50497648Y-108800500D01*
X50497649Y-108800500D01*
X50702351Y-108800500D01*
X50702352Y-108800500D01*
X50904534Y-108768477D01*
X51099219Y-108705220D01*
X51281610Y-108612287D01*
X51408379Y-108520185D01*
X51447213Y-108491971D01*
X51447215Y-108491968D01*
X51447219Y-108491966D01*
X51591966Y-108347219D01*
X51591968Y-108347215D01*
X51591971Y-108347213D01*
X51644732Y-108274590D01*
X51712287Y-108181610D01*
X51805220Y-107999219D01*
X51868477Y-107804534D01*
X51869612Y-107799806D01*
X51870767Y-107800083D01*
X51898316Y-107741969D01*
X51957627Y-107705037D01*
X51990860Y-107700501D01*
X58117185Y-107700501D01*
X58184224Y-107720186D01*
X58229979Y-107772990D01*
X58239923Y-107842148D01*
X58217504Y-107897386D01*
X58187712Y-107938390D01*
X58094781Y-108120778D01*
X58031522Y-108315468D01*
X58008073Y-108463514D01*
X57978143Y-108526649D01*
X57973281Y-108531796D01*
X51797399Y-114707680D01*
X49762220Y-116742859D01*
X49762218Y-116742861D01*
X49692538Y-116812540D01*
X49622859Y-116882219D01*
X49513371Y-117046079D01*
X49513364Y-117046092D01*
X49437950Y-117228160D01*
X49437947Y-117228170D01*
X49399500Y-117421456D01*
X49399500Y-117421459D01*
X49399500Y-119453541D01*
X49399500Y-119453543D01*
X49399499Y-119453543D01*
X49437947Y-119646829D01*
X49437950Y-119646839D01*
X49513364Y-119828907D01*
X49513371Y-119828920D01*
X49622859Y-119992780D01*
X49622860Y-119992781D01*
X49622861Y-119992782D01*
X49762218Y-120132139D01*
X49762219Y-120132139D01*
X49769286Y-120139206D01*
X49769285Y-120139206D01*
X49769288Y-120139208D01*
X51049899Y-121419820D01*
X51083383Y-121481141D01*
X51078399Y-121550833D01*
X51049898Y-121595180D01*
X49201898Y-123443181D01*
X48906109Y-123738970D01*
X48906106Y-123738973D01*
X48857051Y-123788028D01*
X48766747Y-123878331D01*
X48657259Y-124042191D01*
X48657252Y-124042204D01*
X48615008Y-124144191D01*
X48615003Y-124144205D01*
X48612993Y-124149059D01*
X48581837Y-124224276D01*
X48570312Y-124282218D01*
X48568962Y-124289001D01*
X48568960Y-124289010D01*
X48543388Y-124417568D01*
X48543388Y-124417571D01*
X48543388Y-130322459D01*
X48543388Y-130519541D01*
X48543388Y-130519543D01*
X48543387Y-130519543D01*
X48581835Y-130712829D01*
X48581838Y-130712839D01*
X48657252Y-130894907D01*
X48657259Y-130894920D01*
X48766748Y-131058781D01*
X48766751Y-131058785D01*
X48906102Y-131198136D01*
X48906106Y-131198139D01*
X49069967Y-131307628D01*
X49069980Y-131307635D01*
X49252048Y-131383049D01*
X49252053Y-131383051D01*
X49252057Y-131383051D01*
X49252058Y-131383052D01*
X49445344Y-131421500D01*
X49445347Y-131421500D01*
X53244431Y-131421500D01*
X53309453Y-131408565D01*
X53366899Y-131397139D01*
X53437724Y-131383051D01*
X53491053Y-131360961D01*
X53619802Y-131307632D01*
X53783670Y-131198139D01*
X53923027Y-131058782D01*
X53923028Y-131058780D01*
X54122027Y-130859782D01*
X54180084Y-130772893D01*
X54231520Y-130695914D01*
X54306939Y-130513835D01*
X54339808Y-130348593D01*
X54345388Y-130320543D01*
X54345388Y-129744500D01*
X54365073Y-129677461D01*
X54417877Y-129631706D01*
X54469388Y-129620500D01*
X57222644Y-129620500D01*
X57289683Y-129640185D01*
X57335438Y-129692989D01*
X57345933Y-129757752D01*
X57344388Y-129772127D01*
X57344388Y-129772133D01*
X57344388Y-129772134D01*
X57344388Y-131467870D01*
X57344389Y-131467876D01*
X57350796Y-131527483D01*
X57401090Y-131662328D01*
X57401094Y-131662335D01*
X57470246Y-131754709D01*
X57487342Y-131777546D01*
X57594699Y-131857914D01*
X57636570Y-131913847D01*
X57644388Y-131957180D01*
X57644388Y-132518544D01*
X57682835Y-132711833D01*
X57682837Y-132711837D01*
X57704926Y-132765164D01*
X57758254Y-132893911D01*
X57758259Y-132893920D01*
X57863689Y-133051706D01*
X57867749Y-133057782D01*
X57868748Y-133058781D01*
X57868749Y-133058782D01*
X58008106Y-133198139D01*
X58008107Y-133198140D01*
X58171967Y-133307628D01*
X58171980Y-133307635D01*
X58300721Y-133360961D01*
X58343632Y-133378735D01*
X58354052Y-133383051D01*
X58450700Y-133402275D01*
X58499023Y-133411887D01*
X58547346Y-133421500D01*
X58547347Y-133421500D01*
X63657542Y-133421500D01*
X63688566Y-133415328D01*
X63754188Y-133402275D01*
X63850836Y-133383051D01*
X63904165Y-133360961D01*
X64032914Y-133307632D01*
X64196782Y-133198139D01*
X64336139Y-133058782D01*
X64336140Y-133058779D01*
X64343206Y-133051714D01*
X64343209Y-133051710D01*
X71288203Y-126106715D01*
X71349524Y-126073232D01*
X71356473Y-126071927D01*
X71504534Y-126048477D01*
X71699219Y-125985220D01*
X71881610Y-125892287D01*
X71974590Y-125824732D01*
X72047213Y-125771971D01*
X72047215Y-125771968D01*
X72047219Y-125771966D01*
X72191966Y-125627219D01*
X72191968Y-125627215D01*
X72191971Y-125627213D01*
X72244732Y-125554590D01*
X72312287Y-125461610D01*
X72405220Y-125279219D01*
X72468477Y-125084534D01*
X72500500Y-124882352D01*
X72500500Y-124677648D01*
X72468477Y-124475466D01*
X72405220Y-124280781D01*
X72405218Y-124280778D01*
X72405218Y-124280776D01*
X72338104Y-124149059D01*
X72312287Y-124098390D01*
X72271466Y-124042204D01*
X72191971Y-123932786D01*
X72047213Y-123788028D01*
X71881613Y-123667715D01*
X71881612Y-123667714D01*
X71881610Y-123667713D01*
X71824653Y-123638691D01*
X71699223Y-123574781D01*
X71504534Y-123511522D01*
X71316690Y-123481771D01*
X71302352Y-123479500D01*
X71097648Y-123479500D01*
X71083310Y-123481771D01*
X70895465Y-123511522D01*
X70700776Y-123574781D01*
X70518386Y-123667715D01*
X70352786Y-123788028D01*
X70208028Y-123932786D01*
X70087715Y-124098386D01*
X69994781Y-124280778D01*
X69931522Y-124475468D01*
X69908073Y-124623515D01*
X69878143Y-124686649D01*
X69873281Y-124691797D01*
X63180899Y-131384181D01*
X63119576Y-131417666D01*
X63093218Y-131420500D01*
X61898947Y-131420500D01*
X61831908Y-131400815D01*
X61786153Y-131348011D01*
X61776209Y-131278853D01*
X61788462Y-131240205D01*
X61809898Y-131198136D01*
X61850108Y-131119219D01*
X61913365Y-130924534D01*
X61945388Y-130722352D01*
X61945388Y-130517648D01*
X61918612Y-130348593D01*
X61927567Y-130279300D01*
X61953401Y-130241517D01*
X66088203Y-126106715D01*
X66149524Y-126073232D01*
X66156473Y-126071927D01*
X66304534Y-126048477D01*
X66499219Y-125985220D01*
X66681610Y-125892287D01*
X66774590Y-125824732D01*
X66847213Y-125771971D01*
X66847215Y-125771968D01*
X66847219Y-125771966D01*
X66991966Y-125627219D01*
X66991968Y-125627215D01*
X66991971Y-125627213D01*
X67044732Y-125554590D01*
X67112287Y-125461610D01*
X67205220Y-125279219D01*
X67268477Y-125084534D01*
X67291925Y-124936483D01*
X67321854Y-124873350D01*
X67326699Y-124868219D01*
X73758101Y-118436819D01*
X73819424Y-118403334D01*
X73845782Y-118400500D01*
X102598542Y-118400500D01*
X102612114Y-118397799D01*
X102695188Y-118381275D01*
X102791836Y-118362051D01*
X102860083Y-118333782D01*
X102973914Y-118286632D01*
X103137782Y-118177139D01*
X103277139Y-118037782D01*
X103277140Y-118037780D01*
X103284206Y-118030714D01*
X103284209Y-118030710D01*
X108517778Y-112797141D01*
X108517782Y-112797139D01*
X108657139Y-112657782D01*
X108766632Y-112493914D01*
X108842051Y-112311835D01*
X108880500Y-112118541D01*
X108880500Y-111164500D01*
X108900185Y-111097461D01*
X108952989Y-111051706D01*
X109004500Y-111040500D01*
X110758543Y-111040500D01*
X110810207Y-111030222D01*
X110864114Y-111019500D01*
X110951836Y-111002051D01*
X111032890Y-110968477D01*
X111133914Y-110926632D01*
X111297782Y-110817139D01*
X111437139Y-110677782D01*
X111437140Y-110677779D01*
X112077140Y-110037781D01*
X112186632Y-109873914D01*
X112262052Y-109691835D01*
X112296132Y-109520500D01*
X112300500Y-109498541D01*
X112300500Y-100601459D01*
X112285507Y-100526086D01*
X112284764Y-100522352D01*
X112262053Y-100408172D01*
X112262052Y-100408165D01*
X112186632Y-100226086D01*
X112186631Y-100226085D01*
X112186628Y-100226079D01*
X112077140Y-100062219D01*
X112077137Y-100062215D01*
X110784209Y-98769289D01*
X110784206Y-98769285D01*
X110784206Y-98769286D01*
X110777139Y-98762219D01*
X110777139Y-98762218D01*
X110637782Y-98622861D01*
X110637781Y-98622860D01*
X110637780Y-98622859D01*
X110473920Y-98513371D01*
X110473911Y-98513366D01*
X110390683Y-98478892D01*
X110345165Y-98460038D01*
X110318500Y-98448993D01*
X110291837Y-98437949D01*
X110291833Y-98437947D01*
X110108395Y-98401460D01*
X110108391Y-98401458D01*
X110108391Y-98401459D01*
X110098544Y-98399500D01*
X110098541Y-98399500D01*
X104265783Y-98399500D01*
X104198744Y-98379815D01*
X104178102Y-98363181D01*
X103336819Y-97521898D01*
X103303334Y-97460575D01*
X103300500Y-97434217D01*
X103300500Y-96682814D01*
X103320185Y-96615775D01*
X103372989Y-96570020D01*
X103442147Y-96560076D01*
X103497385Y-96582496D01*
X103533094Y-96608439D01*
X103538390Y-96612287D01*
X103654607Y-96671503D01*
X103720776Y-96705218D01*
X103720778Y-96705218D01*
X103720781Y-96705220D01*
X103802854Y-96731887D01*
X103915465Y-96768477D01*
X103984897Y-96779474D01*
X104117648Y-96800500D01*
X104117649Y-96800500D01*
X104322351Y-96800500D01*
X104322352Y-96800500D01*
X104524534Y-96768477D01*
X104719219Y-96705220D01*
X104901610Y-96612287D01*
X104994590Y-96544732D01*
X105067213Y-96491971D01*
X105067215Y-96491968D01*
X105067219Y-96491966D01*
X105211966Y-96347219D01*
X105211968Y-96347215D01*
X105211971Y-96347213D01*
X105264732Y-96274590D01*
X105332287Y-96181610D01*
X105425220Y-95999219D01*
X105488477Y-95804534D01*
X105520500Y-95602352D01*
X105520500Y-95397648D01*
X105515580Y-95366585D01*
X105516435Y-95322998D01*
X105521500Y-95297541D01*
X105521500Y-88597648D01*
X106199500Y-88597648D01*
X106199500Y-88802351D01*
X106231522Y-89004534D01*
X106294781Y-89199223D01*
X106348850Y-89305338D01*
X106373026Y-89352786D01*
X106387715Y-89381613D01*
X106508028Y-89547213D01*
X106652786Y-89691971D01*
X106757717Y-89768206D01*
X106818390Y-89812287D01*
X106932967Y-89870667D01*
X107000776Y-89905218D01*
X107000778Y-89905218D01*
X107000781Y-89905220D01*
X107093887Y-89935472D01*
X107195465Y-89968477D01*
X107272966Y-89980751D01*
X107343513Y-89991925D01*
X107406648Y-90021854D01*
X107411797Y-90026717D01*
X113068336Y-95683256D01*
X113101821Y-95744579D01*
X113103128Y-95751537D01*
X113111522Y-95804531D01*
X113111523Y-95804534D01*
X113174780Y-95999219D01*
X113212241Y-96072741D01*
X113267715Y-96181613D01*
X113388028Y-96347213D01*
X113532786Y-96491971D01*
X113657386Y-96582496D01*
X113698390Y-96612287D01*
X113814607Y-96671503D01*
X113880776Y-96705218D01*
X113880778Y-96705218D01*
X113880781Y-96705220D01*
X113962854Y-96731887D01*
X114075465Y-96768477D01*
X114144897Y-96779474D01*
X114277648Y-96800500D01*
X114277649Y-96800500D01*
X114482351Y-96800500D01*
X114482352Y-96800500D01*
X114684534Y-96768477D01*
X114684537Y-96768476D01*
X114684538Y-96768476D01*
X114875068Y-96706569D01*
X114913386Y-96700500D01*
X117424238Y-96700500D01*
X117491277Y-96720185D01*
X117497119Y-96724179D01*
X117618390Y-96812287D01*
X117734607Y-96871503D01*
X117800776Y-96905218D01*
X117800778Y-96905218D01*
X117800781Y-96905220D01*
X117887341Y-96933345D01*
X117995465Y-96968477D01*
X118096557Y-96984488D01*
X118197648Y-97000500D01*
X118197649Y-97000500D01*
X118402351Y-97000500D01*
X118402352Y-97000500D01*
X118604534Y-96968477D01*
X118799219Y-96905220D01*
X118981610Y-96812287D01*
X119084103Y-96737822D01*
X119147213Y-96691971D01*
X119147215Y-96691968D01*
X119147219Y-96691966D01*
X119291966Y-96547219D01*
X119291968Y-96547215D01*
X119291971Y-96547213D01*
X119344732Y-96474590D01*
X119412287Y-96381610D01*
X119505220Y-96199219D01*
X119568477Y-96004534D01*
X119600500Y-95802352D01*
X119600500Y-95597682D01*
X122000000Y-95597682D01*
X122000000Y-95802317D01*
X122032009Y-96004417D01*
X122095244Y-96199031D01*
X122188141Y-96381350D01*
X122188147Y-96381359D01*
X122220523Y-96425921D01*
X122220524Y-96425922D01*
X122900000Y-95746446D01*
X122900000Y-95752661D01*
X122927259Y-95854394D01*
X122979920Y-95945606D01*
X123054394Y-96020080D01*
X123145606Y-96072741D01*
X123247339Y-96100000D01*
X123253553Y-96100000D01*
X122574076Y-96779474D01*
X122618650Y-96811859D01*
X122800968Y-96904755D01*
X122995582Y-96967990D01*
X123197683Y-97000000D01*
X123402317Y-97000000D01*
X123604417Y-96967990D01*
X123799031Y-96904755D01*
X123981349Y-96811859D01*
X124025921Y-96779474D01*
X123346447Y-96100000D01*
X123352661Y-96100000D01*
X123454394Y-96072741D01*
X123545606Y-96020080D01*
X123620080Y-95945606D01*
X123672741Y-95854394D01*
X123700000Y-95752661D01*
X123700000Y-95746447D01*
X124379474Y-96425921D01*
X124411859Y-96381349D01*
X124504755Y-96199031D01*
X124567990Y-96004417D01*
X124600000Y-95802314D01*
X124600000Y-95597682D01*
X124567990Y-95395582D01*
X124504755Y-95200968D01*
X124411859Y-95018650D01*
X124379474Y-94974077D01*
X124379474Y-94974076D01*
X123700000Y-95653551D01*
X123700000Y-95647339D01*
X123672741Y-95545606D01*
X123620080Y-95454394D01*
X123545606Y-95379920D01*
X123454394Y-95327259D01*
X123352661Y-95300000D01*
X123346446Y-95300000D01*
X123921434Y-94725013D01*
X131360000Y-94725013D01*
X131360000Y-95370000D01*
X132187291Y-95370000D01*
X132175548Y-95390339D01*
X132135000Y-95541667D01*
X132135000Y-95698333D01*
X132175548Y-95849661D01*
X132187291Y-95870000D01*
X131360001Y-95870000D01*
X131360001Y-96514986D01*
X131370494Y-96617697D01*
X131425641Y-96784119D01*
X131425643Y-96784124D01*
X131517684Y-96933345D01*
X131641654Y-97057315D01*
X131790875Y-97149356D01*
X131790880Y-97149358D01*
X131957302Y-97204505D01*
X131957309Y-97204506D01*
X132060019Y-97214999D01*
X132479999Y-97214999D01*
X132480000Y-97214998D01*
X132480000Y-96162709D01*
X132500339Y-96174452D01*
X132651667Y-96215000D01*
X132808333Y-96215000D01*
X132959661Y-96174452D01*
X132980000Y-96162709D01*
X132980000Y-97214999D01*
X133399972Y-97214999D01*
X133399986Y-97214998D01*
X133502697Y-97204505D01*
X133669119Y-97149358D01*
X133669124Y-97149356D01*
X133818345Y-97057315D01*
X133942315Y-96933345D01*
X134034354Y-96784127D01*
X134034745Y-96783289D01*
X134035167Y-96782809D01*
X134038149Y-96777975D01*
X134038974Y-96778484D01*
X134080910Y-96730843D01*
X134148100Y-96711681D01*
X134214984Y-96731887D01*
X134234816Y-96747996D01*
X134377179Y-96890359D01*
X134551701Y-97017157D01*
X134743911Y-97115092D01*
X134949074Y-97181754D01*
X135028973Y-97194408D01*
X135162134Y-97215500D01*
X135162139Y-97215500D01*
X135377866Y-97215500D01*
X135496230Y-97196752D01*
X135590926Y-97181754D01*
X135796089Y-97115092D01*
X135988299Y-97017157D01*
X136162821Y-96890359D01*
X136315359Y-96737821D01*
X136442157Y-96563299D01*
X136540092Y-96371089D01*
X136606754Y-96165926D01*
X136632316Y-96004534D01*
X136640500Y-95952866D01*
X136640500Y-95287133D01*
X136606754Y-95074077D01*
X136606754Y-95074074D01*
X136540092Y-94868911D01*
X136442157Y-94676701D01*
X136315359Y-94502179D01*
X136306819Y-94493639D01*
X136292115Y-94466711D01*
X136275523Y-94440893D01*
X136274631Y-94434692D01*
X136273334Y-94432316D01*
X136270500Y-94405958D01*
X136270500Y-94195781D01*
X136290185Y-94128742D01*
X136306814Y-94108105D01*
X138337778Y-92077141D01*
X138337782Y-92077139D01*
X138477139Y-91937782D01*
X138586632Y-91773914D01*
X138639961Y-91645165D01*
X138662051Y-91591836D01*
X138699314Y-91404501D01*
X138699318Y-91404501D01*
X138699318Y-91404480D01*
X138700500Y-91398541D01*
X138700500Y-89975761D01*
X138720185Y-89908722D01*
X138724165Y-89902899D01*
X138812287Y-89781610D01*
X138905220Y-89599219D01*
X138968477Y-89404534D01*
X139000500Y-89202352D01*
X139000500Y-88997648D01*
X138990027Y-88931522D01*
X138968477Y-88795465D01*
X138934209Y-88690000D01*
X138905220Y-88600781D01*
X138905218Y-88600778D01*
X138905218Y-88600776D01*
X138835466Y-88463882D01*
X138812287Y-88418390D01*
X138788426Y-88385548D01*
X138691971Y-88252786D01*
X138547213Y-88108028D01*
X138381613Y-87987715D01*
X138381612Y-87987714D01*
X138381610Y-87987713D01*
X138324653Y-87958691D01*
X138199223Y-87894781D01*
X138004534Y-87831522D01*
X137829995Y-87803878D01*
X137802352Y-87799500D01*
X137597648Y-87799500D01*
X137573329Y-87803351D01*
X137395465Y-87831522D01*
X137200776Y-87894781D01*
X137018386Y-87987715D01*
X136852786Y-88108028D01*
X136708028Y-88252786D01*
X136587715Y-88418386D01*
X136494781Y-88600776D01*
X136431522Y-88795465D01*
X136399500Y-88997648D01*
X136399500Y-89202351D01*
X136431522Y-89404534D01*
X136494781Y-89599223D01*
X136556415Y-89720185D01*
X136587713Y-89781610D01*
X136675819Y-89902877D01*
X136699298Y-89968681D01*
X136699500Y-89975761D01*
X136699500Y-90834217D01*
X136679815Y-90901256D01*
X136663181Y-90921898D01*
X135648131Y-91936948D01*
X134632221Y-92952858D01*
X134632218Y-92952861D01*
X134584303Y-93000776D01*
X134492859Y-93092219D01*
X134383371Y-93256080D01*
X134383366Y-93256089D01*
X134337647Y-93366466D01*
X134337645Y-93366472D01*
X134334977Y-93372914D01*
X134307949Y-93438164D01*
X134288724Y-93534812D01*
X134287708Y-93539915D01*
X134287705Y-93539929D01*
X134269500Y-93631455D01*
X134269500Y-94400814D01*
X134249815Y-94467853D01*
X134197011Y-94513608D01*
X134127853Y-94523552D01*
X134064297Y-94494527D01*
X134039251Y-94461344D01*
X134038149Y-94462025D01*
X133942315Y-94306654D01*
X133818345Y-94182684D01*
X133669124Y-94090643D01*
X133669119Y-94090641D01*
X133502697Y-94035494D01*
X133502690Y-94035493D01*
X133399986Y-94025000D01*
X132980000Y-94025000D01*
X132980000Y-95077290D01*
X132959661Y-95065548D01*
X132808333Y-95025000D01*
X132651667Y-95025000D01*
X132500339Y-95065548D01*
X132480000Y-95077290D01*
X132480000Y-94025000D01*
X132060028Y-94025000D01*
X132060012Y-94025001D01*
X131957302Y-94035494D01*
X131790880Y-94090641D01*
X131790875Y-94090643D01*
X131641654Y-94182684D01*
X131517684Y-94306654D01*
X131425643Y-94455875D01*
X131425641Y-94455880D01*
X131370494Y-94622302D01*
X131370493Y-94622309D01*
X131360000Y-94725013D01*
X123921434Y-94725013D01*
X124012264Y-94634183D01*
X124025922Y-94620524D01*
X124025921Y-94620523D01*
X123981359Y-94588147D01*
X123981350Y-94588141D01*
X123799031Y-94495244D01*
X123604417Y-94432009D01*
X123402317Y-94400000D01*
X123197683Y-94400000D01*
X122995582Y-94432009D01*
X122800968Y-94495244D01*
X122618644Y-94588143D01*
X122574077Y-94620523D01*
X122574077Y-94620524D01*
X123253554Y-95300000D01*
X123247339Y-95300000D01*
X123145606Y-95327259D01*
X123054394Y-95379920D01*
X122979920Y-95454394D01*
X122927259Y-95545606D01*
X122900000Y-95647339D01*
X122900000Y-95653553D01*
X122220524Y-94974077D01*
X122220523Y-94974077D01*
X122188143Y-95018644D01*
X122095244Y-95200968D01*
X122032009Y-95395582D01*
X122000000Y-95597682D01*
X119600500Y-95597682D01*
X119600500Y-95597648D01*
X119591633Y-95541667D01*
X119568477Y-95395465D01*
X119522727Y-95254662D01*
X119505220Y-95200781D01*
X119505218Y-95200778D01*
X119505218Y-95200776D01*
X119471503Y-95134607D01*
X119412287Y-95018390D01*
X119380092Y-94974077D01*
X119291971Y-94852786D01*
X119147213Y-94708028D01*
X118981613Y-94587715D01*
X118981612Y-94587714D01*
X118981610Y-94587713D01*
X118924653Y-94558691D01*
X118799223Y-94494781D01*
X118604534Y-94431522D01*
X118429995Y-94403878D01*
X118402352Y-94399500D01*
X118197648Y-94399500D01*
X118173329Y-94403351D01*
X117995465Y-94431522D01*
X117800776Y-94494781D01*
X117618386Y-94587715D01*
X117497123Y-94675818D01*
X117431317Y-94699298D01*
X117424238Y-94699500D01*
X115469033Y-94699500D01*
X115401994Y-94679815D01*
X115374748Y-94656038D01*
X115371964Y-94652779D01*
X115227213Y-94508028D01*
X115061613Y-94387715D01*
X115061612Y-94387714D01*
X115061610Y-94387713D01*
X115004653Y-94358691D01*
X114879223Y-94294781D01*
X114684534Y-94231522D01*
X114509995Y-94203878D01*
X114482352Y-94199500D01*
X114482351Y-94199500D01*
X114465782Y-94199500D01*
X114398743Y-94179815D01*
X114378101Y-94163181D01*
X113513463Y-93298543D01*
X125499499Y-93298543D01*
X125537947Y-93491829D01*
X125537950Y-93491839D01*
X125613364Y-93673907D01*
X125613371Y-93673920D01*
X125722860Y-93837781D01*
X125722863Y-93837785D01*
X125862214Y-93977136D01*
X125862218Y-93977139D01*
X126026079Y-94086628D01*
X126026092Y-94086635D01*
X126208160Y-94162049D01*
X126208165Y-94162051D01*
X126208169Y-94162051D01*
X126208170Y-94162052D01*
X126401456Y-94200500D01*
X126401459Y-94200500D01*
X126598543Y-94200500D01*
X126728582Y-94174632D01*
X126791835Y-94162051D01*
X126964231Y-94090643D01*
X126973907Y-94086635D01*
X126973907Y-94086634D01*
X126973914Y-94086632D01*
X127137782Y-93977139D01*
X127277139Y-93837782D01*
X127386632Y-93673914D01*
X127398802Y-93644534D01*
X127416274Y-93602351D01*
X127462051Y-93491835D01*
X127477972Y-93411797D01*
X127500500Y-93298543D01*
X127500500Y-80097648D01*
X136399500Y-80097648D01*
X136399500Y-80302351D01*
X136431522Y-80504534D01*
X136494781Y-80699223D01*
X136566766Y-80840500D01*
X136587713Y-80881610D01*
X136675819Y-81002877D01*
X136699298Y-81068681D01*
X136699500Y-81075761D01*
X136699500Y-83224237D01*
X136679815Y-83291276D01*
X136675818Y-83297122D01*
X136587715Y-83418386D01*
X136494781Y-83600776D01*
X136431522Y-83795465D01*
X136399500Y-83997648D01*
X136399500Y-84202351D01*
X136431522Y-84404534D01*
X136494781Y-84599223D01*
X136587715Y-84781613D01*
X136708028Y-84947213D01*
X136852786Y-85091971D01*
X136998241Y-85197648D01*
X137018390Y-85212287D01*
X137134607Y-85271503D01*
X137200776Y-85305218D01*
X137200778Y-85305218D01*
X137200781Y-85305220D01*
X137305137Y-85339127D01*
X137395465Y-85368477D01*
X137478383Y-85381610D01*
X137597648Y-85400500D01*
X137597649Y-85400500D01*
X137802351Y-85400500D01*
X137802352Y-85400500D01*
X138004534Y-85368477D01*
X138199219Y-85305220D01*
X138381610Y-85212287D01*
X138479696Y-85141024D01*
X138547213Y-85091971D01*
X138547215Y-85091968D01*
X138547219Y-85091966D01*
X138691966Y-84947219D01*
X138691968Y-84947215D01*
X138691971Y-84947213D01*
X138797217Y-84802352D01*
X138812287Y-84781610D01*
X138905220Y-84599219D01*
X138968477Y-84404534D01*
X139000500Y-84202352D01*
X139000500Y-83997648D01*
X138981611Y-83878390D01*
X138968477Y-83795465D01*
X138939127Y-83705137D01*
X138905220Y-83600781D01*
X138905218Y-83600778D01*
X138905218Y-83600776D01*
X138871503Y-83534607D01*
X138812287Y-83418390D01*
X138766072Y-83354780D01*
X138724182Y-83297122D01*
X138700702Y-83231316D01*
X138700500Y-83224237D01*
X138700500Y-81075761D01*
X138720185Y-81008722D01*
X138724165Y-81002899D01*
X138812287Y-80881610D01*
X138905220Y-80699219D01*
X138968477Y-80504534D01*
X139000500Y-80302352D01*
X139000500Y-80097648D01*
X138991246Y-80039219D01*
X138968477Y-79895465D01*
X138916490Y-79735466D01*
X138905220Y-79700781D01*
X138905218Y-79700778D01*
X138905218Y-79700776D01*
X138863372Y-79618650D01*
X138812287Y-79518390D01*
X138777130Y-79470000D01*
X138691971Y-79352786D01*
X138547213Y-79208028D01*
X138381613Y-79087715D01*
X138381612Y-79087714D01*
X138381610Y-79087713D01*
X138289501Y-79040781D01*
X138199223Y-78994781D01*
X138004534Y-78931522D01*
X137829995Y-78903878D01*
X137802352Y-78899500D01*
X137597648Y-78899500D01*
X137573329Y-78903351D01*
X137395465Y-78931522D01*
X137200776Y-78994781D01*
X137018386Y-79087715D01*
X136852786Y-79208028D01*
X136708028Y-79352786D01*
X136587715Y-79518386D01*
X136494781Y-79700776D01*
X136431522Y-79895465D01*
X136399500Y-80097648D01*
X127500500Y-80097648D01*
X127500500Y-69937648D01*
X136399500Y-69937648D01*
X136399500Y-70142352D01*
X136401245Y-70153368D01*
X136431522Y-70344534D01*
X136494781Y-70539223D01*
X136543823Y-70635472D01*
X136569899Y-70686649D01*
X136587715Y-70721613D01*
X136708028Y-70887213D01*
X136852786Y-71031971D01*
X137007749Y-71144556D01*
X137018390Y-71152287D01*
X137113555Y-71200776D01*
X137200776Y-71245218D01*
X137200778Y-71245218D01*
X137200781Y-71245220D01*
X137305137Y-71279127D01*
X137395465Y-71308477D01*
X137496557Y-71324488D01*
X137597648Y-71340500D01*
X137597649Y-71340500D01*
X137802351Y-71340500D01*
X137802352Y-71340500D01*
X138004534Y-71308477D01*
X138199219Y-71245220D01*
X138381610Y-71152287D01*
X138496966Y-71068477D01*
X138547213Y-71031971D01*
X138547215Y-71031968D01*
X138547219Y-71031966D01*
X138691966Y-70887219D01*
X138691968Y-70887215D01*
X138691971Y-70887213D01*
X138761171Y-70791966D01*
X138812287Y-70721610D01*
X138905220Y-70539219D01*
X138968477Y-70344534D01*
X139000500Y-70142352D01*
X139000500Y-69937648D01*
X138995680Y-69907219D01*
X138968477Y-69735465D01*
X138905218Y-69540776D01*
X138871503Y-69474607D01*
X138812287Y-69358390D01*
X138770432Y-69300781D01*
X138691971Y-69192786D01*
X138547213Y-69048028D01*
X138381613Y-68927715D01*
X138381612Y-68927714D01*
X138381610Y-68927713D01*
X138324653Y-68898691D01*
X138199223Y-68834781D01*
X138004534Y-68771522D01*
X137829995Y-68743878D01*
X137802352Y-68739500D01*
X137597648Y-68739500D01*
X137573329Y-68743351D01*
X137395465Y-68771522D01*
X137200776Y-68834781D01*
X137018386Y-68927715D01*
X136852786Y-69048028D01*
X136708028Y-69192786D01*
X136587715Y-69358386D01*
X136494781Y-69540776D01*
X136431522Y-69735465D01*
X136403485Y-69912487D01*
X136399500Y-69937648D01*
X127500500Y-69937648D01*
X127500500Y-69001456D01*
X127462052Y-68808170D01*
X127462051Y-68808169D01*
X127462051Y-68808165D01*
X127433609Y-68739500D01*
X127386635Y-68626092D01*
X127386628Y-68626079D01*
X127277139Y-68462218D01*
X127277136Y-68462214D01*
X127137785Y-68322863D01*
X127137781Y-68322860D01*
X126973920Y-68213371D01*
X126973907Y-68213364D01*
X126791839Y-68137950D01*
X126791829Y-68137947D01*
X126598543Y-68099500D01*
X126598541Y-68099500D01*
X126401459Y-68099500D01*
X126401457Y-68099500D01*
X126208170Y-68137947D01*
X126208160Y-68137950D01*
X126026092Y-68213364D01*
X126026079Y-68213371D01*
X125862218Y-68322860D01*
X125862214Y-68322863D01*
X125722863Y-68462214D01*
X125722860Y-68462218D01*
X125613371Y-68626079D01*
X125613364Y-68626092D01*
X125537950Y-68808160D01*
X125537947Y-68808170D01*
X125499500Y-69001456D01*
X125499500Y-69001459D01*
X125499500Y-85301459D01*
X125499500Y-93298541D01*
X125499500Y-93298543D01*
X125499499Y-93298543D01*
X113513463Y-93298543D01*
X108826717Y-88611797D01*
X108818991Y-88597648D01*
X111199500Y-88597648D01*
X111199500Y-88802351D01*
X111231522Y-89004534D01*
X111294781Y-89199223D01*
X111348850Y-89305338D01*
X111373026Y-89352786D01*
X111387715Y-89381613D01*
X111508028Y-89547213D01*
X111652786Y-89691971D01*
X111757717Y-89768206D01*
X111818390Y-89812287D01*
X111932967Y-89870667D01*
X112000776Y-89905218D01*
X112000778Y-89905218D01*
X112000781Y-89905220D01*
X112093887Y-89935472D01*
X112195465Y-89968477D01*
X112296557Y-89984488D01*
X112397648Y-90000500D01*
X112397649Y-90000500D01*
X112602351Y-90000500D01*
X112602352Y-90000500D01*
X112804534Y-89968477D01*
X112999219Y-89905220D01*
X113181610Y-89812287D01*
X113302877Y-89724181D01*
X113368683Y-89700702D01*
X113375762Y-89700500D01*
X114778716Y-89700500D01*
X114845755Y-89720185D01*
X114889201Y-89768206D01*
X114947841Y-89883297D01*
X114966314Y-89908722D01*
X115074641Y-90057821D01*
X115227179Y-90210359D01*
X115401701Y-90337157D01*
X115593911Y-90435092D01*
X115799074Y-90501754D01*
X115878973Y-90514408D01*
X116012134Y-90535500D01*
X116012139Y-90535500D01*
X116227866Y-90535500D01*
X116346230Y-90516752D01*
X116440926Y-90501754D01*
X116646089Y-90435092D01*
X116838299Y-90337157D01*
X117012821Y-90210359D01*
X117165359Y-90057821D01*
X117289682Y-89886704D01*
X117345012Y-89844040D01*
X117414626Y-89838061D01*
X117476420Y-89870667D01*
X117490315Y-89886702D01*
X117614641Y-90057821D01*
X117767179Y-90210359D01*
X117941701Y-90337157D01*
X118133911Y-90435092D01*
X118339074Y-90501754D01*
X118418973Y-90514408D01*
X118552134Y-90535500D01*
X118552139Y-90535500D01*
X118767866Y-90535500D01*
X118886230Y-90516752D01*
X118980926Y-90501754D01*
X119186089Y-90435092D01*
X119378299Y-90337157D01*
X119552821Y-90210359D01*
X119695186Y-90067993D01*
X119756505Y-90034511D01*
X119826197Y-90039495D01*
X119882131Y-90081366D01*
X119895248Y-90103277D01*
X119895640Y-90104118D01*
X119987684Y-90253345D01*
X120111654Y-90377315D01*
X120260875Y-90469356D01*
X120260880Y-90469358D01*
X120427302Y-90524505D01*
X120427309Y-90524506D01*
X120530019Y-90534999D01*
X120949999Y-90534999D01*
X120950000Y-90534998D01*
X120950000Y-89482709D01*
X120970339Y-89494452D01*
X121121667Y-89535000D01*
X121278333Y-89535000D01*
X121429661Y-89494452D01*
X121450000Y-89482709D01*
X121450000Y-90534999D01*
X121869972Y-90534999D01*
X121869986Y-90534998D01*
X121972697Y-90524505D01*
X122139119Y-90469358D01*
X122139124Y-90469356D01*
X122288345Y-90377315D01*
X122412315Y-90253345D01*
X122504356Y-90104124D01*
X122504358Y-90104119D01*
X122559505Y-89937697D01*
X122559506Y-89937690D01*
X122569999Y-89834986D01*
X122570000Y-89834973D01*
X122570000Y-89190000D01*
X121742709Y-89190000D01*
X121754452Y-89169661D01*
X121795000Y-89018333D01*
X121795000Y-88861667D01*
X121754452Y-88710339D01*
X121742709Y-88690000D01*
X122569999Y-88690000D01*
X122569999Y-88045028D01*
X122569998Y-88045013D01*
X122559505Y-87942302D01*
X122504358Y-87775880D01*
X122504356Y-87775875D01*
X122412315Y-87626654D01*
X122288345Y-87502684D01*
X122139124Y-87410643D01*
X122139119Y-87410641D01*
X121972697Y-87355494D01*
X121972690Y-87355493D01*
X121869986Y-87345000D01*
X121450000Y-87345000D01*
X121450000Y-88397290D01*
X121429661Y-88385548D01*
X121278333Y-88345000D01*
X121121667Y-88345000D01*
X120970339Y-88385548D01*
X120950000Y-88397290D01*
X120950000Y-87345000D01*
X120530028Y-87345000D01*
X120530012Y-87345001D01*
X120427302Y-87355494D01*
X120260880Y-87410641D01*
X120260875Y-87410643D01*
X120111654Y-87502684D01*
X119987684Y-87626654D01*
X119891851Y-87782025D01*
X119890086Y-87780936D01*
X119850711Y-87825657D01*
X119783518Y-87844810D01*
X119716637Y-87824595D01*
X119671301Y-87771431D01*
X119660500Y-87720814D01*
X119660500Y-82845782D01*
X119680185Y-82778743D01*
X119696819Y-82758101D01*
X120573571Y-81881349D01*
X121588204Y-80866715D01*
X121649525Y-80833232D01*
X121656475Y-80831926D01*
X121804534Y-80808477D01*
X121999219Y-80745220D01*
X122181610Y-80652287D01*
X122281001Y-80580076D01*
X122347213Y-80531971D01*
X122347215Y-80531968D01*
X122347219Y-80531966D01*
X122491966Y-80387219D01*
X122491968Y-80387215D01*
X122491971Y-80387213D01*
X122555334Y-80300000D01*
X122612287Y-80221610D01*
X122705220Y-80039219D01*
X122768477Y-79844534D01*
X122800500Y-79642352D01*
X122800500Y-79437648D01*
X122768477Y-79235466D01*
X122761978Y-79215465D01*
X122713286Y-79065606D01*
X122705220Y-79040781D01*
X122705218Y-79040778D01*
X122705218Y-79040776D01*
X122649550Y-78931523D01*
X122612287Y-78858390D01*
X122595134Y-78834781D01*
X122491971Y-78692786D01*
X122347213Y-78548028D01*
X122181613Y-78427715D01*
X122181612Y-78427714D01*
X122181610Y-78427713D01*
X122124653Y-78398691D01*
X121999223Y-78334781D01*
X121804534Y-78271522D01*
X121629995Y-78243878D01*
X121602352Y-78239500D01*
X121397648Y-78239500D01*
X121373329Y-78243351D01*
X121195465Y-78271522D01*
X121000776Y-78334781D01*
X120818386Y-78427715D01*
X120652786Y-78548028D01*
X120508028Y-78692786D01*
X120387715Y-78858386D01*
X120294781Y-79040778D01*
X120231522Y-79235468D01*
X120208073Y-79383514D01*
X120178143Y-79446649D01*
X120173281Y-79451796D01*
X118556398Y-81068681D01*
X118022220Y-81602859D01*
X118022218Y-81602861D01*
X117985615Y-81639464D01*
X117882859Y-81742219D01*
X117773371Y-81906079D01*
X117773368Y-81906085D01*
X117720037Y-82034836D01*
X117712809Y-82052287D01*
X117699123Y-82085331D01*
X117697949Y-82088165D01*
X117697948Y-82088168D01*
X117697946Y-82088175D01*
X117659500Y-82281454D01*
X117659500Y-87725958D01*
X117639815Y-87792997D01*
X117634783Y-87800248D01*
X117629465Y-87807354D01*
X117614641Y-87822179D01*
X117489809Y-87993995D01*
X117489283Y-87994698D01*
X117461973Y-88015150D01*
X117434988Y-88035959D01*
X117434084Y-88036036D01*
X117433358Y-88036581D01*
X117399310Y-88039023D01*
X117365374Y-88041938D01*
X117364572Y-88041515D01*
X117363667Y-88041580D01*
X117333718Y-88025235D01*
X117303579Y-88009332D01*
X117302681Y-88008295D01*
X117302337Y-88008108D01*
X117302027Y-88007541D01*
X117289682Y-87993294D01*
X117267435Y-87962674D01*
X117165359Y-87822179D01*
X117012821Y-87669641D01*
X116838299Y-87542843D01*
X116646089Y-87444908D01*
X116440926Y-87378246D01*
X116440924Y-87378245D01*
X116440922Y-87378245D01*
X116227866Y-87344500D01*
X116227861Y-87344500D01*
X116012139Y-87344500D01*
X116012134Y-87344500D01*
X115799077Y-87378245D01*
X115799074Y-87378246D01*
X115635106Y-87431523D01*
X115593908Y-87444909D01*
X115401700Y-87542843D01*
X115227176Y-87669643D01*
X115227005Y-87669790D01*
X115226926Y-87669825D01*
X115223238Y-87672505D01*
X115222675Y-87671730D01*
X115163244Y-87698361D01*
X115146473Y-87699500D01*
X113375762Y-87699500D01*
X113308723Y-87679815D01*
X113302877Y-87675818D01*
X113297250Y-87671730D01*
X113195487Y-87597795D01*
X113181613Y-87587715D01*
X113181612Y-87587714D01*
X113181610Y-87587713D01*
X113089346Y-87540702D01*
X112999223Y-87494781D01*
X112804534Y-87431522D01*
X112629995Y-87403878D01*
X112602352Y-87399500D01*
X112397648Y-87399500D01*
X112373329Y-87403351D01*
X112195465Y-87431522D01*
X112000776Y-87494781D01*
X111818386Y-87587715D01*
X111652786Y-87708028D01*
X111508028Y-87852786D01*
X111387715Y-88018386D01*
X111294781Y-88200776D01*
X111231522Y-88395465D01*
X111199500Y-88597648D01*
X108818991Y-88597648D01*
X108793232Y-88550474D01*
X108791925Y-88543513D01*
X108768477Y-88395466D01*
X108768477Y-88395465D01*
X108705218Y-88200776D01*
X108657960Y-88108028D01*
X108612287Y-88018390D01*
X108594054Y-87993294D01*
X108491971Y-87852786D01*
X108347213Y-87708028D01*
X108181613Y-87587715D01*
X108181612Y-87587714D01*
X108181610Y-87587713D01*
X108089346Y-87540702D01*
X107999223Y-87494781D01*
X107804534Y-87431522D01*
X107629995Y-87403878D01*
X107602352Y-87399500D01*
X107397648Y-87399500D01*
X107373329Y-87403351D01*
X107195465Y-87431522D01*
X107000776Y-87494781D01*
X106818386Y-87587715D01*
X106652786Y-87708028D01*
X106508028Y-87852786D01*
X106387715Y-88018386D01*
X106294781Y-88200776D01*
X106231522Y-88395465D01*
X106199500Y-88597648D01*
X105521500Y-88597648D01*
X105521500Y-80837648D01*
X106299500Y-80837648D01*
X106299500Y-81042352D01*
X106303670Y-81068681D01*
X106331522Y-81244534D01*
X106394781Y-81439223D01*
X106445509Y-81538780D01*
X106478160Y-81602862D01*
X106487715Y-81621613D01*
X106608028Y-81787213D01*
X106752786Y-81931971D01*
X106907749Y-82044556D01*
X106918390Y-82052287D01*
X107034607Y-82111503D01*
X107100776Y-82145218D01*
X107100778Y-82145218D01*
X107100781Y-82145220D01*
X107205137Y-82179127D01*
X107295465Y-82208477D01*
X107396557Y-82224488D01*
X107497648Y-82240500D01*
X107497649Y-82240500D01*
X107702351Y-82240500D01*
X107702352Y-82240500D01*
X107904534Y-82208477D01*
X108099219Y-82145220D01*
X108281610Y-82052287D01*
X108374590Y-81984732D01*
X108447213Y-81931971D01*
X108447215Y-81931968D01*
X108447219Y-81931966D01*
X108591966Y-81787219D01*
X108591968Y-81787215D01*
X108591971Y-81787213D01*
X108666078Y-81685212D01*
X108712287Y-81621610D01*
X108805220Y-81439219D01*
X108868477Y-81244534D01*
X108900500Y-81042352D01*
X108900500Y-80837648D01*
X108871141Y-80652284D01*
X108868477Y-80635465D01*
X108828349Y-80511966D01*
X108805220Y-80440781D01*
X108805218Y-80440778D01*
X108805218Y-80440776D01*
X108760546Y-80353104D01*
X108712287Y-80258390D01*
X108685565Y-80221610D01*
X108591971Y-80092786D01*
X108447213Y-79948028D01*
X108281613Y-79827715D01*
X108281612Y-79827714D01*
X108281610Y-79827713D01*
X108224653Y-79798691D01*
X108099223Y-79734781D01*
X107904534Y-79671522D01*
X107729995Y-79643878D01*
X107702352Y-79639500D01*
X107497648Y-79639500D01*
X107473329Y-79643351D01*
X107295465Y-79671522D01*
X107100776Y-79734781D01*
X106918386Y-79827715D01*
X106752786Y-79948028D01*
X106608028Y-80092786D01*
X106487715Y-80258386D01*
X106394781Y-80440776D01*
X106331522Y-80635465D01*
X106307288Y-80788477D01*
X106299500Y-80837648D01*
X105521500Y-80837648D01*
X105521500Y-79437648D01*
X111999500Y-79437648D01*
X111999500Y-79642351D01*
X112031522Y-79844534D01*
X112094781Y-80039223D01*
X112124551Y-80097648D01*
X112182603Y-80211582D01*
X112187715Y-80221613D01*
X112308028Y-80387213D01*
X112452786Y-80531971D01*
X112584316Y-80627531D01*
X112618390Y-80652287D01*
X112710499Y-80699219D01*
X112800776Y-80745218D01*
X112800778Y-80745218D01*
X112800781Y-80745220D01*
X112889538Y-80774059D01*
X112995465Y-80808477D01*
X113017235Y-80811925D01*
X113197648Y-80840500D01*
X113197649Y-80840500D01*
X113402351Y-80840500D01*
X113402352Y-80840500D01*
X113604534Y-80808477D01*
X113799219Y-80745220D01*
X113981610Y-80652287D01*
X114081001Y-80580076D01*
X114147213Y-80531971D01*
X114147215Y-80531968D01*
X114147219Y-80531966D01*
X114291966Y-80387219D01*
X114291968Y-80387215D01*
X114291971Y-80387213D01*
X114355334Y-80300000D01*
X114412287Y-80221610D01*
X114505220Y-80039219D01*
X114568477Y-79844534D01*
X114600500Y-79642352D01*
X114600500Y-79437648D01*
X114568477Y-79235466D01*
X114561978Y-79215465D01*
X114513286Y-79065606D01*
X114505220Y-79040781D01*
X114505218Y-79040778D01*
X114505218Y-79040776D01*
X114449550Y-78931523D01*
X114412287Y-78858390D01*
X114395134Y-78834781D01*
X114291971Y-78692786D01*
X114147213Y-78548028D01*
X113981613Y-78427715D01*
X113981612Y-78427714D01*
X113981610Y-78427713D01*
X113924653Y-78398691D01*
X113799223Y-78334781D01*
X113604534Y-78271522D01*
X113429995Y-78243878D01*
X113402352Y-78239500D01*
X113197648Y-78239500D01*
X113173329Y-78243351D01*
X112995465Y-78271522D01*
X112800776Y-78334781D01*
X112618386Y-78427715D01*
X112452786Y-78548028D01*
X112308028Y-78692786D01*
X112187715Y-78858386D01*
X112094781Y-79040776D01*
X112031522Y-79235465D01*
X111999500Y-79437648D01*
X105521500Y-79437648D01*
X105521500Y-75011089D01*
X105521500Y-75011086D01*
X105499248Y-74899223D01*
X105494214Y-74873914D01*
X105483051Y-74817794D01*
X105483049Y-74817789D01*
X105460961Y-74764463D01*
X105407635Y-74635722D01*
X105407631Y-74635715D01*
X105364661Y-74571406D01*
X105343784Y-74504730D01*
X105362268Y-74437350D01*
X105380079Y-74414839D01*
X107688204Y-72106715D01*
X107749525Y-72073232D01*
X107756475Y-72071926D01*
X107904534Y-72048477D01*
X108099219Y-71985220D01*
X108281610Y-71892287D01*
X108402877Y-71804181D01*
X108468683Y-71780702D01*
X108475762Y-71780500D01*
X109074218Y-71780500D01*
X109141257Y-71800185D01*
X109161899Y-71816819D01*
X111973281Y-74628201D01*
X112006766Y-74689524D01*
X112008073Y-74696483D01*
X112031523Y-74844535D01*
X112094781Y-75039223D01*
X112187715Y-75221613D01*
X112308028Y-75387213D01*
X112452786Y-75531971D01*
X112599489Y-75638555D01*
X112618390Y-75652287D01*
X112721237Y-75704690D01*
X112800776Y-75745218D01*
X112800778Y-75745218D01*
X112800781Y-75745220D01*
X112872174Y-75768417D01*
X112995465Y-75808477D01*
X113071280Y-75820485D01*
X113197648Y-75840500D01*
X113197649Y-75840500D01*
X113402351Y-75840500D01*
X113402352Y-75840500D01*
X113604534Y-75808477D01*
X113799219Y-75745220D01*
X113981610Y-75652287D01*
X114112782Y-75556986D01*
X114147213Y-75531971D01*
X114147215Y-75531968D01*
X114147219Y-75531966D01*
X114291966Y-75387219D01*
X114291968Y-75387215D01*
X114291971Y-75387213D01*
X114355844Y-75299298D01*
X114412287Y-75221610D01*
X114505220Y-75039219D01*
X114568477Y-74844534D01*
X114600500Y-74642352D01*
X114600500Y-74437648D01*
X114568477Y-74235466D01*
X114505220Y-74040781D01*
X114505218Y-74040778D01*
X114505218Y-74040776D01*
X114454124Y-73940500D01*
X114412287Y-73858390D01*
X114349455Y-73771908D01*
X114291971Y-73692786D01*
X114147213Y-73548028D01*
X113981613Y-73427715D01*
X113981612Y-73427714D01*
X113981610Y-73427713D01*
X113898798Y-73385518D01*
X113799223Y-73334781D01*
X113604535Y-73271523D01*
X113456483Y-73248073D01*
X113393349Y-73218143D01*
X113388201Y-73213281D01*
X110321479Y-70146559D01*
X110321459Y-70146537D01*
X110177785Y-70002863D01*
X110177781Y-70002860D01*
X110013920Y-69893371D01*
X110013907Y-69893364D01*
X109879948Y-69837877D01*
X109879941Y-69837875D01*
X109872469Y-69834780D01*
X109831836Y-69817949D01*
X109735188Y-69798724D01*
X109729081Y-69797509D01*
X109638544Y-69779500D01*
X109638541Y-69779500D01*
X108475762Y-69779500D01*
X108408723Y-69759815D01*
X108402877Y-69755818D01*
X108383325Y-69741613D01*
X108281610Y-69667713D01*
X108224653Y-69638691D01*
X108099223Y-69574781D01*
X107904534Y-69511522D01*
X107729995Y-69483878D01*
X107702352Y-69479500D01*
X107497648Y-69479500D01*
X107473329Y-69483351D01*
X107295465Y-69511522D01*
X107100776Y-69574781D01*
X106918386Y-69667715D01*
X106752786Y-69788028D01*
X106608028Y-69932786D01*
X106487715Y-70098386D01*
X106394781Y-70280778D01*
X106331522Y-70475468D01*
X106308073Y-70623514D01*
X106278143Y-70686649D01*
X106273281Y-70691796D01*
X103613045Y-73352033D01*
X103588146Y-73365628D01*
X103564887Y-73381885D01*
X103557877Y-73382157D01*
X103551722Y-73385518D01*
X103523425Y-73383494D01*
X103495070Y-73384595D01*
X103487175Y-73380901D01*
X103482030Y-73380534D01*
X103462421Y-73371189D01*
X103457289Y-73368165D01*
X103401610Y-73327713D01*
X103305538Y-73278762D01*
X103302271Y-73276837D01*
X103280880Y-73254004D01*
X103258123Y-73232511D01*
X103257180Y-73228706D01*
X103254503Y-73225848D01*
X103248851Y-73195071D01*
X103241328Y-73164690D01*
X103242591Y-73160981D01*
X103241884Y-73157127D01*
X103253771Y-73128175D01*
X103263865Y-73098555D01*
X103267075Y-73095773D01*
X103268422Y-73092493D01*
X103281030Y-73083680D01*
X103308917Y-73059516D01*
X103401610Y-73012287D01*
X103481755Y-72954059D01*
X103567213Y-72891971D01*
X103567215Y-72891968D01*
X103567219Y-72891966D01*
X103711966Y-72747219D01*
X103711968Y-72747215D01*
X103711971Y-72747213D01*
X103771970Y-72664630D01*
X103832287Y-72581610D01*
X103925220Y-72399219D01*
X103988477Y-72204534D01*
X104020500Y-72002352D01*
X104020500Y-71797648D01*
X103988477Y-71595466D01*
X103925220Y-71400781D01*
X103925218Y-71400778D01*
X103925218Y-71400776D01*
X103880636Y-71313281D01*
X103832287Y-71218390D01*
X103746636Y-71100500D01*
X103744182Y-71097122D01*
X103720702Y-71031316D01*
X103720500Y-71024237D01*
X103720500Y-64597648D01*
X106799500Y-64597648D01*
X106799500Y-64802352D01*
X106800883Y-64811083D01*
X106831522Y-65004534D01*
X106894781Y-65199223D01*
X106987715Y-65381613D01*
X107108028Y-65547213D01*
X107252786Y-65691971D01*
X107407749Y-65804556D01*
X107418390Y-65812287D01*
X107534607Y-65871503D01*
X107600776Y-65905218D01*
X107600778Y-65905218D01*
X107600781Y-65905220D01*
X107705137Y-65939127D01*
X107795465Y-65968477D01*
X107890411Y-65983515D01*
X107997648Y-66000500D01*
X107997649Y-66000500D01*
X108202351Y-66000500D01*
X108202352Y-66000500D01*
X108404534Y-65968477D01*
X108599219Y-65905220D01*
X108781610Y-65812287D01*
X108902877Y-65724181D01*
X108968683Y-65700702D01*
X108975762Y-65700500D01*
X109634218Y-65700500D01*
X109701257Y-65720185D01*
X109721899Y-65736819D01*
X113873281Y-69888201D01*
X113906766Y-69949524D01*
X113908073Y-69956483D01*
X113931523Y-70104535D01*
X113994781Y-70299223D01*
X114058691Y-70424653D01*
X114084583Y-70475468D01*
X114087715Y-70481613D01*
X114208028Y-70647213D01*
X114352786Y-70791971D01*
X114507749Y-70904556D01*
X114518390Y-70912287D01*
X114634607Y-70971503D01*
X114700776Y-71005218D01*
X114700778Y-71005218D01*
X114700781Y-71005220D01*
X114779096Y-71030666D01*
X114895465Y-71068477D01*
X114996557Y-71084488D01*
X115097648Y-71100500D01*
X115097649Y-71100500D01*
X115302351Y-71100500D01*
X115302352Y-71100500D01*
X115504534Y-71068477D01*
X115699219Y-71005220D01*
X115881610Y-70912287D01*
X115974590Y-70844732D01*
X116047213Y-70791971D01*
X116047215Y-70791968D01*
X116047219Y-70791966D01*
X116191966Y-70647219D01*
X116191968Y-70647215D01*
X116191971Y-70647213D01*
X116269297Y-70540781D01*
X116312287Y-70481610D01*
X116405220Y-70299219D01*
X116468477Y-70104534D01*
X116500500Y-69902352D01*
X116500500Y-69697648D01*
X120099500Y-69697648D01*
X120099500Y-69902352D01*
X120101106Y-69912490D01*
X120131522Y-70104534D01*
X120194781Y-70299223D01*
X120262192Y-70431522D01*
X120287713Y-70481610D01*
X120375819Y-70602877D01*
X120399298Y-70668681D01*
X120399500Y-70675761D01*
X120399500Y-73805487D01*
X120385985Y-73861782D01*
X120294781Y-74040776D01*
X120231522Y-74235465D01*
X120199500Y-74437648D01*
X120199500Y-74642351D01*
X120231522Y-74844534D01*
X120294781Y-75039223D01*
X120387715Y-75221613D01*
X120508028Y-75387213D01*
X120652786Y-75531971D01*
X120799489Y-75638555D01*
X120818390Y-75652287D01*
X120921237Y-75704690D01*
X121000776Y-75745218D01*
X121000778Y-75745218D01*
X121000781Y-75745220D01*
X121072174Y-75768417D01*
X121195465Y-75808477D01*
X121271280Y-75820485D01*
X121397648Y-75840500D01*
X121397649Y-75840500D01*
X121602351Y-75840500D01*
X121602352Y-75840500D01*
X121804534Y-75808477D01*
X121999219Y-75745220D01*
X122181610Y-75652287D01*
X122312782Y-75556986D01*
X122347213Y-75531971D01*
X122347215Y-75531968D01*
X122347219Y-75531966D01*
X122491966Y-75387219D01*
X122491968Y-75387215D01*
X122491971Y-75387213D01*
X122555844Y-75299298D01*
X122612287Y-75221610D01*
X122705220Y-75039219D01*
X122768477Y-74844534D01*
X122800500Y-74642352D01*
X122800500Y-74437648D01*
X122768477Y-74235466D01*
X122705220Y-74040781D01*
X122705218Y-74040778D01*
X122705218Y-74040776D01*
X122654124Y-73940500D01*
X122612287Y-73858390D01*
X122549455Y-73771908D01*
X122491971Y-73692786D01*
X122436819Y-73637634D01*
X122403334Y-73576311D01*
X122400500Y-73549953D01*
X122400500Y-70675761D01*
X122420185Y-70608722D01*
X122424165Y-70602899D01*
X122512287Y-70481610D01*
X122605220Y-70299219D01*
X122668477Y-70104534D01*
X122700500Y-69902352D01*
X122700500Y-69697648D01*
X122686088Y-69606657D01*
X122668477Y-69495465D01*
X122639127Y-69405137D01*
X122605220Y-69300781D01*
X122605218Y-69300778D01*
X122605218Y-69300776D01*
X122512287Y-69118390D01*
X122475860Y-69068252D01*
X122475859Y-69068249D01*
X122391971Y-68952787D01*
X122391967Y-68952782D01*
X122247213Y-68808028D01*
X122081613Y-68687715D01*
X122081612Y-68687714D01*
X122081610Y-68687713D01*
X121989346Y-68640702D01*
X121899223Y-68594781D01*
X121704534Y-68531522D01*
X121516690Y-68501771D01*
X121502352Y-68499500D01*
X121297648Y-68499500D01*
X121283310Y-68501771D01*
X121095465Y-68531522D01*
X120900776Y-68594781D01*
X120718386Y-68687715D01*
X120552786Y-68808028D01*
X120408028Y-68952786D01*
X120287715Y-69118386D01*
X120194781Y-69300776D01*
X120131522Y-69495465D01*
X120112306Y-69616794D01*
X120099500Y-69697648D01*
X116500500Y-69697648D01*
X116486088Y-69606657D01*
X116468477Y-69495465D01*
X116439127Y-69405137D01*
X116405220Y-69300781D01*
X116405218Y-69300778D01*
X116405218Y-69300776D01*
X116371503Y-69234607D01*
X116312287Y-69118390D01*
X116275858Y-69068249D01*
X116191971Y-68952786D01*
X116047213Y-68808028D01*
X115881613Y-68687715D01*
X115881612Y-68687714D01*
X115881610Y-68687713D01*
X115789346Y-68640702D01*
X115699223Y-68594781D01*
X115504535Y-68531523D01*
X115356483Y-68508073D01*
X115293349Y-68478143D01*
X115288201Y-68473281D01*
X110881479Y-64066559D01*
X110881459Y-64066537D01*
X110737785Y-63922863D01*
X110737781Y-63922860D01*
X110573920Y-63813371D01*
X110573911Y-63813366D01*
X110480755Y-63774780D01*
X110445165Y-63760038D01*
X110391836Y-63737949D01*
X110258984Y-63711523D01*
X110216167Y-63703006D01*
X110198542Y-63699500D01*
X110198541Y-63699500D01*
X108975762Y-63699500D01*
X108908723Y-63679815D01*
X108902877Y-63675818D01*
X108781613Y-63587715D01*
X108781612Y-63587714D01*
X108781610Y-63587713D01*
X108724653Y-63558691D01*
X108599223Y-63494781D01*
X108404534Y-63431522D01*
X108229995Y-63403878D01*
X108202352Y-63399500D01*
X107997648Y-63399500D01*
X107973329Y-63403351D01*
X107795465Y-63431522D01*
X107600776Y-63494781D01*
X107418386Y-63587715D01*
X107252786Y-63708028D01*
X107108028Y-63852786D01*
X106987715Y-64018386D01*
X106894781Y-64200776D01*
X106831522Y-64395465D01*
X106799500Y-64597648D01*
X103720500Y-64597648D01*
X103720500Y-60421456D01*
X103682052Y-60228169D01*
X103682051Y-60228167D01*
X103682051Y-60228165D01*
X103676198Y-60214035D01*
X103659961Y-60174834D01*
X103646492Y-60142317D01*
X103606635Y-60046092D01*
X103606628Y-60046079D01*
X103497139Y-59882218D01*
X103497136Y-59882214D01*
X103354686Y-59739764D01*
X103354655Y-59739735D01*
X103212568Y-59597648D01*
X106799500Y-59597648D01*
X106799500Y-59802351D01*
X106831522Y-60004534D01*
X106894781Y-60199223D01*
X106938796Y-60285606D01*
X106973003Y-60352741D01*
X106987715Y-60381613D01*
X107108028Y-60547213D01*
X107252786Y-60691971D01*
X107394293Y-60794780D01*
X107418390Y-60812287D01*
X107483021Y-60845218D01*
X107600776Y-60905218D01*
X107600778Y-60905218D01*
X107600781Y-60905220D01*
X107705137Y-60939127D01*
X107795465Y-60968477D01*
X107896557Y-60984488D01*
X107997648Y-61000500D01*
X107997649Y-61000500D01*
X108202351Y-61000500D01*
X108202352Y-61000500D01*
X108404534Y-60968477D01*
X108599219Y-60905220D01*
X108781610Y-60812287D01*
X108892773Y-60731523D01*
X108947213Y-60691971D01*
X108947215Y-60691968D01*
X108947219Y-60691966D01*
X109091966Y-60547219D01*
X109091968Y-60547215D01*
X109091971Y-60547213D01*
X109162579Y-60450028D01*
X109212287Y-60381610D01*
X109305220Y-60199219D01*
X109368477Y-60004534D01*
X109400500Y-59802352D01*
X109400500Y-59597648D01*
X109368477Y-59395466D01*
X109348981Y-59335465D01*
X109337018Y-59298644D01*
X109305220Y-59200781D01*
X109305218Y-59200778D01*
X109305218Y-59200776D01*
X109256972Y-59106089D01*
X109212287Y-59018390D01*
X109204556Y-59007749D01*
X109091971Y-58852786D01*
X108947213Y-58708028D01*
X108781613Y-58587715D01*
X108781612Y-58587714D01*
X108781610Y-58587713D01*
X108724653Y-58558691D01*
X108599223Y-58494781D01*
X108404534Y-58431522D01*
X108229995Y-58403878D01*
X108202352Y-58399500D01*
X107997648Y-58399500D01*
X107973329Y-58403351D01*
X107795465Y-58431522D01*
X107600776Y-58494781D01*
X107418386Y-58587715D01*
X107252786Y-58708028D01*
X107108028Y-58852786D01*
X106987715Y-59018386D01*
X106894781Y-59200776D01*
X106831522Y-59395465D01*
X106799500Y-59597648D01*
X103212568Y-59597648D01*
X99281479Y-55666559D01*
X99281459Y-55666537D01*
X99137785Y-55522863D01*
X99137781Y-55522860D01*
X98973920Y-55413371D01*
X98973907Y-55413364D01*
X98817523Y-55348589D01*
X98817522Y-55348588D01*
X98807733Y-55344534D01*
X98791836Y-55337949D01*
X98614457Y-55302666D01*
X98598541Y-55299500D01*
X74865782Y-55299500D01*
X74798743Y-55279815D01*
X74778101Y-55263181D01*
X73005937Y-53491017D01*
X73005690Y-53490565D01*
X73005240Y-53490315D01*
X72988933Y-53459877D01*
X72972452Y-53429694D01*
X72972407Y-53429029D01*
X72972245Y-53428727D01*
X72971922Y-53421853D01*
X72970288Y-53397648D01*
X105999500Y-53397648D01*
X105999500Y-53602351D01*
X106031522Y-53804534D01*
X106094781Y-53999223D01*
X106187715Y-54181613D01*
X106308028Y-54347213D01*
X106452786Y-54491971D01*
X106607749Y-54604556D01*
X106618390Y-54612287D01*
X106709190Y-54658552D01*
X106800776Y-54705218D01*
X106800778Y-54705218D01*
X106800781Y-54705220D01*
X106893866Y-54735465D01*
X106995465Y-54768477D01*
X107096557Y-54784488D01*
X107197648Y-54800500D01*
X107197649Y-54800500D01*
X107402351Y-54800500D01*
X107402352Y-54800500D01*
X107604534Y-54768477D01*
X107799219Y-54705220D01*
X107981610Y-54612287D01*
X108080030Y-54540781D01*
X108147213Y-54491971D01*
X108147215Y-54491968D01*
X108147219Y-54491966D01*
X108291966Y-54347219D01*
X108291968Y-54347215D01*
X108291971Y-54347213D01*
X108344732Y-54274590D01*
X108412287Y-54181610D01*
X108505220Y-53999219D01*
X108568477Y-53804534D01*
X108600500Y-53602352D01*
X108600500Y-53397648D01*
X110999500Y-53397648D01*
X110999500Y-53602351D01*
X111031522Y-53804534D01*
X111094781Y-53999223D01*
X111187715Y-54181613D01*
X111308028Y-54347213D01*
X111452786Y-54491971D01*
X111607749Y-54604556D01*
X111618390Y-54612287D01*
X111709190Y-54658552D01*
X111800776Y-54705218D01*
X111800778Y-54705218D01*
X111800781Y-54705220D01*
X111893866Y-54735465D01*
X111995465Y-54768477D01*
X112072966Y-54780751D01*
X112143513Y-54791925D01*
X112206648Y-54821854D01*
X112211797Y-54826717D01*
X114163181Y-56778101D01*
X114196666Y-56839424D01*
X114199500Y-56865782D01*
X114199500Y-58764237D01*
X114179815Y-58831276D01*
X114175818Y-58837122D01*
X114087715Y-58958386D01*
X113994781Y-59140776D01*
X113931522Y-59335465D01*
X113899500Y-59537648D01*
X113899500Y-59742351D01*
X113931522Y-59944534D01*
X113994781Y-60139223D01*
X114087715Y-60321613D01*
X114208028Y-60487213D01*
X114352786Y-60631971D01*
X114507749Y-60744556D01*
X114518390Y-60752287D01*
X114617612Y-60802843D01*
X114700776Y-60845218D01*
X114700778Y-60845218D01*
X114700781Y-60845220D01*
X114777046Y-60870000D01*
X114895465Y-60908477D01*
X114996557Y-60924488D01*
X115097648Y-60940500D01*
X115097649Y-60940500D01*
X115302351Y-60940500D01*
X115302352Y-60940500D01*
X115504534Y-60908477D01*
X115699219Y-60845220D01*
X115881610Y-60752287D01*
X116002877Y-60664181D01*
X116068683Y-60640702D01*
X116075762Y-60640500D01*
X120524238Y-60640500D01*
X120591277Y-60660185D01*
X120597119Y-60664179D01*
X120718390Y-60752287D01*
X120817612Y-60802843D01*
X120900776Y-60845218D01*
X120900778Y-60845218D01*
X120900781Y-60845220D01*
X120977046Y-60870000D01*
X121095465Y-60908477D01*
X121196557Y-60924488D01*
X121297648Y-60940500D01*
X121297649Y-60940500D01*
X121502351Y-60940500D01*
X121502352Y-60940500D01*
X121704534Y-60908477D01*
X121899219Y-60845220D01*
X122081610Y-60752287D01*
X122206775Y-60661350D01*
X122247213Y-60631971D01*
X122247215Y-60631968D01*
X122247219Y-60631966D01*
X122391966Y-60487219D01*
X122391968Y-60487215D01*
X122391971Y-60487213D01*
X122460018Y-60393553D01*
X122512287Y-60321610D01*
X122602872Y-60143827D01*
X122605218Y-60139223D01*
X122605218Y-60139222D01*
X122605220Y-60139219D01*
X122668477Y-59944534D01*
X122700500Y-59742352D01*
X122700500Y-59537648D01*
X122668477Y-59335466D01*
X122661527Y-59314077D01*
X122624715Y-59200781D01*
X122605220Y-59140781D01*
X122605218Y-59140778D01*
X122605218Y-59140776D01*
X122571503Y-59074607D01*
X122512287Y-58958390D01*
X122504556Y-58947749D01*
X122391971Y-58792786D01*
X122247213Y-58648028D01*
X122081613Y-58527715D01*
X122081612Y-58527714D01*
X122081610Y-58527713D01*
X122024653Y-58498691D01*
X121899223Y-58434781D01*
X121704534Y-58371522D01*
X121529995Y-58343878D01*
X121502352Y-58339500D01*
X121297648Y-58339500D01*
X121273329Y-58343351D01*
X121095465Y-58371522D01*
X120900776Y-58434781D01*
X120718386Y-58527715D01*
X120597123Y-58615818D01*
X120531317Y-58639298D01*
X120524238Y-58639500D01*
X116324500Y-58639500D01*
X116257461Y-58619815D01*
X116211706Y-58567011D01*
X116200500Y-58515500D01*
X116200500Y-56301456D01*
X116162052Y-56108170D01*
X116162051Y-56108169D01*
X116162051Y-56108165D01*
X116130489Y-56031966D01*
X116086635Y-55926092D01*
X116086628Y-55926079D01*
X115977140Y-55762219D01*
X115933995Y-55719074D01*
X115837782Y-55622861D01*
X115837781Y-55622860D01*
X113626716Y-53411796D01*
X113593232Y-53350474D01*
X113591925Y-53343513D01*
X113581595Y-53278294D01*
X113568477Y-53195466D01*
X113558740Y-53165500D01*
X113506662Y-53005220D01*
X113505220Y-53000781D01*
X113505218Y-53000778D01*
X113505218Y-53000776D01*
X113460128Y-52912284D01*
X113412287Y-52818390D01*
X113388174Y-52785201D01*
X113291971Y-52652786D01*
X113147213Y-52508028D01*
X112981613Y-52387715D01*
X112981612Y-52387714D01*
X112981610Y-52387713D01*
X112924653Y-52358691D01*
X112799223Y-52294781D01*
X112604534Y-52231522D01*
X112429995Y-52203878D01*
X112402352Y-52199500D01*
X112197648Y-52199500D01*
X112173329Y-52203351D01*
X111995465Y-52231522D01*
X111800776Y-52294781D01*
X111618386Y-52387715D01*
X111452786Y-52508028D01*
X111308028Y-52652786D01*
X111187715Y-52818386D01*
X111094781Y-53000776D01*
X111031522Y-53195465D01*
X110999500Y-53397648D01*
X108600500Y-53397648D01*
X108581515Y-53277782D01*
X108568477Y-53195465D01*
X108506662Y-53005220D01*
X108505220Y-53000781D01*
X108505218Y-53000778D01*
X108505218Y-53000776D01*
X108460128Y-52912284D01*
X108412287Y-52818390D01*
X108388174Y-52785201D01*
X108291971Y-52652786D01*
X108147213Y-52508028D01*
X107981613Y-52387715D01*
X107981612Y-52387714D01*
X107981610Y-52387713D01*
X107924653Y-52358691D01*
X107799223Y-52294781D01*
X107604534Y-52231522D01*
X107429995Y-52203878D01*
X107402352Y-52199500D01*
X107197648Y-52199500D01*
X107173329Y-52203351D01*
X106995465Y-52231522D01*
X106800776Y-52294781D01*
X106618386Y-52387715D01*
X106452786Y-52508028D01*
X106308028Y-52652786D01*
X106187715Y-52818386D01*
X106094781Y-53000776D01*
X106031522Y-53195465D01*
X105999500Y-53397648D01*
X72970288Y-53397648D01*
X72970008Y-53393503D01*
X72970166Y-53391515D01*
X72970500Y-53388552D01*
X72970500Y-52751448D01*
X72970400Y-52750566D01*
X72970438Y-52750349D01*
X72970305Y-52747970D01*
X72970860Y-52747938D01*
X72982442Y-52681745D01*
X73005934Y-52648984D01*
X74318102Y-51336819D01*
X74379425Y-51303334D01*
X74405783Y-51300500D01*
X128334218Y-51300500D01*
X128401257Y-51320185D01*
X128421899Y-51336819D01*
X140263181Y-63178101D01*
X140296666Y-63239424D01*
X140299500Y-63265782D01*
X140299500Y-96734218D01*
X140279815Y-96801257D01*
X140263181Y-96821899D01*
X135701899Y-101383181D01*
X135640576Y-101416666D01*
X135614218Y-101419500D01*
X116375762Y-101419500D01*
X116308723Y-101399815D01*
X116302877Y-101395818D01*
X116292310Y-101388141D01*
X116181610Y-101307713D01*
X116121898Y-101277288D01*
X115999223Y-101214781D01*
X115804534Y-101151522D01*
X115629995Y-101123878D01*
X115602352Y-101119500D01*
X115397648Y-101119500D01*
X115373329Y-101123351D01*
X115195465Y-101151522D01*
X115000776Y-101214781D01*
X114818386Y-101307715D01*
X114652786Y-101428028D01*
X114508028Y-101572786D01*
X114387715Y-101738386D01*
X114294781Y-101920776D01*
X114231522Y-102115465D01*
X114200233Y-102313020D01*
X114199500Y-102317648D01*
X114199500Y-102522352D01*
X114200953Y-102531523D01*
X114231522Y-102724534D01*
X114294781Y-102919223D01*
X114346135Y-103020009D01*
X114365381Y-103057782D01*
X114387715Y-103101613D01*
X114508028Y-103267213D01*
X114652786Y-103411971D01*
X114807749Y-103524556D01*
X114818390Y-103532287D01*
X114909840Y-103578883D01*
X114911080Y-103579515D01*
X114961876Y-103627490D01*
X114978671Y-103695311D01*
X114956134Y-103761446D01*
X114911080Y-103800485D01*
X114818386Y-103847715D01*
X114652786Y-103968028D01*
X114508028Y-104112786D01*
X114387715Y-104278386D01*
X114294781Y-104460776D01*
X114231522Y-104655465D01*
X114199500Y-104857648D01*
X114199500Y-105062351D01*
X114231522Y-105264534D01*
X114294781Y-105459223D01*
X114387715Y-105641613D01*
X114508028Y-105807213D01*
X114652786Y-105951971D01*
X114775555Y-106041166D01*
X114818390Y-106072287D01*
X114894090Y-106110858D01*
X114911080Y-106119515D01*
X114961876Y-106167490D01*
X114978671Y-106235311D01*
X114956134Y-106301446D01*
X114911080Y-106340485D01*
X114818386Y-106387715D01*
X114652786Y-106508028D01*
X114508028Y-106652786D01*
X114387715Y-106818386D01*
X114294781Y-107000776D01*
X114231522Y-107195465D01*
X114199500Y-107397648D01*
X114199500Y-107602351D01*
X114231522Y-107804534D01*
X114294781Y-107999223D01*
X114387715Y-108181613D01*
X114508028Y-108347213D01*
X114652786Y-108491971D01*
X114784569Y-108587715D01*
X114818390Y-108612287D01*
X114894090Y-108650858D01*
X114911080Y-108659515D01*
X114961876Y-108707490D01*
X114978671Y-108775311D01*
X114956134Y-108841446D01*
X114911080Y-108880485D01*
X114818386Y-108927715D01*
X114652786Y-109048028D01*
X114508028Y-109192786D01*
X114387715Y-109358386D01*
X114294781Y-109540776D01*
X114231522Y-109735465D01*
X114199500Y-109937648D01*
X114199500Y-110142351D01*
X114231522Y-110344534D01*
X114294781Y-110539223D01*
X114357365Y-110662049D01*
X114365381Y-110677782D01*
X114387715Y-110721613D01*
X114508028Y-110887213D01*
X114652786Y-111031971D01*
X114807749Y-111144556D01*
X114818390Y-111152287D01*
X114934607Y-111211503D01*
X115000776Y-111245218D01*
X115000778Y-111245218D01*
X115000781Y-111245220D01*
X115105137Y-111279127D01*
X115195465Y-111308477D01*
X115296557Y-111324488D01*
X115397648Y-111340500D01*
X115397649Y-111340500D01*
X115602351Y-111340500D01*
X115602352Y-111340500D01*
X115804534Y-111308477D01*
X115999219Y-111245220D01*
X116181610Y-111152287D01*
X116282180Y-111079219D01*
X116347213Y-111031971D01*
X116347215Y-111031968D01*
X116347219Y-111031966D01*
X116491966Y-110887219D01*
X116491968Y-110887215D01*
X116491971Y-110887213D01*
X116610418Y-110724182D01*
X116612287Y-110721610D01*
X116705220Y-110539219D01*
X116768477Y-110344534D01*
X116800500Y-110142352D01*
X116800500Y-109937648D01*
X116768477Y-109735466D01*
X116767606Y-109732786D01*
X116705218Y-109540776D01*
X116648123Y-109428722D01*
X116612287Y-109358390D01*
X116604556Y-109347749D01*
X116491971Y-109192786D01*
X116347213Y-109048028D01*
X116181614Y-108927715D01*
X116175006Y-108924348D01*
X116088917Y-108880483D01*
X116038123Y-108832511D01*
X116021328Y-108764690D01*
X116043865Y-108698555D01*
X116088917Y-108659516D01*
X116181610Y-108612287D01*
X116215431Y-108587715D01*
X116347213Y-108491971D01*
X116347215Y-108491968D01*
X116347219Y-108491966D01*
X116491966Y-108347219D01*
X116491968Y-108347215D01*
X116491971Y-108347213D01*
X116544732Y-108274590D01*
X116612287Y-108181610D01*
X116705220Y-107999219D01*
X116768477Y-107804534D01*
X116800500Y-107602352D01*
X116800500Y-107397648D01*
X116768477Y-107195466D01*
X116705220Y-107000781D01*
X116705218Y-107000778D01*
X116705218Y-107000776D01*
X116667735Y-106927213D01*
X116612287Y-106818390D01*
X116604556Y-106807749D01*
X116491971Y-106652786D01*
X116347213Y-106508028D01*
X116181614Y-106387715D01*
X116175006Y-106384348D01*
X116088917Y-106340483D01*
X116038123Y-106292511D01*
X116021328Y-106224690D01*
X116043865Y-106158555D01*
X116088917Y-106119516D01*
X116181610Y-106072287D01*
X116301431Y-105985233D01*
X116347213Y-105951971D01*
X116347215Y-105951968D01*
X116347219Y-105951966D01*
X116491966Y-105807219D01*
X116491968Y-105807215D01*
X116491971Y-105807213D01*
X116570814Y-105698693D01*
X116612287Y-105641610D01*
X116705220Y-105459219D01*
X116768477Y-105264534D01*
X116800500Y-105062352D01*
X116800500Y-104857648D01*
X116791499Y-104800816D01*
X116768477Y-104655465D01*
X116715354Y-104491971D01*
X116705220Y-104460781D01*
X116705218Y-104460778D01*
X116705218Y-104460776D01*
X116647354Y-104347213D01*
X116612287Y-104278390D01*
X116604556Y-104267749D01*
X116491971Y-104112786D01*
X116347213Y-103968028D01*
X116181614Y-103847715D01*
X116150828Y-103832029D01*
X116088917Y-103800483D01*
X116038123Y-103752511D01*
X116021328Y-103684690D01*
X116043865Y-103618555D01*
X116088917Y-103579516D01*
X116181610Y-103532287D01*
X116302877Y-103444181D01*
X116368683Y-103420702D01*
X116375762Y-103420500D01*
X136178543Y-103420500D01*
X136210926Y-103414058D01*
X136288940Y-103398540D01*
X136371836Y-103382051D01*
X136426597Y-103359368D01*
X136553914Y-103306632D01*
X136717782Y-103197139D01*
X136857139Y-103057782D01*
X136857139Y-103057780D01*
X136977140Y-102937781D01*
X136977142Y-102937777D01*
X141887819Y-98027100D01*
X141949142Y-97993615D01*
X142018834Y-97998599D01*
X142074767Y-98040471D01*
X142099184Y-98105935D01*
X142099500Y-98114781D01*
X142099500Y-136475500D01*
X142079815Y-136542539D01*
X142027011Y-136588294D01*
X141975500Y-136599500D01*
X44724500Y-136599500D01*
X44657461Y-136579815D01*
X44611706Y-136527011D01*
X44600500Y-136475500D01*
X44600500Y-102397682D01*
X49300000Y-102397682D01*
X49300000Y-102602317D01*
X49332009Y-102804417D01*
X49395244Y-102999031D01*
X49488141Y-103181350D01*
X49488147Y-103181359D01*
X49520523Y-103225921D01*
X49520524Y-103225922D01*
X50200000Y-102546446D01*
X50200000Y-102552661D01*
X50227259Y-102654394D01*
X50279920Y-102745606D01*
X50354394Y-102820080D01*
X50445606Y-102872741D01*
X50547339Y-102900000D01*
X50553553Y-102900000D01*
X49874076Y-103579474D01*
X49918650Y-103611859D01*
X50100968Y-103704755D01*
X50295582Y-103767990D01*
X50497683Y-103800000D01*
X50702317Y-103800000D01*
X50904417Y-103767990D01*
X51099031Y-103704755D01*
X51281349Y-103611859D01*
X51325921Y-103579474D01*
X50646447Y-102900000D01*
X50652661Y-102900000D01*
X50754394Y-102872741D01*
X50845606Y-102820080D01*
X50920080Y-102745606D01*
X50972741Y-102654394D01*
X51000000Y-102552661D01*
X51000000Y-102546447D01*
X51679474Y-103225921D01*
X51711859Y-103181349D01*
X51804755Y-102999031D01*
X51867990Y-102804417D01*
X51900000Y-102602317D01*
X51900000Y-102397682D01*
X51867990Y-102195582D01*
X51804755Y-102000968D01*
X51711859Y-101818650D01*
X51679474Y-101774077D01*
X51679474Y-101774076D01*
X51000000Y-102453551D01*
X51000000Y-102447339D01*
X50972741Y-102345606D01*
X50920080Y-102254394D01*
X50845606Y-102179920D01*
X50754394Y-102127259D01*
X50652661Y-102100000D01*
X50646446Y-102100000D01*
X51325922Y-101420524D01*
X51325921Y-101420523D01*
X51281359Y-101388147D01*
X51281350Y-101388141D01*
X51099031Y-101295244D01*
X50904417Y-101232009D01*
X50702317Y-101200000D01*
X50497683Y-101200000D01*
X50295582Y-101232009D01*
X50100968Y-101295244D01*
X49918644Y-101388143D01*
X49874077Y-101420523D01*
X49874077Y-101420524D01*
X50553554Y-102100000D01*
X50547339Y-102100000D01*
X50445606Y-102127259D01*
X50354394Y-102179920D01*
X50279920Y-102254394D01*
X50227259Y-102345606D01*
X50200000Y-102447339D01*
X50200000Y-102453553D01*
X49520524Y-101774077D01*
X49520523Y-101774077D01*
X49488143Y-101818644D01*
X49395244Y-102000968D01*
X49332009Y-102195582D01*
X49300000Y-102397682D01*
X44600500Y-102397682D01*
X44600500Y-90097648D01*
X71699500Y-90097648D01*
X71699500Y-90302351D01*
X71731522Y-90504534D01*
X71794781Y-90699223D01*
X71887715Y-90881613D01*
X72008028Y-91047213D01*
X72152786Y-91191971D01*
X72307749Y-91304556D01*
X72318390Y-91312287D01*
X72434607Y-91371503D01*
X72500776Y-91405218D01*
X72500778Y-91405218D01*
X72500781Y-91405220D01*
X72602425Y-91438246D01*
X72695465Y-91468477D01*
X72796557Y-91484488D01*
X72897648Y-91500500D01*
X72897649Y-91500500D01*
X73102351Y-91500500D01*
X73102352Y-91500500D01*
X73304534Y-91468477D01*
X73499219Y-91405220D01*
X73681610Y-91312287D01*
X73774590Y-91244732D01*
X73847213Y-91191971D01*
X73847215Y-91191968D01*
X73847219Y-91191966D01*
X73991966Y-91047219D01*
X73991968Y-91047215D01*
X73991971Y-91047213D01*
X74098013Y-90901256D01*
X74112287Y-90881610D01*
X74205220Y-90699219D01*
X74268477Y-90504534D01*
X74291925Y-90356483D01*
X74321854Y-90293350D01*
X74326699Y-90288219D01*
X79417270Y-85197648D01*
X82999500Y-85197648D01*
X82999500Y-85402352D01*
X83003517Y-85427713D01*
X83031522Y-85604534D01*
X83094781Y-85799223D01*
X83124927Y-85858386D01*
X83181021Y-85968477D01*
X83187715Y-85981613D01*
X83308028Y-86147213D01*
X83452786Y-86291971D01*
X83607749Y-86404556D01*
X83618390Y-86412287D01*
X83734607Y-86471503D01*
X83800776Y-86505218D01*
X83800778Y-86505218D01*
X83800781Y-86505220D01*
X83905137Y-86539127D01*
X83995465Y-86568477D01*
X84096557Y-86584488D01*
X84197648Y-86600500D01*
X84197649Y-86600500D01*
X84402351Y-86600500D01*
X84402352Y-86600500D01*
X84604534Y-86568477D01*
X84799219Y-86505220D01*
X84981610Y-86412287D01*
X85074590Y-86344732D01*
X85147213Y-86291971D01*
X85147215Y-86291968D01*
X85147219Y-86291966D01*
X85291966Y-86147219D01*
X85291968Y-86147215D01*
X85291971Y-86147213D01*
X85369297Y-86040781D01*
X85412287Y-85981610D01*
X85505220Y-85799219D01*
X85568477Y-85604534D01*
X85600500Y-85402352D01*
X85600500Y-85197648D01*
X85568477Y-84995465D01*
X85526437Y-84866080D01*
X85505220Y-84800781D01*
X85505218Y-84800778D01*
X85505218Y-84800776D01*
X85412287Y-84618390D01*
X85344916Y-84525661D01*
X85344915Y-84525658D01*
X85295503Y-84457648D01*
X89499500Y-84457648D01*
X89499500Y-84662351D01*
X89531522Y-84864534D01*
X89594781Y-85059223D01*
X89658691Y-85184653D01*
X89687636Y-85241459D01*
X89687715Y-85241613D01*
X89808028Y-85407213D01*
X89952786Y-85551971D01*
X90107749Y-85664556D01*
X90118390Y-85672287D01*
X90208303Y-85718100D01*
X90300776Y-85765218D01*
X90300778Y-85765218D01*
X90300781Y-85765220D01*
X90405137Y-85799127D01*
X90495465Y-85828477D01*
X90596557Y-85844488D01*
X90697648Y-85860500D01*
X90697649Y-85860500D01*
X90902351Y-85860500D01*
X90902352Y-85860500D01*
X91104534Y-85828477D01*
X91299219Y-85765220D01*
X91481610Y-85672287D01*
X91574865Y-85604534D01*
X91647213Y-85551971D01*
X91647215Y-85551968D01*
X91647219Y-85551966D01*
X91791966Y-85407219D01*
X91791968Y-85407215D01*
X91791971Y-85407213D01*
X91866073Y-85305218D01*
X91912287Y-85241610D01*
X92005220Y-85059219D01*
X92068477Y-84864534D01*
X92100500Y-84662352D01*
X92100500Y-84457648D01*
X92089405Y-84387599D01*
X92068477Y-84255465D01*
X92005218Y-84060776D01*
X91921831Y-83897122D01*
X91912287Y-83878390D01*
X91852040Y-83795466D01*
X91791971Y-83712786D01*
X91647213Y-83568028D01*
X91481613Y-83447715D01*
X91481612Y-83447714D01*
X91481610Y-83447713D01*
X91386987Y-83399500D01*
X91299223Y-83354781D01*
X91104534Y-83291522D01*
X90929995Y-83263878D01*
X90902352Y-83259500D01*
X90697648Y-83259500D01*
X90673329Y-83263351D01*
X90495465Y-83291522D01*
X90300776Y-83354781D01*
X90118386Y-83447715D01*
X89952786Y-83568028D01*
X89808028Y-83712786D01*
X89687715Y-83878386D01*
X89594781Y-84060776D01*
X89531522Y-84255465D01*
X89499500Y-84457648D01*
X85295503Y-84457648D01*
X85291971Y-84452787D01*
X85291967Y-84452782D01*
X85147213Y-84308028D01*
X84981613Y-84187715D01*
X84981612Y-84187714D01*
X84981610Y-84187713D01*
X84924653Y-84158691D01*
X84799223Y-84094781D01*
X84604534Y-84031522D01*
X84429995Y-84003878D01*
X84402352Y-83999500D01*
X84197648Y-83999500D01*
X84173329Y-84003351D01*
X83995465Y-84031522D01*
X83800776Y-84094781D01*
X83618386Y-84187715D01*
X83452786Y-84308028D01*
X83308028Y-84452786D01*
X83187715Y-84618386D01*
X83094781Y-84800776D01*
X83031522Y-84995465D01*
X82999500Y-85197648D01*
X79417270Y-85197648D01*
X81449946Y-83164972D01*
X81468733Y-83149555D01*
X81510289Y-83121789D01*
X81621789Y-83010289D01*
X81649555Y-82968732D01*
X81664972Y-82949946D01*
X82936778Y-81678141D01*
X82936782Y-81678139D01*
X83076139Y-81538782D01*
X83185632Y-81374914D01*
X83202897Y-81333232D01*
X83222974Y-81284763D01*
X83261049Y-81192839D01*
X83261051Y-81192835D01*
X83290337Y-81045606D01*
X83299500Y-80999543D01*
X83299500Y-80998308D01*
X83299683Y-80997684D01*
X83300097Y-80993481D01*
X83300894Y-80993559D01*
X83319185Y-80931269D01*
X83335819Y-80910627D01*
X83900000Y-80346446D01*
X83900000Y-80352661D01*
X83927259Y-80454394D01*
X83979920Y-80545606D01*
X84054394Y-80620080D01*
X84145606Y-80672741D01*
X84247339Y-80700000D01*
X84253553Y-80700000D01*
X83574076Y-81379474D01*
X83618650Y-81411859D01*
X83800968Y-81504755D01*
X83995582Y-81567990D01*
X84197683Y-81600000D01*
X84402317Y-81600000D01*
X84604417Y-81567990D01*
X84799031Y-81504755D01*
X84981349Y-81411859D01*
X85025921Y-81379474D01*
X84346447Y-80700000D01*
X84352661Y-80700000D01*
X84454394Y-80672741D01*
X84545606Y-80620080D01*
X84620080Y-80545606D01*
X84672741Y-80454394D01*
X84700000Y-80352661D01*
X84700000Y-80346447D01*
X85379474Y-81025921D01*
X85411859Y-80981349D01*
X85504755Y-80799031D01*
X85567990Y-80604417D01*
X85600000Y-80402317D01*
X85600000Y-80197682D01*
X85567990Y-79995582D01*
X85504755Y-79800968D01*
X85411859Y-79618650D01*
X85379474Y-79574077D01*
X85379474Y-79574076D01*
X84700000Y-80253551D01*
X84700000Y-80247339D01*
X84672741Y-80145606D01*
X84620080Y-80054394D01*
X84545606Y-79979920D01*
X84454394Y-79927259D01*
X84352661Y-79900000D01*
X84346446Y-79900000D01*
X85025922Y-79220524D01*
X85025921Y-79220523D01*
X84981359Y-79188147D01*
X84981350Y-79188141D01*
X84799031Y-79095244D01*
X84604417Y-79032009D01*
X84402317Y-79000000D01*
X84197683Y-79000000D01*
X83995582Y-79032009D01*
X83800968Y-79095244D01*
X83618647Y-79188142D01*
X83496385Y-79276971D01*
X83430579Y-79300451D01*
X83362525Y-79284626D01*
X83313830Y-79234520D01*
X83299500Y-79176653D01*
X83299500Y-77953499D01*
X83319185Y-77886460D01*
X83371989Y-77840705D01*
X83441147Y-77830761D01*
X83479795Y-77843014D01*
X83600968Y-77904755D01*
X83795582Y-77967990D01*
X83997683Y-78000000D01*
X84202317Y-78000000D01*
X84404417Y-77967990D01*
X84599031Y-77904755D01*
X84781349Y-77811859D01*
X84825921Y-77779474D01*
X84146447Y-77100000D01*
X84152661Y-77100000D01*
X84254394Y-77072741D01*
X84345606Y-77020080D01*
X84420080Y-76945606D01*
X84472741Y-76854394D01*
X84500000Y-76752661D01*
X84500000Y-76746447D01*
X85179474Y-77425921D01*
X85211859Y-77381349D01*
X85304755Y-77199031D01*
X85367990Y-77004417D01*
X85400000Y-76802317D01*
X85400000Y-76597682D01*
X85367990Y-76395582D01*
X85304755Y-76200968D01*
X85211859Y-76018650D01*
X85179474Y-75974077D01*
X85179474Y-75974076D01*
X84500000Y-76653551D01*
X84500000Y-76647339D01*
X84472741Y-76545606D01*
X84420080Y-76454394D01*
X84345606Y-76379920D01*
X84254394Y-76327259D01*
X84152661Y-76300000D01*
X84146446Y-76300000D01*
X84825922Y-75620524D01*
X84825921Y-75620523D01*
X84781359Y-75588147D01*
X84781350Y-75588141D01*
X84599031Y-75495244D01*
X84404417Y-75432009D01*
X84202317Y-75400000D01*
X83997683Y-75400000D01*
X83795582Y-75432009D01*
X83600968Y-75495244D01*
X83479795Y-75556986D01*
X83411126Y-75569882D01*
X83346385Y-75543606D01*
X83306128Y-75486499D01*
X83299500Y-75446501D01*
X83299500Y-72954059D01*
X83319185Y-72887020D01*
X83371989Y-72841265D01*
X83441147Y-72831321D01*
X83479792Y-72843573D01*
X83534934Y-72871669D01*
X83600776Y-72905218D01*
X83600778Y-72905218D01*
X83600781Y-72905220D01*
X83705137Y-72939127D01*
X83795465Y-72968477D01*
X83896557Y-72984488D01*
X83997648Y-73000500D01*
X83997649Y-73000500D01*
X84202351Y-73000500D01*
X84202352Y-73000500D01*
X84404534Y-72968477D01*
X84599219Y-72905220D01*
X84781610Y-72812287D01*
X84880672Y-72740315D01*
X84947213Y-72691971D01*
X84947215Y-72691968D01*
X84947219Y-72691966D01*
X85091966Y-72547219D01*
X85091968Y-72547215D01*
X85091971Y-72547213D01*
X85144732Y-72474590D01*
X85212287Y-72381610D01*
X85305220Y-72199219D01*
X85368477Y-72004534D01*
X85400500Y-71802352D01*
X85400500Y-71597648D01*
X85386316Y-71508097D01*
X85368477Y-71395465D01*
X85319658Y-71245218D01*
X85305220Y-71200781D01*
X85305218Y-71200778D01*
X85305218Y-71200776D01*
X85252403Y-71097122D01*
X85212287Y-71018390D01*
X85202717Y-71005218D01*
X85091971Y-70852786D01*
X84947213Y-70708028D01*
X84781613Y-70587715D01*
X84781612Y-70587714D01*
X84781610Y-70587713D01*
X84720204Y-70556425D01*
X84599223Y-70494781D01*
X84404534Y-70431522D01*
X84219512Y-70402218D01*
X84202352Y-70399500D01*
X83997648Y-70399500D01*
X83980488Y-70402218D01*
X83795465Y-70431522D01*
X83660223Y-70475466D01*
X83600781Y-70494780D01*
X83600778Y-70494781D01*
X83600776Y-70494782D01*
X83479795Y-70556425D01*
X83411125Y-70569321D01*
X83346385Y-70543044D01*
X83306128Y-70485938D01*
X83299500Y-70445940D01*
X83299500Y-68086781D01*
X83319185Y-68019742D01*
X83335814Y-67999105D01*
X85028203Y-66306715D01*
X85089524Y-66273232D01*
X85096473Y-66271927D01*
X85244534Y-66248477D01*
X85439219Y-66185220D01*
X85621610Y-66092287D01*
X85720036Y-66020777D01*
X85787213Y-65971971D01*
X85787215Y-65971968D01*
X85787219Y-65971966D01*
X85931966Y-65827219D01*
X85931968Y-65827215D01*
X85931971Y-65827213D01*
X86024032Y-65700500D01*
X86052287Y-65661610D01*
X86145220Y-65479219D01*
X86208477Y-65284534D01*
X86240500Y-65082352D01*
X86240500Y-64877648D01*
X86229149Y-64805979D01*
X86208477Y-64675465D01*
X86161709Y-64531528D01*
X86145220Y-64480781D01*
X86145218Y-64480778D01*
X86145218Y-64480776D01*
X86101749Y-64395465D01*
X86052287Y-64298390D01*
X86044556Y-64287749D01*
X85931971Y-64132786D01*
X85787213Y-63988028D01*
X85621613Y-63867715D01*
X85621612Y-63867714D01*
X85621610Y-63867713D01*
X85548050Y-63830232D01*
X85439223Y-63774781D01*
X85244534Y-63711522D01*
X85069995Y-63683878D01*
X85042352Y-63679500D01*
X84837648Y-63679500D01*
X84813329Y-63683351D01*
X84635465Y-63711522D01*
X84440776Y-63774781D01*
X84258386Y-63867715D01*
X84092786Y-63988028D01*
X83948028Y-64132786D01*
X83827715Y-64298386D01*
X83734781Y-64480778D01*
X83671522Y-64675468D01*
X83648073Y-64823515D01*
X83618143Y-64886649D01*
X83613281Y-64891797D01*
X82629614Y-65875465D01*
X81661221Y-66843858D01*
X81661218Y-66843861D01*
X81625615Y-66879464D01*
X81521859Y-66983219D01*
X81412371Y-67147080D01*
X81412364Y-67147093D01*
X81368793Y-67252286D01*
X81368793Y-67252287D01*
X81336950Y-67329161D01*
X81336947Y-67329170D01*
X81331256Y-67357783D01*
X81298500Y-67522454D01*
X81298500Y-80435217D01*
X81278815Y-80502256D01*
X81262181Y-80522898D01*
X72911797Y-88873281D01*
X72850474Y-88906766D01*
X72843515Y-88908073D01*
X72695468Y-88931522D01*
X72500778Y-88994781D01*
X72318386Y-89087715D01*
X72152786Y-89208028D01*
X72008028Y-89352786D01*
X71887715Y-89518386D01*
X71794781Y-89700776D01*
X71731522Y-89895465D01*
X71699500Y-90097648D01*
X44600500Y-90097648D01*
X44600500Y-86437648D01*
X57699500Y-86437648D01*
X57699500Y-86642351D01*
X57731522Y-86844534D01*
X57794781Y-87039223D01*
X57887715Y-87221613D01*
X58008028Y-87387213D01*
X58152786Y-87531971D01*
X58283109Y-87626654D01*
X58318390Y-87652287D01*
X58434607Y-87711503D01*
X58500776Y-87745218D01*
X58500778Y-87745218D01*
X58500781Y-87745220D01*
X58568487Y-87767219D01*
X58695465Y-87808477D01*
X58796557Y-87824488D01*
X58897648Y-87840500D01*
X58897649Y-87840500D01*
X59102351Y-87840500D01*
X59102352Y-87840500D01*
X59304534Y-87808477D01*
X59499219Y-87745220D01*
X59681610Y-87652287D01*
X59808379Y-87560185D01*
X59847213Y-87531971D01*
X59847215Y-87531968D01*
X59847219Y-87531966D01*
X59991966Y-87387219D01*
X59991968Y-87387215D01*
X59991971Y-87387213D01*
X60044732Y-87314590D01*
X60112287Y-87221610D01*
X60205220Y-87039219D01*
X60268477Y-86844534D01*
X60300500Y-86642352D01*
X60300500Y-86437648D01*
X62699500Y-86437648D01*
X62699500Y-86642351D01*
X62731522Y-86844534D01*
X62794781Y-87039223D01*
X62887715Y-87221613D01*
X63008028Y-87387213D01*
X63152786Y-87531971D01*
X63283109Y-87626654D01*
X63318390Y-87652287D01*
X63434607Y-87711503D01*
X63500776Y-87745218D01*
X63500778Y-87745218D01*
X63500781Y-87745220D01*
X63568487Y-87767219D01*
X63695465Y-87808477D01*
X63796557Y-87824488D01*
X63897648Y-87840500D01*
X63897649Y-87840500D01*
X64102351Y-87840500D01*
X64102352Y-87840500D01*
X64304534Y-87808477D01*
X64499219Y-87745220D01*
X64681610Y-87652287D01*
X64802877Y-87564181D01*
X64868683Y-87540702D01*
X64875762Y-87540500D01*
X66480821Y-87540500D01*
X66547860Y-87560185D01*
X66584674Y-87597795D01*
X66584849Y-87597669D01*
X66585706Y-87598849D01*
X66586548Y-87599709D01*
X66587716Y-87601616D01*
X66708028Y-87767213D01*
X66852786Y-87911971D01*
X66986795Y-88009332D01*
X67018390Y-88032287D01*
X67134607Y-88091503D01*
X67200776Y-88125218D01*
X67200778Y-88125218D01*
X67200781Y-88125220D01*
X67305137Y-88159127D01*
X67395465Y-88188477D01*
X67473149Y-88200781D01*
X67597648Y-88220500D01*
X67597649Y-88220500D01*
X67802351Y-88220500D01*
X67802352Y-88220500D01*
X68004534Y-88188477D01*
X68199219Y-88125220D01*
X68381610Y-88032287D01*
X68505465Y-87942302D01*
X68547213Y-87911971D01*
X68547215Y-87911968D01*
X68547219Y-87911966D01*
X68691966Y-87767219D01*
X68691968Y-87767215D01*
X68691971Y-87767213D01*
X68762752Y-87669790D01*
X68812287Y-87601610D01*
X68905220Y-87419219D01*
X68968477Y-87224534D01*
X69000500Y-87022352D01*
X69000500Y-86817648D01*
X68968477Y-86615465D01*
X68905218Y-86420776D01*
X68871503Y-86354607D01*
X68812287Y-86238390D01*
X68746044Y-86147213D01*
X68724182Y-86117122D01*
X68717029Y-86097077D01*
X68705523Y-86079172D01*
X68702068Y-86055145D01*
X68700702Y-86051316D01*
X68700500Y-86044237D01*
X68700500Y-85805781D01*
X68720185Y-85738742D01*
X68736814Y-85718105D01*
X73088203Y-81366715D01*
X73149524Y-81333232D01*
X73156473Y-81331927D01*
X73304534Y-81308477D01*
X73499219Y-81245220D01*
X73681610Y-81152287D01*
X73796685Y-81068681D01*
X73847213Y-81031971D01*
X73847215Y-81031968D01*
X73847219Y-81031966D01*
X73991966Y-80887219D01*
X73991968Y-80887215D01*
X73991971Y-80887213D01*
X74056038Y-80799031D01*
X74112287Y-80721610D01*
X74205220Y-80539219D01*
X74268477Y-80344534D01*
X74300500Y-80142352D01*
X74300500Y-79937648D01*
X74268477Y-79735466D01*
X74268254Y-79734781D01*
X74222103Y-79592741D01*
X74205220Y-79540781D01*
X74205218Y-79540778D01*
X74205218Y-79540776D01*
X74152671Y-79437648D01*
X74112287Y-79358390D01*
X74104556Y-79347749D01*
X73991971Y-79192786D01*
X73847213Y-79048028D01*
X73681613Y-78927715D01*
X73681612Y-78927714D01*
X73681610Y-78927713D01*
X73624653Y-78898691D01*
X73499223Y-78834781D01*
X73304534Y-78771522D01*
X73129995Y-78743878D01*
X73102352Y-78739500D01*
X72897648Y-78739500D01*
X72873329Y-78743351D01*
X72695465Y-78771522D01*
X72500776Y-78834781D01*
X72318386Y-78927715D01*
X72152786Y-79048028D01*
X72008028Y-79192786D01*
X71887715Y-79358386D01*
X71794781Y-79540778D01*
X71731522Y-79735468D01*
X71708073Y-79883515D01*
X71678143Y-79946649D01*
X71673281Y-79951797D01*
X69343625Y-82281454D01*
X67062221Y-84562858D01*
X67062218Y-84562861D01*
X67025860Y-84599219D01*
X66922859Y-84702219D01*
X66813371Y-84866080D01*
X66813364Y-84866093D01*
X66764539Y-84983969D01*
X66764533Y-84983985D01*
X66763472Y-84986547D01*
X66737949Y-85048164D01*
X66735750Y-85059219D01*
X66733915Y-85068439D01*
X66733914Y-85068445D01*
X66699500Y-85241456D01*
X66699500Y-85415500D01*
X66679815Y-85482539D01*
X66627011Y-85528294D01*
X66575500Y-85539500D01*
X64875762Y-85539500D01*
X64808723Y-85519815D01*
X64802877Y-85515818D01*
X64681613Y-85427715D01*
X64681612Y-85427714D01*
X64681610Y-85427713D01*
X64591128Y-85381610D01*
X64499223Y-85334781D01*
X64304534Y-85271522D01*
X64129995Y-85243878D01*
X64102352Y-85239500D01*
X63897648Y-85239500D01*
X63873329Y-85243351D01*
X63695465Y-85271522D01*
X63500776Y-85334781D01*
X63318386Y-85427715D01*
X63152786Y-85548028D01*
X63008028Y-85692786D01*
X62887715Y-85858386D01*
X62794781Y-86040776D01*
X62731522Y-86235465D01*
X62699500Y-86437648D01*
X60300500Y-86437648D01*
X60268940Y-86238390D01*
X60268477Y-86235465D01*
X60205218Y-86040776D01*
X60136147Y-85905218D01*
X60112287Y-85858390D01*
X60090554Y-85828477D01*
X59991971Y-85692786D01*
X59847213Y-85548028D01*
X59681613Y-85427715D01*
X59681612Y-85427714D01*
X59681610Y-85427713D01*
X59591128Y-85381610D01*
X59499223Y-85334781D01*
X59304534Y-85271522D01*
X59129995Y-85243878D01*
X59102352Y-85239500D01*
X58897648Y-85239500D01*
X58873329Y-85243351D01*
X58695465Y-85271522D01*
X58500776Y-85334781D01*
X58318386Y-85427715D01*
X58152786Y-85548028D01*
X58008028Y-85692786D01*
X57887715Y-85858386D01*
X57794781Y-86040776D01*
X57731522Y-86235465D01*
X57699500Y-86437648D01*
X44600500Y-86437648D01*
X44600500Y-80950000D01*
X61323391Y-80950000D01*
X62284314Y-80950000D01*
X62279920Y-80954394D01*
X62227259Y-81045606D01*
X62200000Y-81147339D01*
X62200000Y-81252661D01*
X62227259Y-81354394D01*
X62279920Y-81445606D01*
X62284314Y-81450000D01*
X61323391Y-81450000D01*
X61332009Y-81504413D01*
X61395244Y-81699029D01*
X61488140Y-81881349D01*
X61608417Y-82046894D01*
X61608417Y-82046895D01*
X61753104Y-82191582D01*
X61918650Y-82311859D01*
X62100968Y-82404754D01*
X62295578Y-82467988D01*
X62350000Y-82476607D01*
X62350000Y-81515686D01*
X62354394Y-81520080D01*
X62445606Y-81572741D01*
X62547339Y-81600000D01*
X62652661Y-81600000D01*
X62754394Y-81572741D01*
X62845606Y-81520080D01*
X62850000Y-81515686D01*
X62850000Y-82476606D01*
X62904421Y-82467988D01*
X63099031Y-82404754D01*
X63281349Y-82311859D01*
X63446894Y-82191582D01*
X63446895Y-82191582D01*
X63591582Y-82046895D01*
X63591582Y-82046894D01*
X63711859Y-81881349D01*
X63804755Y-81699029D01*
X63867990Y-81504413D01*
X63876609Y-81450000D01*
X62915686Y-81450000D01*
X62920080Y-81445606D01*
X62972741Y-81354394D01*
X63000000Y-81252661D01*
X63000000Y-81147339D01*
X62972741Y-81045606D01*
X62920080Y-80954394D01*
X62915686Y-80950000D01*
X63876609Y-80950000D01*
X63867990Y-80895586D01*
X63804755Y-80700970D01*
X63711859Y-80518650D01*
X63591582Y-80353105D01*
X63591582Y-80353104D01*
X63446895Y-80208417D01*
X63281349Y-80088140D01*
X63099029Y-79995244D01*
X62904413Y-79932009D01*
X62850000Y-79923390D01*
X62850000Y-80884314D01*
X62845606Y-80879920D01*
X62754394Y-80827259D01*
X62652661Y-80800000D01*
X62547339Y-80800000D01*
X62445606Y-80827259D01*
X62354394Y-80879920D01*
X62350000Y-80884314D01*
X62350000Y-79923390D01*
X62295586Y-79932009D01*
X62100970Y-79995244D01*
X61918650Y-80088140D01*
X61753105Y-80208417D01*
X61753104Y-80208417D01*
X61608417Y-80353104D01*
X61608417Y-80353105D01*
X61488140Y-80518650D01*
X61395244Y-80700970D01*
X61332009Y-80895586D01*
X61323391Y-80950000D01*
X44600500Y-80950000D01*
X44600500Y-78970000D01*
X49123391Y-78970000D01*
X50084314Y-78970000D01*
X50079920Y-78974394D01*
X50027259Y-79065606D01*
X50000000Y-79167339D01*
X50000000Y-79272661D01*
X50027259Y-79374394D01*
X50079920Y-79465606D01*
X50084314Y-79470000D01*
X49123391Y-79470000D01*
X49132009Y-79524413D01*
X49195244Y-79719029D01*
X49288140Y-79901349D01*
X49408417Y-80066894D01*
X49408417Y-80066895D01*
X49553104Y-80211582D01*
X49718650Y-80331859D01*
X49900968Y-80424754D01*
X50095578Y-80487988D01*
X50150000Y-80496607D01*
X50150000Y-79535686D01*
X50154394Y-79540080D01*
X50245606Y-79592741D01*
X50347339Y-79620000D01*
X50452661Y-79620000D01*
X50554394Y-79592741D01*
X50645606Y-79540080D01*
X50650000Y-79535686D01*
X50650000Y-80496606D01*
X50704421Y-80487988D01*
X50899031Y-80424754D01*
X51081349Y-80331859D01*
X51246895Y-80211582D01*
X51391582Y-80066895D01*
X51391582Y-80066894D01*
X51511859Y-79901349D01*
X51604755Y-79719029D01*
X51667990Y-79524413D01*
X51676609Y-79470000D01*
X50715686Y-79470000D01*
X50720080Y-79465606D01*
X50772741Y-79374394D01*
X50800000Y-79272661D01*
X50800000Y-79167339D01*
X50772741Y-79065606D01*
X50720080Y-78974394D01*
X50715686Y-78970000D01*
X51676609Y-78970000D01*
X51667990Y-78915586D01*
X51604755Y-78720970D01*
X51511859Y-78538650D01*
X51391582Y-78373105D01*
X51391582Y-78373104D01*
X51246895Y-78228417D01*
X51081349Y-78108140D01*
X50899029Y-78015244D01*
X50704413Y-77952009D01*
X50650000Y-77943390D01*
X50650000Y-78904314D01*
X50645606Y-78899920D01*
X50554394Y-78847259D01*
X50452661Y-78820000D01*
X50347339Y-78820000D01*
X50245606Y-78847259D01*
X50154394Y-78899920D01*
X50150000Y-78904314D01*
X50150000Y-77943390D01*
X50095586Y-77952009D01*
X49900970Y-78015244D01*
X49718650Y-78108140D01*
X49553105Y-78228417D01*
X49553104Y-78228417D01*
X49408417Y-78373104D01*
X49408417Y-78373105D01*
X49288140Y-78538650D01*
X49195244Y-78720970D01*
X49132009Y-78915586D01*
X49123391Y-78970000D01*
X44600500Y-78970000D01*
X44600500Y-68957648D01*
X49099500Y-68957648D01*
X49099500Y-69162351D01*
X49131522Y-69364534D01*
X49194781Y-69559223D01*
X49258691Y-69684653D01*
X49284582Y-69735466D01*
X49287715Y-69741613D01*
X49408028Y-69907213D01*
X49552786Y-70051971D01*
X49682948Y-70146537D01*
X49718390Y-70172287D01*
X49834162Y-70231276D01*
X49900776Y-70265218D01*
X49900778Y-70265218D01*
X49900781Y-70265220D01*
X49948664Y-70280778D01*
X50095465Y-70328477D01*
X50172966Y-70340751D01*
X50243513Y-70351925D01*
X50306648Y-70381854D01*
X50311797Y-70386717D01*
X54699735Y-74774655D01*
X54699764Y-74774686D01*
X54842217Y-74917139D01*
X54965480Y-74999500D01*
X55006086Y-75026632D01*
X55006088Y-75026633D01*
X55006092Y-75026635D01*
X55036474Y-75039219D01*
X55129572Y-75077781D01*
X55188164Y-75102051D01*
X55248412Y-75114035D01*
X55334731Y-75131205D01*
X55381456Y-75140500D01*
X55381459Y-75140500D01*
X55381460Y-75140500D01*
X55578540Y-75140500D01*
X55927369Y-75140500D01*
X55994408Y-75160185D01*
X56027685Y-75191613D01*
X56155483Y-75367510D01*
X56322490Y-75534517D01*
X56330021Y-75539989D01*
X56372688Y-75595315D01*
X56378670Y-75664928D01*
X56346067Y-75726724D01*
X56330031Y-75740622D01*
X56322813Y-75745866D01*
X56155866Y-75912813D01*
X56017085Y-76103828D01*
X55909897Y-76314197D01*
X55836934Y-76538752D01*
X55800000Y-76771947D01*
X55800000Y-76890000D01*
X56800000Y-76890000D01*
X56800000Y-77390000D01*
X55800000Y-77390000D01*
X55800000Y-77508052D01*
X55836934Y-77741247D01*
X55909897Y-77965802D01*
X56017085Y-78176171D01*
X56155866Y-78367186D01*
X56322813Y-78534133D01*
X56513828Y-78672914D01*
X56724195Y-78780102D01*
X56948744Y-78853063D01*
X56948750Y-78853065D01*
X57050000Y-78869101D01*
X57050000Y-77823012D01*
X57107007Y-77855925D01*
X57234174Y-77890000D01*
X57365826Y-77890000D01*
X57492993Y-77855925D01*
X57550000Y-77823012D01*
X57550000Y-78869100D01*
X57651249Y-78853065D01*
X57651255Y-78853063D01*
X57875804Y-78780102D01*
X58086171Y-78672914D01*
X58277186Y-78534133D01*
X58444133Y-78367186D01*
X58582914Y-78176171D01*
X58690102Y-77965802D01*
X58763065Y-77741247D01*
X58800000Y-77508052D01*
X58800000Y-77390000D01*
X57800000Y-77390000D01*
X57800000Y-76890000D01*
X58800000Y-76890000D01*
X58800000Y-76771947D01*
X58767454Y-76566465D01*
X58767453Y-76566460D01*
X58763063Y-76538746D01*
X58753723Y-76510000D01*
X66423391Y-76510000D01*
X67384314Y-76510000D01*
X67379920Y-76514394D01*
X67327259Y-76605606D01*
X67300000Y-76707339D01*
X67300000Y-76812661D01*
X67327259Y-76914394D01*
X67379920Y-77005606D01*
X67384314Y-77010000D01*
X66423391Y-77010000D01*
X66432009Y-77064413D01*
X66495244Y-77259029D01*
X66588140Y-77441349D01*
X66708417Y-77606894D01*
X66708417Y-77606895D01*
X66853104Y-77751582D01*
X67018650Y-77871859D01*
X67200968Y-77964754D01*
X67395578Y-78027988D01*
X67450000Y-78036607D01*
X67450000Y-77075686D01*
X67454394Y-77080080D01*
X67545606Y-77132741D01*
X67647339Y-77160000D01*
X67752661Y-77160000D01*
X67854394Y-77132741D01*
X67945606Y-77080080D01*
X67950000Y-77075686D01*
X67950000Y-78036606D01*
X68004421Y-78027988D01*
X68199031Y-77964754D01*
X68381349Y-77871859D01*
X68546894Y-77751582D01*
X68546895Y-77751582D01*
X68691582Y-77606895D01*
X68691582Y-77606894D01*
X68811859Y-77441349D01*
X68904755Y-77259029D01*
X68967990Y-77064413D01*
X68976609Y-77010000D01*
X68015686Y-77010000D01*
X68020080Y-77005606D01*
X68072741Y-76914394D01*
X68100000Y-76812661D01*
X68100000Y-76707339D01*
X68072741Y-76605606D01*
X68020080Y-76514394D01*
X68015686Y-76510000D01*
X68976609Y-76510000D01*
X68967990Y-76455586D01*
X68904754Y-76260967D01*
X68898694Y-76249072D01*
X68898693Y-76249071D01*
X68872492Y-76197648D01*
X71619500Y-76197648D01*
X71619500Y-76402351D01*
X71651522Y-76604534D01*
X71714781Y-76799223D01*
X71807715Y-76981613D01*
X71928028Y-77147213D01*
X72072786Y-77291971D01*
X72195807Y-77381349D01*
X72238390Y-77412287D01*
X72323840Y-77455826D01*
X72420776Y-77505218D01*
X72420778Y-77505218D01*
X72420781Y-77505220D01*
X72525137Y-77539127D01*
X72615465Y-77568477D01*
X72707115Y-77582993D01*
X72817648Y-77600500D01*
X72817649Y-77600500D01*
X73022351Y-77600500D01*
X73022352Y-77600500D01*
X73224534Y-77568477D01*
X73419219Y-77505220D01*
X73601610Y-77412287D01*
X73722877Y-77324181D01*
X73788683Y-77300702D01*
X73795762Y-77300500D01*
X76870193Y-77300500D01*
X76937232Y-77320185D01*
X76950731Y-77330215D01*
X76952788Y-77331972D01*
X77063330Y-77412284D01*
X77118390Y-77452287D01*
X77222273Y-77505218D01*
X77300776Y-77545218D01*
X77300778Y-77545218D01*
X77300781Y-77545220D01*
X77372359Y-77568477D01*
X77495465Y-77608477D01*
X77596557Y-77624488D01*
X77697648Y-77640500D01*
X77697649Y-77640500D01*
X77902351Y-77640500D01*
X77902352Y-77640500D01*
X78104534Y-77608477D01*
X78299219Y-77545220D01*
X78481610Y-77452287D01*
X78579249Y-77381349D01*
X78647213Y-77331971D01*
X78647215Y-77331968D01*
X78647219Y-77331966D01*
X78791966Y-77187219D01*
X78791968Y-77187215D01*
X78791971Y-77187213D01*
X78855334Y-77100000D01*
X78912287Y-77021610D01*
X79005220Y-76839219D01*
X79068477Y-76644534D01*
X79100500Y-76442352D01*
X79100500Y-76237648D01*
X79083891Y-76132786D01*
X79068477Y-76035465D01*
X79028625Y-75912813D01*
X79005220Y-75840781D01*
X79005218Y-75840778D01*
X79005218Y-75840776D01*
X78947105Y-75726724D01*
X78912287Y-75658390D01*
X78873656Y-75605218D01*
X78791971Y-75492786D01*
X78647213Y-75348028D01*
X78481613Y-75227715D01*
X78481612Y-75227714D01*
X78481610Y-75227713D01*
X78403106Y-75187713D01*
X78299223Y-75134781D01*
X78104534Y-75071522D01*
X77929995Y-75043878D01*
X77902352Y-75039500D01*
X77697648Y-75039500D01*
X77673329Y-75043351D01*
X77495465Y-75071522D01*
X77300776Y-75134781D01*
X77118386Y-75227715D01*
X77052178Y-75275818D01*
X76986372Y-75299298D01*
X76979293Y-75299500D01*
X73795762Y-75299500D01*
X73728723Y-75279815D01*
X73722877Y-75275818D01*
X73601613Y-75187715D01*
X73601612Y-75187714D01*
X73601610Y-75187713D01*
X73544653Y-75158691D01*
X73419223Y-75094781D01*
X73224534Y-75031522D01*
X73049995Y-75003878D01*
X73022352Y-74999500D01*
X72817648Y-74999500D01*
X72793329Y-75003351D01*
X72615465Y-75031522D01*
X72420776Y-75094781D01*
X72238386Y-75187715D01*
X72072786Y-75308028D01*
X71928028Y-75452786D01*
X71807715Y-75618386D01*
X71714781Y-75800776D01*
X71651522Y-75995465D01*
X71619500Y-76197648D01*
X68872492Y-76197648D01*
X68811859Y-76078650D01*
X68691582Y-75913105D01*
X68691582Y-75913104D01*
X68546895Y-75768417D01*
X68381349Y-75648140D01*
X68199029Y-75555244D01*
X68004413Y-75492009D01*
X67950000Y-75483390D01*
X67950000Y-76444314D01*
X67945606Y-76439920D01*
X67854394Y-76387259D01*
X67752661Y-76360000D01*
X67647339Y-76360000D01*
X67545606Y-76387259D01*
X67454394Y-76439920D01*
X67450000Y-76444314D01*
X67450000Y-75483390D01*
X67395586Y-75492009D01*
X67200970Y-75555244D01*
X67018650Y-75648140D01*
X66853105Y-75768417D01*
X66853104Y-75768417D01*
X66708417Y-75913104D01*
X66708417Y-75913105D01*
X66588140Y-76078650D01*
X66495244Y-76260970D01*
X66432009Y-76455586D01*
X66423391Y-76510000D01*
X58753723Y-76510000D01*
X58690102Y-76314197D01*
X58582914Y-76103828D01*
X58444133Y-75912813D01*
X58277183Y-75745863D01*
X58269973Y-75740625D01*
X58227308Y-75685294D01*
X58221330Y-75615680D01*
X58253937Y-75553886D01*
X58269970Y-75539994D01*
X58277510Y-75534517D01*
X58444517Y-75367510D01*
X58583343Y-75176433D01*
X58690568Y-74965992D01*
X58763553Y-74741368D01*
X58771764Y-74689524D01*
X58800500Y-74508097D01*
X58800500Y-73771902D01*
X58763553Y-73538631D01*
X58712711Y-73382157D01*
X58690568Y-73314008D01*
X58690566Y-73314005D01*
X58690566Y-73314003D01*
X58610633Y-73157127D01*
X58583343Y-73103567D01*
X58444517Y-72912490D01*
X58277510Y-72745483D01*
X58270401Y-72740318D01*
X58227735Y-72684988D01*
X58221756Y-72615375D01*
X58254362Y-72553580D01*
X58270401Y-72539682D01*
X58270500Y-72539609D01*
X58277510Y-72534517D01*
X58444517Y-72367510D01*
X58583343Y-72176433D01*
X58690568Y-71965992D01*
X58763553Y-71741368D01*
X58778336Y-71648034D01*
X58800500Y-71508097D01*
X58800500Y-70771902D01*
X58763553Y-70538631D01*
X58714193Y-70386717D01*
X58690568Y-70314008D01*
X58690566Y-70314005D01*
X58690566Y-70314003D01*
X58634002Y-70202991D01*
X58583343Y-70103567D01*
X58444517Y-69912490D01*
X58277510Y-69745483D01*
X58086433Y-69606657D01*
X58023871Y-69574780D01*
X57875996Y-69499433D01*
X57651368Y-69426446D01*
X57418097Y-69389500D01*
X57418092Y-69389500D01*
X57181908Y-69389500D01*
X57181903Y-69389500D01*
X56948631Y-69426446D01*
X56724003Y-69499433D01*
X56513566Y-69606657D01*
X56429531Y-69667713D01*
X56322490Y-69745483D01*
X56322488Y-69745485D01*
X56322487Y-69745485D01*
X56155485Y-69912487D01*
X56155485Y-69912488D01*
X56155483Y-69912490D01*
X56152431Y-69916691D01*
X56016657Y-70103566D01*
X55909433Y-70314003D01*
X55836446Y-70538631D01*
X55799500Y-70771902D01*
X55799500Y-71508097D01*
X55836446Y-71741368D01*
X55909433Y-71965996D01*
X55964073Y-72073232D01*
X56016657Y-72176433D01*
X56155483Y-72367510D01*
X56155485Y-72367512D01*
X56322490Y-72534517D01*
X56329603Y-72539685D01*
X56372266Y-72595017D01*
X56378242Y-72664630D01*
X56345634Y-72726424D01*
X56329603Y-72740315D01*
X56322490Y-72745482D01*
X56155485Y-72912487D01*
X56155485Y-72912488D01*
X56155483Y-72912490D01*
X56114806Y-72968477D01*
X56035435Y-73077721D01*
X55980105Y-73120386D01*
X55910491Y-73126365D01*
X55848696Y-73093759D01*
X55847436Y-73092516D01*
X51872601Y-69117681D01*
X51839116Y-69056358D01*
X51844100Y-68986666D01*
X51872601Y-68942319D01*
X53878101Y-66936819D01*
X53939424Y-66903334D01*
X53965782Y-66900500D01*
X59098543Y-66900500D01*
X59136688Y-66892911D01*
X59204295Y-66879464D01*
X59291836Y-66862051D01*
X59346365Y-66839464D01*
X59473914Y-66786632D01*
X59637782Y-66677139D01*
X59777139Y-66537782D01*
X59777140Y-66537779D01*
X59784206Y-66530714D01*
X59784209Y-66530710D01*
X62988203Y-63326715D01*
X63049524Y-63293232D01*
X63056473Y-63291927D01*
X63204534Y-63268477D01*
X63399219Y-63205220D01*
X63581610Y-63112287D01*
X63674590Y-63044732D01*
X63747213Y-62991971D01*
X63747215Y-62991968D01*
X63747219Y-62991966D01*
X63891966Y-62847219D01*
X63891968Y-62847215D01*
X63891971Y-62847213D01*
X63944732Y-62774590D01*
X64012287Y-62681610D01*
X64105220Y-62499219D01*
X64168477Y-62304534D01*
X64200500Y-62102352D01*
X64200500Y-61897648D01*
X64168477Y-61695466D01*
X64105220Y-61500781D01*
X64105218Y-61500778D01*
X64105218Y-61500776D01*
X64071503Y-61434607D01*
X64012287Y-61318390D01*
X63995990Y-61295959D01*
X63891971Y-61152786D01*
X63747213Y-61008028D01*
X63581613Y-60887715D01*
X63581612Y-60887714D01*
X63581610Y-60887713D01*
X63498209Y-60845218D01*
X63399223Y-60794781D01*
X63204534Y-60731522D01*
X63029995Y-60703878D01*
X63002352Y-60699500D01*
X62797648Y-60699500D01*
X62773329Y-60703351D01*
X62595465Y-60731522D01*
X62400776Y-60794781D01*
X62218386Y-60887715D01*
X62052786Y-61008028D01*
X61908028Y-61152786D01*
X61787715Y-61318386D01*
X61694781Y-61500778D01*
X61631522Y-61695468D01*
X61608073Y-61843515D01*
X61578143Y-61906649D01*
X61573281Y-61911797D01*
X58621899Y-64863181D01*
X58560576Y-64896666D01*
X58534218Y-64899500D01*
X53401458Y-64899500D01*
X53381311Y-64903507D01*
X53341016Y-64911523D01*
X53208167Y-64937947D01*
X53208159Y-64937950D01*
X53154834Y-64960037D01*
X53154834Y-64960038D01*
X53119244Y-64974780D01*
X53026089Y-65013366D01*
X53026079Y-65013371D01*
X52862219Y-65122859D01*
X52797051Y-65188028D01*
X52722861Y-65262218D01*
X52722858Y-65262221D01*
X50240506Y-67744572D01*
X50179183Y-67778057D01*
X50172225Y-67779364D01*
X50095468Y-67791522D01*
X49900778Y-67854781D01*
X49718386Y-67947715D01*
X49552786Y-68068028D01*
X49408028Y-68212786D01*
X49287715Y-68378386D01*
X49194781Y-68560776D01*
X49131522Y-68755465D01*
X49099500Y-68957648D01*
X44600500Y-68957648D01*
X44600500Y-55932133D01*
X48504500Y-55932133D01*
X48504500Y-56147866D01*
X48534651Y-56338228D01*
X48538246Y-56360926D01*
X48604908Y-56566089D01*
X48702843Y-56758299D01*
X48829641Y-56932821D01*
X48982179Y-57085359D01*
X49103454Y-57173471D01*
X49153294Y-57209682D01*
X49195959Y-57265012D01*
X49201938Y-57334626D01*
X49169332Y-57396421D01*
X49153294Y-57410318D01*
X48982179Y-57534641D01*
X48982177Y-57534643D01*
X48982176Y-57534643D01*
X48829643Y-57687176D01*
X48829643Y-57687177D01*
X48829641Y-57687179D01*
X48775186Y-57762129D01*
X48702843Y-57861700D01*
X48604909Y-58053908D01*
X48538245Y-58259077D01*
X48504500Y-58472133D01*
X48504500Y-58687866D01*
X48538245Y-58900922D01*
X48538245Y-58900924D01*
X48538246Y-58900926D01*
X48604908Y-59106089D01*
X48702843Y-59298299D01*
X48829641Y-59472821D01*
X48829643Y-59472823D01*
X48972003Y-59615183D01*
X49005488Y-59676506D01*
X49000504Y-59746198D01*
X48958632Y-59802131D01*
X48936728Y-59815245D01*
X48935885Y-59815637D01*
X48786654Y-59907684D01*
X48662684Y-60031654D01*
X48570643Y-60180875D01*
X48570641Y-60180880D01*
X48515494Y-60347302D01*
X48515493Y-60347309D01*
X48505000Y-60450013D01*
X48505000Y-60870000D01*
X49557291Y-60870000D01*
X49545548Y-60890339D01*
X49505000Y-61041667D01*
X49505000Y-61198333D01*
X49545548Y-61349661D01*
X49557291Y-61370000D01*
X48505001Y-61370000D01*
X48505001Y-61789986D01*
X48515494Y-61892697D01*
X48570641Y-62059119D01*
X48570643Y-62059124D01*
X48662684Y-62208345D01*
X48786654Y-62332315D01*
X48935875Y-62424356D01*
X48935880Y-62424358D01*
X49102302Y-62479505D01*
X49102309Y-62479506D01*
X49205019Y-62489999D01*
X49849999Y-62489999D01*
X49850000Y-62489998D01*
X49850000Y-61662709D01*
X49870339Y-61674452D01*
X50021667Y-61715000D01*
X50178333Y-61715000D01*
X50329661Y-61674452D01*
X50350000Y-61662709D01*
X50350000Y-62489999D01*
X50994972Y-62489999D01*
X50994986Y-62489998D01*
X51097697Y-62479505D01*
X51264119Y-62424358D01*
X51264124Y-62424356D01*
X51413345Y-62332315D01*
X51537315Y-62208345D01*
X51629356Y-62059124D01*
X51629358Y-62059119D01*
X51684505Y-61892697D01*
X51684506Y-61892690D01*
X51694999Y-61789986D01*
X51695000Y-61789973D01*
X51695000Y-61370000D01*
X50642709Y-61370000D01*
X50654452Y-61349661D01*
X50695000Y-61198333D01*
X50695000Y-61041667D01*
X50654452Y-60890339D01*
X50642709Y-60870000D01*
X51694999Y-60870000D01*
X51694999Y-60450028D01*
X51694998Y-60450013D01*
X51684505Y-60347302D01*
X51629358Y-60180880D01*
X51629356Y-60180875D01*
X51537315Y-60031654D01*
X51443343Y-59937682D01*
X57000000Y-59937682D01*
X57000000Y-60142317D01*
X57032009Y-60344417D01*
X57095244Y-60539031D01*
X57188141Y-60721350D01*
X57188147Y-60721359D01*
X57220523Y-60765921D01*
X57220524Y-60765922D01*
X57900000Y-60086446D01*
X57900000Y-60092661D01*
X57927259Y-60194394D01*
X57979920Y-60285606D01*
X58054394Y-60360080D01*
X58145606Y-60412741D01*
X58247339Y-60440000D01*
X58253553Y-60440000D01*
X57574076Y-61119474D01*
X57618650Y-61151859D01*
X57800968Y-61244755D01*
X57995582Y-61307990D01*
X58197683Y-61340000D01*
X58402317Y-61340000D01*
X58604417Y-61307990D01*
X58799031Y-61244755D01*
X58981349Y-61151859D01*
X59025921Y-61119474D01*
X58346447Y-60440000D01*
X58352661Y-60440000D01*
X58454394Y-60412741D01*
X58545606Y-60360080D01*
X58620080Y-60285606D01*
X58672741Y-60194394D01*
X58700000Y-60092661D01*
X58700000Y-60086447D01*
X59379474Y-60765921D01*
X59411859Y-60721349D01*
X59504755Y-60539031D01*
X59567990Y-60344417D01*
X59600000Y-60142317D01*
X59600000Y-59937682D01*
X59567990Y-59735582D01*
X59504755Y-59540968D01*
X59411859Y-59358650D01*
X59379474Y-59314077D01*
X59379474Y-59314076D01*
X58700000Y-59993551D01*
X58700000Y-59987339D01*
X58672741Y-59885606D01*
X58620080Y-59794394D01*
X58545606Y-59719920D01*
X58454394Y-59667259D01*
X58352661Y-59640000D01*
X58346446Y-59640000D01*
X59025922Y-58960524D01*
X59025921Y-58960523D01*
X58981359Y-58928147D01*
X58981350Y-58928141D01*
X58799031Y-58835244D01*
X58604417Y-58772009D01*
X58402317Y-58740000D01*
X58197683Y-58740000D01*
X57995582Y-58772009D01*
X57800968Y-58835244D01*
X57618644Y-58928143D01*
X57574077Y-58960523D01*
X57574077Y-58960524D01*
X58253554Y-59640000D01*
X58247339Y-59640000D01*
X58145606Y-59667259D01*
X58054394Y-59719920D01*
X57979920Y-59794394D01*
X57927259Y-59885606D01*
X57900000Y-59987339D01*
X57900000Y-59993553D01*
X57220524Y-59314077D01*
X57220523Y-59314077D01*
X57188143Y-59358644D01*
X57095244Y-59540968D01*
X57032009Y-59735582D01*
X57000000Y-59937682D01*
X51443343Y-59937682D01*
X51413345Y-59907684D01*
X51264118Y-59815640D01*
X51263277Y-59815248D01*
X51262796Y-59814824D01*
X51257975Y-59811851D01*
X51258483Y-59811027D01*
X51210836Y-59769078D01*
X51191681Y-59701885D01*
X51211894Y-59635003D01*
X51227987Y-59615192D01*
X51370359Y-59472821D01*
X51497157Y-59298299D01*
X51595092Y-59106089D01*
X51661754Y-58900926D01*
X51681660Y-58775244D01*
X51695500Y-58687866D01*
X51695500Y-58472133D01*
X51661754Y-58259077D01*
X51661754Y-58259074D01*
X51595092Y-58053911D01*
X51497157Y-57861701D01*
X51370359Y-57687179D01*
X51217821Y-57534641D01*
X51046704Y-57410317D01*
X51030040Y-57388706D01*
X51010746Y-57369404D01*
X51009015Y-57361440D01*
X51004040Y-57354988D01*
X51001704Y-57327798D01*
X50995909Y-57301128D01*
X50998758Y-57293493D01*
X50998061Y-57285374D01*
X51010798Y-57261234D01*
X51020340Y-57235669D01*
X51028566Y-57227560D01*
X51030667Y-57223580D01*
X51045302Y-57210717D01*
X51046005Y-57210190D01*
X51217821Y-57085359D01*
X51232642Y-57070537D01*
X51239753Y-57065217D01*
X51264503Y-57055991D01*
X51287684Y-57043334D01*
X51302830Y-57041705D01*
X51305222Y-57040814D01*
X51307172Y-57041238D01*
X51314042Y-57040500D01*
X57398542Y-57040500D01*
X57426251Y-57034987D01*
X57495188Y-57021275D01*
X57591836Y-57002051D01*
X57652420Y-56976956D01*
X57773914Y-56926632D01*
X57937782Y-56817139D01*
X58077139Y-56677782D01*
X58077139Y-56677780D01*
X58087347Y-56667573D01*
X58087349Y-56667570D01*
X58388203Y-56366715D01*
X58449524Y-56333232D01*
X58456473Y-56331927D01*
X58604534Y-56308477D01*
X58799219Y-56245220D01*
X58981610Y-56152287D01*
X59074590Y-56084732D01*
X59147213Y-56031971D01*
X59147215Y-56031968D01*
X59147219Y-56031966D01*
X59291966Y-55887219D01*
X59291968Y-55887215D01*
X59291971Y-55887213D01*
X59382783Y-55762219D01*
X59412287Y-55721610D01*
X59505220Y-55539219D01*
X59568477Y-55344534D01*
X59600500Y-55142352D01*
X59600500Y-54937648D01*
X59568477Y-54735466D01*
X59558649Y-54705220D01*
X59505218Y-54540776D01*
X59471503Y-54474607D01*
X59412287Y-54358390D01*
X59404167Y-54347213D01*
X59291971Y-54192786D01*
X59147213Y-54048028D01*
X58981613Y-53927715D01*
X58981612Y-53927714D01*
X58981610Y-53927713D01*
X58924653Y-53898691D01*
X58799223Y-53834781D01*
X58604534Y-53771522D01*
X58429995Y-53743878D01*
X58402352Y-53739500D01*
X58197648Y-53739500D01*
X58173329Y-53743351D01*
X57995465Y-53771522D01*
X57800776Y-53834781D01*
X57618386Y-53927715D01*
X57452786Y-54048028D01*
X57308028Y-54192786D01*
X57187715Y-54358386D01*
X57094781Y-54540778D01*
X57031522Y-54735468D01*
X57008073Y-54883514D01*
X56998956Y-54902744D01*
X56994433Y-54923540D01*
X56979883Y-54942976D01*
X56978143Y-54946649D01*
X56973283Y-54951795D01*
X56921900Y-55003180D01*
X56860577Y-55036666D01*
X56834217Y-55039500D01*
X52814782Y-55039500D01*
X52747743Y-55019815D01*
X52701988Y-54967011D01*
X52692044Y-54897853D01*
X52721069Y-54834297D01*
X52727101Y-54827819D01*
X53062954Y-54491966D01*
X54137778Y-53417141D01*
X54137782Y-53417139D01*
X54277139Y-53277782D01*
X54386632Y-53113914D01*
X54405453Y-53068477D01*
X54444379Y-52974499D01*
X54462051Y-52931835D01*
X54465940Y-52912287D01*
X54470162Y-52891061D01*
X54491219Y-52785201D01*
X54491219Y-52785194D01*
X54492618Y-52778164D01*
X54500500Y-52738541D01*
X54500500Y-52670745D01*
X54500906Y-52665739D01*
X54511699Y-52637618D01*
X54520185Y-52608722D01*
X54524165Y-52602899D01*
X54612287Y-52481610D01*
X54705220Y-52299219D01*
X54768477Y-52104534D01*
X54800500Y-51902352D01*
X54800500Y-51697648D01*
X57199500Y-51697648D01*
X57199500Y-51902351D01*
X57231522Y-52104534D01*
X57294781Y-52299223D01*
X57339870Y-52387713D01*
X57366099Y-52439191D01*
X57387715Y-52481613D01*
X57508028Y-52647213D01*
X57652786Y-52791971D01*
X57807749Y-52904556D01*
X57818390Y-52912287D01*
X57934607Y-52971503D01*
X58000776Y-53005218D01*
X58000778Y-53005218D01*
X58000781Y-53005220D01*
X58105137Y-53039127D01*
X58195465Y-53068477D01*
X58254448Y-53077819D01*
X58397648Y-53100500D01*
X58397649Y-53100500D01*
X58602351Y-53100500D01*
X58602352Y-53100500D01*
X58804534Y-53068477D01*
X58999219Y-53005220D01*
X59181610Y-52912287D01*
X59302877Y-52824181D01*
X59368683Y-52800702D01*
X59375762Y-52800500D01*
X61970193Y-52800500D01*
X62037232Y-52820185D01*
X62050731Y-52830215D01*
X62052788Y-52831972D01*
X62190240Y-52931835D01*
X62218390Y-52952287D01*
X62313555Y-53000776D01*
X62400776Y-53045218D01*
X62400778Y-53045218D01*
X62400781Y-53045220D01*
X62430678Y-53054934D01*
X62595465Y-53108477D01*
X62629793Y-53113914D01*
X62797648Y-53140500D01*
X62797649Y-53140500D01*
X63002351Y-53140500D01*
X63002352Y-53140500D01*
X63204534Y-53108477D01*
X63399219Y-53045220D01*
X63581610Y-52952287D01*
X63717810Y-52853333D01*
X63747213Y-52831971D01*
X63747215Y-52831968D01*
X63747219Y-52831966D01*
X63891966Y-52687219D01*
X63891968Y-52687215D01*
X63891971Y-52687213D01*
X63953245Y-52602875D01*
X64012287Y-52521610D01*
X64105220Y-52339219D01*
X64168477Y-52144534D01*
X64200500Y-51942352D01*
X64200500Y-51737648D01*
X64186577Y-51649740D01*
X64168477Y-51535465D01*
X64105218Y-51340776D01*
X64034573Y-51202129D01*
X64012287Y-51158390D01*
X63983223Y-51118386D01*
X63891971Y-50992786D01*
X63747213Y-50848028D01*
X63581613Y-50727715D01*
X63581612Y-50727714D01*
X63581610Y-50727713D01*
X63503106Y-50687713D01*
X63399223Y-50634781D01*
X63204534Y-50571522D01*
X63029995Y-50543878D01*
X63002352Y-50539500D01*
X62797648Y-50539500D01*
X62773329Y-50543351D01*
X62595465Y-50571522D01*
X62400776Y-50634781D01*
X62218386Y-50727715D01*
X62152178Y-50775818D01*
X62086372Y-50799298D01*
X62079293Y-50799500D01*
X59375762Y-50799500D01*
X59308723Y-50779815D01*
X59302877Y-50775818D01*
X59275474Y-50755909D01*
X59181610Y-50687713D01*
X59124653Y-50658691D01*
X58999223Y-50594781D01*
X58804534Y-50531522D01*
X58629995Y-50503878D01*
X58602352Y-50499500D01*
X58397648Y-50499500D01*
X58373329Y-50503351D01*
X58195465Y-50531522D01*
X58000776Y-50594781D01*
X57818386Y-50687715D01*
X57652786Y-50808028D01*
X57508028Y-50952786D01*
X57387715Y-51118386D01*
X57294781Y-51300776D01*
X57231522Y-51495465D01*
X57199500Y-51697648D01*
X54800500Y-51697648D01*
X54787160Y-51613421D01*
X54768477Y-51495465D01*
X54716929Y-51336819D01*
X54705220Y-51300781D01*
X54705218Y-51300778D01*
X54705218Y-51300776D01*
X54654954Y-51202129D01*
X54612287Y-51118390D01*
X54531846Y-51007671D01*
X54491971Y-50952786D01*
X54347213Y-50808028D01*
X54181613Y-50687715D01*
X54181612Y-50687714D01*
X54181610Y-50687713D01*
X54124653Y-50658691D01*
X53999223Y-50594781D01*
X53804534Y-50531522D01*
X53629995Y-50503878D01*
X53602352Y-50499500D01*
X53397648Y-50499500D01*
X53373329Y-50503351D01*
X53195465Y-50531522D01*
X53000776Y-50594781D01*
X52818386Y-50687715D01*
X52652786Y-50808028D01*
X52508028Y-50952786D01*
X52387715Y-51118386D01*
X52294781Y-51300776D01*
X52231522Y-51495465D01*
X52199500Y-51697648D01*
X52199500Y-51902351D01*
X52231522Y-52104534D01*
X52294782Y-52299225D01*
X52298123Y-52305781D01*
X52311020Y-52374450D01*
X52284744Y-52439191D01*
X52275320Y-52449758D01*
X50091899Y-54633181D01*
X50030576Y-54666666D01*
X50004218Y-54669500D01*
X49767134Y-54669500D01*
X49554077Y-54703245D01*
X49348908Y-54769909D01*
X49156700Y-54867843D01*
X49108664Y-54902744D01*
X48982179Y-54994641D01*
X48982177Y-54994643D01*
X48982176Y-54994643D01*
X48829643Y-55147176D01*
X48829643Y-55147177D01*
X48829641Y-55147179D01*
X48775186Y-55222129D01*
X48702843Y-55321700D01*
X48604909Y-55513908D01*
X48538245Y-55719077D01*
X48504500Y-55932133D01*
X44600500Y-55932133D01*
X44600500Y-47024500D01*
X44620185Y-46957461D01*
X44672989Y-46911706D01*
X44724500Y-46900500D01*
X141975500Y-46900500D01*
X142042539Y-46920185D01*
G37*
%TD.AperFunction*%
%TD*%
M02*
