%TF.GenerationSoftware,KiCad,Pcbnew,9.0.0*%
%TF.CreationDate,2026-01-13T09:09:24+00:00*%
%TF.ProjectId,GuitarMixer,47756974-6172-44d6-9978-65722e6b6963,V1.2*%
%TF.SameCoordinates,Original*%
%TF.FileFunction,Copper,L2,Bot*%
%TF.FilePolarity,Positive*%
%FSLAX46Y46*%
G04 Gerber Fmt 4.6, Leading zero omitted, Abs format (unit mm)*
G04 Created by KiCad (PCBNEW 9.0.0) date 2026-01-13 09:09:24*
%MOMM*%
%LPD*%
G01*
G04 APERTURE LIST*
G04 Aperture macros list*
%AMRoundRect*
0 Rectangle with rounded corners*
0 $1 Rounding radius*
0 $2 $3 $4 $5 $6 $7 $8 $9 X,Y pos of 4 corners*
0 Add a 4 corners polygon primitive as box body*
4,1,4,$2,$3,$4,$5,$6,$7,$8,$9,$2,$3,0*
0 Add four circle primitives for the rounded corners*
1,1,$1+$1,$2,$3*
1,1,$1+$1,$4,$5*
1,1,$1+$1,$6,$7*
1,1,$1+$1,$8,$9*
0 Add four rect primitives between the rounded corners*
20,1,$1+$1,$2,$3,$4,$5,0*
20,1,$1+$1,$4,$5,$6,$7,0*
20,1,$1+$1,$6,$7,$8,$9,0*
20,1,$1+$1,$8,$9,$2,$3,0*%
G04 Aperture macros list end*
%TA.AperFunction,ComponentPad*%
%ADD10C,1.600000*%
%TD*%
%TA.AperFunction,ComponentPad*%
%ADD11O,1.600000X1.600000*%
%TD*%
%TA.AperFunction,ComponentPad*%
%ADD12R,1.600000X1.600000*%
%TD*%
%TA.AperFunction,ComponentPad*%
%ADD13RoundRect,0.250000X-0.620000X-0.845000X0.620000X-0.845000X0.620000X0.845000X-0.620000X0.845000X0*%
%TD*%
%TA.AperFunction,ComponentPad*%
%ADD14O,1.740000X2.190000*%
%TD*%
%TA.AperFunction,ComponentPad*%
%ADD15RoundRect,0.250000X0.845000X-0.620000X0.845000X0.620000X-0.845000X0.620000X-0.845000X-0.620000X0*%
%TD*%
%TA.AperFunction,ComponentPad*%
%ADD16O,2.190000X1.740000*%
%TD*%
%TA.AperFunction,ComponentPad*%
%ADD17R,1.800000X1.100000*%
%TD*%
%TA.AperFunction,ComponentPad*%
%ADD18RoundRect,0.275000X0.625000X-0.275000X0.625000X0.275000X-0.625000X0.275000X-0.625000X-0.275000X0*%
%TD*%
%TA.AperFunction,ComponentPad*%
%ADD19RoundRect,0.250000X-0.845000X0.620000X-0.845000X-0.620000X0.845000X-0.620000X0.845000X0.620000X0*%
%TD*%
%TA.AperFunction,ComponentPad*%
%ADD20O,2.500000X2.000000*%
%TD*%
%TA.AperFunction,ComponentPad*%
%ADD21RoundRect,0.250000X-0.550000X-0.550000X0.550000X-0.550000X0.550000X0.550000X-0.550000X0.550000X0*%
%TD*%
%TA.AperFunction,ComponentPad*%
%ADD22R,2.200000X2.200000*%
%TD*%
%TA.AperFunction,ComponentPad*%
%ADD23O,2.200000X2.200000*%
%TD*%
%TA.AperFunction,ComponentPad*%
%ADD24RoundRect,0.250000X0.620000X0.845000X-0.620000X0.845000X-0.620000X-0.845000X0.620000X-0.845000X0*%
%TD*%
%TA.AperFunction,Conductor*%
%ADD25C,1.000000*%
%TD*%
G04 APERTURE END LIST*
D10*
%TO.P,R3,1*%
%TO.N,Net-(J6-Pin_1)*%
X161800000Y-68700000D03*
D11*
%TO.P,R3,2*%
%TO.N,Net-(C2-Pad2)*%
X161800000Y-58540000D03*
%TD*%
D10*
%TO.P,R5,1*%
%TO.N,+4V*%
X171080000Y-93500000D03*
D11*
%TO.P,R5,2*%
%TO.N,+9VA*%
X160920000Y-93500000D03*
%TD*%
D10*
%TO.P,C1,1*%
%TO.N,Net-(U2A--)*%
X147600000Y-64900000D03*
%TO.P,C1,2*%
%TO.N,Net-(C1-Pad2)*%
X147600000Y-59900000D03*
%TD*%
%TO.P,C2,1*%
%TO.N,Net-(J6-Pin_1)*%
X165400000Y-68700000D03*
%TO.P,C2,2*%
%TO.N,Net-(C2-Pad2)*%
X165400000Y-63700000D03*
%TD*%
D12*
%TO.P,C5,1*%
%TO.N,+4V*%
X155900000Y-89200000D03*
D10*
%TO.P,C5,2*%
%TO.N,Earth*%
X155900000Y-91200000D03*
%TD*%
D12*
%TO.P,C3,1*%
%TO.N,Net-(C2-Pad2)*%
X171500000Y-74300000D03*
D10*
%TO.P,C3,2*%
%TO.N,Net-(J5-Pin_2)*%
X171500000Y-76300000D03*
%TD*%
%TO.P,R201,1*%
%TO.N,Net-(C202-Pad2)*%
X108520000Y-94800000D03*
D11*
%TO.P,R201,2*%
%TO.N,Earth*%
X118680000Y-94800000D03*
%TD*%
D12*
%TO.P,C4,1*%
%TO.N,+9VA*%
X155900000Y-95200000D03*
D10*
%TO.P,C4,2*%
%TO.N,Earth*%
X155900000Y-97200000D03*
%TD*%
D13*
%TO.P,J3,1,Pin_1*%
%TO.N,Earth*%
X135220000Y-94900000D03*
D14*
%TO.P,J3,2,Pin_2*%
%TO.N,Net-(J3-Pin_2)*%
X137760000Y-94900000D03*
%TO.P,J3,3,Pin_3*%
%TO.N,Net-(J3-Pin_3)*%
X140300000Y-94900000D03*
%TD*%
D10*
%TO.P,C102,1*%
%TO.N,Net-(J1-Pin_3)*%
X114200000Y-64800000D03*
%TO.P,C102,2*%
%TO.N,Net-(Q1-G)*%
X119200000Y-64800000D03*
%TD*%
%TO.P,R204,1*%
%TO.N,Net-(U1B-+)*%
X123100000Y-99380000D03*
D11*
%TO.P,R204,2*%
%TO.N,+9VA*%
X123100000Y-89220000D03*
%TD*%
D10*
%TO.P,C205,1*%
%TO.N,Net-(C204-Pad2)*%
X145200000Y-91500000D03*
%TO.P,C205,2*%
%TO.N,Net-(J3-Pin_3)*%
X145200000Y-96500000D03*
%TD*%
%TO.P,R107,1*%
%TO.N,Net-(U1A--)*%
X126900000Y-79160000D03*
D11*
%TO.P,R107,2*%
%TO.N,Net-(C104-Pad2)*%
X126900000Y-69000000D03*
%TD*%
D15*
%TO.P,J1,1,Pin_1*%
%TO.N,Earth*%
X107320000Y-72740000D03*
D16*
%TO.P,J1,2,Pin_2*%
%TO.N,Net-(J1-Pin_2)*%
X107320000Y-70200000D03*
%TO.P,J1,3,Pin_3*%
%TO.N,Net-(J1-Pin_3)*%
X107320000Y-67660000D03*
%TD*%
D10*
%TO.P,R1,1*%
%TO.N,Net-(U2A--)*%
X144200000Y-67500000D03*
D11*
%TO.P,R1,2*%
%TO.N,Net-(C1-Pad2)*%
X144200000Y-57340000D03*
%TD*%
D10*
%TO.P,R108,1*%
%TO.N,Net-(J2-Pin_2)*%
X130700000Y-93100000D03*
D11*
%TO.P,R108,2*%
%TO.N,Net-(U2A--)*%
X130700000Y-103260000D03*
%TD*%
D10*
%TO.P,C203,1*%
%TO.N,Net-(C202-Pad2)*%
X114880000Y-90700000D03*
%TO.P,C203,2*%
%TO.N,Net-(U1B-+)*%
X119880000Y-90700000D03*
%TD*%
D13*
%TO.P,J2,1,Pin_1*%
%TO.N,Earth*%
X135260000Y-85100000D03*
D14*
%TO.P,J2,2,Pin_2*%
%TO.N,Net-(J2-Pin_2)*%
X137800000Y-85100000D03*
%TO.P,J2,3,Pin_3*%
%TO.N,Net-(J2-Pin_3)*%
X140340000Y-85100000D03*
%TD*%
D10*
%TO.P,C105,1*%
%TO.N,Net-(C104-Pad2)*%
X145200000Y-83300000D03*
%TO.P,C105,2*%
%TO.N,Net-(J2-Pin_3)*%
X145200000Y-88300000D03*
%TD*%
%TO.P,R102,1*%
%TO.N,Net-(Q1-S)*%
X124980000Y-59000000D03*
D11*
%TO.P,R102,2*%
%TO.N,Earth*%
X114820000Y-59000000D03*
%TD*%
D17*
%TO.P,Q1,1,S*%
%TO.N,Net-(Q1-S)*%
X125200000Y-65640000D03*
D18*
%TO.P,Q1,2,D*%
%TO.N,+9VA*%
X123130000Y-64370000D03*
%TO.P,Q1,3,G*%
%TO.N,Net-(Q1-G)*%
X125200000Y-63100000D03*
%TD*%
D10*
%TO.P,R2,1*%
%TO.N,Net-(J6-Pin_3)*%
X155500000Y-81360000D03*
D11*
%TO.P,R2,2*%
%TO.N,Net-(C1-Pad2)*%
X155500000Y-71200000D03*
%TD*%
D10*
%TO.P,R208,1*%
%TO.N,Net-(J3-Pin_2)*%
X144880000Y-102800000D03*
D11*
%TO.P,R208,2*%
%TO.N,Net-(U2A--)*%
X134720000Y-102800000D03*
%TD*%
D10*
%TO.P,R1011,1*%
%TO.N,Net-(Q1-G)*%
X119200000Y-69000000D03*
D11*
%TO.P,R1011,2*%
%TO.N,Net-(SW1-B)*%
X119200000Y-79160000D03*
%TD*%
D10*
%TO.P,R103,1*%
%TO.N,Net-(C103-Pad2)*%
X130140000Y-66100000D03*
D11*
%TO.P,R103,2*%
%TO.N,Net-(U1A-+)*%
X140300000Y-66100000D03*
%TD*%
D19*
%TO.P,J5,1,Pin_1*%
%TO.N,Earth*%
X170600000Y-82500000D03*
D16*
%TO.P,J5,2,Pin_2*%
%TO.N,Net-(J5-Pin_2)*%
X170600000Y-85040000D03*
%TD*%
D19*
%TO.P,J6,1,Pin_1*%
%TO.N,Net-(J6-Pin_1)*%
X163700000Y-72400000D03*
D16*
%TO.P,J6,2,Pin_2*%
X163700000Y-74940000D03*
%TO.P,J6,3,Pin_3*%
%TO.N,Net-(J6-Pin_3)*%
X163700000Y-77480000D03*
%TD*%
D10*
%TO.P,R207,1*%
%TO.N,Net-(U1B--)*%
X145700000Y-80160000D03*
D11*
%TO.P,R207,2*%
%TO.N,Net-(C204-Pad2)*%
X145700000Y-70000000D03*
%TD*%
D10*
%TO.P,C103,1*%
%TO.N,Net-(Q1-S)*%
X132720000Y-59000000D03*
%TO.P,C103,2*%
%TO.N,Net-(C103-Pad2)*%
X137720000Y-59000000D03*
%TD*%
D20*
%TO.P,SW1,1,A*%
%TO.N,Earth*%
X111500000Y-84900000D03*
%TO.P,SW1,2,B*%
%TO.N,Net-(SW1-B)*%
X114500000Y-84900000D03*
%TO.P,SW1,3*%
%TO.N,N/C*%
X117500000Y-84900000D03*
%TD*%
D10*
%TO.P,C204,1*%
%TO.N,Net-(U1B--)*%
X149800000Y-77900000D03*
%TO.P,C204,2*%
%TO.N,Net-(C204-Pad2)*%
X149800000Y-72900000D03*
%TD*%
D21*
%TO.P,U2,1*%
%TO.N,Net-(C1-Pad2)*%
X150580000Y-59600000D03*
D10*
%TO.P,U2,2,-*%
%TO.N,Net-(U2A--)*%
X150580000Y-62140000D03*
%TO.P,U2,3,+*%
%TO.N,+4V*%
X150580000Y-64680000D03*
%TO.P,U2,4,V-*%
%TO.N,Earth*%
X150580000Y-67220000D03*
%TO.P,U2,5,+*%
%TO.N,+4V*%
X158200000Y-67220000D03*
%TO.P,U2,6,-*%
%TO.N,Net-(J6-Pin_1)*%
X158200000Y-64680000D03*
%TO.P,U2,7*%
%TO.N,Net-(C2-Pad2)*%
X158200000Y-62140000D03*
%TO.P,U2,8,V+*%
%TO.N,+9VA*%
X158200000Y-59600000D03*
%TD*%
%TO.P,R1012,1*%
%TO.N,Net-(SW1-B)*%
X115900000Y-78300000D03*
D11*
%TO.P,R1012,2*%
%TO.N,Earth*%
X105740000Y-78300000D03*
%TD*%
D10*
%TO.P,R206,1*%
%TO.N,Net-(U1B--)*%
X149700000Y-80800000D03*
D11*
%TO.P,R206,2*%
%TO.N,Earth*%
X149700000Y-90960000D03*
%TD*%
D22*
%TO.P,D1,1,K*%
%TO.N,+9VA*%
X160920000Y-89800000D03*
D23*
%TO.P,D1,2,A*%
%TO.N,+9V*%
X171080000Y-89800000D03*
%TD*%
D21*
%TO.P,U1,1*%
%TO.N,Net-(C104-Pad2)*%
X134600000Y-71200000D03*
D10*
%TO.P,U1,2,-*%
%TO.N,Net-(U1A--)*%
X134600000Y-73740000D03*
%TO.P,U1,3,+*%
%TO.N,Net-(U1A-+)*%
X134600000Y-76280000D03*
%TO.P,U1,4,V-*%
%TO.N,Earth*%
X134600000Y-78820000D03*
%TO.P,U1,5,+*%
%TO.N,Net-(U1B-+)*%
X142220000Y-78820000D03*
%TO.P,U1,6,-*%
%TO.N,Net-(U1B--)*%
X142220000Y-76280000D03*
%TO.P,U1,7*%
%TO.N,Net-(C204-Pad2)*%
X142220000Y-73740000D03*
%TO.P,U1,8,V+*%
%TO.N,+9VA*%
X142220000Y-71200000D03*
%TD*%
%TO.P,R6,1*%
%TO.N,Earth*%
X160920000Y-97400000D03*
D11*
%TO.P,R6,2*%
%TO.N,+4V*%
X171080000Y-97400000D03*
%TD*%
D24*
%TO.P,J4,1,Pin_1*%
%TO.N,Earth*%
X157370000Y-104080000D03*
D14*
%TO.P,J4,2,Pin_2*%
%TO.N,+9V*%
X154830000Y-104080000D03*
%TD*%
D10*
%TO.P,R104,1*%
%TO.N,Net-(U1A-+)*%
X123100000Y-79160000D03*
D11*
%TO.P,R104,2*%
%TO.N,+9VA*%
X123100000Y-69000000D03*
%TD*%
D10*
%TO.P,R205,1*%
%TO.N,Earth*%
X108520000Y-98600000D03*
D11*
%TO.P,R205,2*%
%TO.N,Net-(U1B-+)*%
X118680000Y-98600000D03*
%TD*%
D10*
%TO.P,R105,1*%
%TO.N,Earth*%
X130700000Y-90260000D03*
D11*
%TO.P,R105,2*%
%TO.N,Net-(U1A-+)*%
X130700000Y-80100000D03*
%TD*%
D10*
%TO.P,R106,1*%
%TO.N,Net-(U1A--)*%
X126900000Y-82500000D03*
D11*
%TO.P,R106,2*%
%TO.N,Earth*%
X126900000Y-92660000D03*
%TD*%
D10*
%TO.P,C104,1*%
%TO.N,Net-(U1A--)*%
X130600000Y-76900000D03*
%TO.P,C104,2*%
%TO.N,Net-(C104-Pad2)*%
X130600000Y-71900000D03*
%TD*%
%TO.P,C101,1*%
%TO.N,Net-(J1-Pin_3)*%
X114400000Y-69300000D03*
%TO.P,C101,2*%
%TO.N,Earth*%
X114400000Y-74300000D03*
%TD*%
%TO.P,C202,1*%
%TO.N,Net-(J1-Pin_2)*%
X106080000Y-90700000D03*
%TO.P,C202,2*%
%TO.N,Net-(C202-Pad2)*%
X111080000Y-90700000D03*
%TD*%
%TO.P,R4,1*%
%TO.N,Earth*%
X153620000Y-84700000D03*
D11*
%TO.P,R4,2*%
%TO.N,Net-(J5-Pin_2)*%
X163780000Y-84700000D03*
%TD*%
D25*
%TO.N,Net-(C1-Pad2)*%
X155500000Y-63720000D02*
X155500000Y-71200000D01*
X144200000Y-57340000D02*
X145040000Y-57340000D01*
X151380000Y-59600000D02*
X155500000Y-63720000D01*
X145040000Y-57340000D02*
X147600000Y-59900000D01*
X147600000Y-59900000D02*
X147900000Y-59600000D01*
X147900000Y-59600000D02*
X150580000Y-59600000D01*
X150580000Y-59600000D02*
X151380000Y-59600000D01*
%TO.N,Net-(U2A--)*%
X134260000Y-103260000D02*
X134720000Y-102800000D01*
X130700000Y-103260000D02*
X134260000Y-103260000D01*
%TO.N,Net-(J6-Pin_1)*%
X159331370Y-64680000D02*
X158200000Y-64680000D01*
X165400000Y-70700000D02*
X163700000Y-72400000D01*
X161800000Y-67148630D02*
X159331370Y-64680000D01*
X163700000Y-72400000D02*
X163700000Y-74940000D01*
X161800000Y-68700000D02*
X165400000Y-68700000D01*
X161800000Y-68700000D02*
X161800000Y-67148630D01*
X165400000Y-68700000D02*
X165400000Y-70700000D01*
%TO.N,Net-(C2-Pad2)*%
X159360000Y-62140000D02*
X158200000Y-62140000D01*
X161800000Y-58540000D02*
X161800000Y-60100000D01*
X165400000Y-63700000D02*
X171500000Y-69800000D01*
X161800000Y-58540000D02*
X161800000Y-59700000D01*
X171500000Y-69800000D02*
X171500000Y-73999000D01*
X161800000Y-59700000D02*
X159360000Y-62140000D01*
X161800000Y-60100000D02*
X165400000Y-63700000D01*
%TO.N,Net-(J5-Pin_2)*%
X170260000Y-84700000D02*
X170600000Y-85040000D01*
X163780000Y-84700000D02*
X171500000Y-76980000D01*
X171500000Y-76980000D02*
X171500000Y-76300000D01*
X163780000Y-84700000D02*
X170260000Y-84700000D01*
%TO.N,+9VA*%
X154139000Y-55539000D02*
X143454001Y-55539000D01*
X158200000Y-59600000D02*
X154139000Y-55539000D01*
X142220000Y-56773001D02*
X142220000Y-71200000D01*
X143454001Y-55539000D02*
X142220000Y-56773001D01*
%TO.N,Earth*%
X129300000Y-90260000D02*
X130700000Y-90260000D01*
X117181000Y-93301000D02*
X117181000Y-89746894D01*
X126900000Y-92660000D02*
X126800000Y-92760000D01*
X149700000Y-101234106D02*
X153433106Y-97501000D01*
X116700000Y-60880000D02*
X116700000Y-72000000D01*
X149700000Y-101234106D02*
X149700000Y-90960000D01*
X108880000Y-74300000D02*
X107320000Y-72740000D01*
X105740000Y-78300000D02*
X105740000Y-79140000D01*
X171695000Y-82500000D02*
X174400000Y-85205000D01*
X152101000Y-68741000D02*
X152101000Y-83181000D01*
X107320000Y-76720000D02*
X105740000Y-78300000D01*
X131831370Y-90260000D02*
X135220000Y-93648630D01*
X174400000Y-97334106D02*
X167654106Y-104080000D01*
X157370000Y-104080000D02*
X157370000Y-98971000D01*
X114400000Y-74300000D02*
X108880000Y-74300000D01*
X111500000Y-85700000D02*
X111500000Y-84900000D01*
X126800000Y-105500000D02*
X128800000Y-107500000D01*
X126900000Y-92660000D02*
X129300000Y-90260000D01*
X108520000Y-98600000D02*
X114880000Y-98600000D01*
X117420000Y-107500000D02*
X128800000Y-107500000D01*
X135220000Y-93648630D02*
X135220000Y-94900000D01*
X152101000Y-83181000D02*
X153620000Y-84700000D01*
X130700000Y-90260000D02*
X130700000Y-89660000D01*
X116700000Y-72000000D02*
X114400000Y-74300000D01*
X107320000Y-72740000D02*
X107320000Y-76720000D01*
X150241000Y-91501000D02*
X155900000Y-91501000D01*
X170600000Y-82500000D02*
X171695000Y-82500000D01*
X126800000Y-92760000D02*
X126800000Y-105500000D01*
X114835106Y-87401000D02*
X113201000Y-87401000D01*
X167654106Y-104080000D02*
X157370000Y-104080000D01*
X113201000Y-87401000D02*
X111500000Y-85700000D01*
X149700000Y-90960000D02*
X150241000Y-91501000D01*
X156349500Y-97950500D02*
X155900000Y-97501000D01*
X149700000Y-90960000D02*
X149700000Y-88620000D01*
X128800000Y-107500000D02*
X143434106Y-107500000D01*
X153433106Y-97501000D02*
X155900000Y-97501000D01*
X130700000Y-90260000D02*
X131831370Y-90260000D01*
X174400000Y-85205000D02*
X174400000Y-97334106D01*
X117181000Y-89746894D02*
X114835106Y-87401000D01*
X160920000Y-97400000D02*
X160369500Y-97950500D01*
X118680000Y-94800000D02*
X117181000Y-93301000D01*
X108520000Y-98600000D02*
X117420000Y-107500000D01*
X114880000Y-98600000D02*
X118680000Y-94800000D01*
X114820000Y-59000000D02*
X116700000Y-60880000D01*
X149700000Y-88620000D02*
X153620000Y-84700000D01*
X160369500Y-97950500D02*
X156349500Y-97950500D01*
X130700000Y-89660000D02*
X135260000Y-85100000D01*
X105740000Y-79140000D02*
X111500000Y-84900000D01*
X157370000Y-98971000D02*
X156349500Y-97950500D01*
X150580000Y-67220000D02*
X152101000Y-68741000D01*
X143434106Y-107500000D02*
X149700000Y-101234106D01*
%TO.N,+4V*%
X171080000Y-93500000D02*
X171080000Y-97400000D01*
X157401000Y-87699000D02*
X155900000Y-89200000D01*
X171080000Y-93500000D02*
X165279000Y-87699000D01*
X165279000Y-87699000D02*
X157401000Y-87699000D01*
%TO.N,Net-(J1-Pin_3)*%
X110180000Y-64800000D02*
X107320000Y-67660000D01*
X112760000Y-67660000D02*
X107320000Y-67660000D01*
X114200000Y-64800000D02*
X110180000Y-64800000D01*
X114400000Y-69300000D02*
X112760000Y-67660000D01*
%TO.N,Net-(Q1-G)*%
X119200000Y-69000000D02*
X119200000Y-64800000D01*
X124379264Y-62200000D02*
X125039632Y-62860368D01*
X121800000Y-62200000D02*
X124379264Y-62200000D01*
X119200000Y-64800000D02*
X121800000Y-62200000D01*
%TO.N,Net-(Q1-S)*%
X127601000Y-64399000D02*
X126120368Y-65879632D01*
X127601000Y-61621000D02*
X127601000Y-64399000D01*
X126120368Y-65879632D02*
X125039632Y-65879632D01*
X124980000Y-59000000D02*
X132720000Y-59000000D01*
X124980000Y-59000000D02*
X127601000Y-61621000D01*
%TO.N,Net-(C103-Pad2)*%
X137720000Y-59000000D02*
X130620000Y-66100000D01*
X130620000Y-66100000D02*
X130140000Y-66100000D01*
%TO.N,Net-(C104-Pad2)*%
X126900000Y-69000000D02*
X127700000Y-69000000D01*
X127700000Y-69000000D02*
X130600000Y-71900000D01*
X131300000Y-71200000D02*
X134600000Y-71200000D01*
X130600000Y-71900000D02*
X131300000Y-71200000D01*
%TO.N,Net-(U1A--)*%
X126900000Y-82500000D02*
X126900000Y-79160000D01*
X128340000Y-79160000D02*
X130600000Y-76900000D01*
X126900000Y-79160000D02*
X128340000Y-79160000D01*
%TO.N,Net-(J1-Pin_2)*%
X103800000Y-71625000D02*
X103800000Y-88420000D01*
X103800000Y-88420000D02*
X106080000Y-90700000D01*
X105225000Y-70200000D02*
X103800000Y-71625000D01*
X107320000Y-70200000D02*
X105225000Y-70200000D01*
%TO.N,Net-(C202-Pad2)*%
X108520000Y-93260000D02*
X111080000Y-90700000D01*
X111080000Y-90700000D02*
X114880000Y-90700000D01*
X108520000Y-94800000D02*
X108520000Y-93260000D01*
%TO.N,Net-(U1B-+)*%
X118680000Y-98600000D02*
X122320000Y-98600000D01*
X137480000Y-78820000D02*
X142220000Y-78820000D01*
X122320000Y-98600000D02*
X123100000Y-99380000D01*
X119880000Y-90700000D02*
X119880000Y-89568630D01*
X125147630Y-84301000D02*
X131999000Y-84301000D01*
X131999000Y-84301000D02*
X137480000Y-78820000D01*
X119880000Y-89568630D02*
X125147630Y-84301000D01*
X120981000Y-91801000D02*
X120981000Y-96299000D01*
X119880000Y-90700000D02*
X120981000Y-91801000D01*
X120981000Y-96299000D02*
X118680000Y-98600000D01*
%TO.N,Net-(C204-Pad2)*%
X142220000Y-73740000D02*
X143351370Y-73740000D01*
X145700000Y-71391370D02*
X145700000Y-70000000D01*
X145700000Y-70000000D02*
X146900000Y-70000000D01*
X146900000Y-70000000D02*
X149800000Y-72900000D01*
X143351370Y-73740000D02*
X145700000Y-71391370D01*
%TO.N,Net-(U1B--)*%
X142951370Y-76280000D02*
X142220000Y-76280000D01*
X145700000Y-80160000D02*
X145700000Y-79028630D01*
X149800000Y-77900000D02*
X149800000Y-80700000D01*
X149800000Y-80700000D02*
X149700000Y-80800000D01*
X146340000Y-80800000D02*
X145700000Y-80160000D01*
X145700000Y-79028630D02*
X142951370Y-76280000D01*
X149700000Y-80800000D02*
X146340000Y-80800000D01*
%TO.N,Net-(J3-Pin_3)*%
X145200000Y-96500000D02*
X141900000Y-96500000D01*
X141900000Y-96500000D02*
X140300000Y-94900000D01*
%TO.N,Net-(J3-Pin_2)*%
X144880000Y-102800000D02*
X143748630Y-102800000D01*
X143748630Y-102800000D02*
X137760000Y-96811370D01*
X137760000Y-96811370D02*
X137760000Y-94900000D01*
%TO.N,Net-(J6-Pin_3)*%
X159820000Y-81360000D02*
X163700000Y-77480000D01*
X155500000Y-81360000D02*
X159820000Y-81360000D01*
%TO.N,Net-(U1A-+)*%
X139500001Y-66899999D02*
X139500001Y-72759999D01*
X139500001Y-72759999D02*
X135980000Y-76280000D01*
X140300000Y-66100000D02*
X139500001Y-66899999D01*
X134600000Y-76280000D02*
X133234106Y-76280000D01*
X133234106Y-76280000D02*
X131454106Y-74500000D01*
X127760000Y-74500000D02*
X123100000Y-79160000D01*
X135980000Y-76280000D02*
X134600000Y-76280000D01*
X134520000Y-76280000D02*
X134600000Y-76280000D01*
X130700000Y-80100000D02*
X134520000Y-76280000D01*
X131454106Y-74500000D02*
X127760000Y-74500000D01*
%TO.N,Net-(SW1-B)*%
X118340000Y-78300000D02*
X119200000Y-79160000D01*
X115900000Y-78300000D02*
X114500000Y-79700000D01*
X115900000Y-78300000D02*
X118340000Y-78300000D01*
X114500000Y-79700000D02*
X114500000Y-84900000D01*
%TD*%
%TA.AperFunction,Conductor*%
%TO.N,Earth*%
G36*
X142445257Y-54920185D02*
G01*
X142491012Y-54972989D01*
X142500956Y-55042147D01*
X142471931Y-55105703D01*
X142465899Y-55112181D01*
X141582221Y-55995859D01*
X141582218Y-55995862D01*
X141512538Y-56065541D01*
X141442859Y-56135220D01*
X141333371Y-56299081D01*
X141333364Y-56299094D01*
X141318071Y-56336015D01*
X141318063Y-56336036D01*
X141316629Y-56339500D01*
X141257949Y-56481165D01*
X141245851Y-56541987D01*
X141244207Y-56550249D01*
X141244207Y-56550251D01*
X141219500Y-56674457D01*
X141219500Y-64917185D01*
X141199815Y-64984224D01*
X141147011Y-65029979D01*
X141077853Y-65039923D01*
X141022616Y-65017504D01*
X140981613Y-64987714D01*
X140799223Y-64894781D01*
X140604534Y-64831522D01*
X140429995Y-64803878D01*
X140402352Y-64799500D01*
X140197648Y-64799500D01*
X140173329Y-64803351D01*
X139995465Y-64831522D01*
X139800776Y-64894781D01*
X139618386Y-64987715D01*
X139452786Y-65108028D01*
X139308028Y-65252786D01*
X139187715Y-65418386D01*
X139094781Y-65600778D01*
X139031522Y-65795468D01*
X139008073Y-65943515D01*
X138998955Y-65962746D01*
X138994432Y-65983542D01*
X138979883Y-66002978D01*
X138978143Y-66006649D01*
X138973282Y-66011797D01*
X138862221Y-66122858D01*
X138862220Y-66122858D01*
X138862219Y-66122859D01*
X138862219Y-66122860D01*
X138816602Y-66168477D01*
X138722860Y-66262218D01*
X138613372Y-66426079D01*
X138613365Y-66426092D01*
X138573813Y-66521582D01*
X138573811Y-66521587D01*
X138571757Y-66526547D01*
X138537950Y-66608163D01*
X138524847Y-66674035D01*
X138523519Y-66680709D01*
X138523517Y-66680717D01*
X138499501Y-66801455D01*
X138499501Y-72294217D01*
X138479816Y-72361256D01*
X138463182Y-72381898D01*
X135601899Y-75243181D01*
X135574971Y-75257884D01*
X135549153Y-75274477D01*
X135542952Y-75275368D01*
X135540576Y-75276666D01*
X135514218Y-75279500D01*
X135475762Y-75279500D01*
X135408723Y-75259815D01*
X135402877Y-75255818D01*
X135281613Y-75167715D01*
X135281612Y-75167714D01*
X135281610Y-75167713D01*
X135188917Y-75120483D01*
X135138123Y-75072511D01*
X135121328Y-75004690D01*
X135143865Y-74938555D01*
X135188917Y-74899516D01*
X135281610Y-74852287D01*
X135309350Y-74832133D01*
X135447213Y-74731971D01*
X135447215Y-74731968D01*
X135447219Y-74731966D01*
X135591966Y-74587219D01*
X135591968Y-74587215D01*
X135591971Y-74587213D01*
X135688468Y-74454394D01*
X135712287Y-74421610D01*
X135805220Y-74239219D01*
X135868477Y-74044534D01*
X135900500Y-73842352D01*
X135900500Y-73637648D01*
X135884709Y-73537947D01*
X135868477Y-73435465D01*
X135810707Y-73257669D01*
X135805220Y-73240781D01*
X135805218Y-73240778D01*
X135805218Y-73240776D01*
X135736147Y-73105218D01*
X135712287Y-73058390D01*
X135693120Y-73032009D01*
X135591971Y-72892786D01*
X135447219Y-72748034D01*
X135446089Y-72747213D01*
X135353547Y-72679978D01*
X135310882Y-72624649D01*
X135304903Y-72555036D01*
X135337508Y-72493240D01*
X135387426Y-72461955D01*
X135469334Y-72434814D01*
X135618656Y-72342712D01*
X135742712Y-72218656D01*
X135834814Y-72069334D01*
X135889999Y-71902797D01*
X135900500Y-71800009D01*
X135900499Y-70599992D01*
X135889999Y-70497203D01*
X135834814Y-70330666D01*
X135742712Y-70181344D01*
X135618656Y-70057288D01*
X135469334Y-69965186D01*
X135302797Y-69910001D01*
X135302795Y-69910000D01*
X135200010Y-69899500D01*
X133999998Y-69899500D01*
X133999981Y-69899501D01*
X133897203Y-69910000D01*
X133897200Y-69910001D01*
X133730668Y-69965185D01*
X133730663Y-69965187D01*
X133581345Y-70057287D01*
X133475450Y-70163182D01*
X133414127Y-70196666D01*
X133387769Y-70199500D01*
X131201456Y-70199500D01*
X131008171Y-70237947D01*
X131008163Y-70237949D01*
X130949977Y-70262051D01*
X130949976Y-70262051D01*
X130826092Y-70313364D01*
X130826079Y-70313371D01*
X130710096Y-70390869D01*
X130710095Y-70390870D01*
X130695317Y-70400745D01*
X130672236Y-70416167D01*
X130605558Y-70437044D01*
X130538178Y-70418559D01*
X130515665Y-70400745D01*
X128484209Y-68369289D01*
X128484206Y-68369285D01*
X128484206Y-68369286D01*
X128477139Y-68362219D01*
X128477139Y-68362218D01*
X128337782Y-68222861D01*
X128337781Y-68222860D01*
X128337780Y-68222859D01*
X128173920Y-68113371D01*
X128173911Y-68113366D01*
X128052154Y-68062933D01*
X128045165Y-68060038D01*
X127991836Y-68037949D01*
X127891611Y-68018013D01*
X127887086Y-68017113D01*
X127887083Y-68017112D01*
X127798543Y-67999500D01*
X127798541Y-67999500D01*
X127775762Y-67999500D01*
X127708723Y-67979815D01*
X127702877Y-67975818D01*
X127661728Y-67945922D01*
X127600379Y-67901349D01*
X127581613Y-67887715D01*
X127581612Y-67887714D01*
X127581610Y-67887713D01*
X127513052Y-67852781D01*
X127399223Y-67794781D01*
X127204534Y-67731522D01*
X127029995Y-67703878D01*
X127002352Y-67699500D01*
X126797648Y-67699500D01*
X126773329Y-67703351D01*
X126595465Y-67731522D01*
X126400776Y-67794781D01*
X126218386Y-67887715D01*
X126052786Y-68008028D01*
X125908028Y-68152786D01*
X125787715Y-68318386D01*
X125694781Y-68500776D01*
X125631522Y-68695465D01*
X125607433Y-68847560D01*
X125599500Y-68897648D01*
X125599500Y-69102352D01*
X125601245Y-69113368D01*
X125631522Y-69304534D01*
X125694781Y-69499223D01*
X125730862Y-69570034D01*
X125783790Y-69673911D01*
X125787715Y-69681613D01*
X125908028Y-69847213D01*
X126052786Y-69991971D01*
X126207749Y-70104556D01*
X126218390Y-70112287D01*
X126318277Y-70163182D01*
X126400776Y-70205218D01*
X126400778Y-70205218D01*
X126400781Y-70205220D01*
X126505137Y-70239127D01*
X126595465Y-70268477D01*
X126696557Y-70284488D01*
X126797648Y-70300500D01*
X126797649Y-70300500D01*
X127002351Y-70300500D01*
X127002352Y-70300500D01*
X127204534Y-70268477D01*
X127395698Y-70206363D01*
X127465535Y-70204369D01*
X127521693Y-70236613D01*
X128436158Y-71151079D01*
X129273281Y-71988202D01*
X129306766Y-72049525D01*
X129308073Y-72056484D01*
X129331522Y-72204531D01*
X129331523Y-72204534D01*
X129394780Y-72399219D01*
X129479883Y-72566243D01*
X129487715Y-72581613D01*
X129608028Y-72747213D01*
X129752786Y-72891971D01*
X129907749Y-73004556D01*
X129918390Y-73012287D01*
X130016124Y-73062085D01*
X130100776Y-73105218D01*
X130100778Y-73105218D01*
X130100781Y-73105220D01*
X130205137Y-73139127D01*
X130295465Y-73168477D01*
X130396557Y-73184488D01*
X130497648Y-73200500D01*
X130497649Y-73200500D01*
X130702351Y-73200500D01*
X130702352Y-73200500D01*
X130904534Y-73168477D01*
X131099219Y-73105220D01*
X131281610Y-73012287D01*
X131381725Y-72939550D01*
X131447213Y-72891971D01*
X131447215Y-72891968D01*
X131447219Y-72891966D01*
X131591966Y-72747219D01*
X131591968Y-72747215D01*
X131591971Y-72747213D01*
X131678792Y-72627712D01*
X131712287Y-72581610D01*
X131805220Y-72399219D01*
X131841948Y-72286182D01*
X131881386Y-72228506D01*
X131945744Y-72201308D01*
X131959879Y-72200500D01*
X133387769Y-72200500D01*
X133454808Y-72220185D01*
X133475450Y-72236818D01*
X133581344Y-72342712D01*
X133730666Y-72434814D01*
X133812570Y-72461954D01*
X133870015Y-72501727D01*
X133896838Y-72566243D01*
X133884523Y-72635018D01*
X133846451Y-72679978D01*
X133752787Y-72748028D01*
X133752782Y-72748032D01*
X133608028Y-72892786D01*
X133487715Y-73058386D01*
X133394781Y-73240776D01*
X133331522Y-73435465D01*
X133299500Y-73637648D01*
X133299500Y-73842351D01*
X133331522Y-74044534D01*
X133394781Y-74239223D01*
X133452582Y-74352661D01*
X133483790Y-74413911D01*
X133487715Y-74421613D01*
X133608028Y-74587213D01*
X133752786Y-74731971D01*
X133890650Y-74832133D01*
X133918390Y-74852287D01*
X134009840Y-74898883D01*
X134011080Y-74899515D01*
X134061876Y-74947490D01*
X134078671Y-75015311D01*
X134056134Y-75081446D01*
X134011080Y-75120485D01*
X133918386Y-75167715D01*
X133797123Y-75255818D01*
X133777078Y-75262970D01*
X133759173Y-75274477D01*
X133735146Y-75277931D01*
X133731317Y-75279298D01*
X133724238Y-75279500D01*
X133699888Y-75279500D01*
X133632849Y-75259815D01*
X133612207Y-75243181D01*
X132235585Y-73866559D01*
X132235565Y-73866537D01*
X132091891Y-73722863D01*
X132091887Y-73722860D01*
X131928026Y-73613371D01*
X131928017Y-73613366D01*
X131851350Y-73581610D01*
X131799271Y-73560038D01*
X131745942Y-73537949D01*
X131745938Y-73537948D01*
X131745934Y-73537946D01*
X131649294Y-73518724D01*
X131552650Y-73499500D01*
X131552647Y-73499500D01*
X127661459Y-73499500D01*
X127661455Y-73499500D01*
X127564812Y-73518724D01*
X127468167Y-73537947D01*
X127468161Y-73537949D01*
X127414834Y-73560037D01*
X127414834Y-73560038D01*
X127369315Y-73578892D01*
X127286089Y-73613366D01*
X127286079Y-73613371D01*
X127122219Y-73722859D01*
X127085976Y-73759103D01*
X126982861Y-73862218D01*
X126982858Y-73862221D01*
X123011797Y-77833281D01*
X122950474Y-77866766D01*
X122943515Y-77868073D01*
X122795468Y-77891522D01*
X122600778Y-77954781D01*
X122418386Y-78047715D01*
X122252786Y-78168028D01*
X122108028Y-78312786D01*
X121987715Y-78478386D01*
X121894781Y-78660776D01*
X121831522Y-78855465D01*
X121799500Y-79057648D01*
X121799500Y-79262351D01*
X121831522Y-79464534D01*
X121894781Y-79659223D01*
X121952936Y-79773356D01*
X121965381Y-79797782D01*
X121987715Y-79841613D01*
X122108028Y-80007213D01*
X122252786Y-80151971D01*
X122407749Y-80264556D01*
X122418390Y-80272287D01*
X122518275Y-80323181D01*
X122600776Y-80365218D01*
X122600778Y-80365218D01*
X122600781Y-80365220D01*
X122705137Y-80399127D01*
X122795465Y-80428477D01*
X122896557Y-80444488D01*
X122997648Y-80460500D01*
X122997649Y-80460500D01*
X123202351Y-80460500D01*
X123202352Y-80460500D01*
X123404534Y-80428477D01*
X123599219Y-80365220D01*
X123781610Y-80272287D01*
X123877869Y-80202351D01*
X123947213Y-80151971D01*
X123947215Y-80151968D01*
X123947219Y-80151966D01*
X124091966Y-80007219D01*
X124091968Y-80007215D01*
X124091971Y-80007213D01*
X124146718Y-79931859D01*
X124212287Y-79841610D01*
X124305220Y-79659219D01*
X124368477Y-79464534D01*
X124391925Y-79316483D01*
X124421854Y-79253350D01*
X124426699Y-79248219D01*
X128138101Y-75536819D01*
X128199424Y-75503334D01*
X128225782Y-75500500D01*
X129965579Y-75500500D01*
X130032618Y-75520185D01*
X130078373Y-75572989D01*
X130088317Y-75642147D01*
X130059292Y-75705703D01*
X130021874Y-75734985D01*
X129918386Y-75787715D01*
X129752786Y-75908028D01*
X129608028Y-76052786D01*
X129487715Y-76218386D01*
X129394781Y-76400778D01*
X129331522Y-76595468D01*
X129308073Y-76743515D01*
X129278143Y-76806649D01*
X129273281Y-76811797D01*
X127961899Y-78123181D01*
X127934971Y-78137884D01*
X127909153Y-78154477D01*
X127902952Y-78155368D01*
X127900576Y-78156666D01*
X127874218Y-78159500D01*
X127775762Y-78159500D01*
X127708723Y-78139815D01*
X127702877Y-78135818D01*
X127581613Y-78047715D01*
X127581612Y-78047714D01*
X127581610Y-78047713D01*
X127512083Y-78012287D01*
X127399223Y-77954781D01*
X127204534Y-77891522D01*
X127016690Y-77861771D01*
X127002352Y-77859500D01*
X126797648Y-77859500D01*
X126783310Y-77861771D01*
X126595465Y-77891522D01*
X126400776Y-77954781D01*
X126218386Y-78047715D01*
X126052786Y-78168028D01*
X125908028Y-78312786D01*
X125787715Y-78478386D01*
X125694781Y-78660776D01*
X125631522Y-78855465D01*
X125599500Y-79057648D01*
X125599500Y-79262351D01*
X125631522Y-79464534D01*
X125694781Y-79659223D01*
X125772611Y-79811971D01*
X125787713Y-79841610D01*
X125875819Y-79962877D01*
X125899298Y-80028681D01*
X125899500Y-80035761D01*
X125899500Y-81624237D01*
X125879815Y-81691276D01*
X125875818Y-81697122D01*
X125787715Y-81818386D01*
X125694781Y-82000776D01*
X125631522Y-82195465D01*
X125599500Y-82397648D01*
X125599500Y-82602351D01*
X125631522Y-82804534D01*
X125694781Y-82999223D01*
X125756426Y-83120205D01*
X125769322Y-83188874D01*
X125743046Y-83253614D01*
X125685940Y-83293872D01*
X125645941Y-83300500D01*
X125049085Y-83300500D01*
X124955242Y-83319167D01*
X124952442Y-83319724D01*
X124855794Y-83338949D01*
X124835829Y-83347219D01*
X124827196Y-83350794D01*
X124827187Y-83350797D01*
X124673718Y-83414366D01*
X124673709Y-83414371D01*
X124509849Y-83523859D01*
X124463068Y-83570641D01*
X124370491Y-83663218D01*
X124370488Y-83663221D01*
X119242221Y-88791488D01*
X119242218Y-88791491D01*
X119172538Y-88861170D01*
X119102859Y-88930849D01*
X118993371Y-89094709D01*
X118993364Y-89094722D01*
X118950889Y-89197266D01*
X118950880Y-89197290D01*
X118949551Y-89200500D01*
X118917949Y-89276794D01*
X118912855Y-89302402D01*
X118911161Y-89310915D01*
X118911159Y-89310923D01*
X118879500Y-89470086D01*
X118879500Y-89824237D01*
X118859815Y-89891276D01*
X118855818Y-89897122D01*
X118767715Y-90018386D01*
X118674781Y-90200776D01*
X118611522Y-90395465D01*
X118581771Y-90583307D01*
X118579500Y-90597648D01*
X118579500Y-90802352D01*
X118581771Y-90816691D01*
X118611522Y-91004534D01*
X118674781Y-91199223D01*
X118717590Y-91283239D01*
X118752943Y-91352623D01*
X118767715Y-91381613D01*
X118888028Y-91547213D01*
X119032786Y-91691971D01*
X119180790Y-91799500D01*
X119198390Y-91812287D01*
X119314607Y-91871503D01*
X119380776Y-91905218D01*
X119380778Y-91905218D01*
X119380781Y-91905220D01*
X119485137Y-91939127D01*
X119575465Y-91968477D01*
X119639696Y-91978650D01*
X119723513Y-91991925D01*
X119742744Y-92001041D01*
X119763543Y-92005566D01*
X119782974Y-92020112D01*
X119786648Y-92021854D01*
X119791797Y-92026717D01*
X119944181Y-92179101D01*
X119977666Y-92240424D01*
X119980500Y-92266782D01*
X119980500Y-93996658D01*
X119960815Y-94063697D01*
X119908011Y-94109452D01*
X119838853Y-94119396D01*
X119775297Y-94090371D01*
X119756182Y-94069544D01*
X119671583Y-93953105D01*
X119526895Y-93808417D01*
X119361349Y-93688140D01*
X119179029Y-93595244D01*
X118984413Y-93532009D01*
X118930000Y-93523390D01*
X118930000Y-94484314D01*
X118925606Y-94479920D01*
X118834394Y-94427259D01*
X118732661Y-94400000D01*
X118627339Y-94400000D01*
X118525606Y-94427259D01*
X118434394Y-94479920D01*
X118430000Y-94484314D01*
X118430000Y-93523390D01*
X118375586Y-93532009D01*
X118180970Y-93595244D01*
X117998650Y-93688140D01*
X117833105Y-93808417D01*
X117833104Y-93808417D01*
X117688417Y-93953104D01*
X117688417Y-93953105D01*
X117568140Y-94118650D01*
X117475244Y-94300970D01*
X117412009Y-94495586D01*
X117403391Y-94550000D01*
X118364314Y-94550000D01*
X118359920Y-94554394D01*
X118307259Y-94645606D01*
X118280000Y-94747339D01*
X118280000Y-94852661D01*
X118307259Y-94954394D01*
X118359920Y-95045606D01*
X118364314Y-95050000D01*
X117403391Y-95050000D01*
X117412009Y-95104413D01*
X117475244Y-95299029D01*
X117568140Y-95481349D01*
X117688417Y-95646894D01*
X117688417Y-95646895D01*
X117833104Y-95791582D01*
X117998650Y-95911859D01*
X118180968Y-96004754D01*
X118375578Y-96067988D01*
X118430000Y-96076607D01*
X118430000Y-95115686D01*
X118434394Y-95120080D01*
X118525606Y-95172741D01*
X118627339Y-95200000D01*
X118732661Y-95200000D01*
X118834394Y-95172741D01*
X118925606Y-95120080D01*
X118930000Y-95115686D01*
X118930000Y-96076606D01*
X118984421Y-96067988D01*
X119179031Y-96004754D01*
X119361349Y-95911859D01*
X119526894Y-95791582D01*
X119526895Y-95791582D01*
X119671582Y-95646895D01*
X119671582Y-95646894D01*
X119756182Y-95530455D01*
X119811512Y-95487790D01*
X119881126Y-95481811D01*
X119942921Y-95514417D01*
X119977278Y-95575256D01*
X119980500Y-95603341D01*
X119980500Y-95833217D01*
X119960815Y-95900256D01*
X119944181Y-95920898D01*
X118591797Y-97273281D01*
X118530474Y-97306766D01*
X118523515Y-97308073D01*
X118375468Y-97331522D01*
X118180778Y-97394781D01*
X117998386Y-97487715D01*
X117832786Y-97608028D01*
X117688028Y-97752786D01*
X117567715Y-97918386D01*
X117474781Y-98100776D01*
X117411522Y-98295465D01*
X117379500Y-98497648D01*
X117379500Y-98702351D01*
X117411522Y-98904534D01*
X117474781Y-99099223D01*
X117538691Y-99224653D01*
X117567585Y-99281359D01*
X117567715Y-99281613D01*
X117688028Y-99447213D01*
X117832786Y-99591971D01*
X117953226Y-99679474D01*
X117998390Y-99712287D01*
X118114607Y-99771503D01*
X118180776Y-99805218D01*
X118180778Y-99805218D01*
X118180781Y-99805220D01*
X118285137Y-99839127D01*
X118375465Y-99868477D01*
X118443287Y-99879219D01*
X118577648Y-99900500D01*
X118577649Y-99900500D01*
X118782351Y-99900500D01*
X118782352Y-99900500D01*
X118984534Y-99868477D01*
X119179219Y-99805220D01*
X119361610Y-99712287D01*
X119482877Y-99624181D01*
X119548683Y-99600702D01*
X119555762Y-99600500D01*
X121714128Y-99600500D01*
X121781167Y-99620185D01*
X121826922Y-99672989D01*
X121832055Y-99686173D01*
X121894780Y-99879219D01*
X121905368Y-99900000D01*
X121987715Y-100061613D01*
X122108028Y-100227213D01*
X122252786Y-100371971D01*
X122407749Y-100484556D01*
X122418390Y-100492287D01*
X122534607Y-100551503D01*
X122600776Y-100585218D01*
X122600778Y-100585218D01*
X122600781Y-100585220D01*
X122705137Y-100619127D01*
X122795465Y-100648477D01*
X122896557Y-100664488D01*
X122997648Y-100680500D01*
X122997649Y-100680500D01*
X123202351Y-100680500D01*
X123202352Y-100680500D01*
X123404534Y-100648477D01*
X123599219Y-100585220D01*
X123781610Y-100492287D01*
X123874590Y-100424732D01*
X123947213Y-100371971D01*
X123947215Y-100371968D01*
X123947219Y-100371966D01*
X124091966Y-100227219D01*
X124091968Y-100227215D01*
X124091971Y-100227213D01*
X124144732Y-100154590D01*
X124212287Y-100061610D01*
X124305220Y-99879219D01*
X124368477Y-99684534D01*
X124400500Y-99482352D01*
X124400500Y-99277648D01*
X124372239Y-99099219D01*
X124368477Y-99075465D01*
X124305218Y-98880776D01*
X124271503Y-98814607D01*
X124212287Y-98698390D01*
X124190200Y-98667990D01*
X124091971Y-98532786D01*
X123947213Y-98388028D01*
X123781613Y-98267715D01*
X123781612Y-98267714D01*
X123781610Y-98267713D01*
X123702215Y-98227259D01*
X123599223Y-98174781D01*
X123404535Y-98111523D01*
X123256483Y-98088073D01*
X123237252Y-98078956D01*
X123216455Y-98074432D01*
X123197021Y-98059883D01*
X123193349Y-98058143D01*
X123188201Y-98053281D01*
X123104209Y-97969289D01*
X123104207Y-97969286D01*
X123104206Y-97969285D01*
X123104206Y-97969286D01*
X123097139Y-97962219D01*
X123097139Y-97962218D01*
X122957782Y-97822861D01*
X122957781Y-97822860D01*
X122957780Y-97822859D01*
X122793920Y-97713371D01*
X122793911Y-97713366D01*
X122672746Y-97663178D01*
X122672744Y-97663177D01*
X122665165Y-97660038D01*
X122611836Y-97637949D01*
X122482825Y-97612287D01*
X122439950Y-97603758D01*
X122418542Y-97599500D01*
X122418541Y-97599500D01*
X121394783Y-97599500D01*
X121327744Y-97579815D01*
X121281989Y-97527011D01*
X121272045Y-97457853D01*
X121301070Y-97394297D01*
X121307102Y-97387819D01*
X121758136Y-96936785D01*
X121758139Y-96936782D01*
X121831320Y-96827259D01*
X121846504Y-96804535D01*
X121857103Y-96788671D01*
X121867632Y-96772914D01*
X121943051Y-96590835D01*
X121943478Y-96588691D01*
X121981500Y-96397541D01*
X121981500Y-96200460D01*
X121981500Y-92410000D01*
X125623391Y-92410000D01*
X126584314Y-92410000D01*
X126579920Y-92414394D01*
X126527259Y-92505606D01*
X126500000Y-92607339D01*
X126500000Y-92712661D01*
X126527259Y-92814394D01*
X126579920Y-92905606D01*
X126584314Y-92910000D01*
X125623391Y-92910000D01*
X125632009Y-92964413D01*
X125695244Y-93159029D01*
X125788140Y-93341349D01*
X125908417Y-93506894D01*
X125908417Y-93506895D01*
X126053104Y-93651582D01*
X126218650Y-93771859D01*
X126400968Y-93864754D01*
X126595578Y-93927988D01*
X126650000Y-93936607D01*
X126650000Y-92975686D01*
X126654394Y-92980080D01*
X126745606Y-93032741D01*
X126847339Y-93060000D01*
X126952661Y-93060000D01*
X127054394Y-93032741D01*
X127145606Y-92980080D01*
X127150000Y-92975686D01*
X127150000Y-93936606D01*
X127204421Y-93927988D01*
X127399031Y-93864754D01*
X127581349Y-93771859D01*
X127746894Y-93651582D01*
X127746895Y-93651582D01*
X127891582Y-93506895D01*
X127891582Y-93506894D01*
X128011859Y-93341349D01*
X128104755Y-93159029D01*
X128157191Y-92997648D01*
X129399500Y-92997648D01*
X129399500Y-93202351D01*
X129431522Y-93404534D01*
X129494781Y-93599223D01*
X129558691Y-93724653D01*
X129582818Y-93772004D01*
X129587715Y-93781613D01*
X129708028Y-93947213D01*
X129852786Y-94091971D01*
X130007749Y-94204556D01*
X130018390Y-94212287D01*
X130134607Y-94271503D01*
X130200776Y-94305218D01*
X130200778Y-94305218D01*
X130200781Y-94305220D01*
X130293887Y-94335472D01*
X130395465Y-94368477D01*
X130496557Y-94384488D01*
X130597648Y-94400500D01*
X130597649Y-94400500D01*
X130802351Y-94400500D01*
X130802352Y-94400500D01*
X131004534Y-94368477D01*
X131199219Y-94305220D01*
X131381610Y-94212287D01*
X131509465Y-94119396D01*
X131547213Y-94091971D01*
X131547215Y-94091968D01*
X131547219Y-94091966D01*
X131634172Y-94005013D01*
X133850000Y-94005013D01*
X133850000Y-94650000D01*
X134677291Y-94650000D01*
X134665548Y-94670339D01*
X134625000Y-94821667D01*
X134625000Y-94978333D01*
X134665548Y-95129661D01*
X134677291Y-95150000D01*
X133850001Y-95150000D01*
X133850001Y-95794986D01*
X133860494Y-95897697D01*
X133915641Y-96064119D01*
X133915643Y-96064124D01*
X134007684Y-96213345D01*
X134131654Y-96337315D01*
X134280875Y-96429356D01*
X134280880Y-96429358D01*
X134447302Y-96484505D01*
X134447309Y-96484506D01*
X134550019Y-96494999D01*
X134969999Y-96494999D01*
X134970000Y-96494998D01*
X134970000Y-95442709D01*
X134990339Y-95454452D01*
X135141667Y-95495000D01*
X135298333Y-95495000D01*
X135449661Y-95454452D01*
X135470000Y-95442709D01*
X135470000Y-96494999D01*
X135889972Y-96494999D01*
X135889986Y-96494998D01*
X135992697Y-96484505D01*
X136159119Y-96429358D01*
X136159124Y-96429356D01*
X136308345Y-96337315D01*
X136432315Y-96213345D01*
X136528149Y-96057975D01*
X136529915Y-96059064D01*
X136569278Y-96014349D01*
X136636470Y-95995189D01*
X136703353Y-96015397D01*
X136748694Y-96068557D01*
X136759500Y-96119185D01*
X136759500Y-96909913D01*
X136768348Y-96954394D01*
X136772231Y-96973914D01*
X136797949Y-97103206D01*
X136812271Y-97137782D01*
X136815744Y-97146167D01*
X136815745Y-97146170D01*
X136873364Y-97285277D01*
X136873371Y-97285290D01*
X136982859Y-97449150D01*
X136982860Y-97449151D01*
X136982861Y-97449152D01*
X137122218Y-97588509D01*
X137122219Y-97588509D01*
X137129286Y-97595576D01*
X137129285Y-97595576D01*
X137129288Y-97595578D01*
X142971490Y-103437781D01*
X142971491Y-103437782D01*
X143059257Y-103525548D01*
X143110849Y-103577140D01*
X143215721Y-103647213D01*
X143274716Y-103686632D01*
X143274718Y-103686633D01*
X143274722Y-103686635D01*
X143308795Y-103700747D01*
X143388866Y-103733914D01*
X143456794Y-103762051D01*
X143553442Y-103781275D01*
X143634368Y-103797372D01*
X143650088Y-103800500D01*
X143650089Y-103800500D01*
X143650090Y-103800500D01*
X143847170Y-103800500D01*
X144004238Y-103800500D01*
X144071277Y-103820185D01*
X144077119Y-103824179D01*
X144198390Y-103912287D01*
X144314607Y-103971503D01*
X144380776Y-104005218D01*
X144380778Y-104005218D01*
X144380781Y-104005220D01*
X144485137Y-104039127D01*
X144575465Y-104068477D01*
X144676557Y-104084488D01*
X144777648Y-104100500D01*
X144777649Y-104100500D01*
X144982351Y-104100500D01*
X144982352Y-104100500D01*
X145184534Y-104068477D01*
X145379219Y-104005220D01*
X145561610Y-103912287D01*
X145654590Y-103844732D01*
X145727213Y-103791971D01*
X145727215Y-103791968D01*
X145727219Y-103791966D01*
X145772052Y-103747133D01*
X153459500Y-103747133D01*
X153459500Y-104412866D01*
X153493245Y-104625922D01*
X153493246Y-104625926D01*
X153559908Y-104831089D01*
X153657843Y-105023299D01*
X153784641Y-105197821D01*
X153937179Y-105350359D01*
X154111701Y-105477157D01*
X154303911Y-105575092D01*
X154509074Y-105641754D01*
X154588973Y-105654408D01*
X154722134Y-105675500D01*
X154722139Y-105675500D01*
X154937866Y-105675500D01*
X155056230Y-105656752D01*
X155150926Y-105641754D01*
X155356089Y-105575092D01*
X155548299Y-105477157D01*
X155722821Y-105350359D01*
X155865186Y-105207993D01*
X155926505Y-105174511D01*
X155996197Y-105179495D01*
X156052131Y-105221366D01*
X156065248Y-105243277D01*
X156065640Y-105244118D01*
X156157684Y-105393345D01*
X156281654Y-105517315D01*
X156430875Y-105609356D01*
X156430880Y-105609358D01*
X156597302Y-105664505D01*
X156597309Y-105664506D01*
X156700019Y-105674999D01*
X157119999Y-105674999D01*
X157120000Y-105674998D01*
X157120000Y-104622709D01*
X157140339Y-104634452D01*
X157291667Y-104675000D01*
X157448333Y-104675000D01*
X157599661Y-104634452D01*
X157620000Y-104622709D01*
X157620000Y-105674999D01*
X158039972Y-105674999D01*
X158039986Y-105674998D01*
X158142697Y-105664505D01*
X158165508Y-105656947D01*
X158309119Y-105609358D01*
X158309124Y-105609356D01*
X158458345Y-105517315D01*
X158582315Y-105393345D01*
X158674356Y-105244124D01*
X158674358Y-105244119D01*
X158729505Y-105077697D01*
X158729506Y-105077690D01*
X158739999Y-104974986D01*
X158740000Y-104974973D01*
X158740000Y-104330000D01*
X157912709Y-104330000D01*
X157924452Y-104309661D01*
X157965000Y-104158333D01*
X157965000Y-104001667D01*
X157924452Y-103850339D01*
X157912709Y-103830000D01*
X158739999Y-103830000D01*
X158739999Y-103185028D01*
X158739998Y-103185013D01*
X158729505Y-103082302D01*
X158674358Y-102915880D01*
X158674356Y-102915875D01*
X158582315Y-102766654D01*
X158458345Y-102642684D01*
X158309124Y-102550643D01*
X158309119Y-102550641D01*
X158142697Y-102495494D01*
X158142690Y-102495493D01*
X158039986Y-102485000D01*
X157620000Y-102485000D01*
X157620000Y-103537290D01*
X157599661Y-103525548D01*
X157448333Y-103485000D01*
X157291667Y-103485000D01*
X157140339Y-103525548D01*
X157120000Y-103537290D01*
X157120000Y-102485000D01*
X156700028Y-102485000D01*
X156700012Y-102485001D01*
X156597302Y-102495494D01*
X156430880Y-102550641D01*
X156430875Y-102550643D01*
X156281654Y-102642684D01*
X156157684Y-102766654D01*
X156065637Y-102915885D01*
X156065245Y-102916728D01*
X156064821Y-102917208D01*
X156061851Y-102922025D01*
X156061027Y-102921517D01*
X156019072Y-102969167D01*
X155951879Y-102988318D01*
X155884998Y-102968101D01*
X155865183Y-102952003D01*
X155722823Y-102809643D01*
X155722821Y-102809641D01*
X155548299Y-102682843D01*
X155356089Y-102584908D01*
X155150926Y-102518246D01*
X155150924Y-102518245D01*
X155150922Y-102518245D01*
X154937866Y-102484500D01*
X154937861Y-102484500D01*
X154722139Y-102484500D01*
X154722134Y-102484500D01*
X154509077Y-102518245D01*
X154303908Y-102584909D01*
X154111700Y-102682843D01*
X154012129Y-102755186D01*
X153937179Y-102809641D01*
X153937177Y-102809643D01*
X153937176Y-102809643D01*
X153784643Y-102962176D01*
X153784643Y-102962177D01*
X153784641Y-102962179D01*
X153779564Y-102969167D01*
X153657843Y-103136700D01*
X153559909Y-103328908D01*
X153493245Y-103534077D01*
X153459500Y-103747133D01*
X145772052Y-103747133D01*
X145871966Y-103647219D01*
X145871968Y-103647215D01*
X145871971Y-103647213D01*
X145932040Y-103564534D01*
X145992287Y-103481610D01*
X146085220Y-103299219D01*
X146148477Y-103104534D01*
X146180500Y-102902352D01*
X146180500Y-102697648D01*
X146162644Y-102584909D01*
X146148477Y-102495465D01*
X146085218Y-102300776D01*
X146051503Y-102234607D01*
X145992287Y-102118390D01*
X145946072Y-102054780D01*
X145871971Y-101952786D01*
X145727213Y-101808028D01*
X145561613Y-101687715D01*
X145561612Y-101687714D01*
X145561610Y-101687713D01*
X145504653Y-101658691D01*
X145379223Y-101594781D01*
X145184534Y-101531522D01*
X145009995Y-101503878D01*
X144982352Y-101499500D01*
X144777648Y-101499500D01*
X144753329Y-101503351D01*
X144575465Y-101531522D01*
X144380776Y-101594781D01*
X144198391Y-101687712D01*
X144194241Y-101690256D01*
X144193620Y-101689244D01*
X144133045Y-101710855D01*
X144064991Y-101695027D01*
X144038289Y-101674738D01*
X138796819Y-96433268D01*
X138782115Y-96406340D01*
X138765523Y-96380522D01*
X138764631Y-96374321D01*
X138763334Y-96371945D01*
X138760500Y-96345587D01*
X138760500Y-96114042D01*
X138780185Y-96047003D01*
X138796819Y-96026361D01*
X138805359Y-96017821D01*
X138929682Y-95846704D01*
X138985012Y-95804040D01*
X139054626Y-95798061D01*
X139116420Y-95830667D01*
X139130315Y-95846702D01*
X139254641Y-96017821D01*
X139407179Y-96170359D01*
X139581701Y-96297157D01*
X139773911Y-96395092D01*
X139979074Y-96461754D01*
X140058973Y-96474408D01*
X140192134Y-96495500D01*
X140192139Y-96495500D01*
X140407854Y-96495500D01*
X140407861Y-96495500D01*
X140408211Y-96495444D01*
X140408345Y-96495461D01*
X140412712Y-96495118D01*
X140412784Y-96496034D01*
X140477502Y-96504384D01*
X140515311Y-96530232D01*
X141262215Y-97277137D01*
X141262219Y-97277140D01*
X141426079Y-97386628D01*
X141426088Y-97386633D01*
X141444591Y-97394297D01*
X141608165Y-97462052D01*
X141758556Y-97491966D01*
X141787158Y-97497655D01*
X141801458Y-97500500D01*
X141801459Y-97500500D01*
X141801460Y-97500500D01*
X141998540Y-97500500D01*
X144324238Y-97500500D01*
X144391277Y-97520185D01*
X144397119Y-97524179D01*
X144518390Y-97612287D01*
X144618269Y-97663178D01*
X144700776Y-97705218D01*
X144700778Y-97705218D01*
X144700781Y-97705220D01*
X144805137Y-97739127D01*
X144895465Y-97768477D01*
X144922387Y-97772741D01*
X145097648Y-97800500D01*
X145097649Y-97800500D01*
X145302351Y-97800500D01*
X145302352Y-97800500D01*
X145504534Y-97768477D01*
X145699219Y-97705220D01*
X145881610Y-97612287D01*
X145974590Y-97544732D01*
X146047213Y-97491971D01*
X146047220Y-97491965D01*
X146093579Y-97445606D01*
X146191966Y-97347219D01*
X146191968Y-97347215D01*
X146191971Y-97347213D01*
X146260666Y-97252661D01*
X146312287Y-97181610D01*
X146405220Y-96999219D01*
X146468477Y-96804534D01*
X146500500Y-96602352D01*
X146500500Y-96397648D01*
X146483490Y-96290250D01*
X146468477Y-96195465D01*
X146410757Y-96017822D01*
X146405220Y-96000781D01*
X146405218Y-96000778D01*
X146405218Y-96000776D01*
X146371503Y-95934607D01*
X146312287Y-95818390D01*
X146292810Y-95791582D01*
X146191971Y-95652786D01*
X146047213Y-95508028D01*
X145881613Y-95387715D01*
X145881612Y-95387714D01*
X145881610Y-95387713D01*
X145824653Y-95358691D01*
X145699223Y-95294781D01*
X145504534Y-95231522D01*
X145329995Y-95203878D01*
X145302352Y-95199500D01*
X145097648Y-95199500D01*
X145073329Y-95203351D01*
X144895465Y-95231522D01*
X144700776Y-95294781D01*
X144518386Y-95387715D01*
X144397123Y-95475818D01*
X144331317Y-95499298D01*
X144324238Y-95499500D01*
X142365783Y-95499500D01*
X142298744Y-95479815D01*
X142278102Y-95463181D01*
X141706819Y-94891898D01*
X141673334Y-94830575D01*
X141670500Y-94804217D01*
X141670500Y-94567133D01*
X141638992Y-94368204D01*
X141638992Y-94368203D01*
X141636755Y-94354078D01*
X141636754Y-94354077D01*
X141636754Y-94354074D01*
X141636124Y-94352135D01*
X154599500Y-94352135D01*
X154599500Y-96047870D01*
X154599501Y-96047876D01*
X154605908Y-96107483D01*
X154656202Y-96242328D01*
X154656206Y-96242335D01*
X154714739Y-96320524D01*
X154742454Y-96357546D01*
X154751385Y-96364231D01*
X154793254Y-96420163D01*
X154798239Y-96489854D01*
X154787558Y-96519791D01*
X154695245Y-96700965D01*
X154632009Y-96895582D01*
X154600000Y-97097682D01*
X154600000Y-97302317D01*
X154632009Y-97504417D01*
X154695244Y-97699031D01*
X154788141Y-97881350D01*
X154788147Y-97881359D01*
X154820523Y-97925921D01*
X154820524Y-97925922D01*
X155500000Y-97246446D01*
X155500000Y-97252661D01*
X155527259Y-97354394D01*
X155579920Y-97445606D01*
X155654394Y-97520080D01*
X155745606Y-97572741D01*
X155847339Y-97600000D01*
X155853553Y-97600000D01*
X155174076Y-98279474D01*
X155218650Y-98311859D01*
X155400968Y-98404755D01*
X155595582Y-98467990D01*
X155797683Y-98500000D01*
X156002317Y-98500000D01*
X156204417Y-98467990D01*
X156399031Y-98404755D01*
X156561978Y-98321730D01*
X156581349Y-98311859D01*
X156625921Y-98279474D01*
X155946447Y-97600000D01*
X155952661Y-97600000D01*
X156054394Y-97572741D01*
X156145606Y-97520080D01*
X156220080Y-97445606D01*
X156272741Y-97354394D01*
X156300000Y-97252661D01*
X156300000Y-97246447D01*
X156979474Y-97925921D01*
X157011859Y-97881349D01*
X157104755Y-97699031D01*
X157167990Y-97504417D01*
X157200000Y-97302317D01*
X157200000Y-97297682D01*
X159620000Y-97297682D01*
X159620000Y-97502317D01*
X159652009Y-97704417D01*
X159715244Y-97899031D01*
X159808141Y-98081350D01*
X159808147Y-98081359D01*
X159840523Y-98125921D01*
X159840524Y-98125922D01*
X160520000Y-97446446D01*
X160520000Y-97452661D01*
X160547259Y-97554394D01*
X160599920Y-97645606D01*
X160674394Y-97720080D01*
X160765606Y-97772741D01*
X160867339Y-97800000D01*
X160873553Y-97800000D01*
X160194076Y-98479474D01*
X160238650Y-98511859D01*
X160420968Y-98604755D01*
X160615582Y-98667990D01*
X160817683Y-98700000D01*
X161022317Y-98700000D01*
X161224417Y-98667990D01*
X161419031Y-98604755D01*
X161601349Y-98511859D01*
X161645921Y-98479474D01*
X160966447Y-97800000D01*
X160972661Y-97800000D01*
X161074394Y-97772741D01*
X161165606Y-97720080D01*
X161240080Y-97645606D01*
X161292741Y-97554394D01*
X161320000Y-97452661D01*
X161320000Y-97446448D01*
X161999474Y-98125922D01*
X161999474Y-98125921D01*
X162031859Y-98081349D01*
X162124755Y-97899031D01*
X162187990Y-97704417D01*
X162220000Y-97502317D01*
X162220000Y-97297682D01*
X162187990Y-97095582D01*
X162124755Y-96900968D01*
X162031859Y-96718650D01*
X161999474Y-96674077D01*
X161999474Y-96674076D01*
X161320000Y-97353551D01*
X161320000Y-97347339D01*
X161292741Y-97245606D01*
X161240080Y-97154394D01*
X161165606Y-97079920D01*
X161074394Y-97027259D01*
X160972661Y-97000000D01*
X160966446Y-97000000D01*
X161645922Y-96320524D01*
X161645921Y-96320523D01*
X161601359Y-96288147D01*
X161601350Y-96288141D01*
X161419031Y-96195244D01*
X161224417Y-96132009D01*
X161022317Y-96100000D01*
X160817683Y-96100000D01*
X160615582Y-96132009D01*
X160420968Y-96195244D01*
X160238644Y-96288143D01*
X160194077Y-96320523D01*
X160194077Y-96320524D01*
X160873554Y-97000000D01*
X160867339Y-97000000D01*
X160765606Y-97027259D01*
X160674394Y-97079920D01*
X160599920Y-97154394D01*
X160547259Y-97245606D01*
X160520000Y-97347339D01*
X160520000Y-97353553D01*
X159840524Y-96674077D01*
X159840523Y-96674077D01*
X159808143Y-96718644D01*
X159715244Y-96900968D01*
X159652009Y-97095582D01*
X159620000Y-97297682D01*
X157200000Y-97297682D01*
X157200000Y-97097682D01*
X157167990Y-96895582D01*
X157104755Y-96700968D01*
X157012441Y-96519792D01*
X156999545Y-96451123D01*
X157025821Y-96386382D01*
X157028687Y-96382905D01*
X157037611Y-96372468D01*
X157057546Y-96357546D01*
X157143796Y-96242331D01*
X157194091Y-96107483D01*
X157200500Y-96047873D01*
X157200499Y-94352128D01*
X157194091Y-94292517D01*
X157152725Y-94181610D01*
X157143797Y-94157671D01*
X157143793Y-94157664D01*
X157057547Y-94042455D01*
X157057544Y-94042452D01*
X156942335Y-93956206D01*
X156942328Y-93956202D01*
X156807482Y-93905908D01*
X156807483Y-93905908D01*
X156747883Y-93899501D01*
X156747881Y-93899500D01*
X156747873Y-93899500D01*
X156747864Y-93899500D01*
X155052129Y-93899500D01*
X155052123Y-93899501D01*
X154992516Y-93905908D01*
X154857671Y-93956202D01*
X154857664Y-93956206D01*
X154742455Y-94042452D01*
X154742452Y-94042455D01*
X154656206Y-94157664D01*
X154656202Y-94157671D01*
X154605908Y-94292517D01*
X154599501Y-94352116D01*
X154599501Y-94352123D01*
X154599500Y-94352135D01*
X141636124Y-94352135D01*
X141570092Y-94148911D01*
X141472157Y-93956701D01*
X141345359Y-93782179D01*
X141192821Y-93629641D01*
X141018299Y-93502843D01*
X140826089Y-93404908D01*
X140803745Y-93397648D01*
X159619500Y-93397648D01*
X159619500Y-93602351D01*
X159651522Y-93804534D01*
X159714781Y-93999223D01*
X159775499Y-94118386D01*
X159795515Y-94157671D01*
X159807715Y-94181613D01*
X159928028Y-94347213D01*
X160072786Y-94491971D01*
X160227749Y-94604556D01*
X160238390Y-94612287D01*
X160352323Y-94670339D01*
X160420776Y-94705218D01*
X160420778Y-94705218D01*
X160420781Y-94705220D01*
X160525137Y-94739127D01*
X160615465Y-94768477D01*
X160716557Y-94784488D01*
X160817648Y-94800500D01*
X160817649Y-94800500D01*
X161022351Y-94800500D01*
X161022352Y-94800500D01*
X161224534Y-94768477D01*
X161419219Y-94705220D01*
X161601610Y-94612287D01*
X161708453Y-94534662D01*
X161767213Y-94491971D01*
X161767215Y-94491968D01*
X161767219Y-94491966D01*
X161911966Y-94347219D01*
X161911968Y-94347215D01*
X161911971Y-94347213D01*
X161964732Y-94274590D01*
X162032287Y-94181610D01*
X162125220Y-93999219D01*
X162188477Y-93804534D01*
X162220500Y-93602352D01*
X162220500Y-93397648D01*
X162211583Y-93341349D01*
X162188477Y-93195465D01*
X162125218Y-93000776D01*
X162091503Y-92934607D01*
X162032287Y-92818390D01*
X162015631Y-92795465D01*
X161911971Y-92652786D01*
X161767213Y-92508028D01*
X161601613Y-92387715D01*
X161601612Y-92387714D01*
X161601610Y-92387713D01*
X161538557Y-92355586D01*
X161419223Y-92294781D01*
X161224534Y-92231522D01*
X161036690Y-92201771D01*
X161022352Y-92199500D01*
X160817648Y-92199500D01*
X160803310Y-92201771D01*
X160615465Y-92231522D01*
X160420776Y-92294781D01*
X160238386Y-92387715D01*
X160072786Y-92508028D01*
X159928028Y-92652786D01*
X159807715Y-92818386D01*
X159714781Y-93000776D01*
X159651522Y-93195465D01*
X159619500Y-93397648D01*
X140803745Y-93397648D01*
X140620926Y-93338246D01*
X140620924Y-93338245D01*
X140620922Y-93338245D01*
X140407866Y-93304500D01*
X140407861Y-93304500D01*
X140192139Y-93304500D01*
X140192134Y-93304500D01*
X139979077Y-93338245D01*
X139773908Y-93404909D01*
X139581700Y-93502843D01*
X139482129Y-93575186D01*
X139407179Y-93629641D01*
X139407177Y-93629643D01*
X139407176Y-93629643D01*
X139254643Y-93782176D01*
X139254643Y-93782177D01*
X139254641Y-93782179D01*
X139237706Y-93805488D01*
X139130318Y-93953294D01*
X139074988Y-93995959D01*
X139005374Y-94001938D01*
X138943579Y-93969332D01*
X138929682Y-93953294D01*
X138895254Y-93905909D01*
X138805359Y-93782179D01*
X138652821Y-93629641D01*
X138478299Y-93502843D01*
X138286089Y-93404908D01*
X138080926Y-93338246D01*
X138080924Y-93338245D01*
X138080922Y-93338245D01*
X137867866Y-93304500D01*
X137867861Y-93304500D01*
X137652139Y-93304500D01*
X137652134Y-93304500D01*
X137439077Y-93338245D01*
X137233908Y-93404909D01*
X137041700Y-93502843D01*
X136867180Y-93629640D01*
X136724816Y-93772004D01*
X136663493Y-93805488D01*
X136593801Y-93800504D01*
X136537868Y-93758632D01*
X136524748Y-93736716D01*
X136524356Y-93735876D01*
X136432315Y-93586654D01*
X136308345Y-93462684D01*
X136159124Y-93370643D01*
X136159119Y-93370641D01*
X135992697Y-93315494D01*
X135992690Y-93315493D01*
X135889986Y-93305000D01*
X135470000Y-93305000D01*
X135470000Y-94357290D01*
X135449661Y-94345548D01*
X135298333Y-94305000D01*
X135141667Y-94305000D01*
X134990339Y-94345548D01*
X134970000Y-94357290D01*
X134970000Y-93305000D01*
X134550028Y-93305000D01*
X134550012Y-93305001D01*
X134447302Y-93315494D01*
X134280880Y-93370641D01*
X134280875Y-93370643D01*
X134131654Y-93462684D01*
X134007684Y-93586654D01*
X133915643Y-93735875D01*
X133915641Y-93735880D01*
X133860494Y-93902302D01*
X133860493Y-93902309D01*
X133850000Y-94005013D01*
X131634172Y-94005013D01*
X131691966Y-93947219D01*
X131691968Y-93947215D01*
X131691971Y-93947213D01*
X131705219Y-93928979D01*
X131763290Y-93849048D01*
X131812287Y-93781610D01*
X131905220Y-93599219D01*
X131968477Y-93404534D01*
X132000500Y-93202352D01*
X132000500Y-92997648D01*
X131995830Y-92968165D01*
X131968477Y-92795465D01*
X131922116Y-92652781D01*
X131905220Y-92600781D01*
X131905218Y-92600778D01*
X131905218Y-92600776D01*
X131845137Y-92482862D01*
X131812287Y-92418390D01*
X131802381Y-92404755D01*
X131691971Y-92252786D01*
X131547213Y-92108028D01*
X131381613Y-91987715D01*
X131381612Y-91987714D01*
X131381610Y-91987713D01*
X131310699Y-91951582D01*
X131199223Y-91894781D01*
X131004534Y-91831522D01*
X130819526Y-91802220D01*
X130756391Y-91772291D01*
X130719460Y-91712979D01*
X130720458Y-91643117D01*
X130759068Y-91584884D01*
X130819526Y-91557274D01*
X131004417Y-91527990D01*
X131199031Y-91464755D01*
X131330735Y-91397648D01*
X143899500Y-91397648D01*
X143899500Y-91602351D01*
X143931522Y-91804534D01*
X143994781Y-91999223D01*
X144031792Y-92071859D01*
X144085946Y-92178143D01*
X144087715Y-92181613D01*
X144208028Y-92347213D01*
X144352786Y-92491971D01*
X144502546Y-92600776D01*
X144518390Y-92612287D01*
X144597864Y-92652781D01*
X144700776Y-92705218D01*
X144700778Y-92705218D01*
X144700781Y-92705220D01*
X144805137Y-92739127D01*
X144895465Y-92768477D01*
X144996557Y-92784488D01*
X145097648Y-92800500D01*
X145097649Y-92800500D01*
X145302351Y-92800500D01*
X145302352Y-92800500D01*
X145504534Y-92768477D01*
X145699219Y-92705220D01*
X145881610Y-92612287D01*
X145974590Y-92544732D01*
X146047213Y-92491971D01*
X146047215Y-92491968D01*
X146047219Y-92491966D01*
X146191966Y-92347219D01*
X146191968Y-92347215D01*
X146191971Y-92347213D01*
X146260575Y-92252786D01*
X146312287Y-92181610D01*
X146405220Y-91999219D01*
X146468477Y-91804534D01*
X146500500Y-91602352D01*
X146500500Y-91397648D01*
X146468477Y-91195466D01*
X146405220Y-91000781D01*
X146405218Y-91000778D01*
X146405218Y-91000776D01*
X146312284Y-90818384D01*
X146233539Y-90710000D01*
X148423391Y-90710000D01*
X149384314Y-90710000D01*
X149379920Y-90714394D01*
X149327259Y-90805606D01*
X149300000Y-90907339D01*
X149300000Y-91012661D01*
X149327259Y-91114394D01*
X149379920Y-91205606D01*
X149384314Y-91210000D01*
X148423391Y-91210000D01*
X148432009Y-91264413D01*
X148495244Y-91459029D01*
X148588140Y-91641349D01*
X148708417Y-91806894D01*
X148708417Y-91806895D01*
X148853104Y-91951582D01*
X149018650Y-92071859D01*
X149200968Y-92164754D01*
X149395578Y-92227988D01*
X149450000Y-92236607D01*
X149450000Y-91275686D01*
X149454394Y-91280080D01*
X149545606Y-91332741D01*
X149647339Y-91360000D01*
X149752661Y-91360000D01*
X149854394Y-91332741D01*
X149945606Y-91280080D01*
X149950000Y-91275686D01*
X149950000Y-92236606D01*
X150004421Y-92227988D01*
X150199031Y-92164754D01*
X150283473Y-92121730D01*
X150381349Y-92071859D01*
X150546894Y-91951582D01*
X150546895Y-91951582D01*
X150691582Y-91806895D01*
X150691582Y-91806894D01*
X150811859Y-91641349D01*
X150904755Y-91459029D01*
X150967990Y-91264413D01*
X150976609Y-91210000D01*
X150015686Y-91210000D01*
X150020080Y-91205606D01*
X150072741Y-91114394D01*
X150100000Y-91012661D01*
X150100000Y-90907339D01*
X150072741Y-90805606D01*
X150020080Y-90714394D01*
X150015686Y-90710000D01*
X150976609Y-90710000D01*
X150967990Y-90655586D01*
X150904755Y-90460970D01*
X150811859Y-90278650D01*
X150691582Y-90113105D01*
X150691582Y-90113104D01*
X150546895Y-89968417D01*
X150381349Y-89848140D01*
X150199029Y-89755244D01*
X150004413Y-89692009D01*
X149950000Y-89683390D01*
X149950000Y-90644314D01*
X149945606Y-90639920D01*
X149854394Y-90587259D01*
X149752661Y-90560000D01*
X149647339Y-90560000D01*
X149545606Y-90587259D01*
X149454394Y-90639920D01*
X149450000Y-90644314D01*
X149450000Y-89683390D01*
X149395586Y-89692009D01*
X149200970Y-89755244D01*
X149018650Y-89848140D01*
X148853105Y-89968417D01*
X148853104Y-89968417D01*
X148708417Y-90113104D01*
X148708417Y-90113105D01*
X148588140Y-90278650D01*
X148495244Y-90460970D01*
X148432009Y-90655586D01*
X148423391Y-90710000D01*
X146233539Y-90710000D01*
X146191971Y-90652787D01*
X146191967Y-90652782D01*
X146047213Y-90508028D01*
X145881613Y-90387715D01*
X145881612Y-90387714D01*
X145881610Y-90387713D01*
X145769363Y-90330520D01*
X145699223Y-90294781D01*
X145504534Y-90231522D01*
X145329995Y-90203878D01*
X145302352Y-90199500D01*
X145097648Y-90199500D01*
X145089150Y-90200846D01*
X144895465Y-90231522D01*
X144700776Y-90294781D01*
X144518386Y-90387715D01*
X144352786Y-90508028D01*
X144208028Y-90652786D01*
X144087715Y-90818386D01*
X143994781Y-91000776D01*
X143931522Y-91195465D01*
X143899500Y-91397648D01*
X131330735Y-91397648D01*
X131381349Y-91371859D01*
X131425922Y-91339474D01*
X130746447Y-90660000D01*
X130752661Y-90660000D01*
X130854394Y-90632741D01*
X130945606Y-90580080D01*
X131020080Y-90505606D01*
X131072741Y-90414394D01*
X131100000Y-90312661D01*
X131100000Y-90306447D01*
X131779474Y-90985921D01*
X131811859Y-90941349D01*
X131904755Y-90759031D01*
X131967990Y-90564417D01*
X132000000Y-90362317D01*
X132000000Y-90157682D01*
X131967990Y-89955582D01*
X131904755Y-89760968D01*
X131811859Y-89578650D01*
X131779474Y-89534077D01*
X131779474Y-89534076D01*
X131100000Y-90213551D01*
X131100000Y-90207339D01*
X131072741Y-90105606D01*
X131020080Y-90014394D01*
X130945606Y-89939920D01*
X130854394Y-89887259D01*
X130752661Y-89860000D01*
X130746446Y-89860000D01*
X131425922Y-89180524D01*
X131425921Y-89180523D01*
X131381359Y-89148147D01*
X131381350Y-89148141D01*
X131199031Y-89055244D01*
X131004417Y-88992009D01*
X130802317Y-88960000D01*
X130597683Y-88960000D01*
X130395582Y-88992009D01*
X130200968Y-89055244D01*
X130018644Y-89148143D01*
X129974077Y-89180523D01*
X129974077Y-89180524D01*
X130653554Y-89860000D01*
X130647339Y-89860000D01*
X130545606Y-89887259D01*
X130454394Y-89939920D01*
X130379920Y-90014394D01*
X130327259Y-90105606D01*
X130300000Y-90207339D01*
X130300000Y-90213553D01*
X129620524Y-89534077D01*
X129620523Y-89534077D01*
X129588143Y-89578644D01*
X129495244Y-89760968D01*
X129432009Y-89955582D01*
X129400000Y-90157682D01*
X129400000Y-90362317D01*
X129432009Y-90564417D01*
X129495244Y-90759031D01*
X129588141Y-90941350D01*
X129588147Y-90941359D01*
X129620523Y-90985921D01*
X129620524Y-90985922D01*
X130300000Y-90306446D01*
X130300000Y-90312661D01*
X130327259Y-90414394D01*
X130379920Y-90505606D01*
X130454394Y-90580080D01*
X130545606Y-90632741D01*
X130647339Y-90660000D01*
X130653553Y-90660000D01*
X129974076Y-91339474D01*
X130018650Y-91371859D01*
X130200968Y-91464755D01*
X130395582Y-91527990D01*
X130580473Y-91557274D01*
X130643608Y-91587203D01*
X130680539Y-91646515D01*
X130679541Y-91716377D01*
X130640931Y-91774610D01*
X130580473Y-91802220D01*
X130395465Y-91831522D01*
X130200776Y-91894781D01*
X130018386Y-91987715D01*
X129852786Y-92108028D01*
X129708028Y-92252786D01*
X129587715Y-92418386D01*
X129494781Y-92600776D01*
X129431522Y-92795465D01*
X129399500Y-92997648D01*
X128157191Y-92997648D01*
X128167990Y-92964414D01*
X128167990Y-92964413D01*
X128176609Y-92910000D01*
X127215686Y-92910000D01*
X127220080Y-92905606D01*
X127272741Y-92814394D01*
X127300000Y-92712661D01*
X127300000Y-92607339D01*
X127272741Y-92505606D01*
X127220080Y-92414394D01*
X127215686Y-92410000D01*
X128176609Y-92410000D01*
X128167990Y-92355586D01*
X128104755Y-92160970D01*
X128011859Y-91978650D01*
X127891582Y-91813105D01*
X127891582Y-91813104D01*
X127746895Y-91668417D01*
X127581349Y-91548140D01*
X127399029Y-91455244D01*
X127204413Y-91392009D01*
X127150000Y-91383390D01*
X127150000Y-92344314D01*
X127145606Y-92339920D01*
X127054394Y-92287259D01*
X126952661Y-92260000D01*
X126847339Y-92260000D01*
X126745606Y-92287259D01*
X126654394Y-92339920D01*
X126650000Y-92344314D01*
X126650000Y-91383390D01*
X126595586Y-91392009D01*
X126400970Y-91455244D01*
X126218650Y-91548140D01*
X126053105Y-91668417D01*
X126053104Y-91668417D01*
X125908417Y-91813104D01*
X125908417Y-91813105D01*
X125788140Y-91978650D01*
X125695244Y-92160970D01*
X125632009Y-92355586D01*
X125623391Y-92410000D01*
X121981500Y-92410000D01*
X121981500Y-91702459D01*
X121981500Y-91702456D01*
X121961119Y-91600000D01*
X121954335Y-91565894D01*
X121943051Y-91509164D01*
X121902518Y-91411309D01*
X121867632Y-91327086D01*
X121867631Y-91327084D01*
X121867630Y-91327082D01*
X121758139Y-91163218D01*
X121758136Y-91163214D01*
X121615686Y-91020764D01*
X121615655Y-91020735D01*
X121206717Y-90611797D01*
X121173232Y-90550474D01*
X121171925Y-90543513D01*
X121164097Y-90494091D01*
X121148477Y-90395466D01*
X121145525Y-90386382D01*
X121104461Y-90259999D01*
X121085220Y-90200781D01*
X121085218Y-90200778D01*
X121085218Y-90200776D01*
X121036726Y-90105606D01*
X120992287Y-90018390D01*
X120992283Y-90018384D01*
X120989744Y-90014241D01*
X120990753Y-90013622D01*
X120969143Y-89953032D01*
X120984977Y-89884980D01*
X121005257Y-89858291D01*
X121592101Y-89271447D01*
X121653422Y-89237964D01*
X121723114Y-89242948D01*
X121779047Y-89284820D01*
X121802252Y-89339731D01*
X121807802Y-89374772D01*
X121831522Y-89524534D01*
X121894781Y-89719223D01*
X121916052Y-89760968D01*
X121985426Y-89897122D01*
X121987715Y-89901613D01*
X122108028Y-90067213D01*
X122252786Y-90211971D01*
X122366767Y-90294781D01*
X122418390Y-90332287D01*
X122534607Y-90391503D01*
X122600776Y-90425218D01*
X122600778Y-90425218D01*
X122600781Y-90425220D01*
X122680502Y-90451123D01*
X122795465Y-90488477D01*
X122871375Y-90500500D01*
X122997648Y-90520500D01*
X122997649Y-90520500D01*
X123202351Y-90520500D01*
X123202352Y-90520500D01*
X123404534Y-90488477D01*
X123599219Y-90425220D01*
X123781610Y-90332287D01*
X123881107Y-90259999D01*
X123947213Y-90211971D01*
X123947215Y-90211968D01*
X123947219Y-90211966D01*
X124091966Y-90067219D01*
X124091968Y-90067215D01*
X124091971Y-90067213D01*
X124184453Y-89939920D01*
X124212287Y-89901610D01*
X124305220Y-89719219D01*
X124368477Y-89524534D01*
X124400500Y-89322352D01*
X124400500Y-89117648D01*
X124396867Y-89094709D01*
X124368477Y-88915465D01*
X124310106Y-88735819D01*
X124305220Y-88720781D01*
X124305218Y-88720778D01*
X124305218Y-88720776D01*
X124233081Y-88579201D01*
X124212287Y-88538390D01*
X124197865Y-88518540D01*
X124091971Y-88372786D01*
X123947213Y-88228028D01*
X123905398Y-88197648D01*
X143899500Y-88197648D01*
X143899500Y-88402351D01*
X143931522Y-88604534D01*
X143994781Y-88799223D01*
X144087715Y-88981613D01*
X144208028Y-89147213D01*
X144352786Y-89291971D01*
X144464702Y-89373281D01*
X144518390Y-89412287D01*
X144631827Y-89470086D01*
X144700776Y-89505218D01*
X144700778Y-89505218D01*
X144700781Y-89505220D01*
X144789591Y-89534076D01*
X144895465Y-89568477D01*
X144996557Y-89584488D01*
X145097648Y-89600500D01*
X145097649Y-89600500D01*
X145302351Y-89600500D01*
X145302352Y-89600500D01*
X145504534Y-89568477D01*
X145699219Y-89505220D01*
X145881610Y-89412287D01*
X146005396Y-89322352D01*
X146047213Y-89291971D01*
X146047215Y-89291968D01*
X146047219Y-89291966D01*
X146191966Y-89147219D01*
X146191968Y-89147215D01*
X146191971Y-89147213D01*
X146259720Y-89053963D01*
X146312287Y-88981610D01*
X146405220Y-88799219D01*
X146468477Y-88604534D01*
X146500500Y-88402352D01*
X146500500Y-88352135D01*
X154599500Y-88352135D01*
X154599500Y-90047870D01*
X154599501Y-90047876D01*
X154605908Y-90107483D01*
X154656202Y-90242328D01*
X154656206Y-90242335D01*
X154677431Y-90270687D01*
X154742454Y-90357546D01*
X154751385Y-90364231D01*
X154793254Y-90420163D01*
X154798239Y-90489854D01*
X154787558Y-90519791D01*
X154695245Y-90700965D01*
X154632009Y-90895582D01*
X154600000Y-91097682D01*
X154600000Y-91302317D01*
X154632009Y-91504417D01*
X154695244Y-91699031D01*
X154788141Y-91881350D01*
X154788147Y-91881359D01*
X154820523Y-91925921D01*
X154820524Y-91925922D01*
X155500000Y-91246446D01*
X155500000Y-91252661D01*
X155527259Y-91354394D01*
X155579920Y-91445606D01*
X155654394Y-91520080D01*
X155745606Y-91572741D01*
X155847339Y-91600000D01*
X155853553Y-91600000D01*
X155174076Y-92279474D01*
X155218650Y-92311859D01*
X155400968Y-92404755D01*
X155595582Y-92467990D01*
X155797683Y-92500000D01*
X156002317Y-92500000D01*
X156204417Y-92467990D01*
X156399031Y-92404755D01*
X156581349Y-92311859D01*
X156625921Y-92279474D01*
X155946447Y-91600000D01*
X155952661Y-91600000D01*
X156054394Y-91572741D01*
X156145606Y-91520080D01*
X156220080Y-91445606D01*
X156272741Y-91354394D01*
X156300000Y-91252661D01*
X156300000Y-91246447D01*
X156979474Y-91925921D01*
X157011859Y-91881349D01*
X157104755Y-91699031D01*
X157167990Y-91504417D01*
X157200000Y-91302317D01*
X157200000Y-91097682D01*
X157167990Y-90895582D01*
X157104755Y-90700968D01*
X157012441Y-90519792D01*
X156999545Y-90451123D01*
X157025821Y-90386382D01*
X157048611Y-90364234D01*
X157057546Y-90357546D01*
X157143796Y-90242331D01*
X157194091Y-90107483D01*
X157200500Y-90047873D01*
X157200499Y-89365781D01*
X157220183Y-89298743D01*
X157236818Y-89278101D01*
X157366773Y-89148147D01*
X157779102Y-88735819D01*
X157840425Y-88702334D01*
X157866783Y-88699500D01*
X159195500Y-88699500D01*
X159262539Y-88719185D01*
X159308294Y-88771989D01*
X159319500Y-88823500D01*
X159319500Y-90947870D01*
X159319501Y-90947876D01*
X159325908Y-91007483D01*
X159376202Y-91142328D01*
X159376206Y-91142335D01*
X159462452Y-91257544D01*
X159462455Y-91257547D01*
X159577664Y-91343793D01*
X159577671Y-91343797D01*
X159712517Y-91394091D01*
X159712516Y-91394091D01*
X159719444Y-91394835D01*
X159772127Y-91400500D01*
X162067872Y-91400499D01*
X162127483Y-91394091D01*
X162262331Y-91343796D01*
X162377546Y-91257546D01*
X162463796Y-91142331D01*
X162514091Y-91007483D01*
X162520500Y-90947873D01*
X162520499Y-88823499D01*
X162540184Y-88756461D01*
X162592987Y-88710706D01*
X162644499Y-88699500D01*
X164813218Y-88699500D01*
X164880257Y-88719185D01*
X164900899Y-88735819D01*
X169753281Y-93588201D01*
X169786766Y-93649524D01*
X169788073Y-93656483D01*
X169811523Y-93804535D01*
X169874781Y-93999223D01*
X169935633Y-94118650D01*
X169967713Y-94181610D01*
X170055819Y-94302877D01*
X170079298Y-94368681D01*
X170079500Y-94375761D01*
X170079500Y-96524237D01*
X170059815Y-96591276D01*
X170055818Y-96597122D01*
X169967715Y-96718386D01*
X169874781Y-96900776D01*
X169811522Y-97095465D01*
X169779500Y-97297648D01*
X169779500Y-97502351D01*
X169811522Y-97704534D01*
X169874781Y-97899223D01*
X169938691Y-98024653D01*
X169967585Y-98081359D01*
X169967715Y-98081613D01*
X170088028Y-98247213D01*
X170232786Y-98391971D01*
X170353226Y-98479474D01*
X170398390Y-98512287D01*
X170514607Y-98571503D01*
X170580776Y-98605218D01*
X170580778Y-98605218D01*
X170580781Y-98605220D01*
X170685137Y-98639127D01*
X170775465Y-98668477D01*
X170876557Y-98684488D01*
X170977648Y-98700500D01*
X170977649Y-98700500D01*
X171182351Y-98700500D01*
X171182352Y-98700500D01*
X171384534Y-98668477D01*
X171579219Y-98605220D01*
X171761610Y-98512287D01*
X171854590Y-98444732D01*
X171927213Y-98391971D01*
X171927215Y-98391968D01*
X171927219Y-98391966D01*
X172071966Y-98247219D01*
X172071968Y-98247215D01*
X172071971Y-98247213D01*
X172124732Y-98174590D01*
X172192287Y-98081610D01*
X172285220Y-97899219D01*
X172348477Y-97704534D01*
X172380500Y-97502352D01*
X172380500Y-97297648D01*
X172362121Y-97181610D01*
X172348477Y-97095465D01*
X172288187Y-96909913D01*
X172285220Y-96900781D01*
X172285218Y-96900778D01*
X172285218Y-96900776D01*
X172236180Y-96804535D01*
X172192287Y-96718390D01*
X172160091Y-96674076D01*
X172104182Y-96597122D01*
X172080702Y-96531316D01*
X172080500Y-96524237D01*
X172080500Y-94375761D01*
X172100185Y-94308722D01*
X172104165Y-94302899D01*
X172192287Y-94181610D01*
X172285220Y-93999219D01*
X172348477Y-93804534D01*
X172380500Y-93602352D01*
X172380500Y-93397648D01*
X172371583Y-93341349D01*
X172348477Y-93195465D01*
X172285218Y-93000776D01*
X172251503Y-92934607D01*
X172192287Y-92818390D01*
X172175631Y-92795465D01*
X172071971Y-92652786D01*
X171927213Y-92508028D01*
X171761613Y-92387715D01*
X171761612Y-92387714D01*
X171761610Y-92387713D01*
X171698557Y-92355586D01*
X171579223Y-92294781D01*
X171384535Y-92231523D01*
X171236483Y-92208073D01*
X171173349Y-92178143D01*
X171168201Y-92173281D01*
X170553154Y-91558234D01*
X170519669Y-91496911D01*
X170524653Y-91427219D01*
X170566525Y-91371286D01*
X170631989Y-91346869D01*
X170679155Y-91352623D01*
X170705207Y-91361088D01*
X170705210Y-91361088D01*
X170705215Y-91361090D01*
X170954038Y-91400500D01*
X170954039Y-91400500D01*
X171205961Y-91400500D01*
X171205962Y-91400500D01*
X171454785Y-91361090D01*
X171694379Y-91283241D01*
X171918845Y-91168870D01*
X172122656Y-91020793D01*
X172300793Y-90842656D01*
X172448870Y-90638845D01*
X172563241Y-90414379D01*
X172641090Y-90174785D01*
X172680500Y-89925962D01*
X172680500Y-89674038D01*
X172641090Y-89425215D01*
X172563241Y-89185621D01*
X172563239Y-89185618D01*
X172563239Y-89185616D01*
X172498103Y-89057781D01*
X172448870Y-88961155D01*
X172325603Y-88791492D01*
X172300798Y-88757350D01*
X172300794Y-88757345D01*
X172122654Y-88579205D01*
X172122649Y-88579201D01*
X171918848Y-88431132D01*
X171918847Y-88431131D01*
X171918845Y-88431130D01*
X171848747Y-88395413D01*
X171694383Y-88316760D01*
X171454785Y-88238910D01*
X171386079Y-88228028D01*
X171205962Y-88199500D01*
X170954038Y-88199500D01*
X170829626Y-88219205D01*
X170705214Y-88238910D01*
X170465616Y-88316760D01*
X170241151Y-88431132D01*
X170037350Y-88579201D01*
X170037345Y-88579205D01*
X169859205Y-88757345D01*
X169859201Y-88757350D01*
X169711132Y-88961151D01*
X169596760Y-89185616D01*
X169518910Y-89425214D01*
X169507892Y-89494780D01*
X169479500Y-89674038D01*
X169479500Y-89925962D01*
X169486224Y-89968417D01*
X169518910Y-90174786D01*
X169518910Y-90174789D01*
X169527377Y-90200846D01*
X169529372Y-90270687D01*
X169493291Y-90330520D01*
X169430590Y-90361348D01*
X169361176Y-90353383D01*
X169321765Y-90326845D01*
X166060479Y-87065559D01*
X166060459Y-87065537D01*
X165916785Y-86921863D01*
X165916781Y-86921860D01*
X165752920Y-86812371D01*
X165752911Y-86812366D01*
X165680315Y-86782296D01*
X165624165Y-86759038D01*
X165570836Y-86736949D01*
X165570832Y-86736948D01*
X165570828Y-86736946D01*
X165474188Y-86717724D01*
X165377544Y-86698500D01*
X165377541Y-86698500D01*
X157505675Y-86698500D01*
X157505655Y-86698499D01*
X157499541Y-86698499D01*
X157302460Y-86698499D01*
X157302457Y-86698499D01*
X157109172Y-86736946D01*
X157109164Y-86736948D01*
X156927088Y-86812366D01*
X156927079Y-86812371D01*
X156763219Y-86921859D01*
X156763215Y-86921862D01*
X155821897Y-87863181D01*
X155760574Y-87896666D01*
X155734216Y-87899500D01*
X155052129Y-87899500D01*
X155052123Y-87899501D01*
X154992516Y-87905908D01*
X154857671Y-87956202D01*
X154857664Y-87956206D01*
X154742455Y-88042452D01*
X154742452Y-88042455D01*
X154656206Y-88157664D01*
X154656202Y-88157671D01*
X154605908Y-88292517D01*
X154599501Y-88352116D01*
X154599500Y-88352135D01*
X146500500Y-88352135D01*
X146500500Y-88197648D01*
X146486256Y-88107715D01*
X146468477Y-87995465D01*
X146405218Y-87800776D01*
X146360034Y-87712099D01*
X146312287Y-87618390D01*
X146304556Y-87607749D01*
X146191971Y-87452786D01*
X146047213Y-87308028D01*
X145881613Y-87187715D01*
X145881612Y-87187714D01*
X145881610Y-87187713D01*
X145824653Y-87158691D01*
X145699223Y-87094781D01*
X145504534Y-87031522D01*
X145329995Y-87003878D01*
X145302352Y-86999500D01*
X145097648Y-86999500D01*
X145073329Y-87003351D01*
X144895465Y-87031522D01*
X144700776Y-87094781D01*
X144518386Y-87187715D01*
X144352786Y-87308028D01*
X144208028Y-87452786D01*
X144087715Y-87618386D01*
X143994781Y-87800776D01*
X143931522Y-87995465D01*
X143899500Y-88197648D01*
X123905398Y-88197648D01*
X123781613Y-88107715D01*
X123781612Y-88107714D01*
X123781610Y-88107713D01*
X123724653Y-88078691D01*
X123599223Y-88014781D01*
X123404534Y-87951522D01*
X123219733Y-87922253D01*
X123156598Y-87892324D01*
X123119667Y-87833012D01*
X123120665Y-87763150D01*
X123151450Y-87712099D01*
X124268458Y-86595092D01*
X125525731Y-85337819D01*
X125587054Y-85304334D01*
X125613412Y-85301500D01*
X132097542Y-85301500D01*
X132128566Y-85295328D01*
X132194188Y-85282275D01*
X132290836Y-85263051D01*
X132344165Y-85240961D01*
X132472914Y-85187632D01*
X132636782Y-85078139D01*
X132776139Y-84938782D01*
X132776139Y-84938780D01*
X132786347Y-84928573D01*
X132786348Y-84928570D01*
X133686787Y-84028131D01*
X133748110Y-83994647D01*
X133817802Y-83999631D01*
X133873735Y-84041503D01*
X133898152Y-84106967D01*
X133897826Y-84128415D01*
X133890000Y-84205011D01*
X133890000Y-84850000D01*
X134717291Y-84850000D01*
X134705548Y-84870339D01*
X134665000Y-85021667D01*
X134665000Y-85178333D01*
X134705548Y-85329661D01*
X134717291Y-85350000D01*
X133890001Y-85350000D01*
X133890001Y-85994986D01*
X133900494Y-86097697D01*
X133955641Y-86264119D01*
X133955643Y-86264124D01*
X134047684Y-86413345D01*
X134171654Y-86537315D01*
X134320875Y-86629356D01*
X134320880Y-86629358D01*
X134487302Y-86684505D01*
X134487309Y-86684506D01*
X134590019Y-86694999D01*
X135009999Y-86694999D01*
X135010000Y-86694998D01*
X135010000Y-85642709D01*
X135030339Y-85654452D01*
X135181667Y-85695000D01*
X135338333Y-85695000D01*
X135489661Y-85654452D01*
X135510000Y-85642709D01*
X135510000Y-86694999D01*
X135929972Y-86694999D01*
X135929986Y-86694998D01*
X136032697Y-86684505D01*
X136199119Y-86629358D01*
X136199124Y-86629356D01*
X136348345Y-86537315D01*
X136472315Y-86413345D01*
X136564354Y-86264127D01*
X136564745Y-86263289D01*
X136565167Y-86262809D01*
X136568149Y-86257975D01*
X136568974Y-86258484D01*
X136610910Y-86210843D01*
X136678100Y-86191681D01*
X136744984Y-86211887D01*
X136764816Y-86227996D01*
X136907179Y-86370359D01*
X137081701Y-86497157D01*
X137273911Y-86595092D01*
X137479074Y-86661754D01*
X137558973Y-86674408D01*
X137692134Y-86695500D01*
X137692139Y-86695500D01*
X137907866Y-86695500D01*
X138026230Y-86676752D01*
X138120926Y-86661754D01*
X138326089Y-86595092D01*
X138518299Y-86497157D01*
X138692821Y-86370359D01*
X138845359Y-86217821D01*
X138969682Y-86046704D01*
X139025012Y-86004040D01*
X139094626Y-85998061D01*
X139156420Y-86030667D01*
X139170315Y-86046702D01*
X139294641Y-86217821D01*
X139447179Y-86370359D01*
X139621701Y-86497157D01*
X139813911Y-86595092D01*
X140019074Y-86661754D01*
X140098973Y-86674408D01*
X140232134Y-86695500D01*
X140232139Y-86695500D01*
X140447866Y-86695500D01*
X140566230Y-86676752D01*
X140660926Y-86661754D01*
X140866089Y-86595092D01*
X141058299Y-86497157D01*
X141232821Y-86370359D01*
X141385359Y-86217821D01*
X141512157Y-86043299D01*
X141610092Y-85851089D01*
X141676754Y-85645926D01*
X141692389Y-85547213D01*
X141710500Y-85432866D01*
X141710500Y-84767133D01*
X141676754Y-84554077D01*
X141676754Y-84554074D01*
X141610092Y-84348911D01*
X141512157Y-84156701D01*
X141385359Y-83982179D01*
X141232821Y-83829641D01*
X141058299Y-83702843D01*
X140866089Y-83604908D01*
X140660926Y-83538246D01*
X140660924Y-83538245D01*
X140660922Y-83538245D01*
X140447866Y-83504500D01*
X140447861Y-83504500D01*
X140232139Y-83504500D01*
X140232134Y-83504500D01*
X140019077Y-83538245D01*
X140019074Y-83538246D01*
X139834101Y-83598348D01*
X139813908Y-83604909D01*
X139621700Y-83702843D01*
X139548721Y-83755866D01*
X139447179Y-83829641D01*
X139447177Y-83829643D01*
X139447176Y-83829643D01*
X139294643Y-83982176D01*
X139294643Y-83982177D01*
X139294641Y-83982179D01*
X139232525Y-84067674D01*
X139170318Y-84153294D01*
X139114988Y-84195959D01*
X139045374Y-84201938D01*
X138983579Y-84169332D01*
X138969682Y-84153294D01*
X138940818Y-84113567D01*
X138845359Y-83982179D01*
X138692821Y-83829641D01*
X138518299Y-83702843D01*
X138326089Y-83604908D01*
X138120926Y-83538246D01*
X138120924Y-83538245D01*
X138120922Y-83538245D01*
X137907866Y-83504500D01*
X137907861Y-83504500D01*
X137692139Y-83504500D01*
X137692134Y-83504500D01*
X137479077Y-83538245D01*
X137479074Y-83538246D01*
X137294101Y-83598348D01*
X137273908Y-83604909D01*
X137081700Y-83702843D01*
X136907180Y-83829640D01*
X136764816Y-83972004D01*
X136703493Y-84005488D01*
X136633801Y-84000504D01*
X136577868Y-83958632D01*
X136564748Y-83936716D01*
X136564356Y-83935876D01*
X136472315Y-83786654D01*
X136348345Y-83662684D01*
X136199124Y-83570643D01*
X136199119Y-83570641D01*
X136032697Y-83515494D01*
X136032690Y-83515493D01*
X135929986Y-83505000D01*
X135510000Y-83505000D01*
X135510000Y-84557290D01*
X135489661Y-84545548D01*
X135338333Y-84505000D01*
X135181667Y-84505000D01*
X135030339Y-84545548D01*
X135010000Y-84557290D01*
X135010000Y-83505000D01*
X134590028Y-83505000D01*
X134590010Y-83505001D01*
X134513414Y-83512826D01*
X134444721Y-83500056D01*
X134393837Y-83452175D01*
X134376917Y-83384385D01*
X134399333Y-83318209D01*
X134413128Y-83301791D01*
X134517271Y-83197648D01*
X143899500Y-83197648D01*
X143899500Y-83402351D01*
X143931522Y-83604534D01*
X143994781Y-83799223D01*
X144032781Y-83873801D01*
X144086213Y-83978667D01*
X144087715Y-83981613D01*
X144208028Y-84147213D01*
X144352786Y-84291971D01*
X144473840Y-84379920D01*
X144518390Y-84412287D01*
X144601030Y-84454394D01*
X144700776Y-84505218D01*
X144700778Y-84505218D01*
X144700781Y-84505220D01*
X144805137Y-84539127D01*
X144895465Y-84568477D01*
X144996557Y-84584488D01*
X145097648Y-84600500D01*
X145097649Y-84600500D01*
X145302351Y-84600500D01*
X145302352Y-84600500D01*
X145320144Y-84597682D01*
X152320000Y-84597682D01*
X152320000Y-84802317D01*
X152352009Y-85004417D01*
X152415244Y-85199031D01*
X152508141Y-85381350D01*
X152508147Y-85381359D01*
X152540523Y-85425921D01*
X152540524Y-85425922D01*
X153220000Y-84746446D01*
X153220000Y-84752661D01*
X153247259Y-84854394D01*
X153299920Y-84945606D01*
X153374394Y-85020080D01*
X153465606Y-85072741D01*
X153567339Y-85100000D01*
X153573553Y-85100000D01*
X152894076Y-85779474D01*
X152938650Y-85811859D01*
X153120968Y-85904755D01*
X153315582Y-85967990D01*
X153517683Y-86000000D01*
X153722317Y-86000000D01*
X153924417Y-85967990D01*
X154119031Y-85904755D01*
X154301349Y-85811859D01*
X154345921Y-85779474D01*
X153666447Y-85100000D01*
X153672661Y-85100000D01*
X153774394Y-85072741D01*
X153865606Y-85020080D01*
X153940080Y-84945606D01*
X153992741Y-84854394D01*
X154020000Y-84752661D01*
X154020000Y-84746447D01*
X154699474Y-85425921D01*
X154731859Y-85381349D01*
X154824755Y-85199031D01*
X154887990Y-85004417D01*
X154920000Y-84802317D01*
X154920000Y-84597682D01*
X154887990Y-84395582D01*
X154824755Y-84200968D01*
X154731859Y-84018650D01*
X154699474Y-83974077D01*
X154699474Y-83974076D01*
X154020000Y-84653551D01*
X154020000Y-84647339D01*
X153992741Y-84545606D01*
X153940080Y-84454394D01*
X153865606Y-84379920D01*
X153774394Y-84327259D01*
X153672661Y-84300000D01*
X153666446Y-84300000D01*
X154345922Y-83620524D01*
X154345921Y-83620523D01*
X154301359Y-83588147D01*
X154301350Y-83588141D01*
X154119031Y-83495244D01*
X153924417Y-83432009D01*
X153722317Y-83400000D01*
X153517683Y-83400000D01*
X153315582Y-83432009D01*
X153120968Y-83495244D01*
X152938644Y-83588143D01*
X152894077Y-83620523D01*
X152894077Y-83620524D01*
X153573554Y-84300000D01*
X153567339Y-84300000D01*
X153465606Y-84327259D01*
X153374394Y-84379920D01*
X153299920Y-84454394D01*
X153247259Y-84545606D01*
X153220000Y-84647339D01*
X153220000Y-84653553D01*
X152540524Y-83974077D01*
X152540523Y-83974077D01*
X152508143Y-84018644D01*
X152415244Y-84200968D01*
X152352009Y-84395582D01*
X152320000Y-84597682D01*
X145320144Y-84597682D01*
X145504534Y-84568477D01*
X145699219Y-84505220D01*
X145881610Y-84412287D01*
X145926160Y-84379920D01*
X146047213Y-84291971D01*
X146047215Y-84291968D01*
X146047219Y-84291966D01*
X146191966Y-84147219D01*
X146191968Y-84147215D01*
X146191971Y-84147213D01*
X146249758Y-84067674D01*
X146312287Y-83981610D01*
X146405220Y-83799219D01*
X146468355Y-83604909D01*
X146468476Y-83604538D01*
X146468476Y-83604537D01*
X146468477Y-83604534D01*
X146500500Y-83402352D01*
X146500500Y-83197648D01*
X146469072Y-82999223D01*
X146468477Y-82995465D01*
X146405218Y-82800776D01*
X146333743Y-82660500D01*
X146312287Y-82618390D01*
X146273656Y-82565218D01*
X146191971Y-82452786D01*
X146047213Y-82308028D01*
X145881613Y-82187715D01*
X145881612Y-82187714D01*
X145881610Y-82187713D01*
X145824653Y-82158691D01*
X145699223Y-82094781D01*
X145504534Y-82031522D01*
X145329995Y-82003878D01*
X145302352Y-81999500D01*
X145097648Y-81999500D01*
X145073329Y-82003351D01*
X144895465Y-82031522D01*
X144700776Y-82094781D01*
X144518386Y-82187715D01*
X144352786Y-82308028D01*
X144208028Y-82452786D01*
X144087715Y-82618386D01*
X143994781Y-82800776D01*
X143931522Y-82995465D01*
X143899500Y-83197648D01*
X134517271Y-83197648D01*
X137858102Y-79856819D01*
X137919425Y-79823334D01*
X137945783Y-79820500D01*
X141344238Y-79820500D01*
X141411277Y-79840185D01*
X141417119Y-79844179D01*
X141538390Y-79932287D01*
X141654607Y-79991503D01*
X141720776Y-80025218D01*
X141720778Y-80025218D01*
X141720781Y-80025220D01*
X141820584Y-80057648D01*
X141915465Y-80088477D01*
X142016557Y-80104488D01*
X142117648Y-80120500D01*
X142117649Y-80120500D01*
X142322351Y-80120500D01*
X142322352Y-80120500D01*
X142524534Y-80088477D01*
X142719219Y-80025220D01*
X142901610Y-79932287D01*
X143026413Y-79841613D01*
X143067213Y-79811971D01*
X143067215Y-79811968D01*
X143067219Y-79811966D01*
X143211966Y-79667219D01*
X143211968Y-79667215D01*
X143211971Y-79667213D01*
X143277800Y-79576606D01*
X143332287Y-79501610D01*
X143425220Y-79319219D01*
X143488477Y-79124534D01*
X143520500Y-78922352D01*
X143520500Y-78717648D01*
X143494836Y-78555616D01*
X143503790Y-78486326D01*
X143548786Y-78432874D01*
X143615538Y-78412234D01*
X143682851Y-78430959D01*
X143704990Y-78448540D01*
X144574737Y-79318287D01*
X144608222Y-79379610D01*
X144603238Y-79449302D01*
X144589962Y-79474041D01*
X144590264Y-79474226D01*
X144587717Y-79478382D01*
X144494781Y-79660776D01*
X144431522Y-79855465D01*
X144399500Y-80057648D01*
X144399500Y-80262351D01*
X144431522Y-80464534D01*
X144494781Y-80659223D01*
X144587715Y-80841613D01*
X144708028Y-81007213D01*
X144852786Y-81151971D01*
X144935806Y-81212287D01*
X145018390Y-81272287D01*
X145083021Y-81305218D01*
X145200776Y-81365218D01*
X145200778Y-81365218D01*
X145200781Y-81365220D01*
X145305137Y-81399127D01*
X145395465Y-81428477D01*
X145482633Y-81442282D01*
X145543512Y-81451925D01*
X145606647Y-81481854D01*
X145611779Y-81486700D01*
X145685954Y-81560875D01*
X145702220Y-81577141D01*
X145866079Y-81686628D01*
X145866088Y-81686633D01*
X145891411Y-81697122D01*
X146048165Y-81762052D01*
X146198556Y-81791966D01*
X146227158Y-81797655D01*
X146241458Y-81800500D01*
X146241459Y-81800500D01*
X146241460Y-81800500D01*
X146438541Y-81800500D01*
X148824238Y-81800500D01*
X148891277Y-81820185D01*
X148897119Y-81824179D01*
X149018390Y-81912287D01*
X149134607Y-81971503D01*
X149200776Y-82005218D01*
X149200778Y-82005218D01*
X149200781Y-82005220D01*
X149305137Y-82039127D01*
X149395465Y-82068477D01*
X149496557Y-82084488D01*
X149597648Y-82100500D01*
X149597649Y-82100500D01*
X149802351Y-82100500D01*
X149802352Y-82100500D01*
X150004534Y-82068477D01*
X150199219Y-82005220D01*
X150381610Y-81912287D01*
X150494831Y-81830028D01*
X150547213Y-81791971D01*
X150547220Y-81791965D01*
X150611883Y-81727302D01*
X150691966Y-81647219D01*
X150691968Y-81647215D01*
X150691971Y-81647213D01*
X150754698Y-81560875D01*
X150812287Y-81481610D01*
X150905220Y-81299219D01*
X150968477Y-81104534D01*
X151000500Y-80902352D01*
X151000500Y-80697648D01*
X150971220Y-80512786D01*
X150968477Y-80495465D01*
X150927070Y-80368028D01*
X150905220Y-80300781D01*
X150905218Y-80300778D01*
X150905218Y-80300776D01*
X150829395Y-80151966D01*
X150814014Y-80121780D01*
X150800500Y-80065487D01*
X150800500Y-78775761D01*
X150820185Y-78708722D01*
X150824165Y-78702899D01*
X150912287Y-78581610D01*
X151005220Y-78399219D01*
X151068477Y-78204534D01*
X151100500Y-78002352D01*
X151100500Y-77797648D01*
X151086256Y-77707715D01*
X151068477Y-77595465D01*
X151017805Y-77439515D01*
X151005220Y-77400781D01*
X151005218Y-77400778D01*
X151005218Y-77400776D01*
X150956000Y-77304182D01*
X150912287Y-77218390D01*
X150890309Y-77188140D01*
X150791971Y-77052786D01*
X150647213Y-76908028D01*
X150481613Y-76787715D01*
X150481612Y-76787714D01*
X150481610Y-76787713D01*
X150394867Y-76743515D01*
X150299223Y-76694781D01*
X150104534Y-76631522D01*
X149929995Y-76603878D01*
X149902352Y-76599500D01*
X149697648Y-76599500D01*
X149673329Y-76603351D01*
X149495465Y-76631522D01*
X149300776Y-76694781D01*
X149118386Y-76787715D01*
X148952786Y-76908028D01*
X148808028Y-77052786D01*
X148687715Y-77218386D01*
X148594781Y-77400776D01*
X148531522Y-77595465D01*
X148499500Y-77797648D01*
X148499500Y-78002351D01*
X148531522Y-78204534D01*
X148594781Y-78399223D01*
X148669368Y-78545606D01*
X148687713Y-78581610D01*
X148775819Y-78702877D01*
X148799298Y-78768681D01*
X148799500Y-78775761D01*
X148799500Y-79675500D01*
X148779815Y-79742539D01*
X148727011Y-79788294D01*
X148675500Y-79799500D01*
X147040384Y-79799500D01*
X146973345Y-79779815D01*
X146927590Y-79727011D01*
X146922453Y-79713819D01*
X146916183Y-79694521D01*
X146905220Y-79660781D01*
X146905218Y-79660778D01*
X146905218Y-79660776D01*
X146862331Y-79576607D01*
X146812287Y-79478390D01*
X146763950Y-79411859D01*
X146724182Y-79357122D01*
X146700702Y-79291316D01*
X146700500Y-79284237D01*
X146700500Y-78930086D01*
X146685232Y-78853334D01*
X146677956Y-78816754D01*
X146662051Y-78736794D01*
X146607267Y-78604534D01*
X146586632Y-78554716D01*
X146550019Y-78499920D01*
X146477139Y-78390847D01*
X146334686Y-78248394D01*
X146334655Y-78248365D01*
X143732849Y-75646559D01*
X143732829Y-75646537D01*
X143589155Y-75502863D01*
X143589151Y-75502860D01*
X143425290Y-75393371D01*
X143425277Y-75393364D01*
X143298612Y-75340898D01*
X143298604Y-75340895D01*
X143291490Y-75337949D01*
X143243206Y-75317949D01*
X143146558Y-75298724D01*
X143138455Y-75297112D01*
X143084251Y-75286330D01*
X143035558Y-75265031D01*
X142901613Y-75167715D01*
X142901612Y-75167714D01*
X142901610Y-75167713D01*
X142808917Y-75120483D01*
X142758123Y-75072511D01*
X142741328Y-75004690D01*
X142763865Y-74938555D01*
X142808917Y-74899516D01*
X142901610Y-74852287D01*
X143022877Y-74764181D01*
X143088683Y-74740702D01*
X143095762Y-74740500D01*
X143449912Y-74740500D01*
X143480936Y-74734328D01*
X143546558Y-74721275D01*
X143643206Y-74702051D01*
X143696535Y-74679961D01*
X143825284Y-74626632D01*
X143989152Y-74517139D01*
X144128509Y-74377782D01*
X144128509Y-74377780D01*
X144138717Y-74367573D01*
X144138718Y-74367570D01*
X146477139Y-72029152D01*
X146558067Y-71908034D01*
X146586632Y-71865284D01*
X146645344Y-71723540D01*
X146662051Y-71683206D01*
X146684470Y-71570500D01*
X146700783Y-71488491D01*
X146733168Y-71426580D01*
X146793884Y-71392006D01*
X146863653Y-71395745D01*
X146910080Y-71425000D01*
X147703465Y-72218386D01*
X148473281Y-72988202D01*
X148506766Y-73049525D01*
X148508073Y-73056484D01*
X148531522Y-73204531D01*
X148531523Y-73204534D01*
X148594780Y-73399219D01*
X148683874Y-73574076D01*
X148687715Y-73581613D01*
X148808028Y-73747213D01*
X148952786Y-73891971D01*
X149073840Y-73979920D01*
X149118390Y-74012287D01*
X149201030Y-74054394D01*
X149300776Y-74105218D01*
X149300778Y-74105218D01*
X149300781Y-74105220D01*
X149405137Y-74139127D01*
X149495465Y-74168477D01*
X149596557Y-74184488D01*
X149697648Y-74200500D01*
X149697649Y-74200500D01*
X149902351Y-74200500D01*
X149902352Y-74200500D01*
X150104534Y-74168477D01*
X150299219Y-74105220D01*
X150481610Y-74012287D01*
X150629011Y-73905195D01*
X150647213Y-73891971D01*
X150647215Y-73891968D01*
X150647219Y-73891966D01*
X150791966Y-73747219D01*
X150791968Y-73747215D01*
X150791971Y-73747213D01*
X150889211Y-73613371D01*
X150912287Y-73581610D01*
X151005220Y-73399219D01*
X151068477Y-73204534D01*
X151100500Y-73002352D01*
X151100500Y-72797648D01*
X151092642Y-72748034D01*
X151068477Y-72595465D01*
X151028205Y-72471523D01*
X151005220Y-72400781D01*
X151005218Y-72400778D01*
X151005218Y-72400776D01*
X150950923Y-72294217D01*
X150912287Y-72218390D01*
X150886648Y-72183100D01*
X150791971Y-72052786D01*
X150647213Y-71908028D01*
X150481613Y-71787715D01*
X150481612Y-71787714D01*
X150481610Y-71787713D01*
X150299219Y-71694780D01*
X150104534Y-71631523D01*
X150104531Y-71631522D01*
X150104532Y-71631522D01*
X149956484Y-71608073D01*
X149893350Y-71578143D01*
X149888202Y-71573281D01*
X147684209Y-69369289D01*
X147684206Y-69369285D01*
X147684206Y-69369286D01*
X147677139Y-69362219D01*
X147677139Y-69362218D01*
X147537782Y-69222861D01*
X147537781Y-69222860D01*
X147537780Y-69222859D01*
X147373920Y-69113371D01*
X147373911Y-69113366D01*
X147299590Y-69082581D01*
X147245165Y-69060038D01*
X147191836Y-69037949D01*
X147042097Y-69008164D01*
X147038551Y-69007458D01*
X147038541Y-69007456D01*
X146998542Y-68999500D01*
X146998541Y-68999500D01*
X146575762Y-68999500D01*
X146508723Y-68979815D01*
X146502877Y-68975818D01*
X146381613Y-68887715D01*
X146381612Y-68887714D01*
X146381610Y-68887713D01*
X146310132Y-68851293D01*
X146199223Y-68794781D01*
X146004534Y-68731522D01*
X145829995Y-68703878D01*
X145802352Y-68699500D01*
X145597648Y-68699500D01*
X145573329Y-68703351D01*
X145395465Y-68731522D01*
X145200776Y-68794781D01*
X145018386Y-68887715D01*
X144852786Y-69008028D01*
X144708028Y-69152786D01*
X144587715Y-69318386D01*
X144494781Y-69500776D01*
X144431522Y-69695465D01*
X144399500Y-69897648D01*
X144399500Y-70102351D01*
X144431522Y-70304534D01*
X144494781Y-70499223D01*
X144546385Y-70600500D01*
X144587713Y-70681610D01*
X144675819Y-70802877D01*
X144682970Y-70822921D01*
X144694477Y-70840826D01*
X144697931Y-70864850D01*
X144699298Y-70868681D01*
X144699500Y-70875761D01*
X144699500Y-70925587D01*
X144679815Y-70992626D01*
X144663181Y-71013268D01*
X143061710Y-72614738D01*
X143000387Y-72648223D01*
X142930695Y-72643239D01*
X142905945Y-72629951D01*
X142905759Y-72630256D01*
X142901609Y-72627712D01*
X142855546Y-72604242D01*
X142808917Y-72580483D01*
X142758123Y-72532511D01*
X142741328Y-72464690D01*
X142763865Y-72398555D01*
X142808917Y-72359516D01*
X142901610Y-72312287D01*
X142958739Y-72270781D01*
X143067213Y-72191971D01*
X143067215Y-72191968D01*
X143067219Y-72191966D01*
X143211966Y-72047219D01*
X143211968Y-72047215D01*
X143211971Y-72047213D01*
X143264732Y-71974590D01*
X143332287Y-71881610D01*
X143425220Y-71699219D01*
X143488477Y-71504534D01*
X143520500Y-71302352D01*
X143520500Y-71097648D01*
X143519735Y-71092819D01*
X143488477Y-70895465D01*
X143456984Y-70798541D01*
X143425220Y-70700781D01*
X143425218Y-70700778D01*
X143425218Y-70700776D01*
X143373865Y-70599992D01*
X143332287Y-70518390D01*
X143308085Y-70485079D01*
X143244182Y-70397122D01*
X143220702Y-70331316D01*
X143220500Y-70324237D01*
X143220500Y-68639222D01*
X143240185Y-68572183D01*
X143292989Y-68526428D01*
X143362147Y-68516484D01*
X143417385Y-68538904D01*
X143463191Y-68572183D01*
X143518390Y-68612287D01*
X143614462Y-68661238D01*
X143700776Y-68705218D01*
X143700778Y-68705218D01*
X143700781Y-68705220D01*
X143805137Y-68739127D01*
X143895465Y-68768477D01*
X143996557Y-68784488D01*
X144097648Y-68800500D01*
X144097649Y-68800500D01*
X144302351Y-68800500D01*
X144302352Y-68800500D01*
X144504534Y-68768477D01*
X144699219Y-68705220D01*
X144881610Y-68612287D01*
X145007945Y-68520500D01*
X145047213Y-68491971D01*
X145047215Y-68491968D01*
X145047219Y-68491966D01*
X145191966Y-68347219D01*
X145312287Y-68181610D01*
X145405220Y-67999219D01*
X145468477Y-67804534D01*
X145500500Y-67602352D01*
X145500500Y-67397648D01*
X145468477Y-67195466D01*
X145405220Y-67000781D01*
X145405218Y-67000778D01*
X145405218Y-67000776D01*
X145361749Y-66915465D01*
X145312287Y-66818390D01*
X145279574Y-66773364D01*
X145191971Y-66652786D01*
X145047213Y-66508028D01*
X144881613Y-66387715D01*
X144881612Y-66387714D01*
X144881610Y-66387713D01*
X144824653Y-66358691D01*
X144699223Y-66294781D01*
X144504534Y-66231522D01*
X144329995Y-66203878D01*
X144302352Y-66199500D01*
X144097648Y-66199500D01*
X144073329Y-66203351D01*
X143895465Y-66231522D01*
X143700776Y-66294781D01*
X143518387Y-66387714D01*
X143417384Y-66461096D01*
X143351578Y-66484575D01*
X143283524Y-66468749D01*
X143234830Y-66418643D01*
X143220500Y-66360777D01*
X143220500Y-64797648D01*
X146299500Y-64797648D01*
X146299500Y-65002351D01*
X146331522Y-65204534D01*
X146394781Y-65399223D01*
X146415653Y-65440185D01*
X146468804Y-65544500D01*
X146487715Y-65581613D01*
X146608028Y-65747213D01*
X146752786Y-65891971D01*
X146905577Y-66002978D01*
X146918390Y-66012287D01*
X147028669Y-66068477D01*
X147100776Y-66105218D01*
X147100778Y-66105218D01*
X147100781Y-66105220D01*
X147205137Y-66139127D01*
X147295465Y-66168477D01*
X147396557Y-66184488D01*
X147497648Y-66200500D01*
X147497649Y-66200500D01*
X147702351Y-66200500D01*
X147702352Y-66200500D01*
X147904534Y-66168477D01*
X148099219Y-66105220D01*
X148281610Y-66012287D01*
X148376267Y-65943515D01*
X148447213Y-65891971D01*
X148447215Y-65891968D01*
X148447219Y-65891966D01*
X148591966Y-65747219D01*
X148591968Y-65747215D01*
X148591971Y-65747213D01*
X148649027Y-65668681D01*
X148712287Y-65581610D01*
X148805220Y-65399219D01*
X148868477Y-65204534D01*
X148900500Y-65002352D01*
X148900500Y-64797648D01*
X148868477Y-64595466D01*
X148866128Y-64588238D01*
X148805218Y-64400776D01*
X148741248Y-64275230D01*
X148712287Y-64218390D01*
X148704347Y-64207461D01*
X148591971Y-64052786D01*
X148447213Y-63908028D01*
X148281613Y-63787715D01*
X148281612Y-63787714D01*
X148281610Y-63787713D01*
X148220143Y-63756394D01*
X148099223Y-63694781D01*
X147904534Y-63631522D01*
X147729995Y-63603878D01*
X147702352Y-63599500D01*
X147497648Y-63599500D01*
X147473329Y-63603351D01*
X147295465Y-63631522D01*
X147100776Y-63694781D01*
X146918386Y-63787715D01*
X146752786Y-63908028D01*
X146608028Y-64052786D01*
X146487715Y-64218386D01*
X146394781Y-64400776D01*
X146331522Y-64595465D01*
X146299500Y-64797648D01*
X143220500Y-64797648D01*
X143220500Y-58479222D01*
X143240185Y-58412183D01*
X143292989Y-58366428D01*
X143362147Y-58356484D01*
X143417385Y-58378904D01*
X143497041Y-58436776D01*
X143518390Y-58452287D01*
X143634607Y-58511503D01*
X143700776Y-58545218D01*
X143700778Y-58545218D01*
X143700781Y-58545220D01*
X143760667Y-58564678D01*
X143895465Y-58608477D01*
X143996557Y-58624488D01*
X144097648Y-58640500D01*
X144097649Y-58640500D01*
X144302351Y-58640500D01*
X144302352Y-58640500D01*
X144504534Y-58608477D01*
X144699219Y-58545220D01*
X144705773Y-58541880D01*
X144774437Y-58528977D01*
X144839180Y-58555245D01*
X144849758Y-58564678D01*
X146273281Y-59988202D01*
X146306766Y-60049525D01*
X146308073Y-60056484D01*
X146331522Y-60204531D01*
X146331523Y-60204534D01*
X146356567Y-60281613D01*
X146394781Y-60399221D01*
X146487715Y-60581613D01*
X146608028Y-60747213D01*
X146752786Y-60891971D01*
X146878381Y-60983219D01*
X146918390Y-61012287D01*
X147004274Y-61056047D01*
X147100776Y-61105218D01*
X147100778Y-61105218D01*
X147100781Y-61105220D01*
X147177948Y-61130293D01*
X147295465Y-61168477D01*
X147396557Y-61184488D01*
X147497648Y-61200500D01*
X147497649Y-61200500D01*
X147702351Y-61200500D01*
X147702352Y-61200500D01*
X147904534Y-61168477D01*
X148099219Y-61105220D01*
X148281610Y-61012287D01*
X148404865Y-60922738D01*
X148447213Y-60891971D01*
X148447215Y-60891968D01*
X148447219Y-60891966D01*
X148591966Y-60747219D01*
X148661425Y-60651615D01*
X148716755Y-60608949D01*
X148761744Y-60600500D01*
X149367769Y-60600500D01*
X149434808Y-60620185D01*
X149455450Y-60636818D01*
X149561344Y-60742712D01*
X149710666Y-60834814D01*
X149792570Y-60861954D01*
X149850015Y-60901727D01*
X149876838Y-60966243D01*
X149864523Y-61035018D01*
X149826451Y-61079978D01*
X149732787Y-61148028D01*
X149732782Y-61148032D01*
X149588028Y-61292786D01*
X149467715Y-61458386D01*
X149374781Y-61640776D01*
X149311522Y-61835465D01*
X149279500Y-62037648D01*
X149279500Y-62242351D01*
X149311522Y-62444534D01*
X149374781Y-62639223D01*
X149380957Y-62651343D01*
X149447249Y-62781448D01*
X149467715Y-62821613D01*
X149588028Y-62987213D01*
X149732786Y-63131971D01*
X149827497Y-63200781D01*
X149898390Y-63252287D01*
X149989840Y-63298883D01*
X149991080Y-63299515D01*
X150041876Y-63347490D01*
X150058671Y-63415311D01*
X150036134Y-63481446D01*
X149991080Y-63520485D01*
X149898386Y-63567715D01*
X149732786Y-63688028D01*
X149588028Y-63832786D01*
X149467715Y-63998386D01*
X149374781Y-64180776D01*
X149311522Y-64375465D01*
X149283375Y-64553181D01*
X149279500Y-64577648D01*
X149279500Y-64782352D01*
X149281923Y-64797648D01*
X149311522Y-64984534D01*
X149374781Y-65179223D01*
X149467715Y-65361613D01*
X149588028Y-65527213D01*
X149732786Y-65671971D01*
X149898385Y-65792284D01*
X149898387Y-65792285D01*
X149898390Y-65792287D01*
X149985789Y-65836819D01*
X149991630Y-65839795D01*
X150042426Y-65887770D01*
X150059221Y-65955591D01*
X150036684Y-66021725D01*
X149991630Y-66060765D01*
X149898644Y-66108143D01*
X149854077Y-66140523D01*
X149854077Y-66140524D01*
X150533554Y-66820000D01*
X150527339Y-66820000D01*
X150425606Y-66847259D01*
X150334394Y-66899920D01*
X150259920Y-66974394D01*
X150207259Y-67065606D01*
X150180000Y-67167339D01*
X150180000Y-67173553D01*
X149500524Y-66494077D01*
X149500523Y-66494077D01*
X149468143Y-66538644D01*
X149375244Y-66720968D01*
X149312009Y-66915582D01*
X149280000Y-67117682D01*
X149280000Y-67322317D01*
X149312009Y-67524417D01*
X149375244Y-67719031D01*
X149468141Y-67901350D01*
X149468147Y-67901359D01*
X149500523Y-67945921D01*
X149500524Y-67945922D01*
X150180000Y-67266446D01*
X150180000Y-67272661D01*
X150207259Y-67374394D01*
X150259920Y-67465606D01*
X150334394Y-67540080D01*
X150425606Y-67592741D01*
X150527339Y-67620000D01*
X150533553Y-67620000D01*
X149854076Y-68299474D01*
X149898650Y-68331859D01*
X150080968Y-68424755D01*
X150275582Y-68487990D01*
X150477683Y-68520000D01*
X150682317Y-68520000D01*
X150884417Y-68487990D01*
X151079031Y-68424755D01*
X151261349Y-68331859D01*
X151305921Y-68299474D01*
X150626447Y-67620000D01*
X150632661Y-67620000D01*
X150734394Y-67592741D01*
X150825606Y-67540080D01*
X150900080Y-67465606D01*
X150952741Y-67374394D01*
X150980000Y-67272661D01*
X150980000Y-67266448D01*
X151659474Y-67945922D01*
X151659474Y-67945921D01*
X151691859Y-67901349D01*
X151784755Y-67719031D01*
X151847990Y-67524417D01*
X151880000Y-67322317D01*
X151880000Y-67117682D01*
X151847990Y-66915582D01*
X151784755Y-66720968D01*
X151691859Y-66538650D01*
X151659474Y-66494077D01*
X151659474Y-66494076D01*
X150980000Y-67173551D01*
X150980000Y-67167339D01*
X150952741Y-67065606D01*
X150900080Y-66974394D01*
X150825606Y-66899920D01*
X150734394Y-66847259D01*
X150632661Y-66820000D01*
X150626446Y-66820000D01*
X151305922Y-66140524D01*
X151305921Y-66140523D01*
X151261359Y-66108147D01*
X151261350Y-66108141D01*
X151168369Y-66060765D01*
X151117573Y-66012790D01*
X151100778Y-65944969D01*
X151123315Y-65878835D01*
X151168370Y-65839795D01*
X151174211Y-65836819D01*
X151261610Y-65792287D01*
X151323650Y-65747213D01*
X151427213Y-65671971D01*
X151427215Y-65671968D01*
X151427219Y-65671966D01*
X151571966Y-65527219D01*
X151571968Y-65527215D01*
X151571971Y-65527213D01*
X151651037Y-65418386D01*
X151692287Y-65361610D01*
X151785220Y-65179219D01*
X151848477Y-64984534D01*
X151880500Y-64782352D01*
X151880500Y-64577648D01*
X151875680Y-64547219D01*
X151848477Y-64375465D01*
X151797440Y-64218390D01*
X151785220Y-64180781D01*
X151785218Y-64180778D01*
X151785218Y-64180776D01*
X151740083Y-64092195D01*
X151692287Y-63998390D01*
X151682254Y-63984580D01*
X151571971Y-63832786D01*
X151427213Y-63688028D01*
X151261614Y-63567715D01*
X151255006Y-63564348D01*
X151168917Y-63520483D01*
X151118123Y-63472511D01*
X151101328Y-63404690D01*
X151123865Y-63338555D01*
X151168917Y-63299516D01*
X151261610Y-63252287D01*
X151332503Y-63200781D01*
X151427213Y-63131971D01*
X151427215Y-63131968D01*
X151427219Y-63131966D01*
X151571966Y-62987219D01*
X151571968Y-62987215D01*
X151571971Y-62987213D01*
X151669640Y-62852781D01*
X151692287Y-62821610D01*
X151785220Y-62639219D01*
X151848477Y-62444534D01*
X151880500Y-62242352D01*
X151880500Y-62037648D01*
X151848477Y-61835466D01*
X151838631Y-61805163D01*
X151836636Y-61735322D01*
X151872716Y-61675489D01*
X151935416Y-61644660D01*
X152004831Y-61652624D01*
X152044243Y-61679163D01*
X154463181Y-64098101D01*
X154496666Y-64159424D01*
X154499500Y-64185782D01*
X154499500Y-70324237D01*
X154479815Y-70391276D01*
X154475818Y-70397122D01*
X154387715Y-70518386D01*
X154294781Y-70700776D01*
X154231522Y-70895465D01*
X154199500Y-71097648D01*
X154199500Y-71302351D01*
X154231522Y-71504534D01*
X154294781Y-71699223D01*
X154339870Y-71787713D01*
X154379394Y-71865284D01*
X154387715Y-71881613D01*
X154508028Y-72047213D01*
X154652786Y-72191971D01*
X154807749Y-72304556D01*
X154818390Y-72312287D01*
X154911080Y-72359515D01*
X155000776Y-72405218D01*
X155000778Y-72405218D01*
X155000781Y-72405220D01*
X155091856Y-72434812D01*
X155195465Y-72468477D01*
X155214697Y-72471523D01*
X155397648Y-72500500D01*
X155397649Y-72500500D01*
X155602351Y-72500500D01*
X155602352Y-72500500D01*
X155804534Y-72468477D01*
X155999219Y-72405220D01*
X156181610Y-72312287D01*
X156310482Y-72218657D01*
X156347213Y-72191971D01*
X156347215Y-72191968D01*
X156347219Y-72191966D01*
X156491966Y-72047219D01*
X156491968Y-72047215D01*
X156491971Y-72047213D01*
X156544732Y-71974590D01*
X156612287Y-71881610D01*
X156705220Y-71699219D01*
X156768477Y-71504534D01*
X156800500Y-71302352D01*
X156800500Y-71097648D01*
X156799735Y-71092819D01*
X156768477Y-70895465D01*
X156736984Y-70798541D01*
X156705220Y-70700781D01*
X156705218Y-70700778D01*
X156705218Y-70700776D01*
X156653865Y-70599992D01*
X156612287Y-70518390D01*
X156588085Y-70485079D01*
X156524182Y-70397122D01*
X156500702Y-70331316D01*
X156500500Y-70324237D01*
X156500500Y-63621456D01*
X156476692Y-63501771D01*
X156473327Y-63484853D01*
X156462051Y-63428164D01*
X156427694Y-63345220D01*
X156393832Y-63263468D01*
X156386635Y-63246093D01*
X156386634Y-63246092D01*
X156386632Y-63246086D01*
X156356357Y-63200776D01*
X156277139Y-63082217D01*
X156134686Y-62939764D01*
X156134655Y-62939735D01*
X152161479Y-58966559D01*
X152161459Y-58966537D01*
X152017785Y-58822863D01*
X152017781Y-58822860D01*
X151853920Y-58713371D01*
X151853907Y-58713364D01*
X151824104Y-58701020D01*
X151769700Y-58657180D01*
X151766034Y-58651581D01*
X151722712Y-58581344D01*
X151598656Y-58457288D01*
X151449334Y-58365186D01*
X151282797Y-58310001D01*
X151282795Y-58310000D01*
X151180010Y-58299500D01*
X149979998Y-58299500D01*
X149979981Y-58299501D01*
X149877203Y-58310000D01*
X149877200Y-58310001D01*
X149710668Y-58365185D01*
X149710663Y-58365187D01*
X149561345Y-58457287D01*
X149455450Y-58563182D01*
X149394127Y-58596666D01*
X149367769Y-58599500D01*
X147801453Y-58599500D01*
X147793857Y-58601011D01*
X147724266Y-58594778D01*
X147681994Y-58567073D01*
X145866101Y-56751181D01*
X145832616Y-56689858D01*
X145837600Y-56620166D01*
X145879472Y-56564233D01*
X145944936Y-56539816D01*
X145953782Y-56539500D01*
X153673218Y-56539500D01*
X153740257Y-56559185D01*
X153760899Y-56575819D01*
X156873281Y-59688202D01*
X156906766Y-59749525D01*
X156908073Y-59756484D01*
X156931522Y-59904531D01*
X156931523Y-59904534D01*
X156994780Y-60099219D01*
X157085163Y-60276606D01*
X157087715Y-60281613D01*
X157208028Y-60447213D01*
X157352786Y-60591971D01*
X157496110Y-60696100D01*
X157518390Y-60712287D01*
X157586940Y-60747215D01*
X157611080Y-60759515D01*
X157661876Y-60807490D01*
X157678671Y-60875311D01*
X157656134Y-60941446D01*
X157611080Y-60980485D01*
X157518386Y-61027715D01*
X157352786Y-61148028D01*
X157208028Y-61292786D01*
X157087715Y-61458386D01*
X156994781Y-61640776D01*
X156931522Y-61835465D01*
X156899500Y-62037648D01*
X156899500Y-62242351D01*
X156931522Y-62444534D01*
X156994781Y-62639223D01*
X157000957Y-62651343D01*
X157067249Y-62781448D01*
X157087715Y-62821613D01*
X157208028Y-62987213D01*
X157352786Y-63131971D01*
X157447497Y-63200781D01*
X157518390Y-63252287D01*
X157609840Y-63298883D01*
X157611080Y-63299515D01*
X157661876Y-63347490D01*
X157678671Y-63415311D01*
X157656134Y-63481446D01*
X157611080Y-63520485D01*
X157518386Y-63567715D01*
X157352786Y-63688028D01*
X157208028Y-63832786D01*
X157087715Y-63998386D01*
X156994781Y-64180776D01*
X156931522Y-64375465D01*
X156903375Y-64553181D01*
X156899500Y-64577648D01*
X156899500Y-64782352D01*
X156901923Y-64797648D01*
X156931522Y-64984534D01*
X156994781Y-65179223D01*
X157087715Y-65361613D01*
X157208028Y-65527213D01*
X157352786Y-65671971D01*
X157486539Y-65769146D01*
X157518390Y-65792287D01*
X157605789Y-65836819D01*
X157611080Y-65839515D01*
X157661876Y-65887490D01*
X157678671Y-65955311D01*
X157656134Y-66021446D01*
X157611080Y-66060485D01*
X157518386Y-66107715D01*
X157352786Y-66228028D01*
X157208028Y-66372786D01*
X157087715Y-66538386D01*
X156994781Y-66720776D01*
X156931522Y-66915465D01*
X156899500Y-67117648D01*
X156899500Y-67322351D01*
X156931522Y-67524534D01*
X156994781Y-67719223D01*
X157038250Y-67804534D01*
X157087585Y-67901359D01*
X157087715Y-67901613D01*
X157208028Y-68067213D01*
X157352786Y-68211971D01*
X157473226Y-68299474D01*
X157518390Y-68332287D01*
X157634607Y-68391503D01*
X157700776Y-68425218D01*
X157700778Y-68425218D01*
X157700781Y-68425220D01*
X157805137Y-68459127D01*
X157895465Y-68488477D01*
X157973149Y-68500781D01*
X158097648Y-68520500D01*
X158097649Y-68520500D01*
X158302351Y-68520500D01*
X158302352Y-68520500D01*
X158504534Y-68488477D01*
X158699219Y-68425220D01*
X158881610Y-68332287D01*
X158974590Y-68264732D01*
X159047213Y-68211971D01*
X159047215Y-68211968D01*
X159047219Y-68211966D01*
X159191966Y-68067219D01*
X159191968Y-68067215D01*
X159191971Y-68067213D01*
X159260215Y-67973281D01*
X159312287Y-67901610D01*
X159405220Y-67719219D01*
X159468477Y-67524534D01*
X159500500Y-67322352D01*
X159500500Y-67117648D01*
X159479109Y-66982590D01*
X159468477Y-66915465D01*
X159436100Y-66815819D01*
X159405220Y-66720781D01*
X159405218Y-66720778D01*
X159405218Y-66720776D01*
X159343281Y-66599219D01*
X159312287Y-66538390D01*
X159280092Y-66494077D01*
X159191971Y-66372786D01*
X159047213Y-66228028D01*
X158881614Y-66107715D01*
X158867454Y-66100500D01*
X158788917Y-66060483D01*
X158780288Y-66052334D01*
X158769241Y-66048000D01*
X158755358Y-66028789D01*
X158738123Y-66012511D01*
X158735269Y-66000989D01*
X158728318Y-65991369D01*
X158727025Y-65967698D01*
X158721328Y-65944690D01*
X158725156Y-65933456D01*
X158724509Y-65921603D01*
X158736219Y-65900990D01*
X158743865Y-65878555D01*
X158754029Y-65869642D01*
X158759023Y-65860853D01*
X158786072Y-65841546D01*
X158787630Y-65840181D01*
X158788218Y-65839872D01*
X158881610Y-65792287D01*
X158888458Y-65787311D01*
X158896446Y-65783123D01*
X158922190Y-65777975D01*
X158946915Y-65769146D01*
X158955908Y-65771234D01*
X158964960Y-65769425D01*
X158989397Y-65779012D01*
X159014974Y-65784952D01*
X159026120Y-65793419D01*
X159030003Y-65794942D01*
X159032286Y-65798102D01*
X159041711Y-65805261D01*
X160763181Y-67526731D01*
X160796666Y-67588054D01*
X160799500Y-67614412D01*
X160799500Y-67824237D01*
X160779815Y-67891276D01*
X160775818Y-67897122D01*
X160687715Y-68018386D01*
X160594781Y-68200776D01*
X160531522Y-68395465D01*
X160499500Y-68597648D01*
X160499500Y-68802351D01*
X160531522Y-69004534D01*
X160594781Y-69199223D01*
X160648441Y-69304534D01*
X160677833Y-69362220D01*
X160687715Y-69381613D01*
X160808028Y-69547213D01*
X160952786Y-69691971D01*
X161100403Y-69799219D01*
X161118390Y-69812287D01*
X161234607Y-69871503D01*
X161300776Y-69905218D01*
X161300778Y-69905218D01*
X161300781Y-69905220D01*
X161405137Y-69939127D01*
X161495465Y-69968477D01*
X161578383Y-69981610D01*
X161697648Y-70000500D01*
X161697649Y-70000500D01*
X161902351Y-70000500D01*
X161902352Y-70000500D01*
X162104534Y-69968477D01*
X162299219Y-69905220D01*
X162481610Y-69812287D01*
X162602877Y-69724181D01*
X162668683Y-69700702D01*
X162675762Y-69700500D01*
X164275500Y-69700500D01*
X164342539Y-69720185D01*
X164388294Y-69772989D01*
X164399500Y-69824500D01*
X164399500Y-70234217D01*
X164379815Y-70301256D01*
X164363181Y-70321898D01*
X163691897Y-70993181D01*
X163630574Y-71026666D01*
X163604216Y-71029500D01*
X162804998Y-71029500D01*
X162804980Y-71029501D01*
X162702203Y-71040000D01*
X162702200Y-71040001D01*
X162535668Y-71095185D01*
X162535663Y-71095187D01*
X162386342Y-71187289D01*
X162262289Y-71311342D01*
X162170187Y-71460663D01*
X162170185Y-71460668D01*
X162148385Y-71526456D01*
X162115001Y-71627203D01*
X162115001Y-71627204D01*
X162115000Y-71627204D01*
X162104500Y-71729983D01*
X162104500Y-73070001D01*
X162104501Y-73070011D01*
X162115000Y-73172796D01*
X162115001Y-73172799D01*
X162168750Y-73335000D01*
X162170186Y-73339334D01*
X162262288Y-73488656D01*
X162386344Y-73612712D01*
X162535666Y-73704814D01*
X162535668Y-73704814D01*
X162535669Y-73704815D01*
X162536348Y-73705132D01*
X162536735Y-73705473D01*
X162541813Y-73708605D01*
X162541277Y-73709472D01*
X162588787Y-73751304D01*
X162607939Y-73818498D01*
X162587723Y-73885379D01*
X162571625Y-73905195D01*
X162429640Y-74047180D01*
X162302843Y-74221700D01*
X162204909Y-74413908D01*
X162138245Y-74619077D01*
X162104500Y-74832133D01*
X162104500Y-75047866D01*
X162135435Y-75243181D01*
X162138246Y-75260926D01*
X162204908Y-75466089D01*
X162302843Y-75658299D01*
X162429641Y-75832821D01*
X162582179Y-75985359D01*
X162674977Y-76052781D01*
X162753294Y-76109682D01*
X162795959Y-76165012D01*
X162801938Y-76234626D01*
X162769332Y-76296421D01*
X162753294Y-76310318D01*
X162582179Y-76434641D01*
X162582177Y-76434643D01*
X162582176Y-76434643D01*
X162429643Y-76587176D01*
X162429643Y-76587177D01*
X162429641Y-76587179D01*
X162417032Y-76604534D01*
X162302843Y-76761700D01*
X162204909Y-76953908D01*
X162138245Y-77159077D01*
X162104500Y-77372133D01*
X162104500Y-77587861D01*
X162104559Y-77588234D01*
X162104540Y-77588378D01*
X162104882Y-77592723D01*
X162103969Y-77592794D01*
X162095603Y-77657527D01*
X162069766Y-77695311D01*
X159441899Y-80323181D01*
X159380576Y-80356666D01*
X159354218Y-80359500D01*
X156375762Y-80359500D01*
X156308723Y-80339815D01*
X156302877Y-80335818D01*
X156181613Y-80247715D01*
X156181612Y-80247714D01*
X156181610Y-80247713D01*
X156103141Y-80207731D01*
X155999223Y-80154781D01*
X155804534Y-80091522D01*
X155629995Y-80063878D01*
X155602352Y-80059500D01*
X155397648Y-80059500D01*
X155373329Y-80063351D01*
X155195465Y-80091522D01*
X155000776Y-80154781D01*
X154818386Y-80247715D01*
X154652786Y-80368028D01*
X154508028Y-80512786D01*
X154387715Y-80678386D01*
X154294781Y-80860776D01*
X154231522Y-81055465D01*
X154199500Y-81257648D01*
X154199500Y-81462351D01*
X154231522Y-81664534D01*
X154294781Y-81859223D01*
X154338767Y-81945548D01*
X154382573Y-82031523D01*
X154387715Y-82041613D01*
X154508028Y-82207213D01*
X154652786Y-82351971D01*
X154791542Y-82452781D01*
X154818390Y-82472287D01*
X154934607Y-82531503D01*
X155000776Y-82565218D01*
X155000778Y-82565218D01*
X155000781Y-82565220D01*
X155041139Y-82578333D01*
X155195465Y-82628477D01*
X155296557Y-82644488D01*
X155397648Y-82660500D01*
X155397649Y-82660500D01*
X155602351Y-82660500D01*
X155602352Y-82660500D01*
X155804534Y-82628477D01*
X155999219Y-82565220D01*
X156181610Y-82472287D01*
X156302877Y-82384181D01*
X156368683Y-82360702D01*
X156375762Y-82360500D01*
X159918542Y-82360500D01*
X159949566Y-82354328D01*
X160015188Y-82341275D01*
X160111836Y-82322051D01*
X160165165Y-82299961D01*
X160293914Y-82246632D01*
X160457782Y-82137139D01*
X160597139Y-81997782D01*
X160597139Y-81997780D01*
X160607347Y-81987573D01*
X160607348Y-81987570D01*
X163708102Y-78886819D01*
X163769425Y-78853334D01*
X163795783Y-78850500D01*
X164032866Y-78850500D01*
X164152678Y-78831523D01*
X164245926Y-78816754D01*
X164451089Y-78750092D01*
X164643299Y-78652157D01*
X164817821Y-78525359D01*
X164970359Y-78372821D01*
X165097157Y-78198299D01*
X165195092Y-78006089D01*
X165261754Y-77800926D01*
X165283723Y-77662218D01*
X165295500Y-77587866D01*
X165295500Y-77372133D01*
X165271148Y-77218386D01*
X165261754Y-77159074D01*
X165195092Y-76953911D01*
X165097157Y-76761701D01*
X164970359Y-76587179D01*
X164817821Y-76434641D01*
X164646704Y-76310317D01*
X164604040Y-76254988D01*
X164598061Y-76185374D01*
X164630667Y-76123580D01*
X164646702Y-76109684D01*
X164817821Y-75985359D01*
X164970359Y-75832821D01*
X165097157Y-75658299D01*
X165195092Y-75466089D01*
X165261754Y-75260926D01*
X165290181Y-75081446D01*
X165295500Y-75047866D01*
X165295500Y-74832133D01*
X165273002Y-74690095D01*
X165261754Y-74619074D01*
X165195092Y-74413911D01*
X165097157Y-74221701D01*
X164970359Y-74047179D01*
X164828375Y-73905195D01*
X164794890Y-73843872D01*
X164799874Y-73774180D01*
X164841746Y-73718247D01*
X164863657Y-73705129D01*
X164864322Y-73704817D01*
X164864334Y-73704814D01*
X165013656Y-73612712D01*
X165137712Y-73488656D01*
X165229814Y-73339334D01*
X165284999Y-73172797D01*
X165295500Y-73070009D01*
X165295499Y-72270780D01*
X165315183Y-72203742D01*
X165331813Y-72183105D01*
X166037778Y-71477141D01*
X166037782Y-71477139D01*
X166177139Y-71337782D01*
X166286632Y-71173914D01*
X166296091Y-71151079D01*
X166362048Y-70991842D01*
X166362051Y-70991835D01*
X166362970Y-70987218D01*
X166382977Y-70886632D01*
X166400500Y-70798541D01*
X166400500Y-69575761D01*
X166420185Y-69508722D01*
X166424165Y-69502899D01*
X166512287Y-69381610D01*
X166605220Y-69199219D01*
X166668477Y-69004534D01*
X166700500Y-68802352D01*
X166700500Y-68597648D01*
X166668477Y-68395466D01*
X166659970Y-68369285D01*
X166612394Y-68222861D01*
X166605220Y-68200781D01*
X166605218Y-68200778D01*
X166605218Y-68200776D01*
X166551210Y-68094781D01*
X166512287Y-68018390D01*
X166498563Y-67999500D01*
X166391971Y-67852786D01*
X166247213Y-67708028D01*
X166081613Y-67587715D01*
X166081612Y-67587714D01*
X166081610Y-67587713D01*
X166011792Y-67552139D01*
X165899223Y-67494781D01*
X165704534Y-67431522D01*
X165529995Y-67403878D01*
X165502352Y-67399500D01*
X165297648Y-67399500D01*
X165273329Y-67403351D01*
X165095465Y-67431522D01*
X164900776Y-67494781D01*
X164718386Y-67587715D01*
X164597123Y-67675818D01*
X164531317Y-67699298D01*
X164524238Y-67699500D01*
X162924500Y-67699500D01*
X162857461Y-67679815D01*
X162811706Y-67627011D01*
X162800500Y-67575500D01*
X162800500Y-67050086D01*
X162800499Y-67050084D01*
X162762052Y-66856800D01*
X162762050Y-66856794D01*
X162755791Y-66841683D01*
X162735814Y-66793453D01*
X162705713Y-66720781D01*
X162686635Y-66674723D01*
X162686634Y-66674722D01*
X162686632Y-66674716D01*
X162642163Y-66608163D01*
X162577139Y-66510847D01*
X162434686Y-66368394D01*
X162434655Y-66368365D01*
X160112849Y-64046559D01*
X160112829Y-64046537D01*
X159969155Y-63902863D01*
X159969151Y-63902860D01*
X159805290Y-63793371D01*
X159805281Y-63793366D01*
X159730286Y-63762302D01*
X159676535Y-63740038D01*
X159623206Y-63717949D01*
X159482471Y-63689955D01*
X159478780Y-63689220D01*
X159478777Y-63689220D01*
X159429912Y-63679500D01*
X159429911Y-63679500D01*
X159075762Y-63679500D01*
X159008723Y-63659815D01*
X159002877Y-63655818D01*
X158881613Y-63567715D01*
X158881612Y-63567714D01*
X158881610Y-63567713D01*
X158788917Y-63520483D01*
X158738123Y-63472511D01*
X158721328Y-63404690D01*
X158743865Y-63338555D01*
X158788917Y-63299516D01*
X158881610Y-63252287D01*
X159002877Y-63164181D01*
X159068683Y-63140702D01*
X159075762Y-63140500D01*
X159458542Y-63140500D01*
X159489566Y-63134328D01*
X159555188Y-63121275D01*
X159651836Y-63102051D01*
X159705165Y-63079961D01*
X159833914Y-63026632D01*
X159997782Y-62917139D01*
X160137139Y-62777782D01*
X160137140Y-62777779D01*
X160144206Y-62770714D01*
X160144208Y-62770710D01*
X161512322Y-61402597D01*
X161573641Y-61369115D01*
X161643333Y-61374099D01*
X161687680Y-61402600D01*
X164073281Y-63788201D01*
X164106766Y-63849524D01*
X164108073Y-63856483D01*
X164131523Y-64004535D01*
X164194781Y-64199223D01*
X164258691Y-64324653D01*
X164284582Y-64375466D01*
X164287715Y-64381613D01*
X164408028Y-64547213D01*
X164552786Y-64691971D01*
X164688836Y-64790815D01*
X164718390Y-64812287D01*
X164834607Y-64871503D01*
X164900776Y-64905218D01*
X164900778Y-64905218D01*
X164900781Y-64905220D01*
X165005137Y-64939127D01*
X165095465Y-64968477D01*
X165172966Y-64980751D01*
X165243513Y-64991925D01*
X165306648Y-65021854D01*
X165311797Y-65026717D01*
X170463181Y-70178101D01*
X170496666Y-70239424D01*
X170499500Y-70265782D01*
X170499500Y-72962819D01*
X170479815Y-73029858D01*
X170449812Y-73062085D01*
X170342452Y-73142455D01*
X170256206Y-73257664D01*
X170256202Y-73257671D01*
X170205908Y-73392517D01*
X170201291Y-73435465D01*
X170199501Y-73452123D01*
X170199500Y-73452135D01*
X170199500Y-75147870D01*
X170199501Y-75147876D01*
X170205908Y-75207483D01*
X170256202Y-75342328D01*
X170256203Y-75342329D01*
X170256204Y-75342331D01*
X170342454Y-75457546D01*
X170350980Y-75463928D01*
X170392850Y-75519861D01*
X170397834Y-75589552D01*
X170387153Y-75619489D01*
X170294781Y-75800776D01*
X170231522Y-75995465D01*
X170211231Y-76123580D01*
X170199500Y-76197648D01*
X170199500Y-76402352D01*
X170207505Y-76452897D01*
X170231523Y-76604537D01*
X170264205Y-76705124D01*
X170266200Y-76774965D01*
X170233955Y-76831122D01*
X163691797Y-83373281D01*
X163630474Y-83406766D01*
X163623515Y-83408073D01*
X163475468Y-83431522D01*
X163280778Y-83494781D01*
X163098386Y-83587715D01*
X162932786Y-83708028D01*
X162788028Y-83852786D01*
X162667715Y-84018386D01*
X162574781Y-84200776D01*
X162511522Y-84395465D01*
X162479500Y-84597648D01*
X162479500Y-84802351D01*
X162511522Y-85004534D01*
X162574781Y-85199223D01*
X162601351Y-85251368D01*
X162667585Y-85381359D01*
X162667715Y-85381613D01*
X162788028Y-85547213D01*
X162932786Y-85691971D01*
X163024081Y-85758299D01*
X163098390Y-85812287D01*
X163180123Y-85853932D01*
X163280776Y-85905218D01*
X163280778Y-85905218D01*
X163280781Y-85905220D01*
X163385137Y-85939127D01*
X163475465Y-85968477D01*
X163576557Y-85984488D01*
X163677648Y-86000500D01*
X163677649Y-86000500D01*
X163882351Y-86000500D01*
X163882352Y-86000500D01*
X164084534Y-85968477D01*
X164279219Y-85905220D01*
X164461610Y-85812287D01*
X164582877Y-85724181D01*
X164648683Y-85700702D01*
X164655762Y-85700500D01*
X169097980Y-85700500D01*
X169165019Y-85720185D01*
X169199096Y-85754998D01*
X169199979Y-85754357D01*
X169202842Y-85758298D01*
X169202843Y-85758299D01*
X169329641Y-85932821D01*
X169482179Y-86085359D01*
X169656701Y-86212157D01*
X169848911Y-86310092D01*
X170054074Y-86376754D01*
X170133973Y-86389408D01*
X170267134Y-86410500D01*
X170267139Y-86410500D01*
X170932866Y-86410500D01*
X171051230Y-86391752D01*
X171145926Y-86376754D01*
X171351089Y-86310092D01*
X171543299Y-86212157D01*
X171717821Y-86085359D01*
X171870359Y-85932821D01*
X171997157Y-85758299D01*
X172095092Y-85566089D01*
X172161754Y-85360926D01*
X172179125Y-85251247D01*
X172195500Y-85147866D01*
X172195500Y-84932133D01*
X172169366Y-84767133D01*
X172161754Y-84719074D01*
X172095092Y-84513911D01*
X171997157Y-84321701D01*
X171870359Y-84147179D01*
X171727996Y-84004816D01*
X171694511Y-83943493D01*
X171699495Y-83873801D01*
X171741367Y-83817868D01*
X171763289Y-83804745D01*
X171764127Y-83804354D01*
X171913345Y-83712315D01*
X172037315Y-83588345D01*
X172129356Y-83439124D01*
X172129358Y-83439119D01*
X172184505Y-83272697D01*
X172184506Y-83272690D01*
X172194999Y-83169986D01*
X172195000Y-83169973D01*
X172195000Y-82750000D01*
X171142709Y-82750000D01*
X171154452Y-82729661D01*
X171195000Y-82578333D01*
X171195000Y-82421667D01*
X171154452Y-82270339D01*
X171142709Y-82250000D01*
X172194999Y-82250000D01*
X172194999Y-81830028D01*
X172194998Y-81830013D01*
X172184505Y-81727302D01*
X172129358Y-81560880D01*
X172129356Y-81560875D01*
X172037315Y-81411654D01*
X171913345Y-81287684D01*
X171764124Y-81195643D01*
X171764119Y-81195641D01*
X171597697Y-81140494D01*
X171597690Y-81140493D01*
X171494986Y-81130000D01*
X170850000Y-81130000D01*
X170850000Y-81957290D01*
X170829661Y-81945548D01*
X170678333Y-81905000D01*
X170521667Y-81905000D01*
X170370339Y-81945548D01*
X170350000Y-81957290D01*
X170350000Y-81130000D01*
X169705028Y-81130000D01*
X169705012Y-81130001D01*
X169602302Y-81140494D01*
X169435880Y-81195641D01*
X169435875Y-81195643D01*
X169286654Y-81287684D01*
X169162684Y-81411654D01*
X169070643Y-81560875D01*
X169070641Y-81560880D01*
X169015494Y-81727302D01*
X169015493Y-81727309D01*
X169005000Y-81830013D01*
X169005000Y-82250000D01*
X170057291Y-82250000D01*
X170045548Y-82270339D01*
X170005000Y-82421667D01*
X170005000Y-82578333D01*
X170045548Y-82729661D01*
X170057291Y-82750000D01*
X169005001Y-82750000D01*
X169005001Y-83169986D01*
X169015494Y-83272697D01*
X169070641Y-83439119D01*
X169070643Y-83439124D01*
X169114609Y-83510403D01*
X169133049Y-83577796D01*
X169112126Y-83644459D01*
X169058484Y-83689229D01*
X169009070Y-83699500D01*
X166494782Y-83699500D01*
X166427743Y-83679815D01*
X166381988Y-83627011D01*
X166372044Y-83557853D01*
X166401069Y-83494297D01*
X166407101Y-83487819D01*
X168155738Y-81739183D01*
X172277137Y-77617784D01*
X172277137Y-77617783D01*
X172277140Y-77617781D01*
X172386632Y-77453914D01*
X172462052Y-77271835D01*
X172479599Y-77183616D01*
X172500898Y-77134925D01*
X172506501Y-77127213D01*
X172612287Y-76981610D01*
X172705220Y-76799219D01*
X172768477Y-76604534D01*
X172800500Y-76402352D01*
X172800500Y-76197648D01*
X172768477Y-75995466D01*
X172761978Y-75975465D01*
X172715631Y-75832823D01*
X172705220Y-75800781D01*
X172705218Y-75800778D01*
X172705218Y-75800776D01*
X172612847Y-75619489D01*
X172599951Y-75550820D01*
X172626227Y-75486079D01*
X172649026Y-75463924D01*
X172657545Y-75457547D01*
X172676085Y-75432781D01*
X172743796Y-75342331D01*
X172794091Y-75207483D01*
X172800500Y-75147873D01*
X172800499Y-73452128D01*
X172794091Y-73392517D01*
X172743796Y-73257669D01*
X172743795Y-73257668D01*
X172743793Y-73257664D01*
X172657547Y-73142455D01*
X172550188Y-73062085D01*
X172508318Y-73006151D01*
X172500500Y-72962819D01*
X172500500Y-69701456D01*
X172481220Y-69604534D01*
X172472803Y-69562218D01*
X172462051Y-69508164D01*
X172418222Y-69402352D01*
X172386632Y-69326086D01*
X172327741Y-69237949D01*
X172277140Y-69162219D01*
X172217272Y-69102351D01*
X172137782Y-69022861D01*
X172137781Y-69022860D01*
X166726716Y-63611796D01*
X166693232Y-63550474D01*
X166691925Y-63543513D01*
X166668477Y-63395466D01*
X166668477Y-63395465D01*
X166619940Y-63246086D01*
X166605220Y-63200781D01*
X166605218Y-63200778D01*
X166605218Y-63200776D01*
X166565179Y-63122197D01*
X166512287Y-63018390D01*
X166489636Y-62987213D01*
X166391971Y-62852786D01*
X166247213Y-62708028D01*
X166081613Y-62587715D01*
X166081612Y-62587714D01*
X166081610Y-62587713D01*
X166024653Y-62558691D01*
X165899223Y-62494781D01*
X165704535Y-62431523D01*
X165556483Y-62408073D01*
X165493349Y-62378143D01*
X165488201Y-62373281D01*
X163093631Y-59978711D01*
X169549500Y-59978711D01*
X169549500Y-60221288D01*
X169581161Y-60461785D01*
X169643947Y-60696104D01*
X169736773Y-60920205D01*
X169736777Y-60920214D01*
X169743877Y-60932511D01*
X169858064Y-61130289D01*
X169858066Y-61130292D01*
X169858067Y-61130293D01*
X170005733Y-61322736D01*
X170005739Y-61322743D01*
X170177256Y-61494260D01*
X170177262Y-61494265D01*
X170369711Y-61641936D01*
X170579788Y-61763224D01*
X170803900Y-61856054D01*
X171038211Y-61918838D01*
X171218586Y-61942584D01*
X171278711Y-61950500D01*
X171278712Y-61950500D01*
X171521289Y-61950500D01*
X171569388Y-61944167D01*
X171761789Y-61918838D01*
X171996100Y-61856054D01*
X172220212Y-61763224D01*
X172430289Y-61641936D01*
X172622738Y-61494265D01*
X172794265Y-61322738D01*
X172941936Y-61130289D01*
X173063224Y-60920212D01*
X173156054Y-60696100D01*
X173218838Y-60461789D01*
X173250500Y-60221288D01*
X173250500Y-59978712D01*
X173218838Y-59738211D01*
X173156054Y-59503900D01*
X173063224Y-59279788D01*
X172941936Y-59069711D01*
X172825824Y-58918390D01*
X172794266Y-58877263D01*
X172794260Y-58877256D01*
X172622743Y-58705739D01*
X172622736Y-58705733D01*
X172430293Y-58558067D01*
X172430292Y-58558066D01*
X172430289Y-58558064D01*
X172247073Y-58452284D01*
X172220214Y-58436777D01*
X172220205Y-58436773D01*
X171996104Y-58343947D01*
X171761785Y-58281161D01*
X171521289Y-58249500D01*
X171521288Y-58249500D01*
X171278712Y-58249500D01*
X171278711Y-58249500D01*
X171038214Y-58281161D01*
X170803895Y-58343947D01*
X170579794Y-58436773D01*
X170579785Y-58436777D01*
X170420091Y-58528977D01*
X170391958Y-58545220D01*
X170369706Y-58558067D01*
X170177263Y-58705733D01*
X170177256Y-58705739D01*
X170005739Y-58877256D01*
X170005733Y-58877263D01*
X169858067Y-59069706D01*
X169736777Y-59279785D01*
X169736773Y-59279794D01*
X169643947Y-59503895D01*
X169581161Y-59738214D01*
X169549500Y-59978711D01*
X163093631Y-59978711D01*
X162836819Y-59721899D01*
X162822115Y-59694971D01*
X162805523Y-59669153D01*
X162804631Y-59662952D01*
X162803334Y-59660576D01*
X162800500Y-59634218D01*
X162800500Y-59415761D01*
X162820185Y-59348722D01*
X162824165Y-59342899D01*
X162912287Y-59221610D01*
X163005220Y-59039219D01*
X163068477Y-58844534D01*
X163100500Y-58642352D01*
X163100500Y-58437648D01*
X163081611Y-58318390D01*
X163068477Y-58235465D01*
X163005218Y-58040776D01*
X162971503Y-57974607D01*
X162912287Y-57858390D01*
X162904556Y-57847749D01*
X162791971Y-57692786D01*
X162647213Y-57548028D01*
X162481613Y-57427715D01*
X162481612Y-57427714D01*
X162481610Y-57427713D01*
X162424653Y-57398691D01*
X162299223Y-57334781D01*
X162104534Y-57271522D01*
X161929995Y-57243878D01*
X161902352Y-57239500D01*
X161697648Y-57239500D01*
X161673329Y-57243351D01*
X161495465Y-57271522D01*
X161300776Y-57334781D01*
X161118386Y-57427715D01*
X160952786Y-57548028D01*
X160808028Y-57692786D01*
X160687715Y-57858386D01*
X160594781Y-58040776D01*
X160531522Y-58235465D01*
X160499500Y-58437648D01*
X160499500Y-58642351D01*
X160531522Y-58844534D01*
X160594781Y-59039223D01*
X160687712Y-59221608D01*
X160699424Y-59237729D01*
X160722902Y-59303536D01*
X160707075Y-59371589D01*
X160686785Y-59398293D01*
X159058293Y-61026785D01*
X159034898Y-61039559D01*
X159013495Y-61055453D01*
X159004702Y-61056047D01*
X158996970Y-61060270D01*
X158970381Y-61058368D01*
X158943785Y-61060167D01*
X158934017Y-61055767D01*
X158927278Y-61055286D01*
X158910764Y-61047705D01*
X158903985Y-61043969D01*
X158881610Y-61027713D01*
X158787126Y-60979571D01*
X158785366Y-60978601D01*
X158762131Y-60955185D01*
X158738123Y-60932511D01*
X158737621Y-60930484D01*
X158736153Y-60929005D01*
X158729263Y-60896736D01*
X158721328Y-60864690D01*
X158722000Y-60862715D01*
X158721565Y-60860675D01*
X158733221Y-60829787D01*
X158743865Y-60798555D01*
X158745564Y-60797082D01*
X158746235Y-60795306D01*
X158755878Y-60788144D01*
X158788917Y-60759516D01*
X158881610Y-60712287D01*
X158903890Y-60696100D01*
X159047213Y-60591971D01*
X159047215Y-60591968D01*
X159047219Y-60591966D01*
X159191966Y-60447219D01*
X159191968Y-60447215D01*
X159191971Y-60447213D01*
X159283048Y-60321854D01*
X159312287Y-60281610D01*
X159405220Y-60099219D01*
X159468477Y-59904534D01*
X159500500Y-59702352D01*
X159500500Y-59497648D01*
X159485034Y-59400000D01*
X159468477Y-59295465D01*
X159406233Y-59103900D01*
X159405220Y-59100781D01*
X159405218Y-59100778D01*
X159405218Y-59100776D01*
X159336819Y-58966537D01*
X159312287Y-58918390D01*
X159284239Y-58879785D01*
X159191971Y-58752786D01*
X159047213Y-58608028D01*
X158881613Y-58487715D01*
X158881612Y-58487714D01*
X158881610Y-58487713D01*
X158699219Y-58394780D01*
X158504534Y-58331523D01*
X158504531Y-58331522D01*
X158504532Y-58331522D01*
X158356484Y-58308073D01*
X158293350Y-58278143D01*
X158288202Y-58273281D01*
X156717139Y-56702218D01*
X155127100Y-55112180D01*
X155093616Y-55050858D01*
X155098600Y-54981166D01*
X155140472Y-54925233D01*
X155205936Y-54900816D01*
X155214782Y-54900500D01*
X175175500Y-54900500D01*
X175242539Y-54920185D01*
X175288294Y-54972989D01*
X175299500Y-55024500D01*
X175299500Y-110375500D01*
X175279815Y-110442539D01*
X175227011Y-110488294D01*
X175175500Y-110499500D01*
X102624500Y-110499500D01*
X102557461Y-110479815D01*
X102511706Y-110427011D01*
X102500500Y-110375500D01*
X102500500Y-105778711D01*
X105849500Y-105778711D01*
X105849500Y-106021288D01*
X105881161Y-106261785D01*
X105943947Y-106496104D01*
X106036773Y-106720205D01*
X106036776Y-106720212D01*
X106158064Y-106930289D01*
X106158066Y-106930292D01*
X106158067Y-106930293D01*
X106305733Y-107122736D01*
X106305739Y-107122743D01*
X106477256Y-107294260D01*
X106477262Y-107294265D01*
X106669711Y-107441936D01*
X106879788Y-107563224D01*
X107103900Y-107656054D01*
X107338211Y-107718838D01*
X107518586Y-107742584D01*
X107578711Y-107750500D01*
X107578712Y-107750500D01*
X107821289Y-107750500D01*
X107869388Y-107744167D01*
X108061789Y-107718838D01*
X108296100Y-107656054D01*
X108520212Y-107563224D01*
X108730289Y-107441936D01*
X108922738Y-107294265D01*
X109094265Y-107122738D01*
X109241936Y-106930289D01*
X109363224Y-106720212D01*
X109456054Y-106496100D01*
X109518838Y-106261789D01*
X109550500Y-106021288D01*
X109550500Y-105778712D01*
X109550500Y-105778711D01*
X169449500Y-105778711D01*
X169449500Y-106021288D01*
X169481161Y-106261785D01*
X169543947Y-106496104D01*
X169636773Y-106720205D01*
X169636776Y-106720212D01*
X169758064Y-106930289D01*
X169758066Y-106930292D01*
X169758067Y-106930293D01*
X169905733Y-107122736D01*
X169905739Y-107122743D01*
X170077256Y-107294260D01*
X170077262Y-107294265D01*
X170269711Y-107441936D01*
X170479788Y-107563224D01*
X170703900Y-107656054D01*
X170938211Y-107718838D01*
X171118586Y-107742584D01*
X171178711Y-107750500D01*
X171178712Y-107750500D01*
X171421289Y-107750500D01*
X171469388Y-107744167D01*
X171661789Y-107718838D01*
X171896100Y-107656054D01*
X172120212Y-107563224D01*
X172330289Y-107441936D01*
X172522738Y-107294265D01*
X172694265Y-107122738D01*
X172841936Y-106930289D01*
X172963224Y-106720212D01*
X173056054Y-106496100D01*
X173118838Y-106261789D01*
X173150500Y-106021288D01*
X173150500Y-105778712D01*
X173118838Y-105538211D01*
X173056054Y-105303900D01*
X172963224Y-105079788D01*
X172841936Y-104869711D01*
X172694265Y-104677262D01*
X172694260Y-104677256D01*
X172522743Y-104505739D01*
X172522736Y-104505733D01*
X172330293Y-104358067D01*
X172330292Y-104358066D01*
X172330289Y-104358064D01*
X172120212Y-104236776D01*
X172031333Y-104199961D01*
X171896104Y-104143947D01*
X171661785Y-104081161D01*
X171421289Y-104049500D01*
X171421288Y-104049500D01*
X171178712Y-104049500D01*
X171178711Y-104049500D01*
X170938214Y-104081161D01*
X170703895Y-104143947D01*
X170479794Y-104236773D01*
X170479788Y-104236776D01*
X170353548Y-104309661D01*
X170269706Y-104358067D01*
X170077263Y-104505733D01*
X170077256Y-104505739D01*
X169905739Y-104677256D01*
X169905733Y-104677263D01*
X169758067Y-104869706D01*
X169636777Y-105079785D01*
X169636773Y-105079794D01*
X169543947Y-105303895D01*
X169481161Y-105538214D01*
X169449500Y-105778711D01*
X109550500Y-105778711D01*
X109518838Y-105538211D01*
X109456054Y-105303900D01*
X109363224Y-105079788D01*
X109241936Y-104869711D01*
X109094265Y-104677262D01*
X109094260Y-104677256D01*
X108922743Y-104505739D01*
X108922736Y-104505733D01*
X108730293Y-104358067D01*
X108730292Y-104358066D01*
X108730289Y-104358064D01*
X108520212Y-104236776D01*
X108431333Y-104199961D01*
X108296104Y-104143947D01*
X108061785Y-104081161D01*
X107821289Y-104049500D01*
X107821288Y-104049500D01*
X107578712Y-104049500D01*
X107578711Y-104049500D01*
X107338214Y-104081161D01*
X107103895Y-104143947D01*
X106879794Y-104236773D01*
X106879788Y-104236776D01*
X106753548Y-104309661D01*
X106669706Y-104358067D01*
X106477263Y-104505733D01*
X106477256Y-104505739D01*
X106305739Y-104677256D01*
X106305733Y-104677263D01*
X106158067Y-104869706D01*
X106036777Y-105079785D01*
X106036773Y-105079794D01*
X105943947Y-105303895D01*
X105881161Y-105538214D01*
X105849500Y-105778711D01*
X102500500Y-105778711D01*
X102500500Y-103157648D01*
X129399500Y-103157648D01*
X129399500Y-103362351D01*
X129431522Y-103564534D01*
X129494781Y-103759223D01*
X129587715Y-103941613D01*
X129708028Y-104107213D01*
X129852786Y-104251971D01*
X129998818Y-104358067D01*
X130018390Y-104372287D01*
X130098021Y-104412861D01*
X130200776Y-104465218D01*
X130200778Y-104465218D01*
X130200781Y-104465220D01*
X130305137Y-104499127D01*
X130395465Y-104528477D01*
X130496557Y-104544488D01*
X130597648Y-104560500D01*
X130597649Y-104560500D01*
X130802351Y-104560500D01*
X130802352Y-104560500D01*
X131004534Y-104528477D01*
X131199219Y-104465220D01*
X131381610Y-104372287D01*
X131502877Y-104284181D01*
X131568683Y-104260702D01*
X131575762Y-104260500D01*
X134358543Y-104260500D01*
X134430974Y-104246091D01*
X134477808Y-104236776D01*
X134551836Y-104222051D01*
X134605165Y-104199961D01*
X134733914Y-104146632D01*
X134774308Y-104119640D01*
X134823798Y-104100270D01*
X135024534Y-104068477D01*
X135219219Y-104005220D01*
X135401610Y-103912287D01*
X135494590Y-103844732D01*
X135567213Y-103791971D01*
X135567215Y-103791968D01*
X135567219Y-103791966D01*
X135711966Y-103647219D01*
X135711968Y-103647215D01*
X135711971Y-103647213D01*
X135772040Y-103564534D01*
X135832287Y-103481610D01*
X135925220Y-103299219D01*
X135988477Y-103104534D01*
X136020500Y-102902352D01*
X136020500Y-102697648D01*
X136002644Y-102584909D01*
X135988477Y-102495465D01*
X135925218Y-102300776D01*
X135891503Y-102234607D01*
X135832287Y-102118390D01*
X135786072Y-102054780D01*
X135711971Y-101952786D01*
X135567213Y-101808028D01*
X135401613Y-101687715D01*
X135401612Y-101687714D01*
X135401610Y-101687713D01*
X135344653Y-101658691D01*
X135219223Y-101594781D01*
X135024534Y-101531522D01*
X134849995Y-101503878D01*
X134822352Y-101499500D01*
X134617648Y-101499500D01*
X134593329Y-101503351D01*
X134415465Y-101531522D01*
X134220776Y-101594781D01*
X134038386Y-101687715D01*
X133872786Y-101808028D01*
X133728028Y-101952786D01*
X133607715Y-102118386D01*
X133570311Y-102191795D01*
X133522336Y-102242591D01*
X133459826Y-102259500D01*
X131575762Y-102259500D01*
X131508723Y-102239815D01*
X131502877Y-102235818D01*
X131381613Y-102147715D01*
X131381612Y-102147714D01*
X131381610Y-102147713D01*
X131324053Y-102118386D01*
X131199223Y-102054781D01*
X131004534Y-101991522D01*
X130829995Y-101963878D01*
X130802352Y-101959500D01*
X130597648Y-101959500D01*
X130573329Y-101963351D01*
X130395465Y-101991522D01*
X130200776Y-102054781D01*
X130018386Y-102147715D01*
X129852786Y-102268028D01*
X129708028Y-102412786D01*
X129587715Y-102578386D01*
X129494781Y-102760776D01*
X129431522Y-102955465D01*
X129399500Y-103157648D01*
X102500500Y-103157648D01*
X102500500Y-98497682D01*
X107220000Y-98497682D01*
X107220000Y-98702317D01*
X107252009Y-98904417D01*
X107315244Y-99099031D01*
X107408141Y-99281350D01*
X107408147Y-99281359D01*
X107440523Y-99325921D01*
X107440524Y-99325922D01*
X108120000Y-98646446D01*
X108120000Y-98652661D01*
X108147259Y-98754394D01*
X108199920Y-98845606D01*
X108274394Y-98920080D01*
X108365606Y-98972741D01*
X108467339Y-99000000D01*
X108473553Y-99000000D01*
X107794076Y-99679474D01*
X107838650Y-99711859D01*
X108020968Y-99804755D01*
X108215582Y-99867990D01*
X108417683Y-99900000D01*
X108622317Y-99900000D01*
X108824417Y-99867990D01*
X109019031Y-99804755D01*
X109201349Y-99711859D01*
X109245921Y-99679474D01*
X108566447Y-99000000D01*
X108572661Y-99000000D01*
X108674394Y-98972741D01*
X108765606Y-98920080D01*
X108840080Y-98845606D01*
X108892741Y-98754394D01*
X108920000Y-98652661D01*
X108920000Y-98646447D01*
X109599474Y-99325921D01*
X109631859Y-99281349D01*
X109724755Y-99099031D01*
X109787990Y-98904417D01*
X109820000Y-98702317D01*
X109820000Y-98497682D01*
X109787990Y-98295582D01*
X109724755Y-98100968D01*
X109631859Y-97918650D01*
X109599474Y-97874077D01*
X109599474Y-97874076D01*
X108920000Y-98553551D01*
X108920000Y-98547339D01*
X108892741Y-98445606D01*
X108840080Y-98354394D01*
X108765606Y-98279920D01*
X108674394Y-98227259D01*
X108572661Y-98200000D01*
X108566446Y-98200000D01*
X109245922Y-97520524D01*
X109245921Y-97520523D01*
X109201359Y-97488147D01*
X109201350Y-97488141D01*
X109019031Y-97395244D01*
X108824417Y-97332009D01*
X108622317Y-97300000D01*
X108417683Y-97300000D01*
X108215582Y-97332009D01*
X108020968Y-97395244D01*
X107838644Y-97488143D01*
X107794077Y-97520523D01*
X107794077Y-97520524D01*
X108473554Y-98200000D01*
X108467339Y-98200000D01*
X108365606Y-98227259D01*
X108274394Y-98279920D01*
X108199920Y-98354394D01*
X108147259Y-98445606D01*
X108120000Y-98547339D01*
X108120000Y-98553553D01*
X107440524Y-97874077D01*
X107440523Y-97874077D01*
X107408143Y-97918644D01*
X107315244Y-98100968D01*
X107252009Y-98295582D01*
X107220000Y-98497682D01*
X102500500Y-98497682D01*
X102500500Y-94697648D01*
X107219500Y-94697648D01*
X107219500Y-94902351D01*
X107251522Y-95104534D01*
X107314781Y-95299223D01*
X107353962Y-95376118D01*
X107406798Y-95479815D01*
X107407715Y-95481613D01*
X107528028Y-95647213D01*
X107672786Y-95791971D01*
X107800253Y-95884579D01*
X107838390Y-95912287D01*
X107954607Y-95971503D01*
X108020776Y-96005218D01*
X108020778Y-96005218D01*
X108020781Y-96005220D01*
X108125137Y-96039127D01*
X108215465Y-96068477D01*
X108316557Y-96084488D01*
X108417648Y-96100500D01*
X108417649Y-96100500D01*
X108622351Y-96100500D01*
X108622352Y-96100500D01*
X108824534Y-96068477D01*
X109019219Y-96005220D01*
X109201610Y-95912287D01*
X109296565Y-95843299D01*
X109367213Y-95791971D01*
X109367215Y-95791968D01*
X109367219Y-95791966D01*
X109511966Y-95647219D01*
X109511968Y-95647215D01*
X109511971Y-95647213D01*
X109596799Y-95530455D01*
X109632287Y-95481610D01*
X109725220Y-95299219D01*
X109788477Y-95104534D01*
X109820500Y-94902352D01*
X109820500Y-94697648D01*
X109788477Y-94495466D01*
X109725220Y-94300781D01*
X109725218Y-94300778D01*
X109725218Y-94300776D01*
X109680128Y-94212284D01*
X109632287Y-94118390D01*
X109592551Y-94063697D01*
X109544182Y-93997122D01*
X109537029Y-93977077D01*
X109525523Y-93959172D01*
X109522068Y-93935145D01*
X109520702Y-93931316D01*
X109520500Y-93924237D01*
X109520500Y-93725782D01*
X109540185Y-93658743D01*
X109556819Y-93638101D01*
X110289314Y-92905606D01*
X111168204Y-92026715D01*
X111229525Y-91993232D01*
X111236475Y-91991926D01*
X111384534Y-91968477D01*
X111579219Y-91905220D01*
X111761610Y-91812287D01*
X111882877Y-91724181D01*
X111948683Y-91700702D01*
X111955762Y-91700500D01*
X114004238Y-91700500D01*
X114071277Y-91720185D01*
X114077119Y-91724179D01*
X114198390Y-91812287D01*
X114314607Y-91871503D01*
X114380776Y-91905218D01*
X114380778Y-91905218D01*
X114380781Y-91905220D01*
X114485137Y-91939127D01*
X114575465Y-91968477D01*
X114676557Y-91984488D01*
X114777648Y-92000500D01*
X114777649Y-92000500D01*
X114982351Y-92000500D01*
X114982352Y-92000500D01*
X115184534Y-91968477D01*
X115379219Y-91905220D01*
X115561610Y-91812287D01*
X115712781Y-91702456D01*
X115727213Y-91691971D01*
X115727215Y-91691968D01*
X115727219Y-91691966D01*
X115871966Y-91547219D01*
X115871968Y-91547215D01*
X115871971Y-91547213D01*
X115938789Y-91455244D01*
X115992287Y-91381610D01*
X116085220Y-91199219D01*
X116148477Y-91004534D01*
X116180500Y-90802352D01*
X116180500Y-90597648D01*
X116168169Y-90519792D01*
X116148477Y-90395465D01*
X116104461Y-90259999D01*
X116085220Y-90200781D01*
X116085218Y-90200778D01*
X116085218Y-90200776D01*
X116036726Y-90105606D01*
X115992287Y-90018390D01*
X115946655Y-89955582D01*
X115871971Y-89852786D01*
X115727213Y-89708028D01*
X115561613Y-89587715D01*
X115561612Y-89587714D01*
X115561610Y-89587713D01*
X115456342Y-89534076D01*
X115379223Y-89494781D01*
X115184534Y-89431522D01*
X114996690Y-89401771D01*
X114982352Y-89399500D01*
X114777648Y-89399500D01*
X114763310Y-89401771D01*
X114575465Y-89431522D01*
X114380776Y-89494781D01*
X114198386Y-89587715D01*
X114077123Y-89675818D01*
X114011317Y-89699298D01*
X114004238Y-89699500D01*
X111955762Y-89699500D01*
X111888723Y-89679815D01*
X111882877Y-89675818D01*
X111761613Y-89587715D01*
X111761612Y-89587714D01*
X111761610Y-89587713D01*
X111656342Y-89534076D01*
X111579223Y-89494781D01*
X111384534Y-89431522D01*
X111196690Y-89401771D01*
X111182352Y-89399500D01*
X110977648Y-89399500D01*
X110963310Y-89401771D01*
X110775465Y-89431522D01*
X110580776Y-89494781D01*
X110398386Y-89587715D01*
X110232786Y-89708028D01*
X110088028Y-89852786D01*
X109967715Y-90018386D01*
X109874781Y-90200778D01*
X109811522Y-90395468D01*
X109788073Y-90543514D01*
X109758143Y-90606649D01*
X109753281Y-90611796D01*
X108344967Y-92020112D01*
X107882220Y-92482859D01*
X107882218Y-92482861D01*
X107812538Y-92552540D01*
X107742859Y-92622219D01*
X107633371Y-92786079D01*
X107633364Y-92786092D01*
X107557950Y-92968160D01*
X107557947Y-92968170D01*
X107519500Y-93161456D01*
X107519500Y-93924237D01*
X107499815Y-93991276D01*
X107495818Y-93997122D01*
X107407715Y-94118386D01*
X107314781Y-94300776D01*
X107251522Y-94495465D01*
X107219500Y-94697648D01*
X102500500Y-94697648D01*
X102500500Y-71526456D01*
X102799500Y-71526456D01*
X102799500Y-88518544D01*
X102837946Y-88711828D01*
X102837949Y-88711837D01*
X102843852Y-88726087D01*
X102843853Y-88726089D01*
X102913368Y-88893914D01*
X102913369Y-88893917D01*
X103022860Y-89057781D01*
X103022863Y-89057785D01*
X103166537Y-89201459D01*
X103166559Y-89201479D01*
X104753281Y-90788201D01*
X104786766Y-90849524D01*
X104788073Y-90856483D01*
X104811523Y-91004535D01*
X104874781Y-91199223D01*
X104917590Y-91283239D01*
X104952943Y-91352623D01*
X104967715Y-91381613D01*
X105088028Y-91547213D01*
X105232786Y-91691971D01*
X105380790Y-91799500D01*
X105398390Y-91812287D01*
X105514607Y-91871503D01*
X105580776Y-91905218D01*
X105580778Y-91905218D01*
X105580781Y-91905220D01*
X105685137Y-91939127D01*
X105775465Y-91968477D01*
X105876557Y-91984488D01*
X105977648Y-92000500D01*
X105977649Y-92000500D01*
X106182351Y-92000500D01*
X106182352Y-92000500D01*
X106384534Y-91968477D01*
X106579219Y-91905220D01*
X106761610Y-91812287D01*
X106912781Y-91702456D01*
X106927213Y-91691971D01*
X106927215Y-91691968D01*
X106927219Y-91691966D01*
X107071966Y-91547219D01*
X107071968Y-91547215D01*
X107071971Y-91547213D01*
X107138789Y-91455244D01*
X107192287Y-91381610D01*
X107285220Y-91199219D01*
X107348477Y-91004534D01*
X107380500Y-90802352D01*
X107380500Y-90597648D01*
X107368169Y-90519792D01*
X107348477Y-90395465D01*
X107304461Y-90259999D01*
X107285220Y-90200781D01*
X107285218Y-90200778D01*
X107285218Y-90200776D01*
X107236726Y-90105606D01*
X107192287Y-90018390D01*
X107146655Y-89955582D01*
X107071971Y-89852786D01*
X106927213Y-89708028D01*
X106761613Y-89587715D01*
X106761612Y-89587714D01*
X106761610Y-89587713D01*
X106656342Y-89534076D01*
X106579223Y-89494781D01*
X106384535Y-89431523D01*
X106236483Y-89408073D01*
X106173349Y-89378143D01*
X106168201Y-89373281D01*
X104836819Y-88041899D01*
X104803334Y-87980576D01*
X104800500Y-87954218D01*
X104800500Y-84650000D01*
X109770898Y-84650000D01*
X110816988Y-84650000D01*
X110784075Y-84707007D01*
X110750000Y-84834174D01*
X110750000Y-84965826D01*
X110784075Y-85092993D01*
X110816988Y-85150000D01*
X109770898Y-85150000D01*
X109786934Y-85251247D01*
X109859897Y-85475802D01*
X109967085Y-85686171D01*
X110105866Y-85877186D01*
X110272813Y-86044133D01*
X110463828Y-86182914D01*
X110674197Y-86290102D01*
X110898752Y-86363065D01*
X110898751Y-86363065D01*
X111131948Y-86400000D01*
X111250000Y-86400000D01*
X111250000Y-85400000D01*
X111750000Y-85400000D01*
X111750000Y-86400000D01*
X111868052Y-86400000D01*
X112101247Y-86363065D01*
X112325802Y-86290102D01*
X112536171Y-86182914D01*
X112727186Y-86044133D01*
X112894137Y-85877182D01*
X112899369Y-85869981D01*
X112954696Y-85827312D01*
X113024309Y-85821329D01*
X113086106Y-85853932D01*
X113100008Y-85869974D01*
X113105247Y-85877186D01*
X113105483Y-85877510D01*
X113272490Y-86044517D01*
X113463567Y-86183343D01*
X113562991Y-86234002D01*
X113674003Y-86290566D01*
X113674005Y-86290566D01*
X113674008Y-86290568D01*
X113794412Y-86329689D01*
X113898631Y-86363553D01*
X114131903Y-86400500D01*
X114131908Y-86400500D01*
X114868097Y-86400500D01*
X115101368Y-86363553D01*
X115102870Y-86363065D01*
X115325992Y-86290568D01*
X115536433Y-86183343D01*
X115727510Y-86044517D01*
X115894517Y-85877510D01*
X115899682Y-85870401D01*
X115955012Y-85827735D01*
X116024625Y-85821756D01*
X116086420Y-85854362D01*
X116100318Y-85870401D01*
X116105483Y-85877510D01*
X116272490Y-86044517D01*
X116463567Y-86183343D01*
X116562991Y-86234002D01*
X116674003Y-86290566D01*
X116674005Y-86290566D01*
X116674008Y-86290568D01*
X116794412Y-86329689D01*
X116898631Y-86363553D01*
X117131903Y-86400500D01*
X117131908Y-86400500D01*
X117868097Y-86400500D01*
X118101368Y-86363553D01*
X118102870Y-86363065D01*
X118325992Y-86290568D01*
X118536433Y-86183343D01*
X118727510Y-86044517D01*
X118894517Y-85877510D01*
X119033343Y-85686433D01*
X119140568Y-85475992D01*
X119213553Y-85251368D01*
X119229947Y-85147861D01*
X119250500Y-85018097D01*
X119250500Y-84781902D01*
X119213553Y-84548631D01*
X119158735Y-84379920D01*
X119140568Y-84324008D01*
X119140566Y-84324005D01*
X119140566Y-84324003D01*
X119075324Y-84195959D01*
X119033343Y-84113567D01*
X118894517Y-83922490D01*
X118727510Y-83755483D01*
X118536433Y-83616657D01*
X118513376Y-83604909D01*
X118325996Y-83509433D01*
X118101368Y-83436446D01*
X117868097Y-83399500D01*
X117868092Y-83399500D01*
X117131908Y-83399500D01*
X117131903Y-83399500D01*
X116898631Y-83436446D01*
X116674003Y-83509433D01*
X116463566Y-83616657D01*
X116354550Y-83695862D01*
X116272490Y-83755483D01*
X116272488Y-83755485D01*
X116272487Y-83755485D01*
X116105482Y-83922490D01*
X116100315Y-83929603D01*
X116044983Y-83972266D01*
X115975370Y-83978242D01*
X115913576Y-83945634D01*
X115899685Y-83929603D01*
X115894517Y-83922490D01*
X115727511Y-83755484D01*
X115551614Y-83627686D01*
X115508949Y-83572355D01*
X115500500Y-83527368D01*
X115500500Y-80165781D01*
X115520185Y-80098742D01*
X115536815Y-80078104D01*
X115988203Y-79626715D01*
X116049524Y-79593232D01*
X116056473Y-79591927D01*
X116204534Y-79568477D01*
X116399219Y-79505220D01*
X116581610Y-79412287D01*
X116702877Y-79324181D01*
X116768683Y-79300702D01*
X116775762Y-79300500D01*
X117799637Y-79300500D01*
X117866676Y-79320185D01*
X117912431Y-79372989D01*
X117922110Y-79405103D01*
X117931521Y-79464529D01*
X117931522Y-79464531D01*
X117931523Y-79464534D01*
X117994780Y-79659219D01*
X118072611Y-79811971D01*
X118087715Y-79841613D01*
X118208028Y-80007213D01*
X118352786Y-80151971D01*
X118507749Y-80264556D01*
X118518390Y-80272287D01*
X118618275Y-80323181D01*
X118700776Y-80365218D01*
X118700778Y-80365218D01*
X118700781Y-80365220D01*
X118805137Y-80399127D01*
X118895465Y-80428477D01*
X118996557Y-80444488D01*
X119097648Y-80460500D01*
X119097649Y-80460500D01*
X119302351Y-80460500D01*
X119302352Y-80460500D01*
X119504534Y-80428477D01*
X119699219Y-80365220D01*
X119881610Y-80272287D01*
X119977869Y-80202351D01*
X120047213Y-80151971D01*
X120047215Y-80151968D01*
X120047219Y-80151966D01*
X120191966Y-80007219D01*
X120191968Y-80007215D01*
X120191971Y-80007213D01*
X120246718Y-79931859D01*
X120312287Y-79841610D01*
X120405220Y-79659219D01*
X120468477Y-79464534D01*
X120500500Y-79262352D01*
X120500500Y-79057648D01*
X120479152Y-78922862D01*
X120468477Y-78855465D01*
X120429918Y-78736794D01*
X120405220Y-78660781D01*
X120405218Y-78660778D01*
X120405218Y-78660776D01*
X120364880Y-78581610D01*
X120312287Y-78478390D01*
X120269865Y-78420000D01*
X120191971Y-78312786D01*
X120047213Y-78168028D01*
X119881613Y-78047715D01*
X119881612Y-78047714D01*
X119881610Y-78047713D01*
X119812083Y-78012287D01*
X119699223Y-77954781D01*
X119504535Y-77891523D01*
X119356483Y-77868073D01*
X119337252Y-77858956D01*
X119316455Y-77854432D01*
X119297021Y-77839883D01*
X119293349Y-77838143D01*
X119288201Y-77833281D01*
X119124209Y-77669289D01*
X119124207Y-77669286D01*
X119124206Y-77669285D01*
X119124206Y-77669286D01*
X119117139Y-77662219D01*
X119117139Y-77662218D01*
X118977782Y-77522861D01*
X118977781Y-77522860D01*
X118977780Y-77522859D01*
X118813920Y-77413371D01*
X118813911Y-77413366D01*
X118741315Y-77383296D01*
X118685165Y-77360038D01*
X118631836Y-77337949D01*
X118631832Y-77337948D01*
X118631828Y-77337946D01*
X118535188Y-77318724D01*
X118438544Y-77299500D01*
X118438541Y-77299500D01*
X116775762Y-77299500D01*
X116708723Y-77279815D01*
X116702877Y-77275818D01*
X116675781Y-77256132D01*
X116623828Y-77218386D01*
X116581613Y-77187715D01*
X116581612Y-77187714D01*
X116581610Y-77187713D01*
X116514695Y-77153618D01*
X116399223Y-77094781D01*
X116204534Y-77031522D01*
X116029995Y-77003878D01*
X116002352Y-76999500D01*
X115797648Y-76999500D01*
X115773329Y-77003351D01*
X115595465Y-77031522D01*
X115400776Y-77094781D01*
X115218386Y-77187715D01*
X115052786Y-77308028D01*
X114908028Y-77452786D01*
X114787715Y-77618386D01*
X114694781Y-77800778D01*
X114631522Y-77995468D01*
X114608073Y-78143515D01*
X114578143Y-78206649D01*
X114573281Y-78211797D01*
X114210685Y-78574394D01*
X113862221Y-78922858D01*
X113862218Y-78922861D01*
X113810685Y-78974394D01*
X113722859Y-79062219D01*
X113613371Y-79226080D01*
X113613364Y-79226093D01*
X113575887Y-79316572D01*
X113575882Y-79316583D01*
X113574275Y-79320466D01*
X113537949Y-79408164D01*
X113529262Y-79451835D01*
X113527707Y-79459648D01*
X113527705Y-79459657D01*
X113499500Y-79601455D01*
X113499500Y-83527368D01*
X113479815Y-83594407D01*
X113448386Y-83627686D01*
X113272488Y-83755484D01*
X113105485Y-83922487D01*
X113105480Y-83922493D01*
X113100005Y-83930029D01*
X113044673Y-83972692D01*
X112975059Y-83978667D01*
X112913266Y-83946058D01*
X112899372Y-83930022D01*
X112894139Y-83922819D01*
X112727186Y-83755866D01*
X112536171Y-83617085D01*
X112325802Y-83509897D01*
X112101247Y-83436934D01*
X112101248Y-83436934D01*
X111868052Y-83400000D01*
X111750000Y-83400000D01*
X111750000Y-84400000D01*
X111250000Y-84400000D01*
X111250000Y-83400000D01*
X111131948Y-83400000D01*
X110898752Y-83436934D01*
X110674197Y-83509897D01*
X110463828Y-83617085D01*
X110272813Y-83755866D01*
X110105866Y-83922813D01*
X109967085Y-84113828D01*
X109859897Y-84324197D01*
X109786934Y-84548752D01*
X109770898Y-84650000D01*
X104800500Y-84650000D01*
X104800500Y-79467665D01*
X104820185Y-79400626D01*
X104872989Y-79354871D01*
X104942147Y-79344927D01*
X104997387Y-79367348D01*
X105058649Y-79411859D01*
X105240968Y-79504754D01*
X105435578Y-79567988D01*
X105490000Y-79576607D01*
X105490000Y-78615686D01*
X105494394Y-78620080D01*
X105585606Y-78672741D01*
X105687339Y-78700000D01*
X105792661Y-78700000D01*
X105894394Y-78672741D01*
X105985606Y-78620080D01*
X105990000Y-78615686D01*
X105990000Y-79576606D01*
X106044421Y-79567988D01*
X106239031Y-79504754D01*
X106421349Y-79411859D01*
X106586894Y-79291582D01*
X106586895Y-79291582D01*
X106731582Y-79146895D01*
X106731582Y-79146894D01*
X106851859Y-78981349D01*
X106944755Y-78799029D01*
X107007990Y-78604413D01*
X107016609Y-78550000D01*
X106055686Y-78550000D01*
X106060080Y-78545606D01*
X106112741Y-78454394D01*
X106140000Y-78352661D01*
X106140000Y-78247339D01*
X106112741Y-78145606D01*
X106060080Y-78054394D01*
X106055686Y-78050000D01*
X107016609Y-78050000D01*
X107007990Y-77995586D01*
X106944755Y-77800970D01*
X106851859Y-77618650D01*
X106731582Y-77453105D01*
X106731582Y-77453104D01*
X106586895Y-77308417D01*
X106421349Y-77188140D01*
X106239029Y-77095244D01*
X106044413Y-77032009D01*
X105990000Y-77023390D01*
X105990000Y-77984314D01*
X105985606Y-77979920D01*
X105894394Y-77927259D01*
X105792661Y-77900000D01*
X105687339Y-77900000D01*
X105585606Y-77927259D01*
X105494394Y-77979920D01*
X105490000Y-77984314D01*
X105490000Y-77023390D01*
X105435586Y-77032009D01*
X105240970Y-77095244D01*
X105058650Y-77188140D01*
X104997386Y-77232652D01*
X104931579Y-77256132D01*
X104863525Y-77240307D01*
X104814831Y-77190201D01*
X104800500Y-77132334D01*
X104800500Y-74197682D01*
X113100000Y-74197682D01*
X113100000Y-74402317D01*
X113132009Y-74604417D01*
X113195244Y-74799031D01*
X113288141Y-74981350D01*
X113288147Y-74981359D01*
X113320523Y-75025921D01*
X113320524Y-75025922D01*
X114000000Y-74346446D01*
X114000000Y-74352661D01*
X114027259Y-74454394D01*
X114079920Y-74545606D01*
X114154394Y-74620080D01*
X114245606Y-74672741D01*
X114347339Y-74700000D01*
X114353553Y-74700000D01*
X113674076Y-75379474D01*
X113718650Y-75411859D01*
X113900968Y-75504755D01*
X114095582Y-75567990D01*
X114297683Y-75600000D01*
X114502317Y-75600000D01*
X114704417Y-75567990D01*
X114899031Y-75504755D01*
X115081349Y-75411859D01*
X115125921Y-75379474D01*
X114446447Y-74700000D01*
X114452661Y-74700000D01*
X114554394Y-74672741D01*
X114645606Y-74620080D01*
X114720080Y-74545606D01*
X114772741Y-74454394D01*
X114800000Y-74352661D01*
X114800000Y-74346447D01*
X115479474Y-75025921D01*
X115511859Y-74981349D01*
X115604755Y-74799031D01*
X115667990Y-74604417D01*
X115700000Y-74402317D01*
X115700000Y-74197682D01*
X115667990Y-73995582D01*
X115604755Y-73800968D01*
X115511859Y-73618650D01*
X115479474Y-73574077D01*
X115479474Y-73574076D01*
X114800000Y-74253551D01*
X114800000Y-74247339D01*
X114772741Y-74145606D01*
X114720080Y-74054394D01*
X114645606Y-73979920D01*
X114554394Y-73927259D01*
X114452661Y-73900000D01*
X114446446Y-73900000D01*
X115125922Y-73220524D01*
X115125921Y-73220523D01*
X115081359Y-73188147D01*
X115081350Y-73188141D01*
X114899031Y-73095244D01*
X114704417Y-73032009D01*
X114502317Y-73000000D01*
X114297683Y-73000000D01*
X114095582Y-73032009D01*
X113900968Y-73095244D01*
X113718644Y-73188143D01*
X113674077Y-73220523D01*
X113674077Y-73220524D01*
X114353554Y-73900000D01*
X114347339Y-73900000D01*
X114245606Y-73927259D01*
X114154394Y-73979920D01*
X114079920Y-74054394D01*
X114027259Y-74145606D01*
X114000000Y-74247339D01*
X114000000Y-74253553D01*
X113320524Y-73574077D01*
X113320523Y-73574077D01*
X113288143Y-73618644D01*
X113195244Y-73800968D01*
X113132009Y-73995582D01*
X113100000Y-74197682D01*
X104800500Y-74197682D01*
X104800500Y-72090782D01*
X104820185Y-72023743D01*
X104836819Y-72003101D01*
X105603102Y-71236819D01*
X105664425Y-71203334D01*
X105690783Y-71200500D01*
X106100814Y-71200500D01*
X106167853Y-71220185D01*
X106213608Y-71272989D01*
X106223552Y-71342147D01*
X106194527Y-71405703D01*
X106161344Y-71430748D01*
X106162025Y-71431851D01*
X106006654Y-71527684D01*
X105882684Y-71651654D01*
X105790643Y-71800875D01*
X105790641Y-71800880D01*
X105735494Y-71967302D01*
X105735493Y-71967309D01*
X105725000Y-72070013D01*
X105725000Y-72490000D01*
X106777291Y-72490000D01*
X106765548Y-72510339D01*
X106725000Y-72661667D01*
X106725000Y-72818333D01*
X106765548Y-72969661D01*
X106777291Y-72990000D01*
X105725001Y-72990000D01*
X105725001Y-73409986D01*
X105735494Y-73512697D01*
X105790641Y-73679119D01*
X105790643Y-73679124D01*
X105882684Y-73828345D01*
X106006654Y-73952315D01*
X106155875Y-74044356D01*
X106155880Y-74044358D01*
X106322302Y-74099505D01*
X106322309Y-74099506D01*
X106425019Y-74109999D01*
X107069999Y-74109999D01*
X107070000Y-74109998D01*
X107070000Y-73282709D01*
X107090339Y-73294452D01*
X107241667Y-73335000D01*
X107398333Y-73335000D01*
X107549661Y-73294452D01*
X107570000Y-73282709D01*
X107570000Y-74109999D01*
X108214972Y-74109999D01*
X108214986Y-74109998D01*
X108317697Y-74099505D01*
X108391318Y-74075110D01*
X108484119Y-74044358D01*
X108484124Y-74044356D01*
X108633345Y-73952315D01*
X108757315Y-73828345D01*
X108849356Y-73679124D01*
X108849358Y-73679119D01*
X108904505Y-73512697D01*
X108904506Y-73512690D01*
X108914999Y-73409986D01*
X108915000Y-73409973D01*
X108915000Y-72990000D01*
X107862709Y-72990000D01*
X107874452Y-72969661D01*
X107915000Y-72818333D01*
X107915000Y-72661667D01*
X107874452Y-72510339D01*
X107862709Y-72490000D01*
X108914999Y-72490000D01*
X108914999Y-72070028D01*
X108914998Y-72070013D01*
X108904505Y-71967302D01*
X108849358Y-71800880D01*
X108849356Y-71800875D01*
X108757315Y-71651654D01*
X108633345Y-71527684D01*
X108484118Y-71435640D01*
X108483277Y-71435248D01*
X108482796Y-71434824D01*
X108477975Y-71431851D01*
X108478483Y-71431027D01*
X108430836Y-71389078D01*
X108411681Y-71321885D01*
X108431894Y-71255003D01*
X108447987Y-71235192D01*
X108590359Y-71092821D01*
X108717157Y-70918299D01*
X108815092Y-70726089D01*
X108881754Y-70520926D01*
X108901363Y-70397122D01*
X108915500Y-70307866D01*
X108915500Y-70092133D01*
X108885895Y-69905220D01*
X108881754Y-69879074D01*
X108815092Y-69673911D01*
X108717157Y-69481701D01*
X108590359Y-69307179D01*
X108437821Y-69154641D01*
X108266704Y-69030317D01*
X108250040Y-69008706D01*
X108230746Y-68989404D01*
X108229015Y-68981440D01*
X108224040Y-68974988D01*
X108221704Y-68947798D01*
X108215909Y-68921128D01*
X108218758Y-68913493D01*
X108218061Y-68905374D01*
X108230798Y-68881234D01*
X108240340Y-68855669D01*
X108248566Y-68847560D01*
X108250667Y-68843580D01*
X108265302Y-68830717D01*
X108266005Y-68830190D01*
X108437821Y-68705359D01*
X108452642Y-68690537D01*
X108459753Y-68685217D01*
X108484503Y-68675991D01*
X108507684Y-68663334D01*
X108522830Y-68661705D01*
X108525222Y-68660814D01*
X108527172Y-68661238D01*
X108534042Y-68660500D01*
X112294218Y-68660500D01*
X112361257Y-68680185D01*
X112381899Y-68696819D01*
X113073281Y-69388201D01*
X113106766Y-69449524D01*
X113108073Y-69456483D01*
X113131523Y-69604535D01*
X113194781Y-69799223D01*
X113244932Y-69897648D01*
X113281021Y-69968477D01*
X113287715Y-69981613D01*
X113408028Y-70147213D01*
X113552786Y-70291971D01*
X113697517Y-70397122D01*
X113718390Y-70412287D01*
X113834607Y-70471503D01*
X113900776Y-70505218D01*
X113900778Y-70505218D01*
X113900781Y-70505220D01*
X114005137Y-70539127D01*
X114095465Y-70568477D01*
X114196557Y-70584488D01*
X114297648Y-70600500D01*
X114297649Y-70600500D01*
X114502351Y-70600500D01*
X114502352Y-70600500D01*
X114704534Y-70568477D01*
X114899219Y-70505220D01*
X115081610Y-70412287D01*
X115193957Y-70330663D01*
X115247213Y-70291971D01*
X115247215Y-70291968D01*
X115247219Y-70291966D01*
X115391966Y-70147219D01*
X115391968Y-70147215D01*
X115391971Y-70147213D01*
X115457305Y-70057287D01*
X115512287Y-69981610D01*
X115605220Y-69799219D01*
X115668477Y-69604534D01*
X115700500Y-69402352D01*
X115700500Y-69197648D01*
X115671796Y-69016421D01*
X115668477Y-68995465D01*
X115619126Y-68843580D01*
X115605220Y-68800781D01*
X115605218Y-68800778D01*
X115605218Y-68800776D01*
X115556528Y-68705218D01*
X115512287Y-68618390D01*
X115478716Y-68572183D01*
X115391971Y-68452786D01*
X115247213Y-68308028D01*
X115081613Y-68187715D01*
X115081612Y-68187714D01*
X115081610Y-68187713D01*
X115013052Y-68152781D01*
X114899223Y-68094781D01*
X114704535Y-68031523D01*
X114556483Y-68008073D01*
X114493349Y-67978143D01*
X114488201Y-67973281D01*
X113541479Y-67026559D01*
X113541459Y-67026537D01*
X113397785Y-66882863D01*
X113397781Y-66882860D01*
X113233920Y-66773371D01*
X113233907Y-66773364D01*
X113071202Y-66705970D01*
X113071197Y-66705968D01*
X113061584Y-66701987D01*
X113051836Y-66697949D01*
X112935036Y-66674716D01*
X112933256Y-66674362D01*
X112933252Y-66674361D01*
X112858543Y-66659500D01*
X112858541Y-66659500D01*
X110034782Y-66659500D01*
X109967743Y-66639815D01*
X109921988Y-66587011D01*
X109912044Y-66517853D01*
X109941069Y-66454297D01*
X109947101Y-66447819D01*
X110558101Y-65836819D01*
X110619424Y-65803334D01*
X110645782Y-65800500D01*
X113324238Y-65800500D01*
X113391277Y-65820185D01*
X113397119Y-65824179D01*
X113518390Y-65912287D01*
X113603379Y-65955591D01*
X113700776Y-66005218D01*
X113700778Y-66005218D01*
X113700781Y-66005220D01*
X113773319Y-66028789D01*
X113895465Y-66068477D01*
X113996557Y-66084488D01*
X114097648Y-66100500D01*
X114097649Y-66100500D01*
X114302351Y-66100500D01*
X114302352Y-66100500D01*
X114504534Y-66068477D01*
X114699219Y-66005220D01*
X114881610Y-65912287D01*
X114980856Y-65840181D01*
X115047213Y-65791971D01*
X115047215Y-65791968D01*
X115047219Y-65791966D01*
X115191966Y-65647219D01*
X115191968Y-65647215D01*
X115191971Y-65647213D01*
X115279150Y-65527219D01*
X115312287Y-65481610D01*
X115405220Y-65299219D01*
X115468477Y-65104534D01*
X115500500Y-64902352D01*
X115500500Y-64697648D01*
X117899500Y-64697648D01*
X117899500Y-64902351D01*
X117931522Y-65104534D01*
X117994781Y-65299223D01*
X118056521Y-65420393D01*
X118087713Y-65481610D01*
X118175819Y-65602877D01*
X118199298Y-65668681D01*
X118199500Y-65675761D01*
X118199500Y-68124237D01*
X118179815Y-68191276D01*
X118175818Y-68197122D01*
X118087715Y-68318386D01*
X117994781Y-68500776D01*
X117931522Y-68695465D01*
X117907433Y-68847560D01*
X117899500Y-68897648D01*
X117899500Y-69102352D01*
X117901245Y-69113368D01*
X117931522Y-69304534D01*
X117994781Y-69499223D01*
X118030862Y-69570034D01*
X118083790Y-69673911D01*
X118087715Y-69681613D01*
X118208028Y-69847213D01*
X118352786Y-69991971D01*
X118507749Y-70104556D01*
X118518390Y-70112287D01*
X118618277Y-70163182D01*
X118700776Y-70205218D01*
X118700778Y-70205218D01*
X118700781Y-70205220D01*
X118805137Y-70239127D01*
X118895465Y-70268477D01*
X118996557Y-70284488D01*
X119097648Y-70300500D01*
X119097649Y-70300500D01*
X119302351Y-70300500D01*
X119302352Y-70300500D01*
X119504534Y-70268477D01*
X119699219Y-70205220D01*
X119881610Y-70112287D01*
X119974590Y-70044732D01*
X120047213Y-69991971D01*
X120047215Y-69991968D01*
X120047219Y-69991966D01*
X120191966Y-69847219D01*
X120191968Y-69847215D01*
X120191971Y-69847213D01*
X120245897Y-69772989D01*
X120312287Y-69681610D01*
X120405220Y-69499219D01*
X120468477Y-69304534D01*
X120500500Y-69102352D01*
X120500500Y-68897648D01*
X121799500Y-68897648D01*
X121799500Y-69102352D01*
X121801245Y-69113368D01*
X121831522Y-69304534D01*
X121894781Y-69499223D01*
X121930862Y-69570034D01*
X121983790Y-69673911D01*
X121987715Y-69681613D01*
X122108028Y-69847213D01*
X122252786Y-69991971D01*
X122407749Y-70104556D01*
X122418390Y-70112287D01*
X122518277Y-70163182D01*
X122600776Y-70205218D01*
X122600778Y-70205218D01*
X122600781Y-70205220D01*
X122705137Y-70239127D01*
X122795465Y-70268477D01*
X122896557Y-70284488D01*
X122997648Y-70300500D01*
X122997649Y-70300500D01*
X123202351Y-70300500D01*
X123202352Y-70300500D01*
X123404534Y-70268477D01*
X123599219Y-70205220D01*
X123781610Y-70112287D01*
X123874590Y-70044732D01*
X123947213Y-69991971D01*
X123947215Y-69991968D01*
X123947219Y-69991966D01*
X124091966Y-69847219D01*
X124091968Y-69847215D01*
X124091971Y-69847213D01*
X124145897Y-69772989D01*
X124212287Y-69681610D01*
X124305220Y-69499219D01*
X124368477Y-69304534D01*
X124400500Y-69102352D01*
X124400500Y-68897648D01*
X124370044Y-68705359D01*
X124368477Y-68695465D01*
X124311627Y-68520500D01*
X124305220Y-68500781D01*
X124305218Y-68500778D01*
X124305218Y-68500776D01*
X124251559Y-68395466D01*
X124212287Y-68318390D01*
X124142882Y-68222861D01*
X124091971Y-68152786D01*
X123947213Y-68008028D01*
X123781613Y-67887715D01*
X123781612Y-67887714D01*
X123781610Y-67887713D01*
X123713052Y-67852781D01*
X123599223Y-67794781D01*
X123404534Y-67731522D01*
X123229995Y-67703878D01*
X123202352Y-67699500D01*
X122997648Y-67699500D01*
X122973329Y-67703351D01*
X122795465Y-67731522D01*
X122600776Y-67794781D01*
X122418386Y-67887715D01*
X122252786Y-68008028D01*
X122108028Y-68152786D01*
X121987715Y-68318386D01*
X121894781Y-68500776D01*
X121831522Y-68695465D01*
X121807433Y-68847560D01*
X121799500Y-68897648D01*
X120500500Y-68897648D01*
X120470044Y-68705359D01*
X120468477Y-68695465D01*
X120411627Y-68520500D01*
X120405220Y-68500781D01*
X120405218Y-68500778D01*
X120405218Y-68500776D01*
X120351559Y-68395466D01*
X120312287Y-68318390D01*
X120242882Y-68222861D01*
X120224182Y-68197122D01*
X120200702Y-68131316D01*
X120200500Y-68124237D01*
X120200500Y-65675761D01*
X120220185Y-65608722D01*
X120224165Y-65602899D01*
X120312287Y-65481610D01*
X120405220Y-65299219D01*
X120468477Y-65104534D01*
X120491925Y-64956483D01*
X120521854Y-64893350D01*
X120526699Y-64888219D01*
X121525401Y-63889518D01*
X121586722Y-63856035D01*
X121656414Y-63861019D01*
X121712347Y-63902891D01*
X121736764Y-63968355D01*
X121736301Y-63991083D01*
X121735478Y-63998390D01*
X121730054Y-64046537D01*
X121729500Y-64051451D01*
X121729500Y-64688558D01*
X121744157Y-64818648D01*
X121744159Y-64818658D01*
X121774448Y-64905218D01*
X121801878Y-64983606D01*
X121894853Y-65131576D01*
X122018424Y-65255147D01*
X122166394Y-65348122D01*
X122331343Y-65405841D01*
X122331349Y-65405841D01*
X122331351Y-65405842D01*
X122372750Y-65410506D01*
X122461442Y-65420499D01*
X122461445Y-65420500D01*
X123675500Y-65420500D01*
X123742539Y-65440185D01*
X123788294Y-65492989D01*
X123799500Y-65544500D01*
X123799500Y-66237870D01*
X123799501Y-66237876D01*
X123805908Y-66297483D01*
X123856202Y-66432328D01*
X123856206Y-66432335D01*
X123942452Y-66547544D01*
X123942455Y-66547547D01*
X124057664Y-66633793D01*
X124057671Y-66633797D01*
X124075147Y-66640315D01*
X124192517Y-66684091D01*
X124252127Y-66690500D01*
X124414711Y-66690499D01*
X124481751Y-66710183D01*
X124483603Y-66711397D01*
X124565711Y-66766260D01*
X124565724Y-66766267D01*
X124691562Y-66818390D01*
X124747797Y-66841683D01*
X124747801Y-66841683D01*
X124747802Y-66841684D01*
X124941088Y-66880132D01*
X124941091Y-66880132D01*
X126218911Y-66880132D01*
X126276670Y-66868642D01*
X126336236Y-66856794D01*
X126412204Y-66841683D01*
X126468438Y-66818390D01*
X126577124Y-66773371D01*
X126594275Y-66766267D01*
X126594275Y-66766266D01*
X126594282Y-66766264D01*
X126758150Y-66656771D01*
X126897507Y-66517414D01*
X126897508Y-66517412D01*
X126904574Y-66510346D01*
X126904577Y-66510342D01*
X127417271Y-65997648D01*
X128839500Y-65997648D01*
X128839500Y-66202351D01*
X128871522Y-66404534D01*
X128934781Y-66599223D01*
X128987143Y-66701987D01*
X129023513Y-66773368D01*
X129027715Y-66781613D01*
X129148028Y-66947213D01*
X129292786Y-67091971D01*
X129417386Y-67182496D01*
X129458390Y-67212287D01*
X129574607Y-67271503D01*
X129640776Y-67305218D01*
X129640778Y-67305218D01*
X129640781Y-67305220D01*
X129693505Y-67322351D01*
X129835465Y-67368477D01*
X129936557Y-67384488D01*
X130037648Y-67400500D01*
X130037649Y-67400500D01*
X130242351Y-67400500D01*
X130242352Y-67400500D01*
X130444534Y-67368477D01*
X130639219Y-67305220D01*
X130821610Y-67212287D01*
X130987219Y-67091966D01*
X131081178Y-66998005D01*
X131099964Y-66982590D01*
X131200248Y-66915582D01*
X131257782Y-66877139D01*
X131397139Y-66737782D01*
X131397139Y-66737780D01*
X131407347Y-66727573D01*
X131407348Y-66727570D01*
X137808204Y-60326715D01*
X137869525Y-60293232D01*
X137876475Y-60291926D01*
X138024534Y-60268477D01*
X138219219Y-60205220D01*
X138401610Y-60112287D01*
X138528379Y-60020185D01*
X138567213Y-59991971D01*
X138567215Y-59991968D01*
X138567219Y-59991966D01*
X138711966Y-59847219D01*
X138711968Y-59847215D01*
X138711971Y-59847213D01*
X138791164Y-59738211D01*
X138832287Y-59681610D01*
X138925220Y-59499219D01*
X138988477Y-59304534D01*
X139020500Y-59102352D01*
X139020500Y-58897648D01*
X139008655Y-58822860D01*
X138988477Y-58695465D01*
X138955761Y-58594778D01*
X138925220Y-58500781D01*
X138925218Y-58500778D01*
X138925218Y-58500776D01*
X138871210Y-58394781D01*
X138832287Y-58318390D01*
X138820213Y-58301771D01*
X138711971Y-58152786D01*
X138567213Y-58008028D01*
X138401613Y-57887715D01*
X138401612Y-57887714D01*
X138401610Y-57887713D01*
X138326613Y-57849500D01*
X138219223Y-57794781D01*
X138024534Y-57731522D01*
X137849995Y-57703878D01*
X137822352Y-57699500D01*
X137617648Y-57699500D01*
X137593329Y-57703351D01*
X137415465Y-57731522D01*
X137220776Y-57794781D01*
X137038386Y-57887715D01*
X136872786Y-58008028D01*
X136728028Y-58152786D01*
X136607715Y-58318386D01*
X136514781Y-58500778D01*
X136451522Y-58695468D01*
X136428073Y-58843514D01*
X136398143Y-58906649D01*
X136393281Y-58911796D01*
X130514263Y-64790815D01*
X130452940Y-64824300D01*
X130407184Y-64825607D01*
X130306970Y-64809734D01*
X130242352Y-64799500D01*
X130037648Y-64799500D01*
X130013329Y-64803351D01*
X129835465Y-64831522D01*
X129640776Y-64894781D01*
X129458386Y-64987715D01*
X129292786Y-65108028D01*
X129148028Y-65252786D01*
X129027715Y-65418386D01*
X128934781Y-65600776D01*
X128871522Y-65795465D01*
X128839500Y-65997648D01*
X127417271Y-65997648D01*
X128238778Y-65176141D01*
X128238782Y-65176139D01*
X128378139Y-65036782D01*
X128487632Y-64872914D01*
X128545812Y-64732454D01*
X128563051Y-64690836D01*
X128591618Y-64547219D01*
X128601500Y-64497541D01*
X128601500Y-61522459D01*
X128601500Y-61522456D01*
X128571431Y-61371293D01*
X128569754Y-61362861D01*
X128563051Y-61329164D01*
X128525268Y-61237949D01*
X128509756Y-61200500D01*
X128487635Y-61147093D01*
X128487634Y-61147092D01*
X128487632Y-61147086D01*
X128442792Y-61079978D01*
X128378140Y-60983219D01*
X128315126Y-60920205D01*
X128238782Y-60843861D01*
X128238781Y-60843860D01*
X127607102Y-60212181D01*
X127573617Y-60150858D01*
X127578601Y-60081166D01*
X127620473Y-60025233D01*
X127685937Y-60000816D01*
X127694783Y-60000500D01*
X131844238Y-60000500D01*
X131911277Y-60020185D01*
X131917119Y-60024179D01*
X132038390Y-60112287D01*
X132114090Y-60150858D01*
X132220776Y-60205218D01*
X132220778Y-60205218D01*
X132220781Y-60205220D01*
X132325137Y-60239127D01*
X132415465Y-60268477D01*
X132498383Y-60281610D01*
X132617648Y-60300500D01*
X132617649Y-60300500D01*
X132822351Y-60300500D01*
X132822352Y-60300500D01*
X133024534Y-60268477D01*
X133219219Y-60205220D01*
X133401610Y-60112287D01*
X133528379Y-60020185D01*
X133567213Y-59991971D01*
X133567215Y-59991968D01*
X133567219Y-59991966D01*
X133711966Y-59847219D01*
X133711968Y-59847215D01*
X133711971Y-59847213D01*
X133791164Y-59738211D01*
X133832287Y-59681610D01*
X133925220Y-59499219D01*
X133988477Y-59304534D01*
X134020500Y-59102352D01*
X134020500Y-58897648D01*
X134008655Y-58822860D01*
X133988477Y-58695465D01*
X133955761Y-58594778D01*
X133925220Y-58500781D01*
X133925218Y-58500778D01*
X133925218Y-58500776D01*
X133871210Y-58394781D01*
X133832287Y-58318390D01*
X133820213Y-58301771D01*
X133711971Y-58152786D01*
X133567213Y-58008028D01*
X133401613Y-57887715D01*
X133401612Y-57887714D01*
X133401610Y-57887713D01*
X133326613Y-57849500D01*
X133219223Y-57794781D01*
X133024534Y-57731522D01*
X132849995Y-57703878D01*
X132822352Y-57699500D01*
X132617648Y-57699500D01*
X132593329Y-57703351D01*
X132415465Y-57731522D01*
X132220776Y-57794781D01*
X132038386Y-57887715D01*
X131917123Y-57975818D01*
X131851317Y-57999298D01*
X131844238Y-57999500D01*
X125855762Y-57999500D01*
X125788723Y-57979815D01*
X125782877Y-57975818D01*
X125661613Y-57887715D01*
X125661612Y-57887714D01*
X125661610Y-57887713D01*
X125586613Y-57849500D01*
X125479223Y-57794781D01*
X125284534Y-57731522D01*
X125109995Y-57703878D01*
X125082352Y-57699500D01*
X124877648Y-57699500D01*
X124853329Y-57703351D01*
X124675465Y-57731522D01*
X124480776Y-57794781D01*
X124298386Y-57887715D01*
X124132786Y-58008028D01*
X123988028Y-58152786D01*
X123867715Y-58318386D01*
X123774781Y-58500776D01*
X123711522Y-58695465D01*
X123687195Y-58849063D01*
X123679500Y-58897648D01*
X123679500Y-59102352D01*
X123679745Y-59103900D01*
X123711522Y-59304534D01*
X123774781Y-59499223D01*
X123838691Y-59624653D01*
X123858206Y-59662952D01*
X123867715Y-59681613D01*
X123988028Y-59847213D01*
X124132786Y-59991971D01*
X124255555Y-60081166D01*
X124298390Y-60112287D01*
X124374090Y-60150858D01*
X124480776Y-60205218D01*
X124480778Y-60205218D01*
X124480781Y-60205220D01*
X124585137Y-60239127D01*
X124675465Y-60268477D01*
X124726791Y-60276606D01*
X124823513Y-60291925D01*
X124886648Y-60321854D01*
X124891797Y-60326717D01*
X126564181Y-61999101D01*
X126578884Y-62026028D01*
X126595477Y-62051847D01*
X126596368Y-62058047D01*
X126597666Y-62060424D01*
X126600500Y-62086782D01*
X126600500Y-62204415D01*
X126580815Y-62271454D01*
X126528011Y-62317209D01*
X126458853Y-62327153D01*
X126395297Y-62298128D01*
X126388819Y-62292096D01*
X126311576Y-62214853D01*
X126163604Y-62121877D01*
X125998658Y-62064159D01*
X125998648Y-62064157D01*
X125868558Y-62049500D01*
X125868552Y-62049500D01*
X125695047Y-62049500D01*
X125628008Y-62029815D01*
X125607366Y-62013181D01*
X125163473Y-61569289D01*
X125163470Y-61569285D01*
X125163470Y-61569286D01*
X125156403Y-61562219D01*
X125156403Y-61562218D01*
X125017046Y-61422861D01*
X125017045Y-61422860D01*
X125017044Y-61422859D01*
X124853184Y-61313371D01*
X124853171Y-61313364D01*
X124690091Y-61245815D01*
X124690088Y-61245814D01*
X124680725Y-61241936D01*
X124671100Y-61237949D01*
X124574452Y-61218724D01*
X124572446Y-61218325D01*
X124572429Y-61218321D01*
X124477808Y-61199500D01*
X124477805Y-61199500D01*
X121701459Y-61199500D01*
X121701455Y-61199500D01*
X121606834Y-61218321D01*
X121606810Y-61218326D01*
X121604812Y-61218724D01*
X121508164Y-61237949D01*
X121498539Y-61241936D01*
X121489177Y-61245813D01*
X121489172Y-61245815D01*
X121326092Y-61313364D01*
X121326079Y-61313371D01*
X121162218Y-61422860D01*
X121162214Y-61422863D01*
X119111797Y-63473281D01*
X119050474Y-63506766D01*
X119043515Y-63508073D01*
X118895468Y-63531522D01*
X118700778Y-63594781D01*
X118518386Y-63687715D01*
X118352786Y-63808028D01*
X118208028Y-63952786D01*
X118087715Y-64118386D01*
X117994781Y-64300776D01*
X117931522Y-64495465D01*
X117899500Y-64697648D01*
X115500500Y-64697648D01*
X115475052Y-64536978D01*
X115468477Y-64495465D01*
X115405218Y-64300776D01*
X115364082Y-64220043D01*
X115312287Y-64118390D01*
X115297546Y-64098101D01*
X115191971Y-63952786D01*
X115047213Y-63808028D01*
X114881613Y-63687715D01*
X114881612Y-63687714D01*
X114881610Y-63687713D01*
X114819013Y-63655818D01*
X114699223Y-63594781D01*
X114504534Y-63531522D01*
X114316690Y-63501771D01*
X114302352Y-63499500D01*
X114097648Y-63499500D01*
X114083310Y-63501771D01*
X113895465Y-63531522D01*
X113700776Y-63594781D01*
X113518386Y-63687715D01*
X113397123Y-63775818D01*
X113331317Y-63799298D01*
X113324238Y-63799500D01*
X110081457Y-63799500D01*
X110019116Y-63811901D01*
X110019115Y-63811901D01*
X109888167Y-63837947D01*
X109888159Y-63837950D01*
X109834834Y-63860037D01*
X109834834Y-63860038D01*
X109789315Y-63878892D01*
X109706089Y-63913366D01*
X109706079Y-63913371D01*
X109542219Y-64022859D01*
X109500603Y-64064476D01*
X109402861Y-64162218D01*
X109402858Y-64162221D01*
X107311899Y-66253181D01*
X107250576Y-66286666D01*
X107224218Y-66289500D01*
X106987134Y-66289500D01*
X106774077Y-66323245D01*
X106774074Y-66323246D01*
X106575667Y-66387713D01*
X106568908Y-66389909D01*
X106376700Y-66487843D01*
X106306771Y-66538650D01*
X106202179Y-66614641D01*
X106202177Y-66614643D01*
X106202176Y-66614643D01*
X106049643Y-66767176D01*
X106049643Y-66767177D01*
X106049641Y-66767179D01*
X106039154Y-66781613D01*
X105922843Y-66941700D01*
X105824909Y-67133908D01*
X105758245Y-67339077D01*
X105724500Y-67552133D01*
X105724500Y-67767866D01*
X105752702Y-67945922D01*
X105758246Y-67980926D01*
X105824908Y-68186089D01*
X105922843Y-68378299D01*
X106049641Y-68552821D01*
X106202179Y-68705359D01*
X106323454Y-68793471D01*
X106373294Y-68829682D01*
X106389958Y-68851293D01*
X106409253Y-68870596D01*
X106410983Y-68878559D01*
X106415959Y-68885012D01*
X106418294Y-68912201D01*
X106424090Y-68938872D01*
X106421240Y-68946506D01*
X106421938Y-68954626D01*
X106409202Y-68978762D01*
X106399660Y-69004331D01*
X106391432Y-69012440D01*
X106389332Y-69016421D01*
X106374698Y-69029283D01*
X106373995Y-69029809D01*
X106202179Y-69154641D01*
X106187354Y-69169465D01*
X106180248Y-69174783D01*
X106155494Y-69184009D01*
X106132316Y-69196666D01*
X106117169Y-69198294D01*
X106114778Y-69199186D01*
X106112827Y-69198761D01*
X106105958Y-69199500D01*
X105126456Y-69199500D01*
X104933171Y-69237947D01*
X104933163Y-69237949D01*
X104878189Y-69260720D01*
X104878184Y-69260722D01*
X104873492Y-69262666D01*
X104751086Y-69313368D01*
X104674713Y-69364399D01*
X104668826Y-69368332D01*
X104668821Y-69368335D01*
X104587215Y-69422862D01*
X104587214Y-69422863D01*
X103512879Y-70497200D01*
X103162220Y-70847859D01*
X103162218Y-70847861D01*
X103123451Y-70886628D01*
X103022859Y-70987219D01*
X102913371Y-71151079D01*
X102913364Y-71151092D01*
X102866526Y-71264171D01*
X102866522Y-71264181D01*
X102864723Y-71268526D01*
X102837949Y-71333164D01*
X102830193Y-71372157D01*
X102828736Y-71379479D01*
X102828736Y-71379481D01*
X102799500Y-71526456D01*
X102500500Y-71526456D01*
X102500500Y-59578711D01*
X105949500Y-59578711D01*
X105949500Y-59821288D01*
X105980463Y-60056484D01*
X105981162Y-60061789D01*
X105994578Y-60111859D01*
X106043947Y-60296104D01*
X106086659Y-60399219D01*
X106136776Y-60520212D01*
X106258064Y-60730289D01*
X106258066Y-60730292D01*
X106258067Y-60730293D01*
X106405733Y-60922736D01*
X106405739Y-60922743D01*
X106577256Y-61094260D01*
X106577262Y-61094265D01*
X106769711Y-61241936D01*
X106979788Y-61363224D01*
X107203900Y-61456054D01*
X107438211Y-61518838D01*
X107618586Y-61542584D01*
X107678711Y-61550500D01*
X107678712Y-61550500D01*
X107921289Y-61550500D01*
X107969388Y-61544167D01*
X108161789Y-61518838D01*
X108396100Y-61456054D01*
X108620212Y-61363224D01*
X108830289Y-61241936D01*
X109022738Y-61094265D01*
X109194265Y-60922738D01*
X109341936Y-60730289D01*
X109463224Y-60520212D01*
X109556054Y-60296100D01*
X109618838Y-60061789D01*
X109650500Y-59821288D01*
X109650500Y-59578712D01*
X109618838Y-59338211D01*
X109556054Y-59103900D01*
X109463224Y-58879788D01*
X109388291Y-58750000D01*
X113543391Y-58750000D01*
X114504314Y-58750000D01*
X114499920Y-58754394D01*
X114447259Y-58845606D01*
X114420000Y-58947339D01*
X114420000Y-59052661D01*
X114447259Y-59154394D01*
X114499920Y-59245606D01*
X114504314Y-59250000D01*
X113543391Y-59250000D01*
X113552009Y-59304413D01*
X113615244Y-59499029D01*
X113708140Y-59681349D01*
X113828417Y-59846894D01*
X113828417Y-59846895D01*
X113973104Y-59991582D01*
X114138650Y-60111859D01*
X114320968Y-60204754D01*
X114515578Y-60267988D01*
X114570000Y-60276607D01*
X114570000Y-59315686D01*
X114574394Y-59320080D01*
X114665606Y-59372741D01*
X114767339Y-59400000D01*
X114872661Y-59400000D01*
X114974394Y-59372741D01*
X115065606Y-59320080D01*
X115070000Y-59315686D01*
X115070000Y-60276606D01*
X115124421Y-60267988D01*
X115319031Y-60204754D01*
X115501349Y-60111859D01*
X115666894Y-59991582D01*
X115666895Y-59991582D01*
X115811582Y-59846895D01*
X115811582Y-59846894D01*
X115931859Y-59681349D01*
X116024755Y-59499029D01*
X116087990Y-59304413D01*
X116096609Y-59250000D01*
X115135686Y-59250000D01*
X115140080Y-59245606D01*
X115192741Y-59154394D01*
X115220000Y-59052661D01*
X115220000Y-58947339D01*
X115192741Y-58845606D01*
X115140080Y-58754394D01*
X115135686Y-58750000D01*
X116096609Y-58750000D01*
X116087990Y-58695586D01*
X116024755Y-58500970D01*
X115931859Y-58318650D01*
X115811582Y-58153105D01*
X115811582Y-58153104D01*
X115666895Y-58008417D01*
X115501349Y-57888140D01*
X115319029Y-57795244D01*
X115124413Y-57732009D01*
X115070000Y-57723390D01*
X115070000Y-58684314D01*
X115065606Y-58679920D01*
X114974394Y-58627259D01*
X114872661Y-58600000D01*
X114767339Y-58600000D01*
X114665606Y-58627259D01*
X114574394Y-58679920D01*
X114570000Y-58684314D01*
X114570000Y-57723390D01*
X114515586Y-57732009D01*
X114320970Y-57795244D01*
X114138650Y-57888140D01*
X113973105Y-58008417D01*
X113973104Y-58008417D01*
X113828417Y-58153104D01*
X113828417Y-58153105D01*
X113708140Y-58318650D01*
X113615244Y-58500970D01*
X113552009Y-58695586D01*
X113543391Y-58750000D01*
X109388291Y-58750000D01*
X109341936Y-58669711D01*
X109212312Y-58500781D01*
X109194266Y-58477263D01*
X109194260Y-58477256D01*
X109022743Y-58305739D01*
X109022736Y-58305733D01*
X108830293Y-58158067D01*
X108830292Y-58158066D01*
X108830289Y-58158064D01*
X108620212Y-58036776D01*
X108620205Y-58036773D01*
X108396104Y-57943947D01*
X108161785Y-57881161D01*
X107921289Y-57849500D01*
X107921288Y-57849500D01*
X107678712Y-57849500D01*
X107678711Y-57849500D01*
X107438214Y-57881161D01*
X107203895Y-57943947D01*
X106979794Y-58036773D01*
X106979785Y-58036777D01*
X106797851Y-58141817D01*
X106778862Y-58152781D01*
X106769706Y-58158067D01*
X106577263Y-58305733D01*
X106577256Y-58305739D01*
X106405739Y-58477256D01*
X106405733Y-58477263D01*
X106258067Y-58669706D01*
X106136777Y-58879785D01*
X106136773Y-58879794D01*
X106043947Y-59103895D01*
X105981161Y-59338214D01*
X105949500Y-59578711D01*
X102500500Y-59578711D01*
X102500500Y-55024500D01*
X102520185Y-54957461D01*
X102572989Y-54911706D01*
X102624500Y-54900500D01*
X142378218Y-54900500D01*
X142445257Y-54920185D01*
G37*
%TD.AperFunction*%
%TA.AperFunction,Conductor*%
G36*
X134200000Y-78872661D02*
G01*
X134227259Y-78974394D01*
X134279920Y-79065606D01*
X134354394Y-79140080D01*
X134445606Y-79192741D01*
X134547339Y-79220000D01*
X134553553Y-79220000D01*
X133874076Y-79899474D01*
X133918650Y-79931859D01*
X134100968Y-80024755D01*
X134295582Y-80087990D01*
X134488150Y-80118490D01*
X134551285Y-80148419D01*
X134588216Y-80207731D01*
X134587218Y-80277593D01*
X134556433Y-80328644D01*
X131620899Y-83264181D01*
X131559576Y-83297666D01*
X131533218Y-83300500D01*
X128154059Y-83300500D01*
X128087020Y-83280815D01*
X128041265Y-83228011D01*
X128031321Y-83158853D01*
X128043574Y-83120205D01*
X128105218Y-82999223D01*
X128105218Y-82999222D01*
X128105220Y-82999219D01*
X128168477Y-82804534D01*
X128200500Y-82602352D01*
X128200500Y-82397648D01*
X128180336Y-82270339D01*
X128168477Y-82195465D01*
X128118486Y-82041610D01*
X128105220Y-82000781D01*
X128105218Y-82000778D01*
X128105218Y-82000776D01*
X128033090Y-81859219D01*
X128012287Y-81818390D01*
X127993088Y-81791965D01*
X127924182Y-81697122D01*
X127900702Y-81631316D01*
X127900500Y-81624237D01*
X127900500Y-80284500D01*
X127920185Y-80217461D01*
X127972989Y-80171706D01*
X128024500Y-80160500D01*
X128438542Y-80160500D01*
X128469566Y-80154328D01*
X128535188Y-80141275D01*
X128631836Y-80122051D01*
X128685165Y-80099961D01*
X128813914Y-80046632D01*
X128977782Y-79937139D01*
X129117139Y-79797782D01*
X129117139Y-79797780D01*
X129127347Y-79787573D01*
X129127349Y-79787570D01*
X129220399Y-79694519D01*
X129281720Y-79661036D01*
X129351412Y-79666020D01*
X129407345Y-79707892D01*
X129431762Y-79773356D01*
X129430551Y-79801600D01*
X129399500Y-79997648D01*
X129399500Y-80202351D01*
X129431522Y-80404534D01*
X129494781Y-80599223D01*
X129587715Y-80781613D01*
X129708028Y-80947213D01*
X129852786Y-81091971D01*
X129995481Y-81195643D01*
X130018390Y-81212287D01*
X130107416Y-81257648D01*
X130200776Y-81305218D01*
X130200778Y-81305218D01*
X130200781Y-81305220D01*
X130305137Y-81339127D01*
X130395465Y-81368477D01*
X130496557Y-81384488D01*
X130597648Y-81400500D01*
X130597649Y-81400500D01*
X130802351Y-81400500D01*
X130802352Y-81400500D01*
X131004534Y-81368477D01*
X131199219Y-81305220D01*
X131381610Y-81212287D01*
X131494868Y-81130001D01*
X131547213Y-81091971D01*
X131547215Y-81091968D01*
X131547219Y-81091966D01*
X131691966Y-80947219D01*
X131691968Y-80947215D01*
X131691971Y-80947213D01*
X131754770Y-80860776D01*
X131812287Y-80781610D01*
X131905220Y-80599219D01*
X131968477Y-80404534D01*
X131991925Y-80256483D01*
X132021854Y-80193350D01*
X132026699Y-80188219D01*
X133129703Y-79085216D01*
X133191023Y-79051733D01*
X133260715Y-79056717D01*
X133316648Y-79098589D01*
X133335312Y-79134580D01*
X133395244Y-79319031D01*
X133488141Y-79501350D01*
X133488147Y-79501359D01*
X133520523Y-79545921D01*
X133520524Y-79545922D01*
X134200000Y-78866446D01*
X134200000Y-78872661D01*
G37*
%TD.AperFunction*%
%TA.AperFunction,Conductor*%
G36*
X141156475Y-67174842D02*
G01*
X141205170Y-67224948D01*
X141219500Y-67282814D01*
X141219500Y-70324237D01*
X141199815Y-70391276D01*
X141195818Y-70397122D01*
X141107715Y-70518386D01*
X141014781Y-70700776D01*
X140951522Y-70895465D01*
X140919500Y-71097648D01*
X140919500Y-71302351D01*
X140951522Y-71504534D01*
X141014781Y-71699223D01*
X141059870Y-71787713D01*
X141099394Y-71865284D01*
X141107715Y-71881613D01*
X141228028Y-72047213D01*
X141372786Y-72191971D01*
X141527749Y-72304556D01*
X141538390Y-72312287D01*
X141629840Y-72358883D01*
X141631080Y-72359515D01*
X141681876Y-72407490D01*
X141698671Y-72475311D01*
X141676134Y-72541446D01*
X141631080Y-72580485D01*
X141538386Y-72627715D01*
X141372786Y-72748028D01*
X141228028Y-72892786D01*
X141107715Y-73058386D01*
X141014781Y-73240776D01*
X140951522Y-73435465D01*
X140919500Y-73637648D01*
X140919500Y-73842351D01*
X140951522Y-74044534D01*
X141014781Y-74239223D01*
X141072582Y-74352661D01*
X141103790Y-74413911D01*
X141107715Y-74421613D01*
X141228028Y-74587213D01*
X141372786Y-74731971D01*
X141510650Y-74832133D01*
X141538390Y-74852287D01*
X141629840Y-74898883D01*
X141631080Y-74899515D01*
X141681876Y-74947490D01*
X141698671Y-75015311D01*
X141676134Y-75081446D01*
X141631080Y-75120485D01*
X141538386Y-75167715D01*
X141372786Y-75288028D01*
X141228028Y-75432786D01*
X141107715Y-75598386D01*
X141014781Y-75780776D01*
X140951522Y-75975465D01*
X140919500Y-76177648D01*
X140919500Y-76382351D01*
X140951522Y-76584534D01*
X141014781Y-76779223D01*
X141074583Y-76896588D01*
X141103790Y-76953911D01*
X141107715Y-76961613D01*
X141228028Y-77127213D01*
X141372786Y-77271971D01*
X141494004Y-77360039D01*
X141538390Y-77392287D01*
X141629840Y-77438883D01*
X141631080Y-77439515D01*
X141681876Y-77487490D01*
X141698671Y-77555311D01*
X141676134Y-77621446D01*
X141631080Y-77660485D01*
X141538386Y-77707715D01*
X141417123Y-77795818D01*
X141351317Y-77819298D01*
X141344238Y-77819500D01*
X137584675Y-77819500D01*
X137584655Y-77819499D01*
X137578541Y-77819499D01*
X137381460Y-77819499D01*
X137381457Y-77819499D01*
X137188172Y-77857946D01*
X137188164Y-77857948D01*
X137006088Y-77933366D01*
X137006079Y-77933371D01*
X136842219Y-78042859D01*
X136842215Y-78042862D01*
X136108644Y-78776433D01*
X136047321Y-78809918D01*
X135977629Y-78804934D01*
X135921696Y-78763062D01*
X135898490Y-78708150D01*
X135867990Y-78515582D01*
X135804755Y-78320968D01*
X135711859Y-78138650D01*
X135679474Y-78094077D01*
X135679474Y-78094076D01*
X135000000Y-78773553D01*
X135000000Y-78767339D01*
X134972741Y-78665606D01*
X134920080Y-78574394D01*
X134845606Y-78499920D01*
X134754394Y-78447259D01*
X134652661Y-78420000D01*
X134646446Y-78420000D01*
X135325922Y-77740524D01*
X135325921Y-77740523D01*
X135281359Y-77708147D01*
X135281350Y-77708141D01*
X135188369Y-77660765D01*
X135137573Y-77612790D01*
X135120778Y-77544969D01*
X135143315Y-77478835D01*
X135188370Y-77439795D01*
X135240236Y-77413368D01*
X135281610Y-77392287D01*
X135402877Y-77304181D01*
X135468683Y-77280702D01*
X135475762Y-77280500D01*
X136078542Y-77280500D01*
X136108200Y-77274600D01*
X136175188Y-77261275D01*
X136271836Y-77242051D01*
X136328958Y-77218390D01*
X136453914Y-77166632D01*
X136617782Y-77057139D01*
X136757139Y-76917782D01*
X136757140Y-76917780D01*
X136764206Y-76910714D01*
X136764209Y-76910710D01*
X140137779Y-73537140D01*
X140137783Y-73537138D01*
X140277140Y-73397781D01*
X140386633Y-73233913D01*
X140454524Y-73070008D01*
X140462052Y-73051835D01*
X140483902Y-72941987D01*
X140500501Y-72858540D01*
X140500501Y-67490860D01*
X140520186Y-67423821D01*
X140572990Y-67378066D01*
X140599889Y-67369958D01*
X140599806Y-67369612D01*
X140604534Y-67368477D01*
X140799219Y-67305220D01*
X140981610Y-67212287D01*
X141004764Y-67195465D01*
X141022615Y-67182496D01*
X141088421Y-67159016D01*
X141156475Y-67174842D01*
G37*
%TD.AperFunction*%
%TD*%
M02*
