M48
; DRILL file {KiCad 9.0.0} date 2026-01-13T09:09:33+0000
; FORMAT={-:-/ absolute / inch / decimal}
; #@! TF.CreationDate,2026-01-13T09:09:33+00:00
; #@! TF.GenerationSoftware,Kicad,Pcbnew,9.0.0
; #@! TF.FileFunction,Plated,1,2,PTH
FMAT,2
INCH
; #@! TA.AperFunction,Plated,PTH,ComponentDrill
T1C0.0295
; #@! TA.AperFunction,Plated,PTH,ComponentDrill
T2C0.0315
; #@! TA.AperFunction,Plated,PTH,ComponentDrill
T3C0.0394
; #@! TA.AperFunction,Plated,PTH,ComponentDrill
T4C0.0433
; #@! TA.AperFunction,Plated,PTH,ComponentDrill
T5C0.0469
%
G90
G05
T1
X4.8634Y-2.5343
X4.9134Y-2.4843
X4.9134Y-2.5843
T2
X4.163Y-3.0827
X4.1764Y-3.5709
X4.2724Y-3.7323
X4.2724Y-3.8819
X4.3732Y-3.5709
X4.4961Y-2.5512
X4.5039Y-2.7283
X4.5039Y-2.9252
X4.5205Y-2.3228
X4.5228Y-3.5709
X4.563Y-3.0827
X4.6724Y-3.7323
X4.6724Y-3.8819
X4.6929Y-2.5512
X4.6929Y-2.7165
X4.6929Y-3.1165
X4.7197Y-3.5709
X4.8465Y-2.7165
X4.8465Y-3.1165
X4.8465Y-3.5126
X4.8465Y-3.9126
X4.9205Y-2.3228
X4.9961Y-2.7165
X4.9961Y-3.1165
X4.9961Y-3.248
X4.9961Y-3.648
X5.1236Y-2.6024
X5.1417Y-2.8307
X5.1417Y-3.0276
X5.1457Y-3.1535
X5.1457Y-3.5535
X5.1457Y-3.6654
X5.1457Y-4.0654
X5.2252Y-2.3228
X5.2992Y-2.8031
X5.2992Y-2.9031
X5.2992Y-3.0031
X5.2992Y-3.1031
X5.3039Y-4.0472
X5.422Y-2.3228
X5.5236Y-2.6024
X5.5992Y-2.8031
X5.5992Y-2.9031
X5.5992Y-3.0031
X5.5992Y-3.1031
X5.6772Y-2.2575
X5.6772Y-2.6575
X5.7039Y-4.0472
X5.7165Y-3.2795
X5.7165Y-3.4764
X5.7165Y-3.6024
X5.7165Y-3.7992
X5.7362Y-2.7559
X5.7362Y-3.1559
X5.811Y-2.3583
X5.811Y-2.5551
X5.8937Y-3.1811
X5.8937Y-3.5811
X5.8976Y-2.8701
X5.8976Y-3.0669
X5.9283Y-2.3465
X5.9283Y-2.4465
X5.9283Y-2.5465
X5.9283Y-2.6465
X6.048Y-3.3346
X6.122Y-2.8031
X6.122Y-3.2031
X6.1378Y-3.5118
X6.1378Y-3.5906
X6.1378Y-3.748
X6.1378Y-3.8268
X6.2283Y-2.3465
X6.2283Y-2.4465
X6.2283Y-2.5465
X6.2283Y-2.6465
X6.3354Y-3.6811
X6.3354Y-3.8346
X6.3701Y-2.3047
X6.3701Y-2.7047
X6.448Y-3.3346
X6.5118Y-2.5079
X6.5118Y-2.7047
X6.7354Y-3.6811
X6.7354Y-3.8346
X6.752Y-2.9252
X6.752Y-3.0039
T4
X6.3354Y-3.5354
X6.7354Y-3.5354
T5
X4.2252Y-2.6638
X4.2252Y-2.7638
X4.2252Y-2.8638
X5.3236Y-3.7362
X5.3252Y-3.3504
X5.4236Y-3.7362
X5.4252Y-3.3504
X5.5236Y-3.7362
X5.5252Y-3.3504
X6.0957Y-4.0976
X6.1957Y-4.0976
X6.4449Y-2.8504
X6.4449Y-2.9504
X6.4449Y-3.0504
X6.7165Y-3.248
X6.7165Y-3.348
T3
G00X4.3799Y-3.3425
M15
G01X4.3996Y-3.3425
M16
G05
G00X4.498Y-3.3425
M15
G01X4.5177Y-3.3425
M16
G05
G00X4.6161Y-3.3425
M15
G01X4.6358Y-3.3425
M16
G05
M30
