%TF.GenerationSoftware,KiCad,Pcbnew,9.0.0*%
%TF.CreationDate,2026-01-13T09:09:24+00:00*%
%TF.ProjectId,GuitarMixer,47756974-6172-44d6-9978-65722e6b6963,V1.2*%
%TF.SameCoordinates,Original*%
%TF.FileFunction,Copper,L1,Top*%
%TF.FilePolarity,Positive*%
%FSLAX46Y46*%
G04 Gerber Fmt 4.6, Leading zero omitted, Abs format (unit mm)*
G04 Created by KiCad (PCBNEW 9.0.0) date 2026-01-13 09:09:24*
%MOMM*%
%LPD*%
G01*
G04 APERTURE LIST*
G04 Aperture macros list*
%AMRoundRect*
0 Rectangle with rounded corners*
0 $1 Rounding radius*
0 $2 $3 $4 $5 $6 $7 $8 $9 X,Y pos of 4 corners*
0 Add a 4 corners polygon primitive as box body*
4,1,4,$2,$3,$4,$5,$6,$7,$8,$9,$2,$3,0*
0 Add four circle primitives for the rounded corners*
1,1,$1+$1,$2,$3*
1,1,$1+$1,$4,$5*
1,1,$1+$1,$6,$7*
1,1,$1+$1,$8,$9*
0 Add four rect primitives between the rounded corners*
20,1,$1+$1,$2,$3,$4,$5,0*
20,1,$1+$1,$4,$5,$6,$7,0*
20,1,$1+$1,$6,$7,$8,$9,0*
20,1,$1+$1,$8,$9,$2,$3,0*%
G04 Aperture macros list end*
%TA.AperFunction,ComponentPad*%
%ADD10C,1.600000*%
%TD*%
%TA.AperFunction,ComponentPad*%
%ADD11O,1.600000X1.600000*%
%TD*%
%TA.AperFunction,ComponentPad*%
%ADD12R,1.600000X1.600000*%
%TD*%
%TA.AperFunction,ComponentPad*%
%ADD13RoundRect,0.250000X-0.620000X-0.845000X0.620000X-0.845000X0.620000X0.845000X-0.620000X0.845000X0*%
%TD*%
%TA.AperFunction,ComponentPad*%
%ADD14O,1.740000X2.190000*%
%TD*%
%TA.AperFunction,ComponentPad*%
%ADD15RoundRect,0.250000X0.845000X-0.620000X0.845000X0.620000X-0.845000X0.620000X-0.845000X-0.620000X0*%
%TD*%
%TA.AperFunction,ComponentPad*%
%ADD16O,2.190000X1.740000*%
%TD*%
%TA.AperFunction,ComponentPad*%
%ADD17R,1.800000X1.100000*%
%TD*%
%TA.AperFunction,ComponentPad*%
%ADD18RoundRect,0.275000X0.625000X-0.275000X0.625000X0.275000X-0.625000X0.275000X-0.625000X-0.275000X0*%
%TD*%
%TA.AperFunction,ComponentPad*%
%ADD19RoundRect,0.250000X-0.845000X0.620000X-0.845000X-0.620000X0.845000X-0.620000X0.845000X0.620000X0*%
%TD*%
%TA.AperFunction,ComponentPad*%
%ADD20O,2.500000X2.000000*%
%TD*%
%TA.AperFunction,ComponentPad*%
%ADD21RoundRect,0.250000X-0.550000X-0.550000X0.550000X-0.550000X0.550000X0.550000X-0.550000X0.550000X0*%
%TD*%
%TA.AperFunction,ComponentPad*%
%ADD22R,2.200000X2.200000*%
%TD*%
%TA.AperFunction,ComponentPad*%
%ADD23O,2.200000X2.200000*%
%TD*%
%TA.AperFunction,ComponentPad*%
%ADD24RoundRect,0.250000X0.620000X0.845000X-0.620000X0.845000X-0.620000X-0.845000X0.620000X-0.845000X0*%
%TD*%
%TA.AperFunction,Conductor*%
%ADD25C,1.000000*%
%TD*%
G04 APERTURE END LIST*
D10*
%TO.P,R3,1*%
%TO.N,Net-(J6-Pin_1)*%
X161800000Y-68700000D03*
D11*
%TO.P,R3,2*%
%TO.N,Net-(C2-Pad2)*%
X161800000Y-58540000D03*
%TD*%
D10*
%TO.P,R5,1*%
%TO.N,+4V*%
X171080000Y-93500000D03*
D11*
%TO.P,R5,2*%
%TO.N,+9VA*%
X160920000Y-93500000D03*
%TD*%
D10*
%TO.P,C1,1*%
%TO.N,Net-(U2A--)*%
X147600000Y-64900000D03*
%TO.P,C1,2*%
%TO.N,Net-(C1-Pad2)*%
X147600000Y-59900000D03*
%TD*%
%TO.P,C2,1*%
%TO.N,Net-(J6-Pin_1)*%
X165400000Y-68700000D03*
%TO.P,C2,2*%
%TO.N,Net-(C2-Pad2)*%
X165400000Y-63700000D03*
%TD*%
D12*
%TO.P,C5,1*%
%TO.N,+4V*%
X155900000Y-89200000D03*
D10*
%TO.P,C5,2*%
%TO.N,Earth*%
X155900000Y-91200000D03*
%TD*%
D12*
%TO.P,C3,1*%
%TO.N,Net-(C2-Pad2)*%
X171500000Y-74300000D03*
D10*
%TO.P,C3,2*%
%TO.N,Net-(J5-Pin_2)*%
X171500000Y-76300000D03*
%TD*%
%TO.P,R201,1*%
%TO.N,Net-(C202-Pad2)*%
X108520000Y-94800000D03*
D11*
%TO.P,R201,2*%
%TO.N,Earth*%
X118680000Y-94800000D03*
%TD*%
D12*
%TO.P,C4,1*%
%TO.N,+9VA*%
X155900000Y-95200000D03*
D10*
%TO.P,C4,2*%
%TO.N,Earth*%
X155900000Y-97200000D03*
%TD*%
D13*
%TO.P,J3,1,Pin_1*%
%TO.N,Earth*%
X135220000Y-94900000D03*
D14*
%TO.P,J3,2,Pin_2*%
%TO.N,Net-(J3-Pin_2)*%
X137760000Y-94900000D03*
%TO.P,J3,3,Pin_3*%
%TO.N,Net-(J3-Pin_3)*%
X140300000Y-94900000D03*
%TD*%
D10*
%TO.P,C102,1*%
%TO.N,Net-(J1-Pin_3)*%
X114200000Y-64800000D03*
%TO.P,C102,2*%
%TO.N,Net-(Q1-G)*%
X119200000Y-64800000D03*
%TD*%
%TO.P,R204,1*%
%TO.N,Net-(U1B-+)*%
X123100000Y-99380000D03*
D11*
%TO.P,R204,2*%
%TO.N,+9VA*%
X123100000Y-89220000D03*
%TD*%
D10*
%TO.P,C205,1*%
%TO.N,Net-(C204-Pad2)*%
X145200000Y-91500000D03*
%TO.P,C205,2*%
%TO.N,Net-(J3-Pin_3)*%
X145200000Y-96500000D03*
%TD*%
%TO.P,R107,1*%
%TO.N,Net-(U1A--)*%
X126900000Y-79160000D03*
D11*
%TO.P,R107,2*%
%TO.N,Net-(C104-Pad2)*%
X126900000Y-69000000D03*
%TD*%
D15*
%TO.P,J1,1,Pin_1*%
%TO.N,Earth*%
X107320000Y-72740000D03*
D16*
%TO.P,J1,2,Pin_2*%
%TO.N,Net-(J1-Pin_2)*%
X107320000Y-70200000D03*
%TO.P,J1,3,Pin_3*%
%TO.N,Net-(J1-Pin_3)*%
X107320000Y-67660000D03*
%TD*%
D10*
%TO.P,R1,1*%
%TO.N,Net-(U2A--)*%
X144200000Y-67500000D03*
D11*
%TO.P,R1,2*%
%TO.N,Net-(C1-Pad2)*%
X144200000Y-57340000D03*
%TD*%
D10*
%TO.P,R108,1*%
%TO.N,Net-(J2-Pin_2)*%
X130700000Y-93100000D03*
D11*
%TO.P,R108,2*%
%TO.N,Net-(U2A--)*%
X130700000Y-103260000D03*
%TD*%
D10*
%TO.P,C203,1*%
%TO.N,Net-(C202-Pad2)*%
X114880000Y-90700000D03*
%TO.P,C203,2*%
%TO.N,Net-(U1B-+)*%
X119880000Y-90700000D03*
%TD*%
D13*
%TO.P,J2,1,Pin_1*%
%TO.N,Earth*%
X135260000Y-85100000D03*
D14*
%TO.P,J2,2,Pin_2*%
%TO.N,Net-(J2-Pin_2)*%
X137800000Y-85100000D03*
%TO.P,J2,3,Pin_3*%
%TO.N,Net-(J2-Pin_3)*%
X140340000Y-85100000D03*
%TD*%
D10*
%TO.P,C105,1*%
%TO.N,Net-(C104-Pad2)*%
X145200000Y-83300000D03*
%TO.P,C105,2*%
%TO.N,Net-(J2-Pin_3)*%
X145200000Y-88300000D03*
%TD*%
%TO.P,R102,1*%
%TO.N,Net-(Q1-S)*%
X124980000Y-59000000D03*
D11*
%TO.P,R102,2*%
%TO.N,Earth*%
X114820000Y-59000000D03*
%TD*%
D17*
%TO.P,Q1,1,S*%
%TO.N,Net-(Q1-S)*%
X125200000Y-65640000D03*
D18*
%TO.P,Q1,2,D*%
%TO.N,+9VA*%
X123130000Y-64370000D03*
%TO.P,Q1,3,G*%
%TO.N,Net-(Q1-G)*%
X125200000Y-63100000D03*
%TD*%
D10*
%TO.P,R2,1*%
%TO.N,Net-(J6-Pin_3)*%
X155500000Y-81360000D03*
D11*
%TO.P,R2,2*%
%TO.N,Net-(C1-Pad2)*%
X155500000Y-71200000D03*
%TD*%
D10*
%TO.P,R208,1*%
%TO.N,Net-(J3-Pin_2)*%
X144880000Y-102800000D03*
D11*
%TO.P,R208,2*%
%TO.N,Net-(U2A--)*%
X134720000Y-102800000D03*
%TD*%
D10*
%TO.P,R1011,1*%
%TO.N,Net-(Q1-G)*%
X119200000Y-69000000D03*
D11*
%TO.P,R1011,2*%
%TO.N,Net-(SW1-B)*%
X119200000Y-79160000D03*
%TD*%
D10*
%TO.P,R103,1*%
%TO.N,Net-(C103-Pad2)*%
X130140000Y-66100000D03*
D11*
%TO.P,R103,2*%
%TO.N,Net-(U1A-+)*%
X140300000Y-66100000D03*
%TD*%
D19*
%TO.P,J5,1,Pin_1*%
%TO.N,Earth*%
X170600000Y-82500000D03*
D16*
%TO.P,J5,2,Pin_2*%
%TO.N,Net-(J5-Pin_2)*%
X170600000Y-85040000D03*
%TD*%
D19*
%TO.P,J6,1,Pin_1*%
%TO.N,Net-(J6-Pin_1)*%
X163700000Y-72400000D03*
D16*
%TO.P,J6,2,Pin_2*%
X163700000Y-74940000D03*
%TO.P,J6,3,Pin_3*%
%TO.N,Net-(J6-Pin_3)*%
X163700000Y-77480000D03*
%TD*%
D10*
%TO.P,R207,1*%
%TO.N,Net-(U1B--)*%
X145700000Y-80160000D03*
D11*
%TO.P,R207,2*%
%TO.N,Net-(C204-Pad2)*%
X145700000Y-70000000D03*
%TD*%
D10*
%TO.P,C103,1*%
%TO.N,Net-(Q1-S)*%
X132720000Y-59000000D03*
%TO.P,C103,2*%
%TO.N,Net-(C103-Pad2)*%
X137720000Y-59000000D03*
%TD*%
D20*
%TO.P,SW1,1,A*%
%TO.N,Earth*%
X111500000Y-84900000D03*
%TO.P,SW1,2,B*%
%TO.N,Net-(SW1-B)*%
X114500000Y-84900000D03*
%TO.P,SW1,3*%
%TO.N,N/C*%
X117500000Y-84900000D03*
%TD*%
D10*
%TO.P,C204,1*%
%TO.N,Net-(U1B--)*%
X149800000Y-77900000D03*
%TO.P,C204,2*%
%TO.N,Net-(C204-Pad2)*%
X149800000Y-72900000D03*
%TD*%
D21*
%TO.P,U2,1*%
%TO.N,Net-(C1-Pad2)*%
X150580000Y-59600000D03*
D10*
%TO.P,U2,2,-*%
%TO.N,Net-(U2A--)*%
X150580000Y-62140000D03*
%TO.P,U2,3,+*%
%TO.N,+4V*%
X150580000Y-64680000D03*
%TO.P,U2,4,V-*%
%TO.N,Earth*%
X150580000Y-67220000D03*
%TO.P,U2,5,+*%
%TO.N,+4V*%
X158200000Y-67220000D03*
%TO.P,U2,6,-*%
%TO.N,Net-(J6-Pin_1)*%
X158200000Y-64680000D03*
%TO.P,U2,7*%
%TO.N,Net-(C2-Pad2)*%
X158200000Y-62140000D03*
%TO.P,U2,8,V+*%
%TO.N,+9VA*%
X158200000Y-59600000D03*
%TD*%
%TO.P,R1012,1*%
%TO.N,Net-(SW1-B)*%
X115900000Y-78300000D03*
D11*
%TO.P,R1012,2*%
%TO.N,Earth*%
X105740000Y-78300000D03*
%TD*%
D10*
%TO.P,R206,1*%
%TO.N,Net-(U1B--)*%
X149700000Y-80800000D03*
D11*
%TO.P,R206,2*%
%TO.N,Earth*%
X149700000Y-90960000D03*
%TD*%
D22*
%TO.P,D1,1,K*%
%TO.N,+9VA*%
X160920000Y-89800000D03*
D23*
%TO.P,D1,2,A*%
%TO.N,+9V*%
X171080000Y-89800000D03*
%TD*%
D21*
%TO.P,U1,1*%
%TO.N,Net-(C104-Pad2)*%
X134600000Y-71200000D03*
D10*
%TO.P,U1,2,-*%
%TO.N,Net-(U1A--)*%
X134600000Y-73740000D03*
%TO.P,U1,3,+*%
%TO.N,Net-(U1A-+)*%
X134600000Y-76280000D03*
%TO.P,U1,4,V-*%
%TO.N,Earth*%
X134600000Y-78820000D03*
%TO.P,U1,5,+*%
%TO.N,Net-(U1B-+)*%
X142220000Y-78820000D03*
%TO.P,U1,6,-*%
%TO.N,Net-(U1B--)*%
X142220000Y-76280000D03*
%TO.P,U1,7*%
%TO.N,Net-(C204-Pad2)*%
X142220000Y-73740000D03*
%TO.P,U1,8,V+*%
%TO.N,+9VA*%
X142220000Y-71200000D03*
%TD*%
%TO.P,R6,1*%
%TO.N,Earth*%
X160920000Y-97400000D03*
D11*
%TO.P,R6,2*%
%TO.N,+4V*%
X171080000Y-97400000D03*
%TD*%
D24*
%TO.P,J4,1,Pin_1*%
%TO.N,Earth*%
X157370000Y-104080000D03*
D14*
%TO.P,J4,2,Pin_2*%
%TO.N,+9V*%
X154830000Y-104080000D03*
%TD*%
D10*
%TO.P,R104,1*%
%TO.N,Net-(U1A-+)*%
X123100000Y-79160000D03*
D11*
%TO.P,R104,2*%
%TO.N,+9VA*%
X123100000Y-69000000D03*
%TD*%
D10*
%TO.P,R205,1*%
%TO.N,Earth*%
X108520000Y-98600000D03*
D11*
%TO.P,R205,2*%
%TO.N,Net-(U1B-+)*%
X118680000Y-98600000D03*
%TD*%
D10*
%TO.P,R105,1*%
%TO.N,Earth*%
X130700000Y-90260000D03*
D11*
%TO.P,R105,2*%
%TO.N,Net-(U1A-+)*%
X130700000Y-80100000D03*
%TD*%
D10*
%TO.P,R106,1*%
%TO.N,Net-(U1A--)*%
X126900000Y-82500000D03*
D11*
%TO.P,R106,2*%
%TO.N,Earth*%
X126900000Y-92660000D03*
%TD*%
D10*
%TO.P,C104,1*%
%TO.N,Net-(U1A--)*%
X130600000Y-76900000D03*
%TO.P,C104,2*%
%TO.N,Net-(C104-Pad2)*%
X130600000Y-71900000D03*
%TD*%
%TO.P,C101,1*%
%TO.N,Net-(J1-Pin_3)*%
X114400000Y-69300000D03*
%TO.P,C101,2*%
%TO.N,Earth*%
X114400000Y-74300000D03*
%TD*%
%TO.P,C202,1*%
%TO.N,Net-(J1-Pin_2)*%
X106080000Y-90700000D03*
%TO.P,C202,2*%
%TO.N,Net-(C202-Pad2)*%
X111080000Y-90700000D03*
%TD*%
%TO.P,R4,1*%
%TO.N,Earth*%
X153620000Y-84700000D03*
D11*
%TO.P,R4,2*%
%TO.N,Net-(J5-Pin_2)*%
X163780000Y-84700000D03*
%TD*%
D25*
%TO.N,Net-(U2A--)*%
X150580000Y-62140000D02*
X149448630Y-62140000D01*
X147600000Y-63988630D02*
X147600000Y-64900000D01*
X147600000Y-64900000D02*
X146800000Y-64900000D01*
X119695001Y-103260000D02*
X108600000Y-92164999D01*
X149448630Y-62140000D02*
X147600000Y-63988630D01*
X144200000Y-61200000D02*
X144200000Y-67500000D01*
X113700000Y-56300000D02*
X139300000Y-56300000D01*
X146800000Y-64900000D02*
X144200000Y-67500000D01*
X108600000Y-77062000D02*
X111900000Y-73762000D01*
X130700000Y-103260000D02*
X119695001Y-103260000D01*
X111900000Y-73762000D02*
X111900000Y-58100000D01*
X139300000Y-56300000D02*
X144200000Y-61200000D01*
X108600000Y-92164999D02*
X108600000Y-77062000D01*
X111900000Y-58100000D02*
X113700000Y-56300000D01*
%TO.N,+9VA*%
X123100000Y-69000000D02*
X122799000Y-68699000D01*
X146935106Y-75201000D02*
X142934106Y-71200000D01*
X160920000Y-83525894D02*
X152595106Y-75201000D01*
X130685894Y-99700000D02*
X150145894Y-99700000D01*
X123100000Y-92114106D02*
X130685894Y-99700000D01*
X159300000Y-93500000D02*
X160920000Y-93500000D01*
X160920000Y-89800000D02*
X160920000Y-83525894D01*
X152595106Y-75201000D02*
X146935106Y-75201000D01*
X142934106Y-71200000D02*
X142220000Y-71200000D01*
X139421000Y-68401000D02*
X130753106Y-68401000D01*
X160920000Y-89800000D02*
X160920000Y-93500000D01*
X157901000Y-94899000D02*
X159300000Y-93500000D01*
X125401000Y-71301000D02*
X123100000Y-69000000D01*
X127853106Y-71301000D02*
X125401000Y-71301000D01*
X150145894Y-99700000D02*
X154946894Y-94899000D01*
X154946894Y-94899000D02*
X157901000Y-94899000D01*
X142220000Y-71200000D02*
X139421000Y-68401000D01*
X123100000Y-89220000D02*
X123100000Y-92114106D01*
X122799000Y-68699000D02*
X122799000Y-64370000D01*
X130753106Y-68401000D02*
X127853106Y-71301000D01*
%TO.N,Earth*%
X135260000Y-84720000D02*
X135260000Y-79480000D01*
X135260000Y-79480000D02*
X134600000Y-78820000D01*
%TO.N,+4V*%
X150580000Y-64680000D02*
X154945894Y-64680000D01*
X158200000Y-75558100D02*
X168004000Y-85362100D01*
X158200000Y-67220000D02*
X158200000Y-75558100D01*
X157485894Y-67220000D02*
X158200000Y-67220000D01*
X168004000Y-90424000D02*
X171080000Y-93500000D01*
X154945894Y-64680000D02*
X157485894Y-67220000D01*
X168004000Y-85362100D02*
X168004000Y-90424000D01*
%TO.N,Net-(C104-Pad2)*%
X138100000Y-78400000D02*
X138100000Y-73900000D01*
X145200000Y-83300000D02*
X143000000Y-83300000D01*
X135400000Y-71200000D02*
X134600000Y-71200000D01*
X138100000Y-73900000D02*
X135400000Y-71200000D01*
X143000000Y-83300000D02*
X138100000Y-78400000D01*
%TO.N,Net-(U1A--)*%
X133760000Y-73740000D02*
X134600000Y-73740000D01*
X130600000Y-76900000D02*
X133760000Y-73740000D01*
%TO.N,Net-(J2-Pin_3)*%
X142000000Y-85100000D02*
X145200000Y-88300000D01*
X140340000Y-85100000D02*
X142000000Y-85100000D01*
%TO.N,Net-(C204-Pad2)*%
X143351370Y-73740000D02*
X142220000Y-73740000D01*
X145200000Y-91500000D02*
X147501000Y-89199000D01*
X147501000Y-77889630D02*
X143351370Y-73740000D01*
X147501000Y-89199000D02*
X147501000Y-77889630D01*
%TO.N,+9V*%
X171080000Y-89800000D02*
X174000000Y-92720000D01*
X156365000Y-100900000D02*
X154830000Y-102435000D01*
X154830000Y-102435000D02*
X154830000Y-104080000D01*
X171700000Y-100900000D02*
X156365000Y-100900000D01*
X174000000Y-98600000D02*
X171700000Y-100900000D01*
X174000000Y-92720000D02*
X174000000Y-98600000D01*
%TO.N,Net-(J2-Pin_2)*%
X137800000Y-86000000D02*
X137800000Y-85100000D01*
X130700000Y-93100000D02*
X137800000Y-86000000D01*
%TD*%
M02*
